<?xml version="1.0" encoding="us-ascii" standalone="no"?><svg xmlns="http://www.w3.org/2000/svg" xmlns:xlink="http://www.w3.org/1999/xlink" contentStyleType="text/css" height="351px" preserveAspectRatio="none" style="width:1098px;height:351px;background:#FFFFFF;" version="1.1" viewBox="0 0 1098 351" width="1098px" zoomAndPan="magnify"><defs/><g><text fill="#000000" font-family="sans-serif" font-size="14" font-weight="bold" lengthAdjust="spacing" textLength="629" x="236" y="27.9951">Processus de consultation de l'inventaire (multi-magasin, Express, PostgreSQL)</text><line style="stroke:#181818;stroke-width:0.5;stroke-dasharray:5.0,5.0;" x1="42" x2="42" y1="120.8906" y2="344.8203"/><line style="stroke:#181818;stroke-width:0.5;stroke-dasharray:5.0,5.0;" x1="233" x2="233" y1="120.8906" y2="344.8203"/><line style="stroke:#181818;stroke-width:0.5;stroke-dasharray:5.0,5.0;" x1="565" x2="565" y1="120.8906" y2="344.8203"/><line style="stroke:#181818;stroke-width:0.5;stroke-dasharray:5.0,5.0;" x1="726" x2="726" y1="120.8906" y2="344.8203"/><line style="stroke:#181818;stroke-width:0.5;stroke-dasharray:5.0,5.0;" x1="1053" x2="1053" y1="120.8906" y2="344.8203"/><text fill="#000000" font-family="sans-serif" font-size="14" lengthAdjust="spacing" textLength="68" x="5" y="117.5889">Utilisateur</text><ellipse cx="42" cy="53.0938" fill="#E2E2F0" rx="8" ry="8" style="stroke:#181818;stroke-width:0.5;"/><path d="M42,61.0938 L42,88.0938 M29,69.0938 L55,69.0938 M42,88.0938 L29,103.0938 M42,88.0938 L55,103.0938 " fill="none" style="stroke:#181818;stroke-width:0.5;"/><rect fill="#E2E2F0" height="30.2969" rx="2.5" ry="2.5" style="stroke:#181818;stroke-width:0.5;" width="122" x="172" y="89.5938"/><text fill="#000000" font-family="sans-serif" font-size="14" lengthAdjust="spacing" textLength="108" x="179" y="109.5889">Navigateur Web</text><rect fill="#E2E2F0" height="46.5938" rx="2.5" ry="2.5" style="stroke:#181818;stroke-width:0.5;" width="158" x="486" y="73.2969"/><text fill="#000000" font-family="sans-serif" font-size="14" lengthAdjust="spacing" textLength="70" x="530" y="93.292">Express.js</text><text fill="#000000" font-family="sans-serif" font-size="14" lengthAdjust="spacing" textLength="144" x="493" y="109.5889">(serviceApiRouter.ts)</text><rect fill="#E2E2F0" height="46.5938" rx="2.5" ry="2.5" style="stroke:#181818;stroke-width:0.5;" width="145" x="654" y="73.2969"/><text fill="#000000" font-family="sans-serif" font-size="14" lengthAdjust="spacing" textLength="104" x="674.5" y="93.292">ProductService</text><text fill="#000000" font-family="sans-serif" font-size="14" lengthAdjust="spacing" textLength="131" x="661" y="109.5889">(productService.ts)</text><text fill="#000000" font-family="sans-serif" font-size="14" lengthAdjust="spacing" textLength="81" x="1010" y="101.292">PostgreSQL</text><text fill="#000000" font-family="sans-serif" font-size="14" lengthAdjust="spacing" textLength="77" x="1012" y="117.5889">(TypeORM)</text><path d="M1035.5,52.2969 C1035.5,42.2969 1053.5,42.2969 1053.5,42.2969 C1053.5,42.2969 1071.5,42.2969 1071.5,52.2969 L1071.5,78.2969 C1071.5,88.2969 1053.5,88.2969 1053.5,88.2969 C1053.5,88.2969 1035.5,88.2969 1035.5,78.2969 L1035.5,52.2969 " fill="#E2E2F0" style="stroke:#181818;stroke-width:1.5;"/><path d="M1035.5,52.2969 C1035.5,62.2969 1053.5,62.2969 1053.5,62.2969 C1053.5,62.2969 1071.5,62.2969 1071.5,52.2969 " fill="none" style="stroke:#181818;stroke-width:1.5;"/><polygon fill="#181818" points="221,148.0234,231,152.0234,221,156.0234" style="stroke:#181818;stroke-width:1.0;"/><line style="stroke:#181818;stroke-width:1.0;" x1="42" x2="227" y1="152.0234" y2="152.0234"/><text fill="#000000" font-family="sans-serif" font-size="13" lengthAdjust="spacing" textLength="167" x="49" y="146.9575">Choisir 'Consulter le stock'</text><polygon fill="#181818" points="553,177.1563,563,181.1563,553,185.1563" style="stroke:#181818;stroke-width:1.0;"/><line style="stroke:#181818;stroke-width:1.0;" x1="233" x2="559" y1="181.1563" y2="181.1563"/><text fill="#000000" font-family="sans-serif" font-size="13" lengthAdjust="spacing" textLength="205" x="240" y="176.0903">GET /consulter-stock?storeId=...</text><polygon fill="#181818" points="714.5,206.2891,724.5,210.2891,714.5,214.2891" style="stroke:#181818;stroke-width:1.0;"/><line style="stroke:#181818;stroke-width:1.0;" x1="565" x2="720.5" y1="210.2891" y2="210.2891"/><text fill="#000000" font-family="sans-serif" font-size="13" lengthAdjust="spacing" textLength="133" x="572" y="205.2231">handleStock(storeId)</text><polygon fill="#181818" points="1041.5,235.4219,1051.5,239.4219,1041.5,243.4219" style="stroke:#181818;stroke-width:1.0;"/><line style="stroke:#181818;stroke-width:1.0;" x1="726.5" x2="1047.5" y1="239.4219" y2="239.4219"/><text fill="#000000" font-family="sans-serif" font-size="13" lengthAdjust="spacing" textLength="303" x="733.5" y="234.356">getRepository(Inventory).find({ store: storeId })</text><polygon fill="#181818" points="737.5,264.5547,727.5,268.5547,737.5,272.5547" style="stroke:#181818;stroke-width:1.0;"/><line style="stroke:#181818;stroke-width:1.0;stroke-dasharray:2.0,2.0;" x1="731.5" x2="1052.5" y1="268.5547" y2="268.5547"/><text fill="#000000" font-family="sans-serif" font-size="13" lengthAdjust="spacing" textLength="253" x="743.5" y="263.4888">informations des stocks (produit, stock)</text><polygon fill="#181818" points="576,293.6875,566,297.6875,576,301.6875" style="stroke:#181818;stroke-width:1.0;"/><line style="stroke:#181818;stroke-width:1.0;stroke-dasharray:2.0,2.0;" x1="570" x2="725.5" y1="297.6875" y2="297.6875"/><text fill="#000000" font-family="sans-serif" font-size="13" lengthAdjust="spacing" textLength="98" x="582" y="292.6216">liste des stocks</text><polygon fill="#181818" points="244,322.8203,234,326.8203,244,330.8203" style="stroke:#181818;stroke-width:1.0;"/><line style="stroke:#181818;stroke-width:1.0;stroke-dasharray:2.0,2.0;" x1="238" x2="564" y1="326.8203" y2="326.8203"/><text fill="#000000" font-family="sans-serif" font-size="13" lengthAdjust="spacing" textLength="308" x="250" y="321.7544">Afficher r&#233;sultats (produit, cat&#233;gorie, prix, stock)</text><!--SRC=[RP9BJkD048RtVOeIczXIujaZCIF488GqF2O1iM7Jj2jEWTrjTPKZej4SY7DmiIa_OkA1JTjT_hzw_2v-8L_RQ2jWsPMePoGdJLKQ8oGQk8t18NF3a2EuuBafnGe5tzxB6VajUh4K4P9AFz6YieLbydCuVwsZadEu3In5nDNlNwanrac8S2zK4bl19XejB-IejbxWwDfkgUZYy81FHs2vVKurG-BicHzzmXYtvF2qfcLe16Ccd7ROe9gYEatUE5draEBr9332Kvt9hTWdowW9nbaKljlLUBEywf6VWyQOW-5WyRtj7uxXR1E8ASBihFSG8tHs1_SoCwr4bKFBghuuluDlRgzSTB8VUaQyp4-oB3DxgLBJNXNUM9-Nk6gPP61IyvzAkNt3IXGeIwm3awftoMNtJ_KjpTRay-GFT5cEOKW6VrCpmeklEY2_3h7grgJT6-xdPEZj9fdtWSzTJKnG4mKFy8-XHrTFrsjo6_Kolh_rctbOn5bvVoj299n37UbrBFiF]--></g></svg>