<?xml version="1.0" encoding="us-ascii" standalone="no"?><svg xmlns="http://www.w3.org/2000/svg" xmlns:xlink="http://www.w3.org/1999/xlink" contentStyleType="text/css" height="710px" preserveAspectRatio="none" style="width:1288px;height:710px;background:#FFFFFF;" version="1.1" viewBox="0 0 1288 710" width="1288px" zoomAndPan="magnify"><defs/><g><text fill="#000000" font-family="sans-serif" font-size="14" font-weight="bold" lengthAdjust="spacing" textLength="291" x="491.91" y="24.5332">Diagramme de classes des microservices</text><!--cluster frontend--><g id="cluster_frontend"><path d="M539.32,44.6094 L601.32,44.6094 A3.75,3.75 0 0 1 603.82,47.1094 L610.82,68.2188 L656.32,68.2188 A2.5,2.5 0 0 1 658.82,70.7188 L658.82,142.1094 A2.5,2.5 0 0 1 656.32,144.6094 L539.32,144.6094 A2.5,2.5 0 0 1 536.82,142.1094 L536.82,47.1094 A2.5,2.5 0 0 1 539.32,44.6094 " fill="#ADD8E6" style="stroke:#333333;stroke-width:1.5;"/><line style="stroke:#333333;stroke-width:1.5;" x1="536.82" x2="610.82" y1="68.2188" y2="68.2188"/><text fill="#333333" font-family="sans-serif" font-size="14" font-weight="bold" lengthAdjust="spacing" textLength="61" x="540.82" y="61.1426">frontend</text></g><!--cluster auth--><g id="cluster_auth"><path d="M367.32,325.6094 L399.32,325.6094 A3.75,3.75 0 0 1 401.82,328.1094 L408.82,349.2188 L611.32,349.2188 A2.5,2.5 0 0 1 613.82,351.7188 L613.82,423.1094 A2.5,2.5 0 0 1 611.32,425.6094 L367.32,425.6094 A2.5,2.5 0 0 1 364.82,423.1094 L364.82,328.1094 A2.5,2.5 0 0 1 367.32,325.6094 " fill="#FFDAB9" style="stroke:#333333;stroke-width:1.5;"/><line style="stroke:#333333;stroke-width:1.5;" x1="364.82" x2="408.82" y1="349.2188" y2="349.2188"/><text fill="#333333" font-family="sans-serif" font-size="14" font-weight="bold" lengthAdjust="spacing" textLength="31" x="368.82" y="342.1426">auth</text></g><!--cluster products--><g id="cluster_products"><path d="M1060.32,475.6094 L1124.32,475.6094 A3.75,3.75 0 0 1 1126.82,478.1094 L1133.82,499.2188 L1177.32,499.2188 A2.5,2.5 0 0 1 1179.82,501.7188 L1179.82,701.1094 A2.5,2.5 0 0 1 1177.32,703.6094 L1060.32,703.6094 A2.5,2.5 0 0 1 1057.82,701.1094 L1057.82,478.1094 A2.5,2.5 0 0 1 1060.32,475.6094 " fill="#90EE90" style="stroke:#333333;stroke-width:1.5;"/><line style="stroke:#333333;stroke-width:1.5;" x1="1057.82" x2="1133.82" y1="499.2188" y2="499.2188"/><text fill="#333333" font-family="sans-serif" font-size="14" font-weight="bold" lengthAdjust="spacing" textLength="63" x="1061.82" y="492.1426">products</text></g><!--cluster inventory--><g id="cluster_inventory"><path d="M88.32,177.6094 L156.32,177.6094 A3.75,3.75 0 0 1 158.82,180.1094 L165.82,201.2188 L255.32,201.2188 A2.5,2.5 0 0 1 257.82,203.7188 L257.82,423.1094 A2.5,2.5 0 0 1 255.32,425.6094 L88.32,425.6094 A2.5,2.5 0 0 1 85.82,423.1094 L85.82,180.1094 A2.5,2.5 0 0 1 88.32,177.6094 " fill="#FFB6C1" style="stroke:#333333;stroke-width:1.5;"/><line style="stroke:#333333;stroke-width:1.5;" x1="85.82" x2="165.82" y1="201.2188" y2="201.2188"/><text fill="#333333" font-family="sans-serif" font-size="14" font-weight="bold" lengthAdjust="spacing" textLength="67" x="89.82" y="194.1426">inventory</text></g><!--cluster sales--><g id="cluster_sales"><path d="M802.32,177.6094 L840.32,177.6094 A3.75,3.75 0 0 1 842.82,180.1094 L849.82,201.2188 L1171.32,201.2188 A2.5,2.5 0 0 1 1173.82,203.7188 L1173.82,423.1094 A2.5,2.5 0 0 1 1171.32,425.6094 L802.32,425.6094 A2.5,2.5 0 0 1 799.82,423.1094 L799.82,180.1094 A2.5,2.5 0 0 1 802.32,177.6094 " fill="#E6E6FA" style="stroke:#333333;stroke-width:1.5;"/><line style="stroke:#333333;stroke-width:1.5;" x1="799.82" x2="849.82" y1="201.2188" y2="201.2188"/><text fill="#333333" font-family="sans-serif" font-size="14" font-weight="bold" lengthAdjust="spacing" textLength="37" x="803.82" y="194.1426">sales</text></g><!--cluster store--><g id="cluster_store"><path d="M329.32,475.6094 L367.32,475.6094 A3.75,3.75 0 0 1 369.82,478.1094 L376.82,499.2188 L422.32,499.2188 A2.5,2.5 0 0 1 424.82,501.7188 L424.82,573.1094 A2.5,2.5 0 0 1 422.32,575.6094 L329.32,575.6094 A2.5,2.5 0 0 1 326.82,573.1094 L326.82,478.1094 A2.5,2.5 0 0 1 329.32,475.6094 " fill="#FFFACD" style="stroke:#333333;stroke-width:1.5;"/><line style="stroke:#333333;stroke-width:1.5;" x1="326.82" x2="376.82" y1="499.2188" y2="499.2188"/><text fill="#333333" font-family="sans-serif" font-size="14" font-weight="bold" lengthAdjust="spacing" textLength="37" x="330.82" y="492.1426">store</text></g><!--class Frontend--><g id="elem_Frontend"><rect codeLine="21" fill="#EFEFEF" height="48" id="Frontend" rx="2.5" ry="2.5" style="stroke:#666666;stroke-width:0.5;" width="90" x="552.82" y="80.6094"/><ellipse cx="567.82" cy="96.6094" fill="#ADD1B2" rx="11" ry="11" style="stroke:#181818;stroke-width:1.0;"/><path d="M570.5856,92.4844 Q570.7419,92.2656 570.9294,92.1563 Q571.1169,92.0469 571.3356,92.0469 Q571.7106,92.0469 571.945,92.3125 Q572.1794,92.5625 572.1794,93.1719 L572.1794,94.625 Q572.1794,95.2344 571.945,95.5 Q571.7106,95.7656 571.3356,95.7656 Q570.9919,95.7656 570.7888,95.5625 Q570.5856,95.375 570.4763,94.8594 Q570.4294,94.5 570.2419,94.3125 Q569.9138,93.9375 569.3044,93.7188 Q568.695,93.5 568.07,93.5 Q567.3044,93.5 566.6638,93.8281 Q566.0388,94.1563 565.5388,94.9063 Q565.0544,95.6563 565.0544,96.6875 L565.0544,97.7813 Q565.0544,99.0156 565.945,99.8438 Q566.8356,100.6563 568.4294,100.6563 Q569.3669,100.6563 570.0231,100.4063 Q570.4138,100.25 570.8356,99.8125 Q571.1013,99.5469 571.2419,99.4688 Q571.3981,99.3906 571.6013,99.3906 Q571.9294,99.3906 572.1794,99.6563 Q572.445,99.9063 572.445,100.25 Q572.445,100.5938 572.1013,101 Q571.6013,101.5781 570.8044,101.9063 Q569.7263,102.3594 568.4294,102.3594 Q566.9138,102.3594 565.7106,101.7344 Q564.7263,101.2344 564.0388,100.1719 Q563.3513,99.0938 563.3513,97.8125 L563.3513,96.6563 Q563.3513,95.3281 563.9606,94.1875 Q564.5856,93.0313 565.6794,92.4219 Q566.7731,91.7969 568.0075,91.7969 Q568.7419,91.7969 569.3825,91.9688 Q570.0388,92.125 570.5856,92.4844 Z " fill="#000000"/><text fill="#222222" font-family="sans-serif" font-size="14" lengthAdjust="spacing" textLength="58" x="581.82" y="102.3379">Frontend</text><line style="stroke:#666666;stroke-width:0.5;" x1="553.82" x2="641.82" y1="112.6094" y2="112.6094"/><line style="stroke:#666666;stroke-width:0.5;" x1="553.82" x2="641.82" y1="120.6094" y2="120.6094"/></g><!--class Customer--><g id="elem_Customer"><rect codeLine="25" fill="#EFEFEF" height="48" id="Customer" rx="2.5" ry="2.5" style="stroke:#666666;stroke-width:0.5;" width="93" x="504.32" y="361.6094"/><ellipse cx="519.32" cy="377.6094" fill="#ADD1B2" rx="11" ry="11" style="stroke:#181818;stroke-width:1.0;"/><path d="M522.0856,373.4844 Q522.2419,373.2656 522.4294,373.1563 Q522.6169,373.0469 522.8356,373.0469 Q523.2106,373.0469 523.445,373.3125 Q523.6794,373.5625 523.6794,374.1719 L523.6794,375.625 Q523.6794,376.2344 523.445,376.5 Q523.2106,376.7656 522.8356,376.7656 Q522.4919,376.7656 522.2887,376.5625 Q522.0856,376.375 521.9762,375.8594 Q521.9294,375.5 521.7419,375.3125 Q521.4137,374.9375 520.8044,374.7188 Q520.195,374.5 519.57,374.5 Q518.8044,374.5 518.1637,374.8281 Q517.5387,375.1563 517.0387,375.9063 Q516.5544,376.6563 516.5544,377.6875 L516.5544,378.7813 Q516.5544,380.0156 517.445,380.8438 Q518.3356,381.6563 519.9294,381.6563 Q520.8669,381.6563 521.5231,381.4063 Q521.9137,381.25 522.3356,380.8125 Q522.6012,380.5469 522.7419,380.4688 Q522.8981,380.3906 523.1012,380.3906 Q523.4294,380.3906 523.6794,380.6563 Q523.945,380.9063 523.945,381.25 Q523.945,381.5938 523.6012,382 Q523.1012,382.5781 522.3044,382.9063 Q521.2262,383.3594 519.9294,383.3594 Q518.4137,383.3594 517.2106,382.7344 Q516.2262,382.2344 515.5387,381.1719 Q514.8512,380.0938 514.8512,378.8125 L514.8512,377.6563 Q514.8512,376.3281 515.4606,375.1875 Q516.0856,374.0313 517.1794,373.4219 Q518.2731,372.7969 519.5075,372.7969 Q520.2419,372.7969 520.8825,372.9688 Q521.5387,373.125 522.0856,373.4844 Z " fill="#000000"/><text fill="#222222" font-family="sans-serif" font-size="14" lengthAdjust="spacing" textLength="61" x="533.32" y="383.3379">Customer</text><line style="stroke:#666666;stroke-width:0.5;" x1="505.32" x2="596.32" y1="393.6094" y2="393.6094"/><line style="stroke:#666666;stroke-width:0.5;" x1="505.32" x2="596.32" y1="401.6094" y2="401.6094"/></g><!--class Manager--><g id="elem_Manager"><rect codeLine="26" fill="#EFEFEF" height="48" id="Manager" rx="2.5" ry="2.5" style="stroke:#666666;stroke-width:0.5;" width="88" x="380.82" y="361.6094"/><ellipse cx="395.82" cy="377.6094" fill="#ADD1B2" rx="11" ry="11" style="stroke:#181818;stroke-width:1.0;"/><path d="M398.5856,373.4844 Q398.7419,373.2656 398.9294,373.1563 Q399.1169,373.0469 399.3356,373.0469 Q399.7106,373.0469 399.945,373.3125 Q400.1794,373.5625 400.1794,374.1719 L400.1794,375.625 Q400.1794,376.2344 399.945,376.5 Q399.7106,376.7656 399.3356,376.7656 Q398.9919,376.7656 398.7888,376.5625 Q398.5856,376.375 398.4763,375.8594 Q398.4294,375.5 398.2419,375.3125 Q397.9138,374.9375 397.3044,374.7188 Q396.695,374.5 396.07,374.5 Q395.3044,374.5 394.6638,374.8281 Q394.0388,375.1563 393.5388,375.9063 Q393.0544,376.6563 393.0544,377.6875 L393.0544,378.7813 Q393.0544,380.0156 393.945,380.8438 Q394.8356,381.6563 396.4294,381.6563 Q397.3669,381.6563 398.0231,381.4063 Q398.4138,381.25 398.8356,380.8125 Q399.1013,380.5469 399.2419,380.4688 Q399.3981,380.3906 399.6013,380.3906 Q399.9294,380.3906 400.1794,380.6563 Q400.445,380.9063 400.445,381.25 Q400.445,381.5938 400.1013,382 Q399.6013,382.5781 398.8044,382.9063 Q397.7263,383.3594 396.4294,383.3594 Q394.9138,383.3594 393.7106,382.7344 Q392.7263,382.2344 392.0388,381.1719 Q391.3513,380.0938 391.3513,378.8125 L391.3513,377.6563 Q391.3513,376.3281 391.9606,375.1875 Q392.5856,374.0313 393.6794,373.4219 Q394.7731,372.7969 396.0075,372.7969 Q396.7419,372.7969 397.3825,372.9688 Q398.0388,373.125 398.5856,373.4844 Z " fill="#000000"/><text fill="#222222" font-family="sans-serif" font-size="14" lengthAdjust="spacing" textLength="56" x="409.82" y="383.3379">Manager</text><line style="stroke:#666666;stroke-width:0.5;" x1="381.82" x2="467.82" y1="393.6094" y2="393.6094"/><line style="stroke:#666666;stroke-width:0.5;" x1="381.82" x2="467.82" y1="401.6094" y2="401.6094"/></g><!--class Product--><g id="elem_Product"><rect codeLine="30" fill="#EFEFEF" height="48" id="Product" rx="2.5" ry="2.5" style="stroke:#666666;stroke-width:0.5;" width="81" x="1074.32" y="511.6094"/><ellipse cx="1089.32" cy="527.6094" fill="#ADD1B2" rx="11" ry="11" style="stroke:#181818;stroke-width:1.0;"/><path d="M1092.0856,523.4844 Q1092.2419,523.2656 1092.4294,523.1563 Q1092.6169,523.0469 1092.8356,523.0469 Q1093.2106,523.0469 1093.445,523.3125 Q1093.6794,523.5625 1093.6794,524.1719 L1093.6794,525.625 Q1093.6794,526.2344 1093.445,526.5 Q1093.2106,526.7656 1092.8356,526.7656 Q1092.4919,526.7656 1092.2888,526.5625 Q1092.0856,526.375 1091.9763,525.8594 Q1091.9294,525.5 1091.7419,525.3125 Q1091.4138,524.9375 1090.8044,524.7188 Q1090.195,524.5 1089.57,524.5 Q1088.8044,524.5 1088.1638,524.8281 Q1087.5388,525.1563 1087.0388,525.9063 Q1086.5544,526.6563 1086.5544,527.6875 L1086.5544,528.7813 Q1086.5544,530.0156 1087.445,530.8438 Q1088.3356,531.6563 1089.9294,531.6563 Q1090.8669,531.6563 1091.5231,531.4063 Q1091.9138,531.25 1092.3356,530.8125 Q1092.6013,530.5469 1092.7419,530.4688 Q1092.8981,530.3906 1093.1013,530.3906 Q1093.4294,530.3906 1093.6794,530.6563 Q1093.945,530.9063 1093.945,531.25 Q1093.945,531.5938 1093.6013,532 Q1093.1013,532.5781 1092.3044,532.9063 Q1091.2263,533.3594 1089.9294,533.3594 Q1088.4138,533.3594 1087.2106,532.7344 Q1086.2263,532.2344 1085.5388,531.1719 Q1084.8513,530.0938 1084.8513,528.8125 L1084.8513,527.6563 Q1084.8513,526.3281 1085.4606,525.1875 Q1086.0856,524.0313 1087.1794,523.4219 Q1088.2731,522.7969 1089.5075,522.7969 Q1090.2419,522.7969 1090.8825,522.9688 Q1091.5388,523.125 1092.0856,523.4844 Z " fill="#000000"/><text fill="#222222" font-family="sans-serif" font-size="14" lengthAdjust="spacing" textLength="49" x="1103.32" y="533.3379">Product</text><line style="stroke:#666666;stroke-width:0.5;" x1="1075.32" x2="1154.32" y1="543.6094" y2="543.6094"/><line style="stroke:#666666;stroke-width:0.5;" x1="1075.32" x2="1154.32" y1="551.6094" y2="551.6094"/></g><!--class Category--><g id="elem_Category"><rect codeLine="31" fill="#EFEFEF" height="48" id="Category" rx="2.5" ry="2.5" style="stroke:#666666;stroke-width:0.5;" width="90" x="1073.82" y="639.6094"/><ellipse cx="1088.82" cy="655.6094" fill="#ADD1B2" rx="11" ry="11" style="stroke:#181818;stroke-width:1.0;"/><path d="M1091.5856,651.4844 Q1091.7419,651.2656 1091.9294,651.1563 Q1092.1169,651.0469 1092.3356,651.0469 Q1092.7106,651.0469 1092.945,651.3125 Q1093.1794,651.5625 1093.1794,652.1719 L1093.1794,653.625 Q1093.1794,654.2344 1092.945,654.5 Q1092.7106,654.7656 1092.3356,654.7656 Q1091.9919,654.7656 1091.7888,654.5625 Q1091.5856,654.375 1091.4763,653.8594 Q1091.4294,653.5 1091.2419,653.3125 Q1090.9138,652.9375 1090.3044,652.7188 Q1089.695,652.5 1089.07,652.5 Q1088.3044,652.5 1087.6638,652.8281 Q1087.0388,653.1563 1086.5388,653.9063 Q1086.0544,654.6563 1086.0544,655.6875 L1086.0544,656.7813 Q1086.0544,658.0156 1086.945,658.8438 Q1087.8356,659.6563 1089.4294,659.6563 Q1090.3669,659.6563 1091.0231,659.4063 Q1091.4138,659.25 1091.8356,658.8125 Q1092.1013,658.5469 1092.2419,658.4688 Q1092.3981,658.3906 1092.6013,658.3906 Q1092.9294,658.3906 1093.1794,658.6563 Q1093.445,658.9063 1093.445,659.25 Q1093.445,659.5938 1093.1013,660 Q1092.6013,660.5781 1091.8044,660.9063 Q1090.7263,661.3594 1089.4294,661.3594 Q1087.9138,661.3594 1086.7106,660.7344 Q1085.7263,660.2344 1085.0388,659.1719 Q1084.3513,658.0938 1084.3513,656.8125 L1084.3513,655.6563 Q1084.3513,654.3281 1084.9606,653.1875 Q1085.5856,652.0313 1086.6794,651.4219 Q1087.7731,650.7969 1089.0075,650.7969 Q1089.7419,650.7969 1090.3825,650.9688 Q1091.0388,651.125 1091.5856,651.4844 Z " fill="#000000"/><text fill="#222222" font-family="sans-serif" font-size="14" lengthAdjust="spacing" textLength="58" x="1102.82" y="661.3379">Category</text><line style="stroke:#666666;stroke-width:0.5;" x1="1074.82" x2="1162.82" y1="671.6094" y2="671.6094"/><line style="stroke:#666666;stroke-width:0.5;" x1="1074.82" x2="1162.82" y1="679.6094" y2="679.6094"/></g><!--class InventoryProduct--><g id="elem_InventoryProduct"><rect codeLine="35" fill="#EFEFEF" height="48" id="InventoryProduct" rx="2.5" ry="2.5" style="stroke:#666666;stroke-width:0.5;" width="139" x="102.32" y="361.6094"/><ellipse cx="117.32" cy="377.6094" fill="#ADD1B2" rx="11" ry="11" style="stroke:#181818;stroke-width:1.0;"/><path d="M120.0856,373.4844 Q120.2419,373.2656 120.4294,373.1563 Q120.6169,373.0469 120.8356,373.0469 Q121.2106,373.0469 121.445,373.3125 Q121.6794,373.5625 121.6794,374.1719 L121.6794,375.625 Q121.6794,376.2344 121.445,376.5 Q121.2106,376.7656 120.8356,376.7656 Q120.4919,376.7656 120.2888,376.5625 Q120.0856,376.375 119.9763,375.8594 Q119.9294,375.5 119.7419,375.3125 Q119.4138,374.9375 118.8044,374.7188 Q118.195,374.5 117.57,374.5 Q116.8044,374.5 116.1638,374.8281 Q115.5388,375.1563 115.0388,375.9063 Q114.5544,376.6563 114.5544,377.6875 L114.5544,378.7813 Q114.5544,380.0156 115.445,380.8438 Q116.3356,381.6563 117.9294,381.6563 Q118.8669,381.6563 119.5231,381.4063 Q119.9138,381.25 120.3356,380.8125 Q120.6013,380.5469 120.7419,380.4688 Q120.8981,380.3906 121.1013,380.3906 Q121.4294,380.3906 121.6794,380.6563 Q121.945,380.9063 121.945,381.25 Q121.945,381.5938 121.6013,382 Q121.1013,382.5781 120.3044,382.9063 Q119.2263,383.3594 117.9294,383.3594 Q116.4138,383.3594 115.2106,382.7344 Q114.2263,382.2344 113.5388,381.1719 Q112.8513,380.0938 112.8513,378.8125 L112.8513,377.6563 Q112.8513,376.3281 113.4606,375.1875 Q114.0856,374.0313 115.1794,373.4219 Q116.2731,372.7969 117.5075,372.7969 Q118.2419,372.7969 118.8825,372.9688 Q119.5388,373.125 120.0856,373.4844 Z " fill="#000000"/><text fill="#222222" font-family="sans-serif" font-size="14" lengthAdjust="spacing" textLength="107" x="131.32" y="383.3379">InventoryProduct</text><line style="stroke:#666666;stroke-width:0.5;" x1="103.32" x2="240.32" y1="393.6094" y2="393.6094"/><line style="stroke:#666666;stroke-width:0.5;" x1="103.32" x2="240.32" y1="401.6094" y2="401.6094"/></g><!--class SupplyRequest--><g id="elem_SupplyRequest"><rect codeLine="36" fill="#EFEFEF" height="48" id="SupplyRequest" rx="2.5" ry="2.5" style="stroke:#666666;stroke-width:0.5;" width="128" x="101.82" y="213.6094"/><ellipse cx="116.82" cy="229.6094" fill="#ADD1B2" rx="11" ry="11" style="stroke:#181818;stroke-width:1.0;"/><path d="M119.5856,225.4844 Q119.7419,225.2656 119.9294,225.1563 Q120.1169,225.0469 120.3356,225.0469 Q120.7106,225.0469 120.945,225.3125 Q121.1794,225.5625 121.1794,226.1719 L121.1794,227.625 Q121.1794,228.2344 120.945,228.5 Q120.7106,228.7656 120.3356,228.7656 Q119.9919,228.7656 119.7888,228.5625 Q119.5856,228.375 119.4763,227.8594 Q119.4294,227.5 119.2419,227.3125 Q118.9138,226.9375 118.3044,226.7188 Q117.695,226.5 117.07,226.5 Q116.3044,226.5 115.6638,226.8281 Q115.0388,227.1563 114.5388,227.9063 Q114.0544,228.6563 114.0544,229.6875 L114.0544,230.7813 Q114.0544,232.0156 114.945,232.8438 Q115.8356,233.6563 117.4294,233.6563 Q118.3669,233.6563 119.0231,233.4063 Q119.4138,233.25 119.8356,232.8125 Q120.1013,232.5469 120.2419,232.4688 Q120.3981,232.3906 120.6013,232.3906 Q120.9294,232.3906 121.1794,232.6563 Q121.445,232.9063 121.445,233.25 Q121.445,233.5938 121.1013,234 Q120.6013,234.5781 119.8044,234.9063 Q118.7263,235.3594 117.4294,235.3594 Q115.9138,235.3594 114.7106,234.7344 Q113.7263,234.2344 113.0388,233.1719 Q112.3513,232.0938 112.3513,230.8125 L112.3513,229.6563 Q112.3513,228.3281 112.9606,227.1875 Q113.5856,226.0313 114.6794,225.4219 Q115.7731,224.7969 117.0075,224.7969 Q117.7419,224.7969 118.3825,224.9688 Q119.0388,225.125 119.5856,225.4844 Z " fill="#000000"/><text fill="#222222" font-family="sans-serif" font-size="14" lengthAdjust="spacing" textLength="96" x="130.82" y="235.3379">SupplyRequest</text><line style="stroke:#666666;stroke-width:0.5;" x1="102.82" x2="228.82" y1="245.6094" y2="245.6094"/><line style="stroke:#666666;stroke-width:0.5;" x1="102.82" x2="228.82" y1="253.6094" y2="253.6094"/></g><!--class Sale--><g id="elem_Sale"><rect codeLine="40" fill="#EFEFEF" height="48" id="Sale" rx="2.5" ry="2.5" style="stroke:#666666;stroke-width:0.5;" width="60" x="1097.82" y="213.6094"/><ellipse cx="1112.82" cy="229.6094" fill="#ADD1B2" rx="11" ry="11" style="stroke:#181818;stroke-width:1.0;"/><path d="M1115.5856,225.4844 Q1115.7419,225.2656 1115.9294,225.1563 Q1116.1169,225.0469 1116.3356,225.0469 Q1116.7106,225.0469 1116.945,225.3125 Q1117.1794,225.5625 1117.1794,226.1719 L1117.1794,227.625 Q1117.1794,228.2344 1116.945,228.5 Q1116.7106,228.7656 1116.3356,228.7656 Q1115.9919,228.7656 1115.7888,228.5625 Q1115.5856,228.375 1115.4763,227.8594 Q1115.4294,227.5 1115.2419,227.3125 Q1114.9138,226.9375 1114.3044,226.7188 Q1113.695,226.5 1113.07,226.5 Q1112.3044,226.5 1111.6638,226.8281 Q1111.0388,227.1563 1110.5388,227.9063 Q1110.0544,228.6563 1110.0544,229.6875 L1110.0544,230.7813 Q1110.0544,232.0156 1110.945,232.8438 Q1111.8356,233.6563 1113.4294,233.6563 Q1114.3669,233.6563 1115.0231,233.4063 Q1115.4138,233.25 1115.8356,232.8125 Q1116.1013,232.5469 1116.2419,232.4688 Q1116.3981,232.3906 1116.6013,232.3906 Q1116.9294,232.3906 1117.1794,232.6563 Q1117.445,232.9063 1117.445,233.25 Q1117.445,233.5938 1117.1013,234 Q1116.6013,234.5781 1115.8044,234.9063 Q1114.7263,235.3594 1113.4294,235.3594 Q1111.9138,235.3594 1110.7106,234.7344 Q1109.7263,234.2344 1109.0388,233.1719 Q1108.3513,232.0938 1108.3513,230.8125 L1108.3513,229.6563 Q1108.3513,228.3281 1108.9606,227.1875 Q1109.5856,226.0313 1110.6794,225.4219 Q1111.7731,224.7969 1113.0075,224.7969 Q1113.7419,224.7969 1114.3825,224.9688 Q1115.0388,225.125 1115.5856,225.4844 Z " fill="#000000"/><text fill="#222222" font-family="sans-serif" font-size="14" lengthAdjust="spacing" textLength="28" x="1126.82" y="235.3379">Sale</text><line style="stroke:#666666;stroke-width:0.5;" x1="1098.82" x2="1156.82" y1="245.6094" y2="245.6094"/><line style="stroke:#666666;stroke-width:0.5;" x1="1098.82" x2="1156.82" y1="253.6094" y2="253.6094"/></g><!--class SaleItem--><g id="elem_SaleItem"><rect codeLine="41" fill="#EFEFEF" height="48" id="SaleItem" rx="2.5" ry="2.5" style="stroke:#666666;stroke-width:0.5;" width="86" x="1071.82" y="361.6094"/><ellipse cx="1086.82" cy="377.6094" fill="#ADD1B2" rx="11" ry="11" style="stroke:#181818;stroke-width:1.0;"/><path d="M1089.5856,373.4844 Q1089.7419,373.2656 1089.9294,373.1563 Q1090.1169,373.0469 1090.3356,373.0469 Q1090.7106,373.0469 1090.945,373.3125 Q1091.1794,373.5625 1091.1794,374.1719 L1091.1794,375.625 Q1091.1794,376.2344 1090.945,376.5 Q1090.7106,376.7656 1090.3356,376.7656 Q1089.9919,376.7656 1089.7888,376.5625 Q1089.5856,376.375 1089.4763,375.8594 Q1089.4294,375.5 1089.2419,375.3125 Q1088.9138,374.9375 1088.3044,374.7188 Q1087.695,374.5 1087.07,374.5 Q1086.3044,374.5 1085.6638,374.8281 Q1085.0388,375.1563 1084.5388,375.9063 Q1084.0544,376.6563 1084.0544,377.6875 L1084.0544,378.7813 Q1084.0544,380.0156 1084.945,380.8438 Q1085.8356,381.6563 1087.4294,381.6563 Q1088.3669,381.6563 1089.0231,381.4063 Q1089.4138,381.25 1089.8356,380.8125 Q1090.1013,380.5469 1090.2419,380.4688 Q1090.3981,380.3906 1090.6013,380.3906 Q1090.9294,380.3906 1091.1794,380.6563 Q1091.445,380.9063 1091.445,381.25 Q1091.445,381.5938 1091.1013,382 Q1090.6013,382.5781 1089.8044,382.9063 Q1088.7263,383.3594 1087.4294,383.3594 Q1085.9138,383.3594 1084.7106,382.7344 Q1083.7263,382.2344 1083.0388,381.1719 Q1082.3513,380.0938 1082.3513,378.8125 L1082.3513,377.6563 Q1082.3513,376.3281 1082.9606,375.1875 Q1083.5856,374.0313 1084.6794,373.4219 Q1085.7731,372.7969 1087.0075,372.7969 Q1087.7419,372.7969 1088.3825,372.9688 Q1089.0388,373.125 1089.5856,373.4844 Z " fill="#000000"/><text fill="#222222" font-family="sans-serif" font-size="14" lengthAdjust="spacing" textLength="54" x="1100.82" y="383.3379">SaleItem</text><line style="stroke:#666666;stroke-width:0.5;" x1="1072.82" x2="1156.82" y1="393.6094" y2="393.6094"/><line style="stroke:#666666;stroke-width:0.5;" x1="1072.82" x2="1156.82" y1="401.6094" y2="401.6094"/></g><!--class ShoppingCart--><g id="elem_ShoppingCart"><rect codeLine="42" fill="#EFEFEF" height="48" id="ShoppingCart" rx="2.5" ry="2.5" style="stroke:#666666;stroke-width:0.5;" width="119" x="943.32" y="213.6094"/><ellipse cx="958.32" cy="229.6094" fill="#ADD1B2" rx="11" ry="11" style="stroke:#181818;stroke-width:1.0;"/><path d="M961.0856,225.4844 Q961.2419,225.2656 961.4294,225.1563 Q961.6169,225.0469 961.8356,225.0469 Q962.2106,225.0469 962.445,225.3125 Q962.6794,225.5625 962.6794,226.1719 L962.6794,227.625 Q962.6794,228.2344 962.445,228.5 Q962.2106,228.7656 961.8356,228.7656 Q961.4919,228.7656 961.2888,228.5625 Q961.0856,228.375 960.9763,227.8594 Q960.9294,227.5 960.7419,227.3125 Q960.4138,226.9375 959.8044,226.7188 Q959.195,226.5 958.57,226.5 Q957.8044,226.5 957.1638,226.8281 Q956.5388,227.1563 956.0388,227.9063 Q955.5544,228.6563 955.5544,229.6875 L955.5544,230.7813 Q955.5544,232.0156 956.445,232.8438 Q957.3356,233.6563 958.9294,233.6563 Q959.8669,233.6563 960.5231,233.4063 Q960.9138,233.25 961.3356,232.8125 Q961.6013,232.5469 961.7419,232.4688 Q961.8981,232.3906 962.1013,232.3906 Q962.4294,232.3906 962.6794,232.6563 Q962.945,232.9063 962.945,233.25 Q962.945,233.5938 962.6013,234 Q962.1013,234.5781 961.3044,234.9063 Q960.2263,235.3594 958.9294,235.3594 Q957.4138,235.3594 956.2106,234.7344 Q955.2263,234.2344 954.5388,233.1719 Q953.8513,232.0938 953.8513,230.8125 L953.8513,229.6563 Q953.8513,228.3281 954.4606,227.1875 Q955.0856,226.0313 956.1794,225.4219 Q957.2731,224.7969 958.5075,224.7969 Q959.2419,224.7969 959.8825,224.9688 Q960.5388,225.125 961.0856,225.4844 Z " fill="#000000"/><text fill="#222222" font-family="sans-serif" font-size="14" lengthAdjust="spacing" textLength="87" x="972.32" y="235.3379">ShoppingCart</text><line style="stroke:#666666;stroke-width:0.5;" x1="944.32" x2="1061.32" y1="245.6094" y2="245.6094"/><line style="stroke:#666666;stroke-width:0.5;" x1="944.32" x2="1061.32" y1="253.6094" y2="253.6094"/></g><!--class ShoppingCartProduct--><g id="elem_ShoppingCartProduct"><rect codeLine="43" fill="#EFEFEF" height="48" id="ShoppingCartProduct" rx="2.5" ry="2.5" style="stroke:#666666;stroke-width:0.5;" width="168" x="868.82" y="361.6094"/><ellipse cx="883.82" cy="377.6094" fill="#ADD1B2" rx="11" ry="11" style="stroke:#181818;stroke-width:1.0;"/><path d="M886.5856,373.4844 Q886.7419,373.2656 886.9294,373.1563 Q887.1169,373.0469 887.3356,373.0469 Q887.7106,373.0469 887.945,373.3125 Q888.1794,373.5625 888.1794,374.1719 L888.1794,375.625 Q888.1794,376.2344 887.945,376.5 Q887.7106,376.7656 887.3356,376.7656 Q886.9919,376.7656 886.7888,376.5625 Q886.5856,376.375 886.4763,375.8594 Q886.4294,375.5 886.2419,375.3125 Q885.9138,374.9375 885.3044,374.7188 Q884.695,374.5 884.07,374.5 Q883.3044,374.5 882.6638,374.8281 Q882.0388,375.1563 881.5388,375.9063 Q881.0544,376.6563 881.0544,377.6875 L881.0544,378.7813 Q881.0544,380.0156 881.945,380.8438 Q882.8356,381.6563 884.4294,381.6563 Q885.3669,381.6563 886.0231,381.4063 Q886.4138,381.25 886.8356,380.8125 Q887.1013,380.5469 887.2419,380.4688 Q887.3981,380.3906 887.6013,380.3906 Q887.9294,380.3906 888.1794,380.6563 Q888.445,380.9063 888.445,381.25 Q888.445,381.5938 888.1013,382 Q887.6013,382.5781 886.8044,382.9063 Q885.7263,383.3594 884.4294,383.3594 Q882.9138,383.3594 881.7106,382.7344 Q880.7263,382.2344 880.0388,381.1719 Q879.3513,380.0938 879.3513,378.8125 L879.3513,377.6563 Q879.3513,376.3281 879.9606,375.1875 Q880.5856,374.0313 881.6794,373.4219 Q882.7731,372.7969 884.0075,372.7969 Q884.7419,372.7969 885.3825,372.9688 Q886.0388,373.125 886.5856,373.4844 Z " fill="#000000"/><text fill="#222222" font-family="sans-serif" font-size="14" lengthAdjust="spacing" textLength="136" x="897.82" y="383.3379">ShoppingCartProduct</text><line style="stroke:#666666;stroke-width:0.5;" x1="869.82" x2="1035.82" y1="393.6094" y2="393.6094"/><line style="stroke:#666666;stroke-width:0.5;" x1="869.82" x2="1035.82" y1="401.6094" y2="401.6094"/></g><!--class Checkout--><g id="elem_Checkout"><rect codeLine="44" fill="#EFEFEF" height="48" id="Checkout" rx="2.5" ry="2.5" style="stroke:#666666;stroke-width:0.5;" width="92" x="815.82" y="213.6094"/><ellipse cx="830.82" cy="229.6094" fill="#ADD1B2" rx="11" ry="11" style="stroke:#181818;stroke-width:1.0;"/><path d="M833.5856,225.4844 Q833.7419,225.2656 833.9294,225.1563 Q834.1169,225.0469 834.3356,225.0469 Q834.7106,225.0469 834.945,225.3125 Q835.1794,225.5625 835.1794,226.1719 L835.1794,227.625 Q835.1794,228.2344 834.945,228.5 Q834.7106,228.7656 834.3356,228.7656 Q833.9919,228.7656 833.7888,228.5625 Q833.5856,228.375 833.4763,227.8594 Q833.4294,227.5 833.2419,227.3125 Q832.9138,226.9375 832.3044,226.7188 Q831.695,226.5 831.07,226.5 Q830.3044,226.5 829.6638,226.8281 Q829.0388,227.1563 828.5388,227.9063 Q828.0544,228.6563 828.0544,229.6875 L828.0544,230.7813 Q828.0544,232.0156 828.945,232.8438 Q829.8356,233.6563 831.4294,233.6563 Q832.3669,233.6563 833.0231,233.4063 Q833.4138,233.25 833.8356,232.8125 Q834.1013,232.5469 834.2419,232.4688 Q834.3981,232.3906 834.6013,232.3906 Q834.9294,232.3906 835.1794,232.6563 Q835.445,232.9063 835.445,233.25 Q835.445,233.5938 835.1013,234 Q834.6013,234.5781 833.8044,234.9063 Q832.7263,235.3594 831.4294,235.3594 Q829.9138,235.3594 828.7106,234.7344 Q827.7263,234.2344 827.0388,233.1719 Q826.3513,232.0938 826.3513,230.8125 L826.3513,229.6563 Q826.3513,228.3281 826.9606,227.1875 Q827.5856,226.0313 828.6794,225.4219 Q829.7731,224.7969 831.0075,224.7969 Q831.7419,224.7969 832.3825,224.9688 Q833.0388,225.125 833.5856,225.4844 Z " fill="#000000"/><text fill="#222222" font-family="sans-serif" font-size="14" lengthAdjust="spacing" textLength="60" x="844.82" y="235.3379">Checkout</text><line style="stroke:#666666;stroke-width:0.5;" x1="816.82" x2="906.82" y1="245.6094" y2="245.6094"/><line style="stroke:#666666;stroke-width:0.5;" x1="816.82" x2="906.82" y1="253.6094" y2="253.6094"/></g><!--class Store--><g id="elem_Store"><rect codeLine="48" fill="#EFEFEF" height="48" id="Store" rx="2.5" ry="2.5" style="stroke:#666666;stroke-width:0.5;" width="66" x="342.82" y="511.6094"/><ellipse cx="357.82" cy="527.6094" fill="#ADD1B2" rx="11" ry="11" style="stroke:#181818;stroke-width:1.0;"/><path d="M360.5856,523.4844 Q360.7419,523.2656 360.9294,523.1563 Q361.1169,523.0469 361.3356,523.0469 Q361.7106,523.0469 361.945,523.3125 Q362.1794,523.5625 362.1794,524.1719 L362.1794,525.625 Q362.1794,526.2344 361.945,526.5 Q361.7106,526.7656 361.3356,526.7656 Q360.9919,526.7656 360.7888,526.5625 Q360.5856,526.375 360.4763,525.8594 Q360.4294,525.5 360.2419,525.3125 Q359.9138,524.9375 359.3044,524.7188 Q358.695,524.5 358.07,524.5 Q357.3044,524.5 356.6638,524.8281 Q356.0388,525.1563 355.5388,525.9063 Q355.0544,526.6563 355.0544,527.6875 L355.0544,528.7813 Q355.0544,530.0156 355.945,530.8438 Q356.8356,531.6563 358.4294,531.6563 Q359.3669,531.6563 360.0231,531.4063 Q360.4138,531.25 360.8356,530.8125 Q361.1013,530.5469 361.2419,530.4688 Q361.3981,530.3906 361.6013,530.3906 Q361.9294,530.3906 362.1794,530.6563 Q362.445,530.9063 362.445,531.25 Q362.445,531.5938 362.1013,532 Q361.6013,532.5781 360.8044,532.9063 Q359.7263,533.3594 358.4294,533.3594 Q356.9138,533.3594 355.7106,532.7344 Q354.7263,532.2344 354.0388,531.1719 Q353.3513,530.0938 353.3513,528.8125 L353.3513,527.6563 Q353.3513,526.3281 353.9606,525.1875 Q354.5856,524.0313 355.6794,523.4219 Q356.7731,522.7969 358.0075,522.7969 Q358.7419,522.7969 359.3825,522.9688 Q360.0388,523.125 360.5856,523.4844 Z " fill="#000000"/><text fill="#222222" font-family="sans-serif" font-size="14" lengthAdjust="spacing" textLength="34" x="371.82" y="533.3379">Store</text><line style="stroke:#666666;stroke-width:0.5;" x1="343.82" x2="407.82" y1="543.6094" y2="543.6094"/><line style="stroke:#666666;stroke-width:0.5;" x1="343.82" x2="407.82" y1="551.6094" y2="551.6094"/></g><!--link Frontend to Store--><g id="link_Frontend_Store"><path codeLine="51" d="M552.67,121.2394 C526,131.9894 492.71,148.2094 467.82,169.6094 C407.05,221.8594 388.8,241.1494 364.82,317.6094 C343.53,385.4594 359.56,471.0394 369.49,511.4594 " fill="none" id="Frontend-Store" style="stroke:#888888;stroke-width:1.0;"/></g><!--link Frontend to Customer--><g id="link_Frontend_Customer"><path codeLine="53" d="M586.55,128.6794 C570.41,163.1494 541.47,230.5794 530.82,291.6094 C526.64,315.5294 533.85,342.6394 540.75,361.3894 " fill="none" id="Frontend-Customer" style="stroke:#888888;stroke-width:1.0;"/></g><!--link Frontend to Manager--><g id="link_Frontend_Manager"><path codeLine="54" d="M568.72,128.8094 C555.72,140.1594 540.87,154.5994 529.82,169.6094 C483.12,232.9794 448.02,320.3394 432.94,361.4494 " fill="none" id="Frontend-Manager" style="stroke:#888888;stroke-width:1.0;"/></g><!--link Customer to ShoppingCart--><g id="link_Customer_ShoppingCart"><path codeLine="55" d="M569.88,361.2694 C589.86,338.7594 623.5,306.0494 660.82,291.6094 C771.36,248.8494 809.68,285.3294 925.82,261.6094 C931.42,260.4694 937.2,259.0994 942.97,257.6094 " fill="none" id="Customer-ShoppingCart" style="stroke:#888888;stroke-width:1.0;"/><text fill="#000000" font-family="sans-serif" font-size="13" lengthAdjust="spacing" textLength="39" x="661.82" y="306.1045">cart_id</text><text fill="#000000" font-family="sans-serif" font-size="13" lengthAdjust="spacing" textLength="7" x="566.6728" y="350.9245">1</text><text fill="#000000" font-family="sans-serif" font-size="13" lengthAdjust="spacing" textLength="7" x="928.2492" y="256.5884">1</text></g><!--link ShoppingCart to Customer--><g id="link_ShoppingCart_Customer"><path codeLine="73" d="M943.26,256.9294 C937.38,258.5794 931.5,260.1694 925.82,261.6094 C862.87,277.5794 846.21,277.5494 782.82,291.6094 C748.5,299.2194 740.49,303.8694 705.82,309.6094 C670.13,315.5194 657.89,302.9494 624.82,317.6094 C602.79,327.3694 582.87,346.2794 569.26,361.5294 " fill="none" id="ShoppingCart-Customer" style="stroke:#888888;stroke-width:1.0;"/><text fill="#000000" font-family="sans-serif" font-size="13" lengthAdjust="spacing" textLength="71" x="783.82" y="306.1045">customer_id</text><text fill="#000000" font-family="sans-serif" font-size="13" lengthAdjust="spacing" textLength="7" x="928.1804" y="273.9474">1</text><text fill="#000000" font-family="sans-serif" font-size="13" lengthAdjust="spacing" textLength="7" x="574.8821" y="350.849">1</text></g><!--link Manager to Store--><g id="link_Manager_Store"><path codeLine="56" d="M417.16,409.7294 C408.01,437.3794 392.78,483.3694 383.58,511.1594 " fill="none" id="Manager-Store" style="stroke:#888888;stroke-width:1.0;"/><text fill="#000000" font-family="sans-serif" font-size="13" lengthAdjust="spacing" textLength="46" x="406.82" y="456.1045">store_id</text><text fill="#000000" font-family="sans-serif" font-size="13" lengthAdjust="spacing" textLength="7" x="407.4397" y="431.0966">1</text><text fill="#000000" font-family="sans-serif" font-size="13" lengthAdjust="spacing" textLength="7" x="377.6184" y="500.7877">1</text></g><!--link Product to Category--><g id="link_Product_Category"><path codeLine="58" d="M1115.55,559.7194 C1116.27,582.3094 1117.35,616.5294 1118.07,639.2194 " fill="none" id="Product-Category" style="stroke:#888888;stroke-width:1.0;"/><text fill="#000000" font-family="sans-serif" font-size="13" lengthAdjust="spacing" textLength="50" x="1117.82" y="606.1045">category</text><text fill="#000000" font-family="sans-serif" font-size="13" lengthAdjust="spacing" textLength="20" x="1093.2904" y="581.0842">0..*</text><text fill="#000000" font-family="sans-serif" font-size="13" lengthAdjust="spacing" textLength="7" x="1110.0341" y="628.8623">1</text></g><!--link Frontend to Product--><g id="link_Frontend_Product"><path codeLine="59" d="M642.97,107.2994 C772.41,112.6094 1137.76,130.9194 1173.82,169.6094 C1261.76,263.9594 1232.11,339.6094 1184.82,459.6094 C1176.78,479.9894 1160.31,498.0994 1145.36,511.4194 " fill="none" id="Frontend-Product" style="stroke:#888888;stroke-width:1.0;"/></g><!--link Frontend to Category--><g id="link_Frontend_Category"><path codeLine="60" d="M643.06,107.8594 C742,113.2194 984.81,128.7294 1185.82,160.6094 C1239.56,169.1294 1281.82,182.1894 1281.82,236.6094 C1281.82,236.6094 1281.82,236.6094 1281.82,536.6094 C1281.82,596.3394 1212.45,631.7594 1164.22,649.1694 " fill="none" id="Frontend-Category" style="stroke:#888888;stroke-width:1.0;"/></g><!--link InventoryProduct to Store--><g id="link_InventoryProduct_Store"><path codeLine="62" d="M195.62,409.8294 C211.49,424.7994 233.17,444.2594 253.82,459.6094 C282.55,480.9694 317.56,502.0294 342.69,516.3694 " fill="none" id="InventoryProduct-Store" style="stroke:#888888;stroke-width:1.0;"/><text fill="#000000" font-family="sans-serif" font-size="13" lengthAdjust="spacing" textLength="46" x="254.82" y="456.1045">store_id</text><text fill="#000000" font-family="sans-serif" font-size="13" lengthAdjust="spacing" textLength="7" x="193.5681" y="431.221">1</text><text fill="#000000" font-family="sans-serif" font-size="13" lengthAdjust="spacing" textLength="7" x="327.6772" y="507.9442">1</text></g><!--link InventoryProduct to Product--><g id="link_InventoryProduct_Product"><path codeLine="63" d="M241.41,406.3494 C277.88,415.9794 323.45,426.9094 364.82,433.6094 C407.52,440.5294 418.83,436.7794 461.82,441.6094 C694.24,467.7194 971.46,511.3694 1074.05,527.9494 " fill="none" id="InventoryProduct-Product" style="stroke:#888888;stroke-width:1.0;"/><text fill="#000000" font-family="sans-serif" font-size="13" lengthAdjust="spacing" textLength="60" x="605.82" y="456.1045">product_id</text><text fill="#000000" font-family="sans-serif" font-size="13" lengthAdjust="spacing" textLength="7" x="249.4042" y="405.2572">1</text><text fill="#000000" font-family="sans-serif" font-size="13" lengthAdjust="spacing" textLength="7" x="1059.4411" y="522.7831">1</text></g><!--link SupplyRequest to InventoryProduct--><g id="link_SupplyRequest_InventoryProduct"><path codeLine="64" d="M166.77,261.7394 C167.89,289.0794 169.75,334.2894 170.87,361.5794 " fill="none" id="SupplyRequest-InventoryProduct" style="stroke:#888888;stroke-width:1.0;"/><text fill="#000000" font-family="sans-serif" font-size="13" lengthAdjust="spacing" textLength="43" x="168.82" y="306.1045">product</text><text fill="#000000" font-family="sans-serif" font-size="13" lengthAdjust="spacing" textLength="7" x="159.1484" y="283.109">1</text><text fill="#000000" font-family="sans-serif" font-size="13" lengthAdjust="spacing" textLength="7" x="162.7297" y="350.9118">1</text></g><!--link SupplyRequest to Store--><g id="link_SupplyRequest_Store"><path codeLine="65" d="M101.92,261.6294 C76.97,274.1094 51,292.2894 36.82,317.6094 C11.62,362.5894 6,392.2794 36.82,433.6094 C74.02,483.5194 264.93,517.7294 342.74,529.7994 " fill="none" id="SupplyRequest-Store" style="stroke:#888888;stroke-width:1.0;"/><text fill="#000000" font-family="sans-serif" font-size="13" lengthAdjust="spacing" textLength="46" x="37.82" y="391.1045">store_id</text><text fill="#000000" font-family="sans-serif" font-size="13" lengthAdjust="spacing" textLength="7" x="86.7056" y="261.0984">1</text><text fill="#000000" font-family="sans-serif" font-size="13" lengthAdjust="spacing" textLength="7" x="327.7381" y="543.812">1</text></g><!--link Frontend to InventoryProduct--><g id="link_Frontend_InventoryProduct"><path codeLine="66" d="M552.39,104.8794 C495.38,106.0594 396.76,115.2694 327.82,160.6094 C317.72,167.2494 224.65,305.5494 187.26,361.4594 " fill="none" id="Frontend-InventoryProduct" style="stroke:#888888;stroke-width:1.0;"/></g><!--link Frontend to SupplyRequest--><g id="link_Frontend_SupplyRequest"><path codeLine="67" d="M552.59,105.4094 C485.14,106.7294 355.57,115.5694 256.82,160.6094 C229.47,173.0794 203.72,196.0494 186.64,213.4794 " fill="none" id="Frontend-SupplyRequest" style="stroke:#888888;stroke-width:1.0;"/></g><!--link Sale to SaleItem--><g id="link_Sale_SaleItem"><path codeLine="69" d="M1125.76,261.7394 C1123.32,289.0794 1119.3,334.2894 1116.87,361.5794 " fill="none" id="Sale-SaleItem" style="stroke:#888888;stroke-width:1.0;"/><text fill="#000000" font-family="sans-serif" font-size="13" lengthAdjust="spacing" textLength="32" x="1123.82" y="306.1045">items</text><text fill="#000000" font-family="sans-serif" font-size="13" lengthAdjust="spacing" textLength="7" x="1117.4048" y="283.109">1</text><text fill="#000000" font-family="sans-serif" font-size="13" lengthAdjust="spacing" textLength="20" x="1094.8328" y="350.9118">0..*</text></g><!--link Sale to Store--><g id="link_Sale_Store"><path codeLine="70" d="M1097.8,254.3294 C1091.94,257.0094 1085.76,259.5894 1079.82,261.6094 C982.61,294.6994 954.77,290.8294 853.82,309.6094 C831.69,313.7294 821.92,304.2394 803.82,317.6094 C757.62,351.7494 791.12,397.0494 746.82,433.6094 C645,517.6294 479.11,532.1094 408.88,534.3494 " fill="none" id="Sale-Store" style="stroke:#888888;stroke-width:1.0;"/><text fill="#000000" font-family="sans-serif" font-size="13" lengthAdjust="spacing" textLength="46" x="804.82" y="391.1045">store_id</text><text fill="#000000" font-family="sans-serif" font-size="13" lengthAdjust="spacing" textLength="7" x="1082.6295" y="253.9928">1</text><text fill="#000000" font-family="sans-serif" font-size="13" lengthAdjust="spacing" textLength="7" x="416.8775" y="529.8573">1</text></g><!--link SaleItem to Product--><g id="link_SaleItem_Product"><path codeLine="71" d="M1114.82,409.7294 C1114.82,437.3794 1114.82,483.3694 1114.82,511.1594 " fill="none" id="SaleItem-Product" style="stroke:#888888;stroke-width:1.0;"/><text fill="#000000" font-family="sans-serif" font-size="13" lengthAdjust="spacing" textLength="60" x="1115.82" y="456.1045">product_id</text><text fill="#000000" font-family="sans-serif" font-size="13" lengthAdjust="spacing" textLength="7" x="1106.9669" y="431.0966">1</text><text fill="#000000" font-family="sans-serif" font-size="13" lengthAdjust="spacing" textLength="7" x="1106.9669" y="500.7877">1</text></g><!--link ShoppingCart to ShoppingCartProduct--><g id="link_ShoppingCart_ShoppingCartProduct"><path codeLine="72" d="M994.89,261.7394 C985.53,289.0794 970.05,334.2894 960.7,361.5794 " fill="none" id="ShoppingCart-ShoppingCartProduct" style="stroke:#888888;stroke-width:1.0;"/><text fill="#000000" font-family="sans-serif" font-size="13" lengthAdjust="spacing" textLength="50" x="983.82" y="306.1045">products</text><text fill="#000000" font-family="sans-serif" font-size="13" lengthAdjust="spacing" textLength="7" x="985.1039" y="283.109">1</text><text fill="#000000" font-family="sans-serif" font-size="13" lengthAdjust="spacing" textLength="20" x="940.1568" y="350.9118">0..*</text></g><!--link ShoppingCartProduct to Product--><g id="link_ShoppingCartProduct_Product"><path codeLine="74" d="M978.13,409.7294 C1008.47,437.4594 1059.03,483.6394 1089.41,511.3994 " fill="none" id="ShoppingCartProduct-Product" style="stroke:#888888;stroke-width:1.0;"/><text fill="#000000" font-family="sans-serif" font-size="13" lengthAdjust="spacing" textLength="60" x="1029.82" y="456.1045">product_id</text><text fill="#000000" font-family="sans-serif" font-size="13" lengthAdjust="spacing" textLength="7" x="976.4462" y="431.0966">1</text><text fill="#000000" font-family="sans-serif" font-size="13" lengthAdjust="spacing" textLength="7" x="1075.0018" y="500.6857">1</text></g><!--link Checkout to Customer--><g id="link_Checkout_Customer"><path codeLine="75" d="M815.79,239.3894 C737.03,241.8094 581.59,251.6594 547.82,291.6094 C531.65,310.7294 536.16,340.7894 542.23,361.5294 " fill="none" id="Checkout-Customer" style="stroke:#888888;stroke-width:1.0;"/><text fill="#000000" font-family="sans-serif" font-size="13" lengthAdjust="spacing" textLength="71" x="548.82" y="306.1045">customer_id</text><text fill="#000000" font-family="sans-serif" font-size="13" lengthAdjust="spacing" textLength="7" x="800.8962" y="235.9212">1</text><text fill="#000000" font-family="sans-serif" font-size="13" lengthAdjust="spacing" textLength="7" x="532.1319" y="350.849">1</text></g><!--link Checkout to Store--><g id="link_Checkout_Store"><path codeLine="76" d="M854.38,261.6494 C847.79,278.0194 836.43,298.9194 818.82,309.6094 C795.21,323.9294 718.88,304.0594 694.82,317.6094 C640.02,348.4594 662.66,394.0094 613.82,433.6094 C550.71,484.7794 457.86,514.0794 408.88,526.8594 " fill="none" id="Checkout-Store" style="stroke:#888888;stroke-width:1.0;"/><text fill="#000000" font-family="sans-serif" font-size="13" lengthAdjust="spacing" textLength="46" x="695.82" y="391.1045">store_id</text><text fill="#000000" font-family="sans-serif" font-size="13" lengthAdjust="spacing" textLength="7" x="844.7134" y="282.9971">1</text><text fill="#000000" font-family="sans-serif" font-size="13" lengthAdjust="spacing" textLength="7" x="416.8775" y="540.2289">1</text></g><!--link Frontend to Sale--><g id="link_Frontend_Sale"><path codeLine="77" d="M642.96,107.0794 C748.23,111.2194 1006.62,125.6794 1079.82,169.6094 C1096.75,179.7694 1109.37,198.4494 1117.41,213.4994 " fill="none" id="Frontend-Sale" style="stroke:#888888;stroke-width:1.0;"/></g><!--link Frontend to ShoppingCart--><g id="link_Frontend_ShoppingCart"><path codeLine="78" d="M642.84,107.0794 C708.29,110.7894 832.11,123.8394 925.82,169.6094 C947.63,180.2694 968.15,198.6994 982.51,213.5394 " fill="none" id="Frontend-ShoppingCart" style="stroke:#888888;stroke-width:1.0;"/></g><!--link Frontend to Checkout--><g id="link_Frontend_Checkout"><path codeLine="79" d="M642.9,127.9794 C691.06,151.8794 767,189.5594 815.59,213.6694 " fill="none" id="Frontend-Checkout" style="stroke:#888888;stroke-width:1.0;"/></g><!--SRC=[ZLDDRvmm4BtxLrZEhLAY_P3GRcui62c7IbNp0oeBNDPQiAbjKaLL_tjjmDG3kyd20VDcvispvzbSXEoOPYtkM7bXDST_47RFoVtLMlMoobIZD7ueZluTOqfNN4_uVhyVm4996q5_aPcPouOPSukN5lvTyoP9ikJTxNO3b6gjVa_OuN00lQIojxTG52UQhblHRRPDgAD1LjY6uromsd6r75Ty5C-DMnhSYb8hm_MRABb1A9mO-QcTI2uhWX_IF3_GP58mRhoOehx1NC9wUoPUKfwUZY0zwurLBTSHz9L9LwG1GQTLrPVME9BZXjBZ1f1y6wCnBREyLleTa0ZvngLrw23bb6HRmF8ImckwrxxhclVl_5VFZGMSXZNSgw89JOeKyBswqEBtnV8sXiwgwuIiCwRj3VZAriwylAX-8SFfviEsYZJBeGmVyibXClZnSG81D4yY1iCiGX2JBV6u_yGoyJCcfVl-41L1Kn78zVryqY1qo4BJrZ3PF3rzcJF3v4R6SKs0fd0aG7oODrfEyHCL7wK7w7dstr02p13dhxZ-5tvGTKLKlBELAy4OWI-HjzXCFPvgS9rl8DpN49XrNS1STSTfn2vOz5xxEAesDsgz1uBRl0UczQhP_GCBD-Qk5jUIFndHSD414DzhODDmT_y1]--></g></svg>