<?xml version="1.0" encoding="us-ascii" standalone="no"?><svg xmlns="http://www.w3.org/2000/svg" xmlns:xlink="http://www.w3.org/1999/xlink" contentStyleType="text/css" height="718px" preserveAspectRatio="none" style="width:877px;height:718px;background:#FFFFFF;" version="1.1" viewBox="0 0 877 718" width="877px" zoomAndPan="magnify"><defs/><g><text fill="#000000" font-family="sans-serif" font-size="14" font-weight="bold" lengthAdjust="spacing" textLength="177" x="343" y="22.9951">Diagramme de classes</text><!--class Product--><g id="elem_Product"><rect codeLine="4" fill="#F1F1F1" height="113.1875" id="Product" rx="2.5" ry="2.5" style="stroke:#181818;stroke-width:0.5;" width="134" x="40" y="202.2969"/><ellipse cx="76.6" cy="218.2969" fill="#ADD1B2" rx="11" ry="11" style="stroke:#181818;stroke-width:1.0;"/><path d="M79.5688,223.9375 Q78.9906,224.2344 78.35,224.375 Q77.7094,224.5313 77.0063,224.5313 Q74.5063,224.5313 73.1781,222.8906 Q71.8656,221.2344 71.8656,218.1094 Q71.8656,214.9844 73.1781,213.3281 Q74.5063,211.6719 77.0063,211.6719 Q77.7094,211.6719 78.35,211.8281 Q79.0063,211.9844 79.5688,212.2813 L79.5688,215 Q78.9438,214.4219 78.35,214.1563 Q77.7563,213.875 77.1313,213.875 Q75.7875,213.875 75.1,214.9531 Q74.4125,216.0156 74.4125,218.1094 Q74.4125,220.2031 75.1,221.2813 Q75.7875,222.3438 77.1313,222.3438 Q77.7563,222.3438 78.35,222.0781 Q78.9438,221.7969 79.5688,221.2188 L79.5688,223.9375 Z " fill="#000000"/><text fill="#000000" font-family="sans-serif" font-size="14" lengthAdjust="spacing" textLength="54" x="95.4" y="223.1436">Product</text><line style="stroke:#181818;stroke-width:0.5;" x1="41" x2="173" y1="234.2969" y2="234.2969"/><rect fill="none" height="6" style="stroke:#C82930;stroke-width:1.0;" width="6" x="48" y="244.9453"/><text fill="#000000" font-family="sans-serif" font-size="14" lengthAdjust="spacing" textLength="75" x="60" y="251.292">id: number</text><rect fill="none" height="6" style="stroke:#C82930;stroke-width:1.0;" width="6" x="48" y="261.2422"/><text fill="#000000" font-family="sans-serif" font-size="14" lengthAdjust="spacing" textLength="87" x="60" y="267.5889">name: string</text><rect fill="none" height="6" style="stroke:#C82930;stroke-width:1.0;" width="6" x="48" y="277.5391"/><text fill="#000000" font-family="sans-serif" font-size="14" lengthAdjust="spacing" textLength="108" x="60" y="283.8857">category: string</text><rect fill="none" height="6" style="stroke:#C82930;stroke-width:1.0;" width="6" x="48" y="293.8359"/><text fill="#000000" font-family="sans-serif" font-size="14" lengthAdjust="spacing" textLength="97" x="60" y="300.1826">price: number</text><line style="stroke:#181818;stroke-width:0.5;" x1="41" x2="173" y1="307.4844" y2="307.4844"/></g><!--class Store--><g id="elem_Store"><rect codeLine="11" fill="#F1F1F1" height="96.8906" id="Store" rx="2.5" ry="2.5" style="stroke:#181818;stroke-width:0.5;" width="134" x="222" y="210.2969"/><ellipse cx="266.25" cy="226.2969" fill="#ADD1B2" rx="11" ry="11" style="stroke:#181818;stroke-width:1.0;"/><path d="M269.2188,231.9375 Q268.6406,232.2344 268,232.375 Q267.3594,232.5313 266.6563,232.5313 Q264.1563,232.5313 262.8281,230.8906 Q261.5156,229.2344 261.5156,226.1094 Q261.5156,222.9844 262.8281,221.3281 Q264.1563,219.6719 266.6563,219.6719 Q267.3594,219.6719 268,219.8281 Q268.6563,219.9844 269.2188,220.2813 L269.2188,223 Q268.5938,222.4219 268,222.1563 Q267.4063,221.875 266.7813,221.875 Q265.4375,221.875 264.75,222.9531 Q264.0625,224.0156 264.0625,226.1094 Q264.0625,228.2031 264.75,229.2813 Q265.4375,230.3438 266.7813,230.3438 Q267.4063,230.3438 268,230.0781 Q268.5938,229.7969 269.2188,229.2188 L269.2188,231.9375 Z " fill="#000000"/><text fill="#000000" font-family="sans-serif" font-size="14" lengthAdjust="spacing" textLength="37" x="286.75" y="231.1436">Store</text><line style="stroke:#181818;stroke-width:0.5;" x1="223" x2="355" y1="242.2969" y2="242.2969"/><rect fill="none" height="6" style="stroke:#C82930;stroke-width:1.0;" width="6" x="230" y="252.9453"/><text fill="#000000" font-family="sans-serif" font-size="14" lengthAdjust="spacing" textLength="75" x="242" y="259.292">id: number</text><rect fill="none" height="6" style="stroke:#C82930;stroke-width:1.0;" width="6" x="230" y="269.2422"/><text fill="#000000" font-family="sans-serif" font-size="14" lengthAdjust="spacing" textLength="87" x="242" y="275.5889">name: string</text><rect fill="none" height="6" style="stroke:#C82930;stroke-width:1.0;" width="6" x="230" y="285.5391"/><text fill="#000000" font-family="sans-serif" font-size="14" lengthAdjust="spacing" textLength="108" x="242" y="291.8857">isMain: boolean</text><line style="stroke:#181818;stroke-width:0.5;" x1="223" x2="355" y1="299.1875" y2="299.1875"/></g><!--class Inventory--><g id="elem_Inventory"><rect codeLine="17" fill="#F1F1F1" height="113.1875" id="Inventory" rx="2.5" ry="2.5" style="stroke:#181818;stroke-width:0.5;" width="143" x="297.5" y="392.2969"/><ellipse cx="334.1" cy="408.2969" fill="#ADD1B2" rx="11" ry="11" style="stroke:#181818;stroke-width:1.0;"/><path d="M337.0688,413.9375 Q336.4906,414.2344 335.85,414.375 Q335.2094,414.5313 334.5063,414.5313 Q332.0063,414.5313 330.6781,412.8906 Q329.3656,411.2344 329.3656,408.1094 Q329.3656,404.9844 330.6781,403.3281 Q332.0063,401.6719 334.5063,401.6719 Q335.2094,401.6719 335.85,401.8281 Q336.5063,401.9844 337.0688,402.2813 L337.0688,405 Q336.4438,404.4219 335.85,404.1563 Q335.2563,403.875 334.6313,403.875 Q333.2875,403.875 332.6,404.9531 Q331.9125,406.0156 331.9125,408.1094 Q331.9125,410.2031 332.6,411.2813 Q333.2875,412.3438 334.6313,412.3438 Q335.2563,412.3438 335.85,412.0781 Q336.4438,411.7969 337.0688,411.2188 L337.0688,413.9375 Z " fill="#000000"/><text fill="#000000" font-family="sans-serif" font-size="14" lengthAdjust="spacing" textLength="63" x="352.9" y="413.1436">Inventory</text><line style="stroke:#181818;stroke-width:0.5;" x1="298.5" x2="439.5" y1="424.2969" y2="424.2969"/><rect fill="none" height="6" style="stroke:#C82930;stroke-width:1.0;" width="6" x="305.5" y="434.9453"/><text fill="#000000" font-family="sans-serif" font-size="14" lengthAdjust="spacing" textLength="75" x="317.5" y="441.292">id: number</text><rect fill="none" height="6" style="stroke:#C82930;stroke-width:1.0;" width="6" x="305.5" y="451.2422"/><text fill="#000000" font-family="sans-serif" font-size="14" lengthAdjust="spacing" textLength="101" x="317.5" y="457.5889">stock: number</text><rect fill="none" height="6" style="stroke:#C82930;stroke-width:1.0;" width="6" x="305.5" y="467.5391"/><text fill="#000000" font-family="sans-serif" font-size="14" lengthAdjust="spacing" textLength="117" x="317.5" y="473.8857">product: Product</text><rect fill="none" height="6" style="stroke:#C82930;stroke-width:1.0;" width="6" x="305.5" y="483.8359"/><text fill="#000000" font-family="sans-serif" font-size="14" lengthAdjust="spacing" textLength="82" x="317.5" y="490.1826">store: Store</text><line style="stroke:#181818;stroke-width:0.5;" x1="298.5" x2="439.5" y1="497.4844" y2="497.4844"/></g><!--class Sale--><g id="elem_Sale"><rect codeLine="24" fill="#F1F1F1" height="113.1875" id="Sale" rx="2.5" ry="2.5" style="stroke:#181818;stroke-width:0.5;" width="142" x="476" y="392.2969"/><ellipse cx="528.25" cy="408.2969" fill="#ADD1B2" rx="11" ry="11" style="stroke:#181818;stroke-width:1.0;"/><path d="M531.2188,413.9375 Q530.6406,414.2344 530,414.375 Q529.3594,414.5313 528.6563,414.5313 Q526.1563,414.5313 524.8281,412.8906 Q523.5156,411.2344 523.5156,408.1094 Q523.5156,404.9844 524.8281,403.3281 Q526.1563,401.6719 528.6563,401.6719 Q529.3594,401.6719 530,401.8281 Q530.6563,401.9844 531.2188,402.2813 L531.2188,405 Q530.5938,404.4219 530,404.1563 Q529.4063,403.875 528.7813,403.875 Q527.4375,403.875 526.75,404.9531 Q526.0625,406.0156 526.0625,408.1094 Q526.0625,410.2031 526.75,411.2813 Q527.4375,412.3438 528.7813,412.3438 Q529.4063,412.3438 530,412.0781 Q530.5938,411.7969 531.2188,411.2188 L531.2188,413.9375 Z " fill="#000000"/><text fill="#000000" font-family="sans-serif" font-size="14" lengthAdjust="spacing" textLength="29" x="548.75" y="413.1436">Sale</text><line style="stroke:#181818;stroke-width:0.5;" x1="477" x2="617" y1="424.2969" y2="424.2969"/><rect fill="none" height="6" style="stroke:#C82930;stroke-width:1.0;" width="6" x="484" y="434.9453"/><text fill="#000000" font-family="sans-serif" font-size="14" lengthAdjust="spacing" textLength="75" x="496" y="441.292">id: number</text><rect fill="none" height="6" style="stroke:#C82930;stroke-width:1.0;" width="6" x="484" y="451.2422"/><text fill="#000000" font-family="sans-serif" font-size="14" lengthAdjust="spacing" textLength="79" x="496" y="457.5889">date: string</text><rect fill="none" height="6" style="stroke:#C82930;stroke-width:1.0;" width="6" x="484" y="467.5391"/><text fill="#000000" font-family="sans-serif" font-size="14" lengthAdjust="spacing" textLength="82" x="496" y="473.8857">store: Store</text><rect fill="none" height="6" style="stroke:#C82930;stroke-width:1.0;" width="6" x="484" y="483.8359"/><text fill="#000000" font-family="sans-serif" font-size="14" lengthAdjust="spacing" textLength="116" x="496" y="490.1826">items: SaleItem[]</text><line style="stroke:#181818;stroke-width:0.5;" x1="477" x2="617" y1="497.4844" y2="497.4844"/></g><!--class SaleItem--><g id="elem_SaleItem"><rect codeLine="31" fill="#F1F1F1" height="129.4844" id="SaleItem" rx="2.5" ry="2.5" style="stroke:#181818;stroke-width:0.5;" width="144" x="405" y="582.2969"/><ellipse cx="443.85" cy="598.2969" fill="#ADD1B2" rx="11" ry="11" style="stroke:#181818;stroke-width:1.0;"/><path d="M446.8188,603.9375 Q446.2406,604.2344 445.6,604.375 Q444.9594,604.5313 444.2563,604.5313 Q441.7563,604.5313 440.4281,602.8906 Q439.1156,601.2344 439.1156,598.1094 Q439.1156,594.9844 440.4281,593.3281 Q441.7563,591.6719 444.2563,591.6719 Q444.9594,591.6719 445.6,591.8281 Q446.2563,591.9844 446.8188,592.2813 L446.8188,595 Q446.1938,594.4219 445.6,594.1563 Q445.0063,593.875 444.3813,593.875 Q443.0375,593.875 442.35,594.9531 Q441.6625,596.0156 441.6625,598.1094 Q441.6625,600.2031 442.35,601.2813 Q443.0375,602.3438 444.3813,602.3438 Q445.0063,602.3438 445.6,602.0781 Q446.1938,601.7969 446.8188,601.2188 L446.8188,603.9375 Z " fill="#000000"/><text fill="#000000" font-family="sans-serif" font-size="14" lengthAdjust="spacing" textLength="59" x="463.15" y="603.1436">SaleItem</text><line style="stroke:#181818;stroke-width:0.5;" x1="406" x2="548" y1="614.2969" y2="614.2969"/><rect fill="none" height="6" style="stroke:#C82930;stroke-width:1.0;" width="6" x="413" y="624.9453"/><text fill="#000000" font-family="sans-serif" font-size="14" lengthAdjust="spacing" textLength="75" x="425" y="631.292">id: number</text><rect fill="none" height="6" style="stroke:#C82930;stroke-width:1.0;" width="6" x="413" y="641.2422"/><text fill="#000000" font-family="sans-serif" font-size="14" lengthAdjust="spacing" textLength="66" x="425" y="647.5889">sale: Sale</text><rect fill="none" height="6" style="stroke:#C82930;stroke-width:1.0;" width="6" x="413" y="657.5391"/><text fill="#000000" font-family="sans-serif" font-size="14" lengthAdjust="spacing" textLength="117" x="425" y="663.8857">product: Product</text><rect fill="none" height="6" style="stroke:#C82930;stroke-width:1.0;" width="6" x="413" y="673.8359"/><text fill="#000000" font-family="sans-serif" font-size="14" lengthAdjust="spacing" textLength="118" x="425" y="680.1826">quantity: number</text><rect fill="none" height="6" style="stroke:#C82930;stroke-width:1.0;" width="6" x="413" y="690.1328"/><text fill="#000000" font-family="sans-serif" font-size="14" lengthAdjust="spacing" textLength="97" x="425" y="696.4795">price: number</text><line style="stroke:#181818;stroke-width:0.5;" x1="406" x2="548" y1="703.7813" y2="703.7813"/></g><!--class SupplyRequest--><g id="elem_SupplyRequest"><rect codeLine="39" fill="#F1F1F1" height="113.1875" id="SupplyRequest" rx="2.5" ry="2.5" style="stroke:#181818;stroke-width:0.5;" width="144" x="118" y="392.2969"/><ellipse cx="136.15" cy="408.2969" fill="#ADD1B2" rx="11" ry="11" style="stroke:#181818;stroke-width:1.0;"/><path d="M139.1188,413.9375 Q138.5406,414.2344 137.9,414.375 Q137.2594,414.5313 136.5563,414.5313 Q134.0563,414.5313 132.7281,412.8906 Q131.4156,411.2344 131.4156,408.1094 Q131.4156,404.9844 132.7281,403.3281 Q134.0563,401.6719 136.5563,401.6719 Q137.2594,401.6719 137.9,401.8281 Q138.5563,401.9844 139.1188,402.2813 L139.1188,405 Q138.4938,404.4219 137.9,404.1563 Q137.3063,403.875 136.6813,403.875 Q135.3375,403.875 134.65,404.9531 Q133.9625,406.0156 133.9625,408.1094 Q133.9625,410.2031 134.65,411.2813 Q135.3375,412.3438 136.6813,412.3438 Q137.3063,412.3438 137.9,412.0781 Q138.4938,411.7969 139.1188,411.2188 L139.1188,413.9375 Z " fill="#000000"/><text fill="#000000" font-family="sans-serif" font-size="14" lengthAdjust="spacing" textLength="105" x="150.85" y="413.1436">SupplyRequest</text><line style="stroke:#181818;stroke-width:0.5;" x1="119" x2="261" y1="424.2969" y2="424.2969"/><rect fill="none" height="6" style="stroke:#C82930;stroke-width:1.0;" width="6" x="126" y="434.9453"/><text fill="#000000" font-family="sans-serif" font-size="14" lengthAdjust="spacing" textLength="75" x="138" y="441.292">id: number</text><rect fill="none" height="6" style="stroke:#C82930;stroke-width:1.0;" width="6" x="126" y="451.2422"/><text fill="#000000" font-family="sans-serif" font-size="14" lengthAdjust="spacing" textLength="117" x="138" y="457.5889">product: Product</text><rect fill="none" height="6" style="stroke:#C82930;stroke-width:1.0;" width="6" x="126" y="467.5391"/><text fill="#000000" font-family="sans-serif" font-size="14" lengthAdjust="spacing" textLength="118" x="138" y="473.8857">quantity: number</text><rect fill="none" height="6" style="stroke:#C82930;stroke-width:1.0;" width="6" x="126" y="483.8359"/><text fill="#000000" font-family="sans-serif" font-size="14" lengthAdjust="spacing" textLength="82" x="138" y="490.1826">store: Store</text><line style="stroke:#181818;stroke-width:0.5;" x1="119" x2="261" y1="497.4844" y2="497.4844"/></g><!--class ProductService--><g id="elem_ProductService"><rect codeLine="46" fill="#F1F1F1" height="96.8906" id="ProductService" rx="2.5" ry="2.5" style="stroke:#181818;stroke-width:0.5;" width="514" x="7" y="44.2969"/><ellipse cx="207.75" cy="60.2969" fill="#ADD1B2" rx="11" ry="11" style="stroke:#181818;stroke-width:1.0;"/><path d="M210.7188,65.9375 Q210.1406,66.2344 209.5,66.375 Q208.8594,66.5313 208.1563,66.5313 Q205.6563,66.5313 204.3281,64.8906 Q203.0156,63.2344 203.0156,60.1094 Q203.0156,56.9844 204.3281,55.3281 Q205.6563,53.6719 208.1563,53.6719 Q208.8594,53.6719 209.5,53.8281 Q210.1563,53.9844 210.7188,54.2813 L210.7188,57 Q210.0938,56.4219 209.5,56.1563 Q208.9063,55.875 208.2813,55.875 Q206.9375,55.875 206.25,56.9531 Q205.5625,58.0156 205.5625,60.1094 Q205.5625,62.2031 206.25,63.2813 Q206.9375,64.3438 208.2813,64.3438 Q208.9063,64.3438 209.5,64.0781 Q210.0938,63.7969 210.7188,63.2188 L210.7188,65.9375 Z " fill="#000000"/><text fill="#000000" font-family="sans-serif" font-size="14" lengthAdjust="spacing" textLength="104" x="228.25" y="65.1436">ProductService</text><line style="stroke:#181818;stroke-width:0.5;" x1="8" x2="520" y1="76.2969" y2="76.2969"/><line style="stroke:#181818;stroke-width:0.5;" x1="8" x2="520" y1="84.2969" y2="84.2969"/><ellipse cx="18" cy="97.9453" fill="#84BE84" rx="3" ry="3" style="stroke:#038048;stroke-width:1.0;"/><text fill="#000000" font-family="sans-serif" font-size="14" lengthAdjust="spacing" textLength="369" x="27" y="101.292">findProducts(term: string, storeId: number): Product[]</text><ellipse cx="18" cy="114.2422" fill="#84BE84" rx="3" ry="3" style="stroke:#038048;stroke-width:1.0;"/><text fill="#000000" font-family="sans-serif" font-size="14" lengthAdjust="spacing" textLength="254" x="27" y="117.5889">getProductById(id: number): Product</text><ellipse cx="18" cy="130.5391" fill="#84BE84" rx="3" ry="3" style="stroke:#038048;stroke-width:1.0;"/><text fill="#000000" font-family="sans-serif" font-size="14" lengthAdjust="spacing" textLength="488" x="27" y="133.8857">updateStock(productId: number, storeId: number, delta: number): void</text></g><!--class SaleService--><g id="elem_SaleService"><rect codeLine="52" fill="#F1F1F1" height="96.8906" id="SaleService" rx="2.5" ry="2.5" style="stroke:#181818;stroke-width:0.5;" width="408" x="462" y="210.2969"/><ellipse cx="622.25" cy="226.2969" fill="#ADD1B2" rx="11" ry="11" style="stroke:#181818;stroke-width:1.0;"/><path d="M625.2188,231.9375 Q624.6406,232.2344 624,232.375 Q623.3594,232.5313 622.6563,232.5313 Q620.1563,232.5313 618.8281,230.8906 Q617.5156,229.2344 617.5156,226.1094 Q617.5156,222.9844 618.8281,221.3281 Q620.1563,219.6719 622.6563,219.6719 Q623.3594,219.6719 624,219.8281 Q624.6563,219.9844 625.2188,220.2813 L625.2188,223 Q624.5938,222.4219 624,222.1563 Q623.4063,221.875 622.7813,221.875 Q621.4375,221.875 620.75,222.9531 Q620.0625,224.0156 620.0625,226.1094 Q620.0625,228.2031 620.75,229.2813 Q621.4375,230.3438 622.7813,230.3438 Q623.4063,230.3438 624,230.0781 Q624.5938,229.7969 625.2188,229.2188 L625.2188,231.9375 Z " fill="#000000"/><text fill="#000000" font-family="sans-serif" font-size="14" lengthAdjust="spacing" textLength="79" x="642.75" y="231.1436">SaleService</text><line style="stroke:#181818;stroke-width:0.5;" x1="463" x2="869" y1="242.2969" y2="242.2969"/><line style="stroke:#181818;stroke-width:0.5;" x1="463" x2="869" y1="250.2969" y2="250.2969"/><ellipse cx="473" cy="263.9453" fill="#84BE84" rx="3" ry="3" style="stroke:#038048;stroke-width:1.0;"/><text fill="#000000" font-family="sans-serif" font-size="14" lengthAdjust="spacing" textLength="382" x="482" y="267.292">recordSale(items: SaleItem[], storeId: number): number</text><ellipse cx="473" cy="280.2422" fill="#84BE84" rx="3" ry="3" style="stroke:#038048;stroke-width:1.0;"/><text fill="#000000" font-family="sans-serif" font-size="14" lengthAdjust="spacing" textLength="343" x="482" y="283.5889">cancelSale(saleId: number, storeId: number): void</text><ellipse cx="473" cy="296.5391" fill="#84BE84" rx="3" ry="3" style="stroke:#038048;stroke-width:1.0;"/><text fill="#000000" font-family="sans-serif" font-size="14" lengthAdjust="spacing" textLength="254" x="482" y="299.8857">findOldSales(storeId: number): Sale[]</text></g><!--link Product to Inventory--><g id="link_Product_Inventory"><path codeLine="58" d="M135.62,315.3369 C146.81,332.4869 161.07,350.0669 178,362.2969 C216.31,389.9669 236.89,372.9469 280,392.2969 C285.73,394.8669 291.53,397.7569 297.29,400.8269 " fill="none" id="Product-Inventory" style="stroke:#181818;stroke-width:1.0;"/><text fill="#000000" font-family="sans-serif" font-size="13" lengthAdjust="spacing" textLength="49" x="179" y="358.3638">product</text><text fill="#000000" font-family="sans-serif" font-size="13" lengthAdjust="spacing" textLength="8" x="130.7744" y="335.6054">1</text><text fill="#000000" font-family="sans-serif" font-size="13" lengthAdjust="spacing" textLength="23" x="270.0612" y="390.4099">0..*</text></g><!--link Store to Inventory--><g id="link_Store_Inventory"><path codeLine="59" d="M309.39,307.7269 C320.37,333.5069 333.95,365.4369 345.38,392.2869 " fill="none" id="Store-Inventory" style="stroke:#181818;stroke-width:1.0;"/><text fill="#000000" font-family="sans-serif" font-size="13" lengthAdjust="spacing" textLength="33" x="332" y="358.3638">store</text><text fill="#000000" font-family="sans-serif" font-size="13" lengthAdjust="spacing" textLength="8" x="303.5924" y="327.3928">1</text><text fill="#000000" font-family="sans-serif" font-size="13" lengthAdjust="spacing" textLength="23" x="317.8803" y="381.149">0..*</text></g><!--link Inventory to SaleItem--><g id="link_Inventory_SaleItem"><path codeLine="60" d="M399.66,505.4369 C412.82,529.3169 428.27,557.3569 441.88,582.0669 " fill="none" id="Inventory-SaleItem" style="stroke:#181818;stroke-width:1.0;"/><text fill="#000000" font-family="sans-serif" font-size="13" lengthAdjust="spacing" textLength="59" x="424" y="548.3638">inventory</text><text fill="#000000" font-family="sans-serif" font-size="13" lengthAdjust="spacing" textLength="8" x="395.0758" y="525.7182">1</text><text fill="#000000" font-family="sans-serif" font-size="13" lengthAdjust="spacing" textLength="23" x="413.7809" y="571.2144">0..*</text></g><!--link Product to SaleItem--><g id="link_Product_SaleItem"><path codeLine="61" d="M70.16,315.5469 C40.02,368.8769 8.41,449.2569 49,505.2969 C130.65,618.0469 305.68,641.9269 404.75,646.0169 " fill="none" id="Product-SaleItem" style="stroke:#181818;stroke-width:1.0;"/><text fill="#000000" font-family="sans-serif" font-size="13" lengthAdjust="spacing" textLength="49" x="50" y="453.3638">product</text><text fill="#000000" font-family="sans-serif" font-size="13" lengthAdjust="spacing" textLength="8" x="57.1826" y="335.4409">1</text><text fill="#000000" font-family="sans-serif" font-size="13" lengthAdjust="spacing" textLength="23" x="374.0293" y="642.3043">0..*</text></g><!--link Sale to SaleItem--><g id="link_Sale_SaleItem"><path codeLine="62" d="M527.13,505.4369 C518.6,529.3169 508.59,557.3569 499.76,582.0669 " fill="none" id="Sale-SaleItem" style="stroke:#181818;stroke-width:1.0;"/><text fill="#000000" font-family="sans-serif" font-size="13" lengthAdjust="spacing" textLength="36" x="517" y="548.3638">items</text><text fill="#000000" font-family="sans-serif" font-size="13" lengthAdjust="spacing" textLength="8" x="516.0717" y="525.7182">1</text><text fill="#000000" font-family="sans-serif" font-size="13" lengthAdjust="spacing" textLength="23" x="477.9916" y="571.2144">0..*</text></g><!--link Store to Sale--><g id="link_Store_Sale"><path codeLine="63" d="M354.44,307.4769 C391.46,334.4569 437.8,368.2269 475.74,395.8669 " fill="none" id="Store-Sale" style="stroke:#181818;stroke-width:1.0;"/><text fill="#000000" font-family="sans-serif" font-size="13" lengthAdjust="spacing" textLength="33" x="426" y="358.3638">store</text><text fill="#000000" font-family="sans-serif" font-size="13" lengthAdjust="spacing" textLength="8" x="354.696" y="327.1092">1</text><text fill="#000000" font-family="sans-serif" font-size="13" lengthAdjust="spacing" textLength="23" x="445.1106" y="387.3604">0..*</text></g><!--link Product to SupplyRequest--><g id="link_Product_SupplyRequest"><path codeLine="64" d="M86.9,315.4069 C84.23,331.0769 84.37,347.8069 91,362.2969 C97.24,375.9269 106.84,388.2069 117.66,398.9369 " fill="none" id="Product-SupplyRequest" style="stroke:#181818;stroke-width:1.0;"/><text fill="#000000" font-family="sans-serif" font-size="13" lengthAdjust="spacing" textLength="49" x="92" y="358.3638">product</text><text fill="#000000" font-family="sans-serif" font-size="13" lengthAdjust="spacing" textLength="8" x="75.8122" y="335.6844">1</text><text fill="#000000" font-family="sans-serif" font-size="13" lengthAdjust="spacing" textLength="23" x="86.931" y="390.7134">0..*</text></g><!--link Store to SupplyRequest--><g id="link_Store_SupplyRequest"><path codeLine="65" d="M265.25,307.4269 C256.49,324.7669 246.41,344.4769 237,362.2969 C231.86,372.0269 226.3,382.3369 220.86,392.2869 " fill="none" id="Store-SupplyRequest" style="stroke:#181818;stroke-width:1.0;"/><text fill="#000000" font-family="sans-serif" font-size="13" lengthAdjust="spacing" textLength="33" x="246" y="358.3638">store</text><text fill="#000000" font-family="sans-serif" font-size="13" lengthAdjust="spacing" textLength="8" x="253.3477" y="327.4041">1</text><text fill="#000000" font-family="sans-serif" font-size="13" lengthAdjust="spacing" textLength="23" x="200.3405" y="381.149">0..*</text></g><!--link ProductService to Product--><g id="link_ProductService_Product"><path codeLine="67" d="M218.17,141.6769 C200.07,160.5869 183.2877,178.1014 164.5177,197.7214 " fill="none" id="ProductService-to-Product" style="stroke:#181818;stroke-width:1.0;stroke-dasharray:7.0,7.0;"/><polygon fill="#181818" points="160.37,202.0569,169.4819,198.3187,163.8264,198.4439,163.7012,192.7885,160.37,202.0569" style="stroke:#181818;stroke-width:1.0;"/></g><!--link ProductService to Inventory--><g id="link_ProductService_Inventory"><path codeLine="68" d="M329,141.4769 C347.04,158.4469 364.32,179.1569 374,202.2969 C399.58,263.4569 393.3542,335.0012 383.6442,386.3812 " fill="none" id="ProductService-to-Inventory" style="stroke:#181818;stroke-width:1.0;stroke-dasharray:7.0,7.0;"/><polygon fill="#181818" points="382.53,392.2769,388.1317,384.1762,383.4585,387.3638,380.2708,382.6906,382.53,392.2769" style="stroke:#181818;stroke-width:1.0;"/></g><!--link SaleService to Sale--><g id="link_SaleService_Sale"><path codeLine="69" d="M635.66,307.7269 C619.34,333.5069 602.3396,360.3675 585.3396,387.2175 " fill="none" id="SaleService-to-Sale" style="stroke:#181818;stroke-width:1.0;stroke-dasharray:7.0,7.0;"/><polygon fill="#181818" points="582.13,392.2869,590.324,386.8226,584.8047,388.0624,583.5649,382.5431,582.13,392.2869" style="stroke:#181818;stroke-width:1.0;"/></g><!--link SaleService to SaleItem--><g id="link_SaleService_SaleItem"><path codeLine="70" d="M669.85,307.5069 C671.9,359.2469 668.89,442.7869 636,505.2969 C616.02,543.2769 586.0743,572.166 554.1643,596.316 " fill="none" id="SaleService-to-SaleItem" style="stroke:#181818;stroke-width:1.0;stroke-dasharray:7.0,7.0;"/><polygon fill="#181818" points="549.38,599.9369,558.9703,597.6952,553.3669,596.9195,554.1426,591.3161,549.38,599.9369" style="stroke:#181818;stroke-width:1.0;"/></g><!--link SaleService to Inventory--><g id="link_SaleService_Inventory"><path codeLine="71" d="M590.67,307.4769 C544.61,336.6369 491.1101,370.5085 445.7401,399.2185 " fill="none" id="SaleService-to-Inventory" style="stroke:#181818;stroke-width:1.0;stroke-dasharray:7.0,7.0;"/><polygon fill="#181818" points="440.67,402.4269,450.4141,400.9944,444.8951,399.7532,446.1363,394.2342,440.67,402.4269" style="stroke:#181818;stroke-width:1.0;"/></g><!--SRC=[ZLCzJyCm4DtpAonFWROHh1aO44i61A8ZOd3Zex9mxDHsAaM8_uxjn4dS98KjERzxzzvz66Oue2T6ZefK5I0AgEH4Qz19uZ_GgvAqAGtwJX3Q8KPp99hg0Ch_2b91ZhHHJ1nze2G6ZbArKR1Mh8GXxoSmxurKy4zUffy94pawICc1Y96a46SGbgXT9j96bbzHfExyvC5OW2bRq2kQ22HyHH-rDYDz4O5FC53ft5CKzlFz8wPriHN5zhNBMvTxQeWmpBGNnfQxtDGrRz_Wr81UcUB_QoptgK_RWpfR2Rx61dqoGVi7dHfGLUZNjcCf1WqtGs7R9PTw1DC77jk2fcm1wN5DxUQmToDEUmyZwwpCrYutDsJ2TPQCncE9BIWefQ8kdix6kUHYQDJ6te4eWVjKDz0hieAEqBCNxYlgT8vpyMwHmb7YUunsEuJlikmMJsuXHxXl24wwCxk2z8LmCiPYxB2k5ie21gz8c8971UwEhf2wtYxhz9cZn9MQqOR_PNs6xhcJYotEieTXsHQUXcubqxrnB_vqbuBEx-nXvFa5]--></g></svg>