<?xml version="1.0" encoding="us-ascii" standalone="no"?><svg xmlns="http://www.w3.org/2000/svg" xmlns:xlink="http://www.w3.org/1999/xlink" contentStyleType="text/css" height="561px" preserveAspectRatio="none" style="width:679px;height:561px;background:#FFFFFF;" version="1.1" viewBox="0 0 679 561" width="679px" zoomAndPan="magnify"><defs/><g><text fill="#000000" font-family="sans-serif" font-size="14" font-weight="bold" lengthAdjust="spacing" textLength="177" x="244" y="22.9951">Diagramme de classes</text><!--class Product--><g id="elem_Product"><rect codeLine="4" fill="#F1F1F1" height="129.4844" id="Product" rx="2.5" ry="2.5" style="stroke:#181818;stroke-width:0.5;" width="134" x="392.5" y="202.2969"/><ellipse cx="429.1" cy="218.2969" fill="#ADD1B2" rx="11" ry="11" style="stroke:#181818;stroke-width:1.0;"/><path d="M432.0688,223.9375 Q431.4906,224.2344 430.85,224.375 Q430.2094,224.5313 429.5063,224.5313 Q427.0063,224.5313 425.6781,222.8906 Q424.3656,221.2344 424.3656,218.1094 Q424.3656,214.9844 425.6781,213.3281 Q427.0063,211.6719 429.5063,211.6719 Q430.2094,211.6719 430.85,211.8281 Q431.5063,211.9844 432.0688,212.2813 L432.0688,215 Q431.4438,214.4219 430.85,214.1563 Q430.2563,213.875 429.6313,213.875 Q428.2875,213.875 427.6,214.9531 Q426.9125,216.0156 426.9125,218.1094 Q426.9125,220.2031 427.6,221.2813 Q428.2875,222.3438 429.6313,222.3438 Q430.2563,222.3438 430.85,222.0781 Q431.4438,221.7969 432.0688,221.2188 L432.0688,223.9375 Z " fill="#000000"/><text fill="#000000" font-family="sans-serif" font-size="14" lengthAdjust="spacing" textLength="54" x="447.9" y="223.1436">Product</text><line style="stroke:#181818;stroke-width:0.5;" x1="393.5" x2="525.5" y1="234.2969" y2="234.2969"/><rect fill="none" height="6" style="stroke:#C82930;stroke-width:1.0;" width="6" x="400.5" y="244.9453"/><text fill="#000000" font-family="sans-serif" font-size="14" lengthAdjust="spacing" textLength="75" x="412.5" y="251.292">id: number</text><rect fill="none" height="6" style="stroke:#C82930;stroke-width:1.0;" width="6" x="400.5" y="261.2422"/><text fill="#000000" font-family="sans-serif" font-size="14" lengthAdjust="spacing" textLength="87" x="412.5" y="267.5889">name: string</text><rect fill="none" height="6" style="stroke:#C82930;stroke-width:1.0;" width="6" x="400.5" y="277.5391"/><text fill="#000000" font-family="sans-serif" font-size="14" lengthAdjust="spacing" textLength="108" x="412.5" y="283.8857">category: string</text><rect fill="none" height="6" style="stroke:#C82930;stroke-width:1.0;" width="6" x="400.5" y="293.8359"/><text fill="#000000" font-family="sans-serif" font-size="14" lengthAdjust="spacing" textLength="97" x="412.5" y="300.1826">price: number</text><rect fill="none" height="6" style="stroke:#C82930;stroke-width:1.0;" width="6" x="400.5" y="310.1328"/><text fill="#000000" font-family="sans-serif" font-size="14" lengthAdjust="spacing" textLength="101" x="412.5" y="316.4795">stock: number</text><line style="stroke:#181818;stroke-width:0.5;" x1="393.5" x2="525.5" y1="323.7813" y2="323.7813"/></g><!--class Sale--><g id="elem_Sale"><rect codeLine="12" fill="#F1F1F1" height="96.8906" id="Sale" rx="2.5" ry="2.5" style="stroke:#181818;stroke-width:0.5;" width="142" x="80.5" y="218.2969"/><ellipse cx="132.75" cy="234.2969" fill="#ADD1B2" rx="11" ry="11" style="stroke:#181818;stroke-width:1.0;"/><path d="M135.7188,239.9375 Q135.1406,240.2344 134.5,240.375 Q133.8594,240.5313 133.1563,240.5313 Q130.6563,240.5313 129.3281,238.8906 Q128.0156,237.2344 128.0156,234.1094 Q128.0156,230.9844 129.3281,229.3281 Q130.6563,227.6719 133.1563,227.6719 Q133.8594,227.6719 134.5,227.8281 Q135.1563,227.9844 135.7188,228.2813 L135.7188,231 Q135.0938,230.4219 134.5,230.1563 Q133.9063,229.875 133.2813,229.875 Q131.9375,229.875 131.25,230.9531 Q130.5625,232.0156 130.5625,234.1094 Q130.5625,236.2031 131.25,237.2813 Q131.9375,238.3438 133.2813,238.3438 Q133.9063,238.3438 134.5,238.0781 Q135.0938,237.7969 135.7188,237.2188 L135.7188,239.9375 Z " fill="#000000"/><text fill="#000000" font-family="sans-serif" font-size="14" lengthAdjust="spacing" textLength="29" x="153.25" y="239.1436">Sale</text><line style="stroke:#181818;stroke-width:0.5;" x1="81.5" x2="221.5" y1="250.2969" y2="250.2969"/><rect fill="none" height="6" style="stroke:#C82930;stroke-width:1.0;" width="6" x="88.5" y="260.9453"/><text fill="#000000" font-family="sans-serif" font-size="14" lengthAdjust="spacing" textLength="75" x="100.5" y="267.292">id: number</text><rect fill="none" height="6" style="stroke:#C82930;stroke-width:1.0;" width="6" x="88.5" y="277.2422"/><text fill="#000000" font-family="sans-serif" font-size="14" lengthAdjust="spacing" textLength="79" x="100.5" y="283.5889">date: string</text><rect fill="none" height="6" style="stroke:#C82930;stroke-width:1.0;" width="6" x="88.5" y="293.5391"/><text fill="#000000" font-family="sans-serif" font-size="14" lengthAdjust="spacing" textLength="116" x="100.5" y="299.8857">items: SaleItem[]</text><line style="stroke:#181818;stroke-width:0.5;" x1="81.5" x2="221.5" y1="307.1875" y2="307.1875"/></g><!--class SaleItem--><g id="elem_SaleItem"><rect codeLine="18" fill="#F1F1F1" height="145.7813" id="SaleItem" rx="2.5" ry="2.5" style="stroke:#181818;stroke-width:0.5;" width="162" x="194.5" y="408.2969"/><ellipse cx="241.75" cy="424.2969" fill="#ADD1B2" rx="11" ry="11" style="stroke:#181818;stroke-width:1.0;"/><path d="M244.7188,429.9375 Q244.1406,430.2344 243.5,430.375 Q242.8594,430.5313 242.1563,430.5313 Q239.6563,430.5313 238.3281,428.8906 Q237.0156,427.2344 237.0156,424.1094 Q237.0156,420.9844 238.3281,419.3281 Q239.6563,417.6719 242.1563,417.6719 Q242.8594,417.6719 243.5,417.8281 Q244.1563,417.9844 244.7188,418.2813 L244.7188,421 Q244.0938,420.4219 243.5,420.1563 Q242.9063,419.875 242.2813,419.875 Q240.9375,419.875 240.25,420.9531 Q239.5625,422.0156 239.5625,424.1094 Q239.5625,426.2031 240.25,427.2813 Q240.9375,428.3438 242.2813,428.3438 Q242.9063,428.3438 243.5,428.0781 Q244.0938,427.7969 244.7188,427.2188 L244.7188,429.9375 Z " fill="#000000"/><text fill="#000000" font-family="sans-serif" font-size="14" lengthAdjust="spacing" textLength="59" x="262.25" y="429.1436">SaleItem</text><line style="stroke:#181818;stroke-width:0.5;" x1="195.5" x2="355.5" y1="440.2969" y2="440.2969"/><rect fill="none" height="6" style="stroke:#C82930;stroke-width:1.0;" width="6" x="202.5" y="450.9453"/><text fill="#000000" font-family="sans-serif" font-size="14" lengthAdjust="spacing" textLength="110" x="214.5" y="457.292">sale_id: number</text><rect fill="none" height="6" style="stroke:#C82930;stroke-width:1.0;" width="6" x="202.5" y="467.2422"/><text fill="#000000" font-family="sans-serif" font-size="14" lengthAdjust="spacing" textLength="136" x="214.5" y="473.5889">product_id: number</text><rect fill="none" height="6" style="stroke:#C82930;stroke-width:1.0;" width="6" x="202.5" y="483.5391"/><text fill="#000000" font-family="sans-serif" font-size="14" lengthAdjust="spacing" textLength="118" x="214.5" y="489.8857">quantity: number</text><rect fill="none" height="6" style="stroke:#C82930;stroke-width:1.0;" width="6" x="202.5" y="499.8359"/><text fill="#000000" font-family="sans-serif" font-size="14" lengthAdjust="spacing" textLength="97" x="214.5" y="506.1826">price: number</text><rect fill="none" height="6" style="stroke:#C82930;stroke-width:1.0;" width="6" x="202.5" y="516.1328"/><text fill="#000000" font-family="sans-serif" font-size="14" lengthAdjust="spacing" textLength="66" x="214.5" y="522.4795">sale: Sale</text><rect fill="none" height="6" style="stroke:#C82930;stroke-width:1.0;" width="6" x="202.5" y="532.4297"/><text fill="#000000" font-family="sans-serif" font-size="14" lengthAdjust="spacing" textLength="117" x="214.5" y="538.7764">product: Product</text><line style="stroke:#181818;stroke-width:0.5;" x1="195.5" x2="355.5" y1="546.0781" y2="546.0781"/></g><!--class ProductService--><g id="elem_ProductService"><rect codeLine="27" fill="#F1F1F1" height="96.8906" id="ProductService" rx="2.5" ry="2.5" style="stroke:#181818;stroke-width:0.5;" width="341" x="331" y="44.2969"/><ellipse cx="445.25" cy="60.2969" fill="#ADD1B2" rx="11" ry="11" style="stroke:#181818;stroke-width:1.0;"/><path d="M448.2188,65.9375 Q447.6406,66.2344 447,66.375 Q446.3594,66.5313 445.6563,66.5313 Q443.1563,66.5313 441.8281,64.8906 Q440.5156,63.2344 440.5156,60.1094 Q440.5156,56.9844 441.8281,55.3281 Q443.1563,53.6719 445.6563,53.6719 Q446.3594,53.6719 447,53.8281 Q447.6563,53.9844 448.2188,54.2813 L448.2188,57 Q447.5938,56.4219 447,56.1563 Q446.4063,55.875 445.7813,55.875 Q444.4375,55.875 443.75,56.9531 Q443.0625,58.0156 443.0625,60.1094 Q443.0625,62.2031 443.75,63.2813 Q444.4375,64.3438 445.7813,64.3438 Q446.4063,64.3438 447,64.0781 Q447.5938,63.7969 448.2188,63.2188 L448.2188,65.9375 Z " fill="#000000"/><text fill="#000000" font-family="sans-serif" font-size="14" lengthAdjust="spacing" textLength="104" x="465.75" y="65.1436">ProductService</text><line style="stroke:#181818;stroke-width:0.5;" x1="332" x2="671" y1="76.2969" y2="76.2969"/><line style="stroke:#181818;stroke-width:0.5;" x1="332" x2="671" y1="84.2969" y2="84.2969"/><ellipse cx="342" cy="97.9453" fill="#84BE84" rx="3" ry="3" style="stroke:#038048;stroke-width:1.0;"/><text fill="#000000" font-family="sans-serif" font-size="14" lengthAdjust="spacing" textLength="250" x="351" y="101.292">findProducts(term: string): Product[]</text><ellipse cx="342" cy="114.2422" fill="#84BE84" rx="3" ry="3" style="stroke:#038048;stroke-width:1.0;"/><text fill="#000000" font-family="sans-serif" font-size="14" lengthAdjust="spacing" textLength="254" x="351" y="117.5889">getProductById(id: number): Product</text><ellipse cx="342" cy="130.5391" fill="#84BE84" rx="3" ry="3" style="stroke:#038048;stroke-width:1.0;"/><text fill="#000000" font-family="sans-serif" font-size="14" lengthAdjust="spacing" textLength="315" x="351" y="133.8857">updateStock(id: number, delta: number): void</text></g><!--class SaleService--><g id="elem_SaleService"><rect codeLine="33" fill="#F1F1F1" height="80.5938" id="SaleService" rx="2.5" ry="2.5" style="stroke:#181818;stroke-width:0.5;" width="289" x="7" y="52.2969"/><ellipse cx="107.75" cy="68.2969" fill="#ADD1B2" rx="11" ry="11" style="stroke:#181818;stroke-width:1.0;"/><path d="M110.7188,73.9375 Q110.1406,74.2344 109.5,74.375 Q108.8594,74.5313 108.1563,74.5313 Q105.6563,74.5313 104.3281,72.8906 Q103.0156,71.2344 103.0156,68.1094 Q103.0156,64.9844 104.3281,63.3281 Q105.6563,61.6719 108.1563,61.6719 Q108.8594,61.6719 109.5,61.8281 Q110.1563,61.9844 110.7188,62.2813 L110.7188,65 Q110.0938,64.4219 109.5,64.1563 Q108.9063,63.875 108.2813,63.875 Q106.9375,63.875 106.25,64.9531 Q105.5625,66.0156 105.5625,68.1094 Q105.5625,70.2031 106.25,71.2813 Q106.9375,72.3438 108.2813,72.3438 Q108.9063,72.3438 109.5,72.0781 Q110.0938,71.7969 110.7188,71.2188 L110.7188,73.9375 Z " fill="#000000"/><text fill="#000000" font-family="sans-serif" font-size="14" lengthAdjust="spacing" textLength="79" x="128.25" y="73.1436">SaleService</text><line style="stroke:#181818;stroke-width:0.5;" x1="8" x2="295" y1="84.2969" y2="84.2969"/><line style="stroke:#181818;stroke-width:0.5;" x1="8" x2="295" y1="92.2969" y2="92.2969"/><ellipse cx="18" cy="105.9453" fill="#84BE84" rx="3" ry="3" style="stroke:#038048;stroke-width:1.0;"/><text fill="#000000" font-family="sans-serif" font-size="14" lengthAdjust="spacing" textLength="263" x="27" y="109.292">recordSale(items: SaleItem[]): number</text><ellipse cx="18" cy="122.2422" fill="#84BE84" rx="3" ry="3" style="stroke:#038048;stroke-width:1.0;"/><text fill="#000000" font-family="sans-serif" font-size="14" lengthAdjust="spacing" textLength="224" x="27" y="125.5889">cancelSale(saleId: number): void</text></g><!--link Product to SaleItem--><g id="link_Product_SaleItem"><path codeLine="38" d="M404.29,331.5569 C383.44,355.6369 359.57,383.2069 338.08,408.0169 " fill="none" id="Product-SaleItem" style="stroke:#181818;stroke-width:1.0;"/><text fill="#000000" font-family="sans-serif" font-size="13" lengthAdjust="spacing" textLength="49" x="380.5" y="374.3638">product</text><text fill="#000000" font-family="sans-serif" font-size="13" lengthAdjust="spacing" textLength="8" x="389.4438" y="351.9585">1</text><text fill="#000000" font-family="sans-serif" font-size="13" lengthAdjust="spacing" textLength="23" x="320.1082" y="397.1493">0..*</text></g><!--link Sale to SaleItem--><g id="link_Sale_SaleItem"><path codeLine="39" d="M176.55,315.4769 C187.07,335.0969 199.6,357.9469 211.5,378.2969 C217.2,388.0469 223.34,398.2169 229.48,408.2069 " fill="none" id="Sale-SaleItem" style="stroke:#181818;stroke-width:1.0;"/><text fill="#000000" font-family="sans-serif" font-size="13" lengthAdjust="spacing" textLength="36" x="212.5" y="374.3638">items</text><text fill="#000000" font-family="sans-serif" font-size="13" lengthAdjust="spacing" textLength="8" x="171.3786" y="335.1092">1</text><text fill="#000000" font-family="sans-serif" font-size="13" lengthAdjust="spacing" textLength="23" x="200.5483" y="396.9811">0..*</text></g><!--link ProductService to Product--><g id="link_ProductService_Product"><path codeLine="40" d="M489.8,141.7069 C485.24,160.3969 481.3636,176.2582 476.4836,196.2382 " fill="none" id="ProductService-to-Product" style="stroke:#181818;stroke-width:1.0;stroke-dasharray:7.0,7.0;"/><polygon fill="#181818" points="475.06,202.0669,481.0812,194.273,476.2463,197.2097,473.3097,192.3748,475.06,202.0669" style="stroke:#181818;stroke-width:1.0;"/></g><!--link SaleService to Sale--><g id="link_SaleService_Sale"><path codeLine="41" d="M151.5,133.6869 C151.5,158.8969 151.5,185.6069 151.5,212.1669 " fill="none" id="SaleService-to-Sale" style="stroke:#181818;stroke-width:1.0;stroke-dasharray:7.0,7.0;"/><polygon fill="#181818" points="151.5,218.1669,155.5,209.1669,151.5,213.1669,147.5,209.1669,151.5,218.1669" style="stroke:#181818;stroke-width:1.0;"/></g><!--link SaleService to SaleItem--><g id="link_SaleService_SaleItem"><path codeLine="42" d="M192.63,133.4569 C209.96,152.5869 228.6,176.8869 239.5,202.2969 C267.74,268.1569 275.2638,344.2287 276.6738,402.0787 " fill="none" id="SaleService-to-SaleItem" style="stroke:#181818;stroke-width:1.0;stroke-dasharray:7.0,7.0;"/><polygon fill="#181818" points="276.82,408.0769,280.5995,398.9821,276.6982,403.0784,272.6019,399.177,276.82,408.0769" style="stroke:#181818;stroke-width:1.0;"/></g><!--SRC=[TL9DJyGW4BtpAoQSkgvjzDg31xENtanwDCOWZ0snq0fqayRutmMsNtJN6ppUl7dp1YTTYt2Ih35CAGI1m5jcBLf2uW5UJ2S6xk270EGWHGbwK1zeubKpXILOPwHk8i2PmwOpOmBsHd9Cwgph-DU2_CwzQkRDt6mal6wYAHqgMyQAoXzVtrALW4rArb_VTtBzPQWz_3qmxQGRTzmhzrxnqdehLivHhKuce4PpzXhHpn4-fHRJWyqS6ZNFTLWK_3I1sQ2RWEUn4jbgTcL6tj27UEgGwOPqxvVPEhQfENTIf36bpWpopeY0PrVn7ZO97FsQDSSsCaCObRZHPVuuz952dWDzA8exkYwd13e5HqdS-_-yQ8QINPf5yRIai9qbu74tjy0WIVu0]--></g></svg>