<?xml version="1.0" encoding="us-ascii" standalone="no"?><svg xmlns="http://www.w3.org/2000/svg" xmlns:xlink="http://www.w3.org/1999/xlink" contentStyleType="text/css" height="1005px" preserveAspectRatio="none" style="width:1944px;height:1005px;background:#FFFFFF;" version="1.1" viewBox="0 0 1944 1005" width="1944px" zoomAndPan="magnify"><defs/><g><!--cluster Products Service Entities--><g id="cluster_Products Service Entities"><path d="M1018.5,649 L1197.5,649 A3.75,3.75 0 0 1 1200,651.5 L1207,672.6094 L1233.5,672.6094 A2.5,2.5 0 0 1 1236,675.1094 L1236,995.5 A2.5,2.5 0 0 1 1233.5,998 L1018.5,998 A2.5,2.5 0 0 1 1016,995.5 L1016,651.5 A2.5,2.5 0 0 1 1018.5,649 " fill="none" style="stroke:#000000;stroke-width:1.5;"/><line style="stroke:#000000;stroke-width:1.5;" x1="1016" x2="1207" y1="672.6094" y2="672.6094"/><text fill="#000000" font-family="sans-serif" font-size="14" font-weight="bold" lengthAdjust="spacing" textLength="178" x="1020" y="665.5332">Products Service Entities</text></g><!--cluster Controllers--><g id="cluster_Controllers"><path d="M902.5,429 L982.5,429 A3.75,3.75 0 0 1 985,431.5 L992,452.6094 L1589.5,452.6094 A2.5,2.5 0 0 1 1592,455.1094 L1592,596.5 A2.5,2.5 0 0 1 1589.5,599 L902.5,599 A2.5,2.5 0 0 1 900,596.5 L900,431.5 A2.5,2.5 0 0 1 902.5,429 " fill="none" style="stroke:#000000;stroke-width:1.5;"/><line style="stroke:#000000;stroke-width:1.5;" x1="900" x2="992" y1="452.6094" y2="452.6094"/><text fill="#000000" font-family="sans-serif" font-size="14" font-weight="bold" lengthAdjust="spacing" textLength="79" x="904" y="445.5332">Controllers</text></g><!--cluster Middleware--><g id="cluster_Middleware"><path d="M8.5,6 L91.5,6 A3.75,3.75 0 0 1 94,8.5 L101,29.6094 L1934.5,29.6094 A2.5,2.5 0 0 1 1937,32.1094 L1937,156.5 A2.5,2.5 0 0 1 1934.5,159 L8.5,159 A2.5,2.5 0 0 1 6,156.5 L6,8.5 A2.5,2.5 0 0 1 8.5,6 " fill="none" style="stroke:#000000;stroke-width:1.5;"/><line style="stroke:#000000;stroke-width:1.5;" x1="6" x2="101" y1="29.6094" y2="29.6094"/><text fill="#000000" font-family="sans-serif" font-size="14" font-weight="bold" lengthAdjust="spacing" textLength="82" x="10" y="22.5332">Middleware</text></g><!--cluster Routes--><g id="cluster_Routes"><path d="M299.5,209 L350.5,209 A3.75,3.75 0 0 1 353,211.5 L360,232.6094 L945.5,232.6094 A2.5,2.5 0 0 1 948,235.1094 L948,376.5 A2.5,2.5 0 0 1 945.5,379 L299.5,379 A2.5,2.5 0 0 1 297,376.5 L297,211.5 A2.5,2.5 0 0 1 299.5,209 " fill="none" style="stroke:#000000;stroke-width:1.5;"/><line style="stroke:#000000;stroke-width:1.5;" x1="297" x2="360" y1="232.6094" y2="232.6094"/><text fill="#000000" font-family="sans-serif" font-size="14" font-weight="bold" lengthAdjust="spacing" textLength="50" x="301" y="225.5332">Routes</text></g><!--class Product--><g id="elem_Product"><rect codeLine="3" fill="#F1F1F1" height="118.4375" id="Product" rx="2.5" ry="2.5" style="stroke:#181818;stroke-width:0.5;" width="147" x="1032.5" y="685"/><ellipse cx="1077.25" cy="701" fill="#ADD1B2" rx="11" ry="11" style="stroke:#181818;stroke-width:1.0;"/><path d="M1080.0156,696.875 Q1080.1719,696.6563 1080.3594,696.5469 Q1080.5469,696.4375 1080.7656,696.4375 Q1081.1406,696.4375 1081.375,696.7031 Q1081.6094,696.9531 1081.6094,697.5625 L1081.6094,699.0156 Q1081.6094,699.625 1081.375,699.8906 Q1081.1406,700.1563 1080.7656,700.1563 Q1080.4219,700.1563 1080.2188,699.9531 Q1080.0156,699.7656 1079.9063,699.25 Q1079.8594,698.8906 1079.6719,698.7031 Q1079.3438,698.3281 1078.7344,698.1094 Q1078.125,697.8906 1077.5,697.8906 Q1076.7344,697.8906 1076.0938,698.2188 Q1075.4688,698.5469 1074.9688,699.2969 Q1074.4844,700.0469 1074.4844,701.0781 L1074.4844,702.1719 Q1074.4844,703.4063 1075.375,704.2344 Q1076.2656,705.0469 1077.8594,705.0469 Q1078.7969,705.0469 1079.4531,704.7969 Q1079.8438,704.6406 1080.2656,704.2031 Q1080.5313,703.9375 1080.6719,703.8594 Q1080.8281,703.7813 1081.0313,703.7813 Q1081.3594,703.7813 1081.6094,704.0469 Q1081.875,704.2969 1081.875,704.6406 Q1081.875,704.9844 1081.5313,705.3906 Q1081.0313,705.9688 1080.2344,706.2969 Q1079.1563,706.75 1077.8594,706.75 Q1076.3438,706.75 1075.1406,706.125 Q1074.1563,705.625 1073.4688,704.5625 Q1072.7813,703.4844 1072.7813,702.2031 L1072.7813,701.0469 Q1072.7813,699.7188 1073.3906,698.5781 Q1074.0156,697.4219 1075.1094,696.8125 Q1076.2031,696.1875 1077.4375,696.1875 Q1078.1719,696.1875 1078.8125,696.3594 Q1079.4688,696.5156 1080.0156,696.875 Z " fill="#000000"/><text fill="#000000" font-family="sans-serif" font-size="14" lengthAdjust="spacing" textLength="49" x="1097.75" y="706.7285">Product</text><line style="stroke:#181818;stroke-width:0.5;" x1="1033.5" x2="1178.5" y1="717" y2="717"/><ellipse cx="1043.5" cy="731.3047" fill="none" rx="3" ry="3" style="stroke:#038048;stroke-width:1.0;"/><text fill="#000000" font-family="sans-serif" font-size="14" lengthAdjust="spacing" textLength="67" x="1052.5" y="735.5332">id: number</text><ellipse cx="1043.5" cy="748.9141" fill="none" rx="3" ry="3" style="stroke:#038048;stroke-width:1.0;"/><text fill="#000000" font-family="sans-serif" font-size="14" lengthAdjust="spacing" textLength="78" x="1052.5" y="753.1426">name: string</text><ellipse cx="1043.5" cy="766.5234" fill="none" rx="3" ry="3" style="stroke:#038048;stroke-width:1.0;"/><text fill="#000000" font-family="sans-serif" font-size="14" lengthAdjust="spacing" textLength="87" x="1052.5" y="770.752">price: number</text><ellipse cx="1043.5" cy="784.1328" fill="none" rx="3" ry="3" style="stroke:#038048;stroke-width:1.0;"/><text fill="#000000" font-family="sans-serif" font-size="14" lengthAdjust="spacing" textLength="121" x="1052.5" y="788.3613">category: Category</text><line style="stroke:#181818;stroke-width:0.5;" x1="1033.5" x2="1178.5" y1="795.4375" y2="795.4375"/></g><!--class Category--><g id="elem_Category"><rect codeLine="10" fill="#F1F1F1" height="100.8281" id="Category" rx="2.5" ry="2.5" style="stroke:#181818;stroke-width:0.5;" width="146" x="1074" y="881"/><ellipse cx="1114.2" cy="897" fill="#ADD1B2" rx="11" ry="11" style="stroke:#181818;stroke-width:1.0;"/><path d="M1116.9656,892.875 Q1117.1219,892.6563 1117.3094,892.5469 Q1117.4969,892.4375 1117.7156,892.4375 Q1118.0906,892.4375 1118.325,892.7031 Q1118.5594,892.9531 1118.5594,893.5625 L1118.5594,895.0156 Q1118.5594,895.625 1118.325,895.8906 Q1118.0906,896.1563 1117.7156,896.1563 Q1117.3719,896.1563 1117.1688,895.9531 Q1116.9656,895.7656 1116.8563,895.25 Q1116.8094,894.8906 1116.6219,894.7031 Q1116.2938,894.3281 1115.6844,894.1094 Q1115.075,893.8906 1114.45,893.8906 Q1113.6844,893.8906 1113.0438,894.2188 Q1112.4188,894.5469 1111.9188,895.2969 Q1111.4344,896.0469 1111.4344,897.0781 L1111.4344,898.1719 Q1111.4344,899.4063 1112.325,900.2344 Q1113.2156,901.0469 1114.8094,901.0469 Q1115.7469,901.0469 1116.4031,900.7969 Q1116.7938,900.6406 1117.2156,900.2031 Q1117.4813,899.9375 1117.6219,899.8594 Q1117.7781,899.7813 1117.9813,899.7813 Q1118.3094,899.7813 1118.5594,900.0469 Q1118.825,900.2969 1118.825,900.6406 Q1118.825,900.9844 1118.4813,901.3906 Q1117.9813,901.9688 1117.1844,902.2969 Q1116.1063,902.75 1114.8094,902.75 Q1113.2938,902.75 1112.0906,902.125 Q1111.1063,901.625 1110.4188,900.5625 Q1109.7313,899.4844 1109.7313,898.2031 L1109.7313,897.0469 Q1109.7313,895.7188 1110.3406,894.5781 Q1110.9656,893.4219 1112.0594,892.8125 Q1113.1531,892.1875 1114.3875,892.1875 Q1115.1219,892.1875 1115.7625,892.3594 Q1116.4188,892.5156 1116.9656,892.875 Z " fill="#000000"/><text fill="#000000" font-family="sans-serif" font-size="14" lengthAdjust="spacing" textLength="58" x="1133.8" y="902.7285">Category</text><line style="stroke:#181818;stroke-width:0.5;" x1="1075" x2="1219" y1="913" y2="913"/><ellipse cx="1085" cy="927.3047" fill="none" rx="3" ry="3" style="stroke:#038048;stroke-width:1.0;"/><text fill="#000000" font-family="sans-serif" font-size="14" lengthAdjust="spacing" textLength="67" x="1094" y="931.5332">id: number</text><ellipse cx="1085" cy="944.9141" fill="none" rx="3" ry="3" style="stroke:#038048;stroke-width:1.0;"/><text fill="#000000" font-family="sans-serif" font-size="14" lengthAdjust="spacing" textLength="78" x="1094" y="949.1426">name: string</text><ellipse cx="1085" cy="962.5234" fill="none" rx="3" ry="3" style="stroke:#038048;stroke-width:1.0;"/><text fill="#000000" font-family="sans-serif" font-size="14" lengthAdjust="spacing" textLength="120" x="1094" y="966.752">products: Product[]</text><line style="stroke:#181818;stroke-width:0.5;" x1="1075" x2="1219" y1="973.8281" y2="973.8281"/></g><!--class ProductsController--><g id="elem_ProductsController"><rect codeLine="18" fill="#F1F1F1" height="118.4375" id="ProductsController" rx="2.5" ry="2.5" style="stroke:#181818;stroke-width:0.5;" width="319" x="1256.5" y="465"/><ellipse cx="1352.75" cy="481" fill="#ADD1B2" rx="11" ry="11" style="stroke:#181818;stroke-width:1.0;"/><path d="M1355.5156,476.875 Q1355.6719,476.6563 1355.8594,476.5469 Q1356.0469,476.4375 1356.2656,476.4375 Q1356.6406,476.4375 1356.875,476.7031 Q1357.1094,476.9531 1357.1094,477.5625 L1357.1094,479.0156 Q1357.1094,479.625 1356.875,479.8906 Q1356.6406,480.1563 1356.2656,480.1563 Q1355.9219,480.1563 1355.7188,479.9531 Q1355.5156,479.7656 1355.4063,479.25 Q1355.3594,478.8906 1355.1719,478.7031 Q1354.8438,478.3281 1354.2344,478.1094 Q1353.625,477.8906 1353,477.8906 Q1352.2344,477.8906 1351.5938,478.2188 Q1350.9688,478.5469 1350.4688,479.2969 Q1349.9844,480.0469 1349.9844,481.0781 L1349.9844,482.1719 Q1349.9844,483.4063 1350.875,484.2344 Q1351.7656,485.0469 1353.3594,485.0469 Q1354.2969,485.0469 1354.9531,484.7969 Q1355.3438,484.6406 1355.7656,484.2031 Q1356.0313,483.9375 1356.1719,483.8594 Q1356.3281,483.7813 1356.5313,483.7813 Q1356.8594,483.7813 1357.1094,484.0469 Q1357.375,484.2969 1357.375,484.6406 Q1357.375,484.9844 1357.0313,485.3906 Q1356.5313,485.9688 1355.7344,486.2969 Q1354.6563,486.75 1353.3594,486.75 Q1351.8438,486.75 1350.6406,486.125 Q1349.6563,485.625 1348.9688,484.5625 Q1348.2813,483.4844 1348.2813,482.2031 L1348.2813,481.0469 Q1348.2813,479.7188 1348.8906,478.5781 Q1349.5156,477.4219 1350.6094,476.8125 Q1351.7031,476.1875 1352.9375,476.1875 Q1353.6719,476.1875 1354.3125,476.3594 Q1354.9688,476.5156 1355.5156,476.875 Z " fill="#000000"/><text fill="#000000" font-family="sans-serif" font-size="14" lengthAdjust="spacing" textLength="118" x="1373.25" y="486.7285">ProductsController</text><line style="stroke:#181818;stroke-width:0.5;" x1="1257.5" x2="1574.5" y1="497" y2="497"/><line style="stroke:#181818;stroke-width:0.5;" x1="1257.5" x2="1574.5" y1="505" y2="505"/><ellipse cx="1267.5" cy="519.3047" fill="#84BE84" rx="3" ry="3" style="stroke:#038048;stroke-width:1.0;"/><text fill="#000000" font-family="sans-serif" font-size="14" lengthAdjust="spacing" textLength="86" x="1276.5" y="523.5332">getProducts()</text><ellipse cx="1267.5" cy="536.9141" fill="#84BE84" rx="3" ry="3" style="stroke:#038048;stroke-width:1.0;"/><text fill="#000000" font-family="sans-serif" font-size="14" lengthAdjust="spacing" textLength="243" x="1276.5" y="541.1426">getProductsPaginated(params: object)</text><ellipse cx="1267.5" cy="554.5234" fill="#84BE84" rx="3" ry="3" style="stroke:#038048;stroke-width:1.0;"/><text fill="#000000" font-family="sans-serif" font-size="14" lengthAdjust="spacing" textLength="173" x="1276.5" y="558.752">getProductById(id: number)</text><ellipse cx="1267.5" cy="572.1328" fill="#84BE84" rx="3" ry="3" style="stroke:#038048;stroke-width:1.0;"/><text fill="#000000" font-family="sans-serif" font-size="14" lengthAdjust="spacing" textLength="293" x="1276.5" y="576.3613">getProductsByCategoryId(categoryId: number)</text></g><!--class CategoriesController--><g id="elem_CategoriesController"><rect codeLine="25" fill="#F1F1F1" height="118.4375" id="CategoriesController" rx="2.5" ry="2.5" style="stroke:#181818;stroke-width:0.5;" width="305" x="916.5" y="465"/><ellipse cx="999.25" cy="481" fill="#ADD1B2" rx="11" ry="11" style="stroke:#181818;stroke-width:1.0;"/><path d="M1002.0156,476.875 Q1002.1719,476.6563 1002.3594,476.5469 Q1002.5469,476.4375 1002.7656,476.4375 Q1003.1406,476.4375 1003.375,476.7031 Q1003.6094,476.9531 1003.6094,477.5625 L1003.6094,479.0156 Q1003.6094,479.625 1003.375,479.8906 Q1003.1406,480.1563 1002.7656,480.1563 Q1002.4219,480.1563 1002.2188,479.9531 Q1002.0156,479.7656 1001.9063,479.25 Q1001.8594,478.8906 1001.6719,478.7031 Q1001.3438,478.3281 1000.7344,478.1094 Q1000.125,477.8906 999.5,477.8906 Q998.7344,477.8906 998.0938,478.2188 Q997.4688,478.5469 996.9688,479.2969 Q996.4844,480.0469 996.4844,481.0781 L996.4844,482.1719 Q996.4844,483.4063 997.375,484.2344 Q998.2656,485.0469 999.8594,485.0469 Q1000.7969,485.0469 1001.4531,484.7969 Q1001.8438,484.6406 1002.2656,484.2031 Q1002.5313,483.9375 1002.6719,483.8594 Q1002.8281,483.7813 1003.0313,483.7813 Q1003.3594,483.7813 1003.6094,484.0469 Q1003.875,484.2969 1003.875,484.6406 Q1003.875,484.9844 1003.5313,485.3906 Q1003.0313,485.9688 1002.2344,486.2969 Q1001.1563,486.75 999.8594,486.75 Q998.3438,486.75 997.1406,486.125 Q996.1563,485.625 995.4688,484.5625 Q994.7813,483.4844 994.7813,482.2031 L994.7813,481.0469 Q994.7813,479.7188 995.3906,478.5781 Q996.0156,477.4219 997.1094,476.8125 Q998.2031,476.1875 999.4375,476.1875 Q1000.1719,476.1875 1000.8125,476.3594 Q1001.4688,476.5156 1002.0156,476.875 Z " fill="#000000"/><text fill="#000000" font-family="sans-serif" font-size="14" lengthAdjust="spacing" textLength="131" x="1019.75" y="486.7285">CategoriesController</text><line style="stroke:#181818;stroke-width:0.5;" x1="917.5" x2="1220.5" y1="497" y2="497"/><line style="stroke:#181818;stroke-width:0.5;" x1="917.5" x2="1220.5" y1="505" y2="505"/><ellipse cx="927.5" cy="519.3047" fill="#84BE84" rx="3" ry="3" style="stroke:#038048;stroke-width:1.0;"/><text fill="#000000" font-family="sans-serif" font-size="14" lengthAdjust="spacing" textLength="114" x="936.5" y="523.5332">getAllCategories()</text><ellipse cx="927.5" cy="536.9141" fill="#84BE84" rx="3" ry="3" style="stroke:#038048;stroke-width:1.0;"/><text fill="#000000" font-family="sans-serif" font-size="14" lengthAdjust="spacing" textLength="193" x="936.5" y="541.1426">getCategoriesById(id: number)</text><ellipse cx="927.5" cy="554.5234" fill="#84BE84" rx="3" ry="3" style="stroke:#038048;stroke-width:1.0;"/><text fill="#000000" font-family="sans-serif" font-size="14" lengthAdjust="spacing" textLength="279" x="936.5" y="558.752">getCategoryByProductId(productId: number)</text><ellipse cx="927.5" cy="572.1328" fill="#84BE84" rx="3" ry="3" style="stroke:#038048;stroke-width:1.0;"/><text fill="#000000" font-family="sans-serif" font-size="14" lengthAdjust="spacing" textLength="239" x="936.5" y="576.3613">createCategory(categoryData: object)</text></g><!--class ContentNegotiation--><g id="elem_ContentNegotiation"><rect codeLine="34" fill="#F1F1F1" height="65.6094" id="ContentNegotiation" rx="2.5" ry="2.5" style="stroke:#181818;stroke-width:0.5;" width="385" x="477.5" y="59.5"/><ellipse cx="605.25" cy="75.5" fill="#ADD1B2" rx="11" ry="11" style="stroke:#181818;stroke-width:1.0;"/><path d="M608.0156,71.375 Q608.1719,71.1563 608.3594,71.0469 Q608.5469,70.9375 608.7656,70.9375 Q609.1406,70.9375 609.375,71.2031 Q609.6094,71.4531 609.6094,72.0625 L609.6094,73.5156 Q609.6094,74.125 609.375,74.3906 Q609.1406,74.6563 608.7656,74.6563 Q608.4219,74.6563 608.2188,74.4531 Q608.0156,74.2656 607.9063,73.75 Q607.8594,73.3906 607.6719,73.2031 Q607.3438,72.8281 606.7344,72.6094 Q606.125,72.3906 605.5,72.3906 Q604.7344,72.3906 604.0938,72.7188 Q603.4688,73.0469 602.9688,73.7969 Q602.4844,74.5469 602.4844,75.5781 L602.4844,76.6719 Q602.4844,77.9063 603.375,78.7344 Q604.2656,79.5469 605.8594,79.5469 Q606.7969,79.5469 607.4531,79.2969 Q607.8438,79.1406 608.2656,78.7031 Q608.5313,78.4375 608.6719,78.3594 Q608.8281,78.2813 609.0313,78.2813 Q609.3594,78.2813 609.6094,78.5469 Q609.875,78.7969 609.875,79.1406 Q609.875,79.4844 609.5313,79.8906 Q609.0313,80.4688 608.2344,80.7969 Q607.1563,81.25 605.8594,81.25 Q604.3438,81.25 603.1406,80.625 Q602.1563,80.125 601.4688,79.0625 Q600.7813,77.9844 600.7813,76.7031 L600.7813,75.5469 Q600.7813,74.2188 601.3906,73.0781 Q602.0156,71.9219 603.1094,71.3125 Q604.2031,70.6875 605.4375,70.6875 Q606.1719,70.6875 606.8125,70.8594 Q607.4688,71.0156 608.0156,71.375 Z " fill="#000000"/><text fill="#000000" font-family="sans-serif" font-size="14" lengthAdjust="spacing" textLength="121" x="625.75" y="81.2285">ContentNegotiation</text><line style="stroke:#181818;stroke-width:0.5;" x1="478.5" x2="861.5" y1="91.5" y2="91.5"/><line style="stroke:#181818;stroke-width:0.5;" x1="478.5" x2="861.5" y1="99.5" y2="99.5"/><ellipse cx="488.5" cy="113.8047" fill="#84BE84" rx="3" ry="3" style="stroke:#038048;stroke-width:1.0;"/><text fill="#000000" font-family="sans-serif" font-size="14" lengthAdjust="spacing" textLength="359" x="497.5" y="118.0332">handle(req: Request, res: Response, next: NextFunction)</text></g><!--class Logger--><g id="elem_Logger"><rect codeLine="38" fill="#F1F1F1" height="100.8281" id="Logger" rx="2.5" ry="2.5" style="stroke:#181818;stroke-width:0.5;" width="170" x="1334" y="42"/><ellipse cx="1392.25" cy="58" fill="#ADD1B2" rx="11" ry="11" style="stroke:#181818;stroke-width:1.0;"/><path d="M1395.0156,53.875 Q1395.1719,53.6563 1395.3594,53.5469 Q1395.5469,53.4375 1395.7656,53.4375 Q1396.1406,53.4375 1396.375,53.7031 Q1396.6094,53.9531 1396.6094,54.5625 L1396.6094,56.0156 Q1396.6094,56.625 1396.375,56.8906 Q1396.1406,57.1563 1395.7656,57.1563 Q1395.4219,57.1563 1395.2188,56.9531 Q1395.0156,56.7656 1394.9063,56.25 Q1394.8594,55.8906 1394.6719,55.7031 Q1394.3438,55.3281 1393.7344,55.1094 Q1393.125,54.8906 1392.5,54.8906 Q1391.7344,54.8906 1391.0938,55.2188 Q1390.4688,55.5469 1389.9688,56.2969 Q1389.4844,57.0469 1389.4844,58.0781 L1389.4844,59.1719 Q1389.4844,60.4063 1390.375,61.2344 Q1391.2656,62.0469 1392.8594,62.0469 Q1393.7969,62.0469 1394.4531,61.7969 Q1394.8438,61.6406 1395.2656,61.2031 Q1395.5313,60.9375 1395.6719,60.8594 Q1395.8281,60.7813 1396.0313,60.7813 Q1396.3594,60.7813 1396.6094,61.0469 Q1396.875,61.2969 1396.875,61.6406 Q1396.875,61.9844 1396.5313,62.3906 Q1396.0313,62.9688 1395.2344,63.2969 Q1394.1563,63.75 1392.8594,63.75 Q1391.3438,63.75 1390.1406,63.125 Q1389.1563,62.625 1388.4688,61.5625 Q1387.7813,60.4844 1387.7813,59.2031 L1387.7813,58.0469 Q1387.7813,56.7188 1388.3906,55.5781 Q1389.0156,54.4219 1390.1094,53.8125 Q1391.2031,53.1875 1392.4375,53.1875 Q1393.1719,53.1875 1393.8125,53.3594 Q1394.4688,53.5156 1395.0156,53.875 Z " fill="#000000"/><text fill="#000000" font-family="sans-serif" font-size="14" lengthAdjust="spacing" textLength="45" x="1412.75" y="63.7285">Logger</text><line style="stroke:#181818;stroke-width:0.5;" x1="1335" x2="1503" y1="74" y2="74"/><line style="stroke:#181818;stroke-width:0.5;" x1="1335" x2="1503" y1="82" y2="82"/><ellipse cx="1345" cy="96.3047" fill="#84BE84" rx="3" ry="3" style="stroke:#038048;stroke-width:1.0;"/><text fill="#000000" font-family="sans-serif" font-size="14" lengthAdjust="spacing" textLength="136" x="1354" y="100.5332">info(message: object)</text><ellipse cx="1345" cy="113.9141" fill="#84BE84" rx="3" ry="3" style="stroke:#038048;stroke-width:1.0;"/><text fill="#000000" font-family="sans-serif" font-size="14" lengthAdjust="spacing" textLength="144" x="1354" y="118.1426">error(message: object)</text><ellipse cx="1345" cy="131.5234" fill="#84BE84" rx="3" ry="3" style="stroke:#038048;stroke-width:1.0;"/><text fill="#000000" font-family="sans-serif" font-size="14" lengthAdjust="spacing" textLength="143" x="1354" y="135.752">warn(message: object)</text></g><!--class Metrics--><g id="elem_Metrics"><rect codeLine="44" fill="#F1F1F1" height="100.8281" id="Metrics" rx="2.5" ry="2.5" style="stroke:#181818;stroke-width:0.5;" width="401" x="897.5" y="42"/><ellipse cx="1071.25" cy="58" fill="#ADD1B2" rx="11" ry="11" style="stroke:#181818;stroke-width:1.0;"/><path d="M1074.0156,53.875 Q1074.1719,53.6563 1074.3594,53.5469 Q1074.5469,53.4375 1074.7656,53.4375 Q1075.1406,53.4375 1075.375,53.7031 Q1075.6094,53.9531 1075.6094,54.5625 L1075.6094,56.0156 Q1075.6094,56.625 1075.375,56.8906 Q1075.1406,57.1563 1074.7656,57.1563 Q1074.4219,57.1563 1074.2188,56.9531 Q1074.0156,56.7656 1073.9063,56.25 Q1073.8594,55.8906 1073.6719,55.7031 Q1073.3438,55.3281 1072.7344,55.1094 Q1072.125,54.8906 1071.5,54.8906 Q1070.7344,54.8906 1070.0938,55.2188 Q1069.4688,55.5469 1068.9688,56.2969 Q1068.4844,57.0469 1068.4844,58.0781 L1068.4844,59.1719 Q1068.4844,60.4063 1069.375,61.2344 Q1070.2656,62.0469 1071.8594,62.0469 Q1072.7969,62.0469 1073.4531,61.7969 Q1073.8438,61.6406 1074.2656,61.2031 Q1074.5313,60.9375 1074.6719,60.8594 Q1074.8281,60.7813 1075.0313,60.7813 Q1075.3594,60.7813 1075.6094,61.0469 Q1075.875,61.2969 1075.875,61.6406 Q1075.875,61.9844 1075.5313,62.3906 Q1075.0313,62.9688 1074.2344,63.2969 Q1073.1563,63.75 1071.8594,63.75 Q1070.3438,63.75 1069.1406,63.125 Q1068.1563,62.625 1067.4688,61.5625 Q1066.7813,60.4844 1066.7813,59.2031 L1066.7813,58.0469 Q1066.7813,56.7188 1067.3906,55.5781 Q1068.0156,54.4219 1069.1094,53.8125 Q1070.2031,53.1875 1071.4375,53.1875 Q1072.1719,53.1875 1072.8125,53.3594 Q1073.4688,53.5156 1074.0156,53.875 Z " fill="#000000"/><text fill="#000000" font-family="sans-serif" font-size="14" lengthAdjust="spacing" textLength="45" x="1091.75" y="63.7285">Metrics</text><line style="stroke:#181818;stroke-width:0.5;" x1="898.5" x2="1297.5" y1="74" y2="74"/><line style="stroke:#181818;stroke-width:0.5;" x1="898.5" x2="1297.5" y1="82" y2="82"/><ellipse cx="908.5" cy="96.3047" fill="#84BE84" rx="3" ry="3" style="stroke:#038048;stroke-width:1.0;"/><text fill="#000000" font-family="sans-serif" font-size="14" lengthAdjust="spacing" textLength="263" x="917.5" y="100.5332">recordProductRequest(success: boolean)</text><ellipse cx="908.5" cy="113.9141" fill="#84BE84" rx="3" ry="3" style="stroke:#038048;stroke-width:1.0;"/><text fill="#000000" font-family="sans-serif" font-size="14" lengthAdjust="spacing" textLength="272" x="917.5" y="118.1426">recordCategoryRequest(success: boolean)</text><ellipse cx="908.5" cy="131.5234" fill="#84BE84" rx="3" ry="3" style="stroke:#038048;stroke-width:1.0;"/><text fill="#000000" font-family="sans-serif" font-size="14" lengthAdjust="spacing" textLength="375" x="917.5" y="135.752">recordRequest(method: string, path: string, status: number)</text></g><!--class StaticTokenAuth--><g id="elem_StaticTokenAuth"><rect codeLine="50" fill="#F1F1F1" height="65.6094" id="StaticTokenAuth" rx="2.5" ry="2.5" style="stroke:#181818;stroke-width:0.5;" width="420" x="22" y="59.5"/><ellipse cx="175.75" cy="75.5" fill="#ADD1B2" rx="11" ry="11" style="stroke:#181818;stroke-width:1.0;"/><path d="M178.5156,71.375 Q178.6719,71.1563 178.8594,71.0469 Q179.0469,70.9375 179.2656,70.9375 Q179.6406,70.9375 179.875,71.2031 Q180.1094,71.4531 180.1094,72.0625 L180.1094,73.5156 Q180.1094,74.125 179.875,74.3906 Q179.6406,74.6563 179.2656,74.6563 Q178.9219,74.6563 178.7188,74.4531 Q178.5156,74.2656 178.4063,73.75 Q178.3594,73.3906 178.1719,73.2031 Q177.8438,72.8281 177.2344,72.6094 Q176.625,72.3906 176,72.3906 Q175.2344,72.3906 174.5938,72.7188 Q173.9688,73.0469 173.4688,73.7969 Q172.9844,74.5469 172.9844,75.5781 L172.9844,76.6719 Q172.9844,77.9063 173.875,78.7344 Q174.7656,79.5469 176.3594,79.5469 Q177.2969,79.5469 177.9531,79.2969 Q178.3438,79.1406 178.7656,78.7031 Q179.0313,78.4375 179.1719,78.3594 Q179.3281,78.2813 179.5313,78.2813 Q179.8594,78.2813 180.1094,78.5469 Q180.375,78.7969 180.375,79.1406 Q180.375,79.4844 180.0313,79.8906 Q179.5313,80.4688 178.7344,80.7969 Q177.6563,81.25 176.3594,81.25 Q174.8438,81.25 173.6406,80.625 Q172.6563,80.125 171.9688,79.0625 Q171.2813,77.9844 171.2813,76.7031 L171.2813,75.5469 Q171.2813,74.2188 171.8906,73.0781 Q172.5156,71.9219 173.6094,71.3125 Q174.7031,70.6875 175.9375,70.6875 Q176.6719,70.6875 177.3125,70.8594 Q177.9688,71.0156 178.5156,71.375 Z " fill="#000000"/><text fill="#000000" font-family="sans-serif" font-size="14" lengthAdjust="spacing" textLength="104" x="196.25" y="81.2285">StaticTokenAuth</text><line style="stroke:#181818;stroke-width:0.5;" x1="23" x2="441" y1="91.5" y2="91.5"/><line style="stroke:#181818;stroke-width:0.5;" x1="23" x2="441" y1="99.5" y2="99.5"/><ellipse cx="33" cy="113.8047" fill="#84BE84" rx="3" ry="3" style="stroke:#038048;stroke-width:1.0;"/><text fill="#000000" font-family="sans-serif" font-size="14" lengthAdjust="spacing" textLength="394" x="42" y="118.0332">authenticate(req: Request, res: Response, next: NextFunction)</text></g><!--class RedisClient--><g id="elem_RedisClient"><rect codeLine="54" fill="#F1F1F1" height="100.8281" id="RedisClient" rx="2.5" ry="2.5" style="stroke:#181818;stroke-width:0.5;" width="381" x="1539.5" y="42"/><ellipse cx="1689.75" cy="58" fill="#ADD1B2" rx="11" ry="11" style="stroke:#181818;stroke-width:1.0;"/><path d="M1692.5156,53.875 Q1692.6719,53.6563 1692.8594,53.5469 Q1693.0469,53.4375 1693.2656,53.4375 Q1693.6406,53.4375 1693.875,53.7031 Q1694.1094,53.9531 1694.1094,54.5625 L1694.1094,56.0156 Q1694.1094,56.625 1693.875,56.8906 Q1693.6406,57.1563 1693.2656,57.1563 Q1692.9219,57.1563 1692.7188,56.9531 Q1692.5156,56.7656 1692.4063,56.25 Q1692.3594,55.8906 1692.1719,55.7031 Q1691.8438,55.3281 1691.2344,55.1094 Q1690.625,54.8906 1690,54.8906 Q1689.2344,54.8906 1688.5938,55.2188 Q1687.9688,55.5469 1687.4688,56.2969 Q1686.9844,57.0469 1686.9844,58.0781 L1686.9844,59.1719 Q1686.9844,60.4063 1687.875,61.2344 Q1688.7656,62.0469 1690.3594,62.0469 Q1691.2969,62.0469 1691.9531,61.7969 Q1692.3438,61.6406 1692.7656,61.2031 Q1693.0313,60.9375 1693.1719,60.8594 Q1693.3281,60.7813 1693.5313,60.7813 Q1693.8594,60.7813 1694.1094,61.0469 Q1694.375,61.2969 1694.375,61.6406 Q1694.375,61.9844 1694.0313,62.3906 Q1693.5313,62.9688 1692.7344,63.2969 Q1691.6563,63.75 1690.3594,63.75 Q1688.8438,63.75 1687.6406,63.125 Q1686.6563,62.625 1685.9688,61.5625 Q1685.2813,60.4844 1685.2813,59.2031 L1685.2813,58.0469 Q1685.2813,56.7188 1685.8906,55.5781 Q1686.5156,54.4219 1687.6094,53.8125 Q1688.7031,53.1875 1689.9375,53.1875 Q1690.6719,53.1875 1691.3125,53.3594 Q1691.9688,53.5156 1692.5156,53.875 Z " fill="#000000"/><text fill="#000000" font-family="sans-serif" font-size="14" lengthAdjust="spacing" textLength="72" x="1710.25" y="63.7285">RedisClient</text><line style="stroke:#181818;stroke-width:0.5;" x1="1540.5" x2="1919.5" y1="74" y2="74"/><line style="stroke:#181818;stroke-width:0.5;" x1="1540.5" x2="1919.5" y1="82" y2="82"/><ellipse cx="1550.5" cy="96.3047" fill="#84BE84" rx="3" ry="3" style="stroke:#038048;stroke-width:1.0;"/><text fill="#000000" font-family="sans-serif" font-size="14" lengthAdjust="spacing" textLength="238" x="1559.5" y="100.5332">get(key: string): Promise&lt;string | null&gt;</text><ellipse cx="1550.5" cy="113.9141" fill="#84BE84" rx="3" ry="3" style="stroke:#038048;stroke-width:1.0;"/><text fill="#000000" font-family="sans-serif" font-size="14" lengthAdjust="spacing" textLength="355" x="1559.5" y="118.1426">set(key: string, value: string, ttl: number): Promise&lt;void&gt;</text><ellipse cx="1550.5" cy="131.5234" fill="#84BE84" rx="3" ry="3" style="stroke:#038048;stroke-width:1.0;"/><text fill="#000000" font-family="sans-serif" font-size="14" lengthAdjust="spacing" textLength="195" x="1559.5" y="135.752">del(key: string): Promise&lt;void&gt;</text></g><!--class ProductsRouter--><g id="elem_ProductsRouter"><rect codeLine="62" fill="#F1F1F1" height="100.8281" id="ProductsRouter" rx="2.5" ry="2.5" style="stroke:#181818;stroke-width:0.5;" width="293" x="638.5" y="253.5"/><ellipse cx="731.25" cy="269.5" fill="#ADD1B2" rx="11" ry="11" style="stroke:#181818;stroke-width:1.0;"/><path d="M734.0156,265.375 Q734.1719,265.1563 734.3594,265.0469 Q734.5469,264.9375 734.7656,264.9375 Q735.1406,264.9375 735.375,265.2031 Q735.6094,265.4531 735.6094,266.0625 L735.6094,267.5156 Q735.6094,268.125 735.375,268.3906 Q735.1406,268.6563 734.7656,268.6563 Q734.4219,268.6563 734.2188,268.4531 Q734.0156,268.2656 733.9063,267.75 Q733.8594,267.3906 733.6719,267.2031 Q733.3438,266.8281 732.7344,266.6094 Q732.125,266.3906 731.5,266.3906 Q730.7344,266.3906 730.0938,266.7188 Q729.4688,267.0469 728.9688,267.7969 Q728.4844,268.5469 728.4844,269.5781 L728.4844,270.6719 Q728.4844,271.9063 729.375,272.7344 Q730.2656,273.5469 731.8594,273.5469 Q732.7969,273.5469 733.4531,273.2969 Q733.8438,273.1406 734.2656,272.7031 Q734.5313,272.4375 734.6719,272.3594 Q734.8281,272.2813 735.0313,272.2813 Q735.3594,272.2813 735.6094,272.5469 Q735.875,272.7969 735.875,273.1406 Q735.875,273.4844 735.5313,273.8906 Q735.0313,274.4688 734.2344,274.7969 Q733.1563,275.25 731.8594,275.25 Q730.3438,275.25 729.1406,274.625 Q728.1563,274.125 727.4688,273.0625 Q726.7813,271.9844 726.7813,270.7031 L726.7813,269.5469 Q726.7813,268.2188 727.3906,267.0781 Q728.0156,265.9219 729.1094,265.3125 Q730.2031,264.6875 731.4375,264.6875 Q732.1719,264.6875 732.8125,264.8594 Q733.4688,265.0156 734.0156,265.375 Z " fill="#000000"/><text fill="#000000" font-family="sans-serif" font-size="14" lengthAdjust="spacing" textLength="99" x="751.75" y="275.2285">ProductsRouter</text><line style="stroke:#181818;stroke-width:0.5;" x1="639.5" x2="930.5" y1="285.5" y2="285.5"/><ellipse cx="649.5" cy="299.8047" fill="none" rx="3" ry="3" style="stroke:#038048;stroke-width:1.0;"/><text fill="#000000" font-family="sans-serif" font-size="14" lengthAdjust="spacing" textLength="134" x="658.5" y="304.0332">GET /api/v1/products</text><ellipse cx="649.5" cy="317.4141" fill="none" rx="3" ry="3" style="stroke:#038048;stroke-width:1.0;"/><text fill="#000000" font-family="sans-serif" font-size="14" lengthAdjust="spacing" textLength="153" x="658.5" y="321.6426">GET /api/v1/products/:id</text><ellipse cx="649.5" cy="335.0234" fill="none" rx="3" ry="3" style="stroke:#038048;stroke-width:1.0;"/><text fill="#000000" font-family="sans-serif" font-size="14" lengthAdjust="spacing" textLength="267" x="658.5" y="339.252">GET /api/v1/products/category/:categoryId</text><line style="stroke:#181818;stroke-width:0.5;" x1="639.5" x2="930.5" y1="346.3281" y2="346.3281"/></g><!--class CategoriesRouter--><g id="elem_CategoriesRouter"><rect codeLine="68" fill="#F1F1F1" height="118.4375" id="CategoriesRouter" rx="2.5" ry="2.5" style="stroke:#181818;stroke-width:0.5;" width="290" x="313" y="245"/><ellipse cx="397.75" cy="261" fill="#ADD1B2" rx="11" ry="11" style="stroke:#181818;stroke-width:1.0;"/><path d="M400.5156,256.875 Q400.6719,256.6563 400.8594,256.5469 Q401.0469,256.4375 401.2656,256.4375 Q401.6406,256.4375 401.875,256.7031 Q402.1094,256.9531 402.1094,257.5625 L402.1094,259.0156 Q402.1094,259.625 401.875,259.8906 Q401.6406,260.1563 401.2656,260.1563 Q400.9219,260.1563 400.7188,259.9531 Q400.5156,259.7656 400.4063,259.25 Q400.3594,258.8906 400.1719,258.7031 Q399.8438,258.3281 399.2344,258.1094 Q398.625,257.8906 398,257.8906 Q397.2344,257.8906 396.5938,258.2188 Q395.9688,258.5469 395.4688,259.2969 Q394.9844,260.0469 394.9844,261.0781 L394.9844,262.1719 Q394.9844,263.4063 395.875,264.2344 Q396.7656,265.0469 398.3594,265.0469 Q399.2969,265.0469 399.9531,264.7969 Q400.3438,264.6406 400.7656,264.2031 Q401.0313,263.9375 401.1719,263.8594 Q401.3281,263.7813 401.5313,263.7813 Q401.8594,263.7813 402.1094,264.0469 Q402.375,264.2969 402.375,264.6406 Q402.375,264.9844 402.0313,265.3906 Q401.5313,265.9688 400.7344,266.2969 Q399.6563,266.75 398.3594,266.75 Q396.8438,266.75 395.6406,266.125 Q394.6563,265.625 393.9688,264.5625 Q393.2813,263.4844 393.2813,262.2031 L393.2813,261.0469 Q393.2813,259.7188 393.8906,258.5781 Q394.5156,257.4219 395.6094,256.8125 Q396.7031,256.1875 397.9375,256.1875 Q398.6719,256.1875 399.3125,256.3594 Q399.9688,256.5156 400.5156,256.875 Z " fill="#000000"/><text fill="#000000" font-family="sans-serif" font-size="14" lengthAdjust="spacing" textLength="112" x="418.25" y="266.7285">CategoriesRouter</text><line style="stroke:#181818;stroke-width:0.5;" x1="314" x2="602" y1="277" y2="277"/><ellipse cx="324" cy="291.3047" fill="none" rx="3" ry="3" style="stroke:#038048;stroke-width:1.0;"/><text fill="#000000" font-family="sans-serif" font-size="14" lengthAdjust="spacing" textLength="145" x="333" y="295.5332">GET /api/v1/categories</text><ellipse cx="324" cy="308.9141" fill="none" rx="3" ry="3" style="stroke:#038048;stroke-width:1.0;"/><text fill="#000000" font-family="sans-serif" font-size="14" lengthAdjust="spacing" textLength="164" x="333" y="313.1426">GET /api/v1/categories/:id</text><ellipse cx="324" cy="326.5234" fill="none" rx="3" ry="3" style="stroke:#038048;stroke-width:1.0;"/><text fill="#000000" font-family="sans-serif" font-size="14" lengthAdjust="spacing" textLength="264" x="333" y="330.752">GET /api/v1/categories/product/:productId</text><ellipse cx="324" cy="344.1328" fill="none" rx="3" ry="3" style="stroke:#038048;stroke-width:1.0;"/><text fill="#000000" font-family="sans-serif" font-size="14" lengthAdjust="spacing" textLength="154" x="333" y="348.3613">POST /api/v1/categories</text><line style="stroke:#181818;stroke-width:0.5;" x1="314" x2="602" y1="355.4375" y2="355.4375"/></g><!--link ProductsController to Product--><g id="link_ProductsController_Product"><path codeLine="77" d="M1297.64,583.06 C1267.03,600.1 1234.86,619.88 1207,641 C1189.92,653.94 1177.1387,665.4336 1162.0887,680.6536 " fill="none" id="ProductsController-to-Product" style="stroke:#181818;stroke-width:1.0;"/><polygon fill="#181818" points="1157.87,684.92,1167.0424,681.3329,1161.3856,681.3647,1161.3539,675.7079,1157.87,684.92" style="stroke:#181818;stroke-width:1.0;"/><text fill="#000000" font-family="sans-serif" font-size="13" lengthAdjust="spacing" textLength="53" x="1239" y="629.4951">manages</text></g><!--link ProductsController to Category--><g id="link_ProductsController_Category"><path codeLine="78" d="M1395.17,583.22 C1372.55,641.94 1332.77,733.59 1282,803 C1261.25,831.36 1238.1867,854.7063 1213.3867,876.7263 " fill="none" id="ProductsController-to-Category" style="stroke:#181818;stroke-width:1.0;"/><polygon fill="#181818" points="1208.9,880.71,1218.2858,877.7255,1212.6389,877.3902,1212.9742,871.7433,1208.9,880.71" style="stroke:#181818;stroke-width:1.0;"/><text fill="#000000" font-family="sans-serif" font-size="13" lengthAdjust="spacing" textLength="53" x="1372" y="749.4951">manages</text></g><!--link CategoriesController to Category--><g id="link_CategoriesController_Category"><path codeLine="79" d="M1153.86,583.3 C1171.33,599.76 1187.34,619.2 1197,641 C1234.84,726.35 1220.43,762.07 1192,851 C1188.81,860.97 1187.0611,865.7635 1182.0811,875.2835 " fill="none" id="CategoriesController-to-Category" style="stroke:#181818;stroke-width:1.0;"/><polygon fill="#181818" points="1179.3,880.6,1187.016,874.4793,1181.6176,876.1696,1179.9273,870.7711,1179.3,880.6" style="stroke:#181818;stroke-width:1.0;"/><text fill="#000000" font-family="sans-serif" font-size="13" lengthAdjust="spacing" textLength="53" x="1220" y="749.4951">manages</text></g><!--link CategoriesController to Product--><g id="link_CategoriesController_Product"><path codeLine="80" d="M1078.87,583.13 C1084.2,614.54 1089.7553,647.2947 1095.0953,678.7347 " fill="none" id="CategoriesController-to-Product" style="stroke:#181818;stroke-width:1.0;"/><polygon fill="#181818" points="1096.1,684.65,1098.5365,675.1073,1095.2628,679.7206,1090.6494,676.4469,1096.1,684.65" style="stroke:#181818;stroke-width:1.0;"/><text fill="#000000" font-family="sans-serif" font-size="13" lengthAdjust="spacing" textLength="53" x="1087" y="629.4951">manages</text></g><!--link ProductsRouter to ProductsController--><g id="link_ProductsRouter_ProductsController"><path codeLine="82" d="M907.65,354.54 C940.78,366.53 976.91,378.37 1011,387 C1110.32,412.15 1142.26,387.28 1239,421 C1270.15,431.86 1296.8538,445.2387 1324.8238,461.7587 " fill="none" id="ProductsRouter-to-ProductsController" style="stroke:#181818;stroke-width:1.0;"/><polygon fill="#181818" points="1329.99,464.81,1324.2749,456.7889,1325.6848,462.2672,1320.2065,463.6771,1329.99,464.81" style="stroke:#181818;stroke-width:1.0;"/><text fill="#000000" font-family="sans-serif" font-size="13" lengthAdjust="spacing" textLength="51" x="1212" y="409.4951">routes to</text></g><!--link CategoriesRouter to CategoriesController--><g id="link_CategoriesRouter_CategoriesController"><path codeLine="83" d="M567.3,363.19 C585.02,371.69 603.35,379.94 621,387 C717.23,425.48 822.9482,457.7665 910.6382,482.0865 " fill="none" id="CategoriesRouter-to-CategoriesController" style="stroke:#181818;stroke-width:1.0;"/><polygon fill="#181818" points="916.42,483.69,908.8164,477.4302,911.6019,482.3537,906.6784,485.1392,916.42,483.69" style="stroke:#181818;stroke-width:1.0;"/><text fill="#000000" font-family="sans-serif" font-size="13" lengthAdjust="spacing" textLength="51" x="681" y="409.4951">routes to</text></g><!--link ContentNegotiation to ProductsRouter--><g id="link_ContentNegotiation_ProductsRouter"><path codeLine="85" d="M687.72,125.78 C706.37,159.75 733.0839,208.4097 754.7339,247.8697 " fill="none" id="ContentNegotiation-to-ProductsRouter" style="stroke:#181818;stroke-width:1.0;"/><polygon fill="#181818" points="757.62,253.13,756.7977,243.3155,755.2149,248.7464,749.784,247.1636,757.62,253.13" style="stroke:#181818;stroke-width:1.0;"/><text fill="#000000" font-family="sans-serif" font-size="13" lengthAdjust="spacing" textLength="60" x="725" y="189.4951">processes</text></g><!--link ContentNegotiation to CategoriesRouter--><g id="link_ContentNegotiation_CategoriesRouter"><path codeLine="86" d="M637.34,125.78 C605.28,157.45 559.9378,202.2627 521.0178,240.7227 " fill="none" id="ContentNegotiation-to-CategoriesRouter" style="stroke:#181818;stroke-width:1.0;"/><polygon fill="#181818" points="516.75,244.94,525.9632,241.4592,520.3065,241.4255,520.3401,235.7688,516.75,244.94" style="stroke:#181818;stroke-width:1.0;"/><text fill="#000000" font-family="sans-serif" font-size="13" lengthAdjust="spacing" textLength="60" x="583" y="189.4951">processes</text></g><!--link Logger to ProductsController--><g id="link_Logger_ProductsController"><path codeLine="88" d="M1418.65,143.19 C1418.09,223.12 1417.0416,373.8901 1416.4516,458.8901 " fill="none" id="Logger-to-ProductsController" style="stroke:#181818;stroke-width:1.0;"/><polygon fill="#181818" points="1416.41,464.89,1420.4724,455.918,1416.4447,459.8901,1412.4726,455.8625,1416.41,464.89" style="stroke:#181818;stroke-width:1.0;"/><text fill="#000000" font-family="sans-serif" font-size="13" lengthAdjust="spacing" textLength="24" x="1419" y="309.4951">logs</text></g><!--link Logger to CategoriesController--><g id="link_Logger_CategoriesController"><path codeLine="89" d="M1357.6,143.01 C1344.42,151.97 1330.18,160.51 1316,167 C1257.77,193.64 1220.56,155.01 1176,201 C1117.22,261.66 1164.78,307.24 1137,387 C1127.8,413.42 1117.3456,435.9658 1104.9856,459.5458 " fill="none" id="Logger-to-CategoriesController" style="stroke:#181818;stroke-width:1.0;"/><polygon fill="#181818" points="1102.2,464.86,1109.9211,458.7457,1104.5213,460.4315,1102.8355,455.0317,1102.2,464.86" style="stroke:#181818;stroke-width:1.0;"/><text fill="#000000" font-family="sans-serif" font-size="13" lengthAdjust="spacing" textLength="24" x="1177" y="309.4951">logs</text></g><!--link Metrics to ProductsController--><g id="link_Metrics_ProductsController"><path codeLine="91" d="M1154.75,143.01 C1173.31,160.47 1193.41,180.8 1210,201 C1280.54,286.91 1344.0199,393.0197 1381.5199,459.7297 " fill="none" id="Metrics-to-ProductsController" style="stroke:#181818;stroke-width:1.0;"/><polygon fill="#181818" points="1384.46,464.96,1383.5367,455.1545,1382.0099,460.6014,1376.563,459.0747,1384.46,464.96" style="stroke:#181818;stroke-width:1.0;"/><text fill="#000000" font-family="sans-serif" font-size="13" lengthAdjust="spacing" textLength="50" x="1338" y="309.4951">monitors</text></g><!--link Metrics to CategoriesController--><g id="link_Metrics_CategoriesController"><path codeLine="92" d="M1088.88,143.12 C1085.89,161.27 1082.85,182.01 1081,201 C1072.04,293.01 1069.703,394.4002 1069.133,458.9802 " fill="none" id="Metrics-to-CategoriesController" style="stroke:#181818;stroke-width:1.0;"/><polygon fill="#181818" points="1069.08,464.98,1073.1593,456.0157,1069.1241,459.9802,1065.1596,455.945,1069.08,464.98" style="stroke:#181818;stroke-width:1.0;"/><text fill="#000000" font-family="sans-serif" font-size="13" lengthAdjust="spacing" textLength="50" x="1082" y="309.4951">monitors</text></g><!--link StaticTokenAuth to ProductsRouter--><g id="link_StaticTokenAuth_ProductsRouter"><path codeLine="94" d="M295.97,125.61 C345.43,148.78 416.33,178.44 482,193 C542.41,206.39 562.01,182.3 621,201 C656.8,212.35 687.7167,229.8895 716.7467,249.8595 " fill="none" id="StaticTokenAuth-to-ProductsRouter" style="stroke:#181818;stroke-width:1.0;"/><polygon fill="#181818" points="721.69,253.26,716.5421,244.8636,717.5706,250.4262,712.008,251.4547,721.69,253.26" style="stroke:#181818;stroke-width:1.0;"/><text fill="#000000" font-family="sans-serif" font-size="13" lengthAdjust="spacing" textLength="78" x="483" y="189.4951">authenticates</text></g><!--link StaticTokenAuth to CategoriesRouter--><g id="link_StaticTokenAuth_CategoriesRouter"><path codeLine="95" d="M256.51,125.93 C272.47,146.15 294.3,172.19 316,193 C334.68,210.91 351.4439,225.0864 371.9639,241.0464 " fill="none" id="StaticTokenAuth-to-CategoriesRouter" style="stroke:#181818;stroke-width:1.0;"/><polygon fill="#181818" points="376.7,244.73,372.0516,236.0471,372.7532,241.6603,367.1401,242.3619,376.7,244.73" style="stroke:#181818;stroke-width:1.0;"/><text fill="#000000" font-family="sans-serif" font-size="13" lengthAdjust="spacing" textLength="78" x="317" y="189.4951">authenticates</text></g><!--link RedisClient to ProductsController--><g id="link_RedisClient_ProductsController"><path codeLine="97" d="M1720.34,143.24 C1706.93,204.15 1678.65,308.86 1630,387 C1610.11,418.95 1584.6954,441.5141 1552.9254,461.6841 " fill="none" id="RedisClient-to-ProductsController" style="stroke:#181818;stroke-width:1.0;"/><polygon fill="#181818" points="1547.86,464.9,1557.602,463.4531,1552.0811,462.2201,1553.3141,456.6993,1547.86,464.9" style="stroke:#181818;stroke-width:1.0;"/><text fill="#000000" font-family="sans-serif" font-size="13" lengthAdjust="spacing" textLength="42" x="1706" y="309.4951">caches</text></g><!--link RedisClient to CategoriesController--><g id="link_RedisClient_CategoriesController"><path codeLine="98" d="M1648.41,143.18 C1624.3,159.91 1598.81,179.76 1578,201 C1508.11,272.31 1536.23,333.38 1452,387 C1411.56,412.74 1284.04,404.59 1239,421 C1208.92,431.96 1183.3697,445.265 1156.5297,461.785 " fill="none" id="RedisClient-to-CategoriesController" style="stroke:#181818;stroke-width:1.0;"/><polygon fill="#181818" points="1151.42,464.93,1161.1812,463.6189,1155.6781,462.3092,1156.9879,456.806,1151.42,464.93" style="stroke:#181818;stroke-width:1.0;"/><text fill="#000000" font-family="sans-serif" font-size="13" lengthAdjust="spacing" textLength="42" x="1579" y="309.4951">caches</text></g><!--link Product to Category--><g id="link_Product_Category"><path codeLine="100" d="M1065.87,803.27 C1059.78,818.84 1057.43,835.62 1064,851 C1068.62,861.83 1071.5849,867.3606 1079.4649,876.4306 " fill="none" id="Product-to-Category" style="stroke:#181818;stroke-width:1.0;"/><polygon fill="#181818" points="1083.4,880.96,1080.5169,871.5426,1080.1208,877.1855,1074.4778,876.7894,1083.4,880.96" style="stroke:#181818;stroke-width:1.0;"/><text fill="#000000" font-family="sans-serif" font-size="13" lengthAdjust="spacing" textLength="60" x="1065" y="847.4951">belongs to</text></g><!--link Category to Product--><g id="link_Category_Product"><path codeLine="101" d="M1139.25,880.72 C1136.6,865.36 1133.44,848.43 1130,833 C1127.83,823.26 1126.7964,818.7926 1124.1764,808.8326 " fill="none" id="Category-to-Product" style="stroke:#181818;stroke-width:1.0;"/><polygon fill="#181818" points="1122.65,803.03,1121.0712,812.7515,1123.922,807.8655,1128.808,810.7163,1122.65,803.03" style="stroke:#181818;stroke-width:1.0;"/><text fill="#000000" font-family="sans-serif" font-size="13" lengthAdjust="spacing" textLength="49" x="1134" y="847.4951">contains</text></g><!--SRC=[hLN1RjGm4BtdAwnUICLMAwuMgjGj1I7HKhMz8GvUPyYQEdPgEmihuD-Pf75YPvrT4EGG9VPxC_F6avUQyKTM0ZcvDRfekBFa7inMS21NoWadm9wG7nd1YqjcBUbX_LfxlIIYe4GrrHfCiAXO1PHOPuGgW-NQOEm4d3C7fJOxIYxxfsxpLnRazZl_aFnP8_KoFdtkis2UsdVYKYjdj9HWMktj_hv-EuAYQafm7f6VfjTlMIaKAYdocXbMOJ5w_HMuIyDNk_T5FcgSYRdQ-TuWcW-FCIlLIppVUIKNKewmgPnnvt29lh3LhYyMmRL_Id6u0QHusg3c3NCiRbLyQjUYA2HyOmRYWMtbWN8t6CG9veHMaSmDKqZB3JnHSWTF3LYt80Pi-sPhhImiY8BlZf8RlBzj56z391hwGPVbf8L2VT5v1TPYWQbJ1cEqEGH0DIgz7wM-1XnqRgFS1hWsHT_oNbXk6yun6YLhhIKmTRf7y6t_SuP7Lk0skl0VtOBKp6t6D-kOQ-o1URn7WE0F-X7KHUCsaHQ62tY4eXs5_t1ITr08Uoa5XfnEVFu8Er_qQUSIbR3m-dc1_CJofJmFA3QcBCYMoGR6L-Vae7aCjzMY2ACK86SIZyXusEzqu-20EtNxyJ2-kteWIrQBvVRLqllWaUqb5SKnYFyybtIqdKDkSwGoFW2F0WvK5u3wGfTqy9o0S_lnVZPrr_0NE2ooCmsx4RND4kv_TdO-_1GfgPZ20ve53d-m4Paquh_5xXUGJKOXG8LaIamtIiJfRE-GWYhYb24hInXicAoFHTkVRsibhOmqOoz_oCbwVvtL8NLfGz1CuHqiyuuv6wtIIZXjR8IS2JbWiwc99ViGkfbDKXADY4bPQ66p6ZZZ6mHFiJCgUhIVc-a8ha5gLOPpifjC7iTeJ2YR_GO0]--></g></svg>