<?xml version="1.0" encoding="us-ascii" standalone="no"?><svg xmlns="http://www.w3.org/2000/svg" xmlns:xlink="http://www.w3.org/1999/xlink" contentStyleType="text/css" height="1052px" preserveAspectRatio="none" style="width:823px;height:1052px;background:#FFFFFF;" version="1.1" viewBox="0 0 823 1052" width="823px" zoomAndPan="magnify"><defs/><g><ellipse cx="327.25" cy="20" fill="#222222" rx="10" ry="10" style="stroke:#222222;stroke-width:1.0;"/><path d="M447.75,40 L447.75,65.5273 L427.75,69.5273 L447.75,73.5273 L447.75,99.0547 A0,0 0 0 0 447.75,99.0547 L794.75,99.0547 A0,0 0 0 0 794.75,99.0547 L794.75,50 L784.75,40 L447.75,40 A0,0 0 0 0 447.75,40 " fill="#FEFFDD" style="stroke:#181818;stroke-width:0.5;"/><path d="M784.75,40 L784.75,50 L794.75,50 L784.75,40 " fill="#FEFFDD" style="stroke:#181818;stroke-width:0.5;"/><text fill="#000000" font-family="sans-serif" font-size="13" lengthAdjust="spacing" textLength="118" x="453.75" y="58.4951">GET /api/v1ventories</text><text fill="#000000" font-family="sans-serif" font-size="13" lengthAdjust="spacing" textLength="204" x="453.75" y="74.8467">ou GET /api/v1/inventories/:store_id</text><text fill="#000000" font-family="sans-serif" font-size="13" lengthAdjust="spacing" textLength="326" x="453.75" y="91.1982">ou GET /api/v1/inventories/:store_id/products/:product_id</text><rect fill="#F1F1F1" height="35.0938" rx="12.5" ry="12.5" style="stroke:#181818;stroke-width:0.5;" width="201" x="226.75" y="51.9805"/><text fill="#000000" font-family="sans-serif" font-size="12" lengthAdjust="spacing" textLength="181" x="236.75" y="74.4375">Client envoie requ&#234;te d'inventaire</text><rect fill="#F1F1F1" height="35.0938" rx="12.5" ry="12.5" style="stroke:#181818;stroke-width:0.5;" width="219" x="217.75" y="119.0547"/><text fill="#000000" font-family="sans-serif" font-size="12" lengthAdjust="spacing" textLength="199" x="227.75" y="141.5117">API Gateway (Kong) re&#231;oit la requ&#234;te</text><rect fill="#F1F1F1" height="35.0938" rx="12.5" ry="12.5" style="stroke:#181818;stroke-width:0.5;" width="199" x="227.75" y="174.1484"/><text fill="#000000" font-family="sans-serif" font-size="12" lengthAdjust="spacing" textLength="179" x="237.75" y="196.6055">Inventory Service traite la requ&#234;te</text><rect fill="#F1F1F1" height="35.0938" rx="12.5" ry="12.5" style="stroke:#181818;stroke-width:0.5;" width="210" x="222.25" y="229.2422"/><text fill="#000000" font-family="sans-serif" font-size="12" lengthAdjust="spacing" textLength="190" x="232.25" y="251.6992">Validation des param&#232;tres dentr&#233;e</text><rect fill="#F1F1F1" height="35.0938" rx="12.5" ry="12.5" style="stroke:#181818;stroke-width:0.5;" width="199" x="227.75" y="333.2539"/><text fill="#000000" font-family="sans-serif" font-size="12" lengthAdjust="spacing" textLength="179" x="237.75" y="355.7109">Retourner erreur 400ad Request</text><ellipse cx="327.25" cy="407.3008" fill="none" rx="11" ry="11" style="stroke:#222222;stroke-width:1.0;"/><ellipse cx="327.25" cy="407.3008" fill="#222222" rx="6" ry="6" style="stroke:#222222;stroke-width:1.0;"/><polygon fill="#F1F1F1" points="284.25,284.3359,370.25,284.3359,382.25,296.3359,370.25,308.3359,284.25,308.3359,272.25,296.3359,284.25,284.3359" style="stroke:#181818;stroke-width:0.5;"/><text fill="#000000" font-family="sans-serif" font-size="11" lengthAdjust="spacing" textLength="18" x="331.25" y="319.7549">non</text><text fill="#000000" font-family="sans-serif" font-size="11" lengthAdjust="spacing" textLength="86" x="284.25" y="300.8369">Store_id pr&#233;sent?</text><text fill="#000000" font-family="sans-serif" font-size="11" lengthAdjust="spacing" textLength="14" x="382.25" y="293.9189">oui</text><rect fill="#F1F1F1" height="35.0938" rx="12.5" ry="12.5" style="stroke:#181818;stroke-width:0.5;" width="262" x="196.25" y="460.3008"/><text fill="#000000" font-family="sans-serif" font-size="12" lengthAdjust="spacing" textLength="242" x="206.25" y="482.7578">Rechercher l'inventaire en base de donn&#233;es</text><polygon fill="#F1F1F1" points="283.75,515.3945,370.75,515.3945,382.75,527.3945,370.75,539.3945,283.75,539.3945,271.75,527.3945,283.75,515.3945" style="stroke:#181818;stroke-width:0.5;"/><text fill="#000000" font-family="sans-serif" font-size="11" lengthAdjust="spacing" textLength="87" x="283.75" y="531.8955">Inventaire trouv&#233;?</text><text fill="#000000" font-family="sans-serif" font-size="11" lengthAdjust="spacing" textLength="14" x="257.75" y="524.9775">oui</text><text fill="#000000" font-family="sans-serif" font-size="11" lengthAdjust="spacing" textLength="18" x="382.75" y="524.9775">non</text><path d="M246,549.3945 L246,574.9219 L226,578.9219 L246,582.9219 L246,608.4492 A0,0 0 0 0 246,608.4492 L388,608.4492 A0,0 0 0 0 388,608.4492 L388,559.3945 L378,549.3945 L246,549.3945 A0,0 0 0 0 246,549.3945 " fill="#FEFFDD" style="stroke:#181818;stroke-width:0.5;"/><path d="M378,549.3945 L378,559.3945 L388,559.3945 L378,549.3945 " fill="#FEFFDD" style="stroke:#181818;stroke-width:0.5;"/><text fill="#000000" font-family="sans-serif" font-size="13" lengthAdjust="spacing" textLength="102" x="252" y="567.8896">- stock disponible</text><text fill="#000000" font-family="sans-serif" font-size="13" lengthAdjust="spacing" textLength="121" x="252" y="584.2412">- informations produit</text><text fill="#000000" font-family="sans-serif" font-size="13" lengthAdjust="spacing" textLength="54" x="252" y="600.5928">- store_id</text><rect fill="#F1F1F1" height="35.0938" rx="12.5" ry="12.5" style="stroke:#181818;stroke-width:0.5;" width="215" x="11" y="561.375"/><text fill="#000000" font-family="sans-serif" font-size="12" lengthAdjust="spacing" textLength="195" x="21" y="583.832">R&#233;cup&#233;rer les donn&#233;es d'inventaire</text><rect fill="#F1F1F1" height="35.0938" rx="12.5" ry="12.5" style="stroke:#181818;stroke-width:0.5;" width="256" x="408" y="549.3945"/><text fill="#000000" font-family="sans-serif" font-size="12" lengthAdjust="spacing" textLength="236" x="418" y="571.8516">Enregistrer requ&#234;te &#233;chou&#233;e (Prometheus)</text><rect fill="#F1F1F1" height="35.0938" rx="12.5" ry="12.5" style="stroke:#181818;stroke-width:0.5;" width="195" x="438.5" y="619.4883"/><text fill="#000000" font-family="sans-serif" font-size="12" lengthAdjust="spacing" textLength="175" x="448.5" y="641.9453">Retourner erreur 404 Not Found</text><ellipse cx="536" cy="685.582" fill="none" rx="11" ry="11" style="stroke:#222222;stroke-width:1.0;"/><ellipse cx="536" cy="685.582" fill="#222222" rx="6" ry="6" style="stroke:#222222;stroke-width:1.0;"/><path d="M444.25,712.7773 L444.25,730.1289 L424.25,734.1289 L444.25,738.1289 L444.25,755.4805 A0,0 0 0 0 444.25,755.4805 L590.25,755.4805 A0,0 0 0 0 590.25,755.4805 L590.25,722.7773 L580.25,712.7773 L444.25,712.7773 A0,0 0 0 0 444.25,712.7773 " fill="#FEFFDD" style="stroke:#181818;stroke-width:0.5;"/><path d="M580.25,712.7773 L580.25,722.7773 L590.25,722.7773 L580.25,712.7773 " fill="#FEFFDD" style="stroke:#181818;stroke-width:0.5;"/><text fill="#000000" font-family="sans-serif" font-size="13" lengthAdjust="spacing" textLength="125" x="450.25" y="731.2725">V&#233;rification des droits</text><text fill="#000000" font-family="sans-serif" font-size="13" lengthAdjust="spacing" textLength="118" x="450.25" y="747.624">d'acc&#232;s &#224; l'inventaire</text><rect fill="#F1F1F1" height="35.0938" rx="12.5" ry="12.5" style="stroke:#181818;stroke-width:0.5;" width="194" x="230.25" y="716.582"/><text fill="#000000" font-family="sans-serif" font-size="12" lengthAdjust="spacing" textLength="174" x="240.25" y="739.0391">V&#233;rifier les permissions dacc&#232;s</text><polygon fill="#F1F1F1" points="287.25,775.4805,367.25,775.4805,379.25,787.4805,367.25,799.4805,287.25,799.4805,275.25,787.4805,287.25,775.4805" style="stroke:#181818;stroke-width:0.5;"/><text fill="#000000" font-family="sans-serif" font-size="11" lengthAdjust="spacing" textLength="80" x="287.25" y="791.9814">Acc&#232;s autoris&#233;?</text><text fill="#000000" font-family="sans-serif" font-size="11" lengthAdjust="spacing" textLength="14" x="261.25" y="785.0635">oui</text><text fill="#000000" font-family="sans-serif" font-size="11" lengthAdjust="spacing" textLength="18" x="379.25" y="785.0635">non</text><rect fill="#F1F1F1" height="35.0938" rx="12.5" ry="12.5" style="stroke:#181818;stroke-width:0.5;" width="208" x="92.25" y="809.4805"/><text fill="#000000" font-family="sans-serif" font-size="12" lengthAdjust="spacing" textLength="188" x="102.25" y="831.9375">Formater les donn&#233;es de r&#233;ponse</text><rect fill="#F1F1F1" height="35.0938" rx="12.5" ry="12.5" style="stroke:#181818;stroke-width:0.5;" width="250" x="71.25" y="864.5742"/><text fill="#000000" font-family="sans-serif" font-size="12" lengthAdjust="spacing" textLength="230" x="81.25" y="887.0313">Enregistrer requ&#234;te r&#233;ussie (Prometheus)</text><rect fill="#F1F1F1" height="35.0938" rx="12.5" ry="12.5" style="stroke:#181818;stroke-width:0.5;" width="162" x="115.25" y="934.668"/><text fill="#000000" font-family="sans-serif" font-size="12" lengthAdjust="spacing" textLength="142" x="125.25" y="957.125">Retourner r&#233;ponse200OK</text><rect fill="#F1F1F1" height="35.0938" rx="12.5" ry="12.5" style="stroke:#181818;stroke-width:0.5;" width="234" x="341.25" y="809.4805"/><text fill="#000000" font-family="sans-serif" font-size="12" lengthAdjust="spacing" textLength="214" x="351.25" y="831.9375">Enregistrer acc&#232;s refus&#233; (Prometheus)</text><path d="M575.25,864.5742 L575.25,890.1016 L555.25,894.1016 L575.25,898.1016 L575.25,923.6289 A0,0 0 0 0 575.25,923.6289 L811.25,923.6289 A0,0 0 0 0 811.25,923.6289 L811.25,874.5742 L801.25,864.5742 L575.25,864.5742 A0,0 0 0 0 575.25,864.5742 " fill="#FEFFDD" style="stroke:#181818;stroke-width:0.5;"/><path d="M801.25,864.5742 L801.25,874.5742 L811.25,874.5742 L801.25,864.5742 " fill="#FEFFDD" style="stroke:#181818;stroke-width:0.5;"/><text fill="#000000" font-family="sans-serif" font-size="13" lengthAdjust="spacing" textLength="215" x="581.25" y="883.0693">[object Object]error":Access denied",</text><text fill="#000000" font-family="sans-serif" font-size="13" lengthAdjust="spacing" textLength="206" x="581.25" y="899.4209">message": "Insufficient permissions</text><text fill="#000000" font-family="sans-serif" font-size="13" lengthAdjust="spacing" textLength="4" x="581.25" y="915.7725">}</text><rect fill="#F1F1F1" height="35.0938" rx="12.5" ry="12.5" style="stroke:#181818;stroke-width:0.5;" width="194" x="361.25" y="876.5547"/><text fill="#000000" font-family="sans-serif" font-size="12" lengthAdjust="spacing" textLength="174" x="371.25" y="899.0117">Retourner erreur 403 Forbidden</text><polygon fill="#F1F1F1" points="327.25,975.7617,339.25,987.7617,327.25,999.7617,315.25,987.7617,327.25,975.7617" style="stroke:#181818;stroke-width:0.5;"/><ellipse cx="327.25" cy="1030.7617" fill="none" rx="11" ry="11" style="stroke:#222222;stroke-width:1.0;"/><ellipse cx="327.25" cy="1030.7617" fill="#222222" rx="6" ry="6" style="stroke:#222222;stroke-width:1.0;"/><line style="stroke:#181818;stroke-width:1.0;" x1="327.25" x2="327.25" y1="30" y2="51.9805"/><polygon fill="#181818" points="323.25,41.9805,327.25,51.9805,331.25,41.9805,327.25,45.9805" style="stroke:#181818;stroke-width:1.0;"/><line style="stroke:#181818;stroke-width:1.0;" x1="327.25" x2="327.25" y1="87.0742" y2="119.0547"/><polygon fill="#181818" points="323.25,109.0547,327.25,119.0547,331.25,109.0547,327.25,113.0547" style="stroke:#181818;stroke-width:1.0;"/><line style="stroke:#181818;stroke-width:1.0;" x1="327.25" x2="327.25" y1="154.1484" y2="174.1484"/><polygon fill="#181818" points="323.25,164.1484,327.25,174.1484,331.25,164.1484,327.25,168.1484" style="stroke:#181818;stroke-width:1.0;"/><line style="stroke:#181818;stroke-width:1.0;" x1="327.25" x2="327.25" y1="209.2422" y2="229.2422"/><polygon fill="#181818" points="323.25,219.2422,327.25,229.2422,331.25,219.2422,327.25,223.2422" style="stroke:#181818;stroke-width:1.0;"/><line style="stroke:#181818;stroke-width:1.0;" x1="327.25" x2="327.25" y1="368.3477" y2="396.3008"/><polygon fill="#181818" points="323.25,386.3008,327.25,396.3008,331.25,386.3008,327.25,390.3008" style="stroke:#181818;stroke-width:1.0;"/><line style="stroke:#181818;stroke-width:1.0;" x1="327.25" x2="327.25" y1="308.3359" y2="333.2539"/><polygon fill="#181818" points="323.25,323.2539,327.25,333.2539,331.25,323.2539,327.25,327.2539" style="stroke:#181818;stroke-width:1.0;"/><line style="stroke:#181818;stroke-width:1.0;" x1="382.25" x2="436.75" y1="296.3359" y2="296.3359"/><polygon fill="#181818" points="432.75,366.3008,436.75,376.3008,440.75,366.3008,436.75,370.3008" style="stroke:#181818;stroke-width:1.0;"/><line style="stroke:#181818;stroke-width:1.0;" x1="436.75" x2="436.75" y1="296.3359" y2="440.3008"/><line style="stroke:#181818;stroke-width:1.0;" x1="436.75" x2="327.25" y1="440.3008" y2="440.3008"/><line style="stroke:#181818;stroke-width:1.0;" x1="327.25" x2="327.25" y1="440.3008" y2="460.3008"/><polygon fill="#181818" points="323.25,450.3008,327.25,460.3008,331.25,450.3008,327.25,454.3008" style="stroke:#181818;stroke-width:1.0;"/><line style="stroke:#181818;stroke-width:1.0;" x1="327.25" x2="327.25" y1="264.3359" y2="284.3359"/><polygon fill="#181818" points="323.25,274.3359,327.25,284.3359,331.25,274.3359,327.25,278.3359" style="stroke:#181818;stroke-width:1.0;"/><line style="stroke:#181818;stroke-width:1.0;" x1="536" x2="536" y1="584.4883" y2="619.4883"/><polygon fill="#181818" points="532,609.4883,536,619.4883,540,609.4883,536,613.4883" style="stroke:#181818;stroke-width:1.0;"/><line style="stroke:#181818;stroke-width:1.0;" x1="536" x2="536" y1="654.582" y2="674.582"/><polygon fill="#181818" points="532,664.582,536,674.582,540,664.582,536,668.582" style="stroke:#181818;stroke-width:1.0;"/><line style="stroke:#181818;stroke-width:1.0;" x1="271.75" x2="118.5" y1="527.3945" y2="527.3945"/><line style="stroke:#181818;stroke-width:1.0;" x1="118.5" x2="118.5" y1="527.3945" y2="561.375"/><polygon fill="#181818" points="114.5,551.375,118.5,561.375,122.5,551.375,118.5,555.375" style="stroke:#181818;stroke-width:1.0;"/><line style="stroke:#181818;stroke-width:1.0;" x1="382.75" x2="536" y1="527.3945" y2="527.3945"/><line style="stroke:#181818;stroke-width:1.0;" x1="536" x2="536" y1="527.3945" y2="549.3945"/><polygon fill="#181818" points="532,539.3945,536,549.3945,540,539.3945,536,543.3945" style="stroke:#181818;stroke-width:1.0;"/><line style="stroke:#181818;stroke-width:1.0;" x1="118.5" x2="118.5" y1="596.4688" y2="701.582"/><line style="stroke:#181818;stroke-width:1.0;" x1="118.5" x2="327.25" y1="701.582" y2="701.582"/><line style="stroke:#181818;stroke-width:1.0;" x1="327.25" x2="327.25" y1="701.582" y2="716.582"/><polygon fill="#181818" points="323.25,706.582,327.25,716.582,331.25,706.582,327.25,710.582" style="stroke:#181818;stroke-width:1.0;"/><line style="stroke:#181818;stroke-width:1.0;" x1="327.25" x2="327.25" y1="495.3945" y2="515.3945"/><polygon fill="#181818" points="323.25,505.3945,327.25,515.3945,331.25,505.3945,327.25,509.3945" style="stroke:#181818;stroke-width:1.0;"/><line style="stroke:#181818;stroke-width:1.0;" x1="196.25" x2="196.25" y1="844.5742" y2="864.5742"/><polygon fill="#181818" points="192.25,854.5742,196.25,864.5742,200.25,854.5742,196.25,858.5742" style="stroke:#181818;stroke-width:1.0;"/><line style="stroke:#181818;stroke-width:1.0;" x1="196.25" x2="196.25" y1="899.668" y2="934.668"/><polygon fill="#181818" points="192.25,924.668,196.25,934.668,200.25,924.668,196.25,928.668" style="stroke:#181818;stroke-width:1.0;"/><line style="stroke:#181818;stroke-width:1.0;" x1="458.25" x2="458.25" y1="844.5742" y2="876.5547"/><polygon fill="#181818" points="454.25,866.5547,458.25,876.5547,462.25,866.5547,458.25,870.5547" style="stroke:#181818;stroke-width:1.0;"/><line style="stroke:#181818;stroke-width:1.0;" x1="275.25" x2="196.25" y1="787.4805" y2="787.4805"/><line style="stroke:#181818;stroke-width:1.0;" x1="196.25" x2="196.25" y1="787.4805" y2="809.4805"/><polygon fill="#181818" points="192.25,799.4805,196.25,809.4805,200.25,799.4805,196.25,803.4805" style="stroke:#181818;stroke-width:1.0;"/><line style="stroke:#181818;stroke-width:1.0;" x1="379.25" x2="458.25" y1="787.4805" y2="787.4805"/><line style="stroke:#181818;stroke-width:1.0;" x1="458.25" x2="458.25" y1="787.4805" y2="809.4805"/><polygon fill="#181818" points="454.25,799.4805,458.25,809.4805,462.25,799.4805,458.25,803.4805" style="stroke:#181818;stroke-width:1.0;"/><line style="stroke:#181818;stroke-width:1.0;" x1="196.25" x2="196.25" y1="969.7617" y2="987.7617"/><line style="stroke:#181818;stroke-width:1.0;" x1="196.25" x2="315.25" y1="987.7617" y2="987.7617"/><polygon fill="#181818" points="305.25,983.7617,315.25,987.7617,305.25,991.7617,309.25,987.7617" style="stroke:#181818;stroke-width:1.0;"/><line style="stroke:#181818;stroke-width:1.0;" x1="458.25" x2="458.25" y1="911.6484" y2="987.7617"/><line style="stroke:#181818;stroke-width:1.0;" x1="458.25" x2="339.25" y1="987.7617" y2="987.7617"/><polygon fill="#181818" points="349.25,983.7617,339.25,987.7617,349.25,991.7617,345.25,987.7617" style="stroke:#181818;stroke-width:1.0;"/><line style="stroke:#181818;stroke-width:1.0;" x1="327.25" x2="327.25" y1="751.6758" y2="775.4805"/><polygon fill="#181818" points="323.25,765.4805,327.25,775.4805,331.25,765.4805,327.25,769.4805" style="stroke:#181818;stroke-width:1.0;"/><line style="stroke:#181818;stroke-width:1.0;" x1="327.25" x2="327.25" y1="999.7617" y2="1019.7617"/><polygon fill="#181818" points="323.25,1009.7617,327.25,1019.7617,331.25,1009.7617,327.25,1013.7617" style="stroke:#181818;stroke-width:1.0;"/><!--SRC=[ZLJDRXen4Bxp52CkMQHMq3OdE5HHbKGeKXEHAfUgginw5gRTjRTZcog7lajl3NcDVR6EpOQm4AH88AoPpyFtCxlEA_QztlXJIMWye5bPGc3y5Pf7Zw1FoAoaeOXnqZDMIaoBfUy1N9v_WQ6gQRXw5n6M2PsKRTZj33VNKtCuTdB0xwHV2HlMR7N8lPJQKxoBHaCa8gJFRgPmgJp-LlUGNLcp60Zpvfyb3wNQYfW8SjhEluTRv1Nb29uLYPezt9qgIIjFre161xLYLJKFdkMiPG0tQu5H0Tbjon5ggJbfVHo0NwA1p0OQzB1q29cnPY1QnpFqDh111cJ6m70w6YaDC_bZT7uY495SHsLK28aPvala-8Lonty91-PAvchvM6E4YnFEaStq6UJPXbMpxjA979fr7kfcpN5gbDDEs8iOe1ComDl8BVy9cbnj3SrBRCja2ijLyagCYldGpesddBTfTHqvDumBSZwosIwRC5pQ8AGWks5ReGW8RZ0vuk0fVBOUBcmm-i31Ez591RLIQ-IAd4j4jShpvi7jxNABpv-JronR5FTPdsnkGFEtayRE7iO4pZOW5U8IknVylqXc7PWl79gr6EkIzqUj4L0G1OVETCrvclL-DBg-IktZjhUo68iWV5zb-GUnc-UavL5uOLE-slaFp3rSfvzlSijoVop6e4jF3w7klqd8IYfgWVqnzAV6XKASJs-VdQ0IxazdWJRPffp_0m00]--></g></svg>