<?xml version="1.0" encoding="us-ascii" standalone="no"?><svg xmlns="http://www.w3.org/2000/svg" xmlns:xlink="http://www.w3.org/1999/xlink" contentStyleType="text/css" height="1022px" preserveAspectRatio="none" style="width:1636px;height:1022px;background:#FFFFFF;" version="1.1" viewBox="0 0 1636 1022" width="1636px" zoomAndPan="magnify"><defs/><g><!--cluster Inventory Service Entities--><g id="cluster_Inventory Service Entities"><path d="M556.5,649 L739.5,649 A3.75,3.75 0 0 1 742,651.5 L749,672.6094 L773.5,672.6094 A2.5,2.5 0 0 1 776,675.1094 L776,1012.5 A2.5,2.5 0 0 1 773.5,1015 L556.5,1015 A2.5,2.5 0 0 1 554,1012.5 L554,651.5 A2.5,2.5 0 0 1 556.5,649 " fill="none" style="stroke:#000000;stroke-width:1.5;"/><line style="stroke:#000000;stroke-width:1.5;" x1="554" x2="749" y1="672.6094" y2="672.6094"/><text fill="#000000" font-family="sans-serif" font-size="14" font-weight="bold" lengthAdjust="spacing" textLength="182" x="558" y="665.5332">Inventory Service Entities</text></g><!--cluster Controllers--><g id="cluster_Controllers"><path d="M437.5,429 L517.5,429 A3.75,3.75 0 0 1 520,431.5 L527,452.6094 L1435.5,452.6094 A2.5,2.5 0 0 1 1438,455.1094 L1438,596.5 A2.5,2.5 0 0 1 1435.5,599 L437.5,599 A2.5,2.5 0 0 1 435,596.5 L435,431.5 A2.5,2.5 0 0 1 437.5,429 " fill="none" style="stroke:#000000;stroke-width:1.5;"/><line style="stroke:#000000;stroke-width:1.5;" x1="435" x2="527" y1="452.6094" y2="452.6094"/><text fill="#000000" font-family="sans-serif" font-size="14" font-weight="bold" lengthAdjust="spacing" textLength="79" x="439" y="445.5332">Controllers</text></g><!--cluster Middleware--><g id="cluster_Middleware"><path d="M8.5,6 L91.5,6 A3.75,3.75 0 0 1 94,8.5 L101,29.6094 L1626.5,29.6094 A2.5,2.5 0 0 1 1629,32.1094 L1629,156.5 A2.5,2.5 0 0 1 1626.5,159 L8.5,159 A2.5,2.5 0 0 1 6,156.5 L6,8.5 A2.5,2.5 0 0 1 8.5,6 " fill="none" style="stroke:#000000;stroke-width:1.5;"/><line style="stroke:#000000;stroke-width:1.5;" x1="6" x2="101" y1="29.6094" y2="29.6094"/><text fill="#000000" font-family="sans-serif" font-size="14" font-weight="bold" lengthAdjust="spacing" textLength="82" x="10" y="22.5332">Middleware</text></g><!--cluster Routes--><g id="cluster_Routes"><path d="M209.5,209 L260.5,209 A3.75,3.75 0 0 1 263,211.5 L270,232.6094 L829.5,232.6094 A2.5,2.5 0 0 1 832,235.1094 L832,376.5 A2.5,2.5 0 0 1 829.5,379 L209.5,379 A2.5,2.5 0 0 1 207,376.5 L207,211.5 A2.5,2.5 0 0 1 209.5,209 " fill="none" style="stroke:#000000;stroke-width:1.5;"/><line style="stroke:#000000;stroke-width:1.5;" x1="207" x2="270" y1="232.6094" y2="232.6094"/><text fill="#000000" font-family="sans-serif" font-size="14" font-weight="bold" lengthAdjust="spacing" textLength="50" x="211" y="225.5332">Routes</text></g><!--class InventoryProduct--><g id="elem_InventoryProduct"><rect codeLine="3" fill="#F1F1F1" height="118.4375" id="InventoryProduct" rx="2.5" ry="2.5" style="stroke:#181818;stroke-width:0.5;" width="149" x="609.5" y="881"/><ellipse cx="629" cy="897" fill="#ADD1B2" rx="11" ry="11" style="stroke:#181818;stroke-width:1.0;"/><path d="M631.7656,892.875 Q631.9219,892.6563 632.1094,892.5469 Q632.2969,892.4375 632.5156,892.4375 Q632.8906,892.4375 633.125,892.7031 Q633.3594,892.9531 633.3594,893.5625 L633.3594,895.0156 Q633.3594,895.625 633.125,895.8906 Q632.8906,896.1563 632.5156,896.1563 Q632.1719,896.1563 631.9688,895.9531 Q631.7656,895.7656 631.6563,895.25 Q631.6094,894.8906 631.4219,894.7031 Q631.0938,894.3281 630.4844,894.1094 Q629.875,893.8906 629.25,893.8906 Q628.4844,893.8906 627.8438,894.2188 Q627.2188,894.5469 626.7188,895.2969 Q626.2344,896.0469 626.2344,897.0781 L626.2344,898.1719 Q626.2344,899.4063 627.125,900.2344 Q628.0156,901.0469 629.6094,901.0469 Q630.5469,901.0469 631.2031,900.7969 Q631.5938,900.6406 632.0156,900.2031 Q632.2813,899.9375 632.4219,899.8594 Q632.5781,899.7813 632.7813,899.7813 Q633.1094,899.7813 633.3594,900.0469 Q633.625,900.2969 633.625,900.6406 Q633.625,900.9844 633.2813,901.3906 Q632.7813,901.9688 631.9844,902.2969 Q630.9063,902.75 629.6094,902.75 Q628.0938,902.75 626.8906,902.125 Q625.9063,901.625 625.2188,900.5625 Q624.5313,899.4844 624.5313,898.2031 L624.5313,897.0469 Q624.5313,895.7188 625.1406,894.5781 Q625.7656,893.4219 626.8594,892.8125 Q627.9531,892.1875 629.1875,892.1875 Q629.9219,892.1875 630.5625,892.3594 Q631.2188,892.5156 631.7656,892.875 Z " fill="#000000"/><text fill="#000000" font-family="sans-serif" font-size="14" lengthAdjust="spacing" textLength="107" x="644" y="902.7285">InventoryProduct</text><line style="stroke:#181818;stroke-width:0.5;" x1="610.5" x2="757.5" y1="913" y2="913"/><ellipse cx="620.5" cy="927.3047" fill="none" rx="3" ry="3" style="stroke:#038048;stroke-width:1.0;"/><text fill="#000000" font-family="sans-serif" font-size="14" lengthAdjust="spacing" textLength="67" x="629.5" y="931.5332">id: number</text><ellipse cx="620.5" cy="944.9141" fill="none" rx="3" ry="3" style="stroke:#038048;stroke-width:1.0;"/><text fill="#000000" font-family="sans-serif" font-size="14" lengthAdjust="spacing" textLength="107" x="629.5" y="949.1426">store_id: number</text><ellipse cx="620.5" cy="962.5234" fill="none" rx="3" ry="3" style="stroke:#038048;stroke-width:1.0;"/><text fill="#000000" font-family="sans-serif" font-size="14" lengthAdjust="spacing" textLength="123" x="629.5" y="966.752">product_id: number</text><ellipse cx="620.5" cy="980.1328" fill="none" rx="3" ry="3" style="stroke:#038048;stroke-width:1.0;"/><text fill="#000000" font-family="sans-serif" font-size="14" lengthAdjust="spacing" textLength="89" x="629.5" y="984.3613">stock: number</text><line style="stroke:#181818;stroke-width:0.5;" x1="610.5" x2="757.5" y1="991.4375" y2="991.4375"/></g><!--class SupplyRequest--><g id="elem_SupplyRequest"><rect codeLine="10" fill="#F1F1F1" height="118.4375" id="SupplyRequest" rx="2.5" ry="2.5" style="stroke:#181818;stroke-width:0.5;" width="189" x="570.5" y="685"/><ellipse cx="612.95" cy="701" fill="#ADD1B2" rx="11" ry="11" style="stroke:#181818;stroke-width:1.0;"/><path d="M615.7156,696.875 Q615.8719,696.6563 616.0594,696.5469 Q616.2469,696.4375 616.4656,696.4375 Q616.8406,696.4375 617.075,696.7031 Q617.3094,696.9531 617.3094,697.5625 L617.3094,699.0156 Q617.3094,699.625 617.075,699.8906 Q616.8406,700.1563 616.4656,700.1563 Q616.1219,700.1563 615.9188,699.9531 Q615.7156,699.7656 615.6063,699.25 Q615.5594,698.8906 615.3719,698.7031 Q615.0438,698.3281 614.4344,698.1094 Q613.825,697.8906 613.2,697.8906 Q612.4344,697.8906 611.7938,698.2188 Q611.1688,698.5469 610.6688,699.2969 Q610.1844,700.0469 610.1844,701.0781 L610.1844,702.1719 Q610.1844,703.4063 611.075,704.2344 Q611.9656,705.0469 613.5594,705.0469 Q614.4969,705.0469 615.1531,704.7969 Q615.5438,704.6406 615.9656,704.2031 Q616.2313,703.9375 616.3719,703.8594 Q616.5281,703.7813 616.7313,703.7813 Q617.0594,703.7813 617.3094,704.0469 Q617.575,704.2969 617.575,704.6406 Q617.575,704.9844 617.2313,705.3906 Q616.7313,705.9688 615.9344,706.2969 Q614.8563,706.75 613.5594,706.75 Q612.0438,706.75 610.8406,706.125 Q609.8563,705.625 609.1688,704.5625 Q608.4813,703.4844 608.4813,702.2031 L608.4813,701.0469 Q608.4813,699.7188 609.0906,698.5781 Q609.7156,697.4219 610.8094,696.8125 Q611.9031,696.1875 613.1375,696.1875 Q613.8719,696.1875 614.5125,696.3594 Q615.1688,696.5156 615.7156,696.875 Z " fill="#000000"/><text fill="#000000" font-family="sans-serif" font-size="14" lengthAdjust="spacing" textLength="96" x="633.05" y="706.7285">SupplyRequest</text><line style="stroke:#181818;stroke-width:0.5;" x1="571.5" x2="758.5" y1="717" y2="717"/><ellipse cx="581.5" cy="731.3047" fill="none" rx="3" ry="3" style="stroke:#038048;stroke-width:1.0;"/><text fill="#000000" font-family="sans-serif" font-size="14" lengthAdjust="spacing" textLength="67" x="590.5" y="735.5332">id: number</text><ellipse cx="581.5" cy="748.9141" fill="none" rx="3" ry="3" style="stroke:#038048;stroke-width:1.0;"/><text fill="#000000" font-family="sans-serif" font-size="14" lengthAdjust="spacing" textLength="107" x="590.5" y="753.1426">store_id: number</text><ellipse cx="581.5" cy="766.5234" fill="none" rx="3" ry="3" style="stroke:#038048;stroke-width:1.0;"/><text fill="#000000" font-family="sans-serif" font-size="14" lengthAdjust="spacing" textLength="163" x="590.5" y="770.752">product: InventoryProduct</text><ellipse cx="581.5" cy="784.1328" fill="none" rx="3" ry="3" style="stroke:#038048;stroke-width:1.0;"/><text fill="#000000" font-family="sans-serif" font-size="14" lengthAdjust="spacing" textLength="106" x="590.5" y="788.3613">quantity: number</text><line style="stroke:#181818;stroke-width:0.5;" x1="571.5" x2="758.5" y1="795.4375" y2="795.4375"/></g><!--class InventoriesController--><g id="elem_InventoriesController"><rect codeLine="19" fill="#F1F1F1" height="118.4375" id="InventoriesController" rx="2.5" ry="2.5" style="stroke:#181818;stroke-width:0.5;" width="616" x="806" y="465"/><ellipse cx="1044.25" cy="481" fill="#ADD1B2" rx="11" ry="11" style="stroke:#181818;stroke-width:1.0;"/><path d="M1047.0156,476.875 Q1047.1719,476.6563 1047.3594,476.5469 Q1047.5469,476.4375 1047.7656,476.4375 Q1048.1406,476.4375 1048.375,476.7031 Q1048.6094,476.9531 1048.6094,477.5625 L1048.6094,479.0156 Q1048.6094,479.625 1048.375,479.8906 Q1048.1406,480.1563 1047.7656,480.1563 Q1047.4219,480.1563 1047.2188,479.9531 Q1047.0156,479.7656 1046.9063,479.25 Q1046.8594,478.8906 1046.6719,478.7031 Q1046.3438,478.3281 1045.7344,478.1094 Q1045.125,477.8906 1044.5,477.8906 Q1043.7344,477.8906 1043.0938,478.2188 Q1042.4688,478.5469 1041.9688,479.2969 Q1041.4844,480.0469 1041.4844,481.0781 L1041.4844,482.1719 Q1041.4844,483.4063 1042.375,484.2344 Q1043.2656,485.0469 1044.8594,485.0469 Q1045.7969,485.0469 1046.4531,484.7969 Q1046.8438,484.6406 1047.2656,484.2031 Q1047.5313,483.9375 1047.6719,483.8594 Q1047.8281,483.7813 1048.0313,483.7813 Q1048.3594,483.7813 1048.6094,484.0469 Q1048.875,484.2969 1048.875,484.6406 Q1048.875,484.9844 1048.5313,485.3906 Q1048.0313,485.9688 1047.2344,486.2969 Q1046.1563,486.75 1044.8594,486.75 Q1043.3438,486.75 1042.1406,486.125 Q1041.1563,485.625 1040.4688,484.5625 Q1039.7813,483.4844 1039.7813,482.2031 L1039.7813,481.0469 Q1039.7813,479.7188 1040.3906,478.5781 Q1041.0156,477.4219 1042.1094,476.8125 Q1043.2031,476.1875 1044.4375,476.1875 Q1045.1719,476.1875 1045.8125,476.3594 Q1046.4688,476.5156 1047.0156,476.875 Z " fill="#000000"/><text fill="#000000" font-family="sans-serif" font-size="14" lengthAdjust="spacing" textLength="131" x="1064.75" y="486.7285">InventoriesController</text><line style="stroke:#181818;stroke-width:0.5;" x1="807" x2="1421" y1="497" y2="497"/><line style="stroke:#181818;stroke-width:0.5;" x1="807" x2="1421" y1="505" y2="505"/><ellipse cx="817" cy="519.3047" fill="#84BE84" rx="3" ry="3" style="stroke:#038048;stroke-width:1.0;"/><text fill="#000000" font-family="sans-serif" font-size="14" lengthAdjust="spacing" textLength="99" x="826" y="523.5332">getInventories()</text><ellipse cx="817" cy="536.9141" fill="#84BE84" rx="3" ry="3" style="stroke:#038048;stroke-width:1.0;"/><text fill="#000000" font-family="sans-serif" font-size="14" lengthAdjust="spacing" textLength="229" x="826" y="541.1426">getStoreInventory(store_id: number)</text><ellipse cx="817" cy="554.5234" fill="#84BE84" rx="3" ry="3" style="stroke:#038048;stroke-width:1.0;"/><text fill="#000000" font-family="sans-serif" font-size="14" lengthAdjust="spacing" textLength="420" x="826" y="558.752">getStoreInventoryProductId(store_id: number, product_id: number)</text><ellipse cx="817" cy="572.1328" fill="#84BE84" rx="3" ry="3" style="stroke:#038048;stroke-width:1.0;"/><text fill="#000000" font-family="sans-serif" font-size="14" lengthAdjust="spacing" textLength="590" x="826" y="576.3613">updateStoreInventoryProductId(storeId: number, productId: number, body: { stock?: number })</text></g><!--class SupplyRequestsController--><g id="elem_SupplyRequestsController"><rect codeLine="26" fill="#F1F1F1" height="100.8281" id="SupplyRequestsController" rx="2.5" ry="2.5" style="stroke:#181818;stroke-width:0.5;" width="319" x="451.5" y="473.5"/><ellipse cx="524.25" cy="489.5" fill="#ADD1B2" rx="11" ry="11" style="stroke:#181818;stroke-width:1.0;"/><path d="M527.0156,485.375 Q527.1719,485.1563 527.3594,485.0469 Q527.5469,484.9375 527.7656,484.9375 Q528.1406,484.9375 528.375,485.2031 Q528.6094,485.4531 528.6094,486.0625 L528.6094,487.5156 Q528.6094,488.125 528.375,488.3906 Q528.1406,488.6563 527.7656,488.6563 Q527.4219,488.6563 527.2188,488.4531 Q527.0156,488.2656 526.9063,487.75 Q526.8594,487.3906 526.6719,487.2031 Q526.3438,486.8281 525.7344,486.6094 Q525.125,486.3906 524.5,486.3906 Q523.7344,486.3906 523.0938,486.7188 Q522.4688,487.0469 521.9688,487.7969 Q521.4844,488.5469 521.4844,489.5781 L521.4844,490.6719 Q521.4844,491.9063 522.375,492.7344 Q523.2656,493.5469 524.8594,493.5469 Q525.7969,493.5469 526.4531,493.2969 Q526.8438,493.1406 527.2656,492.7031 Q527.5313,492.4375 527.6719,492.3594 Q527.8281,492.2813 528.0313,492.2813 Q528.3594,492.2813 528.6094,492.5469 Q528.875,492.7969 528.875,493.1406 Q528.875,493.4844 528.5313,493.8906 Q528.0313,494.4688 527.2344,494.7969 Q526.1563,495.25 524.8594,495.25 Q523.3438,495.25 522.1406,494.625 Q521.1563,494.125 520.4688,493.0625 Q519.7813,491.9844 519.7813,490.7031 L519.7813,489.5469 Q519.7813,488.2188 520.3906,487.0781 Q521.0156,485.9219 522.1094,485.3125 Q523.2031,484.6875 524.4375,484.6875 Q525.1719,484.6875 525.8125,484.8594 Q526.4688,485.0156 527.0156,485.375 Z " fill="#000000"/><text fill="#000000" font-family="sans-serif" font-size="14" lengthAdjust="spacing" textLength="165" x="544.75" y="495.2285">SupplyRequestsController</text><line style="stroke:#181818;stroke-width:0.5;" x1="452.5" x2="769.5" y1="505.5" y2="505.5"/><line style="stroke:#181818;stroke-width:0.5;" x1="452.5" x2="769.5" y1="513.5" y2="513.5"/><ellipse cx="462.5" cy="527.8047" fill="#84BE84" rx="3" ry="3" style="stroke:#038048;stroke-width:1.0;"/><text fill="#000000" font-family="sans-serif" font-size="14" lengthAdjust="spacing" textLength="148" x="471.5" y="532.0332">getAllSupplyRequests()</text><ellipse cx="462.5" cy="545.4141" fill="#84BE84" rx="3" ry="3" style="stroke:#038048;stroke-width:1.0;"/><text fill="#000000" font-family="sans-serif" font-size="14" lengthAdjust="spacing" textLength="293" x="471.5" y="549.6426">getSupplyRequestsByStoreId(storeId: number)</text><ellipse cx="462.5" cy="563.0234" fill="#84BE84" rx="3" ry="3" style="stroke:#038048;stroke-width:1.0;"/><text fill="#000000" font-family="sans-serif" font-size="14" lengthAdjust="spacing" textLength="208" x="471.5" y="567.252">createSupplyRequest(body: any)</text></g><!--class ContentNegotiation--><g id="elem_ContentNegotiation"><rect codeLine="34" fill="#F1F1F1" height="65.6094" id="ContentNegotiation" rx="2.5" ry="2.5" style="stroke:#181818;stroke-width:0.5;" width="385" x="22.5" y="59.5"/><ellipse cx="150.25" cy="75.5" fill="#ADD1B2" rx="11" ry="11" style="stroke:#181818;stroke-width:1.0;"/><path d="M153.0156,71.375 Q153.1719,71.1563 153.3594,71.0469 Q153.5469,70.9375 153.7656,70.9375 Q154.1406,70.9375 154.375,71.2031 Q154.6094,71.4531 154.6094,72.0625 L154.6094,73.5156 Q154.6094,74.125 154.375,74.3906 Q154.1406,74.6563 153.7656,74.6563 Q153.4219,74.6563 153.2188,74.4531 Q153.0156,74.2656 152.9063,73.75 Q152.8594,73.3906 152.6719,73.2031 Q152.3438,72.8281 151.7344,72.6094 Q151.125,72.3906 150.5,72.3906 Q149.7344,72.3906 149.0938,72.7188 Q148.4688,73.0469 147.9688,73.7969 Q147.4844,74.5469 147.4844,75.5781 L147.4844,76.6719 Q147.4844,77.9063 148.375,78.7344 Q149.2656,79.5469 150.8594,79.5469 Q151.7969,79.5469 152.4531,79.2969 Q152.8438,79.1406 153.2656,78.7031 Q153.5313,78.4375 153.6719,78.3594 Q153.8281,78.2813 154.0313,78.2813 Q154.3594,78.2813 154.6094,78.5469 Q154.875,78.7969 154.875,79.1406 Q154.875,79.4844 154.5313,79.8906 Q154.0313,80.4688 153.2344,80.7969 Q152.1563,81.25 150.8594,81.25 Q149.3438,81.25 148.1406,80.625 Q147.1563,80.125 146.4688,79.0625 Q145.7813,77.9844 145.7813,76.7031 L145.7813,75.5469 Q145.7813,74.2188 146.3906,73.0781 Q147.0156,71.9219 148.1094,71.3125 Q149.2031,70.6875 150.4375,70.6875 Q151.1719,70.6875 151.8125,70.8594 Q152.4688,71.0156 153.0156,71.375 Z " fill="#000000"/><text fill="#000000" font-family="sans-serif" font-size="14" lengthAdjust="spacing" textLength="121" x="170.75" y="81.2285">ContentNegotiation</text><line style="stroke:#181818;stroke-width:0.5;" x1="23.5" x2="406.5" y1="91.5" y2="91.5"/><line style="stroke:#181818;stroke-width:0.5;" x1="23.5" x2="406.5" y1="99.5" y2="99.5"/><ellipse cx="33.5" cy="113.8047" fill="#84BE84" rx="3" ry="3" style="stroke:#038048;stroke-width:1.0;"/><text fill="#000000" font-family="sans-serif" font-size="14" lengthAdjust="spacing" textLength="359" x="42.5" y="118.0332">handle(req: Request, res: Response, next: NextFunction)</text></g><!--class Logger--><g id="elem_Logger"><rect codeLine="38" fill="#F1F1F1" height="100.8281" id="Logger" rx="2.5" ry="2.5" style="stroke:#181818;stroke-width:0.5;" width="170" x="898" y="42"/><ellipse cx="956.25" cy="58" fill="#ADD1B2" rx="11" ry="11" style="stroke:#181818;stroke-width:1.0;"/><path d="M959.0156,53.875 Q959.1719,53.6563 959.3594,53.5469 Q959.5469,53.4375 959.7656,53.4375 Q960.1406,53.4375 960.375,53.7031 Q960.6094,53.9531 960.6094,54.5625 L960.6094,56.0156 Q960.6094,56.625 960.375,56.8906 Q960.1406,57.1563 959.7656,57.1563 Q959.4219,57.1563 959.2188,56.9531 Q959.0156,56.7656 958.9063,56.25 Q958.8594,55.8906 958.6719,55.7031 Q958.3438,55.3281 957.7344,55.1094 Q957.125,54.8906 956.5,54.8906 Q955.7344,54.8906 955.0938,55.2188 Q954.4688,55.5469 953.9688,56.2969 Q953.4844,57.0469 953.4844,58.0781 L953.4844,59.1719 Q953.4844,60.4063 954.375,61.2344 Q955.2656,62.0469 956.8594,62.0469 Q957.7969,62.0469 958.4531,61.7969 Q958.8438,61.6406 959.2656,61.2031 Q959.5313,60.9375 959.6719,60.8594 Q959.8281,60.7813 960.0313,60.7813 Q960.3594,60.7813 960.6094,61.0469 Q960.875,61.2969 960.875,61.6406 Q960.875,61.9844 960.5313,62.3906 Q960.0313,62.9688 959.2344,63.2969 Q958.1563,63.75 956.8594,63.75 Q955.3438,63.75 954.1406,63.125 Q953.1563,62.625 952.4688,61.5625 Q951.7813,60.4844 951.7813,59.2031 L951.7813,58.0469 Q951.7813,56.7188 952.3906,55.5781 Q953.0156,54.4219 954.1094,53.8125 Q955.2031,53.1875 956.4375,53.1875 Q957.1719,53.1875 957.8125,53.3594 Q958.4688,53.5156 959.0156,53.875 Z " fill="#000000"/><text fill="#000000" font-family="sans-serif" font-size="14" lengthAdjust="spacing" textLength="45" x="976.75" y="63.7285">Logger</text><line style="stroke:#181818;stroke-width:0.5;" x1="899" x2="1067" y1="74" y2="74"/><line style="stroke:#181818;stroke-width:0.5;" x1="899" x2="1067" y1="82" y2="82"/><ellipse cx="909" cy="96.3047" fill="#84BE84" rx="3" ry="3" style="stroke:#038048;stroke-width:1.0;"/><text fill="#000000" font-family="sans-serif" font-size="14" lengthAdjust="spacing" textLength="136" x="918" y="100.5332">info(message: object)</text><ellipse cx="909" cy="113.9141" fill="#84BE84" rx="3" ry="3" style="stroke:#038048;stroke-width:1.0;"/><text fill="#000000" font-family="sans-serif" font-size="14" lengthAdjust="spacing" textLength="144" x="918" y="118.1426">error(message: object)</text><ellipse cx="909" cy="131.5234" fill="#84BE84" rx="3" ry="3" style="stroke:#038048;stroke-width:1.0;"/><text fill="#000000" font-family="sans-serif" font-size="14" lengthAdjust="spacing" textLength="143" x="918" y="135.752">warn(message: object)</text></g><!--class Metrics--><g id="elem_Metrics"><rect codeLine="44" fill="#F1F1F1" height="100.8281" id="Metrics" rx="2.5" ry="2.5" style="stroke:#181818;stroke-width:0.5;" width="509" x="1103.5" y="42"/><ellipse cx="1331.25" cy="58" fill="#ADD1B2" rx="11" ry="11" style="stroke:#181818;stroke-width:1.0;"/><path d="M1334.0156,53.875 Q1334.1719,53.6563 1334.3594,53.5469 Q1334.5469,53.4375 1334.7656,53.4375 Q1335.1406,53.4375 1335.375,53.7031 Q1335.6094,53.9531 1335.6094,54.5625 L1335.6094,56.0156 Q1335.6094,56.625 1335.375,56.8906 Q1335.1406,57.1563 1334.7656,57.1563 Q1334.4219,57.1563 1334.2188,56.9531 Q1334.0156,56.7656 1333.9063,56.25 Q1333.8594,55.8906 1333.6719,55.7031 Q1333.3438,55.3281 1332.7344,55.1094 Q1332.125,54.8906 1331.5,54.8906 Q1330.7344,54.8906 1330.0938,55.2188 Q1329.4688,55.5469 1328.9688,56.2969 Q1328.4844,57.0469 1328.4844,58.0781 L1328.4844,59.1719 Q1328.4844,60.4063 1329.375,61.2344 Q1330.2656,62.0469 1331.8594,62.0469 Q1332.7969,62.0469 1333.4531,61.7969 Q1333.8438,61.6406 1334.2656,61.2031 Q1334.5313,60.9375 1334.6719,60.8594 Q1334.8281,60.7813 1335.0313,60.7813 Q1335.3594,60.7813 1335.6094,61.0469 Q1335.875,61.2969 1335.875,61.6406 Q1335.875,61.9844 1335.5313,62.3906 Q1335.0313,62.9688 1334.2344,63.2969 Q1333.1563,63.75 1331.8594,63.75 Q1330.3438,63.75 1329.1406,63.125 Q1328.1563,62.625 1327.4688,61.5625 Q1326.7813,60.4844 1326.7813,59.2031 L1326.7813,58.0469 Q1326.7813,56.7188 1327.3906,55.5781 Q1328.0156,54.4219 1329.1094,53.8125 Q1330.2031,53.1875 1331.4375,53.1875 Q1332.1719,53.1875 1332.8125,53.3594 Q1333.4688,53.5156 1334.0156,53.875 Z " fill="#000000"/><text fill="#000000" font-family="sans-serif" font-size="14" lengthAdjust="spacing" textLength="45" x="1351.75" y="63.7285">Metrics</text><line style="stroke:#181818;stroke-width:0.5;" x1="1104.5" x2="1611.5" y1="74" y2="74"/><line style="stroke:#181818;stroke-width:0.5;" x1="1104.5" x2="1611.5" y1="82" y2="82"/><ellipse cx="1114.5" cy="96.3047" fill="#84BE84" rx="3" ry="3" style="stroke:#038048;stroke-width:1.0;"/><text fill="#000000" font-family="sans-serif" font-size="14" lengthAdjust="spacing" textLength="272" x="1123.5" y="100.5332">recordInventoryRequest(success: boolean)</text><ellipse cx="1114.5" cy="113.9141" fill="#84BE84" rx="3" ry="3" style="stroke:#038048;stroke-width:1.0;"/><text fill="#000000" font-family="sans-serif" font-size="14" lengthAdjust="spacing" textLength="257" x="1123.5" y="118.1426">recordSupplyRequest(success: boolean)</text><ellipse cx="1114.5" cy="131.5234" fill="#84BE84" rx="3" ry="3" style="stroke:#038048;stroke-width:1.0;"/><text fill="#000000" font-family="sans-serif" font-size="14" lengthAdjust="spacing" textLength="483" x="1123.5" y="135.752">recordStockUpdate(store_id: number, product_id: number, quantity: number)</text></g><!--class StaticTokenAuth--><g id="elem_StaticTokenAuth"><rect codeLine="50" fill="#F1F1F1" height="65.6094" id="StaticTokenAuth" rx="2.5" ry="2.5" style="stroke:#181818;stroke-width:0.5;" width="420" x="443" y="59.5"/><ellipse cx="596.75" cy="75.5" fill="#ADD1B2" rx="11" ry="11" style="stroke:#181818;stroke-width:1.0;"/><path d="M599.5156,71.375 Q599.6719,71.1563 599.8594,71.0469 Q600.0469,70.9375 600.2656,70.9375 Q600.6406,70.9375 600.875,71.2031 Q601.1094,71.4531 601.1094,72.0625 L601.1094,73.5156 Q601.1094,74.125 600.875,74.3906 Q600.6406,74.6563 600.2656,74.6563 Q599.9219,74.6563 599.7188,74.4531 Q599.5156,74.2656 599.4063,73.75 Q599.3594,73.3906 599.1719,73.2031 Q598.8438,72.8281 598.2344,72.6094 Q597.625,72.3906 597,72.3906 Q596.2344,72.3906 595.5938,72.7188 Q594.9688,73.0469 594.4688,73.7969 Q593.9844,74.5469 593.9844,75.5781 L593.9844,76.6719 Q593.9844,77.9063 594.875,78.7344 Q595.7656,79.5469 597.3594,79.5469 Q598.2969,79.5469 598.9531,79.2969 Q599.3438,79.1406 599.7656,78.7031 Q600.0313,78.4375 600.1719,78.3594 Q600.3281,78.2813 600.5313,78.2813 Q600.8594,78.2813 601.1094,78.5469 Q601.375,78.7969 601.375,79.1406 Q601.375,79.4844 601.0313,79.8906 Q600.5313,80.4688 599.7344,80.7969 Q598.6563,81.25 597.3594,81.25 Q595.8438,81.25 594.6406,80.625 Q593.6563,80.125 592.9688,79.0625 Q592.2813,77.9844 592.2813,76.7031 L592.2813,75.5469 Q592.2813,74.2188 592.8906,73.0781 Q593.5156,71.9219 594.6094,71.3125 Q595.7031,70.6875 596.9375,70.6875 Q597.6719,70.6875 598.3125,70.8594 Q598.9688,71.0156 599.5156,71.375 Z " fill="#000000"/><text fill="#000000" font-family="sans-serif" font-size="14" lengthAdjust="spacing" textLength="104" x="617.25" y="81.2285">StaticTokenAuth</text><line style="stroke:#181818;stroke-width:0.5;" x1="444" x2="862" y1="91.5" y2="91.5"/><line style="stroke:#181818;stroke-width:0.5;" x1="444" x2="862" y1="99.5" y2="99.5"/><ellipse cx="454" cy="113.8047" fill="#84BE84" rx="3" ry="3" style="stroke:#038048;stroke-width:1.0;"/><text fill="#000000" font-family="sans-serif" font-size="14" lengthAdjust="spacing" textLength="394" x="463" y="118.0332">authenticate(req: Request, res: Response, next: NextFunction)</text></g><!--class InventoriesRouter--><g id="elem_InventoriesRouter"><rect codeLine="56" fill="#F1F1F1" height="118.4375" id="InventoriesRouter" rx="2.5" ry="2.5" style="stroke:#181818;stroke-width:0.5;" width="294" x="522" y="245"/><ellipse cx="608.75" cy="261" fill="#ADD1B2" rx="11" ry="11" style="stroke:#181818;stroke-width:1.0;"/><path d="M611.5156,256.875 Q611.6719,256.6563 611.8594,256.5469 Q612.0469,256.4375 612.2656,256.4375 Q612.6406,256.4375 612.875,256.7031 Q613.1094,256.9531 613.1094,257.5625 L613.1094,259.0156 Q613.1094,259.625 612.875,259.8906 Q612.6406,260.1563 612.2656,260.1563 Q611.9219,260.1563 611.7188,259.9531 Q611.5156,259.7656 611.4063,259.25 Q611.3594,258.8906 611.1719,258.7031 Q610.8438,258.3281 610.2344,258.1094 Q609.625,257.8906 609,257.8906 Q608.2344,257.8906 607.5938,258.2188 Q606.9688,258.5469 606.4688,259.2969 Q605.9844,260.0469 605.9844,261.0781 L605.9844,262.1719 Q605.9844,263.4063 606.875,264.2344 Q607.7656,265.0469 609.3594,265.0469 Q610.2969,265.0469 610.9531,264.7969 Q611.3438,264.6406 611.7656,264.2031 Q612.0313,263.9375 612.1719,263.8594 Q612.3281,263.7813 612.5313,263.7813 Q612.8594,263.7813 613.1094,264.0469 Q613.375,264.2969 613.375,264.6406 Q613.375,264.9844 613.0313,265.3906 Q612.5313,265.9688 611.7344,266.2969 Q610.6563,266.75 609.3594,266.75 Q607.8438,266.75 606.6406,266.125 Q605.6563,265.625 604.9688,264.5625 Q604.2813,263.4844 604.2813,262.2031 L604.2813,261.0469 Q604.2813,259.7188 604.8906,258.5781 Q605.5156,257.4219 606.6094,256.8125 Q607.7031,256.1875 608.9375,256.1875 Q609.6719,256.1875 610.3125,256.3594 Q610.9688,256.5156 611.5156,256.875 Z " fill="#000000"/><text fill="#000000" font-family="sans-serif" font-size="14" lengthAdjust="spacing" textLength="112" x="629.25" y="266.7285">InventoriesRouter</text><line style="stroke:#181818;stroke-width:0.5;" x1="523" x2="815" y1="277" y2="277"/><ellipse cx="533" cy="291.3047" fill="none" rx="3" ry="3" style="stroke:#038048;stroke-width:1.0;"/><text fill="#000000" font-family="sans-serif" font-size="14" lengthAdjust="spacing" textLength="172" x="542" y="295.5332">GET /stores/main/inventory</text><ellipse cx="533" cy="308.9141" fill="none" rx="3" ry="3" style="stroke:#038048;stroke-width:1.0;"/><text fill="#000000" font-family="sans-serif" font-size="14" lengthAdjust="spacing" textLength="195" x="542" y="313.1426">GET /stores/{storeId}/inventory</text><ellipse cx="533" cy="326.5234" fill="none" rx="3" ry="3" style="stroke:#038048;stroke-width:1.0;"/><text fill="#000000" font-family="sans-serif" font-size="14" lengthAdjust="spacing" textLength="268" x="542" y="330.752">GET /stores/{storeId}/inventory/{productId}</text><ellipse cx="533" cy="344.1328" fill="none" rx="3" ry="3" style="stroke:#038048;stroke-width:1.0;"/><text fill="#000000" font-family="sans-serif" font-size="14" lengthAdjust="spacing" textLength="266" x="542" y="348.3613">PUT /stores/{storeId}/inventory/{productId}</text><line style="stroke:#181818;stroke-width:0.5;" x1="523" x2="815" y1="355.4375" y2="355.4375"/></g><!--class SupplyRequestsRouter--><g id="elem_SupplyRequestsRouter"><rect codeLine="63" fill="#F1F1F1" height="100.8281" id="SupplyRequestsRouter" rx="2.5" ry="2.5" style="stroke:#181818;stroke-width:0.5;" width="264" x="223" y="253.5"/><ellipse cx="277.75" cy="269.5" fill="#ADD1B2" rx="11" ry="11" style="stroke:#181818;stroke-width:1.0;"/><path d="M280.5156,265.375 Q280.6719,265.1563 280.8594,265.0469 Q281.0469,264.9375 281.2656,264.9375 Q281.6406,264.9375 281.875,265.2031 Q282.1094,265.4531 282.1094,266.0625 L282.1094,267.5156 Q282.1094,268.125 281.875,268.3906 Q281.6406,268.6563 281.2656,268.6563 Q280.9219,268.6563 280.7188,268.4531 Q280.5156,268.2656 280.4063,267.75 Q280.3594,267.3906 280.1719,267.2031 Q279.8438,266.8281 279.2344,266.6094 Q278.625,266.3906 278,266.3906 Q277.2344,266.3906 276.5938,266.7188 Q275.9688,267.0469 275.4688,267.7969 Q274.9844,268.5469 274.9844,269.5781 L274.9844,270.6719 Q274.9844,271.9063 275.875,272.7344 Q276.7656,273.5469 278.3594,273.5469 Q279.2969,273.5469 279.9531,273.2969 Q280.3438,273.1406 280.7656,272.7031 Q281.0313,272.4375 281.1719,272.3594 Q281.3281,272.2813 281.5313,272.2813 Q281.8594,272.2813 282.1094,272.5469 Q282.375,272.7969 282.375,273.1406 Q282.375,273.4844 282.0313,273.8906 Q281.5313,274.4688 280.7344,274.7969 Q279.6563,275.25 278.3594,275.25 Q276.8438,275.25 275.6406,274.625 Q274.6563,274.125 273.9688,273.0625 Q273.2813,271.9844 273.2813,270.7031 L273.2813,269.5469 Q273.2813,268.2188 273.8906,267.0781 Q274.5156,265.9219 275.6094,265.3125 Q276.7031,264.6875 277.9375,264.6875 Q278.6719,264.6875 279.3125,264.8594 Q279.9688,265.0156 280.5156,265.375 Z " fill="#000000"/><text fill="#000000" font-family="sans-serif" font-size="14" lengthAdjust="spacing" textLength="146" x="298.25" y="275.2285">SupplyRequestsRouter</text><line style="stroke:#181818;stroke-width:0.5;" x1="224" x2="486" y1="285.5" y2="285.5"/><ellipse cx="234" cy="299.8047" fill="none" rx="3" ry="3" style="stroke:#038048;stroke-width:1.0;"/><text fill="#000000" font-family="sans-serif" font-size="14" lengthAdjust="spacing" textLength="138" x="243" y="304.0332">GET /supply-requests</text><ellipse cx="234" cy="317.4141" fill="none" rx="3" ry="3" style="stroke:#038048;stroke-width:1.0;"/><text fill="#000000" font-family="sans-serif" font-size="14" lengthAdjust="spacing" textLength="147" x="243" y="321.6426">POST /supply-requests</text><ellipse cx="234" cy="335.0234" fill="none" rx="3" ry="3" style="stroke:#038048;stroke-width:1.0;"/><text fill="#000000" font-family="sans-serif" font-size="14" lengthAdjust="spacing" textLength="238" x="243" y="339.252">GET /stores/{storeId}/supply-requests</text><line style="stroke:#181818;stroke-width:0.5;" x1="224" x2="486" y1="346.3281" y2="346.3281"/></g><g id="elem_GMN29"><path d="M793.5,910.5 L793.5,936 L758.57,940 L793.5,944 L793.5,969.5547 A0,0 0 0 0 793.5,969.5547 L952.5,969.5547 A0,0 0 0 0 952.5,969.5547 L952.5,920.5 L942.5,910.5 L793.5,910.5 A0,0 0 0 0 793.5,910.5 " fill="#FEFFDD" style="stroke:#181818;stroke-width:0.5;"/><path d="M942.5,910.5 L942.5,920.5 L952.5,920.5 L942.5,910.5 " fill="#FEFFDD" style="stroke:#181818;stroke-width:0.5;"/><text fill="#000000" font-family="sans-serif" font-size="13" lengthAdjust="spacing" textLength="138" x="799.5" y="928.9951">Represents stock levels</text><text fill="#000000" font-family="sans-serif" font-size="13" lengthAdjust="spacing" textLength="122" x="799.5" y="945.3467">for products in stores</text><text fill="#000000" font-family="sans-serif" font-size="13" lengthAdjust="spacing" textLength="127" x="799.5" y="961.6982">with real-time updates</text></g><g id="elem_GMN32"><path d="M794.5,714.5 L794.5,740 L759.7,744 L794.5,748 L794.5,773.5547 A0,0 0 0 0 794.5,773.5547 L953.5,773.5547 A0,0 0 0 0 953.5,773.5547 L953.5,724.5 L943.5,714.5 L794.5,714.5 A0,0 0 0 0 794.5,714.5 " fill="#FEFFDD" style="stroke:#181818;stroke-width:0.5;"/><path d="M943.5,714.5 L943.5,724.5 L953.5,724.5 L943.5,714.5 " fill="#FEFFDD" style="stroke:#181818;stroke-width:0.5;"/><text fill="#000000" font-family="sans-serif" font-size="13" lengthAdjust="spacing" textLength="138" x="800.5" y="732.9951">Represents requests for</text><text fill="#000000" font-family="sans-serif" font-size="13" lengthAdjust="spacing" textLength="107" x="800.5" y="749.3467">product restocking</text><text fill="#000000" font-family="sans-serif" font-size="13" lengthAdjust="spacing" textLength="127" x="800.5" y="765.6982">with approval workflow</text></g><!--link InventoriesController to InventoryProduct--><g id="link_InventoriesController_InventoryProduct"><path codeLine="71" d="M1097.57,583.13 C1077.26,645.27 1037.05,742.92 971,803 C901.95,865.81 859.16,838.6 776,881 C770.28,883.92 769.675,884.1129 763.875,887.4129 " fill="none" id="InventoriesController-to-InventoryProduct" style="stroke:#181818;stroke-width:1.0;"/><polygon fill="#181818" points="758.66,890.38,768.4606,889.4059,763.0058,887.9074,764.5044,882.4526,758.66,890.38" style="stroke:#181818;stroke-width:1.0;"/><text fill="#000000" font-family="sans-serif" font-size="13" lengthAdjust="spacing" textLength="53" x="1075" y="749.4951">manages</text></g><!--link SupplyRequestsController to SupplyRequest--><g id="link_SupplyRequestsController_SupplyRequest"><path codeLine="72" d="M623.32,574.74 C631.45,607.54 640.6776,644.796 649.1876,679.156 " fill="none" id="SupplyRequestsController-to-SupplyRequest" style="stroke:#181818;stroke-width:1.0;"/><polygon fill="#181818" points="650.63,684.98,652.349,675.2823,649.428,680.1266,644.5836,677.2056,650.63,684.98" style="stroke:#181818;stroke-width:1.0;"/><text fill="#000000" font-family="sans-serif" font-size="13" lengthAdjust="spacing" textLength="53" x="637" y="629.4951">manages</text></g><!--link SupplyRequest to InventoryProduct--><g id="link_SupplyRequest_InventoryProduct"><path codeLine="73" d="M670.7,803.21 C673.11,827.76 675.316,850.3185 677.716,874.8585 " fill="none" id="SupplyRequest-to-InventoryProduct" style="stroke:#181818;stroke-width:1.0;"/><polygon fill="#181818" points="678.3,880.83,681.405,871.4834,677.8133,875.8537,673.443,872.2621,678.3,880.83" style="stroke:#181818;stroke-width:1.0;"/><text fill="#000000" font-family="sans-serif" font-size="13" lengthAdjust="spacing" textLength="60" x="676" y="847.4951">references</text></g><!--link InventoriesRouter to InventoriesController--><g id="link_InventoriesRouter_InventoriesController"><path codeLine="75" d="M787.67,363.13 C851.91,394.6 925.6416,430.7308 989.8916,462.2008 " fill="none" id="InventoriesRouter-to-InventoriesController" style="stroke:#181818;stroke-width:1.0;"/><polygon fill="#181818" points="995.28,464.84,988.957,457.2889,990.7897,462.6406,985.438,464.4734,995.28,464.84" style="stroke:#181818;stroke-width:1.0;"/><text fill="#000000" font-family="sans-serif" font-size="13" lengthAdjust="spacing" textLength="51" x="879" y="409.4951">routes to</text></g><!--link SupplyRequestsRouter to SupplyRequestsController--><g id="link_SupplyRequestsRouter_SupplyRequestsController"><path codeLine="76" d="M413.41,354.74 C455.17,390.3 506.5614,434.0705 548.2714,469.5805 " fill="none" id="SupplyRequestsRouter-to-SupplyRequestsController" style="stroke:#181818;stroke-width:1.0;"/><polygon fill="#181818" points="552.84,473.47,548.5801,464.5901,549.0328,470.2288,543.3941,470.6815,552.84,473.47" style="stroke:#181818;stroke-width:1.0;"/><text fill="#000000" font-family="sans-serif" font-size="13" lengthAdjust="spacing" textLength="51" x="476" y="409.4951">routes to</text></g><!--link ContentNegotiation to InventoriesRouter--><g id="link_ContentNegotiation_InventoriesRouter"><path codeLine="78" d="M275.39,125.67 C320.15,148.09 383.31,176.78 442,193 C469.2,200.52 478.4,191.55 505,201 C534.7,211.55 559.6489,224.8717 585.7289,241.5917 " fill="none" id="ContentNegotiation-to-InventoriesRouter" style="stroke:#181818;stroke-width:1.0;"/><polygon fill="#181818" points="590.78,244.83,585.3622,236.6052,586.5708,242.1314,581.0445,243.34,590.78,244.83" style="stroke:#181818;stroke-width:1.0;"/><text fill="#000000" font-family="sans-serif" font-size="13" lengthAdjust="spacing" textLength="60" x="443" y="189.4951">processes</text></g><!--link ContentNegotiation to SupplyRequestsRouter--><g id="link_ContentNegotiation_SupplyRequestsRouter"><path codeLine="79" d="M236.57,125.78 C259.27,159.75 291.9771,208.6808 318.3371,248.1408 " fill="none" id="ContentNegotiation-to-SupplyRequestsRouter" style="stroke:#181818;stroke-width:1.0;"/><polygon fill="#181818" points="321.67,253.13,319.9968,243.4243,318.8926,248.9723,313.3446,247.8681,321.67,253.13" style="stroke:#181818;stroke-width:1.0;"/><text fill="#000000" font-family="sans-serif" font-size="13" lengthAdjust="spacing" textLength="60" x="281" y="189.4951">processes</text></g><!--link Logger to InventoriesController--><g id="link_Logger_InventoriesController"><path codeLine="81" d="M998.16,143.19 C1022.54,223.12 1068.5999,374.1509 1094.5199,459.1509 " fill="none" id="Logger-to-InventoriesController" style="stroke:#181818;stroke-width:1.0;"/><polygon fill="#181818" points="1096.27,464.89,1097.4709,455.1146,1094.8116,460.1074,1089.8188,457.4481,1096.27,464.89" style="stroke:#181818;stroke-width:1.0;"/><text fill="#000000" font-family="sans-serif" font-size="13" lengthAdjust="spacing" textLength="24" x="1073" y="309.4951">logs</text></g><!--link Logger to SupplyRequestsController--><g id="link_Logger_SupplyRequestsController"><path codeLine="82" d="M982.36,143.07 C978.5,215.13 959.76,347.36 877,413 C861.62,425.2 807.73,415.09 789,421 C751.3,432.89 717.9069,450.4683 686.4269,470.1583 " fill="none" id="Logger-to-SupplyRequestsController" style="stroke:#181818;stroke-width:1.0;"/><polygon fill="#181818" points="681.34,473.34,691.0915,471.9587,685.5791,470.6886,686.8492,465.1761,681.34,473.34" style="stroke:#181818;stroke-width:1.0;"/><text fill="#000000" font-family="sans-serif" font-size="13" lengthAdjust="spacing" textLength="24" x="977" y="309.4951">logs</text></g><!--link Metrics to InventoriesController--><g id="link_Metrics_InventoriesController"><path codeLine="84" d="M1343.31,143.26 C1324.18,203.73 1287.17,307.54 1237,387 C1219.58,414.59 1200.5085,437.5268 1178.9685,460.3468 " fill="none" id="Metrics-to-InventoriesController" style="stroke:#181818;stroke-width:1.0;"/><polygon fill="#181818" points="1174.85,464.71,1183.9366,460.9108,1178.2821,461.074,1178.1189,455.4195,1174.85,464.71" style="stroke:#181818;stroke-width:1.0;"/><text fill="#000000" font-family="sans-serif" font-size="13" lengthAdjust="spacing" textLength="50" x="1323" y="309.4951">monitors</text></g><!--link Metrics to SupplyRequestsController--><g id="link_Metrics_SupplyRequestsController"><path codeLine="85" d="M1247.57,143.2 C1221.81,158.8 1196.3,178.07 1177,201 C1120.01,268.69 1175.37,332.07 1106,387 C1037.8,441 998.57,404.39 912,413 C884.74,415.71 815.23,413.1 789,421 C750.81,432.51 717.0347,450.2688 685.4247,470.2088 " fill="none" id="Metrics-to-SupplyRequestsController" style="stroke:#181818;stroke-width:1.0;"/><polygon fill="#181818" points="680.35,473.41,690.0962,471.9914,684.5789,470.7424,685.8279,465.2251,680.35,473.41" style="stroke:#181818;stroke-width:1.0;"/><text fill="#000000" font-family="sans-serif" font-size="13" lengthAdjust="spacing" textLength="50" x="1178" y="309.4951">monitors</text></g><!--link StaticTokenAuth to InventoriesRouter--><g id="link_StaticTokenAuth_InventoriesRouter"><path codeLine="87" d="M655.46,125.78 C657.88,157.45 661.1727,200.4975 664.1127,238.9575 " fill="none" id="StaticTokenAuth-to-InventoriesRouter" style="stroke:#181818;stroke-width:1.0;"/><polygon fill="#181818" points="664.57,244.94,667.8724,235.6613,664.1889,239.9545,659.8956,236.2711,664.57,244.94" style="stroke:#181818;stroke-width:1.0;"/><text fill="#000000" font-family="sans-serif" font-size="13" lengthAdjust="spacing" textLength="78" x="661" y="189.4951">authenticates</text></g><!--link StaticTokenAuth to SupplyRequestsRouter--><g id="link_StaticTokenAuth_SupplyRequestsRouter"><path codeLine="88" d="M607.42,125.55 C558.99,159.59 486.7183,210.399 430.4383,249.969 " fill="none" id="StaticTokenAuth-to-SupplyRequestsRouter" style="stroke:#181818;stroke-width:1.0;"/><polygon fill="#181818" points="425.53,253.42,435.193,251.5157,429.6202,250.5442,430.5917,244.9714,425.53,253.42" style="stroke:#181818;stroke-width:1.0;"/><text fill="#000000" font-family="sans-serif" font-size="13" lengthAdjust="spacing" textLength="78" x="531" y="189.4951">authenticates</text></g><!--SRC=[hLPDRnen4BtxLrYv55GGzpsqIgkqYjIaKKZEaUCT5XTZRsml527-UyVBBh5PxpQDoW49ptipRpuyfcHynGgW5zTg0yffiwDpC1l1WLuf9vm0Uq7tXEA7IsOjFU7kZCuhxXgZ_toa8i-egjRFO893YsXuIfhAeu-dFXvVHUS74WYPLsKfT_VmKe7zBogoJcu1vgLYlXoxCpseg6mh-5KhPxIKO7fAXhLynKIA2t01Q3IEJNCl_QHjT9x98Bh9v3hlq2Q9weUkgZ9d3WQzNNUTXKVFEiTwxO-D_DoUqyFuByqSgDAbb36qKwl8-cLtrD_H6xAu0PzeI1mTfJEr6oSQVIFoNCAM6OZxx6LZdMwXq4um9xIAv2-PGjh8m4j6cpWJQi3wNxRKoiA4AlYDStYBtzygnRsBHB5-wA8uAurG2prQWxKeCAFw-HTm5-O8ncWp1C1iLDeUXRu1PmItKMm3N9lyD2Dj2Mt5EVhBS0oq1AR67KfSyZVW_HmzrcFvfccUT6vjQl8STee_w1MeoyejeymO7c1IWlk8x-nRE3ZtkdBGlnngSzpNxrSFT5RdQcTh9jHCj6Nk0UsRGJ-y1pdRdsxn8M3TFVuRQ-1czwPOewQcWON1Vyu7xUcKKlYw5n-mQRA-ctOfIalIktaw_THzw3AwPWhxQ4dljlAy-5tg8VL5CB000mel0Y7ToGX9iM1arhD5dIR9YdUKzR59OekTnMrSPlxA-IkBOdj8IIaXZpIxR2WpgGiRuWRIgA6aNL93JjTQ2Jos4NZ0ymbFpXT6Nt72vM6Jh9xgn4IYj0DgHB5qL2zIVr7keSJXnrDxV6cfX0r8F_CBRTgrQF69EFu7yeQjG0duxCcf4sjeddfBGENKXpiF6WcD8xOtpCT2InFDhqSlHQYYZSPAj6sOf5jjLWkfjw_H_W00]--></g></svg>