<?xml version="1.0" encoding="us-ascii" standalone="no"?><svg xmlns="http://www.w3.org/2000/svg" xmlns:xlink="http://www.w3.org/1999/xlink" contentStyleType="text/css" height="1010px" preserveAspectRatio="none" style="width:1605px;height:1010px;background:#FFFFFF;" version="1.1" viewBox="0 0 1605 1010" width="1605px" zoomAndPan="magnify"><defs/><g><!--cluster Auth Service Entities--><g id="cluster_Auth Service Entities"><path d="M738.35,799 L886.35,799 A3.75,3.75 0 0 1 888.85,801.5 L895.85,822.6094 L1098.35,822.6094 A2.5,2.5 0 0 1 1100.85,825.1094 L1100.85,1000.5 A2.5,2.5 0 0 1 1098.35,1003 L738.35,1003 A2.5,2.5 0 0 1 735.85,1000.5 L735.85,801.5 A2.5,2.5 0 0 1 738.35,799 " fill="none" style="stroke:#000000;stroke-width:1.5;"/><line style="stroke:#000000;stroke-width:1.5;" x1="735.85" x2="895.85" y1="822.6094" y2="822.6094"/><text fill="#000000" font-family="sans-serif" font-size="14" font-weight="bold" lengthAdjust="spacing" textLength="147" x="739.85" y="815.5332">Auth Service Entities</text></g><!--cluster Controllers--><g id="cluster_Controllers"><path d="M822.35,412 L902.35,412 A3.75,3.75 0 0 1 904.85,414.5 L911.85,435.6094 L1408.35,435.6094 A2.5,2.5 0 0 1 1410.85,438.1094 L1410.85,738.5 A2.5,2.5 0 0 1 1408.35,741 L822.35,741 A2.5,2.5 0 0 1 819.85,738.5 L819.85,414.5 A2.5,2.5 0 0 1 822.35,412 " fill="none" style="stroke:#000000;stroke-width:1.5;"/><line style="stroke:#000000;stroke-width:1.5;" x1="819.85" x2="911.85" y1="435.6094" y2="435.6094"/><text fill="#000000" font-family="sans-serif" font-size="14" font-weight="bold" lengthAdjust="spacing" textLength="79" x="823.85" y="428.5332">Controllers</text></g><!--cluster Middleware--><g id="cluster_Middleware"><path d="M86.35,6 L169.35,6 A3.75,3.75 0 0 1 171.85,8.5 L178.85,29.6094 L1596.35,29.6094 A2.5,2.5 0 0 1 1598.85,32.1094 L1598.85,156.5 A2.5,2.5 0 0 1 1596.35,159 L86.35,159 A2.5,2.5 0 0 1 83.85,156.5 L83.85,8.5 A2.5,2.5 0 0 1 86.35,6 " fill="none" style="stroke:#000000;stroke-width:1.5;"/><line style="stroke:#000000;stroke-width:1.5;" x1="83.85" x2="178.85" y1="29.6094" y2="29.6094"/><text fill="#000000" font-family="sans-serif" font-size="14" font-weight="bold" lengthAdjust="spacing" textLength="82" x="87.85" y="22.5332">Middleware</text></g><!--cluster Routes--><g id="cluster_Routes"><path d="M219.35,209 L270.35,209 A3.75,3.75 0 0 1 272.85,211.5 L279.85,232.6094 L1006.35,232.6094 A2.5,2.5 0 0 1 1008.85,235.1094 L1008.85,359.5 A2.5,2.5 0 0 1 1006.35,362 L219.35,362 A2.5,2.5 0 0 1 216.85,359.5 L216.85,211.5 A2.5,2.5 0 0 1 219.35,209 " fill="none" style="stroke:#000000;stroke-width:1.5;"/><line style="stroke:#000000;stroke-width:1.5;" x1="216.85" x2="279.85" y1="232.6094" y2="232.6094"/><text fill="#000000" font-family="sans-serif" font-size="14" font-weight="bold" lengthAdjust="spacing" textLength="50" x="220.85" y="225.5332">Routes</text></g><!--class Customer--><g id="elem_Customer"><rect codeLine="4" fill="#F1F1F1" height="136.0469" id="Customer" rx="2.5" ry="2.5" style="stroke:#181818;stroke-width:0.5;" width="129" x="928.35" y="843"/><ellipse cx="959.55" cy="859" fill="#ADD1B2" rx="11" ry="11" style="stroke:#181818;stroke-width:1.0;"/><path d="M962.3156,854.875 Q962.4719,854.6563 962.6594,854.5469 Q962.8469,854.4375 963.0656,854.4375 Q963.4406,854.4375 963.675,854.7031 Q963.9094,854.9531 963.9094,855.5625 L963.9094,857.0156 Q963.9094,857.625 963.675,857.8906 Q963.4406,858.1563 963.0656,858.1563 Q962.7219,858.1563 962.5188,857.9531 Q962.3156,857.7656 962.2063,857.25 Q962.1594,856.8906 961.9719,856.7031 Q961.6438,856.3281 961.0344,856.1094 Q960.425,855.8906 959.8,855.8906 Q959.0344,855.8906 958.3938,856.2188 Q957.7688,856.5469 957.2688,857.2969 Q956.7844,858.0469 956.7844,859.0781 L956.7844,860.1719 Q956.7844,861.4063 957.675,862.2344 Q958.5656,863.0469 960.1594,863.0469 Q961.0969,863.0469 961.7531,862.7969 Q962.1438,862.6406 962.5656,862.2031 Q962.8313,861.9375 962.9719,861.8594 Q963.1281,861.7813 963.3313,861.7813 Q963.6594,861.7813 963.9094,862.0469 Q964.175,862.2969 964.175,862.6406 Q964.175,862.9844 963.8313,863.3906 Q963.3313,863.9688 962.5344,864.2969 Q961.4563,864.75 960.1594,864.75 Q958.6438,864.75 957.4406,864.125 Q956.4563,863.625 955.7688,862.5625 Q955.0813,861.4844 955.0813,860.2031 L955.0813,859.0469 Q955.0813,857.7188 955.6906,856.5781 Q956.3156,855.4219 957.4094,854.8125 Q958.5031,854.1875 959.7375,854.1875 Q960.4719,854.1875 961.1125,854.3594 Q961.7688,854.5156 962.3156,854.875 Z " fill="#000000"/><text fill="#000000" font-family="sans-serif" font-size="14" lengthAdjust="spacing" textLength="61" x="977.15" y="864.7285">Customer</text><line style="stroke:#181818;stroke-width:0.5;" x1="929.35" x2="1056.35" y1="875" y2="875"/><ellipse cx="939.35" cy="889.3047" fill="none" rx="3" ry="3" style="stroke:#038048;stroke-width:1.0;"/><text fill="#000000" font-family="sans-serif" font-size="14" lengthAdjust="spacing" textLength="67" x="948.35" y="893.5332">id: number</text><ellipse cx="939.35" cy="906.9141" fill="none" rx="3" ry="3" style="stroke:#038048;stroke-width:1.0;"/><text fill="#000000" font-family="sans-serif" font-size="14" lengthAdjust="spacing" textLength="78" x="948.35" y="911.1426">name: string</text><ellipse cx="939.35" cy="924.5234" fill="none" rx="3" ry="3" style="stroke:#038048;stroke-width:1.0;"/><text fill="#000000" font-family="sans-serif" font-size="14" lengthAdjust="spacing" textLength="76" x="948.35" y="928.752">email: string</text><ellipse cx="939.35" cy="942.1328" fill="none" rx="3" ry="3" style="stroke:#038048;stroke-width:1.0;"/><text fill="#000000" font-family="sans-serif" font-size="14" lengthAdjust="spacing" textLength="103" x="948.35" y="946.3613">password: string</text><ellipse cx="939.35" cy="959.7422" fill="none" rx="3" ry="3" style="stroke:#038048;stroke-width:1.0;"/><text fill="#000000" font-family="sans-serif" font-size="14" lengthAdjust="spacing" textLength="99" x="948.35" y="963.9707">cart_id: number</text><line style="stroke:#181818;stroke-width:0.5;" x1="929.35" x2="1056.35" y1="971.0469" y2="971.0469"/></g><!--class Manager--><g id="elem_Manager"><rect codeLine="12" fill="#F1F1F1" height="136.0469" id="Manager" rx="2.5" ry="2.5" style="stroke:#181818;stroke-width:0.5;" width="133" x="760.35" y="843"/><ellipse cx="795.6" cy="859" fill="#ADD1B2" rx="11" ry="11" style="stroke:#181818;stroke-width:1.0;"/><path d="M798.3656,854.875 Q798.5219,854.6563 798.7094,854.5469 Q798.8969,854.4375 799.1156,854.4375 Q799.4906,854.4375 799.725,854.7031 Q799.9594,854.9531 799.9594,855.5625 L799.9594,857.0156 Q799.9594,857.625 799.725,857.8906 Q799.4906,858.1563 799.1156,858.1563 Q798.7719,858.1563 798.5688,857.9531 Q798.3656,857.7656 798.2563,857.25 Q798.2094,856.8906 798.0219,856.7031 Q797.6938,856.3281 797.0844,856.1094 Q796.475,855.8906 795.85,855.8906 Q795.0844,855.8906 794.4438,856.2188 Q793.8188,856.5469 793.3188,857.2969 Q792.8344,858.0469 792.8344,859.0781 L792.8344,860.1719 Q792.8344,861.4063 793.725,862.2344 Q794.6156,863.0469 796.2094,863.0469 Q797.1469,863.0469 797.8031,862.7969 Q798.1938,862.6406 798.6156,862.2031 Q798.8813,861.9375 799.0219,861.8594 Q799.1781,861.7813 799.3813,861.7813 Q799.7094,861.7813 799.9594,862.0469 Q800.225,862.2969 800.225,862.6406 Q800.225,862.9844 799.8813,863.3906 Q799.3813,863.9688 798.5844,864.2969 Q797.5063,864.75 796.2094,864.75 Q794.6938,864.75 793.4906,864.125 Q792.5063,863.625 791.8188,862.5625 Q791.1313,861.4844 791.1313,860.2031 L791.1313,859.0469 Q791.1313,857.7188 791.7406,856.5781 Q792.3656,855.4219 793.4594,854.8125 Q794.5531,854.1875 795.7875,854.1875 Q796.5219,854.1875 797.1625,854.3594 Q797.8188,854.5156 798.3656,854.875 Z " fill="#000000"/><text fill="#000000" font-family="sans-serif" font-size="14" lengthAdjust="spacing" textLength="56" x="814.1" y="864.7285">Manager</text><line style="stroke:#181818;stroke-width:0.5;" x1="761.35" x2="892.35" y1="875" y2="875"/><ellipse cx="771.35" cy="889.3047" fill="none" rx="3" ry="3" style="stroke:#038048;stroke-width:1.0;"/><text fill="#000000" font-family="sans-serif" font-size="14" lengthAdjust="spacing" textLength="67" x="780.35" y="893.5332">id: number</text><ellipse cx="771.35" cy="906.9141" fill="none" rx="3" ry="3" style="stroke:#038048;stroke-width:1.0;"/><text fill="#000000" font-family="sans-serif" font-size="14" lengthAdjust="spacing" textLength="78" x="780.35" y="911.1426">name: string</text><ellipse cx="771.35" cy="924.5234" fill="none" rx="3" ry="3" style="stroke:#038048;stroke-width:1.0;"/><text fill="#000000" font-family="sans-serif" font-size="14" lengthAdjust="spacing" textLength="76" x="780.35" y="928.752">email: string</text><ellipse cx="771.35" cy="942.1328" fill="none" rx="3" ry="3" style="stroke:#038048;stroke-width:1.0;"/><text fill="#000000" font-family="sans-serif" font-size="14" lengthAdjust="spacing" textLength="103" x="780.35" y="946.3613">password: string</text><ellipse cx="771.35" cy="959.7422" fill="none" rx="3" ry="3" style="stroke:#038048;stroke-width:1.0;"/><text fill="#000000" font-family="sans-serif" font-size="14" lengthAdjust="spacing" textLength="107" x="780.35" y="963.9707">store_id: number</text><line style="stroke:#181818;stroke-width:0.5;" x1="761.35" x2="892.35" y1="971.0469" y2="971.0469"/></g><!--class CustomersController--><g id="elem_CustomersController"><rect codeLine="23" fill="#F1F1F1" height="276.9219" id="CustomersController" rx="2.5" ry="2.5" style="stroke:#181818;stroke-width:0.5;" width="314" x="835.85" y="448"/><ellipse cx="923.6" cy="464" fill="#ADD1B2" rx="11" ry="11" style="stroke:#181818;stroke-width:1.0;"/><path d="M926.3656,459.875 Q926.5219,459.6563 926.7094,459.5469 Q926.8969,459.4375 927.1156,459.4375 Q927.4906,459.4375 927.725,459.7031 Q927.9594,459.9531 927.9594,460.5625 L927.9594,462.0156 Q927.9594,462.625 927.725,462.8906 Q927.4906,463.1563 927.1156,463.1563 Q926.7719,463.1563 926.5688,462.9531 Q926.3656,462.7656 926.2563,462.25 Q926.2094,461.8906 926.0219,461.7031 Q925.6938,461.3281 925.0844,461.1094 Q924.475,460.8906 923.85,460.8906 Q923.0844,460.8906 922.4438,461.2188 Q921.8188,461.5469 921.3188,462.2969 Q920.8344,463.0469 920.8344,464.0781 L920.8344,465.1719 Q920.8344,466.4063 921.725,467.2344 Q922.6156,468.0469 924.2094,468.0469 Q925.1469,468.0469 925.8031,467.7969 Q926.1938,467.6406 926.6156,467.2031 Q926.8813,466.9375 927.0219,466.8594 Q927.1781,466.7813 927.3813,466.7813 Q927.7094,466.7813 927.9594,467.0469 Q928.225,467.2969 928.225,467.6406 Q928.225,467.9844 927.8813,468.3906 Q927.3813,468.9688 926.5844,469.2969 Q925.5063,469.75 924.2094,469.75 Q922.6938,469.75 921.4906,469.125 Q920.5063,468.625 919.8188,467.5625 Q919.1313,466.4844 919.1313,465.2031 L919.1313,464.0469 Q919.1313,462.7188 919.7406,461.5781 Q920.3656,460.4219 921.4594,459.8125 Q922.5531,459.1875 923.7875,459.1875 Q924.5219,459.1875 925.1625,459.3594 Q925.8188,459.5156 926.3656,459.875 Z " fill="#000000"/><text fill="#000000" font-family="sans-serif" font-size="14" lengthAdjust="spacing" textLength="130" x="944.1" y="469.7285">CustomersController</text><line style="stroke:#181818;stroke-width:0.5;" x1="836.85" x2="1148.85" y1="480" y2="480"/><text fill="#000000" font-family="sans-serif" font-size="14" lengthAdjust="spacing" textLength="170" x="841.85" y="498.5332">class ManagersController {</text><line style="stroke:#181818;stroke-width:0.5;" x1="836.85" x2="1148.85" y1="505.6094" y2="505.6094"/><ellipse cx="846.85" cy="519.9141" fill="#84BE84" rx="3" ry="3" style="stroke:#038048;stroke-width:1.0;"/><text fill="#000000" font-family="sans-serif" font-size="14" lengthAdjust="spacing" textLength="113" x="855.85" y="524.1426">getAllCustomers()</text><ellipse cx="846.85" cy="537.5234" fill="#84BE84" rx="3" ry="3" style="stroke:#038048;stroke-width:1.0;"/><text fill="#000000" font-family="sans-serif" font-size="14" lengthAdjust="spacing" textLength="185" x="855.85" y="541.752">getCustomerById(id: number)</text><ellipse cx="846.85" cy="555.1328" fill="#84BE84" rx="3" ry="3" style="stroke:#038048;stroke-width:1.0;"/><text fill="#000000" font-family="sans-serif" font-size="14" lengthAdjust="spacing" textLength="245" x="855.85" y="559.3613">createCustomer(customerData: object)</text><ellipse cx="846.85" cy="572.7422" fill="#84BE84" rx="3" ry="3" style="stroke:#038048;stroke-width:1.0;"/><text fill="#000000" font-family="sans-serif" font-size="14" lengthAdjust="spacing" textLength="264" x="855.85" y="576.9707">updateCustomer(id: number, data: object)</text><ellipse cx="846.85" cy="590.3516" fill="#84BE84" rx="3" ry="3" style="stroke:#038048;stroke-width:1.0;"/><text fill="#000000" font-family="sans-serif" font-size="14" lengthAdjust="spacing" textLength="177" x="855.85" y="594.5801">deleteCustomer(id: number)</text><ellipse cx="846.85" cy="607.9609" fill="#84BE84" rx="3" ry="3" style="stroke:#038048;stroke-width:1.0;"/><text fill="#000000" font-family="sans-serif" font-size="14" lengthAdjust="spacing" textLength="288" x="855.85" y="612.1895">loginCustomer(email: string, password: string)</text><ellipse cx="846.85" cy="625.5703" fill="#84BE84" rx="3" ry="3" style="stroke:#038048;stroke-width:1.0;"/><text fill="#000000" font-family="sans-serif" font-size="14" lengthAdjust="spacing" textLength="108" x="855.85" y="629.7988">getAllManagers()</text><ellipse cx="846.85" cy="643.1797" fill="#84BE84" rx="3" ry="3" style="stroke:#038048;stroke-width:1.0;"/><text fill="#000000" font-family="sans-serif" font-size="14" lengthAdjust="spacing" textLength="180" x="855.85" y="647.4082">getManagerById(id: number)</text><ellipse cx="846.85" cy="660.7891" fill="#84BE84" rx="3" ry="3" style="stroke:#038048;stroke-width:1.0;"/><text fill="#000000" font-family="sans-serif" font-size="14" lengthAdjust="spacing" textLength="238" x="855.85" y="665.0176">createManager(managerData: object)</text><ellipse cx="846.85" cy="678.3984" fill="#84BE84" rx="3" ry="3" style="stroke:#038048;stroke-width:1.0;"/><text fill="#000000" font-family="sans-serif" font-size="14" lengthAdjust="spacing" textLength="259" x="855.85" y="682.627">updateManager(id: number, data: object)</text><ellipse cx="846.85" cy="696.0078" fill="#84BE84" rx="3" ry="3" style="stroke:#038048;stroke-width:1.0;"/><text fill="#000000" font-family="sans-serif" font-size="14" lengthAdjust="spacing" textLength="172" x="855.85" y="700.2363">deleteManager(id: number)</text><ellipse cx="846.85" cy="713.6172" fill="#84BE84" rx="3" ry="3" style="stroke:#038048;stroke-width:1.0;"/><text fill="#000000" font-family="sans-serif" font-size="14" lengthAdjust="spacing" textLength="283" x="855.85" y="717.8457">loginManager(email: string, password: string)</text></g><!--class UsersController--><g id="elem_UsersController"><rect codeLine="40" fill="#F1F1F1" height="83.2188" id="UsersController" rx="2.5" ry="2.5" style="stroke:#181818;stroke-width:0.5;" width="209" x="1185.35" y="545"/><ellipse cx="1236.6" cy="561" fill="#ADD1B2" rx="11" ry="11" style="stroke:#181818;stroke-width:1.0;"/><path d="M1239.3656,556.875 Q1239.5219,556.6563 1239.7094,556.5469 Q1239.8969,556.4375 1240.1156,556.4375 Q1240.4906,556.4375 1240.725,556.7031 Q1240.9594,556.9531 1240.9594,557.5625 L1240.9594,559.0156 Q1240.9594,559.625 1240.725,559.8906 Q1240.4906,560.1563 1240.1156,560.1563 Q1239.7719,560.1563 1239.5688,559.9531 Q1239.3656,559.7656 1239.2563,559.25 Q1239.2094,558.8906 1239.0219,558.7031 Q1238.6938,558.3281 1238.0844,558.1094 Q1237.475,557.8906 1236.85,557.8906 Q1236.0844,557.8906 1235.4438,558.2188 Q1234.8188,558.5469 1234.3188,559.2969 Q1233.8344,560.0469 1233.8344,561.0781 L1233.8344,562.1719 Q1233.8344,563.4063 1234.725,564.2344 Q1235.6156,565.0469 1237.2094,565.0469 Q1238.1469,565.0469 1238.8031,564.7969 Q1239.1938,564.6406 1239.6156,564.2031 Q1239.8813,563.9375 1240.0219,563.8594 Q1240.1781,563.7813 1240.3813,563.7813 Q1240.7094,563.7813 1240.9594,564.0469 Q1241.225,564.2969 1241.225,564.6406 Q1241.225,564.9844 1240.8813,565.3906 Q1240.3813,565.9688 1239.5844,566.2969 Q1238.5063,566.75 1237.2094,566.75 Q1235.6938,566.75 1234.4906,566.125 Q1233.5063,565.625 1232.8188,564.5625 Q1232.1313,563.4844 1232.1313,562.2031 L1232.1313,561.0469 Q1232.1313,559.7188 1232.7406,558.5781 Q1233.3656,557.4219 1234.4594,556.8125 Q1235.5531,556.1875 1236.7875,556.1875 Q1237.5219,556.1875 1238.1625,556.3594 Q1238.8188,556.5156 1239.3656,556.875 Z " fill="#000000"/><text fill="#000000" font-family="sans-serif" font-size="14" lengthAdjust="spacing" textLength="98" x="1257.1" y="566.7285">UsersController</text><line style="stroke:#181818;stroke-width:0.5;" x1="1186.35" x2="1393.35" y1="577" y2="577"/><line style="stroke:#181818;stroke-width:0.5;" x1="1186.35" x2="1393.35" y1="585" y2="585"/><ellipse cx="1196.35" cy="599.3047" fill="#84BE84" rx="3" ry="3" style="stroke:#038048;stroke-width:1.0;"/><text fill="#000000" font-family="sans-serif" font-size="14" lengthAdjust="spacing" textLength="81" x="1205.35" y="603.5332">getAllUsers()</text><ellipse cx="1196.35" cy="616.9141" fill="#84BE84" rx="3" ry="3" style="stroke:#038048;stroke-width:1.0;"/><text fill="#000000" font-family="sans-serif" font-size="14" lengthAdjust="spacing" textLength="183" x="1205.35" y="621.1426">createUser(userData: object)</text></g><!--class ContentNegotiation--><g id="elem_ContentNegotiation"><rect codeLine="48" fill="#F1F1F1" height="65.6094" id="ContentNegotiation" rx="2.5" ry="2.5" style="stroke:#181818;stroke-width:0.5;" width="385" x="100.35" y="59.5"/><ellipse cx="228.1" cy="75.5" fill="#ADD1B2" rx="11" ry="11" style="stroke:#181818;stroke-width:1.0;"/><path d="M230.8656,71.375 Q231.0219,71.1563 231.2094,71.0469 Q231.3969,70.9375 231.6156,70.9375 Q231.9906,70.9375 232.225,71.2031 Q232.4594,71.4531 232.4594,72.0625 L232.4594,73.5156 Q232.4594,74.125 232.225,74.3906 Q231.9906,74.6563 231.6156,74.6563 Q231.2719,74.6563 231.0688,74.4531 Q230.8656,74.2656 230.7563,73.75 Q230.7094,73.3906 230.5219,73.2031 Q230.1938,72.8281 229.5844,72.6094 Q228.975,72.3906 228.35,72.3906 Q227.5844,72.3906 226.9438,72.7188 Q226.3188,73.0469 225.8188,73.7969 Q225.3344,74.5469 225.3344,75.5781 L225.3344,76.6719 Q225.3344,77.9063 226.225,78.7344 Q227.1156,79.5469 228.7094,79.5469 Q229.6469,79.5469 230.3031,79.2969 Q230.6938,79.1406 231.1156,78.7031 Q231.3813,78.4375 231.5219,78.3594 Q231.6781,78.2813 231.8813,78.2813 Q232.2094,78.2813 232.4594,78.5469 Q232.725,78.7969 232.725,79.1406 Q232.725,79.4844 232.3813,79.8906 Q231.8813,80.4688 231.0844,80.7969 Q230.0063,81.25 228.7094,81.25 Q227.1938,81.25 225.9906,80.625 Q225.0063,80.125 224.3188,79.0625 Q223.6313,77.9844 223.6313,76.7031 L223.6313,75.5469 Q223.6313,74.2188 224.2406,73.0781 Q224.8656,71.9219 225.9594,71.3125 Q227.0531,70.6875 228.2875,70.6875 Q229.0219,70.6875 229.6625,70.8594 Q230.3188,71.0156 230.8656,71.375 Z " fill="#000000"/><text fill="#000000" font-family="sans-serif" font-size="14" lengthAdjust="spacing" textLength="121" x="248.6" y="81.2285">ContentNegotiation</text><line style="stroke:#181818;stroke-width:0.5;" x1="101.35" x2="484.35" y1="91.5" y2="91.5"/><line style="stroke:#181818;stroke-width:0.5;" x1="101.35" x2="484.35" y1="99.5" y2="99.5"/><ellipse cx="111.35" cy="113.8047" fill="#84BE84" rx="3" ry="3" style="stroke:#038048;stroke-width:1.0;"/><text fill="#000000" font-family="sans-serif" font-size="14" lengthAdjust="spacing" textLength="359" x="120.35" y="118.0332">handle(req: Request, res: Response, next: NextFunction)</text></g><!--class Logger--><g id="elem_Logger"><rect codeLine="52" fill="#F1F1F1" height="100.8281" id="Logger" rx="2.5" ry="2.5" style="stroke:#181818;stroke-width:0.5;" width="170" x="975.85" y="42"/><ellipse cx="1034.1" cy="58" fill="#ADD1B2" rx="11" ry="11" style="stroke:#181818;stroke-width:1.0;"/><path d="M1036.8656,53.875 Q1037.0219,53.6563 1037.2094,53.5469 Q1037.3969,53.4375 1037.6156,53.4375 Q1037.9906,53.4375 1038.225,53.7031 Q1038.4594,53.9531 1038.4594,54.5625 L1038.4594,56.0156 Q1038.4594,56.625 1038.225,56.8906 Q1037.9906,57.1563 1037.6156,57.1563 Q1037.2719,57.1563 1037.0688,56.9531 Q1036.8656,56.7656 1036.7563,56.25 Q1036.7094,55.8906 1036.5219,55.7031 Q1036.1938,55.3281 1035.5844,55.1094 Q1034.975,54.8906 1034.35,54.8906 Q1033.5844,54.8906 1032.9438,55.2188 Q1032.3188,55.5469 1031.8188,56.2969 Q1031.3344,57.0469 1031.3344,58.0781 L1031.3344,59.1719 Q1031.3344,60.4063 1032.225,61.2344 Q1033.1156,62.0469 1034.7094,62.0469 Q1035.6469,62.0469 1036.3031,61.7969 Q1036.6938,61.6406 1037.1156,61.2031 Q1037.3813,60.9375 1037.5219,60.8594 Q1037.6781,60.7813 1037.8813,60.7813 Q1038.2094,60.7813 1038.4594,61.0469 Q1038.725,61.2969 1038.725,61.6406 Q1038.725,61.9844 1038.3813,62.3906 Q1037.8813,62.9688 1037.0844,63.2969 Q1036.0063,63.75 1034.7094,63.75 Q1033.1938,63.75 1031.9906,63.125 Q1031.0063,62.625 1030.3188,61.5625 Q1029.6313,60.4844 1029.6313,59.2031 L1029.6313,58.0469 Q1029.6313,56.7188 1030.2406,55.5781 Q1030.8656,54.4219 1031.9594,53.8125 Q1033.0531,53.1875 1034.2875,53.1875 Q1035.0219,53.1875 1035.6625,53.3594 Q1036.3188,53.5156 1036.8656,53.875 Z " fill="#000000"/><text fill="#000000" font-family="sans-serif" font-size="14" lengthAdjust="spacing" textLength="45" x="1054.6" y="63.7285">Logger</text><line style="stroke:#181818;stroke-width:0.5;" x1="976.85" x2="1144.85" y1="74" y2="74"/><line style="stroke:#181818;stroke-width:0.5;" x1="976.85" x2="1144.85" y1="82" y2="82"/><ellipse cx="986.85" cy="96.3047" fill="#84BE84" rx="3" ry="3" style="stroke:#038048;stroke-width:1.0;"/><text fill="#000000" font-family="sans-serif" font-size="14" lengthAdjust="spacing" textLength="136" x="995.85" y="100.5332">info(message: object)</text><ellipse cx="986.85" cy="113.9141" fill="#84BE84" rx="3" ry="3" style="stroke:#038048;stroke-width:1.0;"/><text fill="#000000" font-family="sans-serif" font-size="14" lengthAdjust="spacing" textLength="144" x="995.85" y="118.1426">error(message: object)</text><ellipse cx="986.85" cy="131.5234" fill="#84BE84" rx="3" ry="3" style="stroke:#038048;stroke-width:1.0;"/><text fill="#000000" font-family="sans-serif" font-size="14" lengthAdjust="spacing" textLength="143" x="995.85" y="135.752">warn(message: object)</text></g><!--class Metrics--><g id="elem_Metrics"><rect codeLine="58" fill="#F1F1F1" height="100.8281" id="Metrics" rx="2.5" ry="2.5" style="stroke:#181818;stroke-width:0.5;" width="401" x="1181.35" y="42"/><ellipse cx="1355.1" cy="58" fill="#ADD1B2" rx="11" ry="11" style="stroke:#181818;stroke-width:1.0;"/><path d="M1357.8656,53.875 Q1358.0219,53.6563 1358.2094,53.5469 Q1358.3969,53.4375 1358.6156,53.4375 Q1358.9906,53.4375 1359.225,53.7031 Q1359.4594,53.9531 1359.4594,54.5625 L1359.4594,56.0156 Q1359.4594,56.625 1359.225,56.8906 Q1358.9906,57.1563 1358.6156,57.1563 Q1358.2719,57.1563 1358.0688,56.9531 Q1357.8656,56.7656 1357.7563,56.25 Q1357.7094,55.8906 1357.5219,55.7031 Q1357.1938,55.3281 1356.5844,55.1094 Q1355.975,54.8906 1355.35,54.8906 Q1354.5844,54.8906 1353.9438,55.2188 Q1353.3188,55.5469 1352.8188,56.2969 Q1352.3344,57.0469 1352.3344,58.0781 L1352.3344,59.1719 Q1352.3344,60.4063 1353.225,61.2344 Q1354.1156,62.0469 1355.7094,62.0469 Q1356.6469,62.0469 1357.3031,61.7969 Q1357.6938,61.6406 1358.1156,61.2031 Q1358.3813,60.9375 1358.5219,60.8594 Q1358.6781,60.7813 1358.8813,60.7813 Q1359.2094,60.7813 1359.4594,61.0469 Q1359.725,61.2969 1359.725,61.6406 Q1359.725,61.9844 1359.3813,62.3906 Q1358.8813,62.9688 1358.0844,63.2969 Q1357.0063,63.75 1355.7094,63.75 Q1354.1938,63.75 1352.9906,63.125 Q1352.0063,62.625 1351.3188,61.5625 Q1350.6313,60.4844 1350.6313,59.2031 L1350.6313,58.0469 Q1350.6313,56.7188 1351.2406,55.5781 Q1351.8656,54.4219 1352.9594,53.8125 Q1354.0531,53.1875 1355.2875,53.1875 Q1356.0219,53.1875 1356.6625,53.3594 Q1357.3188,53.5156 1357.8656,53.875 Z " fill="#000000"/><text fill="#000000" font-family="sans-serif" font-size="14" lengthAdjust="spacing" textLength="45" x="1375.6" y="63.7285">Metrics</text><line style="stroke:#181818;stroke-width:0.5;" x1="1182.35" x2="1581.35" y1="74" y2="74"/><line style="stroke:#181818;stroke-width:0.5;" x1="1182.35" x2="1581.35" y1="82" y2="82"/><ellipse cx="1192.35" cy="96.3047" fill="#84BE84" rx="3" ry="3" style="stroke:#038048;stroke-width:1.0;"/><text fill="#000000" font-family="sans-serif" font-size="14" lengthAdjust="spacing" textLength="196" x="1201.35" y="100.5332">recordLogin(success: boolean)</text><ellipse cx="1192.35" cy="113.9141" fill="#84BE84" rx="3" ry="3" style="stroke:#038048;stroke-width:1.0;"/><text fill="#000000" font-family="sans-serif" font-size="14" lengthAdjust="spacing" textLength="237" x="1201.35" y="118.1426">recordRegistration(success: boolean)</text><ellipse cx="1192.35" cy="131.5234" fill="#84BE84" rx="3" ry="3" style="stroke:#038048;stroke-width:1.0;"/><text fill="#000000" font-family="sans-serif" font-size="14" lengthAdjust="spacing" textLength="375" x="1201.35" y="135.752">recordRequest(method: string, path: string, status: number)</text></g><!--class StaticTokenAuth--><g id="elem_StaticTokenAuth"><rect codeLine="64" fill="#F1F1F1" height="65.6094" id="StaticTokenAuth" rx="2.5" ry="2.5" style="stroke:#181818;stroke-width:0.5;" width="420" x="520.85" y="59.5"/><ellipse cx="674.6" cy="75.5" fill="#ADD1B2" rx="11" ry="11" style="stroke:#181818;stroke-width:1.0;"/><path d="M677.3656,71.375 Q677.5219,71.1563 677.7094,71.0469 Q677.8969,70.9375 678.1156,70.9375 Q678.4906,70.9375 678.725,71.2031 Q678.9594,71.4531 678.9594,72.0625 L678.9594,73.5156 Q678.9594,74.125 678.725,74.3906 Q678.4906,74.6563 678.1156,74.6563 Q677.7719,74.6563 677.5688,74.4531 Q677.3656,74.2656 677.2563,73.75 Q677.2094,73.3906 677.0219,73.2031 Q676.6938,72.8281 676.0844,72.6094 Q675.475,72.3906 674.85,72.3906 Q674.0844,72.3906 673.4438,72.7188 Q672.8188,73.0469 672.3188,73.7969 Q671.8344,74.5469 671.8344,75.5781 L671.8344,76.6719 Q671.8344,77.9063 672.725,78.7344 Q673.6156,79.5469 675.2094,79.5469 Q676.1469,79.5469 676.8031,79.2969 Q677.1938,79.1406 677.6156,78.7031 Q677.8813,78.4375 678.0219,78.3594 Q678.1781,78.2813 678.3813,78.2813 Q678.7094,78.2813 678.9594,78.5469 Q679.225,78.7969 679.225,79.1406 Q679.225,79.4844 678.8813,79.8906 Q678.3813,80.4688 677.5844,80.7969 Q676.5063,81.25 675.2094,81.25 Q673.6938,81.25 672.4906,80.625 Q671.5063,80.125 670.8188,79.0625 Q670.1313,77.9844 670.1313,76.7031 L670.1313,75.5469 Q670.1313,74.2188 670.7406,73.0781 Q671.3656,71.9219 672.4594,71.3125 Q673.5531,70.6875 674.7875,70.6875 Q675.5219,70.6875 676.1625,70.8594 Q676.8188,71.0156 677.3656,71.375 Z " fill="#000000"/><text fill="#000000" font-family="sans-serif" font-size="14" lengthAdjust="spacing" textLength="104" x="695.1" y="81.2285">StaticTokenAuth</text><line style="stroke:#181818;stroke-width:0.5;" x1="521.85" x2="939.85" y1="91.5" y2="91.5"/><line style="stroke:#181818;stroke-width:0.5;" x1="521.85" x2="939.85" y1="99.5" y2="99.5"/><ellipse cx="531.85" cy="113.8047" fill="#84BE84" rx="3" ry="3" style="stroke:#038048;stroke-width:1.0;"/><text fill="#000000" font-family="sans-serif" font-size="14" lengthAdjust="spacing" textLength="394" x="540.85" y="118.0332">authenticate(req: Request, res: Response, next: NextFunction)</text></g><!--class CustomersRouter--><g id="elem_CustomersRouter"><rect codeLine="71" fill="#F1F1F1" height="100.8281" id="CustomersRouter" rx="2.5" ry="2.5" style="stroke:#181818;stroke-width:0.5;" width="189" x="455.35" y="245"/><ellipse cx="491.05" cy="261" fill="#ADD1B2" rx="11" ry="11" style="stroke:#181818;stroke-width:1.0;"/><path d="M493.8156,256.875 Q493.9719,256.6563 494.1594,256.5469 Q494.3469,256.4375 494.5656,256.4375 Q494.9406,256.4375 495.175,256.7031 Q495.4094,256.9531 495.4094,257.5625 L495.4094,259.0156 Q495.4094,259.625 495.175,259.8906 Q494.9406,260.1563 494.5656,260.1563 Q494.2219,260.1563 494.0188,259.9531 Q493.8156,259.7656 493.7063,259.25 Q493.6594,258.8906 493.4719,258.7031 Q493.1438,258.3281 492.5344,258.1094 Q491.925,257.8906 491.3,257.8906 Q490.5344,257.8906 489.8938,258.2188 Q489.2688,258.5469 488.7688,259.2969 Q488.2844,260.0469 488.2844,261.0781 L488.2844,262.1719 Q488.2844,263.4063 489.175,264.2344 Q490.0656,265.0469 491.6594,265.0469 Q492.5969,265.0469 493.2531,264.7969 Q493.6438,264.6406 494.0656,264.2031 Q494.3313,263.9375 494.4719,263.8594 Q494.6281,263.7813 494.8313,263.7813 Q495.1594,263.7813 495.4094,264.0469 Q495.675,264.2969 495.675,264.6406 Q495.675,264.9844 495.3313,265.3906 Q494.8313,265.9688 494.0344,266.2969 Q492.9563,266.75 491.6594,266.75 Q490.1438,266.75 488.9406,266.125 Q487.9563,265.625 487.2688,264.5625 Q486.5813,263.4844 486.5813,262.2031 L486.5813,261.0469 Q486.5813,259.7188 487.1906,258.5781 Q487.8156,257.4219 488.9094,256.8125 Q490.0031,256.1875 491.2375,256.1875 Q491.9719,256.1875 492.6125,256.3594 Q493.2688,256.5156 493.8156,256.875 Z " fill="#000000"/><text fill="#000000" font-family="sans-serif" font-size="14" lengthAdjust="spacing" textLength="111" x="509.65" y="266.7285">CustomersRouter</text><line style="stroke:#181818;stroke-width:0.5;" x1="456.35" x2="643.35" y1="277" y2="277"/><ellipse cx="466.35" cy="291.3047" fill="none" rx="3" ry="3" style="stroke:#038048;stroke-width:1.0;"/><text fill="#000000" font-family="sans-serif" font-size="14" lengthAdjust="spacing" textLength="144" x="475.35" y="295.5332">GET /api/v1/customers</text><ellipse cx="466.35" cy="308.9141" fill="none" rx="3" ry="3" style="stroke:#038048;stroke-width:1.0;"/><text fill="#000000" font-family="sans-serif" font-size="14" lengthAdjust="spacing" textLength="153" x="475.35" y="313.1426">POST /api/v1/customers</text><ellipse cx="466.35" cy="326.5234" fill="none" rx="3" ry="3" style="stroke:#038048;stroke-width:1.0;"/><text fill="#000000" font-family="sans-serif" font-size="14" lengthAdjust="spacing" textLength="163" x="475.35" y="330.752">GET /api/v1/customers/:id</text><line style="stroke:#181818;stroke-width:0.5;" x1="456.35" x2="643.35" y1="337.8281" y2="337.8281"/></g><!--class ManagersRouter--><g id="elem_ManagersRouter"><rect codeLine="77" fill="#F1F1F1" height="100.8281" id="ManagersRouter" rx="2.5" ry="2.5" style="stroke:#181818;stroke-width:0.5;" width="187" x="233.35" y="245"/><ellipse cx="270.4" cy="261" fill="#ADD1B2" rx="11" ry="11" style="stroke:#181818;stroke-width:1.0;"/><path d="M273.1656,256.875 Q273.3219,256.6563 273.5094,256.5469 Q273.6969,256.4375 273.9156,256.4375 Q274.2906,256.4375 274.525,256.7031 Q274.7594,256.9531 274.7594,257.5625 L274.7594,259.0156 Q274.7594,259.625 274.525,259.8906 Q274.2906,260.1563 273.9156,260.1563 Q273.5719,260.1563 273.3688,259.9531 Q273.1656,259.7656 273.0563,259.25 Q273.0094,258.8906 272.8219,258.7031 Q272.4938,258.3281 271.8844,258.1094 Q271.275,257.8906 270.65,257.8906 Q269.8844,257.8906 269.2438,258.2188 Q268.6188,258.5469 268.1188,259.2969 Q267.6344,260.0469 267.6344,261.0781 L267.6344,262.1719 Q267.6344,263.4063 268.525,264.2344 Q269.4156,265.0469 271.0094,265.0469 Q271.9469,265.0469 272.6031,264.7969 Q272.9938,264.6406 273.4156,264.2031 Q273.6813,263.9375 273.8219,263.8594 Q273.9781,263.7813 274.1813,263.7813 Q274.5094,263.7813 274.7594,264.0469 Q275.025,264.2969 275.025,264.6406 Q275.025,264.9844 274.6813,265.3906 Q274.1813,265.9688 273.3844,266.2969 Q272.3063,266.75 271.0094,266.75 Q269.4938,266.75 268.2906,266.125 Q267.3063,265.625 266.6188,264.5625 Q265.9313,263.4844 265.9313,262.2031 L265.9313,261.0469 Q265.9313,259.7188 266.5406,258.5781 Q267.1656,257.4219 268.2594,256.8125 Q269.3531,256.1875 270.5875,256.1875 Q271.3219,256.1875 271.9625,256.3594 Q272.6188,256.5156 273.1656,256.875 Z " fill="#000000"/><text fill="#000000" font-family="sans-serif" font-size="14" lengthAdjust="spacing" textLength="106" x="289.3" y="266.7285">ManagersRouter</text><line style="stroke:#181818;stroke-width:0.5;" x1="234.35" x2="419.35" y1="277" y2="277"/><ellipse cx="244.35" cy="291.3047" fill="none" rx="3" ry="3" style="stroke:#038048;stroke-width:1.0;"/><text fill="#000000" font-family="sans-serif" font-size="14" lengthAdjust="spacing" textLength="142" x="253.35" y="295.5332">GET /api/v1/managers</text><ellipse cx="244.35" cy="308.9141" fill="none" rx="3" ry="3" style="stroke:#038048;stroke-width:1.0;"/><text fill="#000000" font-family="sans-serif" font-size="14" lengthAdjust="spacing" textLength="151" x="253.35" y="313.1426">POST /api/v1/managers</text><ellipse cx="244.35" cy="326.5234" fill="none" rx="3" ry="3" style="stroke:#038048;stroke-width:1.0;"/><text fill="#000000" font-family="sans-serif" font-size="14" lengthAdjust="spacing" textLength="161" x="253.35" y="330.752">GET /api/v1/managers/:id</text><line style="stroke:#181818;stroke-width:0.5;" x1="234.35" x2="419.35" y1="337.8281" y2="337.8281"/></g><!--class UsersRouter--><g id="elem_UsersRouter"><rect codeLine="83" fill="#F1F1F1" height="83.2188" id="UsersRouter" rx="2.5" ry="2.5" style="stroke:#181818;stroke-width:0.5;" width="313" x="679.35" y="254"/><ellipse cx="792.1" cy="270" fill="#ADD1B2" rx="11" ry="11" style="stroke:#181818;stroke-width:1.0;"/><path d="M794.8656,265.875 Q795.0219,265.6563 795.2094,265.5469 Q795.3969,265.4375 795.6156,265.4375 Q795.9906,265.4375 796.225,265.7031 Q796.4594,265.9531 796.4594,266.5625 L796.4594,268.0156 Q796.4594,268.625 796.225,268.8906 Q795.9906,269.1563 795.6156,269.1563 Q795.2719,269.1563 795.0688,268.9531 Q794.8656,268.7656 794.7563,268.25 Q794.7094,267.8906 794.5219,267.7031 Q794.1938,267.3281 793.5844,267.1094 Q792.975,266.8906 792.35,266.8906 Q791.5844,266.8906 790.9438,267.2188 Q790.3188,267.5469 789.8188,268.2969 Q789.3344,269.0469 789.3344,270.0781 L789.3344,271.1719 Q789.3344,272.4063 790.225,273.2344 Q791.1156,274.0469 792.7094,274.0469 Q793.6469,274.0469 794.3031,273.7969 Q794.6938,273.6406 795.1156,273.2031 Q795.3813,272.9375 795.5219,272.8594 Q795.6781,272.7813 795.8813,272.7813 Q796.2094,272.7813 796.4594,273.0469 Q796.725,273.2969 796.725,273.6406 Q796.725,273.9844 796.3813,274.3906 Q795.8813,274.9688 795.0844,275.2969 Q794.0063,275.75 792.7094,275.75 Q791.1938,275.75 789.9906,275.125 Q789.0063,274.625 788.3188,273.5625 Q787.6313,272.4844 787.6313,271.2031 L787.6313,270.0469 Q787.6313,268.7188 788.2406,267.5781 Q788.8656,266.4219 789.9594,265.8125 Q791.0531,265.1875 792.2875,265.1875 Q793.0219,265.1875 793.6625,265.3594 Q794.3188,265.5156 794.8656,265.875 Z " fill="#000000"/><text fill="#000000" font-family="sans-serif" font-size="14" lengthAdjust="spacing" textLength="79" x="812.6" y="275.7285">UsersRouter</text><line style="stroke:#181818;stroke-width:0.5;" x1="680.35" x2="991.35" y1="286" y2="286"/><ellipse cx="690.35" cy="300.3047" fill="none" rx="3" ry="3" style="stroke:#038048;stroke-width:1.0;"/><text fill="#000000" font-family="sans-serif" font-size="14" lengthAdjust="spacing" textLength="114" x="699.35" y="304.5332">GET /api/v1/users</text><ellipse cx="690.35" cy="317.9141" fill="none" rx="3" ry="3" style="stroke:#038048;stroke-width:1.0;"/><text fill="#000000" font-family="sans-serif" font-size="14" lengthAdjust="spacing" textLength="287" x="699.35" y="322.1426">GET /api/v1/users/:email/password/:password</text><line style="stroke:#181818;stroke-width:0.5;" x1="680.35" x2="991.35" y1="329.2188" y2="329.2188"/></g><!--class ManagersController--><g id="elem_ManagersController"><rect fill="#F1F1F1" height="48" id="ManagersController" rx="2.5" ry="2.5" style="stroke:#181818;stroke-width:0.5;" width="157" x="113.35" y="562.5"/><ellipse cx="128.35" cy="578.5" fill="#ADD1B2" rx="11" ry="11" style="stroke:#181818;stroke-width:1.0;"/><path d="M131.1156,574.375 Q131.2719,574.1563 131.4594,574.0469 Q131.6469,573.9375 131.8656,573.9375 Q132.2406,573.9375 132.475,574.2031 Q132.7094,574.4531 132.7094,575.0625 L132.7094,576.5156 Q132.7094,577.125 132.475,577.3906 Q132.2406,577.6563 131.8656,577.6563 Q131.5219,577.6563 131.3188,577.4531 Q131.1156,577.2656 131.0063,576.75 Q130.9594,576.3906 130.7719,576.2031 Q130.4438,575.8281 129.8344,575.6094 Q129.225,575.3906 128.6,575.3906 Q127.8344,575.3906 127.1938,575.7188 Q126.5688,576.0469 126.0688,576.7969 Q125.5844,577.5469 125.5844,578.5781 L125.5844,579.6719 Q125.5844,580.9063 126.475,581.7344 Q127.3656,582.5469 128.9594,582.5469 Q129.8969,582.5469 130.5531,582.2969 Q130.9438,582.1406 131.3656,581.7031 Q131.6313,581.4375 131.7719,581.3594 Q131.9281,581.2813 132.1313,581.2813 Q132.4594,581.2813 132.7094,581.5469 Q132.975,581.7969 132.975,582.1406 Q132.975,582.4844 132.6313,582.8906 Q132.1313,583.4688 131.3344,583.7969 Q130.2563,584.25 128.9594,584.25 Q127.4438,584.25 126.2406,583.625 Q125.2563,583.125 124.5688,582.0625 Q123.8813,580.9844 123.8813,579.7031 L123.8813,578.5469 Q123.8813,577.2188 124.4906,576.0781 Q125.1156,574.9219 126.2094,574.3125 Q127.3031,573.6875 128.5375,573.6875 Q129.2719,573.6875 129.9125,573.8594 Q130.5688,574.0156 131.1156,574.375 Z " fill="#000000"/><text fill="#000000" font-family="sans-serif" font-size="14" lengthAdjust="spacing" textLength="125" x="142.35" y="584.2285">ManagersController</text><line style="stroke:#181818;stroke-width:0.5;" x1="114.35" x2="269.35" y1="594.5" y2="594.5"/><line style="stroke:#181818;stroke-width:0.5;" x1="114.35" x2="269.35" y1="602.5" y2="602.5"/></g><!--link CustomersController to Customer--><g id="link_CustomersController_Customer"><path codeLine="90" d="M992.85,725.2 C992.85,765.95 992.85,802.75 992.85,836.88 " fill="none" id="CustomersController-to-Customer" style="stroke:#181818;stroke-width:1.0;"/><polygon fill="#181818" points="992.85,842.88,996.85,833.88,992.85,837.88,988.85,833.88,992.85,842.88" style="stroke:#181818;stroke-width:1.0;"/><text fill="#000000" font-family="sans-serif" font-size="13" lengthAdjust="spacing" textLength="53" x="993.85" y="771.4951">manages</text></g><!--link ManagersController to Manager--><g id="link_ManagersController_Manager"><path codeLine="91" d="M237.26,610.56 C347.68,666.64 625.3003,807.6433 754.8903,873.4533 " fill="none" id="ManagersController-to-Manager" style="stroke:#181818;stroke-width:1.0;"/><polygon fill="#181818" points="760.24,876.17,754.0266,868.5284,755.7819,873.906,750.4043,875.6613,760.24,876.17" style="stroke:#181818;stroke-width:1.0;"/><text fill="#000000" font-family="sans-serif" font-size="13" lengthAdjust="spacing" textLength="53" x="556.85" y="771.4951">manages</text></g><!--link UsersController to Auth Service Entities--><g id="link_UsersController_Auth Service Entities"><path codeLine="92" d="M1265.1,628.02 C1239.06,670.65 1196.925,739.625 1160.8475,798.685 C1142.8088,828.215 1126.2844,855.2662 1114.0434,875.3062 C1110.9832,880.3162 1108.1907,884.888 1105.7091,888.9508 C1104.4684,890.9822 1103.3054,892.8863 1102.2255,894.6544 C1101.9555,895.0964 1101.6907,895.5299 1101.4313,895.9547 C1101.3015,896.1671 1104.3005,891.2569 1104.1734,891.465 " fill="none" id="UsersController-to-Auth Service Entities" style="stroke:#181818;stroke-width:1.0;"/><polygon fill="#181818" points="1101.046,896.5855,1109.1508,890.9897,1103.6522,892.3184,1102.3235,886.8198,1101.046,896.5855" style="stroke:#181818;stroke-width:1.0;"/><text fill="#000000" font-family="sans-serif" font-size="13" lengthAdjust="spacing" textLength="53" x="1185.85" y="771.4951">manages</text></g><!--link CustomersRouter to CustomersController--><g id="link_CustomersRouter_CustomersController"><path codeLine="94" d="M625.43,346.16 C637.61,354.14 650.07,362.3 661.85,370 C718.53,407.05 775.7012,444.3072 830.7412,480.1272 " fill="none" id="CustomersRouter-to-CustomersController" style="stroke:#181818;stroke-width:1.0;"/><polygon fill="#181818" points="835.77,483.4,830.4086,475.1383,831.5793,480.6727,826.0449,481.8434,835.77,483.4" style="stroke:#181818;stroke-width:1.0;"/><text fill="#000000" font-family="sans-serif" font-size="13" lengthAdjust="spacing" textLength="51" x="697.85" y="392.4951">routes to</text></g><!--link ManagersRouter to ManagersController--><g id="link_ManagersRouter_ManagersController"><path codeLine="95" d="M303.64,346.18 C274.17,409.28 227.0494,510.1439 205.2294,556.8539 " fill="none" id="ManagersRouter-to-ManagersController" style="stroke:#181818;stroke-width:1.0;"/><polygon fill="#181818" points="202.69,562.29,210.1232,555.8288,204.8062,557.7599,202.875,552.4429,202.69,562.29" style="stroke:#181818;stroke-width:1.0;"/><text fill="#000000" font-family="sans-serif" font-size="13" lengthAdjust="spacing" textLength="51" x="287.85" y="392.4951">routes to</text></g><!--link UsersRouter to UsersController--><g id="link_UsersRouter_UsersController"><path codeLine="96" d="M929.39,337.1 C958.09,348.68 989.97,360.66 1019.85,370 C1084.27,390.13 1112.24,365.76 1167.85,404 C1218.84,439.07 1251.872,497.6002 1270.952,539.4702 " fill="none" id="UsersRouter-to-UsersController" style="stroke:#181818;stroke-width:1.0;"/><polygon fill="#181818" points="1273.44,544.93,1273.3479,535.0816,1271.3666,540.3801,1266.0681,538.3989,1273.44,544.93" style="stroke:#181818;stroke-width:1.0;"/><text fill="#000000" font-family="sans-serif" font-size="13" lengthAdjust="spacing" textLength="51" x="1155.85" y="392.4951">routes to</text></g><!--link ContentNegotiation to CustomersRouter--><g id="link_ContentNegotiation_CustomersRouter"><path codeLine="98" d="M391.48,125.64 C420.09,138.06 450.01,154.36 473.85,175 C495.97,194.15 511.0605,216.0561 523.9705,239.6561 " fill="none" id="ContentNegotiation-to-CustomersRouter" style="stroke:#181818;stroke-width:1.0;"/><polygon fill="#181818" points="526.85,244.92,526.04,235.1045,524.4504,240.5334,519.0215,238.9439,526.85,244.92" style="stroke:#181818;stroke-width:1.0;"/><text fill="#000000" font-family="sans-serif" font-size="13" lengthAdjust="spacing" textLength="60" x="490.85" y="189.4951">processes</text></g><!--link ContentNegotiation to ManagersRouter--><g id="link_ContentNegotiation_ManagersRouter"><path codeLine="99" d="M287.48,125.57 C285.12,145.19 283.72,170.72 287.85,193 C291.09,210.45 294.9806,223.1956 301.4306,239.3956 " fill="none" id="ContentNegotiation-to-ManagersRouter" style="stroke:#181818;stroke-width:1.0;"/><polygon fill="#181818" points="303.65,244.97,304.0371,235.1288,301.8005,240.3247,296.6046,238.088,303.65,244.97" style="stroke:#181818;stroke-width:1.0;"/><text fill="#000000" font-family="sans-serif" font-size="13" lengthAdjust="spacing" textLength="60" x="288.85" y="189.4951">processes</text></g><!--link ContentNegotiation to UsersRouter--><g id="link_ContentNegotiation_UsersRouter"><path codeLine="100" d="M367.55,125.55 C407.26,141.03 457.36,158.14 503.85,167 C545.8,175 656.1,159.39 695.85,175 C718.01,183.7 757.4518,218.6156 790.1918,249.7456 " fill="none" id="ContentNegotiation-to-UsersRouter" style="stroke:#181818;stroke-width:1.0;"/><polygon fill="#181818" points="794.54,253.88,790.7739,244.7796,790.9165,250.4347,785.2614,250.5772,794.54,253.88" style="stroke:#181818;stroke-width:1.0;"/><text fill="#000000" font-family="sans-serif" font-size="13" lengthAdjust="spacing" textLength="60" x="721.85" y="189.4951">processes</text></g><!--link Logger to CustomersController--><g id="link_Logger_CustomersController"><path codeLine="102" d="M1053.96,143.38 C1044.17,214.17 1026.7111,340.4864 1012.6911,441.9764 " fill="none" id="Logger-to-CustomersController" style="stroke:#181818;stroke-width:1.0;"/><polygon fill="#181818" points="1011.87,447.92,1017.064,439.552,1012.5542,442.967,1009.1392,438.4573,1011.87,447.92" style="stroke:#181818;stroke-width:1.0;"/><text fill="#000000" font-family="sans-serif" font-size="13" lengthAdjust="spacing" textLength="24" x="1045.85" y="300.9951">logs</text></g><!--link Logger to ManagersController--><g id="link_Logger_ManagersController"><path codeLine="103" d="M1004.68,143.18 C990.61,152.91 974.92,161.73 958.85,167 C914.56,181.53 164.69,162.27 119.85,175 C98.37,181.1 87.82,181.55 76.85,201 C6,326.63 121.2394,495.7515 169.3594,557.7015 " fill="none" id="Logger-to-ManagersController" style="stroke:#181818;stroke-width:1.0;"/><polygon fill="#181818" points="173.04,562.44,170.678,552.8786,169.9728,558.4913,164.3601,557.7861,173.04,562.44" style="stroke:#181818;stroke-width:1.0;"/><text fill="#000000" font-family="sans-serif" font-size="13" lengthAdjust="spacing" textLength="24" x="77.85" y="300.9951">logs</text></g><!--link Logger to UsersController--><g id="link_Logger_UsersController"><path codeLine="104" d="M1129.11,143.16 C1140.62,151.26 1152.51,159.46 1163.85,167 C1187.78,182.91 1202.63,177.28 1218.85,201 C1292.14,308.16 1295.7869,463.8047 1292.8269,538.7247 " fill="none" id="Logger-to-UsersController" style="stroke:#181818;stroke-width:1.0;"/><polygon fill="#181818" points="1292.59,544.72,1296.9422,535.8849,1292.7874,539.7239,1288.9484,535.5691,1292.59,544.72" style="stroke:#181818;stroke-width:1.0;"/><text fill="#000000" font-family="sans-serif" font-size="13" lengthAdjust="spacing" textLength="24" x="1281.85" y="300.9951">logs</text></g><!--link Metrics to CustomersController--><g id="link_Metrics_CustomersController"><path codeLine="106" d="M1239.97,143.09 C1210.49,158.25 1181.54,177.35 1158.85,201 C1149.4,210.85 1096.1662,336.0509 1051.8962,442.3809 " fill="none" id="Metrics-to-CustomersController" style="stroke:#181818;stroke-width:1.0;"/><polygon fill="#181818" points="1049.59,447.92,1056.742,441.1488,1051.5118,443.3041,1049.3565,438.0739,1049.59,447.92" style="stroke:#181818;stroke-width:1.0;"/><text fill="#000000" font-family="sans-serif" font-size="13" lengthAdjust="spacing" textLength="50" x="1159.85" y="300.9951">monitors</text></g><!--link Metrics to ManagersController--><g id="link_Metrics_ManagersController"><path codeLine="107" d="M1257.07,143.08 C1227.01,152.91 1194.67,161.8 1163.85,167 C1066.66,183.39 374.72,163.34 276.85,175 C226.11,181.04 196.64,160.99 164.85,201 C77.85,310.51 148.401,492.0352 178.161,556.9952 " fill="none" id="Metrics-to-ManagersController" style="stroke:#181818;stroke-width:1.0;"/><polygon fill="#181818" points="180.66,562.45,180.548,552.6018,178.5775,557.9043,173.275,555.9338,180.66,562.45" style="stroke:#181818;stroke-width:1.0;"/><text fill="#000000" font-family="sans-serif" font-size="13" lengthAdjust="spacing" textLength="50" x="165.85" y="300.9951">monitors</text></g><!--link Metrics to UsersController--><g id="link_Metrics_UsersController"><path codeLine="108" d="M1372.52,143.38 C1354.27,240.98 1315.2727,449.5522 1298.5327,539.0822 " fill="none" id="Metrics-to-UsersController" style="stroke:#181818;stroke-width:1.0;"/><polygon fill="#181818" points="1297.43,544.98,1303.016,536.8685,1298.349,540.0652,1295.1523,535.3981,1297.43,544.98" style="stroke:#181818;stroke-width:1.0;"/><text fill="#000000" font-family="sans-serif" font-size="13" lengthAdjust="spacing" textLength="50" x="1360.85" y="300.9951">monitors</text></g><!--link StaticTokenAuth to CustomersRouter--><g id="link_StaticTokenAuth_CustomersRouter"><path codeLine="110" d="M672.15,125.53 C651.33,138.88 628.86,155.78 611.85,175 C593.8,195.39 581.8201,216.5066 571.4201,239.4166 " fill="none" id="StaticTokenAuth-to-CustomersRouter" style="stroke:#181818;stroke-width:1.0;"/><polygon fill="#181818" points="568.94,244.88,576.3025,238.3383,571.0068,240.3271,569.0179,235.0315,568.94,244.88" style="stroke:#181818;stroke-width:1.0;"/><text fill="#000000" font-family="sans-serif" font-size="13" lengthAdjust="spacing" textLength="78" x="612.85" y="189.4951">authenticates</text></g><!--link StaticTokenAuth to ManagersRouter--><g id="link_StaticTokenAuth_ManagersRouter"><path codeLine="111" d="M648.2,125.52 C605.46,140.69 552.06,157.53 502.85,167 C477.26,171.92 407.5,160.5 385.85,175 C361.92,191.03 349.2619,214.0564 340.5719,239.3164 " fill="none" id="StaticTokenAuth-to-ManagersRouter" style="stroke:#181818;stroke-width:1.0;"/><polygon fill="#181818" points="338.62,244.99,345.3302,237.7808,340.2465,240.262,337.7654,235.1783,338.62,244.99" style="stroke:#181818;stroke-width:1.0;"/><text fill="#000000" font-family="sans-serif" font-size="13" lengthAdjust="spacing" textLength="78" x="386.85" y="189.4951">authenticates</text></g><!--link StaticTokenAuth to UsersRouter--><g id="link_StaticTokenAuth_UsersRouter"><path codeLine="112" d="M761.98,125.52 C774.5,139.76 788.23,157.3 797.85,175 C811.32,199.77 819.379,224.2508 825.549,248.1308 " fill="none" id="StaticTokenAuth-to-UsersRouter" style="stroke:#181818;stroke-width:1.0;"/><polygon fill="#181818" points="827.05,253.94,828.6714,244.2255,825.7992,249.099,820.9257,246.2268,827.05,253.94" style="stroke:#181818;stroke-width:1.0;"/><text fill="#000000" font-family="sans-serif" font-size="13" lengthAdjust="spacing" textLength="78" x="805.85" y="189.4951">authenticates</text></g><!--SRC=[lPPDRzGm48Rl-HLMBsJ5LX5N7v1AMn1IMz1kEIElCsHD4plrE2q8zR_ZfCd6ZftiYWDxs0_x6VlrEvFnrem_i0B8sKLZzcGB-abm8DVI22C0pyYVXDXNzyPBXaWk6pIg0jtFjA-tHEIKoARQWNO69Qk04ZHQoC8PXeg9CZ9UszMVbSuZKvnfytsonyjKs2sJzY3_LPTrGaCex2L9wi7MIoMDLcK9UibC735FVm7ceYmFLBhovuQ93xy_v-aemwMu1cPW05FUVxbYXb6YTZ-16nTlwjp5npNN99y9oQ64Q8WBbQeGyi1uLgy3XrSpgLrsQO2c9lNZHptgkRHw_LnsQ81FDoYC2FmPa9Fi2Uh_6nvpg2FIyEJjUDfWxCn-CT-AF2_XcMc8rRBT6gIvWq8PmOnGqfEmPzB6fXeUATd0OmDeraG3jh-mLX9XJIJyCfJSsVUFZUJj4ZDdlL55yAZB7ogj0D4gZMK1j5Pw2R37al7viDM0JGH7RtyDtERefirZYWtdTY5ATagLmEGgu3PG29lDpgQJyCumAy_iLUwMXjcFlz0mqw1VNe7shOK4lrSF8BkMxvw1sG6RGi5jKVnhfjnwsQZ6B5uYs15-8ZzTtvECrI9xUfSDxGgT-QzVjij0T86CYdpntZWcfMyBiqeYyx7mUHtTqtb4HFkGuj9SHhlcaGqz8wF3jp4zRsmUowxoS2zgJ6ANqFdv-_6cf-HLFIQHHjoImzKxWjDcr59pVp76g6HQ5wuCTpbAT5TQnAXaaZz7pro4wtIBJyMwR19fQvwgVXrAQgtQfzWUOoPa8lI425UeYoTz_vktnzudw59HHwPGw4D794Excz-kKbBO_qBeeT4zesIuyG5BflqgRhxRkJ0Q4xX_FCItt-V_0W00]--></g></svg>