<?xml version="1.0" encoding="us-ascii" standalone="no"?><svg xmlns="http://www.w3.org/2000/svg" xmlns:xlink="http://www.w3.org/1999/xlink" contentStyleType="text/css" height="775px" preserveAspectRatio="none" style="width:2080px;height:775px;background:#FFFFFF;" version="1.1" viewBox="0 0 2080 775" width="2080px" zoomAndPan="magnify"><defs/><g><!--cluster Store Service Entities--><g id="cluster_Store Service Entities"><path d="M1163.5,615 L1317.5,615 A3.75,3.75 0 0 1 1320,617.5 L1327,638.6094 L1327.5,638.6094 A2.5,2.5 0 0 1 1330,641.1094 L1330,765.5 A2.5,2.5 0 0 1 1327.5,768 L1163.5,768 A2.5,2.5 0 0 1 1161,765.5 L1161,617.5 A2.5,2.5 0 0 1 1163.5,615 " fill="none" style="stroke:#000000;stroke-width:1.5;"/><line style="stroke:#000000;stroke-width:1.5;" x1="1161" x2="1327" y1="638.6094" y2="638.6094"/><text fill="#000000" font-family="sans-serif" font-size="14" font-weight="bold" lengthAdjust="spacing" textLength="153" x="1165" y="631.5332">Store Service Entities</text></g><!--cluster Controllers--><g id="cluster_Controllers"><path d="M1106.5,412 L1186.5,412 A3.75,3.75 0 0 1 1189,414.5 L1196,435.6094 L1383.5,435.6094 A2.5,2.5 0 0 1 1386,438.1094 L1386,562.5 A2.5,2.5 0 0 1 1383.5,565 L1106.5,565 A2.5,2.5 0 0 1 1104,562.5 L1104,414.5 A2.5,2.5 0 0 1 1106.5,412 " fill="none" style="stroke:#000000;stroke-width:1.5;"/><line style="stroke:#000000;stroke-width:1.5;" x1="1104" x2="1196" y1="435.6094" y2="435.6094"/><text fill="#000000" font-family="sans-serif" font-size="14" font-weight="bold" lengthAdjust="spacing" textLength="79" x="1108" y="428.5332">Controllers</text></g><!--cluster Middleware--><g id="cluster_Middleware"><path d="M8.5,6 L91.5,6 A3.75,3.75 0 0 1 94,8.5 L101,29.6094 L2070.5,29.6094 A2.5,2.5 0 0 1 2073,32.1094 L2073,156.5 A2.5,2.5 0 0 1 2070.5,159 L8.5,159 A2.5,2.5 0 0 1 6,156.5 L6,8.5 A2.5,2.5 0 0 1 8.5,6 " fill="none" style="stroke:#000000;stroke-width:1.5;"/><line style="stroke:#000000;stroke-width:1.5;" x1="6" x2="101" y1="29.6094" y2="29.6094"/><text fill="#000000" font-family="sans-serif" font-size="14" font-weight="bold" lengthAdjust="spacing" textLength="82" x="10" y="22.5332">Middleware</text></g><!--cluster Routes--><g id="cluster_Routes"><path d="M589.5,209 L640.5,209 A3.75,3.75 0 0 1 643,211.5 L650,232.6094 L818.5,232.6094 A2.5,2.5 0 0 1 821,235.1094 L821,359.5 A2.5,2.5 0 0 1 818.5,362 L589.5,362 A2.5,2.5 0 0 1 587,359.5 L587,211.5 A2.5,2.5 0 0 1 589.5,209 " fill="none" style="stroke:#000000;stroke-width:1.5;"/><line style="stroke:#000000;stroke-width:1.5;" x1="587" x2="650" y1="232.6094" y2="232.6094"/><text fill="#000000" font-family="sans-serif" font-size="14" font-weight="bold" lengthAdjust="spacing" textLength="50" x="591" y="225.5332">Routes</text></g><!--class Store--><g id="elem_Store"><rect codeLine="3" fill="#F1F1F1" height="100.8281" id="Store" rx="2.5" ry="2.5" style="stroke:#181818;stroke-width:0.5;" width="125" x="1182.5" y="651"/><ellipse cx="1224.05" cy="667" fill="#ADD1B2" rx="11" ry="11" style="stroke:#181818;stroke-width:1.0;"/><path d="M1226.8156,662.875 Q1226.9719,662.6563 1227.1594,662.5469 Q1227.3469,662.4375 1227.5656,662.4375 Q1227.9406,662.4375 1228.175,662.7031 Q1228.4094,662.9531 1228.4094,663.5625 L1228.4094,665.0156 Q1228.4094,665.625 1228.175,665.8906 Q1227.9406,666.1563 1227.5656,666.1563 Q1227.2219,666.1563 1227.0188,665.9531 Q1226.8156,665.7656 1226.7063,665.25 Q1226.6594,664.8906 1226.4719,664.7031 Q1226.1438,664.3281 1225.5344,664.1094 Q1224.925,663.8906 1224.3,663.8906 Q1223.5344,663.8906 1222.8938,664.2188 Q1222.2688,664.5469 1221.7688,665.2969 Q1221.2844,666.0469 1221.2844,667.0781 L1221.2844,668.1719 Q1221.2844,669.4063 1222.175,670.2344 Q1223.0656,671.0469 1224.6594,671.0469 Q1225.5969,671.0469 1226.2531,670.7969 Q1226.6438,670.6406 1227.0656,670.2031 Q1227.3313,669.9375 1227.4719,669.8594 Q1227.6281,669.7813 1227.8313,669.7813 Q1228.1594,669.7813 1228.4094,670.0469 Q1228.675,670.2969 1228.675,670.6406 Q1228.675,670.9844 1228.3313,671.3906 Q1227.8313,671.9688 1227.0344,672.2969 Q1225.9563,672.75 1224.6594,672.75 Q1223.1438,672.75 1221.9406,672.125 Q1220.9563,671.625 1220.2688,670.5625 Q1219.5813,669.4844 1219.5813,668.2031 L1219.5813,667.0469 Q1219.5813,665.7188 1220.1906,664.5781 Q1220.8156,663.4219 1221.9094,662.8125 Q1223.0031,662.1875 1224.2375,662.1875 Q1224.9719,662.1875 1225.6125,662.3594 Q1226.2688,662.5156 1226.8156,662.875 Z " fill="#000000"/><text fill="#000000" font-family="sans-serif" font-size="14" lengthAdjust="spacing" textLength="34" x="1243.95" y="672.7285">Store</text><line style="stroke:#181818;stroke-width:0.5;" x1="1183.5" x2="1306.5" y1="683" y2="683"/><ellipse cx="1193.5" cy="697.3047" fill="none" rx="3" ry="3" style="stroke:#038048;stroke-width:1.0;"/><text fill="#000000" font-family="sans-serif" font-size="14" lengthAdjust="spacing" textLength="67" x="1202.5" y="701.5332">id: number</text><ellipse cx="1193.5" cy="714.9141" fill="none" rx="3" ry="3" style="stroke:#038048;stroke-width:1.0;"/><text fill="#000000" font-family="sans-serif" font-size="14" lengthAdjust="spacing" textLength="78" x="1202.5" y="719.1426">name: string</text><ellipse cx="1193.5" cy="732.5234" fill="none" rx="3" ry="3" style="stroke:#038048;stroke-width:1.0;"/><text fill="#000000" font-family="sans-serif" font-size="14" lengthAdjust="spacing" textLength="99" x="1202.5" y="736.752">isMain: boolean</text><line style="stroke:#181818;stroke-width:0.5;" x1="1183.5" x2="1306.5" y1="743.8281" y2="743.8281"/></g><!--class StoresController--><g id="elem_StoresController"><rect codeLine="11" fill="#F1F1F1" height="100.8281" id="StoresController" rx="2.5" ry="2.5" style="stroke:#181818;stroke-width:0.5;" width="250" x="1120" y="448"/><ellipse cx="1189.25" cy="464" fill="#ADD1B2" rx="11" ry="11" style="stroke:#181818;stroke-width:1.0;"/><path d="M1192.0156,459.875 Q1192.1719,459.6563 1192.3594,459.5469 Q1192.5469,459.4375 1192.7656,459.4375 Q1193.1406,459.4375 1193.375,459.7031 Q1193.6094,459.9531 1193.6094,460.5625 L1193.6094,462.0156 Q1193.6094,462.625 1193.375,462.8906 Q1193.1406,463.1563 1192.7656,463.1563 Q1192.4219,463.1563 1192.2188,462.9531 Q1192.0156,462.7656 1191.9063,462.25 Q1191.8594,461.8906 1191.6719,461.7031 Q1191.3438,461.3281 1190.7344,461.1094 Q1190.125,460.8906 1189.5,460.8906 Q1188.7344,460.8906 1188.0938,461.2188 Q1187.4688,461.5469 1186.9688,462.2969 Q1186.4844,463.0469 1186.4844,464.0781 L1186.4844,465.1719 Q1186.4844,466.4063 1187.375,467.2344 Q1188.2656,468.0469 1189.8594,468.0469 Q1190.7969,468.0469 1191.4531,467.7969 Q1191.8438,467.6406 1192.2656,467.2031 Q1192.5313,466.9375 1192.6719,466.8594 Q1192.8281,466.7813 1193.0313,466.7813 Q1193.3594,466.7813 1193.6094,467.0469 Q1193.875,467.2969 1193.875,467.6406 Q1193.875,467.9844 1193.5313,468.3906 Q1193.0313,468.9688 1192.2344,469.2969 Q1191.1563,469.75 1189.8594,469.75 Q1188.3438,469.75 1187.1406,469.125 Q1186.1563,468.625 1185.4688,467.5625 Q1184.7813,466.4844 1184.7813,465.2031 L1184.7813,464.0469 Q1184.7813,462.7188 1185.3906,461.5781 Q1186.0156,460.4219 1187.1094,459.8125 Q1188.2031,459.1875 1189.4375,459.1875 Q1190.1719,459.1875 1190.8125,459.3594 Q1191.4688,459.5156 1192.0156,459.875 Z " fill="#000000"/><text fill="#000000" font-family="sans-serif" font-size="14" lengthAdjust="spacing" textLength="103" x="1209.75" y="469.7285">StoresController</text><line style="stroke:#181818;stroke-width:0.5;" x1="1121" x2="1369" y1="480" y2="480"/><line style="stroke:#181818;stroke-width:0.5;" x1="1121" x2="1369" y1="488" y2="488"/><ellipse cx="1131" cy="502.3047" fill="#84BE84" rx="3" ry="3" style="stroke:#038048;stroke-width:1.0;"/><text fill="#000000" font-family="sans-serif" font-size="14" lengthAdjust="spacing" textLength="120" x="1140" y="506.5332">getAllStores(): void</text><ellipse cx="1131" cy="519.9141" fill="#84BE84" rx="3" ry="3" style="stroke:#038048;stroke-width:1.0;"/><text fill="#000000" font-family="sans-serif" font-size="14" lengthAdjust="spacing" textLength="128" x="1140" y="524.1426">getMainStore(): void</text><ellipse cx="1131" cy="537.5234" fill="#84BE84" rx="3" ry="3" style="stroke:#038048;stroke-width:1.0;"/><text fill="#000000" font-family="sans-serif" font-size="14" lengthAdjust="spacing" textLength="224" x="1140" y="541.752">getStoreById(storeId: number): void</text></g><!--class ContentNegotiation--><g id="elem_ContentNegotiation"><rect codeLine="19" fill="#F1F1F1" height="65.6094" id="ContentNegotiation" rx="2.5" ry="2.5" style="stroke:#181818;stroke-width:0.5;" width="419" x="22.5" y="59.5"/><ellipse cx="167.25" cy="75.5" fill="#ADD1B2" rx="11" ry="11" style="stroke:#181818;stroke-width:1.0;"/><path d="M170.0156,71.375 Q170.1719,71.1563 170.3594,71.0469 Q170.5469,70.9375 170.7656,70.9375 Q171.1406,70.9375 171.375,71.2031 Q171.6094,71.4531 171.6094,72.0625 L171.6094,73.5156 Q171.6094,74.125 171.375,74.3906 Q171.1406,74.6563 170.7656,74.6563 Q170.4219,74.6563 170.2188,74.4531 Q170.0156,74.2656 169.9063,73.75 Q169.8594,73.3906 169.6719,73.2031 Q169.3438,72.8281 168.7344,72.6094 Q168.125,72.3906 167.5,72.3906 Q166.7344,72.3906 166.0938,72.7188 Q165.4688,73.0469 164.9688,73.7969 Q164.4844,74.5469 164.4844,75.5781 L164.4844,76.6719 Q164.4844,77.9063 165.375,78.7344 Q166.2656,79.5469 167.8594,79.5469 Q168.7969,79.5469 169.4531,79.2969 Q169.8438,79.1406 170.2656,78.7031 Q170.5313,78.4375 170.6719,78.3594 Q170.8281,78.2813 171.0313,78.2813 Q171.3594,78.2813 171.6094,78.5469 Q171.875,78.7969 171.875,79.1406 Q171.875,79.4844 171.5313,79.8906 Q171.0313,80.4688 170.2344,80.7969 Q169.1563,81.25 167.8594,81.25 Q166.3438,81.25 165.1406,80.625 Q164.1563,80.125 163.4688,79.0625 Q162.7813,77.9844 162.7813,76.7031 L162.7813,75.5469 Q162.7813,74.2188 163.3906,73.0781 Q164.0156,71.9219 165.1094,71.3125 Q166.2031,70.6875 167.4375,70.6875 Q168.1719,70.6875 168.8125,70.8594 Q169.4688,71.0156 170.0156,71.375 Z " fill="#000000"/><text fill="#000000" font-family="sans-serif" font-size="14" lengthAdjust="spacing" textLength="121" x="187.75" y="81.2285">ContentNegotiation</text><line style="stroke:#181818;stroke-width:0.5;" x1="23.5" x2="440.5" y1="91.5" y2="91.5"/><line style="stroke:#181818;stroke-width:0.5;" x1="23.5" x2="440.5" y1="99.5" y2="99.5"/><ellipse cx="33.5" cy="113.8047" fill="#84BE84" rx="3" ry="3" style="stroke:#038048;stroke-width:1.0;"/><text fill="#000000" font-family="sans-serif" font-size="14" lengthAdjust="spacing" textLength="393" x="42.5" y="118.0332">handle(req: Request, res: Response, next: NextFunction): void</text></g><!--class Logger--><g id="elem_Logger"><rect codeLine="23" fill="#F1F1F1" height="100.8281" id="Logger" rx="2.5" ry="2.5" style="stroke:#181818;stroke-width:0.5;" width="204" x="966" y="42"/><ellipse cx="1041.25" cy="58" fill="#ADD1B2" rx="11" ry="11" style="stroke:#181818;stroke-width:1.0;"/><path d="M1044.0156,53.875 Q1044.1719,53.6563 1044.3594,53.5469 Q1044.5469,53.4375 1044.7656,53.4375 Q1045.1406,53.4375 1045.375,53.7031 Q1045.6094,53.9531 1045.6094,54.5625 L1045.6094,56.0156 Q1045.6094,56.625 1045.375,56.8906 Q1045.1406,57.1563 1044.7656,57.1563 Q1044.4219,57.1563 1044.2188,56.9531 Q1044.0156,56.7656 1043.9063,56.25 Q1043.8594,55.8906 1043.6719,55.7031 Q1043.3438,55.3281 1042.7344,55.1094 Q1042.125,54.8906 1041.5,54.8906 Q1040.7344,54.8906 1040.0938,55.2188 Q1039.4688,55.5469 1038.9688,56.2969 Q1038.4844,57.0469 1038.4844,58.0781 L1038.4844,59.1719 Q1038.4844,60.4063 1039.375,61.2344 Q1040.2656,62.0469 1041.8594,62.0469 Q1042.7969,62.0469 1043.4531,61.7969 Q1043.8438,61.6406 1044.2656,61.2031 Q1044.5313,60.9375 1044.6719,60.8594 Q1044.8281,60.7813 1045.0313,60.7813 Q1045.3594,60.7813 1045.6094,61.0469 Q1045.875,61.2969 1045.875,61.6406 Q1045.875,61.9844 1045.5313,62.3906 Q1045.0313,62.9688 1044.2344,63.2969 Q1043.1563,63.75 1041.8594,63.75 Q1040.3438,63.75 1039.1406,63.125 Q1038.1563,62.625 1037.4688,61.5625 Q1036.7813,60.4844 1036.7813,59.2031 L1036.7813,58.0469 Q1036.7813,56.7188 1037.3906,55.5781 Q1038.0156,54.4219 1039.1094,53.8125 Q1040.2031,53.1875 1041.4375,53.1875 Q1042.1719,53.1875 1042.8125,53.3594 Q1043.4688,53.5156 1044.0156,53.875 Z " fill="#000000"/><text fill="#000000" font-family="sans-serif" font-size="14" lengthAdjust="spacing" textLength="45" x="1061.75" y="63.7285">Logger</text><line style="stroke:#181818;stroke-width:0.5;" x1="967" x2="1169" y1="74" y2="74"/><line style="stroke:#181818;stroke-width:0.5;" x1="967" x2="1169" y1="82" y2="82"/><ellipse cx="977" cy="96.3047" fill="#84BE84" rx="3" ry="3" style="stroke:#038048;stroke-width:1.0;"/><text fill="#000000" font-family="sans-serif" font-size="14" lengthAdjust="spacing" textLength="170" x="986" y="100.5332">info(message: object): void</text><ellipse cx="977" cy="113.9141" fill="#84BE84" rx="3" ry="3" style="stroke:#038048;stroke-width:1.0;"/><text fill="#000000" font-family="sans-serif" font-size="14" lengthAdjust="spacing" textLength="178" x="986" y="118.1426">error(message: object): void</text><ellipse cx="977" cy="131.5234" fill="#84BE84" rx="3" ry="3" style="stroke:#038048;stroke-width:1.0;"/><text fill="#000000" font-family="sans-serif" font-size="14" lengthAdjust="spacing" textLength="177" x="986" y="135.752">warn(message: object): void</text></g><!--class Metrics--><g id="elem_Metrics"><rect codeLine="29" fill="#F1F1F1" height="83.2188" id="Metrics" rx="2.5" ry="2.5" style="stroke:#181818;stroke-width:0.5;" width="435" x="1205.5" y="51"/><ellipse cx="1396.25" cy="67" fill="#ADD1B2" rx="11" ry="11" style="stroke:#181818;stroke-width:1.0;"/><path d="M1399.0156,62.875 Q1399.1719,62.6563 1399.3594,62.5469 Q1399.5469,62.4375 1399.7656,62.4375 Q1400.1406,62.4375 1400.375,62.7031 Q1400.6094,62.9531 1400.6094,63.5625 L1400.6094,65.0156 Q1400.6094,65.625 1400.375,65.8906 Q1400.1406,66.1563 1399.7656,66.1563 Q1399.4219,66.1563 1399.2188,65.9531 Q1399.0156,65.7656 1398.9063,65.25 Q1398.8594,64.8906 1398.6719,64.7031 Q1398.3438,64.3281 1397.7344,64.1094 Q1397.125,63.8906 1396.5,63.8906 Q1395.7344,63.8906 1395.0938,64.2188 Q1394.4688,64.5469 1393.9688,65.2969 Q1393.4844,66.0469 1393.4844,67.0781 L1393.4844,68.1719 Q1393.4844,69.4063 1394.375,70.2344 Q1395.2656,71.0469 1396.8594,71.0469 Q1397.7969,71.0469 1398.4531,70.7969 Q1398.8438,70.6406 1399.2656,70.2031 Q1399.5313,69.9375 1399.6719,69.8594 Q1399.8281,69.7813 1400.0313,69.7813 Q1400.3594,69.7813 1400.6094,70.0469 Q1400.875,70.2969 1400.875,70.6406 Q1400.875,70.9844 1400.5313,71.3906 Q1400.0313,71.9688 1399.2344,72.2969 Q1398.1563,72.75 1396.8594,72.75 Q1395.3438,72.75 1394.1406,72.125 Q1393.1563,71.625 1392.4688,70.5625 Q1391.7813,69.4844 1391.7813,68.2031 L1391.7813,67.0469 Q1391.7813,65.7188 1392.3906,64.5781 Q1393.0156,63.4219 1394.1094,62.8125 Q1395.2031,62.1875 1396.4375,62.1875 Q1397.1719,62.1875 1397.8125,62.3594 Q1398.4688,62.5156 1399.0156,62.875 Z " fill="#000000"/><text fill="#000000" font-family="sans-serif" font-size="14" lengthAdjust="spacing" textLength="45" x="1416.75" y="72.7285">Metrics</text><line style="stroke:#181818;stroke-width:0.5;" x1="1206.5" x2="1639.5" y1="83" y2="83"/><line style="stroke:#181818;stroke-width:0.5;" x1="1206.5" x2="1639.5" y1="91" y2="91"/><ellipse cx="1216.5" cy="105.3047" fill="#84BE84" rx="3" ry="3" style="stroke:#038048;stroke-width:1.0;"/><text fill="#000000" font-family="sans-serif" font-size="14" lengthAdjust="spacing" textLength="282" x="1225.5" y="109.5332">recordStoreRequest(success: boolean): void</text><ellipse cx="1216.5" cy="122.9141" fill="#84BE84" rx="3" ry="3" style="stroke:#038048;stroke-width:1.0;"/><text fill="#000000" font-family="sans-serif" font-size="14" lengthAdjust="spacing" textLength="409" x="1225.5" y="127.1426">recordRequest(method: string, path: string, status: number): void</text></g><!--class StaticTokenAuth--><g id="elem_StaticTokenAuth"><rect codeLine="34" fill="#F1F1F1" height="65.6094" id="StaticTokenAuth" rx="2.5" ry="2.5" style="stroke:#181818;stroke-width:0.5;" width="454" x="477" y="59.5"/><ellipse cx="647.75" cy="75.5" fill="#ADD1B2" rx="11" ry="11" style="stroke:#181818;stroke-width:1.0;"/><path d="M650.5156,71.375 Q650.6719,71.1563 650.8594,71.0469 Q651.0469,70.9375 651.2656,70.9375 Q651.6406,70.9375 651.875,71.2031 Q652.1094,71.4531 652.1094,72.0625 L652.1094,73.5156 Q652.1094,74.125 651.875,74.3906 Q651.6406,74.6563 651.2656,74.6563 Q650.9219,74.6563 650.7188,74.4531 Q650.5156,74.2656 650.4063,73.75 Q650.3594,73.3906 650.1719,73.2031 Q649.8438,72.8281 649.2344,72.6094 Q648.625,72.3906 648,72.3906 Q647.2344,72.3906 646.5938,72.7188 Q645.9688,73.0469 645.4688,73.7969 Q644.9844,74.5469 644.9844,75.5781 L644.9844,76.6719 Q644.9844,77.9063 645.875,78.7344 Q646.7656,79.5469 648.3594,79.5469 Q649.2969,79.5469 649.9531,79.2969 Q650.3438,79.1406 650.7656,78.7031 Q651.0313,78.4375 651.1719,78.3594 Q651.3281,78.2813 651.5313,78.2813 Q651.8594,78.2813 652.1094,78.5469 Q652.375,78.7969 652.375,79.1406 Q652.375,79.4844 652.0313,79.8906 Q651.5313,80.4688 650.7344,80.7969 Q649.6563,81.25 648.3594,81.25 Q646.8438,81.25 645.6406,80.625 Q644.6563,80.125 643.9688,79.0625 Q643.2813,77.9844 643.2813,76.7031 L643.2813,75.5469 Q643.2813,74.2188 643.8906,73.0781 Q644.5156,71.9219 645.6094,71.3125 Q646.7031,70.6875 647.9375,70.6875 Q648.6719,70.6875 649.3125,70.8594 Q649.9688,71.0156 650.5156,71.375 Z " fill="#000000"/><text fill="#000000" font-family="sans-serif" font-size="14" lengthAdjust="spacing" textLength="104" x="668.25" y="81.2285">StaticTokenAuth</text><line style="stroke:#181818;stroke-width:0.5;" x1="478" x2="930" y1="91.5" y2="91.5"/><line style="stroke:#181818;stroke-width:0.5;" x1="478" x2="930" y1="99.5" y2="99.5"/><ellipse cx="488" cy="113.8047" fill="#84BE84" rx="3" ry="3" style="stroke:#038048;stroke-width:1.0;"/><text fill="#000000" font-family="sans-serif" font-size="14" lengthAdjust="spacing" textLength="428" x="497" y="118.0332">authenticate(req: Request, res: Response, next: NextFunction): void</text></g><!--class RedisClient--><g id="elem_RedisClient"><rect codeLine="38" fill="#F1F1F1" height="100.8281" id="RedisClient" rx="2.5" ry="2.5" style="stroke:#181818;stroke-width:0.5;" width="381" x="1675.5" y="42"/><ellipse cx="1825.75" cy="58" fill="#ADD1B2" rx="11" ry="11" style="stroke:#181818;stroke-width:1.0;"/><path d="M1828.5156,53.875 Q1828.6719,53.6563 1828.8594,53.5469 Q1829.0469,53.4375 1829.2656,53.4375 Q1829.6406,53.4375 1829.875,53.7031 Q1830.1094,53.9531 1830.1094,54.5625 L1830.1094,56.0156 Q1830.1094,56.625 1829.875,56.8906 Q1829.6406,57.1563 1829.2656,57.1563 Q1828.9219,57.1563 1828.7188,56.9531 Q1828.5156,56.7656 1828.4063,56.25 Q1828.3594,55.8906 1828.1719,55.7031 Q1827.8438,55.3281 1827.2344,55.1094 Q1826.625,54.8906 1826,54.8906 Q1825.2344,54.8906 1824.5938,55.2188 Q1823.9688,55.5469 1823.4688,56.2969 Q1822.9844,57.0469 1822.9844,58.0781 L1822.9844,59.1719 Q1822.9844,60.4063 1823.875,61.2344 Q1824.7656,62.0469 1826.3594,62.0469 Q1827.2969,62.0469 1827.9531,61.7969 Q1828.3438,61.6406 1828.7656,61.2031 Q1829.0313,60.9375 1829.1719,60.8594 Q1829.3281,60.7813 1829.5313,60.7813 Q1829.8594,60.7813 1830.1094,61.0469 Q1830.375,61.2969 1830.375,61.6406 Q1830.375,61.9844 1830.0313,62.3906 Q1829.5313,62.9688 1828.7344,63.2969 Q1827.6563,63.75 1826.3594,63.75 Q1824.8438,63.75 1823.6406,63.125 Q1822.6563,62.625 1821.9688,61.5625 Q1821.2813,60.4844 1821.2813,59.2031 L1821.2813,58.0469 Q1821.2813,56.7188 1821.8906,55.5781 Q1822.5156,54.4219 1823.6094,53.8125 Q1824.7031,53.1875 1825.9375,53.1875 Q1826.6719,53.1875 1827.3125,53.3594 Q1827.9688,53.5156 1828.5156,53.875 Z " fill="#000000"/><text fill="#000000" font-family="sans-serif" font-size="14" lengthAdjust="spacing" textLength="72" x="1846.25" y="63.7285">RedisClient</text><line style="stroke:#181818;stroke-width:0.5;" x1="1676.5" x2="2055.5" y1="74" y2="74"/><line style="stroke:#181818;stroke-width:0.5;" x1="1676.5" x2="2055.5" y1="82" y2="82"/><ellipse cx="1686.5" cy="96.3047" fill="#84BE84" rx="3" ry="3" style="stroke:#038048;stroke-width:1.0;"/><text fill="#000000" font-family="sans-serif" font-size="14" lengthAdjust="spacing" textLength="238" x="1695.5" y="100.5332">get(key: string): Promise&lt;string | null&gt;</text><ellipse cx="1686.5" cy="113.9141" fill="#84BE84" rx="3" ry="3" style="stroke:#038048;stroke-width:1.0;"/><text fill="#000000" font-family="sans-serif" font-size="14" lengthAdjust="spacing" textLength="355" x="1695.5" y="118.1426">set(key: string, value: string, ttl: number): Promise&lt;void&gt;</text><ellipse cx="1686.5" cy="131.5234" fill="#84BE84" rx="3" ry="3" style="stroke:#038048;stroke-width:1.0;"/><text fill="#000000" font-family="sans-serif" font-size="14" lengthAdjust="spacing" textLength="195" x="1695.5" y="135.752">del(key: string): Promise&lt;void&gt;</text></g><!--class StoresRouter--><g id="elem_StoresRouter"><rect codeLine="46" fill="#F1F1F1" height="100.8281" id="StoresRouter" rx="2.5" ry="2.5" style="stroke:#181818;stroke-width:0.5;" width="201" x="603.5" y="245"/><ellipse cx="657.75" cy="261" fill="#ADD1B2" rx="11" ry="11" style="stroke:#181818;stroke-width:1.0;"/><path d="M660.5156,256.875 Q660.6719,256.6563 660.8594,256.5469 Q661.0469,256.4375 661.2656,256.4375 Q661.6406,256.4375 661.875,256.7031 Q662.1094,256.9531 662.1094,257.5625 L662.1094,259.0156 Q662.1094,259.625 661.875,259.8906 Q661.6406,260.1563 661.2656,260.1563 Q660.9219,260.1563 660.7188,259.9531 Q660.5156,259.7656 660.4063,259.25 Q660.3594,258.8906 660.1719,258.7031 Q659.8438,258.3281 659.2344,258.1094 Q658.625,257.8906 658,257.8906 Q657.2344,257.8906 656.5938,258.2188 Q655.9688,258.5469 655.4688,259.2969 Q654.9844,260.0469 654.9844,261.0781 L654.9844,262.1719 Q654.9844,263.4063 655.875,264.2344 Q656.7656,265.0469 658.3594,265.0469 Q659.2969,265.0469 659.9531,264.7969 Q660.3438,264.6406 660.7656,264.2031 Q661.0313,263.9375 661.1719,263.8594 Q661.3281,263.7813 661.5313,263.7813 Q661.8594,263.7813 662.1094,264.0469 Q662.375,264.2969 662.375,264.6406 Q662.375,264.9844 662.0313,265.3906 Q661.5313,265.9688 660.7344,266.2969 Q659.6563,266.75 658.3594,266.75 Q656.8438,266.75 655.6406,266.125 Q654.6563,265.625 653.9688,264.5625 Q653.2813,263.4844 653.2813,262.2031 L653.2813,261.0469 Q653.2813,259.7188 653.8906,258.5781 Q654.5156,257.4219 655.6094,256.8125 Q656.7031,256.1875 657.9375,256.1875 Q658.6719,256.1875 659.3125,256.3594 Q659.9688,256.5156 660.5156,256.875 Z " fill="#000000"/><text fill="#000000" font-family="sans-serif" font-size="14" lengthAdjust="spacing" textLength="84" x="678.25" y="266.7285">StoresRouter</text><line style="stroke:#181818;stroke-width:0.5;" x1="604.5" x2="803.5" y1="277" y2="277"/><ellipse cx="614.5" cy="291.3047" fill="none" rx="3" ry="3" style="stroke:#038048;stroke-width:1.0;"/><text fill="#000000" font-family="sans-serif" font-size="14" lengthAdjust="spacing" textLength="118" x="623.5" y="295.5332">GET /api/v1/stores</text><ellipse cx="614.5" cy="308.9141" fill="none" rx="3" ry="3" style="stroke:#038048;stroke-width:1.0;"/><text fill="#000000" font-family="sans-serif" font-size="14" lengthAdjust="spacing" textLength="152" x="623.5" y="313.1426">GET /api/v1/stores/main</text><ellipse cx="614.5" cy="326.5234" fill="none" rx="3" ry="3" style="stroke:#038048;stroke-width:1.0;"/><text fill="#000000" font-family="sans-serif" font-size="14" lengthAdjust="spacing" textLength="175" x="623.5" y="330.752">GET /api/v1/stores/{storeId}</text><line style="stroke:#181818;stroke-width:0.5;" x1="604.5" x2="803.5" y1="337.8281" y2="337.8281"/></g><!--link StoresController to Store--><g id="link_StoresController_Store"><path codeLine="54" d="M1245,549.19 C1245,580.11 1245,613.74 1245,644.69 " fill="none" id="StoresController-to-Store" style="stroke:#181818;stroke-width:1.0;"/><polygon fill="#181818" points="1245,650.69,1249,641.69,1245,645.69,1241,641.69,1245,650.69" style="stroke:#181818;stroke-width:1.0;"/><text fill="#000000" font-family="sans-serif" font-size="13" lengthAdjust="spacing" textLength="53" x="1246" y="595.4951">manages</text></g><!--link StoresRouter to StoresController--><g id="link_StoresRouter_StoresController"><path codeLine="55" d="M804.81,333.95 C893.92,367.06 1018.6258,413.39 1114.3458,448.96 " fill="none" id="StoresRouter-to-StoresController" style="stroke:#181818;stroke-width:1.0;"/><polygon fill="#181818" points="1119.97,451.05,1112.927,444.1655,1115.2831,449.3083,1110.1403,451.6645,1119.97,451.05" style="stroke:#181818;stroke-width:1.0;"/><text fill="#000000" font-family="sans-serif" font-size="13" lengthAdjust="spacing" textLength="51" x="959" y="392.4951">routes to</text></g><!--link ContentNegotiation to StoresRouter--><g id="link_ContentNegotiation_StoresRouter"><path codeLine="56" d="M307.31,125.57 C387.48,159.71 509.2196,211.5593 597.9196,249.3293 " fill="none" id="ContentNegotiation-to-StoresRouter" style="stroke:#181818;stroke-width:1.0;"/><polygon fill="#181818" points="603.44,251.68,596.7266,244.4738,598.8397,249.7211,593.5924,251.8342,603.44,251.68" style="stroke:#181818;stroke-width:1.0;"/><text fill="#000000" font-family="sans-serif" font-size="13" lengthAdjust="spacing" textLength="60" x="454" y="189.4951">processes</text></g><!--link Logger to StoresController--><g id="link_Logger_StoresController"><path codeLine="57" d="M1089.7,143.04 C1123.72,220.68 1186.8123,364.6743 1220.8523,442.3743 " fill="none" id="Logger-to-StoresController" style="stroke:#181818;stroke-width:1.0;"/><polygon fill="#181818" points="1223.26,447.87,1223.3123,438.0213,1221.2536,443.2902,1215.9847,441.2315,1223.26,447.87" style="stroke:#181818;stroke-width:1.0;"/><text fill="#000000" font-family="sans-serif" font-size="13" lengthAdjust="spacing" textLength="24" x="1189" y="300.9951">logs</text></g><!--link Metrics to StoresController--><g id="link_Metrics_StoresController"><path codeLine="58" d="M1405.12,134.09 C1372.28,208.62 1304.8889,361.5692 1269.2889,442.3792 " fill="none" id="Metrics-to-StoresController" style="stroke:#181818;stroke-width:1.0;"/><polygon fill="#181818" points="1266.87,447.87,1274.1589,441.2464,1268.8858,443.2943,1266.8378,438.0212,1266.87,447.87" style="stroke:#181818;stroke-width:1.0;"/><text fill="#000000" font-family="sans-serif" font-size="13" lengthAdjust="spacing" textLength="50" x="1375" y="300.9951">monitors</text></g><!--link StaticTokenAuth to StoresRouter--><g id="link_StaticTokenAuth_StoresRouter"><path codeLine="59" d="M704,125.79 C704,157.87 704,201.48 704,238.62 " fill="none" id="StaticTokenAuth-to-StoresRouter" style="stroke:#181818;stroke-width:1.0;"/><polygon fill="#181818" points="704,244.62,708,235.62,704,239.62,700,235.62,704,244.62" style="stroke:#181818;stroke-width:1.0;"/><text fill="#000000" font-family="sans-serif" font-size="13" lengthAdjust="spacing" textLength="78" x="705" y="189.4951">authenticates</text></g><!--link RedisClient to StoresController--><g id="link_RedisClient_StoresController"><path codeLine="60" d="M1789.85,143.04 C1670.5,220.68 1445.7494,366.8982 1326.3094,444.5982 " fill="none" id="RedisClient-to-StoresController" style="stroke:#181818;stroke-width:1.0;"/><polygon fill="#181818" points="1321.28,447.87,1331.0054,446.3152,1325.4712,445.1435,1326.6429,439.6093,1321.28,447.87" style="stroke:#181818;stroke-width:1.0;"/><text fill="#000000" font-family="sans-serif" font-size="13" lengthAdjust="spacing" textLength="42" x="1696" y="300.9951">caches</text></g><!--SRC=[hLJ1Rjim3BtxAuXUvc4fWbsDeK1NT4E1fHZI_e0gSxOMMNH5EblHvTydEtPiDKvscGz1H3wIZ-AZQgKtga2uU13o20_ejqOZt3enOf0lu3M1y6chc66FsLlQxmEOF0FNL4_e9qQdAio0nHjNJB6yKiPby4HaKRdEiqjsIL8F76x8YIThqSyLvj4TSIXGhgtTGzBt6Mp9vB6xhTlvvzsTw_FBNPvo- -_kqDCK7JDTcJot-4jvZ8cs5D79FHOaHeaX5r4jbGjXgSVd3DRut23B0WBjziGrESO5EFmj6To7to-DqssAcCQasZSgYZUNOTmFIYja3ZGpeAUVgEMuQVIU_BzXeJzt3XMHMM4OkEQ8ZKTDFk_kjsytvKRhaF4WW-Eg-w01Nw6Kb0zoMa2jf1nFB4eQdfzNf9ym2_r86tJNZPGHHnKCOMH6A_b_arbZRlZ6cf3uhLRJ3RuC3OJuxvugm_XfRu0_eHLhhoOX78SiOAjiW-DHn4xw7zArjAPPShGd2e_8ME9hQcJs0U3E4ylkw-qZB5LjbjkFosw9-AnpMOMDF8zuxNTnDr9x5wxLTal5fQavENeLBY-l-ZSgWqgvqCO0wYaV0DEe37pNAWWbC_ixnlH9CgWzjHeEsViDF97NKi79i1SdC1Kv4wmjqLYZCtMdKkLagh4JoRNIPK3-1G00]--></g></svg>