<?xml version="1.0" encoding="us-ascii" standalone="no"?><svg xmlns="http://www.w3.org/2000/svg" xmlns:xlink="http://www.w3.org/1999/xlink" contentStyleType="text/css" height="862px" preserveAspectRatio="none" style="width:1002px;height:862px;background:#FFFFFF;" version="1.1" viewBox="0 0 1002 862" width="1002px" zoomAndPan="magnify"><defs/><g><text fill="#000000" font-family="sans-serif" font-size="14" font-weight="bold" lengthAdjust="spacing" textLength="182" x="411" y="27.9951">Processus d'une vente</text><rect fill="none" height="162.7969" style="stroke:#000000;stroke-width:1.5;" width="386.5" x="10" y="167.0234"/><rect fill="none" height="206.7344" style="stroke:#000000;stroke-width:1.5;" width="985" x="10" y="632.0156"/><line style="stroke:#181818;stroke-width:0.5;stroke-dasharray:5.0,5.0;" x1="57" x2="57" y1="120.8906" y2="855.75"/><line style="stroke:#181818;stroke-width:0.5;stroke-dasharray:5.0,5.0;" x1="358.5" x2="358.5" y1="120.8906" y2="855.75"/><line style="stroke:#181818;stroke-width:0.5;stroke-dasharray:5.0,5.0;" x1="603.5" x2="603.5" y1="120.8906" y2="855.75"/><line style="stroke:#181818;stroke-width:0.5;stroke-dasharray:5.0,5.0;" x1="919" x2="919" y1="120.8906" y2="855.75"/><text fill="#000000" font-family="sans-serif" font-size="14" lengthAdjust="spacing" textLength="68" x="20" y="117.5889">Utilisateur</text><ellipse cx="57" cy="53.0938" fill="#E2E2F0" rx="8" ry="8" style="stroke:#181818;stroke-width:0.5;"/><path d="M57,61.0938 L57,88.0938 M44,69.0938 L70,69.0938 M57,88.0938 L44,103.0938 M57,88.0938 L70,103.0938 " fill="none" style="stroke:#181818;stroke-width:0.5;"/><rect fill="#E2E2F0" height="46.5938" rx="2.5" ry="2.5" style="stroke:#181818;stroke-width:0.5;" width="55" x="331.5" y="73.2969"/><text fill="#000000" font-family="sans-serif" font-size="14" lengthAdjust="spacing" textLength="20" x="349" y="93.292">CLI</text><text fill="#000000" font-family="sans-serif" font-size="14" lengthAdjust="spacing" textLength="41" x="338.5" y="109.5889">(cli.ts)</text><rect fill="#E2E2F0" height="46.5938" rx="2.5" ry="2.5" style="stroke:#181818;stroke-width:0.5;" width="119" x="544.5" y="73.2969"/><text fill="#000000" font-family="sans-serif" font-size="14" lengthAdjust="spacing" textLength="79" x="564.5" y="93.292">SaleService</text><text fill="#000000" font-family="sans-serif" font-size="14" lengthAdjust="spacing" textLength="105" x="551.5" y="109.5889">(saleService.ts)</text><text fill="#000000" font-family="sans-serif" font-size="14" lengthAdjust="spacing" textLength="108" x="862" y="101.292">AppDataSource</text><text fill="#000000" font-family="sans-serif" font-size="14" lengthAdjust="spacing" textLength="126" x="853" y="117.5889">(TypeORM/SQLite)</text><path d="M901,52.2969 C901,42.2969 919,42.2969 919,42.2969 C919,42.2969 937,42.2969 937,52.2969 L937,78.2969 C937,88.2969 919,88.2969 919,88.2969 C919,88.2969 901,88.2969 901,78.2969 L901,52.2969 " fill="#E2E2F0" style="stroke:#181818;stroke-width:1.5;"/><path d="M901,52.2969 C901,62.2969 919,62.2969 919,62.2969 C919,62.2969 937,62.2969 937,52.2969 " fill="none" style="stroke:#181818;stroke-width:1.5;"/><polygon fill="#181818" points="347,148.0234,357,152.0234,347,156.0234" style="stroke:#181818;stroke-width:1.0;"/><line style="stroke:#181818;stroke-width:1.0;" x1="57" x2="353" y1="152.0234" y2="152.0234"/><text fill="#000000" font-family="sans-serif" font-size="13" lengthAdjust="spacing" textLength="209" x="64" y="146.9575">Choisir &#171; Enregistrer une vente &#187;</text><path d="M10,167.0234 L87,167.0234 L87,174.1563 L77,184.1563 L10,184.1563 L10,167.0234 " fill="#EEEEEE" style="stroke:#000000;stroke-width:1.5;"/><rect fill="none" height="162.7969" style="stroke:#000000;stroke-width:1.5;" width="386.5" x="10" y="167.0234"/><text fill="#000000" font-family="sans-serif" font-size="13" font-weight="bold" lengthAdjust="spacing" textLength="32" x="25" y="180.0903">loop</text><text fill="#000000" font-family="sans-serif" font-size="11" font-weight="bold" lengthAdjust="spacing" textLength="202" x="102" y="179.2339">[Pour chaque produit &#224; ajouter]</text><polygon fill="#181818" points="68,201.2891,58,205.2891,68,209.2891" style="stroke:#181818;stroke-width:1.0;"/><line style="stroke:#181818;stroke-width:1.0;" x1="62" x2="358" y1="205.2891" y2="205.2891"/><text fill="#000000" font-family="sans-serif" font-size="13" lengthAdjust="spacing" textLength="134" x="74" y="200.2231">Demander ID produit</text><polygon fill="#181818" points="347,230.4219,357,234.4219,347,238.4219" style="stroke:#181818;stroke-width:1.0;"/><line style="stroke:#181818;stroke-width:1.0;" x1="57" x2="353" y1="234.4219" y2="234.4219"/><text fill="#000000" font-family="sans-serif" font-size="13" lengthAdjust="spacing" textLength="180" x="64" y="229.356">Saisir ID produit (id:number)</text><polygon fill="#181818" points="68,259.5547,58,263.5547,68,267.5547" style="stroke:#181818;stroke-width:1.0;"/><line style="stroke:#181818;stroke-width:1.0;" x1="62" x2="358" y1="263.5547" y2="263.5547"/><text fill="#000000" font-family="sans-serif" font-size="13" lengthAdjust="spacing" textLength="125" x="74" y="258.4888">Demander quantit&#233;</text><polygon fill="#181818" points="347,288.6875,357,292.6875,347,296.6875" style="stroke:#181818;stroke-width:1.0;"/><line style="stroke:#181818;stroke-width:1.0;" x1="57" x2="353" y1="292.6875" y2="292.6875"/><text fill="#000000" font-family="sans-serif" font-size="13" lengthAdjust="spacing" textLength="212" x="64" y="287.6216">Saisir quantit&#233; (quantity:number)</text><polygon fill="#181818" points="68,317.8203,58,321.8203,68,325.8203" style="stroke:#181818;stroke-width:1.0;"/><line style="stroke:#181818;stroke-width:1.0;" x1="62" x2="358" y1="321.8203" y2="321.8203"/><text fill="#000000" font-family="sans-serif" font-size="13" lengthAdjust="spacing" textLength="278" x="74" y="316.7544">Ajouter un autre produit ? (answer:booleen)</text><line style="stroke:#181818;stroke-width:1.0;" x1="359" x2="401" y1="357.9531" y2="357.9531"/><line style="stroke:#181818;stroke-width:1.0;" x1="401" x2="401" y1="357.9531" y2="370.9531"/><line style="stroke:#181818;stroke-width:1.0;" x1="360" x2="401" y1="370.9531" y2="370.9531"/><polygon fill="#181818" points="370,366.9531,360,370.9531,370,374.9531" style="stroke:#181818;stroke-width:1.0;"/><text fill="#000000" font-family="sans-serif" font-size="13" lengthAdjust="spacing" textLength="81" x="366" y="352.8872">handleSale()</text><polygon fill="#181818" points="592,396.0859,602,400.0859,592,404.0859" style="stroke:#181818;stroke-width:1.0;"/><line style="stroke:#181818;stroke-width:1.0;" x1="359" x2="598" y1="400.0859" y2="400.0859"/><text fill="#000000" font-family="sans-serif" font-size="13" lengthAdjust="spacing" textLength="221" x="366" y="395.02">getProductById(productId:number)</text><polygon fill="#181818" points="907,425.2188,917,429.2188,907,433.2188" style="stroke:#181818;stroke-width:1.0;"/><line style="stroke:#181818;stroke-width:1.0;" x1="604" x2="913" y1="429.2188" y2="429.2188"/><text fill="#000000" font-family="sans-serif" font-size="13" lengthAdjust="spacing" textLength="291" x="611" y="424.1528">getRepository(Product).findOneBy(id:number)</text><polygon fill="#181818" points="615,454.3516,605,458.3516,615,462.3516" style="stroke:#181818;stroke-width:1.0;"/><line style="stroke:#181818;stroke-width:1.0;stroke-dasharray:2.0,2.0;" x1="609" x2="918" y1="458.3516" y2="458.3516"/><text fill="#000000" font-family="sans-serif" font-size="13" lengthAdjust="spacing" textLength="80" x="621" y="453.2856">informations</text><line style="stroke:#181818;stroke-width:1.0;" x1="359" x2="401" y1="487.4844" y2="487.4844"/><line style="stroke:#181818;stroke-width:1.0;" x1="401" x2="401" y1="487.4844" y2="500.4844"/><line style="stroke:#181818;stroke-width:1.0;" x1="360" x2="401" y1="500.4844" y2="500.4844"/><polygon fill="#181818" points="370,496.4844,360,500.4844,370,504.4844" style="stroke:#181818;stroke-width:1.0;"/><text fill="#000000" font-family="sans-serif" font-size="13" lengthAdjust="spacing" textLength="165" x="366" y="482.4185">saleItems.push().reduce()</text><polygon fill="#181818" points="370,525.6172,360,529.6172,370,533.6172" style="stroke:#181818;stroke-width:1.0;"/><line style="stroke:#181818;stroke-width:1.0;" x1="364" x2="603" y1="529.6172" y2="529.6172"/><text fill="#000000" font-family="sans-serif" font-size="13" lengthAdjust="spacing" textLength="155" x="376" y="524.5513">afficherTotalVente(total)</text><polygon fill="#181818" points="68,554.75,58,558.75,68,562.75" style="stroke:#181818;stroke-width:1.0;"/><line style="stroke:#181818;stroke-width:1.0;stroke-dasharray:2.0,2.0;" x1="62" x2="358" y1="558.75" y2="558.75"/><text fill="#000000" font-family="sans-serif" font-size="13" lengthAdjust="spacing" textLength="81" x="74" y="553.6841">Afficher total</text><polygon fill="#181818" points="68,583.8828,58,587.8828,68,591.8828" style="stroke:#181818;stroke-width:1.0;"/><line style="stroke:#181818;stroke-width:1.0;" x1="62" x2="358" y1="587.8828" y2="587.8828"/><text fill="#000000" font-family="sans-serif" font-size="13" lengthAdjust="spacing" textLength="152" x="74" y="582.8169">Demander confirmation</text><polygon fill="#181818" points="347,613.0156,357,617.0156,347,621.0156" style="stroke:#181818;stroke-width:1.0;"/><line style="stroke:#181818;stroke-width:1.0;" x1="57" x2="353" y1="617.0156" y2="617.0156"/><text fill="#000000" font-family="sans-serif" font-size="13" lengthAdjust="spacing" textLength="243" x="64" y="611.9497">Confirmer la vente ? (answer:booleen)</text><path d="M10,632.0156 L74,632.0156 L74,639.1484 L64,649.1484 L10,649.1484 L10,632.0156 " fill="#EEEEEE" style="stroke:#000000;stroke-width:1.5;"/><rect fill="none" height="206.7344" style="stroke:#000000;stroke-width:1.5;" width="985" x="10" y="632.0156"/><text fill="#000000" font-family="sans-serif" font-size="13" font-weight="bold" lengthAdjust="spacing" textLength="19" x="25" y="645.0825">alt</text><text fill="#000000" font-family="sans-serif" font-size="11" font-weight="bold" lengthAdjust="spacing" textLength="115" x="89" y="644.2261">[Vente confirm&#233;e]</text><polygon fill="#181818" points="592,666.2813,602,670.2813,592,674.2813" style="stroke:#181818;stroke-width:1.0;"/><line style="stroke:#181818;stroke-width:1.0;" x1="359" x2="598" y1="670.2813" y2="670.2813"/><text fill="#000000" font-family="sans-serif" font-size="13" lengthAdjust="spacing" textLength="178" x="366" y="665.2153">recordSale(saleItems:any[])</text><polygon fill="#181818" points="907,695.4141,917,699.4141,907,703.4141" style="stroke:#181818;stroke-width:1.0;"/><line style="stroke:#181818;stroke-width:1.0;" x1="604" x2="913" y1="699.4141" y2="699.4141"/><text fill="#000000" font-family="sans-serif" font-size="13" lengthAdjust="spacing" textLength="126" x="611" y="694.3481">getRepository(Sale)</text><polygon fill="#181818" points="615,724.5469,605,728.5469,615,732.5469" style="stroke:#181818;stroke-width:1.0;"/><line style="stroke:#181818;stroke-width:1.0;" x1="609" x2="918" y1="728.5469" y2="728.5469"/><text fill="#000000" font-family="sans-serif" font-size="13" lengthAdjust="spacing" textLength="93" x="621" y="723.481">save(sale:any)</text><polygon fill="#181818" points="370,753.6797,360,757.6797,370,761.6797" style="stroke:#181818;stroke-width:1.0;"/><line style="stroke:#181818;stroke-width:1.0;stroke-dasharray:2.0,2.0;" x1="364" x2="603" y1="757.6797" y2="757.6797"/><text fill="#000000" font-family="sans-serif" font-size="13" lengthAdjust="spacing" textLength="95" x="376" y="752.6138">sale.id:number</text><polygon fill="#181818" points="68,782.8125,58,786.8125,68,790.8125" style="stroke:#181818;stroke-width:1.0;"/><line style="stroke:#181818;stroke-width:1.0;stroke-dasharray:2.0,2.0;" x1="62" x2="358" y1="786.8125" y2="786.8125"/><text fill="#000000" font-family="sans-serif" font-size="13" lengthAdjust="spacing" textLength="146" x="74" y="781.7466">Vente {id} enregistr&#233;e</text><line style="stroke:#000000;stroke-width:1.0;stroke-dasharray:2.0,2.0;" x1="10" x2="995" y1="795.8125" y2="795.8125"/><text fill="#000000" font-family="sans-serif" font-size="11" font-weight="bold" lengthAdjust="spacing" textLength="103" x="15" y="806.0229">[Vente annul&#233;e]</text><polygon fill="#181818" points="68,826.75,58,830.75,68,834.75" style="stroke:#181818;stroke-width:1.0;"/><line style="stroke:#181818;stroke-width:1.0;stroke-dasharray:2.0,2.0;" x1="62" x2="358" y1="830.75" y2="830.75"/><text fill="#000000" font-family="sans-serif" font-size="13" lengthAdjust="spacing" textLength="93" x="74" y="825.6841">Vente annul&#233;e</text><!--SRC=[ZLIxRjj04EplAnPgJ1PMUXK9B2k500TMB2TDac95hgnBZdVqFHGGGVubhP5FI6Vzc9Syag9iEROAuSYRtPcTMT3zaBf4YmKuNodYVoip7mebX9UUNooioSYvu20_2PfWIzgJmCmR2v-yLDAXfs05D_4oaoLg3wFpY_bNdMHAZhrBHu0E-CqXP8cAbcItCYE6klrJNp90Y1mzhj0HZCxASiOFInDiKtbTbNHvzU7DykE5z1GhPorQY852E7rRgu09d6-CTDB2_LzuhotTI1wQBFJJmVq_8KvWQaB61kHi2ZA-FZaehSc3z4ueOqfOi0h8DdWRgBk1tH_0xoPuiWBuLrCoyr3816PKeCwPSpxhwXhmKRbBRDJkeP38VA93iIARleBZDh3Xqk_kNgJeaP2qn-fbdhCuBDi76DZ8NkKxI52xdsGdAsCKaKu5wLo8jajath16ZfcZJjBkPX0y8sx8B-gEcPzMypmfutc-Ts08v-ek_5XwHQLnafUrIjekwNWjTNwfQLeDVUpBJfyea7fjR85U6kqErTThE_TKk74Pt2P9nvQOeXxbiQg8n_LQPXkoryQZ-bplMkBhOplwKszRF3GeyV-SCwFNijNvpE9716CLjgj-92I1oaCZhckvkwDX_eVkMCgCpPi4UpicgAilt-BIl3QU6XShzb4yvdAuZImrmP7s1y6C-tJtuf-u5-Vy9VFVGDste1wN5FF7IzGwg0CBdkdI0tdD7m00]--></g></svg>