<?xml version="1.0" encoding="us-ascii" standalone="no"?><svg xmlns="http://www.w3.org/2000/svg" xmlns:xlink="http://www.w3.org/1999/xlink" contentStyleType="text/css" height="862px" preserveAspectRatio="none" style="width:1002px;height:862px;background:#FFFFFF;" version="1.1" viewBox="0 0 1002 862" width="1002px" zoomAndPan="magnify"><defs/><g><text fill="#000000" font-family="sans-serif" font-size="14" font-weight="bold" lengthAdjust="spacing" textLength="182" x="411" y="27.9951">Processus d'une vente</text><rect fill="none" height="162.7969" style="stroke:#000000;stroke-width:1.5;" width="386.5" x="10" y="209.1563"/><rect fill="none" height="206.7344" style="stroke:#000000;stroke-width:1.5;" width="985" x="10" y="632.0156"/><line style="stroke:#181818;stroke-width:0.5;stroke-dasharray:5.0,5.0;" x1="57" x2="57" y1="120.8906" y2="855.75"/><line style="stroke:#181818;stroke-width:0.5;stroke-dasharray:5.0,5.0;" x1="358.5" x2="358.5" y1="120.8906" y2="855.75"/><line style="stroke:#181818;stroke-width:0.5;stroke-dasharray:5.0,5.0;" x1="603.5" x2="603.5" y1="120.8906" y2="855.75"/><line style="stroke:#181818;stroke-width:0.5;stroke-dasharray:5.0,5.0;" x1="919" x2="919" y1="120.8906" y2="855.75"/><text fill="#000000" font-family="sans-serif" font-size="14" lengthAdjust="spacing" textLength="68" x="20" y="117.5889">Utilisateur</text><ellipse cx="57" cy="53.0938" fill="#E2E2F0" rx="8" ry="8" style="stroke:#181818;stroke-width:0.5;"/><path d="M57,61.0938 L57,88.0938 M44,69.0938 L70,69.0938 M57,88.0938 L44,103.0938 M57,88.0938 L70,103.0938 " fill="none" style="stroke:#181818;stroke-width:0.5;"/><rect fill="#E2E2F0" height="46.5938" rx="2.5" ry="2.5" style="stroke:#181818;stroke-width:0.5;" width="55" x="331.5" y="73.2969"/><text fill="#000000" font-family="sans-serif" font-size="14" lengthAdjust="spacing" textLength="20" x="349" y="93.292">CLI</text><text fill="#000000" font-family="sans-serif" font-size="14" lengthAdjust="spacing" textLength="41" x="338.5" y="109.5889">(cli.ts)</text><rect fill="#E2E2F0" height="46.5938" rx="2.5" ry="2.5" style="stroke:#181818;stroke-width:0.5;" width="119" x="544.5" y="73.2969"/><text fill="#000000" font-family="sans-serif" font-size="14" lengthAdjust="spacing" textLength="79" x="564.5" y="93.292">SaleService</text><text fill="#000000" font-family="sans-serif" font-size="14" lengthAdjust="spacing" textLength="105" x="551.5" y="109.5889">(saleService.ts)</text><text fill="#000000" font-family="sans-serif" font-size="14" lengthAdjust="spacing" textLength="108" x="862" y="101.292">AppDataSource</text><text fill="#000000" font-family="sans-serif" font-size="14" lengthAdjust="spacing" textLength="126" x="853" y="117.5889">(TypeORM/SQLite)</text><path d="M901,52.2969 C901,42.2969 919,42.2969 919,42.2969 C919,42.2969 937,42.2969 937,52.2969 L937,78.2969 C937,88.2969 919,88.2969 919,88.2969 C919,88.2969 901,88.2969 901,78.2969 L901,52.2969 " fill="#E2E2F0" style="stroke:#181818;stroke-width:1.5;"/><path d="M901,52.2969 C901,62.2969 919,62.2969 919,62.2969 C919,62.2969 937,62.2969 937,52.2969 " fill="none" style="stroke:#181818;stroke-width:1.5;"/><polygon fill="#181818" points="347,148.0234,357,152.0234,347,156.0234" style="stroke:#181818;stroke-width:1.0;"/><line style="stroke:#181818;stroke-width:1.0;" x1="57" x2="353" y1="152.0234" y2="152.0234"/><text fill="#000000" font-family="sans-serif" font-size="13" lengthAdjust="spacing" textLength="209" x="64" y="146.9575">Choisir &#171; Enregistrer une vente &#187;</text><line style="stroke:#181818;stroke-width:1.0;" x1="359" x2="401" y1="181.1563" y2="181.1563"/><line style="stroke:#181818;stroke-width:1.0;" x1="401" x2="401" y1="181.1563" y2="194.1563"/><line style="stroke:#181818;stroke-width:1.0;" x1="360" x2="401" y1="194.1563" y2="194.1563"/><polygon fill="#181818" points="370,190.1563,360,194.1563,370,198.1563" style="stroke:#181818;stroke-width:1.0;"/><text fill="#000000" font-family="sans-serif" font-size="13" lengthAdjust="spacing" textLength="81" x="366" y="176.0903">handleSale()</text><path d="M10,209.1563 L87,209.1563 L87,216.2891 L77,226.2891 L10,226.2891 L10,209.1563 " fill="#EEEEEE" style="stroke:#000000;stroke-width:1.5;"/><rect fill="none" height="162.7969" style="stroke:#000000;stroke-width:1.5;" width="386.5" x="10" y="209.1563"/><text fill="#000000" font-family="sans-serif" font-size="13" font-weight="bold" lengthAdjust="spacing" textLength="32" x="25" y="222.2231">loop</text><text fill="#000000" font-family="sans-serif" font-size="11" font-weight="bold" lengthAdjust="spacing" textLength="202" x="102" y="221.3667">[Pour chaque produit &#224; ajouter]</text><polygon fill="#181818" points="68,243.4219,58,247.4219,68,251.4219" style="stroke:#181818;stroke-width:1.0;"/><line style="stroke:#181818;stroke-width:1.0;" x1="62" x2="358" y1="247.4219" y2="247.4219"/><text fill="#000000" font-family="sans-serif" font-size="13" lengthAdjust="spacing" textLength="134" x="74" y="242.356">Demander ID produit</text><polygon fill="#181818" points="347,272.5547,357,276.5547,347,280.5547" style="stroke:#181818;stroke-width:1.0;"/><line style="stroke:#181818;stroke-width:1.0;" x1="57" x2="353" y1="276.5547" y2="276.5547"/><text fill="#000000" font-family="sans-serif" font-size="13" lengthAdjust="spacing" textLength="180" x="64" y="271.4888">Saisir ID produit (id:number)</text><polygon fill="#181818" points="68,301.6875,58,305.6875,68,309.6875" style="stroke:#181818;stroke-width:1.0;"/><line style="stroke:#181818;stroke-width:1.0;" x1="62" x2="358" y1="305.6875" y2="305.6875"/><text fill="#000000" font-family="sans-serif" font-size="13" lengthAdjust="spacing" textLength="125" x="74" y="300.6216">Demander quantit&#233;</text><polygon fill="#181818" points="347,330.8203,357,334.8203,347,338.8203" style="stroke:#181818;stroke-width:1.0;"/><line style="stroke:#181818;stroke-width:1.0;" x1="57" x2="353" y1="334.8203" y2="334.8203"/><text fill="#000000" font-family="sans-serif" font-size="13" lengthAdjust="spacing" textLength="212" x="64" y="329.7544">Saisir quantit&#233; (quantity:number)</text><polygon fill="#181818" points="68,359.9531,58,363.9531,68,367.9531" style="stroke:#181818;stroke-width:1.0;"/><line style="stroke:#181818;stroke-width:1.0;" x1="62" x2="358" y1="363.9531" y2="363.9531"/><text fill="#000000" font-family="sans-serif" font-size="13" lengthAdjust="spacing" textLength="278" x="74" y="358.8872">Ajouter un autre produit ? (answer:booleen)</text><polygon fill="#181818" points="592,396.0859,602,400.0859,592,404.0859" style="stroke:#181818;stroke-width:1.0;"/><line style="stroke:#181818;stroke-width:1.0;" x1="359" x2="598" y1="400.0859" y2="400.0859"/><text fill="#000000" font-family="sans-serif" font-size="13" lengthAdjust="spacing" textLength="221" x="366" y="395.02">getProductById(productId:number)</text><polygon fill="#181818" points="907,425.2188,917,429.2188,907,433.2188" style="stroke:#181818;stroke-width:1.0;"/><line style="stroke:#181818;stroke-width:1.0;" x1="604" x2="913" y1="429.2188" y2="429.2188"/><text fill="#000000" font-family="sans-serif" font-size="13" lengthAdjust="spacing" textLength="291" x="611" y="424.1528">getRepository(Product).findOneBy(id:number)</text><polygon fill="#181818" points="615,454.3516,605,458.3516,615,462.3516" style="stroke:#181818;stroke-width:1.0;"/><line style="stroke:#181818;stroke-width:1.0;stroke-dasharray:2.0,2.0;" x1="609" x2="918" y1="458.3516" y2="458.3516"/><text fill="#000000" font-family="sans-serif" font-size="13" lengthAdjust="spacing" textLength="80" x="621" y="453.2856">informations</text><line style="stroke:#181818;stroke-width:1.0;" x1="359" x2="401" y1="487.4844" y2="487.4844"/><line style="stroke:#181818;stroke-width:1.0;" x1="401" x2="401" y1="487.4844" y2="500.4844"/><line style="stroke:#181818;stroke-width:1.0;" x1="360" x2="401" y1="500.4844" y2="500.4844"/><polygon fill="#181818" points="370,496.4844,360,500.4844,370,504.4844" style="stroke:#181818;stroke-width:1.0;"/><text fill="#000000" font-family="sans-serif" font-size="13" lengthAdjust="spacing" textLength="165" x="366" y="482.4185">saleItems.push().reduce()</text><polygon fill="#181818" points="370,525.6172,360,529.6172,370,533.6172" style="stroke:#181818;stroke-width:1.0;"/><line style="stroke:#181818;stroke-width:1.0;" x1="364" x2="603" y1="529.6172" y2="529.6172"/><text fill="#000000" font-family="sans-serif" font-size="13" lengthAdjust="spacing" textLength="155" x="376" y="524.5513">afficherTotalVente(total)</text><polygon fill="#181818" points="68,554.75,58,558.75,68,562.75" style="stroke:#181818;stroke-width:1.0;"/><line style="stroke:#181818;stroke-width:1.0;stroke-dasharray:2.0,2.0;" x1="62" x2="358" y1="558.75" y2="558.75"/><text fill="#000000" font-family="sans-serif" font-size="13" lengthAdjust="spacing" textLength="81" x="74" y="553.6841">Afficher total</text><polygon fill="#181818" points="68,583.8828,58,587.8828,68,591.8828" style="stroke:#181818;stroke-width:1.0;"/><line style="stroke:#181818;stroke-width:1.0;" x1="62" x2="358" y1="587.8828" y2="587.8828"/><text fill="#000000" font-family="sans-serif" font-size="13" lengthAdjust="spacing" textLength="152" x="74" y="582.8169">Demander confirmation</text><polygon fill="#181818" points="347,613.0156,357,617.0156,347,621.0156" style="stroke:#181818;stroke-width:1.0;"/><line style="stroke:#181818;stroke-width:1.0;" x1="57" x2="353" y1="617.0156" y2="617.0156"/><text fill="#000000" font-family="sans-serif" font-size="13" lengthAdjust="spacing" textLength="243" x="64" y="611.9497">Confirmer la vente ? (answer:booleen)</text><path d="M10,632.0156 L74,632.0156 L74,639.1484 L64,649.1484 L10,649.1484 L10,632.0156 " fill="#EEEEEE" style="stroke:#000000;stroke-width:1.5;"/><rect fill="none" height="206.7344" style="stroke:#000000;stroke-width:1.5;" width="985" x="10" y="632.0156"/><text fill="#000000" font-family="sans-serif" font-size="13" font-weight="bold" lengthAdjust="spacing" textLength="19" x="25" y="645.0825">alt</text><text fill="#000000" font-family="sans-serif" font-size="11" font-weight="bold" lengthAdjust="spacing" textLength="115" x="89" y="644.2261">[Vente confirm&#233;e]</text><polygon fill="#181818" points="592,666.2813,602,670.2813,592,674.2813" style="stroke:#181818;stroke-width:1.0;"/><line style="stroke:#181818;stroke-width:1.0;" x1="359" x2="598" y1="670.2813" y2="670.2813"/><text fill="#000000" font-family="sans-serif" font-size="13" lengthAdjust="spacing" textLength="178" x="366" y="665.2153">recordSale(saleItems:any[])</text><polygon fill="#181818" points="907,695.4141,917,699.4141,907,703.4141" style="stroke:#181818;stroke-width:1.0;"/><line style="stroke:#181818;stroke-width:1.0;" x1="604" x2="913" y1="699.4141" y2="699.4141"/><text fill="#000000" font-family="sans-serif" font-size="13" lengthAdjust="spacing" textLength="126" x="611" y="694.3481">getRepository(Sale)</text><polygon fill="#181818" points="615,724.5469,605,728.5469,615,732.5469" style="stroke:#181818;stroke-width:1.0;"/><line style="stroke:#181818;stroke-width:1.0;" x1="609" x2="918" y1="728.5469" y2="728.5469"/><text fill="#000000" font-family="sans-serif" font-size="13" lengthAdjust="spacing" textLength="93" x="621" y="723.481">save(sale:any)</text><polygon fill="#181818" points="370,753.6797,360,757.6797,370,761.6797" style="stroke:#181818;stroke-width:1.0;"/><line style="stroke:#181818;stroke-width:1.0;stroke-dasharray:2.0,2.0;" x1="364" x2="603" y1="757.6797" y2="757.6797"/><text fill="#000000" font-family="sans-serif" font-size="13" lengthAdjust="spacing" textLength="95" x="376" y="752.6138">sale.id:number</text><polygon fill="#181818" points="68,782.8125,58,786.8125,68,790.8125" style="stroke:#181818;stroke-width:1.0;"/><line style="stroke:#181818;stroke-width:1.0;stroke-dasharray:2.0,2.0;" x1="62" x2="358" y1="786.8125" y2="786.8125"/><text fill="#000000" font-family="sans-serif" font-size="13" lengthAdjust="spacing" textLength="146" x="74" y="781.7466">Vente {id} enregistr&#233;e</text><line style="stroke:#000000;stroke-width:1.0;stroke-dasharray:2.0,2.0;" x1="10" x2="995" y1="795.8125" y2="795.8125"/><text fill="#000000" font-family="sans-serif" font-size="11" font-weight="bold" lengthAdjust="spacing" textLength="103" x="15" y="806.0229">[Vente annul&#233;e]</text><polygon fill="#181818" points="68,826.75,58,830.75,68,834.75" style="stroke:#181818;stroke-width:1.0;"/><line style="stroke:#181818;stroke-width:1.0;stroke-dasharray:2.0,2.0;" x1="62" x2="358" y1="830.75" y2="830.75"/><text fill="#000000" font-family="sans-serif" font-size="13" lengthAdjust="spacing" textLength="93" x="74" y="825.6841">Vente annul&#233;e</text><!--SRC=[ZLIxRjj04EplAnPgJ1PMUXK9B2k500TMB2TDac95hgnBZdVqFHGGGVubhP5FI6Vzc9Syag9iEJOBuaZExCpEhkH-I5sYnGAShnJntShCXq89uQNd5mjhCd8kECXFWYROalOaCFF6mYSlbNJeALZ1HRpCP8dQm-ZyOlvL9vcIO-_I4Q03VdC8MQAY9Tcjp8YXRl_KKmO8aQF75Jg2qLbPplXXQO9jcDTLIPTN7zuiFrv8Jv4vQz5231p2wTlQ1KpWV6EaanRk_y9xRUb6SjDaeUyExl-96jaJDgXpzi9-abI84vYQa74qESU5NAa-EIYjoOFqJYXZIbYmFyWsU1ke-mAxFu3VJV1a1V3LIWmjJc161Oknc_ciupNWeuqiiUbZ3uL4vXCTYXNPz1KQju578VtkxaM97Wb9UwnUrZcBpNAmW84Zxbs-WmIr-qbsiZ964UbKaCv55_fWy5pbXloYvcL-Mitpf8pd-RxF8PpPtV0ZzOfAuoGlQvMqLTBnMkhyKjEq6gRLqqwVE91wRMo1NXhj3XUZNjkvfyADo-0sIJgsn1BDbZno5V6uNijiG_RQU5IVwrrBV7rCOzcd2RPuQ53Y_zFCZ5xBrkSpYnyHZ5NOhlgHKGXK7XfpNSdT7GsdV9YEfSpOlFbnz75CK5TVliNLUEruQbnax4VnMClXDghK0aVA7mnct4ztR_v9Uh7FNpB_3TJz5zJjacBz-16r3keWWcUgz41UvWS0]--></g></svg>