<?xml version="1.0" encoding="us-ascii" standalone="no"?><svg xmlns="http://www.w3.org/2000/svg" xmlns:xlink="http://www.w3.org/1999/xlink" contentStyleType="text/css" height="514px" preserveAspectRatio="none" style="width:1104px;height:514px;background:#FFFFFF;" version="1.1" viewBox="0 0 1104 514" width="1104px" zoomAndPan="magnify"><defs/><g><text fill="#000000" font-family="sans-serif" font-size="14" font-weight="bold" lengthAdjust="spacing" textLength="484" x="311.25" y="27.9951">Processus d'une vente (multi-magasin, Express, PostgreSQL)</text><rect fill="none" height="235.8672" style="stroke:#000000;stroke-width:1.5;" width="893.5" x="204" y="254.4219"/><line style="stroke:#181818;stroke-width:0.5;stroke-dasharray:5.0,5.0;" x1="42" x2="42" y1="120.8906" y2="507.2891"/><line style="stroke:#181818;stroke-width:0.5;stroke-dasharray:5.0,5.0;" x1="275" x2="275" y1="120.8906" y2="507.2891"/><line style="stroke:#181818;stroke-width:0.5;stroke-dasharray:5.0,5.0;" x1="515" x2="515" y1="120.8906" y2="507.2891"/><line style="stroke:#181818;stroke-width:0.5;stroke-dasharray:5.0,5.0;" x1="705.5" x2="705.5" y1="120.8906" y2="507.2891"/><line style="stroke:#181818;stroke-width:0.5;stroke-dasharray:5.0,5.0;" x1="1043.5" x2="1043.5" y1="120.8906" y2="507.2891"/><text fill="#000000" font-family="sans-serif" font-size="14" lengthAdjust="spacing" textLength="68" x="5" y="117.5889">Utilisateur</text><ellipse cx="42" cy="53.0938" fill="#E2E2F0" rx="8" ry="8" style="stroke:#181818;stroke-width:0.5;"/><path d="M42,61.0938 L42,88.0938 M29,69.0938 L55,69.0938 M42,88.0938 L29,103.0938 M42,88.0938 L55,103.0938 " fill="none" style="stroke:#181818;stroke-width:0.5;"/><rect fill="#E2E2F0" height="30.2969" rx="2.5" ry="2.5" style="stroke:#181818;stroke-width:0.5;" width="122" x="214" y="89.5938"/><text fill="#000000" font-family="sans-serif" font-size="14" lengthAdjust="spacing" textLength="108" x="221" y="109.5889">Navigateur Web</text><rect fill="#E2E2F0" height="46.5938" rx="2.5" ry="2.5" style="stroke:#181818;stroke-width:0.5;" width="158" x="436" y="73.2969"/><text fill="#000000" font-family="sans-serif" font-size="14" lengthAdjust="spacing" textLength="70" x="480" y="93.292">Express.js</text><text fill="#000000" font-family="sans-serif" font-size="14" lengthAdjust="spacing" textLength="144" x="443" y="109.5889">(serviceApiRouter.ts)</text><rect fill="#E2E2F0" height="46.5938" rx="2.5" ry="2.5" style="stroke:#181818;stroke-width:0.5;" width="119" x="646.5" y="73.2969"/><text fill="#000000" font-family="sans-serif" font-size="14" lengthAdjust="spacing" textLength="79" x="666.5" y="93.292">SaleService</text><text fill="#000000" font-family="sans-serif" font-size="14" lengthAdjust="spacing" textLength="105" x="653.5" y="109.5889">(saleService.ts)</text><text fill="#000000" font-family="sans-serif" font-size="14" lengthAdjust="spacing" textLength="81" x="1000.5" y="101.292">PostgreSQL</text><text fill="#000000" font-family="sans-serif" font-size="14" lengthAdjust="spacing" textLength="77" x="1002.5" y="117.5889">(TypeORM)</text><path d="M1026,52.2969 C1026,42.2969 1044,42.2969 1044,42.2969 C1044,42.2969 1062,42.2969 1062,52.2969 L1062,78.2969 C1062,88.2969 1044,88.2969 1044,88.2969 C1044,88.2969 1026,88.2969 1026,78.2969 L1026,52.2969 " fill="#E2E2F0" style="stroke:#181818;stroke-width:1.5;"/><path d="M1026,52.2969 C1026,62.2969 1044,62.2969 1044,62.2969 C1044,62.2969 1062,62.2969 1062,52.2969 " fill="none" style="stroke:#181818;stroke-width:1.5;"/><polygon fill="#181818" points="263,148.0234,273,152.0234,263,156.0234" style="stroke:#181818;stroke-width:1.0;"/><line style="stroke:#181818;stroke-width:1.0;" x1="42" x2="269" y1="152.0234" y2="152.0234"/><text fill="#000000" font-family="sans-serif" font-size="13" lengthAdjust="spacing" textLength="209" x="49" y="146.9575">Choisir &#171; Enregistrer une vente &#187;</text><polygon fill="#181818" points="503,177.1563,513,181.1563,503,185.1563" style="stroke:#181818;stroke-width:1.0;"/><line style="stroke:#181818;stroke-width:1.0;" x1="275" x2="509" y1="181.1563" y2="181.1563"/><text fill="#000000" font-family="sans-serif" font-size="13" lengthAdjust="spacing" textLength="216" x="282" y="176.0903">POST /record-sale (items, storeId)</text><polygon fill="#181818" points="694,206.2891,704,210.2891,694,214.2891" style="stroke:#181818;stroke-width:1.0;"/><line style="stroke:#181818;stroke-width:1.0;" x1="515" x2="700" y1="210.2891" y2="210.2891"/><text fill="#000000" font-family="sans-serif" font-size="13" lengthAdjust="spacing" textLength="167" x="522" y="205.2231">recordSale(items, storeId)</text><polygon fill="#181818" points="1032,235.4219,1042,239.4219,1032,243.4219" style="stroke:#181818;stroke-width:1.0;"/><line style="stroke:#181818;stroke-width:1.0;" x1="706" x2="1038" y1="239.4219" y2="239.4219"/><text fill="#000000" font-family="sans-serif" font-size="13" lengthAdjust="spacing" textLength="314" x="713" y="234.356">V&#233;rifier stock dans Inventory pour chaque produit</text><path d="M204,254.4219 L268,254.4219 L268,261.5547 L258,271.5547 L204,271.5547 L204,254.4219 " fill="#EEEEEE" style="stroke:#000000;stroke-width:1.5;"/><rect fill="none" height="235.8672" style="stroke:#000000;stroke-width:1.5;" width="893.5" x="204" y="254.4219"/><text fill="#000000" font-family="sans-serif" font-size="13" font-weight="bold" lengthAdjust="spacing" textLength="19" x="219" y="267.4888">alt</text><text fill="#000000" font-family="sans-serif" font-size="11" font-weight="bold" lengthAdjust="spacing" textLength="106" x="283" y="266.6323">[Stock suffisant]</text><polygon fill="#181818" points="1032,288.6875,1042,292.6875,1032,296.6875" style="stroke:#181818;stroke-width:1.0;"/><line style="stroke:#181818;stroke-width:1.0;" x1="706" x2="1038" y1="292.6875" y2="292.6875"/><text fill="#000000" font-family="sans-serif" font-size="13" lengthAdjust="spacing" textLength="221" x="713" y="287.6216">D&#233;cr&#233;menter stock dans Inventory</text><polygon fill="#181818" points="1032,317.8203,1042,321.8203,1032,325.8203" style="stroke:#181818;stroke-width:1.0;"/><line style="stroke:#181818;stroke-width:1.0;" x1="706" x2="1038" y1="321.8203" y2="321.8203"/><text fill="#000000" font-family="sans-serif" font-size="13" lengthAdjust="spacing" textLength="162" x="713" y="316.7544">Cr&#233;er Sale et SaleItem(s)</text><polygon fill="#181818" points="717,346.9531,707,350.9531,717,354.9531" style="stroke:#181818;stroke-width:1.0;"/><line style="stroke:#181818;stroke-width:1.0;stroke-dasharray:2.0,2.0;" x1="711" x2="1043" y1="350.9531" y2="350.9531"/><text fill="#000000" font-family="sans-serif" font-size="13" lengthAdjust="spacing" textLength="185" x="723" y="345.8872">Confirmation enregistrement</text><polygon fill="#181818" points="526,376.0859,516,380.0859,526,384.0859" style="stroke:#181818;stroke-width:1.0;"/><line style="stroke:#181818;stroke-width:1.0;stroke-dasharray:2.0,2.0;" x1="520" x2="705" y1="380.0859" y2="380.0859"/><text fill="#000000" font-family="sans-serif" font-size="13" lengthAdjust="spacing" textLength="123" x="532" y="375.02">id de la vente, total</text><polygon fill="#181818" points="286,405.2188,276,409.2188,286,413.2188" style="stroke:#181818;stroke-width:1.0;"/><line style="stroke:#181818;stroke-width:1.0;stroke-dasharray:2.0,2.0;" x1="280" x2="514" y1="409.2188" y2="409.2188"/><text fill="#000000" font-family="sans-serif" font-size="13" lengthAdjust="spacing" textLength="182" x="292" y="404.1528">Afficher confirmation et total</text><line style="stroke:#000000;stroke-width:1.0;stroke-dasharray:2.0,2.0;" x1="204" x2="1097.5" y1="418.2188" y2="418.2188"/><text fill="#000000" font-family="sans-serif" font-size="11" font-weight="bold" lengthAdjust="spacing" textLength="118" x="209" y="428.4292">[Stock insuffisant]</text><polygon fill="#181818" points="526,449.1563,516,453.1563,526,457.1563" style="stroke:#181818;stroke-width:1.0;"/><line style="stroke:#181818;stroke-width:1.0;stroke-dasharray:2.0,2.0;" x1="520" x2="705" y1="453.1563" y2="453.1563"/><text fill="#000000" font-family="sans-serif" font-size="13" lengthAdjust="spacing" textLength="146" x="532" y="448.0903">Erreur stock insuffisant</text><polygon fill="#181818" points="286,478.2891,276,482.2891,286,486.2891" style="stroke:#181818;stroke-width:1.0;"/><line style="stroke:#181818;stroke-width:1.0;stroke-dasharray:2.0,2.0;" x1="280" x2="514" y1="482.2891" y2="482.2891"/><text fill="#000000" font-family="sans-serif" font-size="13" lengthAdjust="spacing" textLength="176" x="292" y="477.2231">Afficher erreur &#224; l'utilisateur</text><!--SRC=[XPEnRjim48PtFiN1Isp0JlSE1GB7Wu4sSQEqNRemrDc-H2BLuycetwQhqKVe5hzOZv9ZIt2QQX11ulzu__qdnIVobMLRGfHjWVfcSbANXJ52eWSB3WvZh2Fa5xL7sA0NX65P5qAJqgvi93-6sS-ALJM6HOYoOim-VnmPOvq4XYz21KKhMBFHKaAEAki51ZTsGwlc7BxXmm1iJ6jVSxZuyZ5-zyE8l267LnNTXLgGBoME6koWwgEPBJ1hYSIUTaUiep2v5VjW8yBWr89YzziAR-y-jVhhWyQOJaym-P1imtkOhWD5OdZ-3JFFk28D4nbEgJt_CKcfmC6mGelRx1xUCRh0-IIPX249bXfbrF1mde_CYrYvZcDbMogTdJ5TeN8lpXNwkjynBKcDgTWzGMvzXBbF3WDleGhQablR7pL2nI6lIOmj1B967ElbKllsOa2VVnUvtkySxtTbQllrGl-vOAgqaaa0ACqwrnQ7STI0H-NaB9Hfy4lYqWe53tYSGx9oNhCt2ieXHoXiEwqnI11RDCnn0iTPNsaERgqENQ-S720ir5iR6VatGklLdp6dxoc-YhrX0Ljk_mkAYxhpiw7FpLy0]--></g></svg>