<?xml version="1.0" encoding="us-ascii" standalone="no"?><svg xmlns="http://www.w3.org/2000/svg" xmlns:xlink="http://www.w3.org/1999/xlink" contentStyleType="text/css" height="544px" preserveAspectRatio="none" style="width:285px;height:544px;background:#FFFFFF;" version="1.1" viewBox="0 0 285 544" width="285px" zoomAndPan="magnify"><defs/><g><text fill="#000000" font-family="sans-serif" font-size="14" font-weight="bold" lengthAdjust="spacing" textLength="198" x="36.5" y="22.9951">Architecture locale 3-tier</text><!--cluster Machine utilisateur N--><g id="cluster_Machine utilisateur N"><polygon fill="none" points="27,53.2969,37,43.2969,268,43.2969,268,135.2969,258,145.2969,27,145.2969,27,53.2969" style="stroke:#181818;stroke-width:1.0;"/><line style="stroke:#181818;stroke-width:1.0;" x1="258" x2="268" y1="53.2969" y2="43.2969"/><line style="stroke:#181818;stroke-width:1.0;" x1="27" x2="258" y1="53.2969" y2="53.2969"/><line style="stroke:#181818;stroke-width:1.0;" x1="258" x2="258" y1="53.2969" y2="145.2969"/><text fill="#000000" font-family="sans-serif" font-size="14" font-weight="bold" lengthAdjust="spacing" textLength="165" x="61" y="69.292">Machine utilisateur N</text></g><!--cluster Serveur Node.js N--><g id="cluster_Serveur Node.js N"><polygon fill="none" points="16,204.2969,26,194.2969,240,194.2969,240,409.2969,230,419.2969,16,419.2969,16,204.2969" style="stroke:#181818;stroke-width:1.0;"/><line style="stroke:#181818;stroke-width:1.0;" x1="230" x2="240" y1="204.2969" y2="194.2969"/><line style="stroke:#181818;stroke-width:1.0;" x1="16" x2="230" y1="204.2969" y2="204.2969"/><line style="stroke:#181818;stroke-width:1.0;" x1="230" x2="230" y1="204.2969" y2="419.2969"/><text fill="#000000" font-family="sans-serif" font-size="14" font-weight="bold" lengthAdjust="spacing" textLength="143" x="52.5" y="220.292">Serveur Node.js N</text></g><!--entity Navigateur Web--><g id="elem_Navigateur Web"><rect fill="#F1F1F1" height="46.2969" rx="2.5" ry="2.5" style="stroke:#181818;stroke-width:0.5;" width="148" x="54" y="83.2969"/><rect fill="#F1F1F1" height="10" style="stroke:#181818;stroke-width:0.5;" width="15" x="182" y="88.2969"/><rect fill="#F1F1F1" height="2" style="stroke:#181818;stroke-width:0.5;" width="4" x="180" y="90.2969"/><rect fill="#F1F1F1" height="2" style="stroke:#181818;stroke-width:0.5;" width="4" x="180" y="94.2969"/><text fill="#000000" font-family="sans-serif" font-size="14" lengthAdjust="spacing" textLength="108" x="69" y="116.292">Navigateur Web</text></g><!--entity Express.js (API & Vue)--><g id="elem_Express.js (API &amp; Vue)"><rect fill="#F1F1F1" height="46.2969" rx="2.5" ry="2.5" style="stroke:#181818;stroke-width:0.5;" width="192" x="32" y="234.2969"/><rect fill="#F1F1F1" height="10" style="stroke:#181818;stroke-width:0.5;" width="15" x="204" y="239.2969"/><rect fill="#F1F1F1" height="2" style="stroke:#181818;stroke-width:0.5;" width="4" x="202" y="241.2969"/><rect fill="#F1F1F1" height="2" style="stroke:#181818;stroke-width:0.5;" width="4" x="202" y="245.2969"/><text fill="#000000" font-family="sans-serif" font-size="14" lengthAdjust="spacing" textLength="152" x="47" y="267.292">Express.js (API &amp; Vue)</text></g><!--entity TypeORM--><g id="elem_TypeORM"><rect fill="#F1F1F1" height="46.2969" rx="2.5" ry="2.5" style="stroke:#181818;stroke-width:0.5;" width="107" x="74.5" y="357.2969"/><rect fill="#F1F1F1" height="10" style="stroke:#181818;stroke-width:0.5;" width="15" x="161.5" y="362.2969"/><rect fill="#F1F1F1" height="2" style="stroke:#181818;stroke-width:0.5;" width="4" x="159.5" y="364.2969"/><rect fill="#F1F1F1" height="2" style="stroke:#181818;stroke-width:0.5;" width="4" x="159.5" y="368.2969"/><text fill="#000000" font-family="sans-serif" font-size="14" lengthAdjust="spacing" textLength="67" x="89.5" y="390.292">TypeORM</text></g><!--entity PostgreSQL--><g id="elem_PostgreSQL"><path d="M77.5,492.2969 C77.5,482.2969 128,482.2969 128,482.2969 C128,482.2969 178.5,482.2969 178.5,492.2969 L178.5,517.5938 C178.5,527.5938 128,527.5938 128,527.5938 C128,527.5938 77.5,527.5938 77.5,517.5938 L77.5,492.2969 " fill="#F1F1F1" style="stroke:#181818;stroke-width:0.5;"/><path d="M77.5,492.2969 C77.5,502.2969 128,502.2969 128,502.2969 C128,502.2969 178.5,502.2969 178.5,492.2969 " fill="none" style="stroke:#181818;stroke-width:0.5;"/><text fill="#000000" font-family="sans-serif" font-size="14" lengthAdjust="spacing" textLength="81" x="87.5" y="519.292">PostgreSQL</text></g><!--link Navigateur Web to Express.js (API & Vue)--><g id="link_Navigateur Web_Express.js (API &amp; Vue)"><path d="M128,129.6069 C128,157.6969 128,199.6769 128,227.8369 " fill="none" id="Navigateur Web-to-Express.js (API &amp; Vue)" style="stroke:#181818;stroke-width:1.0;"/><polygon fill="#181818" points="128,233.8369,132,224.8369,128,228.8369,124,224.8369,128,233.8369" style="stroke:#181818;stroke-width:1.0;"/><text fill="#000000" font-family="sans-serif" font-size="13" lengthAdjust="spacing" textLength="102" x="129" y="174.3638">HTTP (REST/EJS)</text></g><!--link Express.js (API & Vue) to TypeORM--><g id="link_Express.js (API &amp; Vue)_TypeORM"><path d="M128,280.4869 C128,302.3269 128,329.4569 128,351.2469 " fill="none" id="Express.js (API &amp; Vue)-to-TypeORM" style="stroke:#181818;stroke-width:1.0;"/><polygon fill="#181818" points="128,357.2469,132,348.2469,128,352.2469,124,348.2469,128,357.2469" style="stroke:#181818;stroke-width:1.0;"/><text fill="#000000" font-family="sans-serif" font-size="13" lengthAdjust="spacing" textLength="75" x="129" y="323.3638">appels ORM</text></g><!--link TypeORM to PostgreSQL--><g id="link_TypeORM_PostgreSQL"><path d="M128,403.4769 C128,425.8169 128,454.0569 128,476.1869 " fill="none" id="TypeORM-to-PostgreSQL" style="stroke:#181818;stroke-width:1.0;"/><polygon fill="#181818" points="128,482.1869,132,473.1869,128,477.1869,124,473.1869,128,482.1869" style="stroke:#181818;stroke-width:1.0;"/><text fill="#000000" font-family="sans-serif" font-size="13" lengthAdjust="spacing" textLength="99" x="129" y="448.3638">ORM (pg driver)</text></g><!--SRC=[TOu_IyH05CJxzoc6BIGfeeMTXN15m1FlZ9UWzLxoY2inkxnz2OhutLqZXt_mofdvpJ3gT62if7rqogrEmXXyQvDtNgXZ8Hfznp0RcuYHCQaRNBJAas1hy4P0wv-37tbKcAsTNVyLFl3UqFkXNhFCIoMfqwVuJxLy2S8nVeRPgbhZ1FSJv-OtrBm6ljrjbk7EgjtRcCOh7xKNhkzk3D7V3oYAowFhkC1LqrJ8TcNTd9NNTKv7qMNdS20LRGWyH2H5t_O2_VYJkEGZ2pqwSJDBJXy0]--></g></svg>