<?xml version="1.0" encoding="us-ascii" standalone="no"?><svg xmlns="http://www.w3.org/2000/svg" xmlns:xlink="http://www.w3.org/1999/xlink" contentStyleType="text/css" height="613px" preserveAspectRatio="none" style="width:2205px;height:613px;background:#FFFFFF;" version="1.1" viewBox="0 0 2205 613" width="2205px" zoomAndPan="magnify"><defs/><g><text fill="#000000" font-family="sans-serif" font-size="14" font-weight="bold" lengthAdjust="spacing" textLength="451" x="870" y="24.5332">Architecture microservices avec bases s&#233;par&#233;es et round-robin</text><!--cluster Utilisateur--><g id="cluster_Utilisateur"><polygon fill="none" points="996,54.6094,1006,44.6094,1242,44.6094,1242,139.6094,1232,149.6094,996,149.6094,996,54.6094" style="stroke:#181818;stroke-width:1.0;"/><line style="stroke:#181818;stroke-width:1.0;" x1="1232" x2="1242" y1="54.6094" y2="44.6094"/><line style="stroke:#181818;stroke-width:1.0;" x1="996" x2="1232" y1="54.6094" y2="54.6094"/><line style="stroke:#181818;stroke-width:1.0;" x1="1232" x2="1232" y1="54.6094" y2="149.6094"/><text fill="#000000" font-family="sans-serif" font-size="14" font-weight="bold" lengthAdjust="spacing" textLength="72" x="1079" y="72.1426">Utilisateur</text></g><!--cluster API Gateway--><g id="cluster_API Gateway"><polygon fill="none" points="1039,209.6094,1049,199.6094,1200,199.6094,1200,294.6094,1190,304.6094,1039,304.6094,1039,209.6094" style="stroke:#181818;stroke-width:1.0;"/><line style="stroke:#181818;stroke-width:1.0;" x1="1190" x2="1200" y1="209.6094" y2="199.6094"/><line style="stroke:#181818;stroke-width:1.0;" x1="1039" x2="1190" y1="209.6094" y2="209.6094"/><line style="stroke:#181818;stroke-width:1.0;" x1="1190" x2="1190" y1="209.6094" y2="304.6094"/><text fill="#000000" font-family="sans-serif" font-size="14" font-weight="bold" lengthAdjust="spacing" textLength="85" x="1073" y="227.1426">API Gateway</text></g><!--cluster Auth Service 1--><g id="cluster_Auth Service 1"><polygon fill="none" points="16,364.6094,26,354.6094,198,354.6094,198,449.6094,188,459.6094,16,459.6094,16,364.6094" style="stroke:#181818;stroke-width:1.0;"/><line style="stroke:#181818;stroke-width:1.0;" x1="188" x2="198" y1="364.6094" y2="354.6094"/><line style="stroke:#181818;stroke-width:1.0;" x1="16" x2="188" y1="364.6094" y2="364.6094"/><line style="stroke:#181818;stroke-width:1.0;" x1="188" x2="188" y1="364.6094" y2="459.6094"/><text fill="#000000" font-family="sans-serif" font-size="14" font-weight="bold" lengthAdjust="spacing" textLength="102" x="52" y="382.1426">Auth Service 1</text></g><!--cluster Auth Service 2--><g id="cluster_Auth Service 2"><polygon fill="none" points="222,364.6094,232,354.6094,404,354.6094,404,449.6094,394,459.6094,222,459.6094,222,364.6094" style="stroke:#181818;stroke-width:1.0;"/><line style="stroke:#181818;stroke-width:1.0;" x1="394" x2="404" y1="364.6094" y2="354.6094"/><line style="stroke:#181818;stroke-width:1.0;" x1="222" x2="394" y1="364.6094" y2="364.6094"/><line style="stroke:#181818;stroke-width:1.0;" x1="394" x2="394" y1="364.6094" y2="459.6094"/><text fill="#000000" font-family="sans-serif" font-size="14" font-weight="bold" lengthAdjust="spacing" textLength="102" x="258" y="382.1426">Auth Service 2</text></g><!--cluster Auth DB--><g id="cluster_Auth DB"><polygon fill="none" points="108,502.6094,118,492.6094,270,492.6094,270,586.6094,260,596.6094,108,596.6094,108,502.6094" style="stroke:#181818;stroke-width:1.0;"/><line style="stroke:#181818;stroke-width:1.0;" x1="260" x2="270" y1="502.6094" y2="492.6094"/><line style="stroke:#181818;stroke-width:1.0;" x1="108" x2="260" y1="502.6094" y2="502.6094"/><line style="stroke:#181818;stroke-width:1.0;" x1="260" x2="260" y1="502.6094" y2="596.6094"/><text fill="#000000" font-family="sans-serif" font-size="14" font-weight="bold" lengthAdjust="spacing" textLength="56" x="157" y="520.1426">Auth DB</text></g><!--cluster Products Service 1--><g id="cluster_Products Service 1"><polygon fill="none" points="428,364.6094,438,354.6094,637,354.6094,637,449.6094,627,459.6094,428,459.6094,428,364.6094" style="stroke:#181818;stroke-width:1.0;"/><line style="stroke:#181818;stroke-width:1.0;" x1="627" x2="637" y1="364.6094" y2="354.6094"/><line style="stroke:#181818;stroke-width:1.0;" x1="428" x2="627" y1="364.6094" y2="364.6094"/><line style="stroke:#181818;stroke-width:1.0;" x1="627" x2="627" y1="364.6094" y2="459.6094"/><text fill="#000000" font-family="sans-serif" font-size="14" font-weight="bold" lengthAdjust="spacing" textLength="133" x="462" y="382.1426">Products Service 1</text></g><!--cluster Products Service 2--><g id="cluster_Products Service 2"><polygon fill="none" points="661,364.6094,671,354.6094,870,354.6094,870,449.6094,860,459.6094,661,459.6094,661,364.6094" style="stroke:#181818;stroke-width:1.0;"/><line style="stroke:#181818;stroke-width:1.0;" x1="860" x2="870" y1="364.6094" y2="354.6094"/><line style="stroke:#181818;stroke-width:1.0;" x1="661" x2="860" y1="364.6094" y2="364.6094"/><line style="stroke:#181818;stroke-width:1.0;" x1="860" x2="860" y1="364.6094" y2="459.6094"/><text fill="#000000" font-family="sans-serif" font-size="14" font-weight="bold" lengthAdjust="spacing" textLength="133" x="695" y="382.1426">Products Service 2</text></g><!--cluster Products DB--><g id="cluster_Products DB"><polygon fill="none" points="530,502.6094,540,492.6094,720,492.6094,720,586.6094,710,596.6094,530,596.6094,530,502.6094" style="stroke:#181818;stroke-width:1.0;"/><line style="stroke:#181818;stroke-width:1.0;" x1="710" x2="720" y1="502.6094" y2="492.6094"/><line style="stroke:#181818;stroke-width:1.0;" x1="530" x2="710" y1="502.6094" y2="502.6094"/><line style="stroke:#181818;stroke-width:1.0;" x1="710" x2="710" y1="502.6094" y2="596.6094"/><text fill="#000000" font-family="sans-serif" font-size="14" font-weight="bold" lengthAdjust="spacing" textLength="87" x="577.5" y="520.1426">Products DB</text></g><!--cluster Inventory Service 1--><g id="cluster_Inventory Service 1"><polygon fill="none" points="894,364.6094,904,354.6094,1107,354.6094,1107,449.6094,1097,459.6094,894,459.6094,894,364.6094" style="stroke:#181818;stroke-width:1.0;"/><line style="stroke:#181818;stroke-width:1.0;" x1="1097" x2="1107" y1="364.6094" y2="354.6094"/><line style="stroke:#181818;stroke-width:1.0;" x1="894" x2="1097" y1="364.6094" y2="364.6094"/><line style="stroke:#181818;stroke-width:1.0;" x1="1097" x2="1097" y1="364.6094" y2="459.6094"/><text fill="#000000" font-family="sans-serif" font-size="14" font-weight="bold" lengthAdjust="spacing" textLength="137" x="928" y="382.1426">Inventory Service 1</text></g><!--cluster Inventory Service 2--><g id="cluster_Inventory Service 2"><polygon fill="none" points="1131,364.6094,1141,354.6094,1344,354.6094,1344,449.6094,1334,459.6094,1131,459.6094,1131,364.6094" style="stroke:#181818;stroke-width:1.0;"/><line style="stroke:#181818;stroke-width:1.0;" x1="1334" x2="1344" y1="364.6094" y2="354.6094"/><line style="stroke:#181818;stroke-width:1.0;" x1="1131" x2="1334" y1="364.6094" y2="364.6094"/><line style="stroke:#181818;stroke-width:1.0;" x1="1334" x2="1334" y1="364.6094" y2="459.6094"/><text fill="#000000" font-family="sans-serif" font-size="14" font-weight="bold" lengthAdjust="spacing" textLength="137" x="1165" y="382.1426">Inventory Service 2</text></g><!--cluster Inventory DB--><g id="cluster_Inventory DB"><polygon fill="none" points="999,502.6094,1009,492.6094,1191,492.6094,1191,586.6094,1181,596.6094,999,596.6094,999,502.6094" style="stroke:#181818;stroke-width:1.0;"/><line style="stroke:#181818;stroke-width:1.0;" x1="1181" x2="1191" y1="502.6094" y2="492.6094"/><line style="stroke:#181818;stroke-width:1.0;" x1="999" x2="1181" y1="502.6094" y2="502.6094"/><line style="stroke:#181818;stroke-width:1.0;" x1="1181" x2="1181" y1="502.6094" y2="596.6094"/><text fill="#000000" font-family="sans-serif" font-size="14" font-weight="bold" lengthAdjust="spacing" textLength="91" x="1045.5" y="520.1426">Inventory DB</text></g><!--cluster Sales Service 1--><g id="cluster_Sales Service 1"><polygon fill="none" points="1368,364.6094,1378,354.6094,1556,354.6094,1556,449.6094,1546,459.6094,1368,459.6094,1368,364.6094" style="stroke:#181818;stroke-width:1.0;"/><line style="stroke:#181818;stroke-width:1.0;" x1="1546" x2="1556" y1="364.6094" y2="354.6094"/><line style="stroke:#181818;stroke-width:1.0;" x1="1368" x2="1546" y1="364.6094" y2="364.6094"/><line style="stroke:#181818;stroke-width:1.0;" x1="1546" x2="1546" y1="364.6094" y2="459.6094"/><text fill="#000000" font-family="sans-serif" font-size="14" font-weight="bold" lengthAdjust="spacing" textLength="108" x="1404" y="382.1426">Sales Service 1</text></g><!--cluster Sales Service 2--><g id="cluster_Sales Service 2"><polygon fill="none" points="1580,364.6094,1590,354.6094,1768,354.6094,1768,449.6094,1758,459.6094,1580,459.6094,1580,364.6094" style="stroke:#181818;stroke-width:1.0;"/><line style="stroke:#181818;stroke-width:1.0;" x1="1758" x2="1768" y1="364.6094" y2="354.6094"/><line style="stroke:#181818;stroke-width:1.0;" x1="1580" x2="1758" y1="364.6094" y2="364.6094"/><line style="stroke:#181818;stroke-width:1.0;" x1="1758" x2="1758" y1="364.6094" y2="459.6094"/><text fill="#000000" font-family="sans-serif" font-size="14" font-weight="bold" lengthAdjust="spacing" textLength="108" x="1616" y="382.1426">Sales Service 2</text></g><!--cluster Sales DB--><g id="cluster_Sales DB"><polygon fill="none" points="1463,502.6094,1473,492.6094,1631,492.6094,1631,586.6094,1621,596.6094,1463,596.6094,1463,502.6094" style="stroke:#181818;stroke-width:1.0;"/><line style="stroke:#181818;stroke-width:1.0;" x1="1621" x2="1631" y1="502.6094" y2="492.6094"/><line style="stroke:#181818;stroke-width:1.0;" x1="1463" x2="1621" y1="502.6094" y2="502.6094"/><line style="stroke:#181818;stroke-width:1.0;" x1="1621" x2="1621" y1="502.6094" y2="596.6094"/><text fill="#000000" font-family="sans-serif" font-size="14" font-weight="bold" lengthAdjust="spacing" textLength="62" x="1512" y="520.1426">Sales DB</text></g><!--cluster Store Service 1--><g id="cluster_Store Service 1"><polygon fill="none" points="1792,364.6094,1802,354.6094,1978,354.6094,1978,449.6094,1968,459.6094,1792,459.6094,1792,364.6094" style="stroke:#181818;stroke-width:1.0;"/><line style="stroke:#181818;stroke-width:1.0;" x1="1968" x2="1978" y1="364.6094" y2="354.6094"/><line style="stroke:#181818;stroke-width:1.0;" x1="1792" x2="1968" y1="364.6094" y2="364.6094"/><line style="stroke:#181818;stroke-width:1.0;" x1="1968" x2="1968" y1="364.6094" y2="459.6094"/><text fill="#000000" font-family="sans-serif" font-size="14" font-weight="bold" lengthAdjust="spacing" textLength="108" x="1827" y="382.1426">Store Service 1</text></g><!--cluster Store Service 2--><g id="cluster_Store Service 2"><polygon fill="none" points="2002,364.6094,2012,354.6094,2188,354.6094,2188,449.6094,2178,459.6094,2002,459.6094,2002,364.6094" style="stroke:#181818;stroke-width:1.0;"/><line style="stroke:#181818;stroke-width:1.0;" x1="2178" x2="2188" y1="364.6094" y2="354.6094"/><line style="stroke:#181818;stroke-width:1.0;" x1="2002" x2="2178" y1="364.6094" y2="364.6094"/><line style="stroke:#181818;stroke-width:1.0;" x1="2178" x2="2178" y1="364.6094" y2="459.6094"/><text fill="#000000" font-family="sans-serif" font-size="14" font-weight="bold" lengthAdjust="spacing" textLength="108" x="2037" y="382.1426">Store Service 2</text></g><!--cluster Store DB--><g id="cluster_Store DB"><polygon fill="none" points="1906,502.6094,1916,492.6094,2074,492.6094,2074,586.6094,2064,596.6094,1906,596.6094,1906,502.6094" style="stroke:#181818;stroke-width:1.0;"/><line style="stroke:#181818;stroke-width:1.0;" x1="2064" x2="2074" y1="502.6094" y2="492.6094"/><line style="stroke:#181818;stroke-width:1.0;" x1="1906" x2="2064" y1="502.6094" y2="502.6094"/><line style="stroke:#181818;stroke-width:1.0;" x1="2064" x2="2064" y1="502.6094" y2="596.6094"/><text fill="#000000" font-family="sans-serif" font-size="14" font-weight="bold" lengthAdjust="spacing" textLength="62" x="1955" y="520.1426">Store DB</text></g><!--entity Frontend (Navigateur Web)--><g id="elem_Frontend (Navigateur Web)"><rect fill="#F1F1F1" height="47.6094" rx="2.5" ry="2.5" style="stroke:#181818;stroke-width:0.5;" width="213" x="1012.5" y="85.6094"/><rect fill="#F1F1F1" height="10" style="stroke:#181818;stroke-width:0.5;" width="15" x="1205.5" y="90.6094"/><rect fill="#F1F1F1" height="2" style="stroke:#181818;stroke-width:0.5;" width="4" x="1203.5" y="92.6094"/><rect fill="#F1F1F1" height="2" style="stroke:#181818;stroke-width:0.5;" width="4" x="1203.5" y="96.6094"/><text fill="#000000" font-family="sans-serif" font-size="14" lengthAdjust="spacing" textLength="173" x="1027.5" y="120.1426">Frontend (Navigateur Web)</text></g><!--entity Kong--><g id="elem_Kong"><rect fill="#F1F1F1" height="47.6094" rx="2.5" ry="2.5" style="stroke:#181818;stroke-width:0.5;" width="73" x="1082.5" y="240.6094"/><rect fill="#F1F1F1" height="10" style="stroke:#181818;stroke-width:0.5;" width="15" x="1135.5" y="245.6094"/><rect fill="#F1F1F1" height="2" style="stroke:#181818;stroke-width:0.5;" width="4" x="1133.5" y="247.6094"/><rect fill="#F1F1F1" height="2" style="stroke:#181818;stroke-width:0.5;" width="4" x="1133.5" y="251.6094"/><text fill="#000000" font-family="sans-serif" font-size="14" lengthAdjust="spacing" textLength="33" x="1097.5" y="275.1426">Kong</text></g><!--entity Express.js Auth 1--><g id="elem_Express.js Auth 1"><rect fill="#F1F1F1" height="47.6094" rx="2.5" ry="2.5" style="stroke:#181818;stroke-width:0.5;" width="149" x="32.5" y="395.6094"/><rect fill="#F1F1F1" height="10" style="stroke:#181818;stroke-width:0.5;" width="15" x="161.5" y="400.6094"/><rect fill="#F1F1F1" height="2" style="stroke:#181818;stroke-width:0.5;" width="4" x="159.5" y="402.6094"/><rect fill="#F1F1F1" height="2" style="stroke:#181818;stroke-width:0.5;" width="4" x="159.5" y="406.6094"/><text fill="#000000" font-family="sans-serif" font-size="14" lengthAdjust="spacing" textLength="109" x="47.5" y="430.1426">Express.js Auth 1</text></g><!--entity Express.js Auth 2--><g id="elem_Express.js Auth 2"><rect fill="#F1F1F1" height="47.6094" rx="2.5" ry="2.5" style="stroke:#181818;stroke-width:0.5;" width="149" x="238.5" y="395.6094"/><rect fill="#F1F1F1" height="10" style="stroke:#181818;stroke-width:0.5;" width="15" x="367.5" y="400.6094"/><rect fill="#F1F1F1" height="2" style="stroke:#181818;stroke-width:0.5;" width="4" x="365.5" y="402.6094"/><rect fill="#F1F1F1" height="2" style="stroke:#181818;stroke-width:0.5;" width="4" x="365.5" y="406.6094"/><text fill="#000000" font-family="sans-serif" font-size="14" lengthAdjust="spacing" textLength="109" x="253.5" y="430.1426">Express.js Auth 2</text></g><!--entity PostgreSQL Auth--><g id="elem_PostgreSQL Auth"><path d="M124,543.6094 C124,533.6094 189,533.6094 189,533.6094 C189,533.6094 254,533.6094 254,543.6094 L254,570.2188 C254,580.2188 189,580.2188 189,580.2188 C189,580.2188 124,580.2188 124,570.2188 L124,543.6094 " fill="#F1F1F1" style="stroke:#181818;stroke-width:0.5;"/><path d="M124,543.6094 C124,553.6094 189,553.6094 189,553.6094 C189,553.6094 254,553.6094 254,543.6094 " fill="none" style="stroke:#181818;stroke-width:0.5;"/><text fill="#000000" font-family="sans-serif" font-size="14" lengthAdjust="spacing" textLength="110" x="134" y="572.1426">PostgreSQL Auth</text></g><!--entity Express.js Products 1--><g id="elem_Express.js Products 1"><rect fill="#F1F1F1" height="47.6094" rx="2.5" ry="2.5" style="stroke:#181818;stroke-width:0.5;" width="176" x="445" y="395.6094"/><rect fill="#F1F1F1" height="10" style="stroke:#181818;stroke-width:0.5;" width="15" x="601" y="400.6094"/><rect fill="#F1F1F1" height="2" style="stroke:#181818;stroke-width:0.5;" width="4" x="599" y="402.6094"/><rect fill="#F1F1F1" height="2" style="stroke:#181818;stroke-width:0.5;" width="4" x="599" y="406.6094"/><text fill="#000000" font-family="sans-serif" font-size="14" lengthAdjust="spacing" textLength="136" x="460" y="430.1426">Express.js Products 1</text></g><!--entity Express.js Products 2--><g id="elem_Express.js Products 2"><rect fill="#F1F1F1" height="47.6094" rx="2.5" ry="2.5" style="stroke:#181818;stroke-width:0.5;" width="176" x="678" y="395.6094"/><rect fill="#F1F1F1" height="10" style="stroke:#181818;stroke-width:0.5;" width="15" x="834" y="400.6094"/><rect fill="#F1F1F1" height="2" style="stroke:#181818;stroke-width:0.5;" width="4" x="832" y="402.6094"/><rect fill="#F1F1F1" height="2" style="stroke:#181818;stroke-width:0.5;" width="4" x="832" y="406.6094"/><text fill="#000000" font-family="sans-serif" font-size="14" lengthAdjust="spacing" textLength="136" x="693" y="430.1426">Express.js Products 2</text></g><!--entity PostgreSQL Products--><g id="elem_PostgreSQL Products"><path d="M546.5,543.6094 C546.5,533.6094 625,533.6094 625,533.6094 C625,533.6094 703.5,533.6094 703.5,543.6094 L703.5,570.2188 C703.5,580.2188 625,580.2188 625,580.2188 C625,580.2188 546.5,580.2188 546.5,570.2188 L546.5,543.6094 " fill="#F1F1F1" style="stroke:#181818;stroke-width:0.5;"/><path d="M546.5,543.6094 C546.5,553.6094 625,553.6094 625,553.6094 C625,553.6094 703.5,553.6094 703.5,543.6094 " fill="none" style="stroke:#181818;stroke-width:0.5;"/><text fill="#000000" font-family="sans-serif" font-size="14" lengthAdjust="spacing" textLength="137" x="556.5" y="572.1426">PostgreSQL Products</text></g><!--entity Express.js Inventory 1--><g id="elem_Express.js Inventory 1"><rect fill="#F1F1F1" height="47.6094" rx="2.5" ry="2.5" style="stroke:#181818;stroke-width:0.5;" width="178" x="913" y="395.6094"/><rect fill="#F1F1F1" height="10" style="stroke:#181818;stroke-width:0.5;" width="15" x="1071" y="400.6094"/><rect fill="#F1F1F1" height="2" style="stroke:#181818;stroke-width:0.5;" width="4" x="1069" y="402.6094"/><rect fill="#F1F1F1" height="2" style="stroke:#181818;stroke-width:0.5;" width="4" x="1069" y="406.6094"/><text fill="#000000" font-family="sans-serif" font-size="14" lengthAdjust="spacing" textLength="138" x="928" y="430.1426">Express.js Inventory 1</text></g><!--entity Express.js Inventory 2--><g id="elem_Express.js Inventory 2"><rect fill="#F1F1F1" height="47.6094" rx="2.5" ry="2.5" style="stroke:#181818;stroke-width:0.5;" width="178" x="1147" y="395.6094"/><rect fill="#F1F1F1" height="10" style="stroke:#181818;stroke-width:0.5;" width="15" x="1305" y="400.6094"/><rect fill="#F1F1F1" height="2" style="stroke:#181818;stroke-width:0.5;" width="4" x="1303" y="402.6094"/><rect fill="#F1F1F1" height="2" style="stroke:#181818;stroke-width:0.5;" width="4" x="1303" y="406.6094"/><text fill="#000000" font-family="sans-serif" font-size="14" lengthAdjust="spacing" textLength="138" x="1162" y="430.1426">Express.js Inventory 2</text></g><!--entity PostgreSQL Inventory--><g id="elem_PostgreSQL Inventory"><path d="M1015.5,543.6094 C1015.5,533.6094 1095,533.6094 1095,533.6094 C1095,533.6094 1174.5,533.6094 1174.5,543.6094 L1174.5,570.2188 C1174.5,580.2188 1095,580.2188 1095,580.2188 C1095,580.2188 1015.5,580.2188 1015.5,570.2188 L1015.5,543.6094 " fill="#F1F1F1" style="stroke:#181818;stroke-width:0.5;"/><path d="M1015.5,543.6094 C1015.5,553.6094 1095,553.6094 1095,553.6094 C1095,553.6094 1174.5,553.6094 1174.5,543.6094 " fill="none" style="stroke:#181818;stroke-width:0.5;"/><text fill="#000000" font-family="sans-serif" font-size="14" lengthAdjust="spacing" textLength="139" x="1025.5" y="572.1426">PostgreSQL Inventory</text></g><!--entity Express.js Sales 1--><g id="elem_Express.js Sales 1"><rect fill="#F1F1F1" height="47.6094" rx="2.5" ry="2.5" style="stroke:#181818;stroke-width:0.5;" width="155" x="1384.5" y="395.6094"/><rect fill="#F1F1F1" height="10" style="stroke:#181818;stroke-width:0.5;" width="15" x="1519.5" y="400.6094"/><rect fill="#F1F1F1" height="2" style="stroke:#181818;stroke-width:0.5;" width="4" x="1517.5" y="402.6094"/><rect fill="#F1F1F1" height="2" style="stroke:#181818;stroke-width:0.5;" width="4" x="1517.5" y="406.6094"/><text fill="#000000" font-family="sans-serif" font-size="14" lengthAdjust="spacing" textLength="115" x="1399.5" y="430.1426">Express.js Sales 1</text></g><!--entity Express.js Sales 2--><g id="elem_Express.js Sales 2"><rect fill="#F1F1F1" height="47.6094" rx="2.5" ry="2.5" style="stroke:#181818;stroke-width:0.5;" width="155" x="1596.5" y="395.6094"/><rect fill="#F1F1F1" height="10" style="stroke:#181818;stroke-width:0.5;" width="15" x="1731.5" y="400.6094"/><rect fill="#F1F1F1" height="2" style="stroke:#181818;stroke-width:0.5;" width="4" x="1729.5" y="402.6094"/><rect fill="#F1F1F1" height="2" style="stroke:#181818;stroke-width:0.5;" width="4" x="1729.5" y="406.6094"/><text fill="#000000" font-family="sans-serif" font-size="14" lengthAdjust="spacing" textLength="115" x="1611.5" y="430.1426">Express.js Sales 2</text></g><!--entity PostgreSQL Sales--><g id="elem_PostgreSQL Sales"><path d="M1479,543.6094 C1479,533.6094 1547,533.6094 1547,533.6094 C1547,533.6094 1615,533.6094 1615,543.6094 L1615,570.2188 C1615,580.2188 1547,580.2188 1547,580.2188 C1547,580.2188 1479,580.2188 1479,570.2188 L1479,543.6094 " fill="#F1F1F1" style="stroke:#181818;stroke-width:0.5;"/><path d="M1479,543.6094 C1479,553.6094 1547,553.6094 1547,553.6094 C1547,553.6094 1615,553.6094 1615,543.6094 " fill="none" style="stroke:#181818;stroke-width:0.5;"/><text fill="#000000" font-family="sans-serif" font-size="14" lengthAdjust="spacing" textLength="116" x="1489" y="572.1426">PostgreSQL Sales</text></g><!--entity Express.js Store 1--><g id="elem_Express.js Store 1"><rect fill="#F1F1F1" height="47.6094" rx="2.5" ry="2.5" style="stroke:#181818;stroke-width:0.5;" width="154" x="1808" y="395.6094"/><rect fill="#F1F1F1" height="10" style="stroke:#181818;stroke-width:0.5;" width="15" x="1942" y="400.6094"/><rect fill="#F1F1F1" height="2" style="stroke:#181818;stroke-width:0.5;" width="4" x="1940" y="402.6094"/><rect fill="#F1F1F1" height="2" style="stroke:#181818;stroke-width:0.5;" width="4" x="1940" y="406.6094"/><text fill="#000000" font-family="sans-serif" font-size="14" lengthAdjust="spacing" textLength="114" x="1823" y="430.1426">Express.js Store 1</text></g><!--entity Express.js Store 2--><g id="elem_Express.js Store 2"><rect fill="#F1F1F1" height="47.6094" rx="2.5" ry="2.5" style="stroke:#181818;stroke-width:0.5;" width="154" x="2018" y="395.6094"/><rect fill="#F1F1F1" height="10" style="stroke:#181818;stroke-width:0.5;" width="15" x="2152" y="400.6094"/><rect fill="#F1F1F1" height="2" style="stroke:#181818;stroke-width:0.5;" width="4" x="2150" y="402.6094"/><rect fill="#F1F1F1" height="2" style="stroke:#181818;stroke-width:0.5;" width="4" x="2150" y="406.6094"/><text fill="#000000" font-family="sans-serif" font-size="14" lengthAdjust="spacing" textLength="114" x="2033" y="430.1426">Express.js Store 2</text></g><!--entity PostgreSQL Store--><g id="elem_PostgreSQL Store"><path d="M1922.5,543.6094 C1922.5,533.6094 1990,533.6094 1990,533.6094 C1990,533.6094 2057.5,533.6094 2057.5,543.6094 L2057.5,570.2188 C2057.5,580.2188 1990,580.2188 1990,580.2188 C1990,580.2188 1922.5,580.2188 1922.5,570.2188 L1922.5,543.6094 " fill="#F1F1F1" style="stroke:#181818;stroke-width:0.5;"/><path d="M1922.5,543.6094 C1922.5,553.6094 1990,553.6094 1990,553.6094 C1990,553.6094 2057.5,553.6094 2057.5,543.6094 " fill="none" style="stroke:#181818;stroke-width:0.5;"/><text fill="#000000" font-family="sans-serif" font-size="14" lengthAdjust="spacing" textLength="115" x="1932.5" y="572.1426">PostgreSQL Store</text></g><!--link Frontend (Navigateur Web) to Kong--><g id="link_Frontend (Navigateur Web)_Kong"><path d="M1119,133.8494 C1119,162.5994 1119,205.2994 1119,234.1494 " fill="none" id="Frontend (Navigateur Web)-to-Kong" style="stroke:#181818;stroke-width:1.0;"/><polygon fill="#181818" points="1119,240.1494,1123,231.1494,1119,235.1494,1115,231.1494,1119,240.1494" style="stroke:#181818;stroke-width:1.0;"/><text fill="#000000" font-family="sans-serif" font-size="13" lengthAdjust="spacing" textLength="77" x="1120" y="180.1045">HTTP (Axios)</text></g><!--link Kong to Express.js Auth 1--><g id="link_Kong_Express.js Auth 1"><path d="M1082.29,267.2894 C974.91,272.4494 652.19,289.5794 386,320.6094 C312.7,329.1594 291.11,320.7294 222,346.6094 C190.68,358.3394 163.5643,375.6692 141.3143,391.9292 " fill="none" id="Kong-to-Express.js Auth 1" style="stroke:#181818;stroke-width:1.0;"/><polygon fill="#181818" points="136.47,395.4694,146.0966,393.3887,140.5069,392.5192,141.3764,386.9296,136.47,395.4694" style="stroke:#181818;stroke-width:1.0;"/><text fill="#000000" font-family="sans-serif" font-size="13" lengthAdjust="spacing" textLength="64" x="387" y="335.1045">round-robin</text></g><!--link Kong to Express.js Auth 2--><g id="link_Kong_Express.js Auth 2"><path d="M1082.26,267.6894 C957.54,275.1094 551.3,302.1994 429,346.6094 C397.36,358.0994 369.9796,375.4565 347.5496,391.7965 " fill="none" id="Kong-to-Express.js Auth 2" style="stroke:#181818;stroke-width:1.0;"/><polygon fill="#181818" points="342.7,395.3294,352.3297,393.2631,346.7413,392.3853,347.6192,386.797,342.7,395.3294" style="stroke:#181818;stroke-width:1.0;"/><text fill="#000000" font-family="sans-serif" font-size="13" lengthAdjust="spacing" textLength="64" x="527" y="335.1045">round-robin</text></g><!--link Kong to Express.js Products 1--><g id="link_Kong_Express.js Products 1"><path d="M1082.4,267.9494 C1003.48,273.8894 812.29,293.0694 662,346.6094 C627.81,358.7894 597.0665,376.2696 571.8765,392.3596 " fill="none" id="Kong-to-Express.js Products 1" style="stroke:#181818;stroke-width:1.0;"/><polygon fill="#181818" points="566.82,395.5894,576.558,394.1156,571.0338,392.8979,572.2515,387.3736,566.82,395.5894" style="stroke:#181818;stroke-width:1.0;"/><text fill="#000000" font-family="sans-serif" font-size="13" lengthAdjust="spacing" textLength="64" x="748" y="335.1045">round-robin</text></g><!--link Kong to Express.js Products 2--><g id="link_Kong_Express.js Products 2"><path d="M1082.17,277.1294 C1037.57,291.5194 960.51,317.7794 897,346.6094 C864.86,361.1994 835.0838,377.5882 809.3638,392.5782 " fill="none" id="Kong-to-Express.js Products 2" style="stroke:#181818;stroke-width:1.0;"/><polygon fill="#181818" points="804.18,395.5994,813.9699,394.5234,808.4999,393.0817,809.9416,387.6116,804.18,395.5994" style="stroke:#181818;stroke-width:1.0;"/><text fill="#000000" font-family="sans-serif" font-size="13" lengthAdjust="spacing" textLength="64" x="958" y="335.1045">round-robin</text></g><!--link Kong to Express.js Inventory 1--><g id="link_Kong_Express.js Inventory 1"><path d="M1101.23,288.8494 C1079.24,317.5994 1045.6445,361.5331 1023.5845,390.3831 " fill="none" id="Kong-to-Express.js Inventory 1" style="stroke:#181818;stroke-width:1.0;"/><polygon fill="#181818" points="1019.94,395.1494,1028.5843,390.4296,1022.9771,391.1775,1022.2292,385.5703,1019.94,395.1494" style="stroke:#181818;stroke-width:1.0;"/><text fill="#000000" font-family="sans-serif" font-size="13" lengthAdjust="spacing" textLength="64" x="1075" y="335.1045">round-robin</text></g><!--link Kong to Express.js Inventory 2--><g id="link_Kong_Express.js Inventory 2"><path d="M1136.77,288.8494 C1158.76,317.5994 1192.3555,361.5331 1214.4155,390.3831 " fill="none" id="Kong-to-Express.js Inventory 2" style="stroke:#181818;stroke-width:1.0;"/><polygon fill="#181818" points="1218.06,395.1494,1215.7708,385.5703,1215.0229,391.1775,1209.4157,390.4296,1218.06,395.1494" style="stroke:#181818;stroke-width:1.0;"/><text fill="#000000" font-family="sans-serif" font-size="13" lengthAdjust="spacing" textLength="64" x="1174" y="335.1045">round-robin</text></g><!--link Kong to Express.js Sales 1--><g id="link_Kong_Express.js Sales 1"><path d="M1155.6,276.6394 C1200.32,290.6394 1277.81,316.6094 1341,346.6094 C1371.14,360.9194 1398.482,377.2119 1422.162,392.3219 " fill="none" id="Kong-to-Express.js Sales 1" style="stroke:#181818;stroke-width:1.0;"/><polygon fill="#181818" points="1427.22,395.5494,1421.7846,387.3362,1423.005,392.8598,1417.4813,394.0802,1427.22,395.5494" style="stroke:#181818;stroke-width:1.0;"/><text fill="#000000" font-family="sans-serif" font-size="13" lengthAdjust="spacing" textLength="64" x="1324" y="335.1045">round-robin</text></g><!--link Kong to Express.js Sales 2--><g id="link_Kong_Express.js Sales 2"><path d="M1155.61,267.8994 C1232.25,273.6394 1414.22,292.3394 1556,346.6094 C1587.6,358.7094 1615.2797,375.8714 1638.1797,391.9514 " fill="none" id="Kong-to-Express.js Sales 2" style="stroke:#181818;stroke-width:1.0;"/><polygon fill="#181818" points="1643.09,395.3994,1638.0231,386.9539,1638.998,392.5261,1633.4258,393.501,1643.09,395.3994" style="stroke:#181818;stroke-width:1.0;"/><text fill="#000000" font-family="sans-serif" font-size="13" lengthAdjust="spacing" textLength="64" x="1534" y="335.1045">round-robin</text></g><!--link Kong to Express.js Store 1--><g id="link_Kong_Express.js Store 1"><path d="M1155.64,267.9594 C1275.35,275.9894 1653.85,304.1794 1768,346.6094 C1799.75,358.4094 1827.3917,375.7763 1850.0717,392.0163 " fill="none" id="Kong-to-Express.js Store 1" style="stroke:#181818;stroke-width:1.0;"/><polygon fill="#181818" points="1854.95,395.5094,1849.9613,387.0175,1850.8847,392.5984,1845.3038,393.5219,1854.95,395.5094" style="stroke:#181818;stroke-width:1.0;"/><text fill="#000000" font-family="sans-serif" font-size="13" lengthAdjust="spacing" textLength="64" x="1740" y="335.1045">round-robin</text></g><!--link Kong to Express.js Store 2--><g id="link_Kong_Express.js Store 2"><path d="M1155.52,266.5594 C1298.95,270.6794 1823.27,289.4294 1978,346.6094 C2009.77,358.3494 2037.4144,375.7224 2060.0844,391.9824 " fill="none" id="Kong-to-Express.js Store 2" style="stroke:#181818;stroke-width:1.0;"/><polygon fill="#181818" points="2064.96,395.4794,2059.978,386.9835,2060.897,392.5652,2055.3153,393.4843,2064.96,395.4794" style="stroke:#181818;stroke-width:1.0;"/><text fill="#000000" font-family="sans-serif" font-size="13" lengthAdjust="spacing" textLength="64" x="1941" y="335.1045">round-robin</text></g><!--link Express.js Auth 1 to PostgreSQL Auth--><g id="link_Express.js Auth 1_PostgreSQL Auth"><path d="M121.1,443.8994 C136.3,469.0194 157.2336,503.6161 172.2536,528.4361 " fill="none" id="Express.js Auth 1-to-PostgreSQL Auth" style="stroke:#181818;stroke-width:1.0;"/><polygon fill="#181818" points="175.36,533.5694,174.1225,523.7986,172.7713,529.2917,167.2782,527.9405,175.36,533.5694" style="stroke:#181818;stroke-width:1.0;"/></g><!--link Express.js Auth 2 to PostgreSQL Auth--><g id="link_Express.js Auth 2_PostgreSQL Auth"><path d="M291.68,443.8994 C268.69,469.0194 236.3903,504.3228 213.6803,529.1428 " fill="none" id="Express.js Auth 2-to-PostgreSQL Auth" style="stroke:#181818;stroke-width:1.0;"/><polygon fill="#181818" points="209.63,533.5694,218.6565,529.6296,213.0053,529.8805,212.7544,524.2292,209.63,533.5694" style="stroke:#181818;stroke-width:1.0;"/></g><!--link Express.js Products 1 to PostgreSQL Products--><g id="link_Express.js Products 1_PostgreSQL Products"><path d="M548.82,443.8994 C565.87,469.0194 589.4685,503.7862 606.3285,528.6062 " fill="none" id="Express.js Products 1-to-PostgreSQL Products" style="stroke:#181818;stroke-width:1.0;"/><polygon fill="#181818" points="609.7,533.5694,607.9516,523.8769,606.8905,529.4334,601.334,528.3722,609.7,533.5694" style="stroke:#181818;stroke-width:1.0;"/></g><!--link Express.js Products 2 to PostgreSQL Products--><g id="link_Express.js Products 2_PostgreSQL Products"><path d="M741.76,443.8994 C715.62,469.0194 678.6172,504.593 652.7772,529.413 " fill="none" id="Express.js Products 2-to-PostgreSQL Products" style="stroke:#181818;stroke-width:1.0;"/><polygon fill="#181818" points="648.45,533.5694,657.7117,530.2196,652.056,530.1057,652.1699,524.45,648.45,533.5694" style="stroke:#181818;stroke-width:1.0;"/></g><!--link Express.js Inventory 1 to PostgreSQL Inventory--><g id="link_Express.js Inventory 1_PostgreSQL Inventory"><path d="M1017.99,443.8994 C1035.23,469.0194 1059.094,503.8029 1076.134,528.6229 " fill="none" id="Express.js Inventory 1-to-PostgreSQL Inventory" style="stroke:#181818;stroke-width:1.0;"/><polygon fill="#181818" points="1079.53,533.5694,1077.7337,523.8857,1076.7,529.4473,1071.1384,528.4137,1079.53,533.5694" style="stroke:#181818;stroke-width:1.0;"/></g><!--link Express.js Inventory 2 to PostgreSQL Inventory--><g id="link_Express.js Inventory 2_PostgreSQL Inventory"><path d="M1211.76,443.8994 C1185.62,469.0194 1148.6172,504.593 1122.7772,529.413 " fill="none" id="Express.js Inventory 2-to-PostgreSQL Inventory" style="stroke:#181818;stroke-width:1.0;"/><polygon fill="#181818" points="1118.45,533.5694,1127.7117,530.2196,1122.056,530.1057,1122.1699,524.45,1118.45,533.5694" style="stroke:#181818;stroke-width:1.0;"/></g><!--link Express.js Sales 1 to PostgreSQL Sales--><g id="link_Express.js Sales 1_PostgreSQL Sales"><path d="M1476.61,443.8994 C1492.37,469.0194 1514.1015,503.6667 1529.6715,528.4867 " fill="none" id="Express.js Sales 1-to-PostgreSQL Sales" style="stroke:#181818;stroke-width:1.0;"/><polygon fill="#181818" points="1532.86,533.5694,1531.4658,523.8197,1530.203,529.3338,1524.6889,528.071,1532.86,533.5694" style="stroke:#181818;stroke-width:1.0;"/></g><!--link Express.js Sales 2 to PostgreSQL Sales--><g id="link_Express.js Sales 2_PostgreSQL Sales"><path d="M1652.17,443.8994 C1628.62,469.0194 1595.4928,504.3714 1572.2328,529.1914 " fill="none" id="Express.js Sales 2-to-PostgreSQL Sales" style="stroke:#181818;stroke-width:1.0;"/><polygon fill="#181818" points="1568.13,533.5694,1577.2029,529.7376,1571.549,529.921,1571.3656,524.2672,1568.13,533.5694" style="stroke:#181818;stroke-width:1.0;"/></g><!--link Express.js Store 1 to PostgreSQL Store--><g id="link_Express.js Store 1_PostgreSQL Store"><path d="M1903.05,443.8994 C1922.52,469.0194 1949.6252,504.0064 1968.8552,528.8264 " fill="none" id="Express.js Store 1-to-PostgreSQL Store" style="stroke:#181818;stroke-width:1.0;"/><polygon fill="#181818" points="1972.53,533.5694,1970.1798,524.005,1969.4677,529.6169,1963.8558,528.9047,1972.53,533.5694" style="stroke:#181818;stroke-width:1.0;"/></g><!--link Express.js Store 2 to PostgreSQL Store--><g id="link_Express.js Store 2_PostgreSQL Store"><path d="M2076.95,443.8994 C2057.48,469.0194 2030.3748,504.0064 2011.1448,528.8264 " fill="none" id="Express.js Store 2-to-PostgreSQL Store" style="stroke:#181818;stroke-width:1.0;"/><polygon fill="#181818" points="2007.47,533.5694,2016.1442,528.9047,2010.5323,529.6169,2009.8202,524.005,2007.47,533.5694" style="stroke:#181818;stroke-width:1.0;"/></g><!--SRC=[bPHDRi8m44RtESKeArXG2I-xg4JLFzIgIWLLroOPWIkmaUsaeAe7uXnShC49OEAGEBieUM_o9UCPpVGIOIJZ1TCOwrGYh5WiXKAPiHWLq0nZc56LNwhzRatbVfTVeWOfKfuCf9Wn7WHS90ZXfsPBfgZ6L8Rm6m34OhKM7Bc6y4aAhf4dq7kd6PiR2BvmrW-3lwC_YiRmd3_veLl7VnLyRgEfNi2a20b3XtxSh2KgTVEjm933WrfZabQJLCo7-q99gAQ7tm9X99IUIvnyl1d32Xb9aQInLdv1JxGLrgb0l2gGcWgDmO-K5NxCixo-a5k_z6VSYk_M87urI5sDnYyuOTOdJEWIFNz-WLhHBrtIxfAgsnZN87RKF3fwHZMe7VN29UqkgRhDKG-8YTemn30Ot9L32hVmCfr6q1jjc53zeBnh07SkSzhU94qmyOIjGUee-Bx1FknT3Tzt74za5zgxTdc4kj1ExQ2kcyPrDc9TAzj9kuzL-homhZNIpxZeP5MnTihLNdewfsvM-N8HrFRIXprsqc6BgQtjunNs7m00]--></g></svg>