<?xml version="1.0" encoding="us-ascii" standalone="no"?><svg xmlns="http://www.w3.org/2000/svg" xmlns:xlink="http://www.w3.org/1999/xlink" contentStyleType="text/css" height="1176px" preserveAspectRatio="none" style="width:934px;height:1176px;background:#FFFFFF;" version="1.1" viewBox="0 0 934 1176" width="934px" zoomAndPan="magnify"><defs/><g><ellipse cx="377.25" cy="20" fill="#222222" rx="10" ry="10" style="stroke:#222222;stroke-width:1.0;"/><path d="M503.25,40 L503.25,65.5273 L483.25,69.5273 L503.25,73.5273 L503.25,99.0547 A0,0 0 0 0 503.25,99.0547 L710.25,99.0547 A0,0 0 0 0 710.25,99.0547 L710.25,50 L700.25,40 L503.25,40 A0,0 0 0 0 503.25,40 " fill="#FEFFDD" style="stroke:#181818;stroke-width:0.5;"/><path d="M700.25,40 L700.25,50 L710.25,50 L700.25,40 " fill="#FEFFDD" style="stroke:#181818;stroke-width:0.5;"/><text fill="#000000" font-family="sans-serif" font-size="13" lengthAdjust="spacing" textLength="172" x="509.25" y="58.4951">POST /api/v1/customers/login</text><text fill="#000000" font-family="sans-serif" font-size="13" lengthAdjust="spacing" textLength="186" x="509.25" y="74.8467">ou POST /api/v1/managers/login</text><text fill="#000000" font-family="sans-serif" font-size="13" lengthAdjust="spacing" textLength="135" x="509.25" y="91.1982">avec email et password</text><rect fill="#F1F1F1" height="35.0938" rx="12.5" ry="12.5" style="stroke:#181818;stroke-width:0.5;" width="212" x="271.25" y="51.9805"/><text fill="#000000" font-family="sans-serif" font-size="12" lengthAdjust="spacing" textLength="192" x="281.25" y="74.4375">Client envoie requ&#234;te de connexion</text><rect fill="#F1F1F1" height="35.0938" rx="12.5" ry="12.5" style="stroke:#181818;stroke-width:0.5;" width="219" x="267.75" y="119.0547"/><text fill="#000000" font-family="sans-serif" font-size="12" lengthAdjust="spacing" textLength="199" x="277.75" y="141.5117">API Gateway (Kong) re&#231;oit la requ&#234;te</text><rect fill="#F1F1F1" height="35.0938" rx="12.5" ry="12.5" style="stroke:#181818;stroke-width:0.5;" width="175" x="289.75" y="174.1484"/><text fill="#000000" font-family="sans-serif" font-size="12" lengthAdjust="spacing" textLength="155" x="299.75" y="196.6055">Auth Service traite la requ&#234;te</text><rect fill="#F1F1F1" height="35.0938" rx="12.5" ry="12.5" style="stroke:#181818;stroke-width:0.5;" width="197" x="278.75" y="229.2422"/><text fill="#000000" font-family="sans-serif" font-size="12" lengthAdjust="spacing" textLength="177" x="288.75" y="251.6992">Validation des donn&#233;es d'entr&#233;e</text><rect fill="#F1F1F1" height="35.0938" rx="12.5" ry="12.5" style="stroke:#181818;stroke-width:0.5;" width="210" x="272.25" y="333.2539"/><text fill="#000000" font-family="sans-serif" font-size="12" lengthAdjust="spacing" textLength="190" x="282.25" y="355.7109">Retourner erreur 400 Bad Request</text><ellipse cx="377.25" cy="407.3008" fill="none" rx="11" ry="11" style="stroke:#222222;stroke-width:1.0;"/><ellipse cx="377.25" cy="407.3008" fill="#222222" rx="6" ry="6" style="stroke:#222222;stroke-width:1.0;"/><polygon fill="#F1F1F1" points="306.75,284.3359,447.75,284.3359,459.75,296.3359,447.75,308.3359,306.75,308.3359,294.75,296.3359,306.75,284.3359" style="stroke:#181818;stroke-width:0.5;"/><text fill="#000000" font-family="sans-serif" font-size="11" lengthAdjust="spacing" textLength="18" x="381.25" y="319.7549">non</text><text fill="#000000" font-family="sans-serif" font-size="11" lengthAdjust="spacing" textLength="141" x="306.75" y="300.8369">Email et password pr&#233;sents?</text><text fill="#000000" font-family="sans-serif" font-size="11" lengthAdjust="spacing" textLength="14" x="459.75" y="293.9189">oui</text><path d="M528.75,456.4961 L528.75,473.8477 L508.75,477.8477 L528.75,481.8477 L528.75,499.1992 A0,0 0 0 0 528.75,499.1992 L823.75,499.1992 A0,0 0 0 0 823.75,499.1992 L823.75,466.4961 L813.75,456.4961 L528.75,456.4961 A0,0 0 0 0 528.75,456.4961 " fill="#FEFFDD" style="stroke:#181818;stroke-width:0.5;"/><path d="M813.75,456.4961 L813.75,466.4961 L823.75,466.4961 L813.75,456.4961 " fill="#FEFFDD" style="stroke:#181818;stroke-width:0.5;"/><text fill="#000000" font-family="sans-serif" font-size="13" lengthAdjust="spacing" textLength="270" x="534.75" y="474.9912">Query: SELECT * FROM customers/managers</text><text fill="#000000" font-family="sans-serif" font-size="13" lengthAdjust="spacing" textLength="107" x="534.75" y="491.3428">WHERE email = ?</text><rect fill="#F1F1F1" height="35.0938" rx="12.5" ry="12.5" style="stroke:#181818;stroke-width:0.5;" width="263" x="245.75" y="460.3008"/><text fill="#000000" font-family="sans-serif" font-size="12" lengthAdjust="spacing" textLength="243" x="255.75" y="482.7578">Rechercher l'utilisateur en base de donn&#233;es</text><polygon fill="#F1F1F1" points="333.75,519.1992,420.75,519.1992,432.75,531.1992,420.75,543.1992,333.75,543.1992,321.75,531.1992,333.75,519.1992" style="stroke:#181818;stroke-width:0.5;"/><text fill="#000000" font-family="sans-serif" font-size="11" lengthAdjust="spacing" textLength="87" x="333.75" y="535.7002">Utilisateur trouv&#233;?</text><text fill="#000000" font-family="sans-serif" font-size="11" lengthAdjust="spacing" textLength="14" x="307.75" y="528.7822">oui</text><text fill="#000000" font-family="sans-serif" font-size="11" lengthAdjust="spacing" textLength="18" x="432.75" y="528.7822">non</text><rect fill="#F1F1F1" height="35.0938" rx="12.5" ry="12.5" style="stroke:#181818;stroke-width:0.5;" width="207" x="147.25" y="553.1992"/><text fill="#000000" font-family="sans-serif" font-size="12" lengthAdjust="spacing" textLength="187" x="157.25" y="575.6563">R&#233;cup&#233;rer les donn&#233;es utilisateur</text><rect fill="#F1F1F1" height="35.0938" rx="12.5" ry="12.5" style="stroke:#181818;stroke-width:0.5;" width="259" x="374.25" y="553.1992"/><text fill="#000000" font-family="sans-serif" font-size="12" lengthAdjust="spacing" textLength="239" x="384.25" y="575.6563">Enregistrer tentative &#233;chou&#233;e (Prometheus)</text><rect fill="#F1F1F1" height="35.0938" rx="12.5" ry="12.5" style="stroke:#181818;stroke-width:0.5;" width="195" x="406.25" y="608.293"/><text fill="#000000" font-family="sans-serif" font-size="12" lengthAdjust="spacing" textLength="175" x="416.25" y="630.75">Retourner erreur 404 Not Found</text><ellipse cx="503.75" cy="674.3867" fill="none" rx="11" ry="11" style="stroke:#222222;stroke-width:1.0;"/><ellipse cx="503.75" cy="674.3867" fill="#222222" rx="6" ry="6" style="stroke:#222222;stroke-width:1.0;"/><path d="M472.25,701.582 L472.25,718.9336 L452.25,722.9336 L472.25,726.9336 L472.25,744.2852 A0,0 0 0 0 472.25,744.2852 L635.25,744.2852 A0,0 0 0 0 635.25,744.2852 L635.25,711.582 L625.25,701.582 L472.25,701.582 A0,0 0 0 0 472.25,701.582 " fill="#FEFFDD" style="stroke:#181818;stroke-width:0.5;"/><path d="M625.25,701.582 L625.25,711.582 L635.25,711.582 L625.25,701.582 " fill="#FEFFDD" style="stroke:#181818;stroke-width:0.5;"/><text fill="#000000" font-family="sans-serif" font-size="13" lengthAdjust="spacing" textLength="138" x="478.25" y="720.0771">Comparaison avec hash</text><text fill="#000000" font-family="sans-serif" font-size="13" lengthAdjust="spacing" textLength="106" x="478.25" y="736.4287">bcrypt ou similaire</text><rect fill="#F1F1F1" height="35.0938" rx="12.5" ry="12.5" style="stroke:#181818;stroke-width:0.5;" width="150" x="302.25" y="705.3867"/><text fill="#000000" font-family="sans-serif" font-size="12" lengthAdjust="spacing" textLength="130" x="312.25" y="727.8438">V&#233;rifier le mot de passe</text><polygon fill="#F1F1F1" points="322.75,764.2852,431.75,764.2852,443.75,776.2852,431.75,788.2852,322.75,788.2852,310.75,776.2852,322.75,764.2852" style="stroke:#181818;stroke-width:0.5;"/><text fill="#000000" font-family="sans-serif" font-size="11" lengthAdjust="spacing" textLength="109" x="322.75" y="780.7861">Mot de passe correct?</text><text fill="#000000" font-family="sans-serif" font-size="11" lengthAdjust="spacing" textLength="14" x="296.75" y="773.8682">oui</text><text fill="#000000" font-family="sans-serif" font-size="11" lengthAdjust="spacing" textLength="18" x="443.75" y="773.8682">non</text><path d="M251,798.2852 L251,823.8125 L231,827.8125 L251,831.8125 L251,857.3398 A0,0 0 0 0 251,857.3398 L415,857.3398 A0,0 0 0 0 415,857.3398 L415,808.2852 L405,798.2852 L251,798.2852 A0,0 0 0 0 251,798.2852 " fill="#FEFFDD" style="stroke:#181818;stroke-width:0.5;"/><path d="M405,798.2852 L405,808.2852 L415,808.2852 L405,798.2852 " fill="#FEFFDD" style="stroke:#181818;stroke-width:0.5;"/><text fill="#000000" font-family="sans-serif" font-size="13" lengthAdjust="spacing" textLength="122" x="257" y="816.7803">Key: session:user_id</text><text fill="#000000" font-family="sans-serif" font-size="13" lengthAdjust="spacing" textLength="143" x="257" y="833.1318">Value: token + metadata</text><text fill="#000000" font-family="sans-serif" font-size="13" lengthAdjust="spacing" textLength="50" x="257" y="849.4834">TTL: 24h</text><rect fill="#F1F1F1" height="35.0938" rx="12.5" ry="12.5" style="stroke:#181818;stroke-width:0.5;" width="176" x="55" y="810.2656"/><text fill="#000000" font-family="sans-serif" font-size="12" lengthAdjust="spacing" textLength="156" x="65" y="832.7227">Stocker session dans Redis</text><rect fill="#F1F1F1" height="35.0938" rx="12.5" ry="12.5" style="stroke:#181818;stroke-width:0.5;" width="264" x="11" y="891.3008"/><text fill="#000000" font-family="sans-serif" font-size="12" lengthAdjust="spacing" textLength="244" x="21" y="913.7578">Enregistrer connexion r&#233;ussie (Prometheus)</text><path d="M247,952.7461 L247,1019.1523 L227,1023.1523 L247,1027.1523 L247,1093.5586 A0,0 0 0 0 247,1093.5586 L462,1093.5586 A0,0 0 0 0 462,1093.5586 L462,962.7461 L452,952.7461 L247,952.7461 A0,0 0 0 0 247,952.7461 " fill="#FEFFDD" style="stroke:#181818;stroke-width:0.5;"/><path d="M452,952.7461 L452,962.7461 L462,962.7461 L452,952.7461 " fill="#FEFFDD" style="stroke:#181818;stroke-width:0.5;"/><text fill="#000000" font-family="sans-serif" font-size="13" lengthAdjust="spacing" textLength="4" x="253" y="971.2412">{</text><text fill="#000000" font-family="sans-serif" font-size="13" lengthAdjust="spacing" textLength="47" x="261" y="987.5928">"user": {</text><text fill="#000000" font-family="sans-serif" font-size="13" lengthAdjust="spacing" textLength="39" x="269" y="1003.9443">"id": 1,</text><text fill="#000000" font-family="sans-serif" font-size="13" lengthAdjust="spacing" textLength="118" x="269" y="1020.2959">"name": "John Doe",</text><text fill="#000000" font-family="sans-serif" font-size="13" lengthAdjust="spacing" textLength="178" x="269" y="1036.6475">"email": "john@example.com",</text><text fill="#000000" font-family="sans-serif" font-size="13" lengthAdjust="spacing" textLength="64" x="269" y="1052.999">"cart_id": 1</text><text fill="#000000" font-family="sans-serif" font-size="13" lengthAdjust="spacing" textLength="4" x="261" y="1069.3506">}</text><text fill="#000000" font-family="sans-serif" font-size="13" lengthAdjust="spacing" textLength="4" x="253" y="1085.7021">}</text><rect fill="#F1F1F1" height="35.0938" rx="12.5" ry="12.5" style="stroke:#181818;stroke-width:0.5;" width="168" x="59" y="1005.6055"/><text fill="#000000" font-family="sans-serif" font-size="12" lengthAdjust="spacing" textLength="148" x="69" y="1028.0625">Retourner r&#233;ponse 200 OK</text><rect fill="#F1F1F1" height="35.0938" rx="12.5" ry="12.5" style="stroke:#181818;stroke-width:0.5;" width="259" x="482" y="798.2852"/><text fill="#000000" font-family="sans-serif" font-size="12" lengthAdjust="spacing" textLength="239" x="492" y="820.7422">Enregistrer tentative &#233;chou&#233;e (Prometheus)</text><path d="M737,867.3398 L737,901.043 L717,905.043 L737,909.043 L737,942.7461 A0,0 0 0 0 737,942.7461 L922,942.7461 A0,0 0 0 0 922,942.7461 L922,877.3398 L912,867.3398 L737,867.3398 A0,0 0 0 0 737,867.3398 " fill="#FEFFDD" style="stroke:#181818;stroke-width:0.5;"/><path d="M912,867.3398 L912,877.3398 L922,877.3398 L912,867.3398 " fill="#FEFFDD" style="stroke:#181818;stroke-width:0.5;"/><text fill="#000000" font-family="sans-serif" font-size="13" lengthAdjust="spacing" textLength="4" x="743" y="885.835">{</text><text fill="#000000" font-family="sans-serif" font-size="13" lengthAdjust="spacing" textLength="98" x="751" y="902.1865">"success": false,</text><text fill="#000000" font-family="sans-serif" font-size="13" lengthAdjust="spacing" textLength="156" x="751" y="918.5381">"error": "Invalid credentials"</text><text fill="#000000" font-family="sans-serif" font-size="13" lengthAdjust="spacing" textLength="4" x="743" y="934.8896">}</text><rect fill="#F1F1F1" height="35.0938" rx="12.5" ry="12.5" style="stroke:#181818;stroke-width:0.5;" width="211" x="506" y="887.4961"/><text fill="#000000" font-family="sans-serif" font-size="12" lengthAdjust="spacing" textLength="191" x="516" y="909.9531">Retourner erreur 401 Unauthorized</text><polygon fill="#F1F1F1" points="377.25,1099.5586,389.25,1111.5586,377.25,1123.5586,365.25,1111.5586,377.25,1099.5586" style="stroke:#181818;stroke-width:0.5;"/><ellipse cx="377.25" cy="1154.5586" fill="none" rx="11" ry="11" style="stroke:#222222;stroke-width:1.0;"/><ellipse cx="377.25" cy="1154.5586" fill="#222222" rx="6" ry="6" style="stroke:#222222;stroke-width:1.0;"/><line style="stroke:#181818;stroke-width:1.0;" x1="377.25" x2="377.25" y1="30" y2="51.9805"/><polygon fill="#181818" points="373.25,41.9805,377.25,51.9805,381.25,41.9805,377.25,45.9805" style="stroke:#181818;stroke-width:1.0;"/><line style="stroke:#181818;stroke-width:1.0;" x1="377.25" x2="377.25" y1="87.0742" y2="119.0547"/><polygon fill="#181818" points="373.25,109.0547,377.25,119.0547,381.25,109.0547,377.25,113.0547" style="stroke:#181818;stroke-width:1.0;"/><line style="stroke:#181818;stroke-width:1.0;" x1="377.25" x2="377.25" y1="154.1484" y2="174.1484"/><polygon fill="#181818" points="373.25,164.1484,377.25,174.1484,381.25,164.1484,377.25,168.1484" style="stroke:#181818;stroke-width:1.0;"/><line style="stroke:#181818;stroke-width:1.0;" x1="377.25" x2="377.25" y1="209.2422" y2="229.2422"/><polygon fill="#181818" points="373.25,219.2422,377.25,229.2422,381.25,219.2422,377.25,223.2422" style="stroke:#181818;stroke-width:1.0;"/><line style="stroke:#181818;stroke-width:1.0;" x1="377.25" x2="377.25" y1="368.3477" y2="396.3008"/><polygon fill="#181818" points="373.25,386.3008,377.25,396.3008,381.25,386.3008,377.25,390.3008" style="stroke:#181818;stroke-width:1.0;"/><line style="stroke:#181818;stroke-width:1.0;" x1="377.25" x2="377.25" y1="308.3359" y2="333.2539"/><polygon fill="#181818" points="373.25,323.2539,377.25,333.2539,381.25,323.2539,377.25,327.2539" style="stroke:#181818;stroke-width:1.0;"/><line style="stroke:#181818;stroke-width:1.0;" x1="459.75" x2="492.25" y1="296.3359" y2="296.3359"/><polygon fill="#181818" points="488.25,366.3008,492.25,376.3008,496.25,366.3008,492.25,370.3008" style="stroke:#181818;stroke-width:1.0;"/><line style="stroke:#181818;stroke-width:1.0;" x1="492.25" x2="492.25" y1="296.3359" y2="440.3008"/><line style="stroke:#181818;stroke-width:1.0;" x1="492.25" x2="377.25" y1="440.3008" y2="440.3008"/><line style="stroke:#181818;stroke-width:1.0;" x1="377.25" x2="377.25" y1="440.3008" y2="460.3008"/><polygon fill="#181818" points="373.25,450.3008,377.25,460.3008,381.25,450.3008,377.25,454.3008" style="stroke:#181818;stroke-width:1.0;"/><line style="stroke:#181818;stroke-width:1.0;" x1="377.25" x2="377.25" y1="264.3359" y2="284.3359"/><polygon fill="#181818" points="373.25,274.3359,377.25,284.3359,381.25,274.3359,377.25,278.3359" style="stroke:#181818;stroke-width:1.0;"/><line style="stroke:#181818;stroke-width:1.0;" x1="503.75" x2="503.75" y1="588.293" y2="608.293"/><polygon fill="#181818" points="499.75,598.293,503.75,608.293,507.75,598.293,503.75,602.293" style="stroke:#181818;stroke-width:1.0;"/><line style="stroke:#181818;stroke-width:1.0;" x1="503.75" x2="503.75" y1="643.3867" y2="663.3867"/><polygon fill="#181818" points="499.75,653.3867,503.75,663.3867,507.75,653.3867,503.75,657.3867" style="stroke:#181818;stroke-width:1.0;"/><line style="stroke:#181818;stroke-width:1.0;" x1="321.75" x2="250.75" y1="531.1992" y2="531.1992"/><line style="stroke:#181818;stroke-width:1.0;" x1="250.75" x2="250.75" y1="531.1992" y2="553.1992"/><polygon fill="#181818" points="246.75,543.1992,250.75,553.1992,254.75,543.1992,250.75,547.1992" style="stroke:#181818;stroke-width:1.0;"/><line style="stroke:#181818;stroke-width:1.0;" x1="432.75" x2="503.75" y1="531.1992" y2="531.1992"/><line style="stroke:#181818;stroke-width:1.0;" x1="503.75" x2="503.75" y1="531.1992" y2="553.1992"/><polygon fill="#181818" points="499.75,543.1992,503.75,553.1992,507.75,543.1992,503.75,547.1992" style="stroke:#181818;stroke-width:1.0;"/><line style="stroke:#181818;stroke-width:1.0;" x1="250.75" x2="250.75" y1="588.293" y2="690.3867"/><line style="stroke:#181818;stroke-width:1.0;" x1="250.75" x2="377.25" y1="690.3867" y2="690.3867"/><line style="stroke:#181818;stroke-width:1.0;" x1="377.25" x2="377.25" y1="690.3867" y2="705.3867"/><polygon fill="#181818" points="373.25,695.3867,377.25,705.3867,381.25,695.3867,377.25,699.3867" style="stroke:#181818;stroke-width:1.0;"/><line style="stroke:#181818;stroke-width:1.0;" x1="377.25" x2="377.25" y1="495.3945" y2="519.1992"/><polygon fill="#181818" points="373.25,509.1992,377.25,519.1992,381.25,509.1992,377.25,513.1992" style="stroke:#181818;stroke-width:1.0;"/><line style="stroke:#181818;stroke-width:1.0;" x1="143" x2="143" y1="845.3594" y2="891.3008"/><polygon fill="#181818" points="139,881.3008,143,891.3008,147,881.3008,143,885.3008" style="stroke:#181818;stroke-width:1.0;"/><line style="stroke:#181818;stroke-width:1.0;" x1="143" x2="143" y1="926.3945" y2="1005.6055"/><polygon fill="#181818" points="139,995.6055,143,1005.6055,147,995.6055,143,999.6055" style="stroke:#181818;stroke-width:1.0;"/><line style="stroke:#181818;stroke-width:1.0;" x1="611.5" x2="611.5" y1="833.3789" y2="887.4961"/><polygon fill="#181818" points="607.5,877.4961,611.5,887.4961,615.5,877.4961,611.5,881.4961" style="stroke:#181818;stroke-width:1.0;"/><line style="stroke:#181818;stroke-width:1.0;" x1="310.75" x2="143" y1="776.2852" y2="776.2852"/><line style="stroke:#181818;stroke-width:1.0;" x1="143" x2="143" y1="776.2852" y2="810.2656"/><polygon fill="#181818" points="139,800.2656,143,810.2656,147,800.2656,143,804.2656" style="stroke:#181818;stroke-width:1.0;"/><line style="stroke:#181818;stroke-width:1.0;" x1="443.75" x2="611.5" y1="776.2852" y2="776.2852"/><line style="stroke:#181818;stroke-width:1.0;" x1="611.5" x2="611.5" y1="776.2852" y2="798.2852"/><polygon fill="#181818" points="607.5,788.2852,611.5,798.2852,615.5,788.2852,611.5,792.2852" style="stroke:#181818;stroke-width:1.0;"/><line style="stroke:#181818;stroke-width:1.0;" x1="143" x2="143" y1="1040.6992" y2="1111.5586"/><line style="stroke:#181818;stroke-width:1.0;" x1="143" x2="365.25" y1="1111.5586" y2="1111.5586"/><polygon fill="#181818" points="355.25,1107.5586,365.25,1111.5586,355.25,1115.5586,359.25,1111.5586" style="stroke:#181818;stroke-width:1.0;"/><line style="stroke:#181818;stroke-width:1.0;" x1="611.5" x2="611.5" y1="922.5898" y2="1111.5586"/><line style="stroke:#181818;stroke-width:1.0;" x1="611.5" x2="389.25" y1="1111.5586" y2="1111.5586"/><polygon fill="#181818" points="399.25,1107.5586,389.25,1111.5586,399.25,1115.5586,395.25,1111.5586" style="stroke:#181818;stroke-width:1.0;"/><line style="stroke:#181818;stroke-width:1.0;" x1="377.25" x2="377.25" y1="740.4805" y2="764.2852"/><polygon fill="#181818" points="373.25,754.2852,377.25,764.2852,381.25,754.2852,377.25,758.2852" style="stroke:#181818;stroke-width:1.0;"/><line style="stroke:#181818;stroke-width:1.0;" x1="377.25" x2="377.25" y1="1123.5586" y2="1143.5586"/><polygon fill="#181818" points="373.25,1133.5586,377.25,1143.5586,381.25,1133.5586,377.25,1137.5586" style="stroke:#181818;stroke-width:1.0;"/><!--SRC=[hLJDSjCm6BpxARxnfGamfEtqb0nJeAHGsjAGfENOKUqliQWj6VsaBGpFmuJNo8knCadgEC29WpsMlfMqkzzQrWdZegXxb4jMZbZDj6Go_CKlVZgcb2dHIl6zrAeNAOqf8wUPYuW65wCnTKGfExEzJkAjqmKRsydrL2gKjTz454A9QHqWPfmG5qBcn8vAOUsTDcd4AgLm3ZYz6fpGM-7uJZnGwrIhQHl45Z-qT9IBDSTUG7gNqOZDJ2PCpWW9dWt8bSXbAXnqG9Ib5AeMy_2n0zq6dxr8JgZLRnAY4aKBZ3riayjOKKjxsOuujqmjfLKRMhf3TjeRnORO6FQ63dPtwRL8QGWAR5qF83XK1dbo0Zf3JZ8suQ5ynpkPImkbM8W3ReIjd5znR1Z_qRDvwDAeVzO_6jCJEXvUdDDZ0rP64w2VtlM7_QN9B-YmPcxGUbaxrXdjPulvfiOWR35FVBcOcq2qxbkDSwzXHbyPdahhmXe7v-3wZ0aRPTfZBRK61bHnZhVjtb_SEw0Fsj6nzYhTykuATEH4Leoe00nUXNPnmwWZNPG2OR3eUPMsJDWis7AJc8VIXOXQMSXSICCDQyvhk-8F0Al4RNapSZgv1GlBrbQv4igYuQcqWV865Q9JHi-MoAwtRAvbMXKGJCzTSleMUpyb62EGKr7LnkEpBkqVP1Yi-H4rFLx_eOIeUfomRV6cou2LMa7PFb9wSVe7jj-gDr4ScCRTzHWpCiLuxzdZX185Oof-hpD5RpJ7jLeLlL3yZE9BlXT5cVFpH1TrK88hwFhtjil9xz7gNPVz_rEsHvTAuExGHdxbz5y-M9yaQ1uuJWHehDZ7s4e7W-8JDGit32M6Kx2HGCNRAfOHhkBy2m00]--></g></svg>