<?xml version="1.0" encoding="us-ascii" standalone="no"?><svg xmlns="http://www.w3.org/2000/svg" xmlns:xlink="http://www.w3.org/1999/xlink" contentStyleType="text/css" height="1323px" preserveAspectRatio="none" style="width:865px;height:1323px;background:#FFFFFF;" version="1.1" viewBox="0 0 865 1323" width="865px" zoomAndPan="magnify"><defs/><g><text fill="#000000" font-family="sans-serif" font-size="14" font-weight="bold" lengthAdjust="spacing" textLength="279" x="286" y="24.5332">Organisation des modules des services</text><!--cluster services--><g id="cluster_services"><path d="M8.5,44.6094 L70.5,44.6094 A3.75,3.75 0 0 1 73,47.1094 L80,68.2188 L855.5,68.2188 A2.5,2.5 0 0 1 858,70.7188 L858,1314.1094 A2.5,2.5 0 0 1 855.5,1316.6094 L8.5,1316.6094 A2.5,2.5 0 0 1 6,1314.1094 L6,47.1094 A2.5,2.5 0 0 1 8.5,44.6094 " fill="none" style="stroke:#000000;stroke-width:1.5;"/><line style="stroke:#000000;stroke-width:1.5;" x1="6" x2="80" y1="68.2188" y2="68.2188"/><text fill="#000000" font-family="sans-serif" font-size="14" font-weight="bold" lengthAdjust="spacing" textLength="61" x="10" y="61.1426">services</text></g><!--cluster SRC--><g id="cluster_SRC"><path d="M32.5,88.6094 L55.5,88.6094 A3.75,3.75 0 0 1 58,91.1094 L65,112.2188 L831.5,112.2188 A2.5,2.5 0 0 1 834,114.7188 L834,1134.1094 A2.5,2.5 0 0 1 831.5,1136.6094 L32.5,1136.6094 A2.5,2.5 0 0 1 30,1134.1094 L30,91.1094 A2.5,2.5 0 0 1 32.5,88.6094 " fill="none" style="stroke:#000000;stroke-width:1.5;"/><line style="stroke:#000000;stroke-width:1.5;" x1="30" x2="65" y1="112.2188" y2="112.2188"/><text fill="#000000" font-family="sans-serif" font-size="14" font-weight="bold" lengthAdjust="spacing" textLength="22" x="34" y="105.1426">src</text></g><!--cluster C--><g id="cluster_C"><path d="M64.5,140.6094 L142.5,140.6094 A3.75,3.75 0 0 1 145,143.1094 L152,164.2188 L226.5,164.2188 A2.5,2.5 0 0 1 229,166.7188 L229,254.1094 A2.5,2.5 0 0 1 226.5,256.6094 L64.5,256.6094 A2.5,2.5 0 0 1 62,254.1094 L62,143.1094 A2.5,2.5 0 0 1 64.5,140.6094 " fill="none" style="stroke:#000000;stroke-width:1.5;"/><line style="stroke:#000000;stroke-width:1.5;" x1="62" x2="152" y1="164.2188" y2="164.2188"/><text fill="#000000" font-family="sans-serif" font-size="14" font-weight="bold" lengthAdjust="spacing" textLength="77" x="66" y="157.1426">controllers</text></g><!--cluster E--><g id="cluster_E"><path d="M64.5,296.6094 L118.5,296.6094 A3.75,3.75 0 0 1 121,299.1094 L128,320.2188 L164.5,320.2188 A2.5,2.5 0 0 1 167,322.7188 L167,410.1094 A2.5,2.5 0 0 1 164.5,412.6094 L64.5,412.6094 A2.5,2.5 0 0 1 62,410.1094 L62,299.1094 A2.5,2.5 0 0 1 64.5,296.6094 " fill="none" style="stroke:#000000;stroke-width:1.5;"/><line style="stroke:#000000;stroke-width:1.5;" x1="62" x2="128" y1="320.2188" y2="320.2188"/><text fill="#000000" font-family="sans-serif" font-size="14" font-weight="bold" lengthAdjust="spacing" textLength="53" x="66" y="313.1426">entities</text></g><!--cluster MW--><g id="cluster_MW"><path d="M64.5,452.6094 L146.5,452.6094 A3.75,3.75 0 0 1 149,455.1094 L156,476.2188 L799.5,476.2188 A2.5,2.5 0 0 1 802,478.7188 L802,566.1094 A2.5,2.5 0 0 1 799.5,568.6094 L64.5,568.6094 A2.5,2.5 0 0 1 62,566.1094 L62,455.1094 A2.5,2.5 0 0 1 64.5,452.6094 " fill="none" style="stroke:#000000;stroke-width:1.5;"/><line style="stroke:#000000;stroke-width:1.5;" x1="62" x2="156" y1="476.2188" y2="476.2188"/><text fill="#000000" font-family="sans-serif" font-size="14" font-weight="bold" lengthAdjust="spacing" textLength="81" x="66" y="469.1426">middleware</text></g><!--cluster M--><g id="cluster_M"><path d="M64.5,608.6094 L139.5,608.6094 A3.75,3.75 0 0 1 142,611.1094 L149,632.2188 L186.5,632.2188 A2.5,2.5 0 0 1 189,634.7188 L189,722.1094 A2.5,2.5 0 0 1 186.5,724.6094 L64.5,724.6094 A2.5,2.5 0 0 1 62,722.1094 L62,611.1094 A2.5,2.5 0 0 1 64.5,608.6094 " fill="none" style="stroke:#000000;stroke-width:1.5;"/><line style="stroke:#000000;stroke-width:1.5;" x1="62" x2="149" y1="632.2188" y2="632.2188"/><text fill="#000000" font-family="sans-serif" font-size="14" font-weight="bold" lengthAdjust="spacing" textLength="74" x="66" y="625.1426">migrations</text></g><!--cluster R--><g id="cluster_R"><path d="M64.5,764.6094 L111.5,764.6094 A3.75,3.75 0 0 1 114,767.1094 L121,788.2188 L226.5,788.2188 A2.5,2.5 0 0 1 229,790.7188 L229,878.1094 A2.5,2.5 0 0 1 226.5,880.6094 L64.5,880.6094 A2.5,2.5 0 0 1 62,878.1094 L62,767.1094 A2.5,2.5 0 0 1 64.5,764.6094 " fill="none" style="stroke:#000000;stroke-width:1.5;"/><line style="stroke:#000000;stroke-width:1.5;" x1="62" x2="121" y1="788.2188" y2="788.2188"/><text fill="#000000" font-family="sans-serif" font-size="14" font-weight="bold" lengthAdjust="spacing" textLength="46" x="66" y="781.1426">routes</text></g><!--cluster S--><g id="cluster_S"><path d="M78.5,920.6094 L139.5,920.6094 A3.75,3.75 0 0 1 142,923.1094 L149,944.2188 L447.5,944.2188 A2.5,2.5 0 0 1 450,946.7188 L450,1034.1094 A2.5,2.5 0 0 1 447.5,1036.6094 L78.5,1036.6094 A2.5,2.5 0 0 1 76,1034.1094 L76,923.1094 A2.5,2.5 0 0 1 78.5,920.6094 " fill="none" style="stroke:#000000;stroke-width:1.5;"/><line style="stroke:#000000;stroke-width:1.5;" x1="76" x2="149" y1="944.2188" y2="944.2188"/><text fill="#000000" font-family="sans-serif" font-size="14" font-weight="bold" lengthAdjust="spacing" textLength="60" x="80" y="937.1426">swagger</text></g><!--cluster TEST--><g id="cluster_TEST"><path d="M93.5,1168.6094 L121.5,1168.6094 A3.75,3.75 0 0 1 124,1171.1094 L131,1192.2188 L412.5,1192.2188 A2.5,2.5 0 0 1 415,1194.7188 L415,1282.1094 A2.5,2.5 0 0 1 412.5,1284.6094 L93.5,1284.6094 A2.5,2.5 0 0 1 91,1282.1094 L91,1171.1094 A2.5,2.5 0 0 1 93.5,1168.6094 " fill="none" style="stroke:#000000;stroke-width:1.5;"/><line style="stroke:#000000;stroke-width:1.5;" x1="91" x2="131" y1="1192.2188" y2="1192.2188"/><text fill="#000000" font-family="sans-serif" font-size="14" font-weight="bold" lengthAdjust="spacing" textLength="27" x="95" y="1185.1426">test</text></g><!--class dataSource--><g id="elem_dataSource"><rect codeLine="29" fill="#F1F1F1" height="48" id="dataSource" rx="2.5" ry="2.5" style="stroke:#181818;stroke-width:0.5;" width="105" x="46.5" y="1072.6094"/><ellipse cx="61.5" cy="1088.6094" fill="#ADD1B2" rx="11" ry="11" style="stroke:#181818;stroke-width:1.0;"/><path d="M64.2656,1084.4844 Q64.4219,1084.2656 64.6094,1084.1563 Q64.7969,1084.0469 65.0156,1084.0469 Q65.3906,1084.0469 65.625,1084.3125 Q65.8594,1084.5625 65.8594,1085.1719 L65.8594,1086.625 Q65.8594,1087.2344 65.625,1087.5 Q65.3906,1087.7656 65.0156,1087.7656 Q64.6719,1087.7656 64.4688,1087.5625 Q64.2656,1087.375 64.1563,1086.8594 Q64.1094,1086.5 63.9219,1086.3125 Q63.5938,1085.9375 62.9844,1085.7188 Q62.375,1085.5 61.75,1085.5 Q60.9844,1085.5 60.3438,1085.8281 Q59.7188,1086.1563 59.2188,1086.9063 Q58.7344,1087.6563 58.7344,1088.6875 L58.7344,1089.7813 Q58.7344,1091.0156 59.625,1091.8438 Q60.5156,1092.6563 62.1094,1092.6563 Q63.0469,1092.6563 63.7031,1092.4063 Q64.0938,1092.25 64.5156,1091.8125 Q64.7813,1091.5469 64.9219,1091.4688 Q65.0781,1091.3906 65.2813,1091.3906 Q65.6094,1091.3906 65.8594,1091.6563 Q66.125,1091.9063 66.125,1092.25 Q66.125,1092.5938 65.7813,1093 Q65.2813,1093.5781 64.4844,1093.9063 Q63.4063,1094.3594 62.1094,1094.3594 Q60.5938,1094.3594 59.3906,1093.7344 Q58.4063,1093.2344 57.7188,1092.1719 Q57.0313,1091.0938 57.0313,1089.8125 L57.0313,1088.6563 Q57.0313,1087.3281 57.6406,1086.1875 Q58.2656,1085.0313 59.3594,1084.4219 Q60.4531,1083.7969 61.6875,1083.7969 Q62.4219,1083.7969 63.0625,1083.9688 Q63.7188,1084.125 64.2656,1084.4844 Z " fill="#000000"/><text fill="#000000" font-family="sans-serif" font-size="14" lengthAdjust="spacing" textLength="73" x="75.5" y="1094.3379">dataSource</text><line style="stroke:#181818;stroke-width:0.5;" x1="47.5" x2="150.5" y1="1104.6094" y2="1104.6094"/><line style="stroke:#181818;stroke-width:0.5;" x1="47.5" x2="150.5" y1="1112.6094" y2="1112.6094"/></g><!--class index--><g id="elem_index"><rect codeLine="30" fill="#F1F1F1" height="48" id="index" rx="2.5" ry="2.5" style="stroke:#181818;stroke-width:0.5;" width="65" x="186.5" y="1072.6094"/><ellipse cx="201.5" cy="1088.6094" fill="#ADD1B2" rx="11" ry="11" style="stroke:#181818;stroke-width:1.0;"/><path d="M204.2656,1084.4844 Q204.4219,1084.2656 204.6094,1084.1563 Q204.7969,1084.0469 205.0156,1084.0469 Q205.3906,1084.0469 205.625,1084.3125 Q205.8594,1084.5625 205.8594,1085.1719 L205.8594,1086.625 Q205.8594,1087.2344 205.625,1087.5 Q205.3906,1087.7656 205.0156,1087.7656 Q204.6719,1087.7656 204.4688,1087.5625 Q204.2656,1087.375 204.1563,1086.8594 Q204.1094,1086.5 203.9219,1086.3125 Q203.5938,1085.9375 202.9844,1085.7188 Q202.375,1085.5 201.75,1085.5 Q200.9844,1085.5 200.3438,1085.8281 Q199.7188,1086.1563 199.2188,1086.9063 Q198.7344,1087.6563 198.7344,1088.6875 L198.7344,1089.7813 Q198.7344,1091.0156 199.625,1091.8438 Q200.5156,1092.6563 202.1094,1092.6563 Q203.0469,1092.6563 203.7031,1092.4063 Q204.0938,1092.25 204.5156,1091.8125 Q204.7813,1091.5469 204.9219,1091.4688 Q205.0781,1091.3906 205.2813,1091.3906 Q205.6094,1091.3906 205.8594,1091.6563 Q206.125,1091.9063 206.125,1092.25 Q206.125,1092.5938 205.7813,1093 Q205.2813,1093.5781 204.4844,1093.9063 Q203.4063,1094.3594 202.1094,1094.3594 Q200.5938,1094.3594 199.3906,1093.7344 Q198.4063,1093.2344 197.7188,1092.1719 Q197.0313,1091.0938 197.0313,1089.8125 L197.0313,1088.6563 Q197.0313,1087.3281 197.6406,1086.1875 Q198.2656,1085.0313 199.3594,1084.4219 Q200.4531,1083.7969 201.6875,1083.7969 Q202.4219,1083.7969 203.0625,1083.9688 Q203.7188,1084.125 204.2656,1084.4844 Z " fill="#000000"/><text fill="#000000" font-family="sans-serif" font-size="14" lengthAdjust="spacing" textLength="33" x="215.5" y="1094.3379">index</text><line style="stroke:#181818;stroke-width:0.5;" x1="187.5" x2="250.5" y1="1104.6094" y2="1104.6094"/><line style="stroke:#181818;stroke-width:0.5;" x1="187.5" x2="250.5" y1="1112.6094" y2="1112.6094"/></g><!--class migrationRunner--><g id="elem_migrationRunner"><rect codeLine="31" fill="#F1F1F1" height="48" id="migrationRunner" rx="2.5" ry="2.5" style="stroke:#181818;stroke-width:0.5;" width="137" x="286.5" y="1072.6094"/><ellipse cx="301.5" cy="1088.6094" fill="#ADD1B2" rx="11" ry="11" style="stroke:#181818;stroke-width:1.0;"/><path d="M304.2656,1084.4844 Q304.4219,1084.2656 304.6094,1084.1563 Q304.7969,1084.0469 305.0156,1084.0469 Q305.3906,1084.0469 305.625,1084.3125 Q305.8594,1084.5625 305.8594,1085.1719 L305.8594,1086.625 Q305.8594,1087.2344 305.625,1087.5 Q305.3906,1087.7656 305.0156,1087.7656 Q304.6719,1087.7656 304.4688,1087.5625 Q304.2656,1087.375 304.1563,1086.8594 Q304.1094,1086.5 303.9219,1086.3125 Q303.5938,1085.9375 302.9844,1085.7188 Q302.375,1085.5 301.75,1085.5 Q300.9844,1085.5 300.3438,1085.8281 Q299.7188,1086.1563 299.2188,1086.9063 Q298.7344,1087.6563 298.7344,1088.6875 L298.7344,1089.7813 Q298.7344,1091.0156 299.625,1091.8438 Q300.5156,1092.6563 302.1094,1092.6563 Q303.0469,1092.6563 303.7031,1092.4063 Q304.0938,1092.25 304.5156,1091.8125 Q304.7813,1091.5469 304.9219,1091.4688 Q305.0781,1091.3906 305.2813,1091.3906 Q305.6094,1091.3906 305.8594,1091.6563 Q306.125,1091.9063 306.125,1092.25 Q306.125,1092.5938 305.7813,1093 Q305.2813,1093.5781 304.4844,1093.9063 Q303.4063,1094.3594 302.1094,1094.3594 Q300.5938,1094.3594 299.3906,1093.7344 Q298.4063,1093.2344 297.7188,1092.1719 Q297.0313,1091.0938 297.0313,1089.8125 L297.0313,1088.6563 Q297.0313,1087.3281 297.6406,1086.1875 Q298.2656,1085.0313 299.3594,1084.4219 Q300.4531,1083.7969 301.6875,1083.7969 Q302.4219,1083.7969 303.0625,1083.9688 Q303.7188,1084.125 304.2656,1084.4844 Z " fill="#000000"/><text fill="#000000" font-family="sans-serif" font-size="14" lengthAdjust="spacing" textLength="105" x="315.5" y="1094.3379">migrationRunner</text><line style="stroke:#181818;stroke-width:0.5;" x1="287.5" x2="422.5" y1="1104.6094" y2="1104.6094"/><line style="stroke:#181818;stroke-width:0.5;" x1="287.5" x2="422.5" y1="1112.6094" y2="1112.6094"/></g><!--class seed--><g id="elem_seed"><rect codeLine="32" fill="#F1F1F1" height="48" id="seed" rx="2.5" ry="2.5" style="stroke:#181818;stroke-width:0.5;" width="63" x="458.5" y="1072.6094"/><ellipse cx="473.5" cy="1088.6094" fill="#ADD1B2" rx="11" ry="11" style="stroke:#181818;stroke-width:1.0;"/><path d="M476.2656,1084.4844 Q476.4219,1084.2656 476.6094,1084.1563 Q476.7969,1084.0469 477.0156,1084.0469 Q477.3906,1084.0469 477.625,1084.3125 Q477.8594,1084.5625 477.8594,1085.1719 L477.8594,1086.625 Q477.8594,1087.2344 477.625,1087.5 Q477.3906,1087.7656 477.0156,1087.7656 Q476.6719,1087.7656 476.4688,1087.5625 Q476.2656,1087.375 476.1563,1086.8594 Q476.1094,1086.5 475.9219,1086.3125 Q475.5938,1085.9375 474.9844,1085.7188 Q474.375,1085.5 473.75,1085.5 Q472.9844,1085.5 472.3438,1085.8281 Q471.7188,1086.1563 471.2188,1086.9063 Q470.7344,1087.6563 470.7344,1088.6875 L470.7344,1089.7813 Q470.7344,1091.0156 471.625,1091.8438 Q472.5156,1092.6563 474.1094,1092.6563 Q475.0469,1092.6563 475.7031,1092.4063 Q476.0938,1092.25 476.5156,1091.8125 Q476.7813,1091.5469 476.9219,1091.4688 Q477.0781,1091.3906 477.2813,1091.3906 Q477.6094,1091.3906 477.8594,1091.6563 Q478.125,1091.9063 478.125,1092.25 Q478.125,1092.5938 477.7813,1093 Q477.2813,1093.5781 476.4844,1093.9063 Q475.4063,1094.3594 474.1094,1094.3594 Q472.5938,1094.3594 471.3906,1093.7344 Q470.4063,1093.2344 469.7188,1092.1719 Q469.0313,1091.0938 469.0313,1089.8125 L469.0313,1088.6563 Q469.0313,1087.3281 469.6406,1086.1875 Q470.2656,1085.0313 471.3594,1084.4219 Q472.4531,1083.7969 473.6875,1083.7969 Q474.4219,1083.7969 475.0625,1083.9688 Q475.7188,1084.125 476.2656,1084.4844 Z " fill="#000000"/><text fill="#000000" font-family="sans-serif" font-size="14" lengthAdjust="spacing" textLength="31" x="487.5" y="1094.3379">seed</text><line style="stroke:#181818;stroke-width:0.5;" x1="459.5" x2="520.5" y1="1104.6094" y2="1104.6094"/><line style="stroke:#181818;stroke-width:0.5;" x1="459.5" x2="520.5" y1="1112.6094" y2="1112.6094"/></g><!--class *Controller--><g id="elem_*Controller"><rect codeLine="7" fill="#F1F1F1" height="48" id="*Controller" rx="2.5" ry="2.5" style="stroke:#181818;stroke-width:0.5;" width="99" x="105.5" y="184.6094"/><ellipse cx="120.5" cy="200.6094" fill="#ADD1B2" rx="11" ry="11" style="stroke:#181818;stroke-width:1.0;"/><path d="M123.2656,196.4844 Q123.4219,196.2656 123.6094,196.1563 Q123.7969,196.0469 124.0156,196.0469 Q124.3906,196.0469 124.625,196.3125 Q124.8594,196.5625 124.8594,197.1719 L124.8594,198.625 Q124.8594,199.2344 124.625,199.5 Q124.3906,199.7656 124.0156,199.7656 Q123.6719,199.7656 123.4688,199.5625 Q123.2656,199.375 123.1563,198.8594 Q123.1094,198.5 122.9219,198.3125 Q122.5938,197.9375 121.9844,197.7188 Q121.375,197.5 120.75,197.5 Q119.9844,197.5 119.3438,197.8281 Q118.7188,198.1563 118.2188,198.9063 Q117.7344,199.6563 117.7344,200.6875 L117.7344,201.7813 Q117.7344,203.0156 118.625,203.8438 Q119.5156,204.6563 121.1094,204.6563 Q122.0469,204.6563 122.7031,204.4063 Q123.0938,204.25 123.5156,203.8125 Q123.7813,203.5469 123.9219,203.4688 Q124.0781,203.3906 124.2813,203.3906 Q124.6094,203.3906 124.8594,203.6563 Q125.125,203.9063 125.125,204.25 Q125.125,204.5938 124.7813,205 Q124.2813,205.5781 123.4844,205.9063 Q122.4063,206.3594 121.1094,206.3594 Q119.5938,206.3594 118.3906,205.7344 Q117.4063,205.2344 116.7188,204.1719 Q116.0313,203.0938 116.0313,201.8125 L116.0313,200.6563 Q116.0313,199.3281 116.6406,198.1875 Q117.2656,197.0313 118.3594,196.4219 Q119.4531,195.7969 120.6875,195.7969 Q121.4219,195.7969 122.0625,195.9688 Q122.7188,196.125 123.2656,196.4844 Z " fill="#000000"/><text fill="#000000" font-family="sans-serif" font-size="14" lengthAdjust="spacing" textLength="67" x="134.5" y="206.3379">*Controller</text><line style="stroke:#181818;stroke-width:0.5;" x1="106.5" x2="203.5" y1="216.6094" y2="216.6094"/><line style="stroke:#181818;stroke-width:0.5;" x1="106.5" x2="203.5" y1="224.6094" y2="224.6094"/></g><!--class *--><g id="elem_*"><rect codeLine="10" fill="#F1F1F1" height="48" id="*" rx="2.5" ry="2.5" style="stroke:#181818;stroke-width:0.5;" width="37" x="105.5" y="340.6094"/><ellipse cx="120.5" cy="356.6094" fill="#ADD1B2" rx="11" ry="11" style="stroke:#181818;stroke-width:1.0;"/><path d="M123.2656,352.4844 Q123.4219,352.2656 123.6094,352.1563 Q123.7969,352.0469 124.0156,352.0469 Q124.3906,352.0469 124.625,352.3125 Q124.8594,352.5625 124.8594,353.1719 L124.8594,354.625 Q124.8594,355.2344 124.625,355.5 Q124.3906,355.7656 124.0156,355.7656 Q123.6719,355.7656 123.4688,355.5625 Q123.2656,355.375 123.1563,354.8594 Q123.1094,354.5 122.9219,354.3125 Q122.5938,353.9375 121.9844,353.7188 Q121.375,353.5 120.75,353.5 Q119.9844,353.5 119.3438,353.8281 Q118.7188,354.1563 118.2188,354.9063 Q117.7344,355.6563 117.7344,356.6875 L117.7344,357.7813 Q117.7344,359.0156 118.625,359.8438 Q119.5156,360.6563 121.1094,360.6563 Q122.0469,360.6563 122.7031,360.4063 Q123.0938,360.25 123.5156,359.8125 Q123.7813,359.5469 123.9219,359.4688 Q124.0781,359.3906 124.2813,359.3906 Q124.6094,359.3906 124.8594,359.6563 Q125.125,359.9063 125.125,360.25 Q125.125,360.5938 124.7813,361 Q124.2813,361.5781 123.4844,361.9063 Q122.4063,362.3594 121.1094,362.3594 Q119.5938,362.3594 118.3906,361.7344 Q117.4063,361.2344 116.7188,360.1719 Q116.0313,359.0938 116.0313,357.8125 L116.0313,356.6563 Q116.0313,355.3281 116.6406,354.1875 Q117.2656,353.0313 118.3594,352.4219 Q119.4531,351.7969 120.6875,351.7969 Q121.4219,351.7969 122.0625,351.9688 Q122.7188,352.125 123.2656,352.4844 Z " fill="#000000"/><text fill="#000000" font-family="sans-serif" font-size="14" lengthAdjust="spacing" textLength="5" x="134.5" y="362.3379">*</text><line style="stroke:#181818;stroke-width:0.5;" x1="106.5" x2="141.5" y1="372.6094" y2="372.6094"/><line style="stroke:#181818;stroke-width:0.5;" x1="106.5" x2="141.5" y1="380.6094" y2="380.6094"/></g><!--class contentNegotiation--><g id="elem_contentNegotiation"><rect codeLine="13" fill="#F1F1F1" height="48" id="contentNegotiation" rx="2.5" ry="2.5" style="stroke:#181818;stroke-width:0.5;" width="150" x="212" y="496.6094"/><ellipse cx="227" cy="512.6094" fill="#ADD1B2" rx="11" ry="11" style="stroke:#181818;stroke-width:1.0;"/><path d="M229.7656,508.4844 Q229.9219,508.2656 230.1094,508.1563 Q230.2969,508.0469 230.5156,508.0469 Q230.8906,508.0469 231.125,508.3125 Q231.3594,508.5625 231.3594,509.1719 L231.3594,510.625 Q231.3594,511.2344 231.125,511.5 Q230.8906,511.7656 230.5156,511.7656 Q230.1719,511.7656 229.9688,511.5625 Q229.7656,511.375 229.6563,510.8594 Q229.6094,510.5 229.4219,510.3125 Q229.0938,509.9375 228.4844,509.7188 Q227.875,509.5 227.25,509.5 Q226.4844,509.5 225.8438,509.8281 Q225.2188,510.1563 224.7188,510.9063 Q224.2344,511.6563 224.2344,512.6875 L224.2344,513.7813 Q224.2344,515.0156 225.125,515.8438 Q226.0156,516.6563 227.6094,516.6563 Q228.5469,516.6563 229.2031,516.4063 Q229.5938,516.25 230.0156,515.8125 Q230.2813,515.5469 230.4219,515.4688 Q230.5781,515.3906 230.7813,515.3906 Q231.1094,515.3906 231.3594,515.6563 Q231.625,515.9063 231.625,516.25 Q231.625,516.5938 231.2813,517 Q230.7813,517.5781 229.9844,517.9063 Q228.9063,518.3594 227.6094,518.3594 Q226.0938,518.3594 224.8906,517.7344 Q223.9063,517.2344 223.2188,516.1719 Q222.5313,515.0938 222.5313,513.8125 L222.5313,512.6563 Q222.5313,511.3281 223.1406,510.1875 Q223.7656,509.0313 224.8594,508.4219 Q225.9531,507.7969 227.1875,507.7969 Q227.9219,507.7969 228.5625,507.9688 Q229.2188,508.125 229.7656,508.4844 Z " fill="#000000"/><text fill="#000000" font-family="sans-serif" font-size="14" lengthAdjust="spacing" textLength="118" x="241" y="518.3379">contentNegotiation</text><line style="stroke:#181818;stroke-width:0.5;" x1="213" x2="361" y1="528.6094" y2="528.6094"/><line style="stroke:#181818;stroke-width:0.5;" x1="213" x2="361" y1="536.6094" y2="536.6094"/></g><!--class logger--><g id="elem_logger"><rect codeLine="14" fill="#F1F1F1" height="48" id="logger" rx="2.5" ry="2.5" style="stroke:#181818;stroke-width:0.5;" width="72" x="105" y="496.6094"/><ellipse cx="120" cy="512.6094" fill="#ADD1B2" rx="11" ry="11" style="stroke:#181818;stroke-width:1.0;"/><path d="M122.7656,508.4844 Q122.9219,508.2656 123.1094,508.1563 Q123.2969,508.0469 123.5156,508.0469 Q123.8906,508.0469 124.125,508.3125 Q124.3594,508.5625 124.3594,509.1719 L124.3594,510.625 Q124.3594,511.2344 124.125,511.5 Q123.8906,511.7656 123.5156,511.7656 Q123.1719,511.7656 122.9688,511.5625 Q122.7656,511.375 122.6563,510.8594 Q122.6094,510.5 122.4219,510.3125 Q122.0938,509.9375 121.4844,509.7188 Q120.875,509.5 120.25,509.5 Q119.4844,509.5 118.8438,509.8281 Q118.2188,510.1563 117.7188,510.9063 Q117.2344,511.6563 117.2344,512.6875 L117.2344,513.7813 Q117.2344,515.0156 118.125,515.8438 Q119.0156,516.6563 120.6094,516.6563 Q121.5469,516.6563 122.2031,516.4063 Q122.5938,516.25 123.0156,515.8125 Q123.2813,515.5469 123.4219,515.4688 Q123.5781,515.3906 123.7813,515.3906 Q124.1094,515.3906 124.3594,515.6563 Q124.625,515.9063 124.625,516.25 Q124.625,516.5938 124.2813,517 Q123.7813,517.5781 122.9844,517.9063 Q121.9063,518.3594 120.6094,518.3594 Q119.0938,518.3594 117.8906,517.7344 Q116.9063,517.2344 116.2188,516.1719 Q115.5313,515.0938 115.5313,513.8125 L115.5313,512.6563 Q115.5313,511.3281 116.1406,510.1875 Q116.7656,509.0313 117.8594,508.4219 Q118.9531,507.7969 120.1875,507.7969 Q120.9219,507.7969 121.5625,507.9688 Q122.2188,508.125 122.7656,508.4844 Z " fill="#000000"/><text fill="#000000" font-family="sans-serif" font-size="14" lengthAdjust="spacing" textLength="40" x="134" y="518.3379">logger</text><line style="stroke:#181818;stroke-width:0.5;" x1="106" x2="176" y1="528.6094" y2="528.6094"/><line style="stroke:#181818;stroke-width:0.5;" x1="106" x2="176" y1="536.6094" y2="536.6094"/></g><!--class metrics--><g id="elem_metrics"><rect codeLine="15" fill="#F1F1F1" height="48" id="metrics" rx="2.5" ry="2.5" style="stroke:#181818;stroke-width:0.5;" width="77" x="397.5" y="496.6094"/><ellipse cx="412.5" cy="512.6094" fill="#ADD1B2" rx="11" ry="11" style="stroke:#181818;stroke-width:1.0;"/><path d="M415.2656,508.4844 Q415.4219,508.2656 415.6094,508.1563 Q415.7969,508.0469 416.0156,508.0469 Q416.3906,508.0469 416.625,508.3125 Q416.8594,508.5625 416.8594,509.1719 L416.8594,510.625 Q416.8594,511.2344 416.625,511.5 Q416.3906,511.7656 416.0156,511.7656 Q415.6719,511.7656 415.4688,511.5625 Q415.2656,511.375 415.1563,510.8594 Q415.1094,510.5 414.9219,510.3125 Q414.5938,509.9375 413.9844,509.7188 Q413.375,509.5 412.75,509.5 Q411.9844,509.5 411.3438,509.8281 Q410.7188,510.1563 410.2188,510.9063 Q409.7344,511.6563 409.7344,512.6875 L409.7344,513.7813 Q409.7344,515.0156 410.625,515.8438 Q411.5156,516.6563 413.1094,516.6563 Q414.0469,516.6563 414.7031,516.4063 Q415.0938,516.25 415.5156,515.8125 Q415.7813,515.5469 415.9219,515.4688 Q416.0781,515.3906 416.2813,515.3906 Q416.6094,515.3906 416.8594,515.6563 Q417.125,515.9063 417.125,516.25 Q417.125,516.5938 416.7813,517 Q416.2813,517.5781 415.4844,517.9063 Q414.4063,518.3594 413.1094,518.3594 Q411.5938,518.3594 410.3906,517.7344 Q409.4063,517.2344 408.7188,516.1719 Q408.0313,515.0938 408.0313,513.8125 L408.0313,512.6563 Q408.0313,511.3281 408.6406,510.1875 Q409.2656,509.0313 410.3594,508.4219 Q411.4531,507.7969 412.6875,507.7969 Q413.4219,507.7969 414.0625,507.9688 Q414.7188,508.125 415.2656,508.4844 Z " fill="#000000"/><text fill="#000000" font-family="sans-serif" font-size="14" lengthAdjust="spacing" textLength="45" x="426.5" y="518.3379">metrics</text><line style="stroke:#181818;stroke-width:0.5;" x1="398.5" x2="473.5" y1="528.6094" y2="528.6094"/><line style="stroke:#181818;stroke-width:0.5;" x1="398.5" x2="473.5" y1="536.6094" y2="536.6094"/></g><!--class redisClient--><g id="elem_redisClient"><rect codeLine="16" fill="#F1F1F1" height="48" id="redisClient" rx="2.5" ry="2.5" style="stroke:#181818;stroke-width:0.5;" width="99" x="509.5" y="496.6094"/><ellipse cx="524.5" cy="512.6094" fill="#ADD1B2" rx="11" ry="11" style="stroke:#181818;stroke-width:1.0;"/><path d="M527.2656,508.4844 Q527.4219,508.2656 527.6094,508.1563 Q527.7969,508.0469 528.0156,508.0469 Q528.3906,508.0469 528.625,508.3125 Q528.8594,508.5625 528.8594,509.1719 L528.8594,510.625 Q528.8594,511.2344 528.625,511.5 Q528.3906,511.7656 528.0156,511.7656 Q527.6719,511.7656 527.4688,511.5625 Q527.2656,511.375 527.1563,510.8594 Q527.1094,510.5 526.9219,510.3125 Q526.5938,509.9375 525.9844,509.7188 Q525.375,509.5 524.75,509.5 Q523.9844,509.5 523.3438,509.8281 Q522.7188,510.1563 522.2188,510.9063 Q521.7344,511.6563 521.7344,512.6875 L521.7344,513.7813 Q521.7344,515.0156 522.625,515.8438 Q523.5156,516.6563 525.1094,516.6563 Q526.0469,516.6563 526.7031,516.4063 Q527.0938,516.25 527.5156,515.8125 Q527.7813,515.5469 527.9219,515.4688 Q528.0781,515.3906 528.2813,515.3906 Q528.6094,515.3906 528.8594,515.6563 Q529.125,515.9063 529.125,516.25 Q529.125,516.5938 528.7813,517 Q528.2813,517.5781 527.4844,517.9063 Q526.4063,518.3594 525.1094,518.3594 Q523.5938,518.3594 522.3906,517.7344 Q521.4063,517.2344 520.7188,516.1719 Q520.0313,515.0938 520.0313,513.8125 L520.0313,512.6563 Q520.0313,511.3281 520.6406,510.1875 Q521.2656,509.0313 522.3594,508.4219 Q523.4531,507.7969 524.6875,507.7969 Q525.4219,507.7969 526.0625,507.9688 Q526.7188,508.125 527.2656,508.4844 Z " fill="#000000"/><text fill="#000000" font-family="sans-serif" font-size="14" lengthAdjust="spacing" textLength="67" x="538.5" y="518.3379">redisClient</text><line style="stroke:#181818;stroke-width:0.5;" x1="510.5" x2="607.5" y1="528.6094" y2="528.6094"/><line style="stroke:#181818;stroke-width:0.5;" x1="510.5" x2="607.5" y1="536.6094" y2="536.6094"/></g><!--class staticTokenAuth--><g id="elem_staticTokenAuth"><rect codeLine="17" fill="#F1F1F1" height="48" id="staticTokenAuth" rx="2.5" ry="2.5" style="stroke:#181818;stroke-width:0.5;" width="134" x="644" y="496.6094"/><ellipse cx="659" cy="512.6094" fill="#ADD1B2" rx="11" ry="11" style="stroke:#181818;stroke-width:1.0;"/><path d="M661.7656,508.4844 Q661.9219,508.2656 662.1094,508.1563 Q662.2969,508.0469 662.5156,508.0469 Q662.8906,508.0469 663.125,508.3125 Q663.3594,508.5625 663.3594,509.1719 L663.3594,510.625 Q663.3594,511.2344 663.125,511.5 Q662.8906,511.7656 662.5156,511.7656 Q662.1719,511.7656 661.9688,511.5625 Q661.7656,511.375 661.6563,510.8594 Q661.6094,510.5 661.4219,510.3125 Q661.0938,509.9375 660.4844,509.7188 Q659.875,509.5 659.25,509.5 Q658.4844,509.5 657.8438,509.8281 Q657.2188,510.1563 656.7188,510.9063 Q656.2344,511.6563 656.2344,512.6875 L656.2344,513.7813 Q656.2344,515.0156 657.125,515.8438 Q658.0156,516.6563 659.6094,516.6563 Q660.5469,516.6563 661.2031,516.4063 Q661.5938,516.25 662.0156,515.8125 Q662.2813,515.5469 662.4219,515.4688 Q662.5781,515.3906 662.7813,515.3906 Q663.1094,515.3906 663.3594,515.6563 Q663.625,515.9063 663.625,516.25 Q663.625,516.5938 663.2813,517 Q662.7813,517.5781 661.9844,517.9063 Q660.9063,518.3594 659.6094,518.3594 Q658.0938,518.3594 656.8906,517.7344 Q655.9063,517.2344 655.2188,516.1719 Q654.5313,515.0938 654.5313,513.8125 L654.5313,512.6563 Q654.5313,511.3281 655.1406,510.1875 Q655.7656,509.0313 656.8594,508.4219 Q657.9531,507.7969 659.1875,507.7969 Q659.9219,507.7969 660.5625,507.9688 Q661.2188,508.125 661.7656,508.4844 Z " fill="#000000"/><text fill="#000000" font-family="sans-serif" font-size="14" lengthAdjust="spacing" textLength="102" x="673" y="518.3379">staticTokenAuth</text><line style="stroke:#181818;stroke-width:0.5;" x1="645" x2="777" y1="528.6094" y2="528.6094"/><line style="stroke:#181818;stroke-width:0.5;" x1="645" x2="777" y1="536.6094" y2="536.6094"/></g><!--class *-Init--><g id="elem_*-Init"><rect codeLine="20" fill="#F1F1F1" height="48" id="*-Init" rx="2.5" ry="2.5" style="stroke:#181818;stroke-width:0.5;" width="60" x="105" y="652.6094"/><ellipse cx="120" cy="668.6094" fill="#ADD1B2" rx="11" ry="11" style="stroke:#181818;stroke-width:1.0;"/><path d="M122.7656,664.4844 Q122.9219,664.2656 123.1094,664.1563 Q123.2969,664.0469 123.5156,664.0469 Q123.8906,664.0469 124.125,664.3125 Q124.3594,664.5625 124.3594,665.1719 L124.3594,666.625 Q124.3594,667.2344 124.125,667.5 Q123.8906,667.7656 123.5156,667.7656 Q123.1719,667.7656 122.9688,667.5625 Q122.7656,667.375 122.6563,666.8594 Q122.6094,666.5 122.4219,666.3125 Q122.0938,665.9375 121.4844,665.7188 Q120.875,665.5 120.25,665.5 Q119.4844,665.5 118.8438,665.8281 Q118.2188,666.1563 117.7188,666.9063 Q117.2344,667.6563 117.2344,668.6875 L117.2344,669.7813 Q117.2344,671.0156 118.125,671.8438 Q119.0156,672.6563 120.6094,672.6563 Q121.5469,672.6563 122.2031,672.4063 Q122.5938,672.25 123.0156,671.8125 Q123.2813,671.5469 123.4219,671.4688 Q123.5781,671.3906 123.7813,671.3906 Q124.1094,671.3906 124.3594,671.6563 Q124.625,671.9063 124.625,672.25 Q124.625,672.5938 124.2813,673 Q123.7813,673.5781 122.9844,673.9063 Q121.9063,674.3594 120.6094,674.3594 Q119.0938,674.3594 117.8906,673.7344 Q116.9063,673.2344 116.2188,672.1719 Q115.5313,671.0938 115.5313,669.8125 L115.5313,668.6563 Q115.5313,667.3281 116.1406,666.1875 Q116.7656,665.0313 117.8594,664.4219 Q118.9531,663.7969 120.1875,663.7969 Q120.9219,663.7969 121.5625,663.9688 Q122.2188,664.125 122.7656,664.4844 Z " fill="#000000"/><text fill="#000000" font-family="sans-serif" font-size="14" lengthAdjust="spacing" textLength="28" x="134" y="674.3379">*-Init</text><line style="stroke:#181818;stroke-width:0.5;" x1="106" x2="164" y1="684.6094" y2="684.6094"/><line style="stroke:#181818;stroke-width:0.5;" x1="106" x2="164" y1="692.6094" y2="692.6094"/></g><!--class api*Router--><g id="elem_api*Router"><rect codeLine="23" fill="#F1F1F1" height="48" id="api*Router" rx="2.5" ry="2.5" style="stroke:#181818;stroke-width:0.5;" width="99" x="105.5" y="808.6094"/><ellipse cx="120.5" cy="824.6094" fill="#ADD1B2" rx="11" ry="11" style="stroke:#181818;stroke-width:1.0;"/><path d="M123.2656,820.4844 Q123.4219,820.2656 123.6094,820.1563 Q123.7969,820.0469 124.0156,820.0469 Q124.3906,820.0469 124.625,820.3125 Q124.8594,820.5625 124.8594,821.1719 L124.8594,822.625 Q124.8594,823.2344 124.625,823.5 Q124.3906,823.7656 124.0156,823.7656 Q123.6719,823.7656 123.4688,823.5625 Q123.2656,823.375 123.1563,822.8594 Q123.1094,822.5 122.9219,822.3125 Q122.5938,821.9375 121.9844,821.7188 Q121.375,821.5 120.75,821.5 Q119.9844,821.5 119.3438,821.8281 Q118.7188,822.1563 118.2188,822.9063 Q117.7344,823.6563 117.7344,824.6875 L117.7344,825.7813 Q117.7344,827.0156 118.625,827.8438 Q119.5156,828.6563 121.1094,828.6563 Q122.0469,828.6563 122.7031,828.4063 Q123.0938,828.25 123.5156,827.8125 Q123.7813,827.5469 123.9219,827.4688 Q124.0781,827.3906 124.2813,827.3906 Q124.6094,827.3906 124.8594,827.6563 Q125.125,827.9063 125.125,828.25 Q125.125,828.5938 124.7813,829 Q124.2813,829.5781 123.4844,829.9063 Q122.4063,830.3594 121.1094,830.3594 Q119.5938,830.3594 118.3906,829.7344 Q117.4063,829.2344 116.7188,828.1719 Q116.0313,827.0938 116.0313,825.8125 L116.0313,824.6563 Q116.0313,823.3281 116.6406,822.1875 Q117.2656,821.0313 118.3594,820.4219 Q119.4531,819.7969 120.6875,819.7969 Q121.4219,819.7969 122.0625,819.9688 Q122.7188,820.125 123.2656,820.4844 Z " fill="#000000"/><text fill="#000000" font-family="sans-serif" font-size="14" lengthAdjust="spacing" textLength="67" x="134.5" y="830.3379">api*Router</text><line style="stroke:#181818;stroke-width:0.5;" x1="106.5" x2="203.5" y1="840.6094" y2="840.6094"/><line style="stroke:#181818;stroke-width:0.5;" x1="106.5" x2="203.5" y1="848.6094" y2="848.6094"/></g><!--class swaggerConfig--><g id="elem_swaggerConfig"><rect codeLine="26" fill="#F1F1F1" height="48" id="swaggerConfig" rx="2.5" ry="2.5" style="stroke:#181818;stroke-width:0.5;" width="126" x="300" y="964.6094"/><ellipse cx="315" cy="980.6094" fill="#ADD1B2" rx="11" ry="11" style="stroke:#181818;stroke-width:1.0;"/><path d="M317.7656,976.4844 Q317.9219,976.2656 318.1094,976.1563 Q318.2969,976.0469 318.5156,976.0469 Q318.8906,976.0469 319.125,976.3125 Q319.3594,976.5625 319.3594,977.1719 L319.3594,978.625 Q319.3594,979.2344 319.125,979.5 Q318.8906,979.7656 318.5156,979.7656 Q318.1719,979.7656 317.9688,979.5625 Q317.7656,979.375 317.6563,978.8594 Q317.6094,978.5 317.4219,978.3125 Q317.0938,977.9375 316.4844,977.7188 Q315.875,977.5 315.25,977.5 Q314.4844,977.5 313.8438,977.8281 Q313.2188,978.1563 312.7188,978.9063 Q312.2344,979.6563 312.2344,980.6875 L312.2344,981.7813 Q312.2344,983.0156 313.125,983.8438 Q314.0156,984.6563 315.6094,984.6563 Q316.5469,984.6563 317.2031,984.4063 Q317.5938,984.25 318.0156,983.8125 Q318.2813,983.5469 318.4219,983.4688 Q318.5781,983.3906 318.7813,983.3906 Q319.1094,983.3906 319.3594,983.6563 Q319.625,983.9063 319.625,984.25 Q319.625,984.5938 319.2813,985 Q318.7813,985.5781 317.9844,985.9063 Q316.9063,986.3594 315.6094,986.3594 Q314.0938,986.3594 312.8906,985.7344 Q311.9063,985.2344 311.2188,984.1719 Q310.5313,983.0938 310.5313,981.8125 L310.5313,980.6563 Q310.5313,979.3281 311.1406,978.1875 Q311.7656,977.0313 312.8594,976.4219 Q313.9531,975.7969 315.1875,975.7969 Q315.9219,975.7969 316.5625,975.9688 Q317.2188,976.125 317.7656,976.4844 Z " fill="#000000"/><text fill="#000000" font-family="sans-serif" font-size="14" lengthAdjust="spacing" textLength="94" x="329" y="986.3379">swaggerConfig</text><line style="stroke:#181818;stroke-width:0.5;" x1="301" x2="425" y1="996.6094" y2="996.6094"/><line style="stroke:#181818;stroke-width:0.5;" x1="301" x2="425" y1="1004.6094" y2="1004.6094"/></g><!--class swaggerUiOptions--><g id="elem_swaggerUiOptions"><rect codeLine="27" fill="#F1F1F1" height="48" id="swaggerUiOptions" rx="2.5" ry="2.5" style="stroke:#181818;stroke-width:0.5;" width="146" x="119" y="964.6094"/><ellipse cx="134" cy="980.6094" fill="#ADD1B2" rx="11" ry="11" style="stroke:#181818;stroke-width:1.0;"/><path d="M136.7656,976.4844 Q136.9219,976.2656 137.1094,976.1563 Q137.2969,976.0469 137.5156,976.0469 Q137.8906,976.0469 138.125,976.3125 Q138.3594,976.5625 138.3594,977.1719 L138.3594,978.625 Q138.3594,979.2344 138.125,979.5 Q137.8906,979.7656 137.5156,979.7656 Q137.1719,979.7656 136.9688,979.5625 Q136.7656,979.375 136.6563,978.8594 Q136.6094,978.5 136.4219,978.3125 Q136.0938,977.9375 135.4844,977.7188 Q134.875,977.5 134.25,977.5 Q133.4844,977.5 132.8438,977.8281 Q132.2188,978.1563 131.7188,978.9063 Q131.2344,979.6563 131.2344,980.6875 L131.2344,981.7813 Q131.2344,983.0156 132.125,983.8438 Q133.0156,984.6563 134.6094,984.6563 Q135.5469,984.6563 136.2031,984.4063 Q136.5938,984.25 137.0156,983.8125 Q137.2813,983.5469 137.4219,983.4688 Q137.5781,983.3906 137.7813,983.3906 Q138.1094,983.3906 138.3594,983.6563 Q138.625,983.9063 138.625,984.25 Q138.625,984.5938 138.2813,985 Q137.7813,985.5781 136.9844,985.9063 Q135.9063,986.3594 134.6094,986.3594 Q133.0938,986.3594 131.8906,985.7344 Q130.9063,985.2344 130.2188,984.1719 Q129.5313,983.0938 129.5313,981.8125 L129.5313,980.6563 Q129.5313,979.3281 130.1406,978.1875 Q130.7656,977.0313 131.8594,976.4219 Q132.9531,975.7969 134.1875,975.7969 Q134.9219,975.7969 135.5625,975.9688 Q136.2188,976.125 136.7656,976.4844 Z " fill="#000000"/><text fill="#000000" font-family="sans-serif" font-size="14" lengthAdjust="spacing" textLength="114" x="148" y="986.3379">swaggerUiOptions</text><line style="stroke:#181818;stroke-width:0.5;" x1="120" x2="264" y1="996.6094" y2="996.6094"/><line style="stroke:#181818;stroke-width:0.5;" x1="120" x2="264" y1="1004.6094" y2="1004.6094"/></g><!--class test1--><g id="elem_test1"><rect codeLine="35" fill="#F1F1F1" height="48" id="test1" rx="2.5" ry="2.5" style="stroke:#181818;stroke-width:0.5;" width="63" x="229.5" y="1212.6094"/><ellipse cx="244.5" cy="1228.6094" fill="#ADD1B2" rx="11" ry="11" style="stroke:#181818;stroke-width:1.0;"/><path d="M247.2656,1224.4844 Q247.4219,1224.2656 247.6094,1224.1563 Q247.7969,1224.0469 248.0156,1224.0469 Q248.3906,1224.0469 248.625,1224.3125 Q248.8594,1224.5625 248.8594,1225.1719 L248.8594,1226.625 Q248.8594,1227.2344 248.625,1227.5 Q248.3906,1227.7656 248.0156,1227.7656 Q247.6719,1227.7656 247.4688,1227.5625 Q247.2656,1227.375 247.1563,1226.8594 Q247.1094,1226.5 246.9219,1226.3125 Q246.5938,1225.9375 245.9844,1225.7188 Q245.375,1225.5 244.75,1225.5 Q243.9844,1225.5 243.3438,1225.8281 Q242.7188,1226.1563 242.2188,1226.9063 Q241.7344,1227.6563 241.7344,1228.6875 L241.7344,1229.7813 Q241.7344,1231.0156 242.625,1231.8438 Q243.5156,1232.6563 245.1094,1232.6563 Q246.0469,1232.6563 246.7031,1232.4063 Q247.0938,1232.25 247.5156,1231.8125 Q247.7813,1231.5469 247.9219,1231.4688 Q248.0781,1231.3906 248.2813,1231.3906 Q248.6094,1231.3906 248.8594,1231.6563 Q249.125,1231.9063 249.125,1232.25 Q249.125,1232.5938 248.7813,1233 Q248.2813,1233.5781 247.4844,1233.9063 Q246.4063,1234.3594 245.1094,1234.3594 Q243.5938,1234.3594 242.3906,1233.7344 Q241.4063,1233.2344 240.7188,1232.1719 Q240.0313,1231.0938 240.0313,1229.8125 L240.0313,1228.6563 Q240.0313,1227.3281 240.6406,1226.1875 Q241.2656,1225.0313 242.3594,1224.4219 Q243.4531,1223.7969 244.6875,1223.7969 Q245.4219,1223.7969 246.0625,1223.9688 Q246.7188,1224.125 247.2656,1224.4844 Z " fill="#000000"/><text fill="#000000" font-family="sans-serif" font-size="14" lengthAdjust="spacing" textLength="31" x="258.5" y="1234.3379">test1</text><line style="stroke:#181818;stroke-width:0.5;" x1="230.5" x2="291.5" y1="1244.6094" y2="1244.6094"/><line style="stroke:#181818;stroke-width:0.5;" x1="230.5" x2="291.5" y1="1252.6094" y2="1252.6094"/></g><!--class test2--><g id="elem_test2"><rect codeLine="36" fill="#F1F1F1" height="48" id="test2" rx="2.5" ry="2.5" style="stroke:#181818;stroke-width:0.5;" width="63" x="327.5" y="1212.6094"/><ellipse cx="342.5" cy="1228.6094" fill="#ADD1B2" rx="11" ry="11" style="stroke:#181818;stroke-width:1.0;"/><path d="M345.2656,1224.4844 Q345.4219,1224.2656 345.6094,1224.1563 Q345.7969,1224.0469 346.0156,1224.0469 Q346.3906,1224.0469 346.625,1224.3125 Q346.8594,1224.5625 346.8594,1225.1719 L346.8594,1226.625 Q346.8594,1227.2344 346.625,1227.5 Q346.3906,1227.7656 346.0156,1227.7656 Q345.6719,1227.7656 345.4688,1227.5625 Q345.2656,1227.375 345.1563,1226.8594 Q345.1094,1226.5 344.9219,1226.3125 Q344.5938,1225.9375 343.9844,1225.7188 Q343.375,1225.5 342.75,1225.5 Q341.9844,1225.5 341.3438,1225.8281 Q340.7188,1226.1563 340.2188,1226.9063 Q339.7344,1227.6563 339.7344,1228.6875 L339.7344,1229.7813 Q339.7344,1231.0156 340.625,1231.8438 Q341.5156,1232.6563 343.1094,1232.6563 Q344.0469,1232.6563 344.7031,1232.4063 Q345.0938,1232.25 345.5156,1231.8125 Q345.7813,1231.5469 345.9219,1231.4688 Q346.0781,1231.3906 346.2813,1231.3906 Q346.6094,1231.3906 346.8594,1231.6563 Q347.125,1231.9063 347.125,1232.25 Q347.125,1232.5938 346.7813,1233 Q346.2813,1233.5781 345.4844,1233.9063 Q344.4063,1234.3594 343.1094,1234.3594 Q341.5938,1234.3594 340.3906,1233.7344 Q339.4063,1233.2344 338.7188,1232.1719 Q338.0313,1231.0938 338.0313,1229.8125 L338.0313,1228.6563 Q338.0313,1227.3281 338.6406,1226.1875 Q339.2656,1225.0313 340.3594,1224.4219 Q341.4531,1223.7969 342.6875,1223.7969 Q343.4219,1223.7969 344.0625,1223.9688 Q344.7188,1224.125 345.2656,1224.4844 Z " fill="#000000"/><text fill="#000000" font-family="sans-serif" font-size="14" lengthAdjust="spacing" textLength="31" x="356.5" y="1234.3379">test2</text><line style="stroke:#181818;stroke-width:0.5;" x1="328.5" x2="389.5" y1="1244.6094" y2="1244.6094"/><line style="stroke:#181818;stroke-width:0.5;" x1="328.5" x2="389.5" y1="1252.6094" y2="1252.6094"/></g><!--class test*--><g id="elem_test*"><rect codeLine="37" fill="#F1F1F1" height="48" id="test*" rx="2.5" ry="2.5" style="stroke:#181818;stroke-width:0.5;" width="60" x="134" y="1212.6094"/><ellipse cx="149" cy="1228.6094" fill="#ADD1B2" rx="11" ry="11" style="stroke:#181818;stroke-width:1.0;"/><path d="M151.7656,1224.4844 Q151.9219,1224.2656 152.1094,1224.1563 Q152.2969,1224.0469 152.5156,1224.0469 Q152.8906,1224.0469 153.125,1224.3125 Q153.3594,1224.5625 153.3594,1225.1719 L153.3594,1226.625 Q153.3594,1227.2344 153.125,1227.5 Q152.8906,1227.7656 152.5156,1227.7656 Q152.1719,1227.7656 151.9688,1227.5625 Q151.7656,1227.375 151.6563,1226.8594 Q151.6094,1226.5 151.4219,1226.3125 Q151.0938,1225.9375 150.4844,1225.7188 Q149.875,1225.5 149.25,1225.5 Q148.4844,1225.5 147.8438,1225.8281 Q147.2188,1226.1563 146.7188,1226.9063 Q146.2344,1227.6563 146.2344,1228.6875 L146.2344,1229.7813 Q146.2344,1231.0156 147.125,1231.8438 Q148.0156,1232.6563 149.6094,1232.6563 Q150.5469,1232.6563 151.2031,1232.4063 Q151.5938,1232.25 152.0156,1231.8125 Q152.2813,1231.5469 152.4219,1231.4688 Q152.5781,1231.3906 152.7813,1231.3906 Q153.1094,1231.3906 153.3594,1231.6563 Q153.625,1231.9063 153.625,1232.25 Q153.625,1232.5938 153.2813,1233 Q152.7813,1233.5781 151.9844,1233.9063 Q150.9063,1234.3594 149.6094,1234.3594 Q148.0938,1234.3594 146.8906,1233.7344 Q145.9063,1233.2344 145.2188,1232.1719 Q144.5313,1231.0938 144.5313,1229.8125 L144.5313,1228.6563 Q144.5313,1227.3281 145.1406,1226.1875 Q145.7656,1225.0313 146.8594,1224.4219 Q147.9531,1223.7969 149.1875,1223.7969 Q149.9219,1223.7969 150.5625,1223.9688 Q151.2188,1224.125 151.7656,1224.4844 Z " fill="#000000"/><text fill="#000000" font-family="sans-serif" font-size="14" lengthAdjust="spacing" textLength="28" x="163" y="1234.3379">test*</text><line style="stroke:#181818;stroke-width:0.5;" x1="135" x2="193" y1="1244.6094" y2="1244.6094"/><line style="stroke:#181818;stroke-width:0.5;" x1="135" x2="193" y1="1252.6094" y2="1252.6094"/></g><!--link metrics to redisClient--><!--link redisClient to staticTokenAuth--><!--link test1 to test2--><!--link dataSource to TEST--><!--link C to E--><!--link E to MW--><!--link MW to M--><!--link M to R--><!--link R to S--><!--link S to dataSource--><!--link dataSource to index--><!--link index to migrationRunner--><!--link migrationRunner to seed--><!--SRC=[VLFBRiCW4Bpp5IZ7I3wqVr1PFlJWHh9JvL3rW61BLd4W0jnKglBl1UpQBgRnmO-POH-pQuUk0xepaYcqpA5ML82bPotwpZ_3kmNpYHmi8HV6Jqm2tVn26_fDgBzcml0DPPQsJJbIIvfhvOpkEZ0sY9QISF6EMKktvQIQsDig52Y73Y76gV9nxfm-en0TN9c1SBu-P0E4QdsQ5v3QORGc8-gqb8j2P-8CpY2t6SQ0G5jsw6DdMEjyAhxN9r1FlJlURKAQM5OqeSwRK3mhT7U26DsxmSKc6u1TSDi4pRrXs2iBBiJ1PwEC0Z_P3vJ_yw-ukyI6Cha6eM2EjRet7182bO2l19iCQdgb5WsCEG44cNDCA-pjS767zrMxNtGpd0hiGmPxp63RCVoDa74RQF5szAi7wjsWFBhYpouitbUwT2jY6IlLKCZiqImG-ggAs14fKxGYLGhL1-9_YXGaTGerf4cXbhGfj1XQhhQn-662yRxYqaactskxmcn_0000]--></g></svg>