<?xml version="1.0" encoding="us-ascii" standalone="no"?><svg xmlns="http://www.w3.org/2000/svg" xmlns:xlink="http://www.w3.org/1999/xlink" contentStyleType="text/css" height="1333px" preserveAspectRatio="none" style="width:1119px;height:1333px;background:#FFFFFF;" version="1.1" viewBox="0 0 1119 1333" width="1119px" zoomAndPan="magnify"><defs/><g><ellipse cx="445" cy="20" fill="#222222" rx="10" ry="10" style="stroke:#222222;stroke-width:1.0;"/><path d="M565.5,40 L565.5,65.5273 L545.5,69.5273 L565.5,73.5273 L565.5,99.0547 A0,0 0 0 0 565.5,99.0547 L847.5,99.0547 A0,0 0 0 0 847.5,99.0547 L847.5,50 L837.5,40 L565.5,40 A0,0 0 0 0 565.5,40 " fill="#FEFFDD" style="stroke:#181818;stroke-width:0.5;"/><path d="M837.5,40 L837.5,50 L847.5,50 L837.5,40 " fill="#FEFFDD" style="stroke:#181818;stroke-width:0.5;"/><text fill="#000000" font-family="sans-serif" font-size="13" lengthAdjust="spacing" textLength="121" x="571.5" y="58.4951">GET /api/v1/products</text><text fill="#000000" font-family="sans-serif" font-size="13" lengthAdjust="spacing" textLength="157" x="571.5" y="74.8467">ou GET /api/v1/products/:id</text><text fill="#000000" font-family="sans-serif" font-size="13" lengthAdjust="spacing" textLength="261" x="571.5" y="91.1982">ou GET /api/v1/products/category/:categoryId</text><rect fill="#F1F1F1" height="35.0938" rx="12.5" ry="12.5" style="stroke:#181818;stroke-width:0.5;" width="201" x="344.5" y="51.9805"/><text fill="#000000" font-family="sans-serif" font-size="12" lengthAdjust="spacing" textLength="181" x="354.5" y="74.4375">Client envoie requ&#234;te de produits</text><rect fill="#F1F1F1" height="35.0938" rx="12.5" ry="12.5" style="stroke:#181818;stroke-width:0.5;" width="219" x="335.5" y="119.0547"/><text fill="#000000" font-family="sans-serif" font-size="12" lengthAdjust="spacing" textLength="199" x="345.5" y="141.5117">API Gateway (Kong) re&#231;oit la requ&#234;te</text><rect fill="#F1F1F1" height="35.0938" rx="12.5" ry="12.5" style="stroke:#181818;stroke-width:0.5;" width="200" x="345" y="174.1484"/><text fill="#000000" font-family="sans-serif" font-size="12" lengthAdjust="spacing" textLength="180" x="355" y="196.6055">Products Service traite la requ&#234;te</text><rect fill="#F1F1F1" height="35.0938" rx="12.5" ry="12.5" style="stroke:#181818;stroke-width:0.5;" width="210" x="340" y="229.2422"/><text fill="#000000" font-family="sans-serif" font-size="12" lengthAdjust="spacing" textLength="190" x="350" y="251.6992">Validation des param&#232;tres dentr&#233;e</text><rect fill="#F1F1F1" height="35.0938" rx="12.5" ry="12.5" style="stroke:#181818;stroke-width:0.5;" width="199" x="345.5" y="333.2539"/><text fill="#000000" font-family="sans-serif" font-size="12" lengthAdjust="spacing" textLength="179" x="355.5" y="355.7109">Retourner erreur 400ad Request</text><ellipse cx="445" cy="407.3008" fill="none" rx="11" ry="11" style="stroke:#222222;stroke-width:1.0;"/><ellipse cx="445" cy="407.3008" fill="#222222" rx="6" ry="6" style="stroke:#222222;stroke-width:1.0;"/><polygon fill="#F1F1F1" points="396,284.3359,494,284.3359,506,296.3359,494,308.3359,396,308.3359,384,296.3359,396,284.3359" style="stroke:#181818;stroke-width:0.5;"/><text fill="#000000" font-family="sans-serif" font-size="11" lengthAdjust="spacing" textLength="18" x="449" y="319.7549">non</text><text fill="#000000" font-family="sans-serif" font-size="11" lengthAdjust="spacing" textLength="98" x="396" y="300.8369">Param&#232;tres valides?</text><text fill="#000000" font-family="sans-serif" font-size="11" lengthAdjust="spacing" textLength="14" x="506" y="293.9189">oui</text><path d="M536.5,456.4961 L536.5,473.8477 L516.5,477.8477 L536.5,481.8477 L536.5,499.1992 A0,0 0 0 0 536.5,499.1992 L704.5,499.1992 A0,0 0 0 0 704.5,499.1992 L704.5,466.4961 L694.5,456.4961 L536.5,456.4961 A0,0 0 0 0 536.5,456.4961 " fill="#FEFFDD" style="stroke:#181818;stroke-width:0.5;"/><path d="M694.5,456.4961 L694.5,466.4961 L704.5,466.4961 L694.5,456.4961 " fill="#FEFFDD" style="stroke:#181818;stroke-width:0.5;"/><text fill="#000000" font-family="sans-serif" font-size="13" lengthAdjust="spacing" textLength="147" x="542.5" y="474.9912">Recherche dans le cache</text><text fill="#000000" font-family="sans-serif" font-size="13" lengthAdjust="spacing" textLength="125" x="542.5" y="491.3428">avec la cl&#233; appropri&#233;e</text><rect fill="#F1F1F1" height="35.0938" rx="12.5" ry="12.5" style="stroke:#181818;stroke-width:0.5;" width="143" x="373.5" y="460.3008"/><text fill="#000000" font-family="sans-serif" font-size="12" lengthAdjust="spacing" textLength="123" x="383.5" y="482.7578">V&#233;rifier le cache Redis</text><polygon fill="#F1F1F1" points="396.5,519.1992,493.5,519.1992,505.5,531.1992,493.5,543.1992,396.5,543.1992,384.5,531.1992,396.5,519.1992" style="stroke:#181818;stroke-width:0.5;"/><text fill="#000000" font-family="sans-serif" font-size="11" lengthAdjust="spacing" textLength="97" x="396.5" y="535.7002">Donn&#233;es en cache?</text><text fill="#000000" font-family="sans-serif" font-size="11" lengthAdjust="spacing" textLength="14" x="370.5" y="528.7822">oui</text><text fill="#000000" font-family="sans-serif" font-size="11" lengthAdjust="spacing" textLength="18" x="505.5" y="528.7822">non</text><path d="M356.25,553.1992 L356.25,570.5508 L336.25,574.5508 L356.25,578.5508 L356.25,595.9023 A0,0 0 0 0 356.25,595.9023 L489.25,595.9023 A0,0 0 0 0 489.25,595.9023 L489.25,563.1992 L479.25,553.1992 L356.25,553.1992 A0,0 0 0 0 356.25,553.1992 " fill="#FEFFDD" style="stroke:#181818;stroke-width:0.5;"/><path d="M479.25,553.1992 L479.25,563.1992 L489.25,563.1992 L479.25,553.1992 " fill="#FEFFDD" style="stroke:#181818;stroke-width:0.5;"/><text fill="#000000" font-family="sans-serif" font-size="13" lengthAdjust="spacing" textLength="112" x="362.25" y="571.6943">Donn&#233;es format&#233;es</text><text fill="#000000" font-family="sans-serif" font-size="13" lengthAdjust="spacing" textLength="75" x="362.25" y="588.0459">depuis Redis</text><rect fill="#F1F1F1" height="35.0938" rx="12.5" ry="12.5" style="stroke:#181818;stroke-width:0.5;" width="180" x="156.25" y="557.0039"/><text fill="#000000" font-family="sans-serif" font-size="12" lengthAdjust="spacing" textLength="160" x="166.25" y="579.4609">Retourner donn&#233;es du cache</text><path d="M798.25,553.1992 L798.25,586.9023 L778.25,590.9023 L798.25,594.9023 L798.25,628.6055 A0,0 0 0 0 798.25,628.6055 L954.25,628.6055 A0,0 0 0 0 954.25,628.6055 L954.25,563.1992 L944.25,553.1992 L798.25,553.1992 A0,0 0 0 0 798.25,553.1992 " fill="#FEFFDD" style="stroke:#181818;stroke-width:0.5;"/><path d="M944.25,553.1992 L944.25,563.1992 L954.25,563.1992 L944.25,553.1992 " fill="#FEFFDD" style="stroke:#181818;stroke-width:0.5;"/><text fill="#000000" font-family="sans-serif" font-size="13" lengthAdjust="spacing" textLength="107" x="804.25" y="571.6943">- Tous les produits</text><text fill="#000000" font-family="sans-serif" font-size="13" lengthAdjust="spacing" textLength="87" x="804.25" y="588.0459">- Produit par ID</text><text fill="#000000" font-family="sans-serif" font-size="13" lengthAdjust="spacing" textLength="135" x="804.25" y="604.3975">- Produits par cat&#233;gorie</text><text fill="#000000" font-family="sans-serif" font-size="13" lengthAdjust="spacing" textLength="119" x="804.25" y="620.749">- Pagination et filtres</text><rect fill="#F1F1F1" height="35.0938" rx="12.5" ry="12.5" style="stroke:#181818;stroke-width:0.5;" width="269" x="509.25" y="573.3555"/><text fill="#000000" font-family="sans-serif" font-size="12" lengthAdjust="spacing" textLength="249" x="519.25" y="595.8125">Rechercher les produits en base de donn&#233;es</text><polygon fill="#F1F1F1" points="445,634.6055,457,646.6055,445,658.6055,433,646.6055,445,634.6055" style="stroke:#181818;stroke-width:0.5;"/><polygon fill="#F1F1F1" points="402.5,678.6055,487.5,678.6055,499.5,690.6055,487.5,702.6055,402.5,702.6055,390.5,690.6055,402.5,678.6055" style="stroke:#181818;stroke-width:0.5;"/><text fill="#000000" font-family="sans-serif" font-size="11" lengthAdjust="spacing" textLength="85" x="402.5" y="695.1064">Produits trouv&#233;s?</text><text fill="#000000" font-family="sans-serif" font-size="11" lengthAdjust="spacing" textLength="14" x="376.5" y="688.1885">oui</text><text fill="#000000" font-family="sans-serif" font-size="11" lengthAdjust="spacing" textLength="18" x="499.5" y="688.1885">non</text><path d="M365.5,712.6055 L365.5,738.1328 L345.5,742.1328 L365.5,746.1328 L365.5,771.6602 A0,0 0 0 0 365.5,771.6602 L507.5,771.6602 A0,0 0 0 0 507.5,771.6602 L507.5,722.6055 L497.5,712.6055 L365.5,712.6055 A0,0 0 0 0 365.5,712.6055 " fill="#FEFFDD" style="stroke:#181818;stroke-width:0.5;"/><path d="M497.5,712.6055 L497.5,722.6055 L507.5,722.6055 L497.5,712.6055 " fill="#FEFFDD" style="stroke:#181818;stroke-width:0.5;"/><text fill="#000000" font-family="sans-serif" font-size="13" lengthAdjust="spacing" textLength="121" x="371.5" y="731.1006">- Informations produit</text><text fill="#000000" font-family="sans-serif" font-size="13" lengthAdjust="spacing" textLength="119" x="371.5" y="747.4521">- Cat&#233;gorie associ&#233;e</text><text fill="#000000" font-family="sans-serif" font-size="13" lengthAdjust="spacing" textLength="88" x="371.5" y="763.8037">- Prix et d&#233;tails</text><rect fill="#F1F1F1" height="35.0938" rx="12.5" ry="12.5" style="stroke:#181818;stroke-width:0.5;" width="222" x="123.5" y="724.5859"/><text fill="#000000" font-family="sans-serif" font-size="12" lengthAdjust="spacing" textLength="202" x="133.5" y="747.043">R&#233;cup&#233;rer les donn&#233;es des produits</text><rect fill="#F1F1F1" height="35.0938" rx="12.5" ry="12.5" style="stroke:#181818;stroke-width:0.5;" width="256" x="527.5" y="712.6055"/><text fill="#000000" font-family="sans-serif" font-size="12" lengthAdjust="spacing" textLength="236" x="537.5" y="735.0625">Enregistrer requ&#234;te &#233;chou&#233;e (Prometheus)</text><rect fill="#F1F1F1" height="35.0938" rx="12.5" ry="12.5" style="stroke:#181818;stroke-width:0.5;" width="195" x="558" y="782.6992"/><text fill="#000000" font-family="sans-serif" font-size="12" lengthAdjust="spacing" textLength="175" x="568" y="805.1563">Retourner erreur 404 Not Found</text><ellipse cx="655.5" cy="848.793" fill="none" rx="11" ry="11" style="stroke:#222222;stroke-width:1.0;"/><ellipse cx="655.5" cy="848.793" fill="#222222" rx="6" ry="6" style="stroke:#222222;stroke-width:1.0;"/><path d="M562,875.9883 L562,893.3398 L542,897.3398 L562,901.3398 L562,918.6914 A0,0 0 0 0 562,918.6914 L708,918.6914 A0,0 0 0 0 708,918.6914 L708,885.9883 L698,875.9883 L562,875.9883 A0,0 0 0 0 562,875.9883 " fill="#FEFFDD" style="stroke:#181818;stroke-width:0.5;"/><path d="M698,875.9883 L698,885.9883 L708,885.9883 L698,875.9883 " fill="#FEFFDD" style="stroke:#181818;stroke-width:0.5;"/><text fill="#000000" font-family="sans-serif" font-size="13" lengthAdjust="spacing" textLength="125" x="568" y="894.4834">V&#233;rification des droits</text><text fill="#000000" font-family="sans-serif" font-size="13" lengthAdjust="spacing" textLength="119" x="568" y="910.835">d'acc&#232;s aux produits</text><rect fill="#F1F1F1" height="35.0938" rx="12.5" ry="12.5" style="stroke:#181818;stroke-width:0.5;" width="194" x="348" y="879.793"/><text fill="#000000" font-family="sans-serif" font-size="12" lengthAdjust="spacing" textLength="174" x="358" y="902.25">V&#233;rifier les permissions dacc&#232;s</text><polygon fill="#F1F1F1" points="405,938.6914,485,938.6914,497,950.6914,485,962.6914,405,962.6914,393,950.6914,405,938.6914" style="stroke:#181818;stroke-width:0.5;"/><text fill="#000000" font-family="sans-serif" font-size="11" lengthAdjust="spacing" textLength="80" x="405" y="955.1924">Acc&#232;s autoris&#233;?</text><text fill="#000000" font-family="sans-serif" font-size="11" lengthAdjust="spacing" textLength="14" x="379" y="948.2744">oui</text><text fill="#000000" font-family="sans-serif" font-size="11" lengthAdjust="spacing" textLength="18" x="497" y="948.2744">non</text><path d="M267,977.0625 L267,986.2383 L247,990.2383 L267,994.2383 L267,1003.4141 A0,0 0 0 0 267,1003.4141 L617,1003.4141 A0,0 0 0 0 617,1003.4141 L617,987.0625 L607,977.0625 L267,977.0625 A0,0 0 0 0 267,977.0625 " fill="#FEFFDD" style="stroke:#181818;stroke-width:0.5;"/><path d="M607,977.0625 L607,987.0625 L617,987.0625 L607,977.0625 " fill="#FEFFDD" style="stroke:#181818;stroke-width:0.5;"/><text fill="#000000" font-family="sans-serif" font-size="13" lengthAdjust="spacing" textLength="329" x="273" y="995.5576">Cache avec TTL de 30    pour optimiser les performances</text><rect fill="#F1F1F1" height="35.0938" rx="12.5" ry="12.5" style="stroke:#181818;stroke-width:0.5;" width="222" x="25" y="972.6914"/><text fill="#000000" font-family="sans-serif" font-size="12" lengthAdjust="spacing" textLength="202" x="35" y="995.1484">Mettre en cache les donn&#233;es (Redis)</text><path d="M260,1017.7852 L260,1043.3125 L240,1047.3125 L260,1051.3125 L260,1076.8398 A0,0 0 0 0 260,1076.8398 L439,1076.8398 A0,0 0 0 0 439,1076.8398 L439,1027.7852 L429,1017.7852 L260,1017.7852 A0,0 0 0 0 260,1017.7852 " fill="#FEFFDD" style="stroke:#181818;stroke-width:0.5;"/><path d="M429,1017.7852 L429,1027.7852 L439,1027.7852 L429,1017.7852 " fill="#FEFFDD" style="stroke:#181818;stroke-width:0.5;"/><text fill="#000000" font-family="sans-serif" font-size="13" lengthAdjust="spacing" textLength="145" x="266" y="1036.2803">- Pagination si applicable</text><text fill="#000000" font-family="sans-serif" font-size="13" lengthAdjust="spacing" textLength="154" x="266" y="1052.6318">- M&#233;tadonn&#233;es de r&#233;ponse</text><text fill="#000000" font-family="sans-serif" font-size="13" lengthAdjust="spacing" textLength="158" x="266" y="1068.9834">- Format JSON standardis&#233;</text><rect fill="#F1F1F1" height="35.0938" rx="12.5" ry="12.5" style="stroke:#181818;stroke-width:0.5;" width="208" x="32" y="1029.7656"/><text fill="#000000" font-family="sans-serif" font-size="12" lengthAdjust="spacing" textLength="188" x="42" y="1052.2227">Formater les donn&#233;es de r&#233;ponse</text><rect fill="#F1F1F1" height="35.0938" rx="12.5" ry="12.5" style="stroke:#181818;stroke-width:0.5;" width="250" x="11" y="1096.8398"/><text fill="#000000" font-family="sans-serif" font-size="12" lengthAdjust="spacing" textLength="230" x="21" y="1119.2969">Enregistrer requ&#234;te r&#233;ussie (Prometheus)</text><path d="M240,1141.9336 L240,1191.9883 L220,1195.9883 L240,1199.9883 L240,1250.043 A0,0 0 0 0 240,1250.043 L415,1250.043 A0,0 0 0 0 415,1250.043 L415,1151.9336 L405,1141.9336 L240,1141.9336 A0,0 0 0 0 240,1141.9336 " fill="#FEFFDD" style="stroke:#181818;stroke-width:0.5;"/><path d="M405,1141.9336 L405,1151.9336 L415,1151.9336 L405,1141.9336 " fill="#FEFFDD" style="stroke:#181818;stroke-width:0.5;"/><text fill="#000000" font-family="sans-serif" font-size="13" lengthAdjust="spacing" textLength="154" x="246" y="1160.4287">[object Object]   data: [...],</text><text fill="#000000" font-family="sans-serif" font-size="13" lengthAdjust="spacing" textLength="76" x="258" y="1176.7803">pagination": {</text><text fill="#000000" font-family="sans-serif" font-size="13" lengthAdjust="spacing" textLength="113" x="270" y="1193.1318">total_records": 100,</text><text fill="#000000" font-family="sans-serif" font-size="13" lengthAdjust="spacing" textLength="95" x="270" y="1209.4834">current_page":1,</text><text fill="#000000" font-family="sans-serif" font-size="13" lengthAdjust="spacing" textLength="107" x="270" y="1225.835">total_pages":5     }</text><text fill="#000000" font-family="sans-serif" font-size="13" lengthAdjust="spacing" textLength="4" x="258" y="1242.1865">}</text><rect fill="#F1F1F1" height="35.0938" rx="12.5" ry="12.5" style="stroke:#181818;stroke-width:0.5;" width="168" x="52" y="1178.4414"/><text fill="#000000" font-family="sans-serif" font-size="12" lengthAdjust="spacing" textLength="148" x="62" y="1200.8984">Retourner r&#233;ponse 200 OK</text><rect fill="#F1F1F1" height="35.0938" rx="12.5" ry="12.5" style="stroke:#181818;stroke-width:0.5;" width="234" x="637" y="972.6914"/><text fill="#000000" font-family="sans-serif" font-size="12" lengthAdjust="spacing" textLength="214" x="647" y="995.1484">Enregistrer acc&#232;s refus&#233; (Prometheus)</text><path d="M871,1017.7852 L871,1043.3125 L851,1047.3125 L871,1051.3125 L871,1076.8398 A0,0 0 0 0 871,1076.8398 L1107,1076.8398 A0,0 0 0 0 1107,1076.8398 L1107,1027.7852 L1097,1017.7852 L871,1017.7852 A0,0 0 0 0 871,1017.7852 " fill="#FEFFDD" style="stroke:#181818;stroke-width:0.5;"/><path d="M1097,1017.7852 L1097,1027.7852 L1107,1027.7852 L1097,1017.7852 " fill="#FEFFDD" style="stroke:#181818;stroke-width:0.5;"/><text fill="#000000" font-family="sans-serif" font-size="13" lengthAdjust="spacing" textLength="215" x="877" y="1036.2803">[object Object]error":Access denied",</text><text fill="#000000" font-family="sans-serif" font-size="13" lengthAdjust="spacing" textLength="206" x="877" y="1052.6318">message": "Insufficient permissions</text><text fill="#000000" font-family="sans-serif" font-size="13" lengthAdjust="spacing" textLength="4" x="877" y="1068.9834">}</text><rect fill="#F1F1F1" height="35.0938" rx="12.5" ry="12.5" style="stroke:#181818;stroke-width:0.5;" width="194" x="657" y="1029.7656"/><text fill="#000000" font-family="sans-serif" font-size="12" lengthAdjust="spacing" textLength="174" x="667" y="1052.2227">Retourner erreur 403 Forbidden</text><polygon fill="#F1F1F1" points="445,1256.043,457,1268.043,445,1280.043,433,1268.043,445,1256.043" style="stroke:#181818;stroke-width:0.5;"/><ellipse cx="445" cy="1311.043" fill="none" rx="11" ry="11" style="stroke:#222222;stroke-width:1.0;"/><ellipse cx="445" cy="1311.043" fill="#222222" rx="6" ry="6" style="stroke:#222222;stroke-width:1.0;"/><line style="stroke:#181818;stroke-width:1.0;" x1="445" x2="445" y1="30" y2="51.9805"/><polygon fill="#181818" points="441,41.9805,445,51.9805,449,41.9805,445,45.9805" style="stroke:#181818;stroke-width:1.0;"/><line style="stroke:#181818;stroke-width:1.0;" x1="445" x2="445" y1="87.0742" y2="119.0547"/><polygon fill="#181818" points="441,109.0547,445,119.0547,449,109.0547,445,113.0547" style="stroke:#181818;stroke-width:1.0;"/><line style="stroke:#181818;stroke-width:1.0;" x1="445" x2="445" y1="154.1484" y2="174.1484"/><polygon fill="#181818" points="441,164.1484,445,174.1484,449,164.1484,445,168.1484" style="stroke:#181818;stroke-width:1.0;"/><line style="stroke:#181818;stroke-width:1.0;" x1="445" x2="445" y1="209.2422" y2="229.2422"/><polygon fill="#181818" points="441,219.2422,445,229.2422,449,219.2422,445,223.2422" style="stroke:#181818;stroke-width:1.0;"/><line style="stroke:#181818;stroke-width:1.0;" x1="445" x2="445" y1="368.3477" y2="396.3008"/><polygon fill="#181818" points="441,386.3008,445,396.3008,449,386.3008,445,390.3008" style="stroke:#181818;stroke-width:1.0;"/><line style="stroke:#181818;stroke-width:1.0;" x1="445" x2="445" y1="308.3359" y2="333.2539"/><polygon fill="#181818" points="441,323.2539,445,333.2539,449,323.2539,445,327.2539" style="stroke:#181818;stroke-width:1.0;"/><line style="stroke:#181818;stroke-width:1.0;" x1="506" x2="554.5" y1="296.3359" y2="296.3359"/><polygon fill="#181818" points="550.5,366.3008,554.5,376.3008,558.5,366.3008,554.5,370.3008" style="stroke:#181818;stroke-width:1.0;"/><line style="stroke:#181818;stroke-width:1.0;" x1="554.5" x2="554.5" y1="296.3359" y2="440.3008"/><line style="stroke:#181818;stroke-width:1.0;" x1="554.5" x2="445" y1="440.3008" y2="440.3008"/><line style="stroke:#181818;stroke-width:1.0;" x1="445" x2="445" y1="440.3008" y2="460.3008"/><polygon fill="#181818" points="441,450.3008,445,460.3008,449,450.3008,445,454.3008" style="stroke:#181818;stroke-width:1.0;"/><line style="stroke:#181818;stroke-width:1.0;" x1="445" x2="445" y1="264.3359" y2="284.3359"/><polygon fill="#181818" points="441,274.3359,445,284.3359,449,274.3359,445,278.3359" style="stroke:#181818;stroke-width:1.0;"/><line style="stroke:#181818;stroke-width:1.0;" x1="384.5" x2="246.25" y1="531.1992" y2="531.1992"/><line style="stroke:#181818;stroke-width:1.0;" x1="246.25" x2="246.25" y1="531.1992" y2="557.0039"/><polygon fill="#181818" points="242.25,547.0039,246.25,557.0039,250.25,547.0039,246.25,551.0039" style="stroke:#181818;stroke-width:1.0;"/><line style="stroke:#181818;stroke-width:1.0;" x1="505.5" x2="643.75" y1="531.1992" y2="531.1992"/><line style="stroke:#181818;stroke-width:1.0;" x1="643.75" x2="643.75" y1="531.1992" y2="573.3555"/><polygon fill="#181818" points="639.75,563.3555,643.75,573.3555,647.75,563.3555,643.75,567.3555" style="stroke:#181818;stroke-width:1.0;"/><line style="stroke:#181818;stroke-width:1.0;" x1="246.25" x2="246.25" y1="592.0977" y2="646.6055"/><line style="stroke:#181818;stroke-width:1.0;" x1="246.25" x2="433" y1="646.6055" y2="646.6055"/><polygon fill="#181818" points="423,642.6055,433,646.6055,423,650.6055,427,646.6055" style="stroke:#181818;stroke-width:1.0;"/><line style="stroke:#181818;stroke-width:1.0;" x1="643.75" x2="643.75" y1="608.4492" y2="646.6055"/><line style="stroke:#181818;stroke-width:1.0;" x1="643.75" x2="457" y1="646.6055" y2="646.6055"/><polygon fill="#181818" points="467,642.6055,457,646.6055,467,650.6055,463,646.6055" style="stroke:#181818;stroke-width:1.0;"/><line style="stroke:#181818;stroke-width:1.0;" x1="445" x2="445" y1="495.3945" y2="519.1992"/><polygon fill="#181818" points="441,509.1992,445,519.1992,449,509.1992,445,513.1992" style="stroke:#181818;stroke-width:1.0;"/><line style="stroke:#181818;stroke-width:1.0;" x1="655.5" x2="655.5" y1="747.6992" y2="782.6992"/><polygon fill="#181818" points="651.5,772.6992,655.5,782.6992,659.5,772.6992,655.5,776.6992" style="stroke:#181818;stroke-width:1.0;"/><line style="stroke:#181818;stroke-width:1.0;" x1="655.5" x2="655.5" y1="817.793" y2="837.793"/><polygon fill="#181818" points="651.5,827.793,655.5,837.793,659.5,827.793,655.5,831.793" style="stroke:#181818;stroke-width:1.0;"/><line style="stroke:#181818;stroke-width:1.0;" x1="390.5" x2="234.5" y1="690.6055" y2="690.6055"/><line style="stroke:#181818;stroke-width:1.0;" x1="234.5" x2="234.5" y1="690.6055" y2="724.5859"/><polygon fill="#181818" points="230.5,714.5859,234.5,724.5859,238.5,714.5859,234.5,718.5859" style="stroke:#181818;stroke-width:1.0;"/><line style="stroke:#181818;stroke-width:1.0;" x1="499.5" x2="655.5" y1="690.6055" y2="690.6055"/><line style="stroke:#181818;stroke-width:1.0;" x1="655.5" x2="655.5" y1="690.6055" y2="712.6055"/><polygon fill="#181818" points="651.5,702.6055,655.5,712.6055,659.5,702.6055,655.5,706.6055" style="stroke:#181818;stroke-width:1.0;"/><line style="stroke:#181818;stroke-width:1.0;" x1="234.5" x2="234.5" y1="759.6797" y2="864.793"/><line style="stroke:#181818;stroke-width:1.0;" x1="234.5" x2="445" y1="864.793" y2="864.793"/><line style="stroke:#181818;stroke-width:1.0;" x1="445" x2="445" y1="864.793" y2="879.793"/><polygon fill="#181818" points="441,869.793,445,879.793,449,869.793,445,873.793" style="stroke:#181818;stroke-width:1.0;"/><line style="stroke:#181818;stroke-width:1.0;" x1="445" x2="445" y1="658.6055" y2="678.6055"/><polygon fill="#181818" points="441,668.6055,445,678.6055,449,668.6055,445,672.6055" style="stroke:#181818;stroke-width:1.0;"/><line style="stroke:#181818;stroke-width:1.0;" x1="136" x2="136" y1="1007.7852" y2="1029.7656"/><polygon fill="#181818" points="132,1019.7656,136,1029.7656,140,1019.7656,136,1023.7656" style="stroke:#181818;stroke-width:1.0;"/><line style="stroke:#181818;stroke-width:1.0;" x1="136" x2="136" y1="1064.8594" y2="1096.8398"/><polygon fill="#181818" points="132,1086.8398,136,1096.8398,140,1086.8398,136,1090.8398" style="stroke:#181818;stroke-width:1.0;"/><line style="stroke:#181818;stroke-width:1.0;" x1="136" x2="136" y1="1131.9336" y2="1178.4414"/><polygon fill="#181818" points="132,1168.4414,136,1178.4414,140,1168.4414,136,1172.4414" style="stroke:#181818;stroke-width:1.0;"/><line style="stroke:#181818;stroke-width:1.0;" x1="754" x2="754" y1="1007.7852" y2="1029.7656"/><polygon fill="#181818" points="750,1019.7656,754,1029.7656,758,1019.7656,754,1023.7656" style="stroke:#181818;stroke-width:1.0;"/><line style="stroke:#181818;stroke-width:1.0;" x1="393" x2="136" y1="950.6914" y2="950.6914"/><line style="stroke:#181818;stroke-width:1.0;" x1="136" x2="136" y1="950.6914" y2="972.6914"/><polygon fill="#181818" points="132,962.6914,136,972.6914,140,962.6914,136,966.6914" style="stroke:#181818;stroke-width:1.0;"/><line style="stroke:#181818;stroke-width:1.0;" x1="497" x2="754" y1="950.6914" y2="950.6914"/><line style="stroke:#181818;stroke-width:1.0;" x1="754" x2="754" y1="950.6914" y2="972.6914"/><polygon fill="#181818" points="750,962.6914,754,972.6914,758,962.6914,754,966.6914" style="stroke:#181818;stroke-width:1.0;"/><line style="stroke:#181818;stroke-width:1.0;" x1="136" x2="136" y1="1213.5352" y2="1268.043"/><line style="stroke:#181818;stroke-width:1.0;" x1="136" x2="433" y1="1268.043" y2="1268.043"/><polygon fill="#181818" points="423,1264.043,433,1268.043,423,1272.043,427,1268.043" style="stroke:#181818;stroke-width:1.0;"/><line style="stroke:#181818;stroke-width:1.0;" x1="754" x2="754" y1="1064.8594" y2="1268.043"/><line style="stroke:#181818;stroke-width:1.0;" x1="754" x2="457" y1="1268.043" y2="1268.043"/><polygon fill="#181818" points="467,1264.043,457,1268.043,467,1272.043,463,1268.043" style="stroke:#181818;stroke-width:1.0;"/><line style="stroke:#181818;stroke-width:1.0;" x1="445" x2="445" y1="914.8867" y2="938.6914"/><polygon fill="#181818" points="441,928.6914,445,938.6914,449,928.6914,445,932.6914" style="stroke:#181818;stroke-width:1.0;"/><line style="stroke:#181818;stroke-width:1.0;" x1="445" x2="445" y1="1280.043" y2="1300.043"/><polygon fill="#181818" points="441,1290.043,445,1300.043,449,1290.043,445,1294.043" style="stroke:#181818;stroke-width:1.0;"/><!--SRC=[ZLNBRXen5Dtp5LTi2b8QIDDkO555UOccIL22kecYoDWNS3NOKpzeeghVqz3Vc1_hjUSH1YPHMOJ9VTZdt7CkOnqphjKQ72SIbGDKAoqH3FxmsL-7811IeuMNpWvRIbF4oFd2jG3EJoVGOwdihGvwiOGxIs7j6pEzWHHlP3bpEDVcgJSedqQYXKf0k9BG7Or7S4wPd-m9EXTQpRi4CVkZfOE4LMY7L3akZeHRD2l94PnXac1lbNrZYHJCIQs8eeMK6RRCdfsXPq5pCDcQokGCEkEDp2eqeVtS1RT01HtjPRU5YKNeAAswn6zmWqvxez006eFUmCT-dmcueQlHkY6LMAVJG4tE0eniRUHCKdc2m1bV89KAkJth6wIC2Ld1bArgASDMo0CtdcHhO2aDD3MIm6yCBx0uqKfHr9A-UMkTGmsuA6k5psi3wXeSWEgycJPBvi9ZZ0jClRGv1mfK8BQ7LD09j6rbi01kocmqNGcYuUxtCD7UrZgB-3Z_DwW9evDwC6fCV0WhsKjYcMLpgN8Ve8EPJ8BGDUIvKj4AvKdEQB_ArdPtYDcQ-vGqBPYzZ783R2EbaSedIK2goY9rN646PgtcKTwIctmCk4MsTamcRupyL1cSI-i2icgv2Ur2UpekSbiYaV6sEtp5nn_XIZiuqrw9DtrC-D4ifRMHYs2SPy_RXYxg-Si62gDp8SMxl0EOVtmHk6xdexB2qLXijjuHuX8TKQtSNXUZ4-tPRT3XE1R7dPfClWOV7lP3FALPW4wT95el7ADYYjVz0X3kFujYxhe0w8SbfR5Wemasp6XbsEQ49ZHDIhKlWyfDXnNv_5BuSdjzHUem9PWHOJgxy1hTGATv4ctN37K_b9V2XtuVhY-sYTpfwNVa3gxZrttuJM2E3U1kVt__VYyYJIkQxG7yYY7wEErOyc2GQoCi9Gxw_RqonpsPKBa7wiJsu62ltXEYrF4fXdwtoh-Rd5zVXi9i1cUUHlLVYt0O9ZsLWbuK3J9k3O2wj6aFoB5euxj5ecZd19OKYOIWFLBMpsWVuZjuOtrsoHGR5xVl7m00]--></g></svg>