<?xml version="1.0" encoding="us-ascii" standalone="no"?><svg xmlns="http://www.w3.org/2000/svg" xmlns:xlink="http://www.w3.org/1999/xlink" contentStyleType="text/css" height="1111px" preserveAspectRatio="none" style="width:2051px;height:1111px;background:#FFFFFF;" version="1.1" viewBox="0 0 2051 1111" width="2051px" zoomAndPan="magnify"><defs/><g><!--cluster Sales Service Entities--><g id="cluster_Sales Service Entities"><path d="M1058.5,702 L1212.5,702 A3.75,3.75 0 0 1 1215,704.5 L1222,725.6094 L1701.5,725.6094 A2.5,2.5 0 0 1 1704,728.1094 L1704,1101.5 A2.5,2.5 0 0 1 1701.5,1104 L1058.5,1104 A2.5,2.5 0 0 1 1056,1101.5 L1056,704.5 A2.5,2.5 0 0 1 1058.5,702 " fill="none" style="stroke:#000000;stroke-width:1.5;"/><line style="stroke:#000000;stroke-width:1.5;" x1="1056" x2="1222" y1="725.6094" y2="725.6094"/><text fill="#000000" font-family="sans-serif" font-size="14" font-weight="bold" lengthAdjust="spacing" textLength="153" x="1060" y="718.5332">Sales Service Entities</text></g><!--cluster Controllers--><g id="cluster_Controllers"><path d="M875.5,464 L955.5,464 A3.75,3.75 0 0 1 958,466.5 L965,487.6094 L1914.5,487.6094 A2.5,2.5 0 0 1 1917,490.1094 L1917,649.5 A2.5,2.5 0 0 1 1914.5,652 L875.5,652 A2.5,2.5 0 0 1 873,649.5 L873,466.5 A2.5,2.5 0 0 1 875.5,464 " fill="none" style="stroke:#000000;stroke-width:1.5;"/><line style="stroke:#000000;stroke-width:1.5;" x1="873" x2="965" y1="487.6094" y2="487.6094"/><text fill="#000000" font-family="sans-serif" font-size="14" font-weight="bold" lengthAdjust="spacing" textLength="79" x="877" y="480.5332">Controllers</text></g><!--cluster Middleware--><g id="cluster_Middleware"><path d="M115.5,6 L198.5,6 A3.75,3.75 0 0 1 201,8.5 L208,29.6094 L2041.5,29.6094 A2.5,2.5 0 0 1 2044,32.1094 L2044,173.5 A2.5,2.5 0 0 1 2041.5,176 L115.5,176 A2.5,2.5 0 0 1 113,173.5 L113,8.5 A2.5,2.5 0 0 1 115.5,6 " fill="none" style="stroke:#000000;stroke-width:1.5;"/><line style="stroke:#000000;stroke-width:1.5;" x1="113" x2="208" y1="29.6094" y2="29.6094"/><text fill="#000000" font-family="sans-serif" font-size="14" font-weight="bold" lengthAdjust="spacing" textLength="82" x="117" y="22.5332">Middleware</text></g><!--cluster Routes--><g id="cluster_Routes"><path d="M8.5,226 L59.5,226 A3.75,3.75 0 0 1 62,228.5 L69,249.6094 L997.5,249.6094 A2.5,2.5 0 0 1 1000,252.1094 L1000,411.5 A2.5,2.5 0 0 1 997.5,414 L8.5,414 A2.5,2.5 0 0 1 6,411.5 L6,228.5 A2.5,2.5 0 0 1 8.5,226 " fill="none" style="stroke:#000000;stroke-width:1.5;"/><line style="stroke:#000000;stroke-width:1.5;" x1="6" x2="69" y1="249.6094" y2="249.6094"/><text fill="#000000" font-family="sans-serif" font-size="14" font-weight="bold" lengthAdjust="spacing" textLength="50" x="10" y="242.5332">Routes</text></g><!--class Sale--><g id="elem_Sale"><rect codeLine="3" fill="#F1F1F1" height="118.4375" id="Sale" rx="2.5" ry="2.5" style="stroke:#181818;stroke-width:0.5;" width="133" x="1072.5" y="747"/><ellipse cx="1120.75" cy="763" fill="#ADD1B2" rx="11" ry="11" style="stroke:#181818;stroke-width:1.0;"/><path d="M1123.5156,758.875 Q1123.6719,758.6563 1123.8594,758.5469 Q1124.0469,758.4375 1124.2656,758.4375 Q1124.6406,758.4375 1124.875,758.7031 Q1125.1094,758.9531 1125.1094,759.5625 L1125.1094,761.0156 Q1125.1094,761.625 1124.875,761.8906 Q1124.6406,762.1563 1124.2656,762.1563 Q1123.9219,762.1563 1123.7188,761.9531 Q1123.5156,761.7656 1123.4063,761.25 Q1123.3594,760.8906 1123.1719,760.7031 Q1122.8438,760.3281 1122.2344,760.1094 Q1121.625,759.8906 1121,759.8906 Q1120.2344,759.8906 1119.5938,760.2188 Q1118.9688,760.5469 1118.4688,761.2969 Q1117.9844,762.0469 1117.9844,763.0781 L1117.9844,764.1719 Q1117.9844,765.4063 1118.875,766.2344 Q1119.7656,767.0469 1121.3594,767.0469 Q1122.2969,767.0469 1122.9531,766.7969 Q1123.3438,766.6406 1123.7656,766.2031 Q1124.0313,765.9375 1124.1719,765.8594 Q1124.3281,765.7813 1124.5313,765.7813 Q1124.8594,765.7813 1125.1094,766.0469 Q1125.375,766.2969 1125.375,766.6406 Q1125.375,766.9844 1125.0313,767.3906 Q1124.5313,767.9688 1123.7344,768.2969 Q1122.6563,768.75 1121.3594,768.75 Q1119.8438,768.75 1118.6406,768.125 Q1117.6563,767.625 1116.9688,766.5625 Q1116.2813,765.4844 1116.2813,764.2031 L1116.2813,763.0469 Q1116.2813,761.7188 1116.8906,760.5781 Q1117.5156,759.4219 1118.6094,758.8125 Q1119.7031,758.1875 1120.9375,758.1875 Q1121.6719,758.1875 1122.3125,758.3594 Q1122.9688,758.5156 1123.5156,758.875 Z " fill="#000000"/><text fill="#000000" font-family="sans-serif" font-size="14" lengthAdjust="spacing" textLength="28" x="1141.25" y="768.7285">Sale</text><line style="stroke:#181818;stroke-width:0.5;" x1="1073.5" x2="1204.5" y1="779" y2="779"/><ellipse cx="1083.5" cy="793.3047" fill="none" rx="3" ry="3" style="stroke:#038048;stroke-width:1.0;"/><text fill="#000000" font-family="sans-serif" font-size="14" lengthAdjust="spacing" textLength="67" x="1092.5" y="797.5332">id: number</text><ellipse cx="1083.5" cy="810.9141" fill="none" rx="3" ry="3" style="stroke:#038048;stroke-width:1.0;"/><text fill="#000000" font-family="sans-serif" font-size="14" lengthAdjust="spacing" textLength="107" x="1092.5" y="815.1426">store_id: number</text><ellipse cx="1083.5" cy="828.5234" fill="none" rx="3" ry="3" style="stroke:#038048;stroke-width:1.0;"/><text fill="#000000" font-family="sans-serif" font-size="14" lengthAdjust="spacing" textLength="71" x="1092.5" y="832.752">date: string</text><ellipse cx="1083.5" cy="846.1328" fill="none" rx="3" ry="3" style="stroke:#038048;stroke-width:1.0;"/><text fill="#000000" font-family="sans-serif" font-size="14" lengthAdjust="spacing" textLength="103" x="1092.5" y="850.3613">items: SaleItem[]</text><line style="stroke:#181818;stroke-width:0.5;" x1="1073.5" x2="1204.5" y1="857.4375" y2="857.4375"/></g><!--class SaleItem--><g id="elem_SaleItem"><rect codeLine="10" fill="#F1F1F1" height="136.0469" id="SaleItem" rx="2.5" ry="2.5" style="stroke:#181818;stroke-width:0.5;" width="149" x="1106.5" y="952"/><ellipse cx="1149.85" cy="968" fill="#ADD1B2" rx="11" ry="11" style="stroke:#181818;stroke-width:1.0;"/><path d="M1152.6156,963.875 Q1152.7719,963.6563 1152.9594,963.5469 Q1153.1469,963.4375 1153.3656,963.4375 Q1153.7406,963.4375 1153.975,963.7031 Q1154.2094,963.9531 1154.2094,964.5625 L1154.2094,966.0156 Q1154.2094,966.625 1153.975,966.8906 Q1153.7406,967.1563 1153.3656,967.1563 Q1153.0219,967.1563 1152.8188,966.9531 Q1152.6156,966.7656 1152.5063,966.25 Q1152.4594,965.8906 1152.2719,965.7031 Q1151.9438,965.3281 1151.3344,965.1094 Q1150.725,964.8906 1150.1,964.8906 Q1149.3344,964.8906 1148.6938,965.2188 Q1148.0688,965.5469 1147.5688,966.2969 Q1147.0844,967.0469 1147.0844,968.0781 L1147.0844,969.1719 Q1147.0844,970.4063 1147.975,971.2344 Q1148.8656,972.0469 1150.4594,972.0469 Q1151.3969,972.0469 1152.0531,971.7969 Q1152.4438,971.6406 1152.8656,971.2031 Q1153.1313,970.9375 1153.2719,970.8594 Q1153.4281,970.7813 1153.6313,970.7813 Q1153.9594,970.7813 1154.2094,971.0469 Q1154.475,971.2969 1154.475,971.6406 Q1154.475,971.9844 1154.1313,972.3906 Q1153.6313,972.9688 1152.8344,973.2969 Q1151.7563,973.75 1150.4594,973.75 Q1148.9438,973.75 1147.7406,973.125 Q1146.7563,972.625 1146.0688,971.5625 Q1145.3813,970.4844 1145.3813,969.2031 L1145.3813,968.0469 Q1145.3813,966.7188 1145.9906,965.5781 Q1146.6156,964.4219 1147.7094,963.8125 Q1148.8031,963.1875 1150.0375,963.1875 Q1150.7719,963.1875 1151.4125,963.3594 Q1152.0688,963.5156 1152.6156,963.875 Z " fill="#000000"/><text fill="#000000" font-family="sans-serif" font-size="14" lengthAdjust="spacing" textLength="54" x="1170.15" y="973.7285">SaleItem</text><line style="stroke:#181818;stroke-width:0.5;" x1="1107.5" x2="1254.5" y1="984" y2="984"/><ellipse cx="1117.5" cy="998.3047" fill="none" rx="3" ry="3" style="stroke:#038048;stroke-width:1.0;"/><text fill="#000000" font-family="sans-serif" font-size="14" lengthAdjust="spacing" textLength="101" x="1126.5" y="1002.5332">sale_id: number</text><ellipse cx="1117.5" cy="1015.9141" fill="none" rx="3" ry="3" style="stroke:#038048;stroke-width:1.0;"/><text fill="#000000" font-family="sans-serif" font-size="14" lengthAdjust="spacing" textLength="123" x="1126.5" y="1020.1426">product_id: number</text><ellipse cx="1117.5" cy="1033.5234" fill="none" rx="3" ry="3" style="stroke:#038048;stroke-width:1.0;"/><text fill="#000000" font-family="sans-serif" font-size="14" lengthAdjust="spacing" textLength="106" x="1126.5" y="1037.752">quantity: number</text><ellipse cx="1117.5" cy="1051.1328" fill="none" rx="3" ry="3" style="stroke:#038048;stroke-width:1.0;"/><text fill="#000000" font-family="sans-serif" font-size="14" lengthAdjust="spacing" textLength="87" x="1126.5" y="1055.3613">price: number</text><ellipse cx="1117.5" cy="1068.7422" fill="none" rx="3" ry="3" style="stroke:#038048;stroke-width:1.0;"/><text fill="#000000" font-family="sans-serif" font-size="14" lengthAdjust="spacing" textLength="62" x="1126.5" y="1072.9707">sale: Sale</text><line style="stroke:#181818;stroke-width:0.5;" x1="1107.5" x2="1254.5" y1="1080.0469" y2="1080.0469"/></g><!--class Checkout--><g id="elem_Checkout"><rect codeLine="18" fill="#F1F1F1" height="136.0469" id="Checkout" rx="2.5" ry="2.5" style="stroke:#181818;stroke-width:0.5;" width="178" x="1241" y="738"/><ellipse cx="1295.75" cy="754" fill="#ADD1B2" rx="11" ry="11" style="stroke:#181818;stroke-width:1.0;"/><path d="M1298.5156,749.875 Q1298.6719,749.6563 1298.8594,749.5469 Q1299.0469,749.4375 1299.2656,749.4375 Q1299.6406,749.4375 1299.875,749.7031 Q1300.1094,749.9531 1300.1094,750.5625 L1300.1094,752.0156 Q1300.1094,752.625 1299.875,752.8906 Q1299.6406,753.1563 1299.2656,753.1563 Q1298.9219,753.1563 1298.7188,752.9531 Q1298.5156,752.7656 1298.4063,752.25 Q1298.3594,751.8906 1298.1719,751.7031 Q1297.8438,751.3281 1297.2344,751.1094 Q1296.625,750.8906 1296,750.8906 Q1295.2344,750.8906 1294.5938,751.2188 Q1293.9688,751.5469 1293.4688,752.2969 Q1292.9844,753.0469 1292.9844,754.0781 L1292.9844,755.1719 Q1292.9844,756.4063 1293.875,757.2344 Q1294.7656,758.0469 1296.3594,758.0469 Q1297.2969,758.0469 1297.9531,757.7969 Q1298.3438,757.6406 1298.7656,757.2031 Q1299.0313,756.9375 1299.1719,756.8594 Q1299.3281,756.7813 1299.5313,756.7813 Q1299.8594,756.7813 1300.1094,757.0469 Q1300.375,757.2969 1300.375,757.6406 Q1300.375,757.9844 1300.0313,758.3906 Q1299.5313,758.9688 1298.7344,759.2969 Q1297.6563,759.75 1296.3594,759.75 Q1294.8438,759.75 1293.6406,759.125 Q1292.6563,758.625 1291.9688,757.5625 Q1291.2813,756.4844 1291.2813,755.2031 L1291.2813,754.0469 Q1291.2813,752.7188 1291.8906,751.5781 Q1292.5156,750.4219 1293.6094,749.8125 Q1294.7031,749.1875 1295.9375,749.1875 Q1296.6719,749.1875 1297.3125,749.3594 Q1297.9688,749.5156 1298.5156,749.875 Z " fill="#000000"/><text fill="#000000" font-family="sans-serif" font-size="14" lengthAdjust="spacing" textLength="60" x="1316.25" y="759.7285">Checkout</text><line style="stroke:#181818;stroke-width:0.5;" x1="1242" x2="1418" y1="770" y2="770"/><ellipse cx="1252" cy="784.3047" fill="none" rx="3" ry="3" style="stroke:#038048;stroke-width:1.0;"/><text fill="#000000" font-family="sans-serif" font-size="14" lengthAdjust="spacing" textLength="67" x="1261" y="788.5332">id: number</text><ellipse cx="1252" cy="801.9141" fill="none" rx="3" ry="3" style="stroke:#038048;stroke-width:1.0;"/><text fill="#000000" font-family="sans-serif" font-size="14" lengthAdjust="spacing" textLength="133" x="1261" y="806.1426">customer_id: number</text><ellipse cx="1252" cy="819.5234" fill="none" rx="3" ry="3" style="stroke:#038048;stroke-width:1.0;"/><text fill="#000000" font-family="sans-serif" font-size="14" lengthAdjust="spacing" textLength="107" x="1261" y="823.752">store_id: number</text><ellipse cx="1252" cy="837.1328" fill="none" rx="3" ry="3" style="stroke:#038048;stroke-width:1.0;"/><text fill="#000000" font-family="sans-serif" font-size="14" lengthAdjust="spacing" textLength="138" x="1261" y="841.3613">total_amount: number</text><ellipse cx="1252" cy="854.7422" fill="none" rx="3" ry="3" style="stroke:#038048;stroke-width:1.0;"/><text fill="#000000" font-family="sans-serif" font-size="14" lengthAdjust="spacing" textLength="152" x="1261" y="858.9707">payment_method: string</text><line style="stroke:#181818;stroke-width:0.5;" x1="1242" x2="1418" y1="866.0469" y2="866.0469"/></g><!--class ShoppingCart--><g id="elem_ShoppingCart"><rect codeLine="26" fill="#F1F1F1" height="136.0469" id="ShoppingCart" rx="2.5" ry="2.5" style="stroke:#181818;stroke-width:0.5;" width="233" x="1454.5" y="738"/><ellipse cx="1523.25" cy="754" fill="#ADD1B2" rx="11" ry="11" style="stroke:#181818;stroke-width:1.0;"/><path d="M1526.0156,749.875 Q1526.1719,749.6563 1526.3594,749.5469 Q1526.5469,749.4375 1526.7656,749.4375 Q1527.1406,749.4375 1527.375,749.7031 Q1527.6094,749.9531 1527.6094,750.5625 L1527.6094,752.0156 Q1527.6094,752.625 1527.375,752.8906 Q1527.1406,753.1563 1526.7656,753.1563 Q1526.4219,753.1563 1526.2188,752.9531 Q1526.0156,752.7656 1525.9063,752.25 Q1525.8594,751.8906 1525.6719,751.7031 Q1525.3438,751.3281 1524.7344,751.1094 Q1524.125,750.8906 1523.5,750.8906 Q1522.7344,750.8906 1522.0938,751.2188 Q1521.4688,751.5469 1520.9688,752.2969 Q1520.4844,753.0469 1520.4844,754.0781 L1520.4844,755.1719 Q1520.4844,756.4063 1521.375,757.2344 Q1522.2656,758.0469 1523.8594,758.0469 Q1524.7969,758.0469 1525.4531,757.7969 Q1525.8438,757.6406 1526.2656,757.2031 Q1526.5313,756.9375 1526.6719,756.8594 Q1526.8281,756.7813 1527.0313,756.7813 Q1527.3594,756.7813 1527.6094,757.0469 Q1527.875,757.2969 1527.875,757.6406 Q1527.875,757.9844 1527.5313,758.3906 Q1527.0313,758.9688 1526.2344,759.2969 Q1525.1563,759.75 1523.8594,759.75 Q1522.3438,759.75 1521.1406,759.125 Q1520.1563,758.625 1519.4688,757.5625 Q1518.7813,756.4844 1518.7813,755.2031 L1518.7813,754.0469 Q1518.7813,752.7188 1519.3906,751.5781 Q1520.0156,750.4219 1521.1094,749.8125 Q1522.2031,749.1875 1523.4375,749.1875 Q1524.1719,749.1875 1524.8125,749.3594 Q1525.4688,749.5156 1526.0156,749.875 Z " fill="#000000"/><text fill="#000000" font-family="sans-serif" font-size="14" lengthAdjust="spacing" textLength="87" x="1543.75" y="759.7285">ShoppingCart</text><line style="stroke:#181818;stroke-width:0.5;" x1="1455.5" x2="1686.5" y1="770" y2="770"/><ellipse cx="1465.5" cy="784.3047" fill="none" rx="3" ry="3" style="stroke:#038048;stroke-width:1.0;"/><text fill="#000000" font-family="sans-serif" font-size="14" lengthAdjust="spacing" textLength="67" x="1474.5" y="788.5332">id: number</text><ellipse cx="1465.5" cy="801.9141" fill="none" rx="3" ry="3" style="stroke:#038048;stroke-width:1.0;"/><text fill="#000000" font-family="sans-serif" font-size="14" lengthAdjust="spacing" textLength="166" x="1474.5" y="806.1426">customer_id: number | null</text><ellipse cx="1465.5" cy="819.5234" fill="none" rx="3" ry="3" style="stroke:#038048;stroke-width:1.0;"/><text fill="#000000" font-family="sans-serif" font-size="14" lengthAdjust="spacing" textLength="207" x="1474.5" y="823.752">products: ShoppingCartProduct[]</text><ellipse cx="1465.5" cy="837.1328" fill="none" rx="3" ry="3" style="stroke:#038048;stroke-width:1.0;"/><text fill="#000000" font-family="sans-serif" font-size="14" lengthAdjust="spacing" textLength="106" x="1474.5" y="841.3613">created_at: Date</text><ellipse cx="1465.5" cy="854.7422" fill="none" rx="3" ry="3" style="stroke:#038048;stroke-width:1.0;"/><text fill="#000000" font-family="sans-serif" font-size="14" lengthAdjust="spacing" textLength="110" x="1474.5" y="858.9707">updated_at: Date</text><line style="stroke:#181818;stroke-width:0.5;" x1="1455.5" x2="1686.5" y1="866.0469" y2="866.0469"/></g><!--class ShoppingCartProduct--><g id="elem_ShoppingCartProduct"><rect codeLine="34" fill="#F1F1F1" height="118.4375" id="ShoppingCartProduct" rx="2.5" ry="2.5" style="stroke:#181818;stroke-width:0.5;" width="168" x="1520" y="961"/><ellipse cx="1535" cy="977" fill="#ADD1B2" rx="11" ry="11" style="stroke:#181818;stroke-width:1.0;"/><path d="M1537.7656,972.875 Q1537.9219,972.6563 1538.1094,972.5469 Q1538.2969,972.4375 1538.5156,972.4375 Q1538.8906,972.4375 1539.125,972.7031 Q1539.3594,972.9531 1539.3594,973.5625 L1539.3594,975.0156 Q1539.3594,975.625 1539.125,975.8906 Q1538.8906,976.1563 1538.5156,976.1563 Q1538.1719,976.1563 1537.9688,975.9531 Q1537.7656,975.7656 1537.6563,975.25 Q1537.6094,974.8906 1537.4219,974.7031 Q1537.0938,974.3281 1536.4844,974.1094 Q1535.875,973.8906 1535.25,973.8906 Q1534.4844,973.8906 1533.8438,974.2188 Q1533.2188,974.5469 1532.7188,975.2969 Q1532.2344,976.0469 1532.2344,977.0781 L1532.2344,978.1719 Q1532.2344,979.4063 1533.125,980.2344 Q1534.0156,981.0469 1535.6094,981.0469 Q1536.5469,981.0469 1537.2031,980.7969 Q1537.5938,980.6406 1538.0156,980.2031 Q1538.2813,979.9375 1538.4219,979.8594 Q1538.5781,979.7813 1538.7813,979.7813 Q1539.1094,979.7813 1539.3594,980.0469 Q1539.625,980.2969 1539.625,980.6406 Q1539.625,980.9844 1539.2813,981.3906 Q1538.7813,981.9688 1537.9844,982.2969 Q1536.9063,982.75 1535.6094,982.75 Q1534.0938,982.75 1532.8906,982.125 Q1531.9063,981.625 1531.2188,980.5625 Q1530.5313,979.4844 1530.5313,978.2031 L1530.5313,977.0469 Q1530.5313,975.7188 1531.1406,974.5781 Q1531.7656,973.4219 1532.8594,972.8125 Q1533.9531,972.1875 1535.1875,972.1875 Q1535.9219,972.1875 1536.5625,972.3594 Q1537.2188,972.5156 1537.7656,972.875 Z " fill="#000000"/><text fill="#000000" font-family="sans-serif" font-size="14" lengthAdjust="spacing" textLength="136" x="1549" y="982.7285">ShoppingCartProduct</text><line style="stroke:#181818;stroke-width:0.5;" x1="1521" x2="1687" y1="993" y2="993"/><ellipse cx="1531" cy="1007.3047" fill="none" rx="3" ry="3" style="stroke:#038048;stroke-width:1.0;"/><text fill="#000000" font-family="sans-serif" font-size="14" lengthAdjust="spacing" textLength="67" x="1540" y="1011.5332">id: number</text><ellipse cx="1531" cy="1024.9141" fill="none" rx="3" ry="3" style="stroke:#038048;stroke-width:1.0;"/><text fill="#000000" font-family="sans-serif" font-size="14" lengthAdjust="spacing" textLength="123" x="1540" y="1029.1426">product_id: number</text><ellipse cx="1531" cy="1042.5234" fill="none" rx="3" ry="3" style="stroke:#038048;stroke-width:1.0;"/><text fill="#000000" font-family="sans-serif" font-size="14" lengthAdjust="spacing" textLength="119" x="1540" y="1046.752">cart: ShoppingCart</text><ellipse cx="1531" cy="1060.1328" fill="none" rx="3" ry="3" style="stroke:#038048;stroke-width:1.0;"/><text fill="#000000" font-family="sans-serif" font-size="14" lengthAdjust="spacing" textLength="106" x="1540" y="1064.3613">quantity: number</text><line style="stroke:#181818;stroke-width:0.5;" x1="1521" x2="1687" y1="1071.4375" y2="1071.4375"/></g><!--class SalesController--><g id="elem_SalesController"><rect codeLine="43" fill="#F1F1F1" height="100.8281" id="SalesController" rx="2.5" ry="2.5" style="stroke:#181818;stroke-width:0.5;" width="311" x="889.5" y="517.5"/><ellipse cx="992.25" cy="533.5" fill="#ADD1B2" rx="11" ry="11" style="stroke:#181818;stroke-width:1.0;"/><path d="M995.0156,529.375 Q995.1719,529.1563 995.3594,529.0469 Q995.5469,528.9375 995.7656,528.9375 Q996.1406,528.9375 996.375,529.2031 Q996.6094,529.4531 996.6094,530.0625 L996.6094,531.5156 Q996.6094,532.125 996.375,532.3906 Q996.1406,532.6563 995.7656,532.6563 Q995.4219,532.6563 995.2188,532.4531 Q995.0156,532.2656 994.9063,531.75 Q994.8594,531.3906 994.6719,531.2031 Q994.3438,530.8281 993.7344,530.6094 Q993.125,530.3906 992.5,530.3906 Q991.7344,530.3906 991.0938,530.7188 Q990.4688,531.0469 989.9688,531.7969 Q989.4844,532.5469 989.4844,533.5781 L989.4844,534.6719 Q989.4844,535.9063 990.375,536.7344 Q991.2656,537.5469 992.8594,537.5469 Q993.7969,537.5469 994.4531,537.2969 Q994.8438,537.1406 995.2656,536.7031 Q995.5313,536.4375 995.6719,536.3594 Q995.8281,536.2813 996.0313,536.2813 Q996.3594,536.2813 996.6094,536.5469 Q996.875,536.7969 996.875,537.1406 Q996.875,537.4844 996.5313,537.8906 Q996.0313,538.4688 995.2344,538.7969 Q994.1563,539.25 992.8594,539.25 Q991.3438,539.25 990.1406,538.625 Q989.1563,538.125 988.4688,537.0625 Q987.7813,535.9844 987.7813,534.7031 L987.7813,533.5469 Q987.7813,532.2188 988.3906,531.0781 Q989.0156,529.9219 990.1094,529.3125 Q991.2031,528.6875 992.4375,528.6875 Q993.1719,528.6875 993.8125,528.8594 Q994.4688,529.0156 995.0156,529.375 Z " fill="#000000"/><text fill="#000000" font-family="sans-serif" font-size="14" lengthAdjust="spacing" textLength="97" x="1012.75" y="539.2285">SalesController</text><line style="stroke:#181818;stroke-width:0.5;" x1="890.5" x2="1199.5" y1="549.5" y2="549.5"/><line style="stroke:#181818;stroke-width:0.5;" x1="890.5" x2="1199.5" y1="557.5" y2="557.5"/><ellipse cx="900.5" cy="571.8047" fill="#84BE84" rx="3" ry="3" style="stroke:#038048;stroke-width:1.0;"/><text fill="#000000" font-family="sans-serif" font-size="14" lengthAdjust="spacing" textLength="80" x="909.5" y="576.0332">getAllSales()</text><ellipse cx="900.5" cy="589.4141" fill="#84BE84" rx="3" ry="3" style="stroke:#038048;stroke-width:1.0;"/><text fill="#000000" font-family="sans-serif" font-size="14" lengthAdjust="spacing" textLength="207" x="909.5" y="593.6426">getSaleByStore(storeId: number)</text><ellipse cx="900.5" cy="607.0234" fill="#84BE84" rx="3" ry="3" style="stroke:#038048;stroke-width:1.0;"/><text fill="#000000" font-family="sans-serif" font-size="14" lengthAdjust="spacing" textLength="285" x="909.5" y="611.252">getSaleById(storeId: number, saleId: number)</text></g><!--class CheckoutsController--><g id="elem_CheckoutsController"><rect codeLine="49" fill="#F1F1F1" height="100.8281" id="CheckoutsController" rx="2.5" ry="2.5" style="stroke:#181818;stroke-width:0.5;" width="267" x="1235.5" y="517.5"/><ellipse cx="1300.25" cy="533.5" fill="#ADD1B2" rx="11" ry="11" style="stroke:#181818;stroke-width:1.0;"/><path d="M1303.0156,529.375 Q1303.1719,529.1563 1303.3594,529.0469 Q1303.5469,528.9375 1303.7656,528.9375 Q1304.1406,528.9375 1304.375,529.2031 Q1304.6094,529.4531 1304.6094,530.0625 L1304.6094,531.5156 Q1304.6094,532.125 1304.375,532.3906 Q1304.1406,532.6563 1303.7656,532.6563 Q1303.4219,532.6563 1303.2188,532.4531 Q1303.0156,532.2656 1302.9063,531.75 Q1302.8594,531.3906 1302.6719,531.2031 Q1302.3438,530.8281 1301.7344,530.6094 Q1301.125,530.3906 1300.5,530.3906 Q1299.7344,530.3906 1299.0938,530.7188 Q1298.4688,531.0469 1297.9688,531.7969 Q1297.4844,532.5469 1297.4844,533.5781 L1297.4844,534.6719 Q1297.4844,535.9063 1298.375,536.7344 Q1299.2656,537.5469 1300.8594,537.5469 Q1301.7969,537.5469 1302.4531,537.2969 Q1302.8438,537.1406 1303.2656,536.7031 Q1303.5313,536.4375 1303.6719,536.3594 Q1303.8281,536.2813 1304.0313,536.2813 Q1304.3594,536.2813 1304.6094,536.5469 Q1304.875,536.7969 1304.875,537.1406 Q1304.875,537.4844 1304.5313,537.8906 Q1304.0313,538.4688 1303.2344,538.7969 Q1302.1563,539.25 1300.8594,539.25 Q1299.3438,539.25 1298.1406,538.625 Q1297.1563,538.125 1296.4688,537.0625 Q1295.7813,535.9844 1295.7813,534.7031 L1295.7813,533.5469 Q1295.7813,532.2188 1296.3906,531.0781 Q1297.0156,529.9219 1298.1094,529.3125 Q1299.2031,528.6875 1300.4375,528.6875 Q1301.1719,528.6875 1301.8125,528.8594 Q1302.4688,529.0156 1303.0156,529.375 Z " fill="#000000"/><text fill="#000000" font-family="sans-serif" font-size="14" lengthAdjust="spacing" textLength="129" x="1320.75" y="539.2285">CheckoutsController</text><line style="stroke:#181818;stroke-width:0.5;" x1="1236.5" x2="1501.5" y1="549.5" y2="549.5"/><line style="stroke:#181818;stroke-width:0.5;" x1="1236.5" x2="1501.5" y1="557.5" y2="557.5"/><ellipse cx="1246.5" cy="571.8047" fill="#84BE84" rx="3" ry="3" style="stroke:#038048;stroke-width:1.0;"/><text fill="#000000" font-family="sans-serif" font-size="14" lengthAdjust="spacing" textLength="112" x="1255.5" y="576.0332">getAllCheckouts()</text><ellipse cx="1246.5" cy="589.4141" fill="#84BE84" rx="3" ry="3" style="stroke:#038048;stroke-width:1.0;"/><text fill="#000000" font-family="sans-serif" font-size="14" lengthAdjust="spacing" textLength="172" x="1255.5" y="593.6426">createCheckout(body: any)</text><ellipse cx="1246.5" cy="607.0234" fill="#84BE84" rx="3" ry="3" style="stroke:#038048;stroke-width:1.0;"/><text fill="#000000" font-family="sans-serif" font-size="14" lengthAdjust="spacing" textLength="241" x="1255.5" y="611.252">getCheckoutById(checkoutId: number)</text></g><!--class ShoppingCartsController--><g id="elem_ShoppingCartsController"><rect codeLine="55" fill="#F1F1F1" height="136.0469" id="ShoppingCartsController" rx="2.5" ry="2.5" style="stroke:#181818;stroke-width:0.5;" width="363" x="1537.5" y="500"/><ellipse cx="1636.75" cy="516" fill="#ADD1B2" rx="11" ry="11" style="stroke:#181818;stroke-width:1.0;"/><path d="M1639.5156,511.875 Q1639.6719,511.6563 1639.8594,511.5469 Q1640.0469,511.4375 1640.2656,511.4375 Q1640.6406,511.4375 1640.875,511.7031 Q1641.1094,511.9531 1641.1094,512.5625 L1641.1094,514.0156 Q1641.1094,514.625 1640.875,514.8906 Q1640.6406,515.1563 1640.2656,515.1563 Q1639.9219,515.1563 1639.7188,514.9531 Q1639.5156,514.7656 1639.4063,514.25 Q1639.3594,513.8906 1639.1719,513.7031 Q1638.8438,513.3281 1638.2344,513.1094 Q1637.625,512.8906 1637,512.8906 Q1636.2344,512.8906 1635.5938,513.2188 Q1634.9688,513.5469 1634.4688,514.2969 Q1633.9844,515.0469 1633.9844,516.0781 L1633.9844,517.1719 Q1633.9844,518.4063 1634.875,519.2344 Q1635.7656,520.0469 1637.3594,520.0469 Q1638.2969,520.0469 1638.9531,519.7969 Q1639.3438,519.6406 1639.7656,519.2031 Q1640.0313,518.9375 1640.1719,518.8594 Q1640.3281,518.7813 1640.5313,518.7813 Q1640.8594,518.7813 1641.1094,519.0469 Q1641.375,519.2969 1641.375,519.6406 Q1641.375,519.9844 1641.0313,520.3906 Q1640.5313,520.9688 1639.7344,521.2969 Q1638.6563,521.75 1637.3594,521.75 Q1635.8438,521.75 1634.6406,521.125 Q1633.6563,520.625 1632.9688,519.5625 Q1632.2813,518.4844 1632.2813,517.2031 L1632.2813,516.0469 Q1632.2813,514.7188 1632.8906,513.5781 Q1633.5156,512.4219 1634.6094,511.8125 Q1635.7031,511.1875 1636.9375,511.1875 Q1637.6719,511.1875 1638.3125,511.3594 Q1638.9688,511.5156 1639.5156,511.875 Z " fill="#000000"/><text fill="#000000" font-family="sans-serif" font-size="14" lengthAdjust="spacing" textLength="156" x="1657.25" y="521.7285">ShoppingCartsController</text><line style="stroke:#181818;stroke-width:0.5;" x1="1538.5" x2="1899.5" y1="532" y2="532"/><line style="stroke:#181818;stroke-width:0.5;" x1="1538.5" x2="1899.5" y1="540" y2="540"/><ellipse cx="1548.5" cy="554.3047" fill="#84BE84" rx="3" ry="3" style="stroke:#038048;stroke-width:1.0;"/><text fill="#000000" font-family="sans-serif" font-size="14" lengthAdjust="spacing" textLength="139" x="1557.5" y="558.5332">getAllShoppingCarts()</text><ellipse cx="1548.5" cy="571.9141" fill="#84BE84" rx="3" ry="3" style="stroke:#038048;stroke-width:1.0;"/><text fill="#000000" font-family="sans-serif" font-size="14" lengthAdjust="spacing" textLength="199" x="1557.5" y="576.1426">createShoppingCart(body: any)</text><ellipse cx="1548.5" cy="589.5234" fill="#84BE84" rx="3" ry="3" style="stroke:#038048;stroke-width:1.0;"/><text fill="#000000" font-family="sans-serif" font-size="14" lengthAdjust="spacing" textLength="302" x="1557.5" y="593.752">updateShoppingCart(cartId: number, body: any)</text><ellipse cx="1548.5" cy="607.1328" fill="#84BE84" rx="3" ry="3" style="stroke:#038048;stroke-width:1.0;"/><text fill="#000000" font-family="sans-serif" font-size="14" lengthAdjust="spacing" textLength="337" x="1557.5" y="611.3613">getShoppingCartsByCustomerId(customerId: number)</text><ellipse cx="1548.5" cy="624.7422" fill="#84BE84" rx="3" ry="3" style="stroke:#038048;stroke-width:1.0;"/><text fill="#000000" font-family="sans-serif" font-size="14" lengthAdjust="spacing" textLength="319" x="1557.5" y="628.9707">addProductToCart(productsId: number, body: any)</text></g><!--class ContentNegotiation--><g id="elem_ContentNegotiation"><rect codeLine="65" fill="#F1F1F1" height="65.6094" id="ContentNegotiation" rx="2.5" ry="2.5" style="stroke:#181818;stroke-width:0.5;" width="385" x="584.5" y="68"/><ellipse cx="712.25" cy="84" fill="#ADD1B2" rx="11" ry="11" style="stroke:#181818;stroke-width:1.0;"/><path d="M715.0156,79.875 Q715.1719,79.6563 715.3594,79.5469 Q715.5469,79.4375 715.7656,79.4375 Q716.1406,79.4375 716.375,79.7031 Q716.6094,79.9531 716.6094,80.5625 L716.6094,82.0156 Q716.6094,82.625 716.375,82.8906 Q716.1406,83.1563 715.7656,83.1563 Q715.4219,83.1563 715.2188,82.9531 Q715.0156,82.7656 714.9063,82.25 Q714.8594,81.8906 714.6719,81.7031 Q714.3438,81.3281 713.7344,81.1094 Q713.125,80.8906 712.5,80.8906 Q711.7344,80.8906 711.0938,81.2188 Q710.4688,81.5469 709.9688,82.2969 Q709.4844,83.0469 709.4844,84.0781 L709.4844,85.1719 Q709.4844,86.4063 710.375,87.2344 Q711.2656,88.0469 712.8594,88.0469 Q713.7969,88.0469 714.4531,87.7969 Q714.8438,87.6406 715.2656,87.2031 Q715.5313,86.9375 715.6719,86.8594 Q715.8281,86.7813 716.0313,86.7813 Q716.3594,86.7813 716.6094,87.0469 Q716.875,87.2969 716.875,87.6406 Q716.875,87.9844 716.5313,88.3906 Q716.0313,88.9688 715.2344,89.2969 Q714.1563,89.75 712.8594,89.75 Q711.3438,89.75 710.1406,89.125 Q709.1563,88.625 708.4688,87.5625 Q707.7813,86.4844 707.7813,85.2031 L707.7813,84.0469 Q707.7813,82.7188 708.3906,81.5781 Q709.0156,80.4219 710.1094,79.8125 Q711.2031,79.1875 712.4375,79.1875 Q713.1719,79.1875 713.8125,79.3594 Q714.4688,79.5156 715.0156,79.875 Z " fill="#000000"/><text fill="#000000" font-family="sans-serif" font-size="14" lengthAdjust="spacing" textLength="121" x="732.75" y="89.7285">ContentNegotiation</text><line style="stroke:#181818;stroke-width:0.5;" x1="585.5" x2="968.5" y1="100" y2="100"/><line style="stroke:#181818;stroke-width:0.5;" x1="585.5" x2="968.5" y1="108" y2="108"/><ellipse cx="595.5" cy="122.3047" fill="#84BE84" rx="3" ry="3" style="stroke:#038048;stroke-width:1.0;"/><text fill="#000000" font-family="sans-serif" font-size="14" lengthAdjust="spacing" textLength="359" x="604.5" y="126.5332">handle(req: Request, res: Response, next: NextFunction)</text></g><!--class Logger--><g id="elem_Logger"><rect codeLine="69" fill="#F1F1F1" height="100.8281" id="Logger" rx="2.5" ry="2.5" style="stroke:#181818;stroke-width:0.5;" width="170" x="1005" y="50.5"/><ellipse cx="1063.25" cy="66.5" fill="#ADD1B2" rx="11" ry="11" style="stroke:#181818;stroke-width:1.0;"/><path d="M1066.0156,62.375 Q1066.1719,62.1563 1066.3594,62.0469 Q1066.5469,61.9375 1066.7656,61.9375 Q1067.1406,61.9375 1067.375,62.2031 Q1067.6094,62.4531 1067.6094,63.0625 L1067.6094,64.5156 Q1067.6094,65.125 1067.375,65.3906 Q1067.1406,65.6563 1066.7656,65.6563 Q1066.4219,65.6563 1066.2188,65.4531 Q1066.0156,65.2656 1065.9063,64.75 Q1065.8594,64.3906 1065.6719,64.2031 Q1065.3438,63.8281 1064.7344,63.6094 Q1064.125,63.3906 1063.5,63.3906 Q1062.7344,63.3906 1062.0938,63.7188 Q1061.4688,64.0469 1060.9688,64.7969 Q1060.4844,65.5469 1060.4844,66.5781 L1060.4844,67.6719 Q1060.4844,68.9063 1061.375,69.7344 Q1062.2656,70.5469 1063.8594,70.5469 Q1064.7969,70.5469 1065.4531,70.2969 Q1065.8438,70.1406 1066.2656,69.7031 Q1066.5313,69.4375 1066.6719,69.3594 Q1066.8281,69.2813 1067.0313,69.2813 Q1067.3594,69.2813 1067.6094,69.5469 Q1067.875,69.7969 1067.875,70.1406 Q1067.875,70.4844 1067.5313,70.8906 Q1067.0313,71.4688 1066.2344,71.7969 Q1065.1563,72.25 1063.8594,72.25 Q1062.3438,72.25 1061.1406,71.625 Q1060.1563,71.125 1059.4688,70.0625 Q1058.7813,68.9844 1058.7813,67.7031 L1058.7813,66.5469 Q1058.7813,65.2188 1059.3906,64.0781 Q1060.0156,62.9219 1061.1094,62.3125 Q1062.2031,61.6875 1063.4375,61.6875 Q1064.1719,61.6875 1064.8125,61.8594 Q1065.4688,62.0156 1066.0156,62.375 Z " fill="#000000"/><text fill="#000000" font-family="sans-serif" font-size="14" lengthAdjust="spacing" textLength="45" x="1083.75" y="72.2285">Logger</text><line style="stroke:#181818;stroke-width:0.5;" x1="1006" x2="1174" y1="82.5" y2="82.5"/><line style="stroke:#181818;stroke-width:0.5;" x1="1006" x2="1174" y1="90.5" y2="90.5"/><ellipse cx="1016" cy="104.8047" fill="#84BE84" rx="3" ry="3" style="stroke:#038048;stroke-width:1.0;"/><text fill="#000000" font-family="sans-serif" font-size="14" lengthAdjust="spacing" textLength="136" x="1025" y="109.0332">info(message: object)</text><ellipse cx="1016" cy="122.4141" fill="#84BE84" rx="3" ry="3" style="stroke:#038048;stroke-width:1.0;"/><text fill="#000000" font-family="sans-serif" font-size="14" lengthAdjust="spacing" textLength="144" x="1025" y="126.6426">error(message: object)</text><ellipse cx="1016" cy="140.0234" fill="#84BE84" rx="3" ry="3" style="stroke:#038048;stroke-width:1.0;"/><text fill="#000000" font-family="sans-serif" font-size="14" lengthAdjust="spacing" textLength="143" x="1025" y="144.252">warn(message: object)</text></g><!--class Metrics--><g id="elem_Metrics"><rect codeLine="75" fill="#F1F1F1" height="118.4375" id="Metrics" rx="2.5" ry="2.5" style="stroke:#181818;stroke-width:0.5;" width="401" x="1210.5" y="42"/><ellipse cx="1384.25" cy="58" fill="#ADD1B2" rx="11" ry="11" style="stroke:#181818;stroke-width:1.0;"/><path d="M1387.0156,53.875 Q1387.1719,53.6563 1387.3594,53.5469 Q1387.5469,53.4375 1387.7656,53.4375 Q1388.1406,53.4375 1388.375,53.7031 Q1388.6094,53.9531 1388.6094,54.5625 L1388.6094,56.0156 Q1388.6094,56.625 1388.375,56.8906 Q1388.1406,57.1563 1387.7656,57.1563 Q1387.4219,57.1563 1387.2188,56.9531 Q1387.0156,56.7656 1386.9063,56.25 Q1386.8594,55.8906 1386.6719,55.7031 Q1386.3438,55.3281 1385.7344,55.1094 Q1385.125,54.8906 1384.5,54.8906 Q1383.7344,54.8906 1383.0938,55.2188 Q1382.4688,55.5469 1381.9688,56.2969 Q1381.4844,57.0469 1381.4844,58.0781 L1381.4844,59.1719 Q1381.4844,60.4063 1382.375,61.2344 Q1383.2656,62.0469 1384.8594,62.0469 Q1385.7969,62.0469 1386.4531,61.7969 Q1386.8438,61.6406 1387.2656,61.2031 Q1387.5313,60.9375 1387.6719,60.8594 Q1387.8281,60.7813 1388.0313,60.7813 Q1388.3594,60.7813 1388.6094,61.0469 Q1388.875,61.2969 1388.875,61.6406 Q1388.875,61.9844 1388.5313,62.3906 Q1388.0313,62.9688 1387.2344,63.2969 Q1386.1563,63.75 1384.8594,63.75 Q1383.3438,63.75 1382.1406,63.125 Q1381.1563,62.625 1380.4688,61.5625 Q1379.7813,60.4844 1379.7813,59.2031 L1379.7813,58.0469 Q1379.7813,56.7188 1380.3906,55.5781 Q1381.0156,54.4219 1382.1094,53.8125 Q1383.2031,53.1875 1384.4375,53.1875 Q1385.1719,53.1875 1385.8125,53.3594 Q1386.4688,53.5156 1387.0156,53.875 Z " fill="#000000"/><text fill="#000000" font-family="sans-serif" font-size="14" lengthAdjust="spacing" textLength="45" x="1404.75" y="63.7285">Metrics</text><line style="stroke:#181818;stroke-width:0.5;" x1="1211.5" x2="1610.5" y1="74" y2="74"/><line style="stroke:#181818;stroke-width:0.5;" x1="1211.5" x2="1610.5" y1="82" y2="82"/><ellipse cx="1221.5" cy="96.3047" fill="#84BE84" rx="3" ry="3" style="stroke:#038048;stroke-width:1.0;"/><text fill="#000000" font-family="sans-serif" font-size="14" lengthAdjust="spacing" textLength="242" x="1230.5" y="100.5332">recordSaleRequest(success: boolean)</text><ellipse cx="1221.5" cy="113.9141" fill="#84BE84" rx="3" ry="3" style="stroke:#038048;stroke-width:1.0;"/><text fill="#000000" font-family="sans-serif" font-size="14" lengthAdjust="spacing" textLength="274" x="1230.5" y="118.1426">recordCheckoutRequest(success: boolean)</text><ellipse cx="1221.5" cy="131.5234" fill="#84BE84" rx="3" ry="3" style="stroke:#038048;stroke-width:1.0;"/><text fill="#000000" font-family="sans-serif" font-size="14" lengthAdjust="spacing" textLength="241" x="1230.5" y="135.752">recordCartRequest(success: boolean)</text><ellipse cx="1221.5" cy="149.1328" fill="#84BE84" rx="3" ry="3" style="stroke:#038048;stroke-width:1.0;"/><text fill="#000000" font-family="sans-serif" font-size="14" lengthAdjust="spacing" textLength="375" x="1230.5" y="153.3613">recordRequest(method: string, path: string, status: number)</text></g><!--class StaticTokenAuth--><g id="elem_StaticTokenAuth"><rect codeLine="82" fill="#F1F1F1" height="65.6094" id="StaticTokenAuth" rx="2.5" ry="2.5" style="stroke:#181818;stroke-width:0.5;" width="420" x="129" y="68"/><ellipse cx="282.75" cy="84" fill="#ADD1B2" rx="11" ry="11" style="stroke:#181818;stroke-width:1.0;"/><path d="M285.5156,79.875 Q285.6719,79.6563 285.8594,79.5469 Q286.0469,79.4375 286.2656,79.4375 Q286.6406,79.4375 286.875,79.7031 Q287.1094,79.9531 287.1094,80.5625 L287.1094,82.0156 Q287.1094,82.625 286.875,82.8906 Q286.6406,83.1563 286.2656,83.1563 Q285.9219,83.1563 285.7188,82.9531 Q285.5156,82.7656 285.4063,82.25 Q285.3594,81.8906 285.1719,81.7031 Q284.8438,81.3281 284.2344,81.1094 Q283.625,80.8906 283,80.8906 Q282.2344,80.8906 281.5938,81.2188 Q280.9688,81.5469 280.4688,82.2969 Q279.9844,83.0469 279.9844,84.0781 L279.9844,85.1719 Q279.9844,86.4063 280.875,87.2344 Q281.7656,88.0469 283.3594,88.0469 Q284.2969,88.0469 284.9531,87.7969 Q285.3438,87.6406 285.7656,87.2031 Q286.0313,86.9375 286.1719,86.8594 Q286.3281,86.7813 286.5313,86.7813 Q286.8594,86.7813 287.1094,87.0469 Q287.375,87.2969 287.375,87.6406 Q287.375,87.9844 287.0313,88.3906 Q286.5313,88.9688 285.7344,89.2969 Q284.6563,89.75 283.3594,89.75 Q281.8438,89.75 280.6406,89.125 Q279.6563,88.625 278.9688,87.5625 Q278.2813,86.4844 278.2813,85.2031 L278.2813,84.0469 Q278.2813,82.7188 278.8906,81.5781 Q279.5156,80.4219 280.6094,79.8125 Q281.7031,79.1875 282.9375,79.1875 Q283.6719,79.1875 284.3125,79.3594 Q284.9688,79.5156 285.5156,79.875 Z " fill="#000000"/><text fill="#000000" font-family="sans-serif" font-size="14" lengthAdjust="spacing" textLength="104" x="303.25" y="89.7285">StaticTokenAuth</text><line style="stroke:#181818;stroke-width:0.5;" x1="130" x2="548" y1="100" y2="100"/><line style="stroke:#181818;stroke-width:0.5;" x1="130" x2="548" y1="108" y2="108"/><ellipse cx="140" cy="122.3047" fill="#84BE84" rx="3" ry="3" style="stroke:#038048;stroke-width:1.0;"/><text fill="#000000" font-family="sans-serif" font-size="14" lengthAdjust="spacing" textLength="394" x="149" y="126.5332">authenticate(req: Request, res: Response, next: NextFunction)</text></g><!--class RedisClient--><g id="elem_RedisClient"><rect codeLine="86" fill="#F1F1F1" height="100.8281" id="RedisClient" rx="2.5" ry="2.5" style="stroke:#181818;stroke-width:0.5;" width="381" x="1646.5" y="50.5"/><ellipse cx="1796.75" cy="66.5" fill="#ADD1B2" rx="11" ry="11" style="stroke:#181818;stroke-width:1.0;"/><path d="M1799.5156,62.375 Q1799.6719,62.1563 1799.8594,62.0469 Q1800.0469,61.9375 1800.2656,61.9375 Q1800.6406,61.9375 1800.875,62.2031 Q1801.1094,62.4531 1801.1094,63.0625 L1801.1094,64.5156 Q1801.1094,65.125 1800.875,65.3906 Q1800.6406,65.6563 1800.2656,65.6563 Q1799.9219,65.6563 1799.7188,65.4531 Q1799.5156,65.2656 1799.4063,64.75 Q1799.3594,64.3906 1799.1719,64.2031 Q1798.8438,63.8281 1798.2344,63.6094 Q1797.625,63.3906 1797,63.3906 Q1796.2344,63.3906 1795.5938,63.7188 Q1794.9688,64.0469 1794.4688,64.7969 Q1793.9844,65.5469 1793.9844,66.5781 L1793.9844,67.6719 Q1793.9844,68.9063 1794.875,69.7344 Q1795.7656,70.5469 1797.3594,70.5469 Q1798.2969,70.5469 1798.9531,70.2969 Q1799.3438,70.1406 1799.7656,69.7031 Q1800.0313,69.4375 1800.1719,69.3594 Q1800.3281,69.2813 1800.5313,69.2813 Q1800.8594,69.2813 1801.1094,69.5469 Q1801.375,69.7969 1801.375,70.1406 Q1801.375,70.4844 1801.0313,70.8906 Q1800.5313,71.4688 1799.7344,71.7969 Q1798.6563,72.25 1797.3594,72.25 Q1795.8438,72.25 1794.6406,71.625 Q1793.6563,71.125 1792.9688,70.0625 Q1792.2813,68.9844 1792.2813,67.7031 L1792.2813,66.5469 Q1792.2813,65.2188 1792.8906,64.0781 Q1793.5156,62.9219 1794.6094,62.3125 Q1795.7031,61.6875 1796.9375,61.6875 Q1797.6719,61.6875 1798.3125,61.8594 Q1798.9688,62.0156 1799.5156,62.375 Z " fill="#000000"/><text fill="#000000" font-family="sans-serif" font-size="14" lengthAdjust="spacing" textLength="72" x="1817.25" y="72.2285">RedisClient</text><line style="stroke:#181818;stroke-width:0.5;" x1="1647.5" x2="2026.5" y1="82.5" y2="82.5"/><line style="stroke:#181818;stroke-width:0.5;" x1="1647.5" x2="2026.5" y1="90.5" y2="90.5"/><ellipse cx="1657.5" cy="104.8047" fill="#84BE84" rx="3" ry="3" style="stroke:#038048;stroke-width:1.0;"/><text fill="#000000" font-family="sans-serif" font-size="14" lengthAdjust="spacing" textLength="238" x="1666.5" y="109.0332">get(key: string): Promise&lt;string | null&gt;</text><ellipse cx="1657.5" cy="122.4141" fill="#84BE84" rx="3" ry="3" style="stroke:#038048;stroke-width:1.0;"/><text fill="#000000" font-family="sans-serif" font-size="14" lengthAdjust="spacing" textLength="355" x="1666.5" y="126.6426">set(key: string, value: string, ttl: number): Promise&lt;void&gt;</text><ellipse cx="1657.5" cy="140.0234" fill="#84BE84" rx="3" ry="3" style="stroke:#038048;stroke-width:1.0;"/><text fill="#000000" font-family="sans-serif" font-size="14" lengthAdjust="spacing" textLength="195" x="1666.5" y="144.252">del(key: string): Promise&lt;void&gt;</text></g><!--class SalesRouter--><g id="elem_SalesRouter"><rect codeLine="94" fill="#F1F1F1" height="100.8281" id="SalesRouter" rx="2.5" ry="2.5" style="stroke:#181818;stroke-width:0.5;" width="289" x="22.5" y="279.5"/><ellipse cx="123.75" cy="295.5" fill="#ADD1B2" rx="11" ry="11" style="stroke:#181818;stroke-width:1.0;"/><path d="M126.5156,291.375 Q126.6719,291.1563 126.8594,291.0469 Q127.0469,290.9375 127.2656,290.9375 Q127.6406,290.9375 127.875,291.2031 Q128.1094,291.4531 128.1094,292.0625 L128.1094,293.5156 Q128.1094,294.125 127.875,294.3906 Q127.6406,294.6563 127.2656,294.6563 Q126.9219,294.6563 126.7188,294.4531 Q126.5156,294.2656 126.4063,293.75 Q126.3594,293.3906 126.1719,293.2031 Q125.8438,292.8281 125.2344,292.6094 Q124.625,292.3906 124,292.3906 Q123.2344,292.3906 122.5938,292.7188 Q121.9688,293.0469 121.4688,293.7969 Q120.9844,294.5469 120.9844,295.5781 L120.9844,296.6719 Q120.9844,297.9063 121.875,298.7344 Q122.7656,299.5469 124.3594,299.5469 Q125.2969,299.5469 125.9531,299.2969 Q126.3438,299.1406 126.7656,298.7031 Q127.0313,298.4375 127.1719,298.3594 Q127.3281,298.2813 127.5313,298.2813 Q127.8594,298.2813 128.1094,298.5469 Q128.375,298.7969 128.375,299.1406 Q128.375,299.4844 128.0313,299.8906 Q127.5313,300.4688 126.7344,300.7969 Q125.6563,301.25 124.3594,301.25 Q122.8438,301.25 121.6406,300.625 Q120.6563,300.125 119.9688,299.0625 Q119.2813,297.9844 119.2813,296.7031 L119.2813,295.5469 Q119.2813,294.2188 119.8906,293.0781 Q120.5156,291.9219 121.6094,291.3125 Q122.7031,290.6875 123.9375,290.6875 Q124.6719,290.6875 125.3125,290.8594 Q125.9688,291.0156 126.5156,291.375 Z " fill="#000000"/><text fill="#000000" font-family="sans-serif" font-size="14" lengthAdjust="spacing" textLength="78" x="144.25" y="301.2285">SalesRouter</text><line style="stroke:#181818;stroke-width:0.5;" x1="23.5" x2="310.5" y1="311.5" y2="311.5"/><ellipse cx="33.5" cy="325.8047" fill="none" rx="3" ry="3" style="stroke:#038048;stroke-width:1.0;"/><text fill="#000000" font-family="sans-serif" font-size="14" lengthAdjust="spacing" textLength="112" x="42.5" y="330.0332">GET /api/v1/sales</text><ellipse cx="33.5" cy="343.4141" fill="none" rx="3" ry="3" style="stroke:#038048;stroke-width:1.0;"/><text fill="#000000" font-family="sans-serif" font-size="14" lengthAdjust="spacing" textLength="212" x="42.5" y="347.6426">GET /api/v1/stores/{storeId}/sales</text><ellipse cx="33.5" cy="361.0234" fill="none" rx="3" ry="3" style="stroke:#038048;stroke-width:1.0;"/><text fill="#000000" font-family="sans-serif" font-size="14" lengthAdjust="spacing" textLength="263" x="42.5" y="365.252">GET /api/v1/stores/{storeId}/sales/{saleId}</text><line style="stroke:#181818;stroke-width:0.5;" x1="23.5" x2="310.5" y1="372.3281" y2="372.3281"/></g><!--class CheckoutRouter--><g id="elem_CheckoutRouter"><rect codeLine="100" fill="#F1F1F1" height="100.8281" id="CheckoutRouter" rx="2.5" ry="2.5" style="stroke:#181818;stroke-width:0.5;" width="251" x="346.5" y="279.5"/><ellipse cx="416.25" cy="295.5" fill="#ADD1B2" rx="11" ry="11" style="stroke:#181818;stroke-width:1.0;"/><path d="M419.0156,291.375 Q419.1719,291.1563 419.3594,291.0469 Q419.5469,290.9375 419.7656,290.9375 Q420.1406,290.9375 420.375,291.2031 Q420.6094,291.4531 420.6094,292.0625 L420.6094,293.5156 Q420.6094,294.125 420.375,294.3906 Q420.1406,294.6563 419.7656,294.6563 Q419.4219,294.6563 419.2188,294.4531 Q419.0156,294.2656 418.9063,293.75 Q418.8594,293.3906 418.6719,293.2031 Q418.3438,292.8281 417.7344,292.6094 Q417.125,292.3906 416.5,292.3906 Q415.7344,292.3906 415.0938,292.7188 Q414.4688,293.0469 413.9688,293.7969 Q413.4844,294.5469 413.4844,295.5781 L413.4844,296.6719 Q413.4844,297.9063 414.375,298.7344 Q415.2656,299.5469 416.8594,299.5469 Q417.7969,299.5469 418.4531,299.2969 Q418.8438,299.1406 419.2656,298.7031 Q419.5313,298.4375 419.6719,298.3594 Q419.8281,298.2813 420.0313,298.2813 Q420.3594,298.2813 420.6094,298.5469 Q420.875,298.7969 420.875,299.1406 Q420.875,299.4844 420.5313,299.8906 Q420.0313,300.4688 419.2344,300.7969 Q418.1563,301.25 416.8594,301.25 Q415.3438,301.25 414.1406,300.625 Q413.1563,300.125 412.4688,299.0625 Q411.7813,297.9844 411.7813,296.7031 L411.7813,295.5469 Q411.7813,294.2188 412.3906,293.0781 Q413.0156,291.9219 414.1094,291.3125 Q415.2031,290.6875 416.4375,290.6875 Q417.1719,290.6875 417.8125,290.8594 Q418.4688,291.0156 419.0156,291.375 Z " fill="#000000"/><text fill="#000000" font-family="sans-serif" font-size="14" lengthAdjust="spacing" textLength="103" x="436.75" y="301.2285">CheckoutRouter</text><line style="stroke:#181818;stroke-width:0.5;" x1="347.5" x2="596.5" y1="311.5" y2="311.5"/><ellipse cx="357.5" cy="325.8047" fill="none" rx="3" ry="3" style="stroke:#038048;stroke-width:1.0;"/><text fill="#000000" font-family="sans-serif" font-size="14" lengthAdjust="spacing" textLength="143" x="366.5" y="330.0332">GET /api/v1/checkouts</text><ellipse cx="357.5" cy="343.4141" fill="none" rx="3" ry="3" style="stroke:#038048;stroke-width:1.0;"/><text fill="#000000" font-family="sans-serif" font-size="14" lengthAdjust="spacing" textLength="152" x="366.5" y="347.6426">POST /api/v1/checkouts</text><ellipse cx="357.5" cy="361.0234" fill="none" rx="3" ry="3" style="stroke:#038048;stroke-width:1.0;"/><text fill="#000000" font-family="sans-serif" font-size="14" lengthAdjust="spacing" textLength="225" x="366.5" y="365.252">GET /api/v1/checkouts/{checkoutId}</text><line style="stroke:#181818;stroke-width:0.5;" x1="347.5" x2="596.5" y1="372.3281" y2="372.3281"/></g><!--class ShoppingCartsRouter--><g id="elem_ShoppingCartsRouter"><rect codeLine="106" fill="#F1F1F1" height="136.0469" id="ShoppingCartsRouter" rx="2.5" ry="2.5" style="stroke:#181818;stroke-width:0.5;" width="351" x="632.5" y="262"/><ellipse cx="735.25" cy="278" fill="#ADD1B2" rx="11" ry="11" style="stroke:#181818;stroke-width:1.0;"/><path d="M738.0156,273.875 Q738.1719,273.6563 738.3594,273.5469 Q738.5469,273.4375 738.7656,273.4375 Q739.1406,273.4375 739.375,273.7031 Q739.6094,273.9531 739.6094,274.5625 L739.6094,276.0156 Q739.6094,276.625 739.375,276.8906 Q739.1406,277.1563 738.7656,277.1563 Q738.4219,277.1563 738.2188,276.9531 Q738.0156,276.7656 737.9063,276.25 Q737.8594,275.8906 737.6719,275.7031 Q737.3438,275.3281 736.7344,275.1094 Q736.125,274.8906 735.5,274.8906 Q734.7344,274.8906 734.0938,275.2188 Q733.4688,275.5469 732.9688,276.2969 Q732.4844,277.0469 732.4844,278.0781 L732.4844,279.1719 Q732.4844,280.4063 733.375,281.2344 Q734.2656,282.0469 735.8594,282.0469 Q736.7969,282.0469 737.4531,281.7969 Q737.8438,281.6406 738.2656,281.2031 Q738.5313,280.9375 738.6719,280.8594 Q738.8281,280.7813 739.0313,280.7813 Q739.3594,280.7813 739.6094,281.0469 Q739.875,281.2969 739.875,281.6406 Q739.875,281.9844 739.5313,282.3906 Q739.0313,282.9688 738.2344,283.2969 Q737.1563,283.75 735.8594,283.75 Q734.3438,283.75 733.1406,283.125 Q732.1563,282.625 731.4688,281.5625 Q730.7813,280.4844 730.7813,279.2031 L730.7813,278.0469 Q730.7813,276.7188 731.3906,275.5781 Q732.0156,274.4219 733.1094,273.8125 Q734.2031,273.1875 735.4375,273.1875 Q736.1719,273.1875 736.8125,273.3594 Q737.4688,273.5156 738.0156,273.875 Z " fill="#000000"/><text fill="#000000" font-family="sans-serif" font-size="14" lengthAdjust="spacing" textLength="137" x="755.75" y="283.7285">ShoppingCartsRouter</text><line style="stroke:#181818;stroke-width:0.5;" x1="633.5" x2="982.5" y1="294" y2="294"/><ellipse cx="643.5" cy="308.3047" fill="none" rx="3" ry="3" style="stroke:#038048;stroke-width:1.0;"/><text fill="#000000" font-family="sans-serif" font-size="14" lengthAdjust="spacing" textLength="173" x="652.5" y="312.5332">GET /api/v1/shopping-carts</text><ellipse cx="643.5" cy="325.9141" fill="none" rx="3" ry="3" style="stroke:#038048;stroke-width:1.0;"/><text fill="#000000" font-family="sans-serif" font-size="14" lengthAdjust="spacing" textLength="182" x="652.5" y="330.1426">POST /api/v1/shopping-carts</text><ellipse cx="643.5" cy="343.5234" fill="none" rx="3" ry="3" style="stroke:#038048;stroke-width:1.0;"/><text fill="#000000" font-family="sans-serif" font-size="14" lengthAdjust="spacing" textLength="220" x="652.5" y="347.752">PUT /api/v1/shopping-carts/{cartId}</text><ellipse cx="643.5" cy="361.1328" fill="none" rx="3" ry="3" style="stroke:#038048;stroke-width:1.0;"/><text fill="#000000" font-family="sans-serif" font-size="14" lengthAdjust="spacing" textLength="325" x="652.5" y="365.3613">GET /api/v1/customers/{customerId}/shopping-carts</text><ellipse cx="643.5" cy="378.7422" fill="none" rx="3" ry="3" style="stroke:#038048;stroke-width:1.0;"/><text fill="#000000" font-family="sans-serif" font-size="14" lengthAdjust="spacing" textLength="262" x="652.5" y="382.9707">POST /api/v1/shopping-carts/{productsId}</text><line style="stroke:#181818;stroke-width:0.5;" x1="633.5" x2="982.5" y1="390.0469" y2="390.0469"/></g><!--link Sale to SaleItem--><g id="link_Sale_SaleItem"><path codeLine="116" d="M1119.42,865.21 C1115.88,883.58 1114.76,903.82 1120,922 C1122.92,932.13 1124.4788,936.8983 1129.4988,946.5383 " fill="none" id="Sale-to-SaleItem" style="stroke:#181818;stroke-width:1.0;"/><polygon fill="#181818" points="1132.27,951.86,1131.6609,942.03,1129.9606,947.4253,1124.5654,945.725,1132.27,951.86" style="stroke:#181818;stroke-width:1.0;"/><text fill="#000000" font-family="sans-serif" font-size="13" lengthAdjust="spacing" textLength="49" x="1121" y="918.4951">contains</text></g><!--link SaleItem to Sale--><g id="link_SaleItem_Sale"><path codeLine="117" d="M1180.93,951.97 C1179.97,936.13 1178.18,919.37 1175,904 C1172.35,891.16 1170.2821,883.4061 1165.8221,870.8061 " fill="none" id="SaleItem-to-Sale" style="stroke:#181818;stroke-width:1.0;"/><polygon fill="#181818" points="1163.82,865.15,1163.0524,874.9689,1165.4884,869.8634,1170.5939,872.2995,1163.82,865.15" style="stroke:#181818;stroke-width:1.0;"/><text fill="#000000" font-family="sans-serif" font-size="13" lengthAdjust="spacing" textLength="60" x="1178" y="918.4951">belongs to</text></g><!--link ShoppingCart to ShoppingCartProduct--><g id="link_ShoppingCart_ShoppingCartProduct"><path codeLine="118" d="M1523.21,874.29 C1517.37,889.82 1515.23,906.38 1521,922 C1526.11,935.83 1530.5174,944.2423 1539.6474,956.1923 " fill="none" id="ShoppingCart-to-ShoppingCartProduct" style="stroke:#181818;stroke-width:1.0;"/><polygon fill="#181818" points="1543.29,960.96,1541.0045,951.38,1540.2545,956.9869,1534.6476,956.2368,1543.29,960.96" style="stroke:#181818;stroke-width:1.0;"/><text fill="#000000" font-family="sans-serif" font-size="13" lengthAdjust="spacing" textLength="49" x="1522" y="918.4951">contains</text></g><!--link ShoppingCartProduct to ShoppingCart--><g id="link_ShoppingCartProduct_ShoppingCart"><path codeLine="119" d="M1594.96,960.93 C1590.78,934.06 1586.7022,907.9087 1582.3622,880.0087 " fill="none" id="ShoppingCartProduct-to-ShoppingCart" style="stroke:#181818;stroke-width:1.0;"/><polygon fill="#181818" points="1581.44,874.08,1578.8709,883.5879,1582.2085,879.0206,1586.7758,882.3582,1581.44,874.08" style="stroke:#181818;stroke-width:1.0;"/><text fill="#000000" font-family="sans-serif" font-size="13" lengthAdjust="spacing" textLength="60" x="1589" y="918.4951">belongs to</text></g><!--link SalesController to Sale--><g id="link_SalesController_Sale"><path codeLine="121" d="M1064.82,618.76 C1079.74,656.22 1098.0105,702.0856 1113.6705,741.4156 " fill="none" id="SalesController-to-Sale" style="stroke:#181818;stroke-width:1.0;"/><polygon fill="#181818" points="1115.89,746.99,1116.2769,737.1487,1114.0404,742.3447,1108.8444,740.1081,1115.89,746.99" style="stroke:#181818;stroke-width:1.0;"/><text fill="#000000" font-family="sans-serif" font-size="13" lengthAdjust="spacing" textLength="53" x="1090" y="682.4951">manages</text></g><!--link CheckoutsController to Checkout--><g id="link_CheckoutsController_Checkout"><path codeLine="122" d="M1360.78,618.76 C1355.06,653.38 1348.3375,694.0202 1342.0775,731.9302 " fill="none" id="CheckoutsController-to-Checkout" style="stroke:#181818;stroke-width:1.0;"/><polygon fill="#181818" points="1341.1,737.85,1346.5129,729.6219,1341.9146,732.9168,1338.6197,728.3186,1341.1,737.85" style="stroke:#181818;stroke-width:1.0;"/><text fill="#000000" font-family="sans-serif" font-size="13" lengthAdjust="spacing" textLength="53" x="1352" y="682.4951">manages</text></g><!--link ShoppingCartsController to ShoppingCart--><g id="link_ShoppingCartsController_ShoppingCart"><path codeLine="123" d="M1676.79,636.31 C1656.88,668.06 1636.3669,700.7563 1616.4569,732.5163 " fill="none" id="ShoppingCartsController-to-ShoppingCart" style="stroke:#181818;stroke-width:1.0;"/><polygon fill="#181818" points="1613.27,737.6,1621.4395,732.0991,1615.9257,733.3636,1614.6612,727.8499,1613.27,737.6" style="stroke:#181818;stroke-width:1.0;"/><text fill="#000000" font-family="sans-serif" font-size="13" lengthAdjust="spacing" textLength="53" x="1654" y="682.4951">manages</text></g><!--link ShoppingCartsController to ShoppingCartProduct--><g id="link_ShoppingCartsController_ShoppingCartProduct"><path codeLine="124" d="M1726.63,636.19 C1731.34,699.39 1732.11,795.74 1705,874 C1694.21,905.16 1678.3081,930.9488 1659.2681,955.9188 " fill="none" id="ShoppingCartsController-to-ShoppingCartProduct" style="stroke:#181818;stroke-width:1.0;"/><polygon fill="#181818" points="1655.63,960.69,1664.2679,955.9586,1658.6618,956.714,1657.9064,951.1078,1655.63,960.69" style="stroke:#181818;stroke-width:1.0;"/><text fill="#000000" font-family="sans-serif" font-size="13" lengthAdjust="spacing" textLength="53" x="1730" y="811.4951">manages</text></g><!--link SalesRouter to SalesController--><g id="link_SalesRouter_SalesController"><path codeLine="126" d="M243.72,380.57 C269.93,395.72 299.97,411.21 329,422 C515.2,491.2 735.6327,529.2066 883.3127,548.9066 " fill="none" id="SalesRouter-to-SalesController" style="stroke:#181818;stroke-width:1.0;"/><polygon fill="#181818" points="889.26,549.7,880.8679,544.5451,884.3039,549.0389,879.8101,552.4749,889.26,549.7" style="stroke:#181818;stroke-width:1.0;"/><text fill="#000000" font-family="sans-serif" font-size="13" lengthAdjust="spacing" textLength="51" x="405" y="444.4951">routes to</text></g><!--link CheckoutRouter to CheckoutsController--><g id="link_CheckoutRouter_CheckoutsController"><path codeLine="127" d="M534.67,380.66 C558.48,396.8 586.71,412.89 615,422 C870.51,504.28 965.4,365.19 1218,456 C1254.74,469.21 1285.6358,490.5489 1312.9558,513.6189 " fill="none" id="CheckoutRouter-to-CheckoutsController" style="stroke:#181818;stroke-width:1.0;"/><polygon fill="#181818" points="1317.54,517.49,1313.2444,508.6273,1313.7198,514.2641,1308.083,514.7395,1317.54,517.49" style="stroke:#181818;stroke-width:1.0;"/><text fill="#000000" font-family="sans-serif" font-size="13" lengthAdjust="spacing" textLength="51" x="1189" y="444.4951">routes to</text></g><!--link ShoppingCartsRouter to ShoppingCartsController--><g id="link_ShoppingCartsRouter_ShoppingCartsController"><path codeLine="128" d="M937.82,398.04 C961.61,407.75 986.64,416.36 1011,422 C1062.56,433.94 1196.19,426.58 1249,430 C1369.74,437.81 1404.49,419.99 1520,456 C1553.33,466.39 1582.1035,479.8632 1612.3435,496.9132 " fill="none" id="ShoppingCartsRouter-to-ShoppingCartsController" style="stroke:#181818;stroke-width:1.0;"/><polygon fill="#181818" points="1617.57,499.86,1611.6948,491.9554,1613.2146,497.4043,1607.7657,498.9241,1617.57,499.86" style="stroke:#181818;stroke-width:1.0;"/><text fill="#000000" font-family="sans-serif" font-size="13" lengthAdjust="spacing" textLength="51" x="1488" y="444.4951">routes to</text></g><!--link ContentNegotiation to SalesRouter--><g id="link_ContentNegotiation_SalesRouter"><path codeLine="130" d="M709.21,134.08 C668.59,151.84 615.39,172.57 566,184 C524.72,193.55 511.91,180.98 471,192 C452.96,196.86 451.06,205.2 433,210 C388.19,221.9 372.72,202.59 329,218 C290.73,231.48 257.7784,252.7293 228.3884,275.5593 " fill="none" id="ContentNegotiation-to-SalesRouter" style="stroke:#181818;stroke-width:1.0;"/><polygon fill="#181818" points="223.65,279.24,233.2114,276.8778,227.5986,276.1727,228.3037,270.56,223.65,279.24" style="stroke:#181818;stroke-width:1.0;"/><text fill="#000000" font-family="sans-serif" font-size="13" lengthAdjust="spacing" textLength="60" x="472" y="206.4951">processes</text></g><!--link ContentNegotiation to CheckoutRouter--><g id="link_ContentNegotiation_CheckoutRouter"><path codeLine="131" d="M752.62,134.13 C731.88,159.01 699.83,192.15 664,210 C644.25,219.84 635.23,209.18 615,218 C581.29,232.69 553.0543,253.2106 527.4143,275.4306 " fill="none" id="ContentNegotiation-to-CheckoutRouter" style="stroke:#181818;stroke-width:1.0;"/><polygon fill="#181818" points="522.88,279.36,532.301,276.4887,526.6585,276.0855,527.0617,270.443,522.88,279.36" style="stroke:#181818;stroke-width:1.0;"/><text fill="#000000" font-family="sans-serif" font-size="13" lengthAdjust="spacing" textLength="60" x="694" y="206.4951">processes</text></g><!--link ContentNegotiation to ShoppingCartsRouter--><g id="link_ContentNegotiation_ShoppingCartsRouter"><path codeLine="132" d="M781.38,134.04 C785.88,167.04 792.228,213.5052 797.988,255.6752 " fill="none" id="ContentNegotiation-to-ShoppingCartsRouter" style="stroke:#181818;stroke-width:1.0;"/><polygon fill="#181818" points="798.8,261.62,801.5452,252.1615,798.1233,256.666,793.6188,253.2441,798.8,261.62" style="stroke:#181818;stroke-width:1.0;"/><text fill="#000000" font-family="sans-serif" font-size="13" lengthAdjust="spacing" textLength="60" x="793" y="206.4951">processes</text></g><!--link Logger to SalesController--><g id="link_Logger_SalesController"><path codeLine="134" d="M1085.18,151.76 C1076.53,241.15 1059.0374,421.8978 1050.3974,511.2678 " fill="none" id="Logger-to-SalesController" style="stroke:#181818;stroke-width:1.0;"/><polygon fill="#181818" points="1049.82,517.24,1054.6675,508.6667,1050.3011,512.2632,1046.7046,507.8969,1049.82,517.24" style="stroke:#181818;stroke-width:1.0;"/><text fill="#000000" font-family="sans-serif" font-size="13" lengthAdjust="spacing" textLength="24" x="1079" y="335.4951">logs</text></g><!--link Logger to CheckoutsController--><g id="link_Logger_CheckoutsController"><path codeLine="135" d="M1149.83,151.5 C1170.66,170.77 1193.03,193.98 1210,218 C1278.66,315.21 1327.0212,441.1419 1351.1212,511.7219 " fill="none" id="Logger-to-CheckoutsController" style="stroke:#181818;stroke-width:1.0;"/><polygon fill="#181818" points="1353.06,517.4,1353.9372,507.5903,1351.4443,512.6682,1346.3664,510.1754,1353.06,517.4" style="stroke:#181818;stroke-width:1.0;"/><text fill="#000000" font-family="sans-serif" font-size="13" lengthAdjust="spacing" textLength="24" x="1317" y="335.4951">logs</text></g><!--link Logger to ShoppingCartsController--><g id="link_Logger_ShoppingCartsController"><path codeLine="136" d="M1140.49,151.65 C1156.15,164.29 1174.24,176.42 1193,184 C1266.48,213.68 1484.33,170.81 1548,218 C1626.77,276.39 1587.99,334.38 1632,422 C1645.11,448.1 1658.0422,470.6997 1672.7822,494.8297 " fill="none" id="Logger-to-ShoppingCartsController" style="stroke:#181818;stroke-width:1.0;"/><polygon fill="#181818" points="1675.91,499.95,1674.6319,490.1844,1673.3035,495.6831,1667.8049,494.3548,1675.91,499.95" style="stroke:#181818;stroke-width:1.0;"/><text fill="#000000" font-family="sans-serif" font-size="13" lengthAdjust="spacing" textLength="24" x="1633" y="335.4951">logs</text></g><!--link Metrics to SalesController--><g id="link_Metrics_SalesController"><path codeLine="138" d="M1248.52,160.04 C1204.36,178.82 1164.64,199.55 1150,218 C1092.62,290.31 1138.99,334.04 1111,422 C1100.6,454.68 1087.4442,484.339 1073.9042,511.789 " fill="none" id="Metrics-to-SalesController" style="stroke:#181818;stroke-width:1.0;"/><polygon fill="#181818" points="1071.25,517.17,1078.8187,510.868,1073.4619,512.6858,1071.644,507.329,1071.25,517.17" style="stroke:#181818;stroke-width:1.0;"/><text fill="#000000" font-family="sans-serif" font-size="13" lengthAdjust="spacing" textLength="50" x="1151" y="335.4951">monitors</text></g><!--link Metrics to CheckoutsController--><g id="link_Metrics_CheckoutsController"><path codeLine="139" d="M1405.72,160.42 C1397.38,252.75 1381.8499,424.7843 1374.0299,511.3443 " fill="none" id="Metrics-to-CheckoutsController" style="stroke:#181818;stroke-width:1.0;"/><polygon fill="#181818" points="1373.49,517.32,1378.2836,508.7164,1373.9399,512.3403,1370.316,507.9966,1373.49,517.32" style="stroke:#181818;stroke-width:1.0;"/><text fill="#000000" font-family="sans-serif" font-size="13" lengthAdjust="spacing" textLength="50" x="1401" y="335.4951">monitors</text></g><!--link Metrics to ShoppingCartsController--><g id="link_Metrics_ShoppingCartsController"><path codeLine="140" d="M1565.65,160.06 C1608.11,176.27 1643.17,190.04 1645,192 C1723,275.55 1729.833,410.4472 1725.763,493.6872 " fill="none" id="Metrics-to-ShoppingCartsController" style="stroke:#181818;stroke-width:1.0;"/><polygon fill="#181818" points="1725.47,499.68,1729.9048,490.8861,1725.7142,494.686,1721.9143,490.4954,1725.47,499.68" style="stroke:#181818;stroke-width:1.0;"/><text fill="#000000" font-family="sans-serif" font-size="13" lengthAdjust="spacing" textLength="50" x="1726" y="335.4951">monitors</text></g><!--link StaticTokenAuth to SalesRouter--><g id="link_StaticTokenAuth_SalesRouter"><path codeLine="142" d="M306.4,134.07 C290.19,150.71 270.74,171.75 255,192 C233.48,219.67 215.2825,247.5565 199.0225,274.2365 " fill="none" id="StaticTokenAuth-to-SalesRouter" style="stroke:#181818;stroke-width:1.0;"/><polygon fill="#181818" points="195.9,279.36,203.9994,273.7564,198.5021,275.0904,197.1681,269.5931,195.9,279.36" style="stroke:#181818;stroke-width:1.0;"/><text fill="#000000" font-family="sans-serif" font-size="13" lengthAdjust="spacing" textLength="78" x="256" y="206.4951">authenticates</text></g><!--link StaticTokenAuth to CheckoutRouter--><g id="link_StaticTokenAuth_CheckoutRouter"><path codeLine="143" d="M336.27,134.27 C335.71,156.59 337.68,186.4 349,210 C361.65,236.39 378.3287,256.0668 399.5387,275.2368 " fill="none" id="StaticTokenAuth-to-CheckoutRouter" style="stroke:#181818;stroke-width:1.0;"/><polygon fill="#181818" points="403.99,279.26,399.9952,270.2577,400.2806,275.9074,394.6309,276.1928,403.99,279.26" style="stroke:#181818;stroke-width:1.0;"/><text fill="#000000" font-family="sans-serif" font-size="13" lengthAdjust="spacing" textLength="78" x="350" y="206.4951">authenticates</text></g><!--link StaticTokenAuth to ShoppingCartsRouter--><g id="link_StaticTokenAuth_ShoppingCartsRouter"><path codeLine="144" d="M413.81,134.14 C452.08,150.89 499.28,172 541,192 C556.77,199.56 559.5,204.19 576,210 C592.69,215.88 598.45,211.73 615,218 C645.54,229.57 671.7455,242.6145 700.1255,258.8945 " fill="none" id="StaticTokenAuth-to-ShoppingCartsRouter" style="stroke:#181818;stroke-width:1.0;"/><polygon fill="#181818" points="705.33,261.88,699.5136,253.9321,700.9929,259.3921,695.5329,260.8714,705.33,261.88" style="stroke:#181818;stroke-width:1.0;"/><text fill="#000000" font-family="sans-serif" font-size="13" lengthAdjust="spacing" textLength="78" x="577" y="206.4951">authenticates</text></g><!--link RedisClient to SalesController--><g id="link_RedisClient_SalesController"><path codeLine="146" d="M1718.86,151.53 C1689.74,162.92 1658.45,174.47 1629,184 C1570.95,202.78 1537.8,173.55 1496,218 C1432.76,285.24 1523.81,358.3 1457,422 C1418.17,459.02 1268.28,437.31 1218,456 C1178.86,470.55 1144.2634,491.5081 1112.9034,513.7581 " fill="none" id="RedisClient-to-SalesController" style="stroke:#181818;stroke-width:1.0;"/><polygon fill="#181818" points="1108.01,517.23,1117.6648,515.2844,1112.0879,514.3367,1113.0356,508.7598,1108.01,517.23" style="stroke:#181818;stroke-width:1.0;"/><text fill="#000000" font-family="sans-serif" font-size="13" lengthAdjust="spacing" textLength="42" x="1497" y="335.4951">caches</text></g><!--link RedisClient to CheckoutsController--><g id="link_RedisClient_CheckoutsController"><path codeLine="147" d="M1835.94,151.56 C1833.11,231.94 1822.78,385.47 1785,422 C1742.32,463.27 1575.12,433.94 1520,456 C1484.36,470.27 1454.117,491.1502 1426.887,513.6302 " fill="none" id="RedisClient-to-CheckoutsController" style="stroke:#181818;stroke-width:1.0;"/><polygon fill="#181818" points="1422.26,517.45,1431.747,514.8049,1426.1158,514.2668,1426.6539,508.6356,1422.26,517.45" style="stroke:#181818;stroke-width:1.0;"/><text fill="#000000" font-family="sans-serif" font-size="13" lengthAdjust="spacing" textLength="42" x="1833" y="335.4951">caches</text></g><!--link RedisClient to ShoppingCartsController--><g id="link_RedisClient_ShoppingCartsController"><path codeLine="148" d="M1864.74,151.53 C1874.44,171.53 1884.13,195.23 1889,218 C1907.96,306.66 1923.7,338.23 1889,422 C1876.46,452.28 1858.2231,474.4624 1833.3231,495.8324 " fill="none" id="RedisClient-to-ShoppingCartsController" style="stroke:#181818;stroke-width:1.0;"/><polygon fill="#181818" points="1828.77,499.74,1838.2047,496.914,1832.5642,496.4837,1832.9946,490.8432,1828.77,499.74" style="stroke:#181818;stroke-width:1.0;"/><text fill="#000000" font-family="sans-serif" font-size="13" lengthAdjust="spacing" textLength="42" x="1910" y="335.4951">caches</text></g><!--SRC=[hLRTRzCm47_FNs7nGYSwLRn620dAXoQnWRRnX53bEKThvjYPxGogqV-TSveqTdffsSGUfiRtkxlVVTeL5xTy2UpP5LVWs1NOUoc0lTTUUWdk6Nl86Fu9nHrA4TCUXByNJ1OvqtLv0pOwTDvOM92YWdl84M2bNiPcF9GkRyoVuSzltnlP9Xku3hB4lSD3sb5bJL4BJmllQXx2MvDw63qL4thQ4jodDb-1k3MrFvuPKMDkIh2Bn-RD6y_LWfUcrfvYpTSbQByemQzCaIGuJUBAL1LAvjm-ZItxWp-Ksazqg5va_Clsj2raQyu2LhzOS8pW7VwAH7LLx8j6cRV6ZmTmi0a4Maf97-kGJOQKgcvUvaPxQvG2Imo9wwK9pINuDqerYCb9UXuEtwwlGWzCcauusx4caMV543PjkdIeHhRgONuxLC9nMxzEDhan1QQ7w_M0NGTe68hsuo2fk0P74XSZ2NAnd2QuxRG45neXJk9OO8dpj-jvEnqXojrFgcAyADgElJQDmsva3ZXDM-rS5eM2Nzn2scaXLpZs5x0qNd8lZKvojk8QrIOMxd9s2NSrE3zb5bpuSfNH3gPCms-SWWly_w7M8fWW2lJ9B9U3UaZzmqnAS0u9vipS_0JXuw31McCF0J0QJSiJr-U0gqounBS5OMmHfg2DQk9g8T1KZcaq2hW-sKDtNVa83IpLlwCxPBg1fxYP_Qh_SfxxsXqQ1GH8SMrkGR-f_Ie9c-C1LbiARE3_KDHBAAIRAuacXvCskOLrH_eaPzYzfNJmQdlGNW6luuihLPcoUwvgw3-zLxkOUtFtHXQnbGBKYECUcSx59HQKUgAuHf0sxCVtrsp6ApcxVpaBQzADoS9ETRE7ThTkdW36xsOFRyRtxn62tTgC_NxvV7KOG1gOFVGhU7DazHxBMeiz3GjpbDauwkiO23asAtWp5aoxNWDmjsatJ-8pU-YNxwRlgESu3QfPe6ubAvSrxzpJqzVzgpDd0fSjbtehRCuw00flG1czTFXEov8tLWCXdYwnEK8yL4izPCCNHaIav1f7msNKHHzWkxTg3nsxVWaIZrNfm-qqitW-EzwnYPpPPgf3e8DfYVcFgL0DFMGrffiHz-cEOcih3u_AS1U47DFm0Uj_qA18nsfPUm7J-L9cwM84dQ8XQZmX3JBhBbxQPscqn9td4XZjc8IEUz_1i-5Tk5-A-4Pq97wl5iTLw6AaUbbyUT8P4XmNhzi3qZaQ0OzdgLNu2m00]--></g></svg>