<?xml version="1.0" encoding="us-ascii" standalone="no"?><svg xmlns="http://www.w3.org/2000/svg" xmlns:xlink="http://www.w3.org/1999/xlink" contentStyleType="text/css" height="902px" preserveAspectRatio="none" style="width:646px;height:902px;background:#FFFFFF;" version="1.1" viewBox="0 0 646 902" width="646px" zoomAndPan="magnify"><defs/><g><text fill="#000000" font-family="sans-serif" font-size="14" font-weight="bold" lengthAdjust="spacing" textLength="403" x="114.5" y="22.9951">Cas d'utilisation du syst&#232;me de gestion des ventes</text><!--cluster Syst?me--><g id="cluster_Syst&#232;me"><rect fill="none" height="852" rx="2.5" ry="2.5" style="stroke:#181818;stroke-width:1.0;" width="506" x="134" y="44.2969"/><text fill="#000000" font-family="sans-serif" font-size="14" font-weight="bold" lengthAdjust="spacing" textLength="68" x="353" y="59.292">Syst&#232;me</text></g><g id="elem_RP"><ellipse cx="386.8591" cy="358.4687" fill="#F1F1F1" rx="96.3591" ry="21.6718" style="stroke:#181818;stroke-width:0.5;"/><text fill="#000000" font-family="sans-serif" font-size="14" lengthAdjust="spacing" textLength="156" x="308.8591" y="361.3154">Rechercher un produit</text></g><g id="elem_AP"><ellipse cx="386.788" cy="434.1545" fill="#F1F1F1" rx="82.288" ry="18.8576" style="stroke:#181818;stroke-width:0.5;"/><text fill="#000000" font-family="sans-serif" font-size="14" lengthAdjust="spacing" textLength="124" x="323.9505" y="437.2807">Ajouter un produit</text></g><g id="elem_EV"><ellipse cx="387.1693" cy="509.4307" fill="#F1F1F1" rx="93.6693" ry="21.1339" style="stroke:#181818;stroke-width:0.5;"/><text fill="#000000" font-family="sans-serif" font-size="14" lengthAdjust="spacing" textLength="150" x="312.1693" y="512.2774">Enregistrer une vente</text></g><g id="elem_GR"><ellipse cx="386.8844" cy="583.2738" fill="#F1F1F1" rx="75.3844" ry="17.4769" style="stroke:#181818;stroke-width:0.5;"/><text fill="#000000" font-family="sans-serif" font-size="14" lengthAdjust="spacing" textLength="107" x="330.3844" y="587.0213">G&#233;rer un retour</text></g><g id="elem_CS"><ellipse cx="387.212" cy="655.2393" fill="#F1F1F1" rx="82.712" ry="18.9424" style="stroke:#181818;stroke-width:0.5;"/><text fill="#000000" font-family="sans-serif" font-size="14" lengthAdjust="spacing" textLength="125" x="324.0208" y="658.3184">Consulter le stock</text></g><g id="elem_GRV"><ellipse cx="386.9876" cy="846.0944" fill="#F1F1F1" rx="156.9876" ry="33.7975" style="stroke:#181818;stroke-width:0.5;"/><text fill="#000000" font-family="sans-serif" font-size="14" lengthAdjust="spacing" textLength="285" x="244.4876" y="848.9411">G&#233;n&#233;rer un rapport consolid&#233; des ventes</text></g><g id="elem_CR"><ellipse cx="387.073" cy="129.1115" fill="#F1F1F1" rx="237.073" ry="49.8146" style="stroke:#181818;stroke-width:0.5;"/><text fill="#000000" font-family="sans-serif" font-size="14" lengthAdjust="spacing" textLength="449" x="162.573" y="131.9582">Consulter le stock central et d&#233;clencher un r&#233;approvisionnement</text></g><g id="elem_VPM"><ellipse cx="386.9172" cy="743.4803" fill="#F1F1F1" rx="158.9172" ry="34.1834" style="stroke:#181818;stroke-width:0.5;"/><text fill="#000000" font-family="sans-serif" font-size="14" lengthAdjust="spacing" textLength="289" x="242.4172" y="746.327">Visualiser les performances des magasins</text></g><g id="elem_IW"><ellipse cx="387.1586" cy="258.1286" fill="#F1F1F1" rx="204.6586" ry="43.3317" style="stroke:#181818;stroke-width:0.5;"/><text fill="#000000" font-family="sans-serif" font-size="14" lengthAdjust="spacing" textLength="383" x="195.6586" y="260.9753">Offrir une interface web minimale pour les gestionnaires</text></g><!--entity M--><g id="elem_M"><ellipse cx="48" cy="404.7969" fill="#F1F1F1" rx="8" ry="8" style="stroke:#181818;stroke-width:0.5;"/><path d="M48,412.7969 L48,439.7969 M35,420.7969 L61,420.7969 M48,439.7969 L35,454.7969 M48,439.7969 L61,454.7969 " fill="none" style="stroke:#181818;stroke-width:0.5;"/><text fill="#000000" font-family="sans-serif" font-size="14" lengthAdjust="spacing" textLength="57" x="19.5" y="469.292">Magasin</text></g><!--entity MM--><g id="elem_MM"><ellipse cx="48" cy="764.7969" fill="#F1F1F1" rx="8" ry="8" style="stroke:#181818;stroke-width:0.5;"/><path d="M48,772.7969 L48,799.7969 M35,780.7969 L61,780.7969 M48,799.7969 L35,814.7969 M48,799.7969 L61,814.7969 " fill="none" style="stroke:#181818;stroke-width:0.5;"/><text fill="#000000" font-family="sans-serif" font-size="14" lengthAdjust="spacing" textLength="84" x="6" y="829.292">MaisonM&#232;re</text></g><!--link M to RP--><g id="link_M_RP"><path d="M76.7,418.4969 C91.01,410.9869 108.99,402.5269 126,397.2969 C180.97,380.3869 238.845,371.3243 289.515,365.8243 " fill="none" id="M-to-RP" style="stroke:#181818;stroke-width:1.0;"/><polygon fill="#181818" points="295.48,365.1769,286.1009,362.1714,290.5092,365.7164,286.9642,370.1247,295.48,365.1769" style="stroke:#181818;stroke-width:1.0;"/></g><!--link M to AP--><g id="link_M_AP"><path d="M76.58,434.2969 C125.78,434.2969 224.46,434.2969 298.4,434.2969 " fill="none" id="M-to-AP" style="stroke:#181818;stroke-width:1.0;"/><polygon fill="#181818" points="304.4,434.2969,295.4,430.2969,299.4,434.2969,295.4,438.2969,304.4,434.2969" style="stroke:#181818;stroke-width:1.0;"/></g><!--link M to EV--><g id="link_M_EV"><path d="M76.75,449.6469 C91.07,456.9469 109.05,465.1769 126,470.2969 C182.04,487.2069 241.2248,496.322 292.2848,501.842 " fill="none" id="M-to-EV" style="stroke:#181818;stroke-width:1.0;"/><polygon fill="#181818" points="298.25,502.4869,289.7321,497.5427,293.279,501.9495,288.8722,505.4964,298.25,502.4869" style="stroke:#181818;stroke-width:1.0;"/></g><!--link M to GR--><g id="link_M_GR"><path d="M64.84,472.3569 C77.52,497.8569 97.86,529.8469 126,547.2969 C182.64,582.4269 253.4205,589.2405 308.8405,588.5605 " fill="none" id="M-to-GR" style="stroke:#181818;stroke-width:1.0;"/><polygon fill="#181818" points="314.84,588.4869,305.7916,584.5976,309.8404,588.5482,305.8898,592.597,314.84,588.4869" style="stroke:#181818;stroke-width:1.0;"/></g><!--link M to CS--><g id="link_M_CS"><path d="M53.79,472.3469 C61.3,515.0069 80.1,582.8269 126,618.2969 C178.49,658.8569 249.3039,665.4822 305.8339,663.4522 " fill="none" id="M-to-CS" style="stroke:#181818;stroke-width:1.0;"/><polygon fill="#181818" points="311.83,663.2369,302.6922,659.5624,306.8332,663.4163,302.9793,667.5573,311.83,663.2369" style="stroke:#181818;stroke-width:1.0;"/></g><!--link MM to GRV--><g id="link_MM_GRV"><path d="M90.32,800.6769 C132.15,807.1269 193.0502,816.5218 252.6002,825.7118 " fill="none" id="MM-to-GRV" style="stroke:#181818;stroke-width:1.0;"/><polygon fill="#181818" points="258.53,826.6269,250.2454,821.301,253.5885,825.8643,249.0252,829.2074,258.53,826.6269" style="stroke:#181818;stroke-width:1.0;"/></g><!--link M to CR--><g id="link_M_CR"><path d="M50.52,395.9769 C54.72,343.5469 70.14,249.9869 126,197.2969 C144.33,180.0069 160.9481,169.2864 184.5181,159.5064 " fill="none" id="M-to-CR" style="stroke:#181818;stroke-width:1.0;"/><polygon fill="#181818" points="190.06,157.2069,180.2142,156.9616,185.4418,159.1231,183.2802,164.3507,190.06,157.2069" style="stroke:#181818;stroke-width:1.0;"/></g><!--link MM to VPM--><g id="link_MM_VPM"><path d="M90.32,788.0469 C131.71,781.7769 191.6475,772.7046 250.7275,763.7646 " fill="none" id="MM-to-VPM" style="stroke:#181818;stroke-width:1.0;"/><polygon fill="#181818" points="256.66,762.8669,247.1628,760.2585,251.7163,763.615,248.3598,768.1684,256.66,762.8669" style="stroke:#181818;stroke-width:1.0;"/></g><!--link M to IW--><g id="link_M_IW"><path d="M65.34,396.1069 C78.2,370.5769 98.54,338.3069 126,319.2969 C151.16,301.8769 174.8823,291.1085 204.7623,282.1585 " fill="none" id="M-to-IW" style="stroke:#181818;stroke-width:1.0;"/><polygon fill="#181818" points="210.51,280.4369,200.7407,279.1875,205.7203,281.8716,203.0362,286.8511,210.51,280.4369" style="stroke:#181818;stroke-width:1.0;"/></g><!--SRC=[ZP9DJiCm48NtFiKe6rPS0Qcg468HWOfKriQPf0E97StO88Iu3pr7BiOaRafRn4-aI9Dn_FazpsknZX03C3MR21KnkaZ16nCfjWXBAr2TfKWjYHqNe4eWhnA7ZmwXGcXGSXi5dj5756DT30obRQoG1mMK-nP9yENmmJYrIsF6uwnlzAJYRaSjuCs0FadGMT655ReDylX2yj1pg1B50dvwbBowFIOi7aEA_zoU2OiJmgLdR4WYJnJCLd_LSBa-9bmDsxmP66D8_Ak2ZBXQ7IEMmKjgHoDwNnA3U_hBnlBkcmZ_fSFsVU08Jh6XfMhO7aonE9In_ai7EDt4jWNK30rRrwAVvyN3Li_Xy4oYEV7OwP_5fEt4tPeaMOtPX1NeaUl0dVLEFqPTNGxKh4m9wzlo675JrqnvGAGckBOEuGKVe2DFdLMrlTxyXD_brbjD_Dxi2Bs-D-_6b71-VZ7cA1UBkT2fva9damkzud9kpOjgRTSR9UPAkPy0]--></g></svg>