<?xml version="1.0" encoding="us-ascii" standalone="no"?><svg xmlns="http://www.w3.org/2000/svg" xmlns:xlink="http://www.w3.org/1999/xlink" contentStyleType="text/css" height="1115px" preserveAspectRatio="none" style="width:599px;height:1115px;background:#FFFFFF;" version="1.1" viewBox="0 0 599 1115" width="599px" zoomAndPan="magnify"><defs/><g><text fill="#000000" font-family="sans-serif" font-size="14" font-weight="bold" lengthAdjust="spacing" textLength="357" x="114" y="24.5332">Cas d'utilisation du syst&#232;me de gestion des ventes</text><!--cluster Syst?me--><g id="cluster_Syst&#232;me"><rect fill="none" height="1064" rx="2.5" ry="2.5" style="stroke:#181818;stroke-width:1.0;" width="466" x="127" y="45.6094"/><text fill="#000000" font-family="sans-serif" font-size="14" font-weight="bold" lengthAdjust="spacing" textLength="59" x="330.5" y="62.1426">Syst&#232;me</text></g><g id="elem_RP"><ellipse cx="360.1965" cy="564.8487" fill="#F1F1F1" rx="91.6965" ry="20.7393" style="stroke:#181818;stroke-width:0.5;"/><text fill="#000000" font-family="sans-serif" font-size="14" lengthAdjust="spacing" textLength="142" x="289.1965" y="568.5772">Rechercher un produit</text></g><g id="elem_AP"><ellipse cx="359.9775" cy="638.4049" fill="#F1F1F1" rx="79.4775" ry="18.2955" style="stroke:#181818;stroke-width:0.5;"/><text fill="#000000" font-family="sans-serif" font-size="14" lengthAdjust="spacing" textLength="113" x="302.256" y="642.4802">Ajouter un produit</text></g><g id="elem_EV"><ellipse cx="360.035" cy="102.4164" fill="#F1F1F1" rx="89.535" ry="20.307" style="stroke:#181818;stroke-width:0.5;"/><text fill="#000000" font-family="sans-serif" font-size="14" lengthAdjust="spacing" textLength="137" x="291.535" y="106.1449">Enregistrer une vente</text></g><g id="elem_GR"><ellipse cx="360.1111" cy="175.8316" fill="#F1F1F1" rx="74.1111" ry="17.2222" style="stroke:#181818;stroke-width:0.5;"/><text fill="#000000" font-family="sans-serif" font-size="14" lengthAdjust="spacing" textLength="99" x="307.6111" y="180.3482">G&#233;rer un retour</text></g><g id="elem_CS"><ellipse cx="359.9775" cy="246.4049" fill="#F1F1F1" rx="79.4775" ry="18.2955" style="stroke:#181818;stroke-width:0.5;"/><text fill="#000000" font-family="sans-serif" font-size="14" lengthAdjust="spacing" textLength="113" x="302.256" y="250.4802">Consulter le stock</text></g><g id="elem_GRV"><ellipse cx="359.9478" cy="723.6989" fill="#F1F1F1" rx="145.9478" ry="31.5896" style="stroke:#181818;stroke-width:0.5;"/><text fill="#000000" font-family="sans-serif" font-size="14" lengthAdjust="spacing" textLength="260" x="229.9478" y="727.4274">G&#233;n&#233;rer un rapport consolid&#233; des ventes</text></g><g id="elem_CR"><ellipse cx="360.0755" cy="346.4245" fill="#F1F1F1" rx="217.0755" ry="45.8151" style="stroke:#181818;stroke-width:0.5;"/><text fill="#000000" font-family="sans-serif" font-size="14" lengthAdjust="spacing" textLength="407" x="156.5755" y="350.153">Consulter le stock central et d&#233;clencher un r&#233;approvisionnement</text></g><g id="elem_VPM"><ellipse cx="359.8283" cy="822.675" fill="#F1F1F1" rx="148.3283" ry="32.0657" style="stroke:#181818;stroke-width:0.5;"/><text fill="#000000" font-family="sans-serif" font-size="14" lengthAdjust="spacing" textLength="265" x="227.3283" y="826.4035">Visualiser les performances des magasins</text></g><g id="elem_IW"><ellipse cx="359.7627" cy="468.4619" fill="#F1F1F1" rx="189.7627" ry="40.3525" style="stroke:#181818;stroke-width:0.5;"/><text fill="#000000" font-family="sans-serif" font-size="14" lengthAdjust="spacing" textLength="351" x="184.2627" y="472.1904">Offrir une interface web minimale pour les gestionnaires</text></g><g id="elem_APC"><ellipse cx="360.1055" cy="917.8305" fill="#F1F1F1" rx="126.6055" ry="27.7211" style="stroke:#181818;stroke-width:0.5;"/><text fill="#000000" font-family="sans-serif" font-size="14" lengthAdjust="spacing" textLength="219" x="250.6055" y="921.559">Ajouter un produit dans son panier</text></g><g id="elem_CP"><ellipse cx="359.8923" cy="1000.4878" fill="#F1F1F1" rx="87.3923" ry="19.8785" style="stroke:#181818;stroke-width:0.5;"/><text fill="#000000" font-family="sans-serif" font-size="14" lengthAdjust="spacing" textLength="132" x="293.8923" y="1004.2164">Consulter son panier</text></g><g id="elem_VP"><ellipse cx="359.7827" cy="1074.5659" fill="#F1F1F1" rx="80.2827" ry="18.4565" style="stroke:#181818;stroke-width:0.5;"/><text fill="#000000" font-family="sans-serif" font-size="14" lengthAdjust="spacing" textLength="115" x="301.4192" y="1078.5435">Valider son panier</text></g><!--entity M--><g id="elem_M"><ellipse cx="44.5" cy="316.1094" fill="#F1F1F1" rx="8" ry="8" style="stroke:#181818;stroke-width:0.5;"/><path d="M44.5,324.1094 L44.5,351.1094 M31.5,332.1094 L57.5,332.1094 M44.5,351.1094 L31.5,366.1094 M44.5,351.1094 L57.5,366.1094 " fill="none" style="stroke:#181818;stroke-width:0.5;"/><text fill="#000000" font-family="sans-serif" font-size="14" lengthAdjust="spacing" textLength="53" x="18" y="382.1426">Magasin</text></g><!--entity MM--><g id="elem_MM"><ellipse cx="44.5" cy="743.1094" fill="#F1F1F1" rx="8" ry="8" style="stroke:#181818;stroke-width:0.5;"/><path d="M44.5,751.1094 L44.5,778.1094 M31.5,759.1094 L57.5,759.1094 M44.5,778.1094 L31.5,793.1094 M44.5,778.1094 L57.5,793.1094 " fill="none" style="stroke:#181818;stroke-width:0.5;"/><text fill="#000000" font-family="sans-serif" font-size="14" lengthAdjust="spacing" textLength="77" x="6" y="809.1426">MaisonM&#232;re</text></g><!--entity C--><g id="elem_C"><ellipse cx="44.5" cy="970.1094" fill="#F1F1F1" rx="8" ry="8" style="stroke:#181818;stroke-width:0.5;"/><path d="M44.5,978.1094 L44.5,1005.1094 M31.5,986.1094 L57.5,986.1094 M44.5,1005.1094 L31.5,1020.1094 M44.5,1005.1094 L57.5,1020.1094 " fill="none" style="stroke:#181818;stroke-width:0.5;"/><text fill="#000000" font-family="sans-serif" font-size="14" lengthAdjust="spacing" textLength="36" x="26.5" y="1036.1426">Client</text></g><!--link M to RP--><g id="link_M_RP"><path d="M50.28,385.9394 C57.54,427.6394 75.48,492.1294 119,526.6094 C161.9,560.5994 216.971,569.7909 266.761,570.6909 " fill="none" id="M-to-RP" style="stroke:#181818;stroke-width:1.0;"/><polygon fill="#181818" points="272.76,570.7994,263.8338,566.6374,267.7608,570.709,263.6892,574.6361,272.76,570.7994" style="stroke:#181818;stroke-width:1.0;"/></g><!--link M to AP--><g id="link_M_AP"><path d="M51.47,385.6494 C62.13,449.9794 86.41,574.0194 119,602.6094 C164.93,642.8994 229.8251,649.3378 282.6751,647.1478 " fill="none" id="M-to-AP" style="stroke:#181818;stroke-width:1.0;"/><polygon fill="#181818" points="288.67,646.8994,279.5121,643.2754,283.6743,647.1064,279.8433,651.2686,288.67,646.8994" style="stroke:#181818;stroke-width:1.0;"/></g><!--link M to EV--><g id="link_M_EV"><path d="M47.9,307.2694 C53.02,260.0594 69.03,182.0694 119,140.6094 C162.1,104.8494 219.0401,95.9914 269.6501,95.7214 " fill="none" id="M-to-EV" style="stroke:#181818;stroke-width:1.0;"/><polygon fill="#181818" points="275.65,95.6894,266.6288,91.7374,270.6501,95.716,266.6715,99.7373,275.65,95.6894" style="stroke:#181818;stroke-width:1.0;"/></g><!--link M to GR--><g id="link_M_GR"><path d="M56,307.5194 C66.57,276.1194 86.11,233.5994 119,210.6094 C168.78,175.8094 232.6607,169.0286 284.1907,169.8086 " fill="none" id="M-to-GR" style="stroke:#181818;stroke-width:1.0;"/><polygon fill="#181818" points="290.19,169.8994,281.2516,165.7636,285.1906,169.8237,281.1305,173.7627,290.19,169.8994" style="stroke:#181818;stroke-width:1.0;"/></g><!--link M to CS--><g id="link_M_CS"><path d="M71.08,317.8394 C84.13,304.9894 101.03,290.9094 119,282.6094 C169.59,259.2494 225.9721,250.7998 274.4521,247.7198 " fill="none" id="M-to-CS" style="stroke:#181818;stroke-width:1.0;"/><polygon fill="#181818" points="280.44,247.3394,271.2045,243.9181,275.4501,247.6564,271.7117,251.902,280.44,247.3394" style="stroke:#181818;stroke-width:1.0;"/></g><!--link MM to GRV--><g id="link_MM_GRV"><path d="M83,767.6294 C122.25,761.3694 179.9548,752.1637 236.2348,743.1937 " fill="none" id="MM-to-GRV" style="stroke:#181818;stroke-width:1.0;"/><polygon fill="#181818" points="242.16,742.2494,232.6426,739.7158,237.2223,743.0364,233.9018,747.6161,242.16,742.2494" style="stroke:#181818;stroke-width:1.0;"/></g><!--link M to CR--><g id="link_M_CR"><path d="M71.16,346.6094 C88.85,346.6094 108.26,346.6094 136.74,346.6094 " fill="none" id="M-to-CR" style="stroke:#181818;stroke-width:1.0;"/><polygon fill="#181818" points="142.74,346.6094,133.74,342.6094,137.74,346.6094,133.74,350.6094,142.74,346.6094" style="stroke:#181818;stroke-width:1.0;"/></g><!--link MM to VPM--><g id="link_MM_VPM"><path d="M83,779.4694 C121.6,785.5094 177.852,794.2924 233.422,802.9824 " fill="none" id="MM-to-VPM" style="stroke:#181818;stroke-width:1.0;"/><polygon fill="#181818" points="239.35,803.9094,231.0761,798.5669,234.41,803.1369,229.8401,806.4708,239.35,803.9094" style="stroke:#181818;stroke-width:1.0;"/></g><!--link M to IW--><g id="link_M_IW"><path d="M71.17,373.8894 C84.37,386.4494 101.36,400.5394 119,409.6094 C147.24,424.1294 173.4156,433.6221 204.5956,442.0021 " fill="none" id="M-to-IW" style="stroke:#181818;stroke-width:1.0;"/><polygon fill="#181818" points="210.39,443.5594,202.7366,437.3605,205.5614,442.2616,200.6602,445.0863,210.39,443.5594" style="stroke:#181818;stroke-width:1.0;"/></g><!--link C to APC--><g id="link_C_APC"><path d="M62.68,989.8894 C77.18,981.2994 98.76,969.5694 119,962.6094 C160.69,948.2694 202.2022,939.149 243.8222,932.189 " fill="none" id="C-to-APC" style="stroke:#181818;stroke-width:1.0;"/><polygon fill="#181818" points="249.74,931.1994,240.2035,928.7386,244.8085,932.0241,241.523,936.629,249.74,931.1994" style="stroke:#181818;stroke-width:1.0;"/></g><!--link C to CP--><g id="link_C_CP"><path d="M62.8,1000.6094 C102.02,1000.6094 193.89,1000.6094 266.46,1000.6094 " fill="none" id="C-to-CP" style="stroke:#181818;stroke-width:1.0;"/><polygon fill="#181818" points="272.46,1000.6094,263.46,996.6094,267.46,1000.6094,263.46,1004.6094,272.46,1000.6094" style="stroke:#181818;stroke-width:1.0;"/></g><!--link C to VP--><g id="link_C_VP"><path d="M62.66,1011.1994 C77.15,1019.6494 98.73,1031.1194 119,1037.6094 C172.4,1054.6994 229.1325,1063.3954 277.0425,1068.4054 " fill="none" id="C-to-VP" style="stroke:#181818;stroke-width:1.0;"/><polygon fill="#181818" points="283.01,1069.0294,274.4748,1064.115,278.0371,1068.5094,273.6428,1072.0716,283.01,1069.0294" style="stroke:#181818;stroke-width:1.0;"/></g><!--SRC=[ZPF1QkGm38RlVWgHovxw2Wk3AQM7iCCKicUlewJQJUmWEorbwVjqdYClLZbEscPsfzD0G96jpx_aFnqs4Q87flO-GasCDf9tIaMA7O8s0UflOwIEWaaBK8yGdaASNdg46g75aDCOu05TnA2CZPwXDAq9v400vLkAWdVbzC8ufzUyxaWgKqehbGGOryhPnTroJW5_5SWp1hGcoC81xJroUc5qCB2lHue5d7i4VDXl2RlVVenVBC-4tGdXsZ6s52BF5CpDVwhXkjeIRgPZBWR6w4V-L456t1os2ErT6BlKYCmhH6__N6f3t_qZmhthCCFWEO8LhE-edeuVxhNuAAEwf0Ei5B7f0CLLqz5swDRxukaevx1_e23ESTZBpcBMTj9THM4qOhmP6s10RZptnbdvIBhwRB5LcH2gVRb5_6WQfdn194rmOop28_w2dXprHjGEClaPlpZP6Va7tffDqDkVbxm3jN41nDim64V8nSOt-joi_b-WJunMoGZgixkhlNfMgeIhg-_9v3dOhO5OBWTYd1p8_PThQbsKkI-vDBySITDwOUab4c5wsQLU0G00]--></g></svg>