<?xml version="1.0" encoding="us-ascii" standalone="no"?><svg xmlns="http://www.w3.org/2000/svg" xmlns:xlink="http://www.w3.org/1999/xlink" contentStyleType="text/css" height="423px" preserveAspectRatio="none" style="width:1870px;height:423px;background:#FFFFFF;" version="1.1" viewBox="0 0 1870 423" width="1870px" zoomAndPan="magnify"><defs/><g><text fill="#000000" font-family="sans-serif" font-size="14" font-weight="bold" lengthAdjust="spacing" textLength="242" x="815.5" y="27.9951">Processus d'ajout d'un produit</text><line style="stroke:#181818;stroke-width:0.5;stroke-dasharray:5.0,5.0;" x1="42" x2="42" y1="120.8906" y2="416.0859"/><line style="stroke:#181818;stroke-width:0.5;stroke-dasharray:5.0,5.0;" x1="654.5" x2="654.5" y1="120.8906" y2="416.0859"/><line style="stroke:#181818;stroke-width:0.5;stroke-dasharray:5.0,5.0;" x1="1151.5" x2="1151.5" y1="120.8906" y2="416.0859"/><line style="stroke:#181818;stroke-width:0.5;stroke-dasharray:5.0,5.0;" x1="1803" x2="1803" y1="120.8906" y2="416.0859"/><text fill="#000000" font-family="sans-serif" font-size="14" lengthAdjust="spacing" textLength="68" x="5" y="117.5889">Utilisateur</text><ellipse cx="42" cy="53.0938" fill="#E2E2F0" rx="8" ry="8" style="stroke:#181818;stroke-width:0.5;"/><path d="M42,61.0938 L42,88.0938 M29,69.0938 L55,69.0938 M42,88.0938 L29,103.0938 M42,88.0938 L55,103.0938 " fill="none" style="stroke:#181818;stroke-width:0.5;"/><rect fill="#E2E2F0" height="30.2969" rx="2.5" ry="2.5" style="stroke:#181818;stroke-width:0.5;" width="79" x="615.5" y="89.5938"/><text fill="#000000" font-family="sans-serif" font-size="14" lengthAdjust="spacing" textLength="65" x="622.5" y="109.5889">CLI (cli.ts)</text><rect fill="#E2E2F0" height="30.2969" rx="2.5" ry="2.5" style="stroke:#181818;stroke-width:0.5;" width="253" x="1025.5" y="89.5938"/><text fill="#000000" font-family="sans-serif" font-size="14" lengthAdjust="spacing" textLength="239" x="1032.5" y="109.5889">ProductService (productService.ts)</text><text fill="#000000" font-family="sans-serif" font-size="14" lengthAdjust="spacing" textLength="108" x="1746" y="101.292">AppDataSource</text><text fill="#000000" font-family="sans-serif" font-size="14" lengthAdjust="spacing" textLength="126" x="1737" y="117.5889">(TypeORM/SQLite)</text><path d="M1785,52.2969 C1785,42.2969 1803,42.2969 1803,42.2969 C1803,42.2969 1821,42.2969 1821,52.2969 L1821,78.2969 C1821,88.2969 1803,88.2969 1803,88.2969 C1803,88.2969 1785,88.2969 1785,78.2969 L1785,52.2969 " fill="#E2E2F0" style="stroke:#181818;stroke-width:1.5;"/><path d="M1785,52.2969 C1785,62.2969 1803,62.2969 1803,62.2969 C1803,62.2969 1821,62.2969 1821,52.2969 " fill="none" style="stroke:#181818;stroke-width:1.5;"/><polygon fill="#181818" points="643,148.0234,653,152.0234,643,156.0234" style="stroke:#181818;stroke-width:1.0;"/><line style="stroke:#181818;stroke-width:1.0;" x1="42" x2="649" y1="152.0234" y2="152.0234"/><text fill="#000000" font-family="sans-serif" font-size="13" lengthAdjust="spacing" textLength="168" x="49" y="146.9575">Choisir 'Ajouter un produit'</text><line style="stroke:#181818;stroke-width:1.0;" x1="655" x2="697" y1="181.1563" y2="181.1563"/><line style="stroke:#181818;stroke-width:1.0;" x1="697" x2="697" y1="181.1563" y2="194.1563"/><line style="stroke:#181818;stroke-width:1.0;" x1="656" x2="697" y1="194.1563" y2="194.1563"/><polygon fill="#181818" points="666,190.1563,656,194.1563,666,198.1563" style="stroke:#181818;stroke-width:1.0;"/><text fill="#000000" font-family="sans-serif" font-size="13" lengthAdjust="spacing" textLength="127" x="662" y="176.0903">handleAddProduct()</text><polygon fill="#181818" points="53,219.2891,43,223.2891,53,227.2891" style="stroke:#181818;stroke-width:1.0;"/><line style="stroke:#181818;stroke-width:1.0;" x1="47" x2="654" y1="223.2891" y2="223.2891"/><text fill="#000000" font-family="sans-serif" font-size="13" lengthAdjust="spacing" textLength="589" x="59" y="218.2231">Demander informations produit (nom: string, cat&#233;gorie: string, prix: number, stock: number)</text><polygon fill="#181818" points="643,248.4219,653,252.4219,643,256.4219" style="stroke:#181818;stroke-width:1.0;"/><line style="stroke:#181818;stroke-width:1.0;" x1="42" x2="649" y1="252.4219" y2="252.4219"/><text fill="#000000" font-family="sans-serif" font-size="13" lengthAdjust="spacing" textLength="168" x="49" y="247.356">Saisir informations produit</text><polygon fill="#181818" points="1140,277.5547,1150,281.5547,1140,285.5547" style="stroke:#181818;stroke-width:1.0;"/><line style="stroke:#181818;stroke-width:1.0;" x1="655" x2="1146" y1="281.5547" y2="281.5547"/><text fill="#000000" font-family="sans-serif" font-size="13" lengthAdjust="spacing" textLength="473" x="662" y="276.4888">addProduct({nom: string, cat&#233;gorie: string, prix: number, stock: number})</text><polygon fill="#181818" points="1791,306.6875,1801,310.6875,1791,314.6875" style="stroke:#181818;stroke-width:1.0;"/><line style="stroke:#181818;stroke-width:1.0;" x1="1152" x2="1797" y1="310.6875" y2="310.6875"/><text fill="#000000" font-family="sans-serif" font-size="13" lengthAdjust="spacing" textLength="627" x="1159" y="305.6216">getRepository(Product).save(create({nom: string, cat&#233;gorie: string, prix: number, stock: number})</text><polygon fill="#181818" points="1163,335.8203,1153,339.8203,1163,343.8203" style="stroke:#181818;stroke-width:1.0;"/><line style="stroke:#181818;stroke-width:1.0;stroke-dasharray:2.0,2.0;" x1="1157" x2="1802" y1="339.8203" y2="339.8203"/><text fill="#000000" font-family="sans-serif" font-size="13" lengthAdjust="spacing" textLength="89" x="1169" y="334.7544">produit ajout&#233;</text><polygon fill="#181818" points="666,364.9531,656,368.9531,666,372.9531" style="stroke:#181818;stroke-width:1.0;"/><line style="stroke:#181818;stroke-width:1.0;stroke-dasharray:2.0,2.0;" x1="660" x2="1151" y1="368.9531" y2="368.9531"/><text fill="#000000" font-family="sans-serif" font-size="13" lengthAdjust="spacing" textLength="357" x="672" y="363.8872">Information du produit (id, name, category, price, stock)</text><polygon fill="#181818" points="53,394.0859,43,398.0859,53,402.0859" style="stroke:#181818;stroke-width:1.0;"/><line style="stroke:#181818;stroke-width:1.0;" x1="47" x2="654" y1="398.0859" y2="398.0859"/><text fill="#000000" font-family="sans-serif" font-size="13" lengthAdjust="spacing" textLength="108" x="59" y="393.02">Afficher r&#233;sultats</text><!--SRC=[fLBBRi8m4BpxArPSI2JQtdEeXE1IgLKVjBTU5cU1RHFRijTLKTKFuZluiPgK4A3qnCNHRiQpC-CDxsmSUgmXoBAYT7hM4kjAAM59ZGTlDOKG0vHzVBDHqZSQSDwMaKMX5klXHRZYW4BHgyGchDcX4UYDRcyWqnLVIiXxW05Iun3ni27ICY7_mPeWSmVrxjuXJ9KeECL0q1iwDqx5n4QlwTLapqj7zqztLvF7MnRwlJpUefNQ4meNrnirKC1eOJcmX_vmuuyyTFxwQWFP8HTeoeg6PRcLa-Nj_ttY0iPK9sHYOZEplaPXQqBB2PcnTT4aRUO3q2ZhrTnwfgxdF7yMO68z9Jz8NQlVsp8_xM62ZOLJyrg9HqaNW9sFhtCaVUVgY3jDQpDFS-OaJ-HiuBGgosmBpIy3Vb2cFIKdPy_VJRiuPRGDljdVzUgFsbsADrryKCRkmRWSWC6Q6ccKb2qRGPgsIlvPW-5indgHri2lLo5MWXBK3m00]--></g></svg>