<?xml version="1.0" encoding="us-ascii" standalone="no"?><svg xmlns="http://www.w3.org/2000/svg" xmlns:xlink="http://www.w3.org/1999/xlink" contentStyleType="text/css" height="485px" preserveAspectRatio="none" style="width:1303px;height:485px;background:#FFFFFF;" version="1.1" viewBox="0 0 1303 485" width="1303px" zoomAndPan="magnify"><defs/><g><text fill="#000000" font-family="sans-serif" font-size="14" font-weight="bold" lengthAdjust="spacing" textLength="544" x="380.75" y="27.9951">Processus d'ajout d'un produit (multi-magasin, Express, PostgreSQL)</text><rect fill="none" height="119.3359" style="stroke:#000000;stroke-width:1.5;" width="404" x="892.5" y="254.4219"/><line style="stroke:#181818;stroke-width:0.5;stroke-dasharray:5.0,5.0;" x1="42" x2="42" y1="120.8906" y2="478.1563"/><line style="stroke:#181818;stroke-width:0.5;stroke-dasharray:5.0,5.0;" x1="239" x2="239" y1="120.8906" y2="478.1563"/><line style="stroke:#181818;stroke-width:0.5;stroke-dasharray:5.0,5.0;" x1="630" x2="630" y1="120.8906" y2="478.1563"/><line style="stroke:#181818;stroke-width:0.5;stroke-dasharray:5.0,5.0;" x1="974.5" x2="974.5" y1="120.8906" y2="478.1563"/><line style="stroke:#181818;stroke-width:0.5;stroke-dasharray:5.0,5.0;" x1="1242.5" x2="1242.5" y1="120.8906" y2="478.1563"/><text fill="#000000" font-family="sans-serif" font-size="14" lengthAdjust="spacing" textLength="68" x="5" y="117.5889">Utilisateur</text><ellipse cx="42" cy="53.0938" fill="#E2E2F0" rx="8" ry="8" style="stroke:#181818;stroke-width:0.5;"/><path d="M42,61.0938 L42,88.0938 M29,69.0938 L55,69.0938 M42,88.0938 L29,103.0938 M42,88.0938 L55,103.0938 " fill="none" style="stroke:#181818;stroke-width:0.5;"/><rect fill="#E2E2F0" height="30.2969" rx="2.5" ry="2.5" style="stroke:#181818;stroke-width:0.5;" width="122" x="178" y="89.5938"/><text fill="#000000" font-family="sans-serif" font-size="14" lengthAdjust="spacing" textLength="108" x="185" y="109.5889">Navigateur Web</text><rect fill="#E2E2F0" height="46.5938" rx="2.5" ry="2.5" style="stroke:#181818;stroke-width:0.5;" width="158" x="551" y="73.2969"/><text fill="#000000" font-family="sans-serif" font-size="14" lengthAdjust="spacing" textLength="70" x="595" y="93.292">Express.js</text><text fill="#000000" font-family="sans-serif" font-size="14" lengthAdjust="spacing" textLength="144" x="558" y="109.5889">(serviceApiRouter.ts)</text><rect fill="#E2E2F0" height="46.5938" rx="2.5" ry="2.5" style="stroke:#181818;stroke-width:0.5;" width="145" x="902.5" y="73.2969"/><text fill="#000000" font-family="sans-serif" font-size="14" lengthAdjust="spacing" textLength="104" x="923" y="93.292">ProductService</text><text fill="#000000" font-family="sans-serif" font-size="14" lengthAdjust="spacing" textLength="131" x="909.5" y="109.5889">(productService.ts)</text><text fill="#000000" font-family="sans-serif" font-size="14" lengthAdjust="spacing" textLength="81" x="1199.5" y="101.292">PostgreSQL</text><text fill="#000000" font-family="sans-serif" font-size="14" lengthAdjust="spacing" textLength="77" x="1201.5" y="117.5889">(TypeORM)</text><path d="M1225,52.2969 C1225,42.2969 1243,42.2969 1243,42.2969 C1243,42.2969 1261,42.2969 1261,52.2969 L1261,78.2969 C1261,88.2969 1243,88.2969 1243,88.2969 C1243,88.2969 1225,88.2969 1225,78.2969 L1225,52.2969 " fill="#E2E2F0" style="stroke:#181818;stroke-width:1.5;"/><path d="M1225,52.2969 C1225,62.2969 1243,62.2969 1243,62.2969 C1243,62.2969 1261,62.2969 1261,52.2969 " fill="none" style="stroke:#181818;stroke-width:1.5;"/><polygon fill="#181818" points="227,148.0234,237,152.0234,227,156.0234" style="stroke:#181818;stroke-width:1.0;"/><line style="stroke:#181818;stroke-width:1.0;" x1="42" x2="233" y1="152.0234" y2="152.0234"/><text fill="#000000" font-family="sans-serif" font-size="13" lengthAdjust="spacing" textLength="173" x="49" y="146.9575">Cliquer "Ajouter un produit"</text><polygon fill="#181818" points="618,177.1563,628,181.1563,618,185.1563" style="stroke:#181818;stroke-width:1.0;"/><line style="stroke:#181818;stroke-width:1.0;" x1="239" x2="624" y1="181.1563" y2="181.1563"/><text fill="#000000" font-family="sans-serif" font-size="13" lengthAdjust="spacing" textLength="367" x="246" y="176.0903">POST /add-product (nom, cat&#233;gorie, prix, stock, magasin)</text><polygon fill="#181818" points="963,206.2891,973,210.2891,963,214.2891" style="stroke:#181818;stroke-width:1.0;"/><line style="stroke:#181818;stroke-width:1.0;" x1="630" x2="969" y1="210.2891" y2="210.2891"/><text fill="#000000" font-family="sans-serif" font-size="13" lengthAdjust="spacing" textLength="321" x="637" y="205.2231">addProduct({nom, cat&#233;gorie, prix, stock, storeId})</text><polygon fill="#181818" points="1231,235.4219,1241,239.4219,1231,243.4219" style="stroke:#181818;stroke-width:1.0;"/><line style="stroke:#181818;stroke-width:1.0;" x1="975" x2="1237" y1="239.4219" y2="239.4219"/><text fill="#000000" font-family="sans-serif" font-size="13" lengthAdjust="spacing" textLength="165" x="982" y="234.356">V&#233;rifier si le produit existe</text><path d="M892.5,254.4219 L956.5,254.4219 L956.5,261.5547 L946.5,271.5547 L892.5,271.5547 L892.5,254.4219 " fill="#EEEEEE" style="stroke:#000000;stroke-width:1.5;"/><rect fill="none" height="119.3359" style="stroke:#000000;stroke-width:1.5;" width="404" x="892.5" y="254.4219"/><text fill="#000000" font-family="sans-serif" font-size="13" font-weight="bold" lengthAdjust="spacing" textLength="19" x="907.5" y="267.4888">alt</text><text fill="#000000" font-family="sans-serif" font-size="11" font-weight="bold" lengthAdjust="spacing" textLength="131" x="971.5" y="266.6323">[Produit existe d&#233;j&#224;]</text><polygon fill="#181818" points="1231,288.6875,1241,292.6875,1231,296.6875" style="stroke:#181818;stroke-width:1.0;"/><line style="stroke:#181818;stroke-width:1.0;" x1="975" x2="1237" y1="292.6875" y2="292.6875"/><text fill="#000000" font-family="sans-serif" font-size="13" lengthAdjust="spacing" textLength="244" x="982" y="287.6216">Cr&#233;er Inventory (stock, product, store)</text><line style="stroke:#000000;stroke-width:1.0;stroke-dasharray:2.0,2.0;" x1="892.5" x2="1296.5" y1="301.6875" y2="301.6875"/><text fill="#000000" font-family="sans-serif" font-size="11" font-weight="bold" lengthAdjust="spacing" textLength="116" x="897.5" y="311.8979">[Nouveau produit]</text><polygon fill="#181818" points="1231,332.625,1241,336.625,1231,340.625" style="stroke:#181818;stroke-width:1.0;"/><line style="stroke:#181818;stroke-width:1.0;" x1="975" x2="1237" y1="336.625" y2="336.625"/><text fill="#000000" font-family="sans-serif" font-size="13" lengthAdjust="spacing" textLength="88" x="982" y="331.5591">Cr&#233;er Product</text><polygon fill="#181818" points="1231,361.7578,1241,365.7578,1231,369.7578" style="stroke:#181818;stroke-width:1.0;"/><line style="stroke:#181818;stroke-width:1.0;" x1="975" x2="1237" y1="365.7578" y2="365.7578"/><text fill="#000000" font-family="sans-serif" font-size="13" lengthAdjust="spacing" textLength="244" x="982" y="360.6919">Cr&#233;er Inventory (stock, product, store)</text><polygon fill="#181818" points="986,397.8906,976,401.8906,986,405.8906" style="stroke:#181818;stroke-width:1.0;"/><line style="stroke:#181818;stroke-width:1.0;stroke-dasharray:2.0,2.0;" x1="980" x2="1242" y1="401.8906" y2="401.8906"/><text fill="#000000" font-family="sans-serif" font-size="13" lengthAdjust="spacing" textLength="151" x="992" y="396.8247">Produit et stock ajout&#233;s</text><polygon fill="#181818" points="641,427.0234,631,431.0234,641,435.0234" style="stroke:#181818;stroke-width:1.0;"/><line style="stroke:#181818;stroke-width:1.0;stroke-dasharray:2.0,2.0;" x1="635" x2="974" y1="431.0234" y2="431.0234"/><text fill="#000000" font-family="sans-serif" font-size="13" lengthAdjust="spacing" textLength="89" x="647" y="425.9575">Succ&#232;s/erreur</text><polygon fill="#181818" points="250,456.1563,240,460.1563,250,464.1563" style="stroke:#181818;stroke-width:1.0;"/><line style="stroke:#181818;stroke-width:1.0;stroke-dasharray:2.0,2.0;" x1="244" x2="629" y1="460.1563" y2="460.1563"/><text fill="#000000" font-family="sans-serif" font-size="13" lengthAdjust="spacing" textLength="132" x="256" y="455.0903">Afficher confirmation</text><!--SRC=[hLEnRjim4Dtv5GSlbG0vsJiKC98E0TB4ZTDsoS9GP_SSYLJ9es6ZwBzqhBv3FvQJJQjH4mGPga443kyzldjt30za6-rr3O5t5ShVa-5OLqeniHJctXaC8GOet-crYondjD1uLqPYoEfOCKrhlTA1R04VjuqNU05p5tZbSV7vCbTA6tOUlZ1L53HZz4hkP3BKQCimkT8RMkthy0tl9w13VuunIVXa7Uvi5j1loE2ieHjnXFw4Gxwd9TIOEk-z6buSI49lHeM1FCQfKhE-rm55OEX5oBUx1gzlFXqevmcZr9FcOFgXzm_luQoY7n4zJ6RhlK_uczn4zH119ik2dbylRk5Kb-Kq6OJCkhe0exbhLyuJ5iAcRI5JSkQXW9HwheuQ8ZTkGbH5BzModw_BoU7neloLgtz4HFROg0X-xLfFIv9k0e5io74LS4k1KUcA3oQ64fHTk-v-Av3lLUKptxKYUs4tQCNB3hBaBEMHBEOAAy5VkRX17O_tlra-OVwd7LkgWJTzQGX387m86_PFgMl3iwX76x68ndH_mYbwtp-QOSp3WisMIpBVnQHnTac-rapEgaS0]--></g></svg>