<?xml version="1.0" encoding="us-ascii" standalone="no"?><svg xmlns="http://www.w3.org/2000/svg" xmlns:xlink="http://www.w3.org/1999/xlink" contentStyleType="text/css" height="862px" preserveAspectRatio="none" style="width:848px;height:862px;background:#FFFFFF;" version="1.1" viewBox="0 0 848 862" width="848px" zoomAndPan="magnify"><defs/><g><text fill="#000000" font-family="sans-serif" font-size="14" font-weight="bold" lengthAdjust="spacing" textLength="184" x="325" y="24.5332">Organisation des modules</text><!--cluster LOG430-labo--><g id="cluster_LOG430-labo"><path d="M8.5,44.6094 L98.5,44.6094 A3.75,3.75 0 0 1 101,47.1094 L108,68.2188 L838.5,68.2188 A2.5,2.5 0 0 1 841,70.7188 L841,853.1094 A2.5,2.5 0 0 1 838.5,855.6094 L8.5,855.6094 A2.5,2.5 0 0 1 6,853.1094 L6,47.1094 A2.5,2.5 0 0 1 8.5,44.6094 " fill="none" style="stroke:#000000;stroke-width:1.5;"/><line style="stroke:#000000;stroke-width:1.5;" x1="6" x2="108" y1="68.2188" y2="68.2188"/><text fill="#000000" font-family="sans-serif" font-size="14" font-weight="bold" lengthAdjust="spacing" textLength="89" x="10" y="61.1426">LOG430-labo</text></g><!--cluster D--><g id="cluster_D"><path d="M40.5,96.6094 L75.5,96.6094 A3.75,3.75 0 0 1 78,99.1094 L85,120.2188 L806.5,120.2188 A2.5,2.5 0 0 1 809,122.7188 L809,210.1094 A2.5,2.5 0 0 1 806.5,212.6094 L40.5,212.6094 A2.5,2.5 0 0 1 38,210.1094 L38,99.1094 A2.5,2.5 0 0 1 40.5,96.6094 " fill="none" style="stroke:#000000;stroke-width:1.5;"/><line style="stroke:#000000;stroke-width:1.5;" x1="38" x2="85" y1="120.2188" y2="120.2188"/><text fill="#000000" font-family="sans-serif" font-size="14" font-weight="bold" lengthAdjust="spacing" textLength="34" x="42" y="113.1426">docs</text></g><!--cluster F--><g id="cluster_F"><path d="M40.5,252.6094 L102.5,252.6094 A3.75,3.75 0 0 1 105,255.1094 L112,276.2188 L499.5,276.2188 A2.5,2.5 0 0 1 502,278.7188 L502,434.1094 A2.5,2.5 0 0 1 499.5,436.6094 L40.5,436.6094 A2.5,2.5 0 0 1 38,434.1094 L38,255.1094 A2.5,2.5 0 0 1 40.5,252.6094 " fill="none" style="stroke:#000000;stroke-width:1.5;"/><line style="stroke:#000000;stroke-width:1.5;" x1="38" x2="112" y1="276.2188" y2="276.2188"/><text fill="#000000" font-family="sans-serif" font-size="14" font-weight="bold" lengthAdjust="spacing" textLength="61" x="42" y="269.1426">frontend</text></g><!--cluster public--><g id="cluster_public"><path d="M309.5,304.6094 L353.5,304.6094 A3.75,3.75 0 0 1 356,307.1094 L363,328.2188 L467.5,328.2188 A2.5,2.5 0 0 1 470,330.7188 L470,402.1094 A2.5,2.5 0 0 1 467.5,404.6094 L309.5,404.6094 A2.5,2.5 0 0 1 307,402.1094 L307,307.1094 A2.5,2.5 0 0 1 309.5,304.6094 " fill="none" style="stroke:#000000;stroke-width:1.5;"/><line style="stroke:#000000;stroke-width:1.5;" x1="307" x2="363" y1="328.2188" y2="328.2188"/><text fill="#000000" font-family="sans-serif" font-size="14" font-weight="bold" lengthAdjust="spacing" textLength="43" x="311" y="321.1426">public</text></g><!--cluster src--><g id="cluster_src"><path d="M80.5,304.6094 L103.5,304.6094 A3.75,3.75 0 0 1 106,307.1094 L113,328.2188 L280.5,328.2188 A2.5,2.5 0 0 1 283,330.7188 L283,402.1094 A2.5,2.5 0 0 1 280.5,404.6094 L80.5,404.6094 A2.5,2.5 0 0 1 78,402.1094 L78,307.1094 A2.5,2.5 0 0 1 80.5,304.6094 " fill="none" style="stroke:#000000;stroke-width:1.5;"/><line style="stroke:#000000;stroke-width:1.5;" x1="78" x2="113" y1="328.2188" y2="328.2188"/><text fill="#000000" font-family="sans-serif" font-size="14" font-weight="bold" lengthAdjust="spacing" textLength="22" x="82" y="321.1426">src</text></g><!--cluster P--><g id="cluster_P"><path d="M40.5,476.6094 L130.5,476.6094 A3.75,3.75 0 0 1 133,479.1094 L140,500.2188 L491.5,500.2188 A2.5,2.5 0 0 1 494,502.7188 L494,658.1094 A2.5,2.5 0 0 1 491.5,660.6094 L40.5,660.6094 A2.5,2.5 0 0 1 38,658.1094 L38,479.1094 A2.5,2.5 0 0 1 40.5,476.6094 " fill="none" style="stroke:#000000;stroke-width:1.5;"/><line style="stroke:#000000;stroke-width:1.5;" x1="38" x2="140" y1="500.2188" y2="500.2188"/><text fill="#000000" font-family="sans-serif" font-size="14" font-weight="bold" lengthAdjust="spacing" textLength="89" x="42" y="493.1426">provisioning</text></g><!--cluster dashboard--><g id="cluster_dashboard"><path d="M240.5,528.6094 L316.5,528.6094 A3.75,3.75 0 0 1 319,531.1094 L326,552.2188 L459.5,552.2188 A2.5,2.5 0 0 1 462,554.7188 L462,626.1094 A2.5,2.5 0 0 1 459.5,628.6094 L240.5,628.6094 A2.5,2.5 0 0 1 238,626.1094 L238,531.1094 A2.5,2.5 0 0 1 240.5,528.6094 " fill="none" style="stroke:#000000;stroke-width:1.5;"/><line style="stroke:#000000;stroke-width:1.5;" x1="238" x2="326" y1="552.2188" y2="552.2188"/><text fill="#000000" font-family="sans-serif" font-size="14" font-weight="bold" lengthAdjust="spacing" textLength="75" x="242" y="545.1426">dashboard</text></g><!--cluster datasource--><g id="cluster_datasource"><path d="M80.5,528.6094 L160.5,528.6094 A3.75,3.75 0 0 1 163,531.1094 L170,552.2188 L211.5,552.2188 A2.5,2.5 0 0 1 214,554.7188 L214,626.1094 A2.5,2.5 0 0 1 211.5,628.6094 L80.5,628.6094 A2.5,2.5 0 0 1 78,626.1094 L78,531.1094 A2.5,2.5 0 0 1 80.5,528.6094 " fill="none" style="stroke:#000000;stroke-width:1.5;"/><line style="stroke:#000000;stroke-width:1.5;" x1="78" x2="170" y1="552.2188" y2="552.2188"/><text fill="#000000" font-family="sans-serif" font-size="14" font-weight="bold" lengthAdjust="spacing" textLength="79" x="82" y="545.1426">datasource</text></g><!--cluster S--><g id="cluster_S"><path d="M40.5,700.6094 L102.5,700.6094 A3.75,3.75 0 0 1 105,703.1094 L112,724.2188 L578.5,724.2188 A2.5,2.5 0 0 1 581,726.7188 L581,821.1094 A2.5,2.5 0 0 1 578.5,823.6094 L40.5,823.6094 A2.5,2.5 0 0 1 38,821.1094 L38,703.1094 A2.5,2.5 0 0 1 40.5,700.6094 " fill="none" style="stroke:#000000;stroke-width:1.5;"/><line style="stroke:#000000;stroke-width:1.5;" x1="38" x2="112" y1="724.2188" y2="724.2188"/><text fill="#000000" font-family="sans-serif" font-size="14" font-weight="bold" lengthAdjust="spacing" textLength="61" x="42" y="717.1426">services</text></g><!--class development--><g id="elem_development"><rect codeLine="6" fill="#F1F1F1" height="48" id="development" rx="2.5" ry="2.5" style="stroke:#181818;stroke-width:0.5;" width="113" x="188.5" y="140.6094"/><ellipse cx="203.5" cy="156.6094" fill="#ADD1B2" rx="11" ry="11" style="stroke:#181818;stroke-width:1.0;"/><path d="M206.2656,152.4844 Q206.4219,152.2656 206.6094,152.1563 Q206.7969,152.0469 207.0156,152.0469 Q207.3906,152.0469 207.625,152.3125 Q207.8594,152.5625 207.8594,153.1719 L207.8594,154.625 Q207.8594,155.2344 207.625,155.5 Q207.3906,155.7656 207.0156,155.7656 Q206.6719,155.7656 206.4688,155.5625 Q206.2656,155.375 206.1563,154.8594 Q206.1094,154.5 205.9219,154.3125 Q205.5938,153.9375 204.9844,153.7188 Q204.375,153.5 203.75,153.5 Q202.9844,153.5 202.3438,153.8281 Q201.7188,154.1563 201.2188,154.9063 Q200.7344,155.6563 200.7344,156.6875 L200.7344,157.7813 Q200.7344,159.0156 201.625,159.8438 Q202.5156,160.6563 204.1094,160.6563 Q205.0469,160.6563 205.7031,160.4063 Q206.0938,160.25 206.5156,159.8125 Q206.7813,159.5469 206.9219,159.4688 Q207.0781,159.3906 207.2813,159.3906 Q207.6094,159.3906 207.8594,159.6563 Q208.125,159.9063 208.125,160.25 Q208.125,160.5938 207.7813,161 Q207.2813,161.5781 206.4844,161.9063 Q205.4063,162.3594 204.1094,162.3594 Q202.5938,162.3594 201.3906,161.7344 Q200.4063,161.2344 199.7188,160.1719 Q199.0313,159.0938 199.0313,157.8125 L199.0313,156.6563 Q199.0313,155.3281 199.6406,154.1875 Q200.2656,153.0313 201.3594,152.4219 Q202.4531,151.7969 203.6875,151.7969 Q204.4219,151.7969 205.0625,151.9688 Q205.7188,152.125 206.2656,152.4844 Z " fill="#000000"/><text fill="#000000" font-family="sans-serif" font-size="14" lengthAdjust="spacing" textLength="81" x="217.5" y="162.3379">development</text><line style="stroke:#181818;stroke-width:0.5;" x1="189.5" x2="300.5" y1="172.6094" y2="172.6094"/><line style="stroke:#181818;stroke-width:0.5;" x1="189.5" x2="300.5" y1="180.6094" y2="180.6094"/></g><!--class logical--><g id="elem_logical"><rect codeLine="7" fill="#F1F1F1" height="48" id="logical" rx="2.5" ry="2.5" style="stroke:#181818;stroke-width:0.5;" width="72" x="81" y="140.6094"/><ellipse cx="96" cy="156.6094" fill="#ADD1B2" rx="11" ry="11" style="stroke:#181818;stroke-width:1.0;"/><path d="M98.7656,152.4844 Q98.9219,152.2656 99.1094,152.1563 Q99.2969,152.0469 99.5156,152.0469 Q99.8906,152.0469 100.125,152.3125 Q100.3594,152.5625 100.3594,153.1719 L100.3594,154.625 Q100.3594,155.2344 100.125,155.5 Q99.8906,155.7656 99.5156,155.7656 Q99.1719,155.7656 98.9688,155.5625 Q98.7656,155.375 98.6563,154.8594 Q98.6094,154.5 98.4219,154.3125 Q98.0938,153.9375 97.4844,153.7188 Q96.875,153.5 96.25,153.5 Q95.4844,153.5 94.8438,153.8281 Q94.2188,154.1563 93.7188,154.9063 Q93.2344,155.6563 93.2344,156.6875 L93.2344,157.7813 Q93.2344,159.0156 94.125,159.8438 Q95.0156,160.6563 96.6094,160.6563 Q97.5469,160.6563 98.2031,160.4063 Q98.5938,160.25 99.0156,159.8125 Q99.2813,159.5469 99.4219,159.4688 Q99.5781,159.3906 99.7813,159.3906 Q100.1094,159.3906 100.3594,159.6563 Q100.625,159.9063 100.625,160.25 Q100.625,160.5938 100.2813,161 Q99.7813,161.5781 98.9844,161.9063 Q97.9063,162.3594 96.6094,162.3594 Q95.0938,162.3594 93.8906,161.7344 Q92.9063,161.2344 92.2188,160.1719 Q91.5313,159.0938 91.5313,157.8125 L91.5313,156.6563 Q91.5313,155.3281 92.1406,154.1875 Q92.7656,153.0313 93.8594,152.4219 Q94.9531,151.7969 96.1875,151.7969 Q96.9219,151.7969 97.5625,151.9688 Q98.2188,152.125 98.7656,152.4844 Z " fill="#000000"/><text fill="#000000" font-family="sans-serif" font-size="14" lengthAdjust="spacing" textLength="40" x="110" y="162.3379">logical</text><line style="stroke:#181818;stroke-width:0.5;" x1="82" x2="152" y1="172.6094" y2="172.6094"/><line style="stroke:#181818;stroke-width:0.5;" x1="82" x2="152" y1="180.6094" y2="180.6094"/></g><!--class physical--><g id="elem_physical"><rect codeLine="8" fill="#F1F1F1" height="48" id="physical" rx="2.5" ry="2.5" style="stroke:#181818;stroke-width:0.5;" width="83" x="336.5" y="140.6094"/><ellipse cx="351.5" cy="156.6094" fill="#ADD1B2" rx="11" ry="11" style="stroke:#181818;stroke-width:1.0;"/><path d="M354.2656,152.4844 Q354.4219,152.2656 354.6094,152.1563 Q354.7969,152.0469 355.0156,152.0469 Q355.3906,152.0469 355.625,152.3125 Q355.8594,152.5625 355.8594,153.1719 L355.8594,154.625 Q355.8594,155.2344 355.625,155.5 Q355.3906,155.7656 355.0156,155.7656 Q354.6719,155.7656 354.4688,155.5625 Q354.2656,155.375 354.1563,154.8594 Q354.1094,154.5 353.9219,154.3125 Q353.5938,153.9375 352.9844,153.7188 Q352.375,153.5 351.75,153.5 Q350.9844,153.5 350.3438,153.8281 Q349.7188,154.1563 349.2188,154.9063 Q348.7344,155.6563 348.7344,156.6875 L348.7344,157.7813 Q348.7344,159.0156 349.625,159.8438 Q350.5156,160.6563 352.1094,160.6563 Q353.0469,160.6563 353.7031,160.4063 Q354.0938,160.25 354.5156,159.8125 Q354.7813,159.5469 354.9219,159.4688 Q355.0781,159.3906 355.2813,159.3906 Q355.6094,159.3906 355.8594,159.6563 Q356.125,159.9063 356.125,160.25 Q356.125,160.5938 355.7813,161 Q355.2813,161.5781 354.4844,161.9063 Q353.4063,162.3594 352.1094,162.3594 Q350.5938,162.3594 349.3906,161.7344 Q348.4063,161.2344 347.7188,160.1719 Q347.0313,159.0938 347.0313,157.8125 L347.0313,156.6563 Q347.0313,155.3281 347.6406,154.1875 Q348.2656,153.0313 349.3594,152.4219 Q350.4531,151.7969 351.6875,151.7969 Q352.4219,151.7969 353.0625,151.9688 Q353.7188,152.125 354.2656,152.4844 Z " fill="#000000"/><text fill="#000000" font-family="sans-serif" font-size="14" lengthAdjust="spacing" textLength="51" x="365.5" y="162.3379">physical</text><line style="stroke:#181818;stroke-width:0.5;" x1="337.5" x2="418.5" y1="172.6094" y2="172.6094"/><line style="stroke:#181818;stroke-width:0.5;" x1="337.5" x2="418.5" y1="180.6094" y2="180.6094"/></g><!--class process--><g id="elem_process"><rect codeLine="9" fill="#F1F1F1" height="48" id="process" rx="2.5" ry="2.5" style="stroke:#181818;stroke-width:0.5;" width="82" x="455" y="140.6094"/><ellipse cx="470" cy="156.6094" fill="#ADD1B2" rx="11" ry="11" style="stroke:#181818;stroke-width:1.0;"/><path d="M472.7656,152.4844 Q472.9219,152.2656 473.1094,152.1563 Q473.2969,152.0469 473.5156,152.0469 Q473.8906,152.0469 474.125,152.3125 Q474.3594,152.5625 474.3594,153.1719 L474.3594,154.625 Q474.3594,155.2344 474.125,155.5 Q473.8906,155.7656 473.5156,155.7656 Q473.1719,155.7656 472.9688,155.5625 Q472.7656,155.375 472.6563,154.8594 Q472.6094,154.5 472.4219,154.3125 Q472.0938,153.9375 471.4844,153.7188 Q470.875,153.5 470.25,153.5 Q469.4844,153.5 468.8438,153.8281 Q468.2188,154.1563 467.7188,154.9063 Q467.2344,155.6563 467.2344,156.6875 L467.2344,157.7813 Q467.2344,159.0156 468.125,159.8438 Q469.0156,160.6563 470.6094,160.6563 Q471.5469,160.6563 472.2031,160.4063 Q472.5938,160.25 473.0156,159.8125 Q473.2813,159.5469 473.4219,159.4688 Q473.5781,159.3906 473.7813,159.3906 Q474.1094,159.3906 474.3594,159.6563 Q474.625,159.9063 474.625,160.25 Q474.625,160.5938 474.2813,161 Q473.7813,161.5781 472.9844,161.9063 Q471.9063,162.3594 470.6094,162.3594 Q469.0938,162.3594 467.8906,161.7344 Q466.9063,161.2344 466.2188,160.1719 Q465.5313,159.0938 465.5313,157.8125 L465.5313,156.6563 Q465.5313,155.3281 466.1406,154.1875 Q466.7656,153.0313 467.8594,152.4219 Q468.9531,151.7969 470.1875,151.7969 Q470.9219,151.7969 471.5625,151.9688 Q472.2188,152.125 472.7656,152.4844 Z " fill="#000000"/><text fill="#000000" font-family="sans-serif" font-size="14" lengthAdjust="spacing" textLength="50" x="484" y="162.3379">process</text><line style="stroke:#181818;stroke-width:0.5;" x1="456" x2="536" y1="172.6094" y2="172.6094"/><line style="stroke:#181818;stroke-width:0.5;" x1="456" x2="536" y1="180.6094" y2="180.6094"/></g><!--class useCase--><g id="elem_useCase"><rect codeLine="10" fill="#F1F1F1" height="48" id="useCase" rx="2.5" ry="2.5" style="stroke:#181818;stroke-width:0.5;" width="88" x="572" y="140.6094"/><ellipse cx="587" cy="156.6094" fill="#ADD1B2" rx="11" ry="11" style="stroke:#181818;stroke-width:1.0;"/><path d="M589.7656,152.4844 Q589.9219,152.2656 590.1094,152.1563 Q590.2969,152.0469 590.5156,152.0469 Q590.8906,152.0469 591.125,152.3125 Q591.3594,152.5625 591.3594,153.1719 L591.3594,154.625 Q591.3594,155.2344 591.125,155.5 Q590.8906,155.7656 590.5156,155.7656 Q590.1719,155.7656 589.9688,155.5625 Q589.7656,155.375 589.6563,154.8594 Q589.6094,154.5 589.4219,154.3125 Q589.0938,153.9375 588.4844,153.7188 Q587.875,153.5 587.25,153.5 Q586.4844,153.5 585.8438,153.8281 Q585.2188,154.1563 584.7188,154.9063 Q584.2344,155.6563 584.2344,156.6875 L584.2344,157.7813 Q584.2344,159.0156 585.125,159.8438 Q586.0156,160.6563 587.6094,160.6563 Q588.5469,160.6563 589.2031,160.4063 Q589.5938,160.25 590.0156,159.8125 Q590.2813,159.5469 590.4219,159.4688 Q590.5781,159.3906 590.7813,159.3906 Q591.1094,159.3906 591.3594,159.6563 Q591.625,159.9063 591.625,160.25 Q591.625,160.5938 591.2813,161 Q590.7813,161.5781 589.9844,161.9063 Q588.9063,162.3594 587.6094,162.3594 Q586.0938,162.3594 584.8906,161.7344 Q583.9063,161.2344 583.2188,160.1719 Q582.5313,159.0938 582.5313,157.8125 L582.5313,156.6563 Q582.5313,155.3281 583.1406,154.1875 Q583.7656,153.0313 584.8594,152.4219 Q585.9531,151.7969 587.1875,151.7969 Q587.9219,151.7969 588.5625,151.9688 Q589.2188,152.125 589.7656,152.4844 Z " fill="#000000"/><text fill="#000000" font-family="sans-serif" font-size="14" lengthAdjust="spacing" textLength="56" x="601" y="162.3379">useCase</text><line style="stroke:#181818;stroke-width:0.5;" x1="573" x2="659" y1="172.6094" y2="172.6094"/><line style="stroke:#181818;stroke-width:0.5;" x1="573" x2="659" y1="180.6094" y2="180.6094"/></g><!--class README--><g id="elem_README"><rect codeLine="11" fill="#F1F1F1" height="48" id="README" rx="2.5" ry="2.5" style="stroke:#181818;stroke-width:0.5;" width="90" x="695" y="140.6094"/><ellipse cx="710" cy="156.6094" fill="#ADD1B2" rx="11" ry="11" style="stroke:#181818;stroke-width:1.0;"/><path d="M712.7656,152.4844 Q712.9219,152.2656 713.1094,152.1563 Q713.2969,152.0469 713.5156,152.0469 Q713.8906,152.0469 714.125,152.3125 Q714.3594,152.5625 714.3594,153.1719 L714.3594,154.625 Q714.3594,155.2344 714.125,155.5 Q713.8906,155.7656 713.5156,155.7656 Q713.1719,155.7656 712.9688,155.5625 Q712.7656,155.375 712.6563,154.8594 Q712.6094,154.5 712.4219,154.3125 Q712.0938,153.9375 711.4844,153.7188 Q710.875,153.5 710.25,153.5 Q709.4844,153.5 708.8438,153.8281 Q708.2188,154.1563 707.7188,154.9063 Q707.2344,155.6563 707.2344,156.6875 L707.2344,157.7813 Q707.2344,159.0156 708.125,159.8438 Q709.0156,160.6563 710.6094,160.6563 Q711.5469,160.6563 712.2031,160.4063 Q712.5938,160.25 713.0156,159.8125 Q713.2813,159.5469 713.4219,159.4688 Q713.5781,159.3906 713.7813,159.3906 Q714.1094,159.3906 714.3594,159.6563 Q714.625,159.9063 714.625,160.25 Q714.625,160.5938 714.2813,161 Q713.7813,161.5781 712.9844,161.9063 Q711.9063,162.3594 710.6094,162.3594 Q709.0938,162.3594 707.8906,161.7344 Q706.9063,161.2344 706.2188,160.1719 Q705.5313,159.0938 705.5313,157.8125 L705.5313,156.6563 Q705.5313,155.3281 706.1406,154.1875 Q706.7656,153.0313 707.8594,152.4219 Q708.9531,151.7969 710.1875,151.7969 Q710.9219,151.7969 711.5625,151.9688 Q712.2188,152.125 712.7656,152.4844 Z " fill="#000000"/><text fill="#000000" font-family="sans-serif" font-size="14" lengthAdjust="spacing" textLength="58" x="724" y="162.3379">README</text><line style="stroke:#181818;stroke-width:0.5;" x1="696" x2="784" y1="172.6094" y2="172.6094"/><line style="stroke:#181818;stroke-width:0.5;" x1="696" x2="784" y1="180.6094" y2="180.6094"/></g><!--class css--><g id="elem_css"><rect codeLine="15" fill="#F1F1F1" height="48" id="css" rx="2.5" ry="2.5" style="stroke:#181818;stroke-width:0.5;" width="53" x="400.5" y="340.6094"/><ellipse cx="415.5" cy="356.6094" fill="#ADD1B2" rx="11" ry="11" style="stroke:#181818;stroke-width:1.0;"/><path d="M418.2656,352.4844 Q418.4219,352.2656 418.6094,352.1563 Q418.7969,352.0469 419.0156,352.0469 Q419.3906,352.0469 419.625,352.3125 Q419.8594,352.5625 419.8594,353.1719 L419.8594,354.625 Q419.8594,355.2344 419.625,355.5 Q419.3906,355.7656 419.0156,355.7656 Q418.6719,355.7656 418.4688,355.5625 Q418.2656,355.375 418.1563,354.8594 Q418.1094,354.5 417.9219,354.3125 Q417.5938,353.9375 416.9844,353.7188 Q416.375,353.5 415.75,353.5 Q414.9844,353.5 414.3438,353.8281 Q413.7188,354.1563 413.2188,354.9063 Q412.7344,355.6563 412.7344,356.6875 L412.7344,357.7813 Q412.7344,359.0156 413.625,359.8438 Q414.5156,360.6563 416.1094,360.6563 Q417.0469,360.6563 417.7031,360.4063 Q418.0938,360.25 418.5156,359.8125 Q418.7813,359.5469 418.9219,359.4688 Q419.0781,359.3906 419.2813,359.3906 Q419.6094,359.3906 419.8594,359.6563 Q420.125,359.9063 420.125,360.25 Q420.125,360.5938 419.7813,361 Q419.2813,361.5781 418.4844,361.9063 Q417.4063,362.3594 416.1094,362.3594 Q414.5938,362.3594 413.3906,361.7344 Q412.4063,361.2344 411.7188,360.1719 Q411.0313,359.0938 411.0313,357.8125 L411.0313,356.6563 Q411.0313,355.3281 411.6406,354.1875 Q412.2656,353.0313 413.3594,352.4219 Q414.4531,351.7969 415.6875,351.7969 Q416.4219,351.7969 417.0625,351.9688 Q417.7188,352.125 418.2656,352.4844 Z " fill="#000000"/><text fill="#000000" font-family="sans-serif" font-size="14" lengthAdjust="spacing" textLength="21" x="429.5" y="362.3379">css</text><line style="stroke:#181818;stroke-width:0.5;" x1="401.5" x2="452.5" y1="372.6094" y2="372.6094"/><line style="stroke:#181818;stroke-width:0.5;" x1="401.5" x2="452.5" y1="380.6094" y2="380.6094"/></g><!--class js--><g id="elem_js"><rect codeLine="16" fill="#F1F1F1" height="48" id="js" rx="2.5" ry="2.5" style="stroke:#181818;stroke-width:0.5;" width="42" x="323" y="340.6094"/><ellipse cx="338" cy="356.6094" fill="#ADD1B2" rx="11" ry="11" style="stroke:#181818;stroke-width:1.0;"/><path d="M340.7656,352.4844 Q340.9219,352.2656 341.1094,352.1563 Q341.2969,352.0469 341.5156,352.0469 Q341.8906,352.0469 342.125,352.3125 Q342.3594,352.5625 342.3594,353.1719 L342.3594,354.625 Q342.3594,355.2344 342.125,355.5 Q341.8906,355.7656 341.5156,355.7656 Q341.1719,355.7656 340.9688,355.5625 Q340.7656,355.375 340.6563,354.8594 Q340.6094,354.5 340.4219,354.3125 Q340.0938,353.9375 339.4844,353.7188 Q338.875,353.5 338.25,353.5 Q337.4844,353.5 336.8438,353.8281 Q336.2188,354.1563 335.7188,354.9063 Q335.2344,355.6563 335.2344,356.6875 L335.2344,357.7813 Q335.2344,359.0156 336.125,359.8438 Q337.0156,360.6563 338.6094,360.6563 Q339.5469,360.6563 340.2031,360.4063 Q340.5938,360.25 341.0156,359.8125 Q341.2813,359.5469 341.4219,359.4688 Q341.5781,359.3906 341.7813,359.3906 Q342.1094,359.3906 342.3594,359.6563 Q342.625,359.9063 342.625,360.25 Q342.625,360.5938 342.2813,361 Q341.7813,361.5781 340.9844,361.9063 Q339.9063,362.3594 338.6094,362.3594 Q337.0938,362.3594 335.8906,361.7344 Q334.9063,361.2344 334.2188,360.1719 Q333.5313,359.0938 333.5313,357.8125 L333.5313,356.6563 Q333.5313,355.3281 334.1406,354.1875 Q334.7656,353.0313 335.8594,352.4219 Q336.9531,351.7969 338.1875,351.7969 Q338.9219,351.7969 339.5625,351.9688 Q340.2188,352.125 340.7656,352.4844 Z " fill="#000000"/><text fill="#000000" font-family="sans-serif" font-size="14" lengthAdjust="spacing" textLength="10" x="352" y="362.3379">js</text><line style="stroke:#181818;stroke-width:0.5;" x1="324" x2="364" y1="372.6094" y2="372.6094"/><line style="stroke:#181818;stroke-width:0.5;" x1="324" x2="364" y1="380.6094" y2="380.6094"/></g><!--class routes--><g id="elem_routes"><rect codeLine="19" fill="#F1F1F1" height="48" id="routes" rx="2.5" ry="2.5" style="stroke:#181818;stroke-width:0.5;" width="72" x="195" y="340.6094"/><ellipse cx="210" cy="356.6094" fill="#ADD1B2" rx="11" ry="11" style="stroke:#181818;stroke-width:1.0;"/><path d="M212.7656,352.4844 Q212.9219,352.2656 213.1094,352.1563 Q213.2969,352.0469 213.5156,352.0469 Q213.8906,352.0469 214.125,352.3125 Q214.3594,352.5625 214.3594,353.1719 L214.3594,354.625 Q214.3594,355.2344 214.125,355.5 Q213.8906,355.7656 213.5156,355.7656 Q213.1719,355.7656 212.9688,355.5625 Q212.7656,355.375 212.6563,354.8594 Q212.6094,354.5 212.4219,354.3125 Q212.0938,353.9375 211.4844,353.7188 Q210.875,353.5 210.25,353.5 Q209.4844,353.5 208.8438,353.8281 Q208.2188,354.1563 207.7188,354.9063 Q207.2344,355.6563 207.2344,356.6875 L207.2344,357.7813 Q207.2344,359.0156 208.125,359.8438 Q209.0156,360.6563 210.6094,360.6563 Q211.5469,360.6563 212.2031,360.4063 Q212.5938,360.25 213.0156,359.8125 Q213.2813,359.5469 213.4219,359.4688 Q213.5781,359.3906 213.7813,359.3906 Q214.1094,359.3906 214.3594,359.6563 Q214.625,359.9063 214.625,360.25 Q214.625,360.5938 214.2813,361 Q213.7813,361.5781 212.9844,361.9063 Q211.9063,362.3594 210.6094,362.3594 Q209.0938,362.3594 207.8906,361.7344 Q206.9063,361.2344 206.2188,360.1719 Q205.5313,359.0938 205.5313,357.8125 L205.5313,356.6563 Q205.5313,355.3281 206.1406,354.1875 Q206.7656,353.0313 207.8594,352.4219 Q208.9531,351.7969 210.1875,351.7969 Q210.9219,351.7969 211.5625,351.9688 Q212.2188,352.125 212.7656,352.4844 Z " fill="#000000"/><text fill="#000000" font-family="sans-serif" font-size="14" lengthAdjust="spacing" textLength="40" x="224" y="362.3379">routes</text><line style="stroke:#181818;stroke-width:0.5;" x1="196" x2="266" y1="372.6094" y2="372.6094"/><line style="stroke:#181818;stroke-width:0.5;" x1="196" x2="266" y1="380.6094" y2="380.6094"/></g><!--class views--><g id="elem_views"><rect codeLine="20" fill="#F1F1F1" height="48" id="views" rx="2.5" ry="2.5" style="stroke:#181818;stroke-width:0.5;" width="66" x="94" y="340.6094"/><ellipse cx="109" cy="356.6094" fill="#ADD1B2" rx="11" ry="11" style="stroke:#181818;stroke-width:1.0;"/><path d="M111.7656,352.4844 Q111.9219,352.2656 112.1094,352.1563 Q112.2969,352.0469 112.5156,352.0469 Q112.8906,352.0469 113.125,352.3125 Q113.3594,352.5625 113.3594,353.1719 L113.3594,354.625 Q113.3594,355.2344 113.125,355.5 Q112.8906,355.7656 112.5156,355.7656 Q112.1719,355.7656 111.9688,355.5625 Q111.7656,355.375 111.6563,354.8594 Q111.6094,354.5 111.4219,354.3125 Q111.0938,353.9375 110.4844,353.7188 Q109.875,353.5 109.25,353.5 Q108.4844,353.5 107.8438,353.8281 Q107.2188,354.1563 106.7188,354.9063 Q106.2344,355.6563 106.2344,356.6875 L106.2344,357.7813 Q106.2344,359.0156 107.125,359.8438 Q108.0156,360.6563 109.6094,360.6563 Q110.5469,360.6563 111.2031,360.4063 Q111.5938,360.25 112.0156,359.8125 Q112.2813,359.5469 112.4219,359.4688 Q112.5781,359.3906 112.7813,359.3906 Q113.1094,359.3906 113.3594,359.6563 Q113.625,359.9063 113.625,360.25 Q113.625,360.5938 113.2813,361 Q112.7813,361.5781 111.9844,361.9063 Q110.9063,362.3594 109.6094,362.3594 Q108.0938,362.3594 106.8906,361.7344 Q105.9063,361.2344 105.2188,360.1719 Q104.5313,359.0938 104.5313,357.8125 L104.5313,356.6563 Q104.5313,355.3281 105.1406,354.1875 Q105.7656,353.0313 106.8594,352.4219 Q107.9531,351.7969 109.1875,351.7969 Q109.9219,351.7969 110.5625,351.9688 Q111.2188,352.125 111.7656,352.4844 Z " fill="#000000"/><text fill="#000000" font-family="sans-serif" font-size="14" lengthAdjust="spacing" textLength="34" x="123" y="362.3379">views</text><line style="stroke:#181818;stroke-width:0.5;" x1="95" x2="159" y1="372.6094" y2="372.6094"/><line style="stroke:#181818;stroke-width:0.5;" x1="95" x2="159" y1="380.6094" y2="380.6094"/></g><!--class default--><g id="elem_default"><rect codeLine="25" fill="#F1F1F1" height="48" id="default" rx="2.5" ry="2.5" style="stroke:#181818;stroke-width:0.5;" width="75" x="370.5" y="564.6094"/><ellipse cx="385.5" cy="580.6094" fill="#ADD1B2" rx="11" ry="11" style="stroke:#181818;stroke-width:1.0;"/><path d="M388.2656,576.4844 Q388.4219,576.2656 388.6094,576.1563 Q388.7969,576.0469 389.0156,576.0469 Q389.3906,576.0469 389.625,576.3125 Q389.8594,576.5625 389.8594,577.1719 L389.8594,578.625 Q389.8594,579.2344 389.625,579.5 Q389.3906,579.7656 389.0156,579.7656 Q388.6719,579.7656 388.4688,579.5625 Q388.2656,579.375 388.1563,578.8594 Q388.1094,578.5 387.9219,578.3125 Q387.5938,577.9375 386.9844,577.7188 Q386.375,577.5 385.75,577.5 Q384.9844,577.5 384.3438,577.8281 Q383.7188,578.1563 383.2188,578.9063 Q382.7344,579.6563 382.7344,580.6875 L382.7344,581.7813 Q382.7344,583.0156 383.625,583.8438 Q384.5156,584.6563 386.1094,584.6563 Q387.0469,584.6563 387.7031,584.4063 Q388.0938,584.25 388.5156,583.8125 Q388.7813,583.5469 388.9219,583.4688 Q389.0781,583.3906 389.2813,583.3906 Q389.6094,583.3906 389.8594,583.6563 Q390.125,583.9063 390.125,584.25 Q390.125,584.5938 389.7813,585 Q389.2813,585.5781 388.4844,585.9063 Q387.4063,586.3594 386.1094,586.3594 Q384.5938,586.3594 383.3906,585.7344 Q382.4063,585.2344 381.7188,584.1719 Q381.0313,583.0938 381.0313,581.8125 L381.0313,580.6563 Q381.0313,579.3281 381.6406,578.1875 Q382.2656,577.0313 383.3594,576.4219 Q384.4531,575.7969 385.6875,575.7969 Q386.4219,575.7969 387.0625,575.9688 Q387.7188,576.125 388.2656,576.4844 Z " fill="#000000"/><text fill="#000000" font-family="sans-serif" font-size="14" lengthAdjust="spacing" textLength="43" x="399.5" y="586.3379">default</text><line style="stroke:#181818;stroke-width:0.5;" x1="371.5" x2="444.5" y1="596.6094" y2="596.6094"/><line style="stroke:#181818;stroke-width:0.5;" x1="371.5" x2="444.5" y1="604.6094" y2="604.6094"/></g><!--class grafana--><g id="elem_grafana"><rect codeLine="26" fill="#F1F1F1" height="48" id="grafana" rx="2.5" ry="2.5" style="stroke:#181818;stroke-width:0.5;" width="81" x="254.5" y="564.6094"/><ellipse cx="269.5" cy="580.6094" fill="#ADD1B2" rx="11" ry="11" style="stroke:#181818;stroke-width:1.0;"/><path d="M272.2656,576.4844 Q272.4219,576.2656 272.6094,576.1563 Q272.7969,576.0469 273.0156,576.0469 Q273.3906,576.0469 273.625,576.3125 Q273.8594,576.5625 273.8594,577.1719 L273.8594,578.625 Q273.8594,579.2344 273.625,579.5 Q273.3906,579.7656 273.0156,579.7656 Q272.6719,579.7656 272.4688,579.5625 Q272.2656,579.375 272.1563,578.8594 Q272.1094,578.5 271.9219,578.3125 Q271.5938,577.9375 270.9844,577.7188 Q270.375,577.5 269.75,577.5 Q268.9844,577.5 268.3438,577.8281 Q267.7188,578.1563 267.2188,578.9063 Q266.7344,579.6563 266.7344,580.6875 L266.7344,581.7813 Q266.7344,583.0156 267.625,583.8438 Q268.5156,584.6563 270.1094,584.6563 Q271.0469,584.6563 271.7031,584.4063 Q272.0938,584.25 272.5156,583.8125 Q272.7813,583.5469 272.9219,583.4688 Q273.0781,583.3906 273.2813,583.3906 Q273.6094,583.3906 273.8594,583.6563 Q274.125,583.9063 274.125,584.25 Q274.125,584.5938 273.7813,585 Q273.2813,585.5781 272.4844,585.9063 Q271.4063,586.3594 270.1094,586.3594 Q268.5938,586.3594 267.3906,585.7344 Q266.4063,585.2344 265.7188,584.1719 Q265.0313,583.0938 265.0313,581.8125 L265.0313,580.6563 Q265.0313,579.3281 265.6406,578.1875 Q266.2656,577.0313 267.3594,576.4219 Q268.4531,575.7969 269.6875,575.7969 Q270.4219,575.7969 271.0625,575.9688 Q271.7188,576.125 272.2656,576.4844 Z " fill="#000000"/><text fill="#000000" font-family="sans-serif" font-size="14" lengthAdjust="spacing" textLength="49" x="283.5" y="586.3379">grafana</text><line style="stroke:#181818;stroke-width:0.5;" x1="255.5" x2="334.5" y1="596.6094" y2="596.6094"/><line style="stroke:#181818;stroke-width:0.5;" x1="255.5" x2="334.5" y1="604.6094" y2="604.6094"/></g><!--class datasource--><g id="elem_datasource"><rect codeLine="29" fill="#F1F1F1" height="48" id="datasource" rx="2.5" ry="2.5" style="stroke:#181818;stroke-width:0.5;" width="103" x="94.5" y="564.6094"/><ellipse cx="109.5" cy="580.6094" fill="#ADD1B2" rx="11" ry="11" style="stroke:#181818;stroke-width:1.0;"/><path d="M112.2656,576.4844 Q112.4219,576.2656 112.6094,576.1563 Q112.7969,576.0469 113.0156,576.0469 Q113.3906,576.0469 113.625,576.3125 Q113.8594,576.5625 113.8594,577.1719 L113.8594,578.625 Q113.8594,579.2344 113.625,579.5 Q113.3906,579.7656 113.0156,579.7656 Q112.6719,579.7656 112.4688,579.5625 Q112.2656,579.375 112.1563,578.8594 Q112.1094,578.5 111.9219,578.3125 Q111.5938,577.9375 110.9844,577.7188 Q110.375,577.5 109.75,577.5 Q108.9844,577.5 108.3438,577.8281 Q107.7188,578.1563 107.2188,578.9063 Q106.7344,579.6563 106.7344,580.6875 L106.7344,581.7813 Q106.7344,583.0156 107.625,583.8438 Q108.5156,584.6563 110.1094,584.6563 Q111.0469,584.6563 111.7031,584.4063 Q112.0938,584.25 112.5156,583.8125 Q112.7813,583.5469 112.9219,583.4688 Q113.0781,583.3906 113.2813,583.3906 Q113.6094,583.3906 113.8594,583.6563 Q114.125,583.9063 114.125,584.25 Q114.125,584.5938 113.7813,585 Q113.2813,585.5781 112.4844,585.9063 Q111.4063,586.3594 110.1094,586.3594 Q108.5938,586.3594 107.3906,585.7344 Q106.4063,585.2344 105.7188,584.1719 Q105.0313,583.0938 105.0313,581.8125 L105.0313,580.6563 Q105.0313,579.3281 105.6406,578.1875 Q106.2656,577.0313 107.3594,576.4219 Q108.4531,575.7969 109.6875,575.7969 Q110.4219,575.7969 111.0625,575.9688 Q111.7188,576.125 112.2656,576.4844 Z " fill="#000000"/><text fill="#000000" font-family="sans-serif" font-size="14" lengthAdjust="spacing" textLength="71" x="123.5" y="586.3379">datasource</text><line style="stroke:#181818;stroke-width:0.5;" x1="95.5" x2="196.5" y1="596.6094" y2="596.6094"/><line style="stroke:#181818;stroke-width:0.5;" x1="95.5" x2="196.5" y1="604.6094" y2="604.6094"/></g><path d="M508,744.6094 L540,744.6094 A3.75,3.75 0 0 1 542.5,747.1094 L549.5,768.2188 L554,768.2188 A2.5,2.5 0 0 1 556.5,770.7188 L556.5,797.3281 A2.5,2.5 0 0 1 554,799.8281 L508,799.8281 A2.5,2.5 0 0 1 505.5,797.3281 L505.5,747.1094 A2.5,2.5 0 0 1 508,744.6094 " fill="#F1F1F1" style="stroke:#181818;stroke-width:0.5;"/><line style="stroke:#181818;stroke-width:0.5;" x1="505.5" x2="549.5" y1="768.2188" y2="768.2188"/><text fill="#000000" font-family="sans-serif" font-size="14" font-weight="bold" lengthAdjust="spacing" textLength="31" x="509.5" y="761.1426">auth</text><path d="M386,744.6094 L454,744.6094 A3.75,3.75 0 0 1 456.5,747.1094 L463.5,768.2188 L468,768.2188 A2.5,2.5 0 0 1 470.5,770.7188 L470.5,797.3281 A2.5,2.5 0 0 1 468,799.8281 L386,799.8281 A2.5,2.5 0 0 1 383.5,797.3281 L383.5,747.1094 A2.5,2.5 0 0 1 386,744.6094 " fill="#F1F1F1" style="stroke:#181818;stroke-width:0.5;"/><line style="stroke:#181818;stroke-width:0.5;" x1="383.5" x2="463.5" y1="768.2188" y2="768.2188"/><text fill="#000000" font-family="sans-serif" font-size="14" font-weight="bold" lengthAdjust="spacing" textLength="67" x="387.5" y="761.1426">inventory</text><path d="M268,744.6094 L332,744.6094 A3.75,3.75 0 0 1 334.5,747.1094 L341.5,768.2188 L346,768.2188 A2.5,2.5 0 0 1 348.5,770.7188 L348.5,797.3281 A2.5,2.5 0 0 1 346,799.8281 L268,799.8281 A2.5,2.5 0 0 1 265.5,797.3281 L265.5,747.1094 A2.5,2.5 0 0 1 268,744.6094 " fill="#F1F1F1" style="stroke:#181818;stroke-width:0.5;"/><line style="stroke:#181818;stroke-width:0.5;" x1="265.5" x2="341.5" y1="768.2188" y2="768.2188"/><text fill="#000000" font-family="sans-serif" font-size="14" font-weight="bold" lengthAdjust="spacing" textLength="63" x="269.5" y="761.1426">products</text><path d="M176,744.6094 L214,744.6094 A3.75,3.75 0 0 1 216.5,747.1094 L223.5,768.2188 L228,768.2188 A2.5,2.5 0 0 1 230.5,770.7188 L230.5,797.3281 A2.5,2.5 0 0 1 228,799.8281 L176,799.8281 A2.5,2.5 0 0 1 173.5,797.3281 L173.5,747.1094 A2.5,2.5 0 0 1 176,744.6094 " fill="#F1F1F1" style="stroke:#181818;stroke-width:0.5;"/><line style="stroke:#181818;stroke-width:0.5;" x1="173.5" x2="223.5" y1="768.2188" y2="768.2188"/><text fill="#000000" font-family="sans-serif" font-size="14" font-weight="bold" lengthAdjust="spacing" textLength="37" x="177.5" y="761.1426">sales</text><path d="M84,744.6094 L122,744.6094 A3.75,3.75 0 0 1 124.5,747.1094 L131.5,768.2188 L136,768.2188 A2.5,2.5 0 0 1 138.5,770.7188 L138.5,797.3281 A2.5,2.5 0 0 1 136,799.8281 L84,799.8281 A2.5,2.5 0 0 1 81.5,797.3281 L81.5,747.1094 A2.5,2.5 0 0 1 84,744.6094 " fill="#F1F1F1" style="stroke:#181818;stroke-width:0.5;"/><line style="stroke:#181818;stroke-width:0.5;" x1="81.5" x2="131.5" y1="768.2188" y2="768.2188"/><text fill="#000000" font-family="sans-serif" font-size="14" font-weight="bold" lengthAdjust="spacing" textLength="37" x="85.5" y="761.1426">store</text><!--link physical to process--><!--link process to useCase--><!--link useCase to README--><!--link D to F--><!--link F to P--><!--link P to S--><!--SRC=[VLD1RiCW4Bpp2fIxfKhj1wecwQLLhEPOzR21ZKr3m6B1KLJvxwMM4xiOcGlIp6fsPncyyXhvpbLW585Nrd29nCzM1et4M0FY11NorTlkzUdneT1mi2l-mtWyTqvQGIiEnDS3ytU41g8ergAspHcDJnXjAoL09sXJNoa7EokGA443uGiG9kZ7vddzlkd1xl-SHsUDHoFxMRUJMMyLJJXe9IR4g2ectKVqUmIxcHgvl9IpmMDEhLLuIGKJ2t4HhQBuJCfKlOqoOqC2rGSBJcRRIpn2q3x3L0wEO631aWGFP8CJc9U-qyik25shueFs3lOP1n1yFO7dWoZJnaXPTrsiYjkIGNXQB2A8IL-kY8rmLj6nBlwF8Q-y-AoLb6Y-dAfgNzmJEzmp_fRTuPxnGuhN8o7jnHHyoxOfLB8oXVRi5m00]--></g></svg>