<?xml version="1.0" encoding="us-ascii" standalone="no"?><svg xmlns="http://www.w3.org/2000/svg" xmlns:xlink="http://www.w3.org/1999/xlink" contentStyleType="text/css" height="1362px" preserveAspectRatio="none" style="width:880px;height:1362px;background:#FFFFFF;" version="1.1" viewBox="0 0 880 1362" width="880px" zoomAndPan="magnify"><defs/><g><text fill="#000000" font-family="sans-serif" font-size="14" font-weight="bold" lengthAdjust="spacing" textLength="206" x="330" y="22.9951">Organisation des modules</text><!--cluster src--><g id="cluster_src"><path d="M8.5,43.2969 L34.5,43.2969 A3.75,3.75 0 0 1 37,45.7969 L44,65.5938 L870.5,65.5938 A2.5,2.5 0 0 1 873,68.0938 L873,1352.7969 A2.5,2.5 0 0 1 870.5,1355.2969 L8.5,1355.2969 A2.5,2.5 0 0 1 6,1352.7969 L6,45.7969 A2.5,2.5 0 0 1 8.5,43.2969 " fill="none" style="stroke:#000000;stroke-width:1.5;"/><line style="stroke:#000000;stroke-width:1.5;" x1="6" x2="44" y1="65.5938" y2="65.5938"/><text fill="#000000" font-family="sans-serif" font-size="14" font-weight="bold" lengthAdjust="spacing" textLength="25" x="10" y="58.292">src</text></g><!--cluster C--><g id="cluster_C"><path d="M40.5,94.2969 L127.5,94.2969 A3.75,3.75 0 0 1 130,96.7969 L137,116.5938 L462.5,116.5938 A2.5,2.5 0 0 1 465,119.0938 L465,206.7969 A2.5,2.5 0 0 1 462.5,209.2969 L40.5,209.2969 A2.5,2.5 0 0 1 38,206.7969 L38,96.7969 A2.5,2.5 0 0 1 40.5,94.2969 " fill="none" style="stroke:#000000;stroke-width:1.5;"/><line style="stroke:#000000;stroke-width:1.5;" x1="38" x2="137" y1="116.5938" y2="116.5938"/><text fill="#000000" font-family="sans-serif" font-size="14" font-weight="bold" lengthAdjust="spacing" textLength="86" x="42" y="109.292">controllers</text></g><!--cluster E--><g id="cluster_E"><path d="M40.5,249.2969 L100.5,249.2969 A3.75,3.75 0 0 1 103,251.7969 L110,271.5938 L646.5,271.5938 A2.5,2.5 0 0 1 649,274.0938 L649,361.7969 A2.5,2.5 0 0 1 646.5,364.2969 L40.5,364.2969 A2.5,2.5 0 0 1 38,361.7969 L38,251.7969 A2.5,2.5 0 0 1 40.5,249.2969 " fill="none" style="stroke:#000000;stroke-width:1.5;"/><line style="stroke:#000000;stroke-width:1.5;" x1="38" x2="110" y1="271.5938" y2="271.5938"/><text fill="#000000" font-family="sans-serif" font-size="14" font-weight="bold" lengthAdjust="spacing" textLength="59" x="42" y="264.292">entities</text></g><!--cluster R--><g id="cluster_R"><path d="M40.5,404.2969 L93.5,404.2969 A3.75,3.75 0 0 1 96,406.7969 L103,426.5938 L722.5,426.5938 A2.5,2.5 0 0 1 725,429.0938 L725,516.7969 A2.5,2.5 0 0 1 722.5,519.2969 L40.5,519.2969 A2.5,2.5 0 0 1 38,516.7969 L38,406.7969 A2.5,2.5 0 0 1 40.5,404.2969 " fill="none" style="stroke:#000000;stroke-width:1.5;"/><line style="stroke:#000000;stroke-width:1.5;" x1="38" x2="103" y1="426.5938" y2="426.5938"/><text fill="#000000" font-family="sans-serif" font-size="14" font-weight="bold" lengthAdjust="spacing" textLength="52" x="42" y="419.292">routes</text></g><!--cluster S--><g id="cluster_S"><path d="M40.5,559.2969 L108.5,559.2969 A3.75,3.75 0 0 1 111,561.7969 L118,581.5938 L383.5,581.5938 A2.5,2.5 0 0 1 386,584.0938 L386,671.7969 A2.5,2.5 0 0 1 383.5,674.2969 L40.5,674.2969 A2.5,2.5 0 0 1 38,671.7969 L38,561.7969 A2.5,2.5 0 0 1 40.5,559.2969 " fill="none" style="stroke:#000000;stroke-width:1.5;"/><line style="stroke:#000000;stroke-width:1.5;" x1="38" x2="118" y1="581.5938" y2="581.5938"/><text fill="#000000" font-family="sans-serif" font-size="14" font-weight="bold" lengthAdjust="spacing" textLength="67" x="42" y="574.292">services</text></g><!--cluster T--><g id="cluster_T"><path d="M40.5,714.2969 L85.5,714.2969 A3.75,3.75 0 0 1 88,716.7969 L95,736.5938 L248.5,736.5938 A2.5,2.5 0 0 1 251,739.0938 L251,826.7969 A2.5,2.5 0 0 1 248.5,829.2969 L40.5,829.2969 A2.5,2.5 0 0 1 38,826.7969 L38,716.7969 A2.5,2.5 0 0 1 40.5,714.2969 " fill="none" style="stroke:#000000;stroke-width:1.5;"/><line style="stroke:#000000;stroke-width:1.5;" x1="38" x2="95" y1="736.5938" y2="736.5938"/><text fill="#000000" font-family="sans-serif" font-size="14" font-weight="bold" lengthAdjust="spacing" textLength="44" x="42" y="729.292">types</text></g><!--cluster V--><g id="cluster_V"><path d="M40.5,869.2969 L87.5,869.2969 A3.75,3.75 0 0 1 90,871.7969 L97,891.5938 L838.5,891.5938 A2.5,2.5 0 0 1 841,894.0938 L841,1048.7969 A2.5,2.5 0 0 1 838.5,1051.2969 L40.5,1051.2969 A2.5,2.5 0 0 1 38,1048.7969 L38,871.7969 A2.5,2.5 0 0 1 40.5,869.2969 " fill="none" style="stroke:#000000;stroke-width:1.5;"/><line style="stroke:#000000;stroke-width:1.5;" x1="38" x2="97" y1="891.5938" y2="891.5938"/><text fill="#000000" font-family="sans-serif" font-size="14" font-weight="bold" lengthAdjust="spacing" textLength="46" x="42" y="884.292">views</text></g><!--cluster _partiels--><g id="cluster__partiels"><path d="M589.5,920.2969 L656.5,920.2969 A3.75,3.75 0 0 1 659,922.7969 L666,942.5938 L806.5,942.5938 A2.5,2.5 0 0 1 809,945.0938 L809,1016.7969 A2.5,2.5 0 0 1 806.5,1019.2969 L589.5,1019.2969 A2.5,2.5 0 0 1 587,1016.7969 L587,922.7969 A2.5,2.5 0 0 1 589.5,920.2969 " fill="none" style="stroke:#000000;stroke-width:1.5;"/><line style="stroke:#000000;stroke-width:1.5;" x1="587" x2="666" y1="942.5938" y2="942.5938"/><text fill="#000000" font-family="sans-serif" font-size="14" font-weight="bold" lengthAdjust="spacing" textLength="66" x="591" y="935.292">_partiels</text></g><!--cluster services--><g id="cluster_services"><path d="M275.5,920.2969 L343.5,920.2969 A3.75,3.75 0 0 1 346,922.7969 L353,942.5938 L560.5,942.5938 A2.5,2.5 0 0 1 563,945.0938 L563,1016.7969 A2.5,2.5 0 0 1 560.5,1019.2969 L275.5,1019.2969 A2.5,2.5 0 0 1 273,1016.7969 L273,922.7969 A2.5,2.5 0 0 1 275.5,920.2969 " fill="none" style="stroke:#000000;stroke-width:1.5;"/><line style="stroke:#000000;stroke-width:1.5;" x1="273" x2="353" y1="942.5938" y2="942.5938"/><text fill="#000000" font-family="sans-serif" font-size="14" font-weight="bold" lengthAdjust="spacing" textLength="67" x="277" y="935.292">services</text></g><!--class datasource--><g id="elem_datasource"><rect codeLine="41" fill="#F1F1F1" height="48" id="datasource" rx="2.5" ry="2.5" style="stroke:#181818;stroke-width:0.5;" width="110" x="22" y="1075.2969"/><ellipse cx="37" cy="1091.2969" fill="#ADD1B2" rx="11" ry="11" style="stroke:#181818;stroke-width:1.0;"/><path d="M39.9688,1096.9375 Q39.3906,1097.2344 38.75,1097.375 Q38.1094,1097.5313 37.4063,1097.5313 Q34.9063,1097.5313 33.5781,1095.8906 Q32.2656,1094.2344 32.2656,1091.1094 Q32.2656,1087.9844 33.5781,1086.3281 Q34.9063,1084.6719 37.4063,1084.6719 Q38.1094,1084.6719 38.75,1084.8281 Q39.4063,1084.9844 39.9688,1085.2813 L39.9688,1088 Q39.3438,1087.4219 38.75,1087.1563 Q38.1563,1086.875 37.5313,1086.875 Q36.1875,1086.875 35.5,1087.9531 Q34.8125,1089.0156 34.8125,1091.1094 Q34.8125,1093.2031 35.5,1094.2813 Q36.1875,1095.3438 37.5313,1095.3438 Q38.1563,1095.3438 38.75,1095.0781 Q39.3438,1094.7969 39.9688,1094.2188 L39.9688,1096.9375 Z " fill="#000000"/><text fill="#000000" font-family="sans-serif" font-size="14" lengthAdjust="spacing" textLength="78" x="51" y="1096.1436">datasource</text><line style="stroke:#181818;stroke-width:0.5;" x1="23" x2="131" y1="1107.2969" y2="1107.2969"/><line style="stroke:#181818;stroke-width:0.5;" x1="23" x2="131" y1="1115.2969" y2="1115.2969"/></g><!--class initData--><g id="elem_initData"><rect codeLine="42" fill="#F1F1F1" height="48" id="initData" rx="2.5" ry="2.5" style="stroke:#181818;stroke-width:0.5;" width="84" x="35" y="1183.2969"/><ellipse cx="50" cy="1199.2969" fill="#ADD1B2" rx="11" ry="11" style="stroke:#181818;stroke-width:1.0;"/><path d="M52.9688,1204.9375 Q52.3906,1205.2344 51.75,1205.375 Q51.1094,1205.5313 50.4063,1205.5313 Q47.9063,1205.5313 46.5781,1203.8906 Q45.2656,1202.2344 45.2656,1199.1094 Q45.2656,1195.9844 46.5781,1194.3281 Q47.9063,1192.6719 50.4063,1192.6719 Q51.1094,1192.6719 51.75,1192.8281 Q52.4063,1192.9844 52.9688,1193.2813 L52.9688,1196 Q52.3438,1195.4219 51.75,1195.1563 Q51.1563,1194.875 50.5313,1194.875 Q49.1875,1194.875 48.5,1195.9531 Q47.8125,1197.0156 47.8125,1199.1094 Q47.8125,1201.2031 48.5,1202.2813 Q49.1875,1203.3438 50.5313,1203.3438 Q51.1563,1203.3438 51.75,1203.0781 Q52.3438,1202.7969 52.9688,1202.2188 L52.9688,1204.9375 Z " fill="#000000"/><text fill="#000000" font-family="sans-serif" font-size="14" lengthAdjust="spacing" textLength="52" x="64" y="1204.1436">initData</text><line style="stroke:#181818;stroke-width:0.5;" x1="36" x2="118" y1="1215.2969" y2="1215.2969"/><line style="stroke:#181818;stroke-width:0.5;" x1="36" x2="118" y1="1223.2969" y2="1223.2969"/></g><!--class server--><g id="elem_server"><rect codeLine="43" fill="#F1F1F1" height="48" id="server" rx="2.5" ry="2.5" style="stroke:#181818;stroke-width:0.5;" width="75" x="39.5" y="1291.2969"/><ellipse cx="54.5" cy="1307.2969" fill="#ADD1B2" rx="11" ry="11" style="stroke:#181818;stroke-width:1.0;"/><path d="M57.4688,1312.9375 Q56.8906,1313.2344 56.25,1313.375 Q55.6094,1313.5313 54.9063,1313.5313 Q52.4063,1313.5313 51.0781,1311.8906 Q49.7656,1310.2344 49.7656,1307.1094 Q49.7656,1303.9844 51.0781,1302.3281 Q52.4063,1300.6719 54.9063,1300.6719 Q55.6094,1300.6719 56.25,1300.8281 Q56.9063,1300.9844 57.4688,1301.2813 L57.4688,1304 Q56.8438,1303.4219 56.25,1303.1563 Q55.6563,1302.875 55.0313,1302.875 Q53.6875,1302.875 53,1303.9531 Q52.3125,1305.0156 52.3125,1307.1094 Q52.3125,1309.2031 53,1310.2813 Q53.6875,1311.3438 55.0313,1311.3438 Q55.6563,1311.3438 56.25,1311.0781 Q56.8438,1310.7969 57.4688,1310.2188 L57.4688,1312.9375 Z " fill="#000000"/><text fill="#000000" font-family="sans-serif" font-size="14" lengthAdjust="spacing" textLength="43" x="68.5" y="1312.1436">server</text><line style="stroke:#181818;stroke-width:0.5;" x1="40.5" x2="113.5" y1="1323.2969" y2="1323.2969"/><line style="stroke:#181818;stroke-width:0.5;" x1="40.5" x2="113.5" y1="1331.2969" y2="1331.2969"/></g><!--class mainStoreController--><g id="elem_mainStoreController"><rect codeLine="6" fill="#F1F1F1" height="48" id="mainStoreController" rx="2.5" ry="2.5" style="stroke:#181818;stroke-width:0.5;" width="169" x="272.5" y="137.2969"/><ellipse cx="287.5" cy="153.2969" fill="#ADD1B2" rx="11" ry="11" style="stroke:#181818;stroke-width:1.0;"/><path d="M290.4688,158.9375 Q289.8906,159.2344 289.25,159.375 Q288.6094,159.5313 287.9063,159.5313 Q285.4063,159.5313 284.0781,157.8906 Q282.7656,156.2344 282.7656,153.1094 Q282.7656,149.9844 284.0781,148.3281 Q285.4063,146.6719 287.9063,146.6719 Q288.6094,146.6719 289.25,146.8281 Q289.9063,146.9844 290.4688,147.2813 L290.4688,150 Q289.8438,149.4219 289.25,149.1563 Q288.6563,148.875 288.0313,148.875 Q286.6875,148.875 286,149.9531 Q285.3125,151.0156 285.3125,153.1094 Q285.3125,155.2031 286,156.2813 Q286.6875,157.3438 288.0313,157.3438 Q288.6563,157.3438 289.25,157.0781 Q289.8438,156.7969 290.4688,156.2188 L290.4688,158.9375 Z " fill="#000000"/><text fill="#000000" font-family="sans-serif" font-size="14" lengthAdjust="spacing" textLength="137" x="301.5" y="158.1436">mainStoreController</text><line style="stroke:#181818;stroke-width:0.5;" x1="273.5" x2="440.5" y1="169.2969" y2="169.2969"/><line style="stroke:#181818;stroke-width:0.5;" x1="273.5" x2="440.5" y1="177.2969" y2="177.2969"/></g><!--class servicesController--><g id="elem_servicesController"><rect codeLine="7" fill="#F1F1F1" height="48" id="servicesController" rx="2.5" ry="2.5" style="stroke:#181818;stroke-width:0.5;" width="156" x="81" y="137.2969"/><ellipse cx="96" cy="153.2969" fill="#ADD1B2" rx="11" ry="11" style="stroke:#181818;stroke-width:1.0;"/><path d="M98.9688,158.9375 Q98.3906,159.2344 97.75,159.375 Q97.1094,159.5313 96.4063,159.5313 Q93.9063,159.5313 92.5781,157.8906 Q91.2656,156.2344 91.2656,153.1094 Q91.2656,149.9844 92.5781,148.3281 Q93.9063,146.6719 96.4063,146.6719 Q97.1094,146.6719 97.75,146.8281 Q98.4063,146.9844 98.9688,147.2813 L98.9688,150 Q98.3438,149.4219 97.75,149.1563 Q97.1563,148.875 96.5313,148.875 Q95.1875,148.875 94.5,149.9531 Q93.8125,151.0156 93.8125,153.1094 Q93.8125,155.2031 94.5,156.2813 Q95.1875,157.3438 96.5313,157.3438 Q97.1563,157.3438 97.75,157.0781 Q98.3438,156.7969 98.9688,156.2188 L98.9688,158.9375 Z " fill="#000000"/><text fill="#000000" font-family="sans-serif" font-size="14" lengthAdjust="spacing" textLength="124" x="110" y="158.1436">servicesController</text><line style="stroke:#181818;stroke-width:0.5;" x1="82" x2="236" y1="169.2969" y2="169.2969"/><line style="stroke:#181818;stroke-width:0.5;" x1="82" x2="236" y1="177.2969" y2="177.2969"/></g><!--class Inventory--><g id="elem_Inventory"><rect codeLine="10" fill="#F1F1F1" height="48" id="Inventory" rx="2.5" ry="2.5" style="stroke:#181818;stroke-width:0.5;" width="95" x="207.5" y="292.2969"/><ellipse cx="222.5" cy="308.2969" fill="#ADD1B2" rx="11" ry="11" style="stroke:#181818;stroke-width:1.0;"/><path d="M225.4688,313.9375 Q224.8906,314.2344 224.25,314.375 Q223.6094,314.5313 222.9063,314.5313 Q220.4063,314.5313 219.0781,312.8906 Q217.7656,311.2344 217.7656,308.1094 Q217.7656,304.9844 219.0781,303.3281 Q220.4063,301.6719 222.9063,301.6719 Q223.6094,301.6719 224.25,301.8281 Q224.9063,301.9844 225.4688,302.2813 L225.4688,305 Q224.8438,304.4219 224.25,304.1563 Q223.6563,303.875 223.0313,303.875 Q221.6875,303.875 221,304.9531 Q220.3125,306.0156 220.3125,308.1094 Q220.3125,310.2031 221,311.2813 Q221.6875,312.3438 223.0313,312.3438 Q223.6563,312.3438 224.25,312.0781 Q224.8438,311.7969 225.4688,311.2188 L225.4688,313.9375 Z " fill="#000000"/><text fill="#000000" font-family="sans-serif" font-size="14" lengthAdjust="spacing" textLength="63" x="236.5" y="313.1436">Inventory</text><line style="stroke:#181818;stroke-width:0.5;" x1="208.5" x2="301.5" y1="324.2969" y2="324.2969"/><line style="stroke:#181818;stroke-width:0.5;" x1="208.5" x2="301.5" y1="332.2969" y2="332.2969"/></g><!--class Product--><g id="elem_Product"><rect codeLine="11" fill="#F1F1F1" height="48" id="Product" rx="2.5" ry="2.5" style="stroke:#181818;stroke-width:0.5;" width="86" x="338" y="292.2969"/><ellipse cx="353" cy="308.2969" fill="#ADD1B2" rx="11" ry="11" style="stroke:#181818;stroke-width:1.0;"/><path d="M355.9688,313.9375 Q355.3906,314.2344 354.75,314.375 Q354.1094,314.5313 353.4063,314.5313 Q350.9063,314.5313 349.5781,312.8906 Q348.2656,311.2344 348.2656,308.1094 Q348.2656,304.9844 349.5781,303.3281 Q350.9063,301.6719 353.4063,301.6719 Q354.1094,301.6719 354.75,301.8281 Q355.4063,301.9844 355.9688,302.2813 L355.9688,305 Q355.3438,304.4219 354.75,304.1563 Q354.1563,303.875 353.5313,303.875 Q352.1875,303.875 351.5,304.9531 Q350.8125,306.0156 350.8125,308.1094 Q350.8125,310.2031 351.5,311.2813 Q352.1875,312.3438 353.5313,312.3438 Q354.1563,312.3438 354.75,312.0781 Q355.3438,311.7969 355.9688,311.2188 L355.9688,313.9375 Z " fill="#000000"/><text fill="#000000" font-family="sans-serif" font-size="14" lengthAdjust="spacing" textLength="54" x="367" y="313.1436">Product</text><line style="stroke:#181818;stroke-width:0.5;" x1="339" x2="423" y1="324.2969" y2="324.2969"/><line style="stroke:#181818;stroke-width:0.5;" x1="339" x2="423" y1="332.2969" y2="332.2969"/></g><!--class Sale--><g id="elem_Sale"><rect codeLine="12" fill="#F1F1F1" height="48" id="Sale" rx="2.5" ry="2.5" style="stroke:#181818;stroke-width:0.5;" width="61" x="459.5" y="292.2969"/><ellipse cx="474.5" cy="308.2969" fill="#ADD1B2" rx="11" ry="11" style="stroke:#181818;stroke-width:1.0;"/><path d="M477.4688,313.9375 Q476.8906,314.2344 476.25,314.375 Q475.6094,314.5313 474.9063,314.5313 Q472.4063,314.5313 471.0781,312.8906 Q469.7656,311.2344 469.7656,308.1094 Q469.7656,304.9844 471.0781,303.3281 Q472.4063,301.6719 474.9063,301.6719 Q475.6094,301.6719 476.25,301.8281 Q476.9063,301.9844 477.4688,302.2813 L477.4688,305 Q476.8438,304.4219 476.25,304.1563 Q475.6563,303.875 475.0313,303.875 Q473.6875,303.875 473,304.9531 Q472.3125,306.0156 472.3125,308.1094 Q472.3125,310.2031 473,311.2813 Q473.6875,312.3438 475.0313,312.3438 Q475.6563,312.3438 476.25,312.0781 Q476.8438,311.7969 477.4688,311.2188 L477.4688,313.9375 Z " fill="#000000"/><text fill="#000000" font-family="sans-serif" font-size="14" lengthAdjust="spacing" textLength="29" x="488.5" y="313.1436">Sale</text><line style="stroke:#181818;stroke-width:0.5;" x1="460.5" x2="519.5" y1="324.2969" y2="324.2969"/><line style="stroke:#181818;stroke-width:0.5;" x1="460.5" x2="519.5" y1="332.2969" y2="332.2969"/></g><!--class SaleItem--><g id="elem_SaleItem"><rect codeLine="13" fill="#F1F1F1" height="48" id="SaleItem" rx="2.5" ry="2.5" style="stroke:#181818;stroke-width:0.5;" width="91" x="81.5" y="292.2969"/><ellipse cx="96.5" cy="308.2969" fill="#ADD1B2" rx="11" ry="11" style="stroke:#181818;stroke-width:1.0;"/><path d="M99.4688,313.9375 Q98.8906,314.2344 98.25,314.375 Q97.6094,314.5313 96.9063,314.5313 Q94.4063,314.5313 93.0781,312.8906 Q91.7656,311.2344 91.7656,308.1094 Q91.7656,304.9844 93.0781,303.3281 Q94.4063,301.6719 96.9063,301.6719 Q97.6094,301.6719 98.25,301.8281 Q98.9063,301.9844 99.4688,302.2813 L99.4688,305 Q98.8438,304.4219 98.25,304.1563 Q97.6563,303.875 97.0313,303.875 Q95.6875,303.875 95,304.9531 Q94.3125,306.0156 94.3125,308.1094 Q94.3125,310.2031 95,311.2813 Q95.6875,312.3438 97.0313,312.3438 Q97.6563,312.3438 98.25,312.0781 Q98.8438,311.7969 99.4688,311.2188 L99.4688,313.9375 Z " fill="#000000"/><text fill="#000000" font-family="sans-serif" font-size="14" lengthAdjust="spacing" textLength="59" x="110.5" y="313.1436">SaleItem</text><line style="stroke:#181818;stroke-width:0.5;" x1="82.5" x2="171.5" y1="324.2969" y2="324.2969"/><line style="stroke:#181818;stroke-width:0.5;" x1="82.5" x2="171.5" y1="332.2969" y2="332.2969"/></g><!--class Store--><g id="elem_Store"><rect codeLine="14" fill="#F1F1F1" height="48" id="Store" rx="2.5" ry="2.5" style="stroke:#181818;stroke-width:0.5;" width="69" x="555.5" y="292.2969"/><ellipse cx="570.5" cy="308.2969" fill="#ADD1B2" rx="11" ry="11" style="stroke:#181818;stroke-width:1.0;"/><path d="M573.4688,313.9375 Q572.8906,314.2344 572.25,314.375 Q571.6094,314.5313 570.9063,314.5313 Q568.4063,314.5313 567.0781,312.8906 Q565.7656,311.2344 565.7656,308.1094 Q565.7656,304.9844 567.0781,303.3281 Q568.4063,301.6719 570.9063,301.6719 Q571.6094,301.6719 572.25,301.8281 Q572.9063,301.9844 573.4688,302.2813 L573.4688,305 Q572.8438,304.4219 572.25,304.1563 Q571.6563,303.875 571.0313,303.875 Q569.6875,303.875 569,304.9531 Q568.3125,306.0156 568.3125,308.1094 Q568.3125,310.2031 569,311.2813 Q569.6875,312.3438 571.0313,312.3438 Q571.6563,312.3438 572.25,312.0781 Q572.8438,311.7969 573.4688,311.2188 L573.4688,313.9375 Z " fill="#000000"/><text fill="#000000" font-family="sans-serif" font-size="14" lengthAdjust="spacing" textLength="37" x="584.5" y="313.1436">Store</text><line style="stroke:#181818;stroke-width:0.5;" x1="556.5" x2="623.5" y1="324.2969" y2="324.2969"/><line style="stroke:#181818;stroke-width:0.5;" x1="556.5" x2="623.5" y1="332.2969" y2="332.2969"/></g><!--class authRouter--><g id="elem_authRouter"><rect codeLine="17" fill="#F1F1F1" height="48" id="authRouter" rx="2.5" ry="2.5" style="stroke:#181818;stroke-width:0.5;" width="110" x="81" y="447.2969"/><ellipse cx="96" cy="463.2969" fill="#ADD1B2" rx="11" ry="11" style="stroke:#181818;stroke-width:1.0;"/><path d="M98.9688,468.9375 Q98.3906,469.2344 97.75,469.375 Q97.1094,469.5313 96.4063,469.5313 Q93.9063,469.5313 92.5781,467.8906 Q91.2656,466.2344 91.2656,463.1094 Q91.2656,459.9844 92.5781,458.3281 Q93.9063,456.6719 96.4063,456.6719 Q97.1094,456.6719 97.75,456.8281 Q98.4063,456.9844 98.9688,457.2813 L98.9688,460 Q98.3438,459.4219 97.75,459.1563 Q97.1563,458.875 96.5313,458.875 Q95.1875,458.875 94.5,459.9531 Q93.8125,461.0156 93.8125,463.1094 Q93.8125,465.2031 94.5,466.2813 Q95.1875,467.3438 96.5313,467.3438 Q97.1563,467.3438 97.75,467.0781 Q98.3438,466.7969 98.9688,466.2188 L98.9688,468.9375 Z " fill="#000000"/><text fill="#000000" font-family="sans-serif" font-size="14" lengthAdjust="spacing" textLength="78" x="110" y="468.1436">authRouter</text><line style="stroke:#181818;stroke-width:0.5;" x1="82" x2="190" y1="479.2969" y2="479.2969"/><line style="stroke:#181818;stroke-width:0.5;" x1="82" x2="190" y1="487.2969" y2="487.2969"/></g><!--class homeRouter--><g id="elem_homeRouter"><rect codeLine="18" fill="#F1F1F1" height="48" id="homeRouter" rx="2.5" ry="2.5" style="stroke:#181818;stroke-width:0.5;" width="119" x="226.5" y="447.2969"/><ellipse cx="241.5" cy="463.2969" fill="#ADD1B2" rx="11" ry="11" style="stroke:#181818;stroke-width:1.0;"/><path d="M244.4688,468.9375 Q243.8906,469.2344 243.25,469.375 Q242.6094,469.5313 241.9063,469.5313 Q239.4063,469.5313 238.0781,467.8906 Q236.7656,466.2344 236.7656,463.1094 Q236.7656,459.9844 238.0781,458.3281 Q239.4063,456.6719 241.9063,456.6719 Q242.6094,456.6719 243.25,456.8281 Q243.9063,456.9844 244.4688,457.2813 L244.4688,460 Q243.8438,459.4219 243.25,459.1563 Q242.6563,458.875 242.0313,458.875 Q240.6875,458.875 240,459.9531 Q239.3125,461.0156 239.3125,463.1094 Q239.3125,465.2031 240,466.2813 Q240.6875,467.3438 242.0313,467.3438 Q242.6563,467.3438 243.25,467.0781 Q243.8438,466.7969 244.4688,466.2188 L244.4688,468.9375 Z " fill="#000000"/><text fill="#000000" font-family="sans-serif" font-size="14" lengthAdjust="spacing" textLength="87" x="255.5" y="468.1436">homeRouter</text><line style="stroke:#181818;stroke-width:0.5;" x1="227.5" x2="344.5" y1="479.2969" y2="479.2969"/><line style="stroke:#181818;stroke-width:0.5;" x1="227.5" x2="344.5" y1="487.2969" y2="487.2969"/></g><!--class serviceApiRouter--><g id="elem_serviceApiRouter"><rect codeLine="19" fill="#F1F1F1" height="48" id="serviceApiRouter" rx="2.5" ry="2.5" style="stroke:#181818;stroke-width:0.5;" width="149" x="380.5" y="447.2969"/><ellipse cx="395.5" cy="463.2969" fill="#ADD1B2" rx="11" ry="11" style="stroke:#181818;stroke-width:1.0;"/><path d="M398.4688,468.9375 Q397.8906,469.2344 397.25,469.375 Q396.6094,469.5313 395.9063,469.5313 Q393.4063,469.5313 392.0781,467.8906 Q390.7656,466.2344 390.7656,463.1094 Q390.7656,459.9844 392.0781,458.3281 Q393.4063,456.6719 395.9063,456.6719 Q396.6094,456.6719 397.25,456.8281 Q397.9063,456.9844 398.4688,457.2813 L398.4688,460 Q397.8438,459.4219 397.25,459.1563 Q396.6563,458.875 396.0313,458.875 Q394.6875,458.875 394,459.9531 Q393.3125,461.0156 393.3125,463.1094 Q393.3125,465.2031 394,466.2813 Q394.6875,467.3438 396.0313,467.3438 Q396.6563,467.3438 397.25,467.0781 Q397.8438,466.7969 398.4688,466.2188 L398.4688,468.9375 Z " fill="#000000"/><text fill="#000000" font-family="sans-serif" font-size="14" lengthAdjust="spacing" textLength="117" x="409.5" y="468.1436">serviceApiRouter</text><line style="stroke:#181818;stroke-width:0.5;" x1="381.5" x2="528.5" y1="479.2969" y2="479.2969"/><line style="stroke:#181818;stroke-width:0.5;" x1="381.5" x2="528.5" y1="487.2969" y2="487.2969"/></g><!--class servicesRouter--><g id="elem_servicesRouter"><rect codeLine="20" fill="#F1F1F1" height="48" id="servicesRouter" rx="2.5" ry="2.5" style="stroke:#181818;stroke-width:0.5;" width="136" x="565" y="447.2969"/><ellipse cx="580" cy="463.2969" fill="#ADD1B2" rx="11" ry="11" style="stroke:#181818;stroke-width:1.0;"/><path d="M582.9688,468.9375 Q582.3906,469.2344 581.75,469.375 Q581.1094,469.5313 580.4063,469.5313 Q577.9063,469.5313 576.5781,467.8906 Q575.2656,466.2344 575.2656,463.1094 Q575.2656,459.9844 576.5781,458.3281 Q577.9063,456.6719 580.4063,456.6719 Q581.1094,456.6719 581.75,456.8281 Q582.4063,456.9844 582.9688,457.2813 L582.9688,460 Q582.3438,459.4219 581.75,459.1563 Q581.1563,458.875 580.5313,458.875 Q579.1875,458.875 578.5,459.9531 Q577.8125,461.0156 577.8125,463.1094 Q577.8125,465.2031 578.5,466.2813 Q579.1875,467.3438 580.5313,467.3438 Q581.1563,467.3438 581.75,467.0781 Q582.3438,466.7969 582.9688,466.2188 L582.9688,468.9375 Z " fill="#000000"/><text fill="#000000" font-family="sans-serif" font-size="14" lengthAdjust="spacing" textLength="104" x="594" y="468.1436">servicesRouter</text><line style="stroke:#181818;stroke-width:0.5;" x1="566" x2="700" y1="479.2969" y2="479.2969"/><line style="stroke:#181818;stroke-width:0.5;" x1="566" x2="700" y1="487.2969" y2="487.2969"/></g><!--class productService--><g id="elem_productService"><rect codeLine="23" fill="#F1F1F1" height="48" id="productService" rx="2.5" ry="2.5" style="stroke:#181818;stroke-width:0.5;" width="136" x="226" y="602.2969"/><ellipse cx="241" cy="618.2969" fill="#ADD1B2" rx="11" ry="11" style="stroke:#181818;stroke-width:1.0;"/><path d="M243.9688,623.9375 Q243.3906,624.2344 242.75,624.375 Q242.1094,624.5313 241.4063,624.5313 Q238.9063,624.5313 237.5781,622.8906 Q236.2656,621.2344 236.2656,618.1094 Q236.2656,614.9844 237.5781,613.3281 Q238.9063,611.6719 241.4063,611.6719 Q242.1094,611.6719 242.75,611.8281 Q243.4063,611.9844 243.9688,612.2813 L243.9688,615 Q243.3438,614.4219 242.75,614.1563 Q242.1563,613.875 241.5313,613.875 Q240.1875,613.875 239.5,614.9531 Q238.8125,616.0156 238.8125,618.1094 Q238.8125,620.2031 239.5,621.2813 Q240.1875,622.3438 241.5313,622.3438 Q242.1563,622.3438 242.75,622.0781 Q243.3438,621.7969 243.9688,621.2188 L243.9688,623.9375 Z " fill="#000000"/><text fill="#000000" font-family="sans-serif" font-size="14" lengthAdjust="spacing" textLength="104" x="255" y="623.1436">productService</text><line style="stroke:#181818;stroke-width:0.5;" x1="227" x2="361" y1="634.2969" y2="634.2969"/><line style="stroke:#181818;stroke-width:0.5;" x1="227" x2="361" y1="642.2969" y2="642.2969"/></g><!--class saleService--><g id="elem_saleService"><rect codeLine="24" fill="#F1F1F1" height="48" id="saleService" rx="2.5" ry="2.5" style="stroke:#181818;stroke-width:0.5;" width="110" x="81" y="602.2969"/><ellipse cx="96" cy="618.2969" fill="#ADD1B2" rx="11" ry="11" style="stroke:#181818;stroke-width:1.0;"/><path d="M98.9688,623.9375 Q98.3906,624.2344 97.75,624.375 Q97.1094,624.5313 96.4063,624.5313 Q93.9063,624.5313 92.5781,622.8906 Q91.2656,621.2344 91.2656,618.1094 Q91.2656,614.9844 92.5781,613.3281 Q93.9063,611.6719 96.4063,611.6719 Q97.1094,611.6719 97.75,611.8281 Q98.4063,611.9844 98.9688,612.2813 L98.9688,615 Q98.3438,614.4219 97.75,614.1563 Q97.1563,613.875 96.5313,613.875 Q95.1875,613.875 94.5,614.9531 Q93.8125,616.0156 93.8125,618.1094 Q93.8125,620.2031 94.5,621.2813 Q95.1875,622.3438 96.5313,622.3438 Q97.1563,622.3438 97.75,622.0781 Q98.3438,621.7969 98.9688,621.2188 L98.9688,623.9375 Z " fill="#000000"/><text fill="#000000" font-family="sans-serif" font-size="14" lengthAdjust="spacing" textLength="78" x="110" y="623.1436">saleService</text><line style="stroke:#181818;stroke-width:0.5;" x1="82" x2="190" y1="634.2969" y2="634.2969"/><line style="stroke:#181818;stroke-width:0.5;" x1="82" x2="190" y1="642.2969" y2="642.2969"/></g><!--class express-session--><g id="elem_express-session"><rect codeLine="27" fill="#F1F1F1" height="48" id="express-session" rx="2.5" ry="2.5" style="stroke:#181818;stroke-width:0.5;" width="146" x="81" y="757.2969"/><ellipse cx="96" cy="773.2969" fill="#ADD1B2" rx="11" ry="11" style="stroke:#181818;stroke-width:1.0;"/><path d="M98.9688,778.9375 Q98.3906,779.2344 97.75,779.375 Q97.1094,779.5313 96.4063,779.5313 Q93.9063,779.5313 92.5781,777.8906 Q91.2656,776.2344 91.2656,773.1094 Q91.2656,769.9844 92.5781,768.3281 Q93.9063,766.6719 96.4063,766.6719 Q97.1094,766.6719 97.75,766.8281 Q98.4063,766.9844 98.9688,767.2813 L98.9688,770 Q98.3438,769.4219 97.75,769.1563 Q97.1563,768.875 96.5313,768.875 Q95.1875,768.875 94.5,769.9531 Q93.8125,771.0156 93.8125,773.1094 Q93.8125,775.2031 94.5,776.2813 Q95.1875,777.3438 96.5313,777.3438 Q97.1563,777.3438 97.75,777.0781 Q98.3438,776.7969 98.9688,776.2188 L98.9688,778.9375 Z " fill="#000000"/><text fill="#000000" font-family="sans-serif" font-size="14" lengthAdjust="spacing" textLength="114" x="110" y="778.1436">express-session</text><line style="stroke:#181818;stroke-width:0.5;" x1="82" x2="226" y1="789.2969" y2="789.2969"/><line style="stroke:#181818;stroke-width:0.5;" x1="82" x2="226" y1="797.2969" y2="797.2969"/></g><!--class home--><g id="elem_home"><rect codeLine="38" fill="#F1F1F1" height="48" id="home" rx="2.5" ry="2.5" style="stroke:#181818;stroke-width:0.5;" width="72" x="182" y="955.2969"/><ellipse cx="197" cy="971.2969" fill="#ADD1B2" rx="11" ry="11" style="stroke:#181818;stroke-width:1.0;"/><path d="M199.9688,976.9375 Q199.3906,977.2344 198.75,977.375 Q198.1094,977.5313 197.4063,977.5313 Q194.9063,977.5313 193.5781,975.8906 Q192.2656,974.2344 192.2656,971.1094 Q192.2656,967.9844 193.5781,966.3281 Q194.9063,964.6719 197.4063,964.6719 Q198.1094,964.6719 198.75,964.8281 Q199.4063,964.9844 199.9688,965.2813 L199.9688,968 Q199.3438,967.4219 198.75,967.1563 Q198.1563,966.875 197.5313,966.875 Q196.1875,966.875 195.5,967.9531 Q194.8125,969.0156 194.8125,971.1094 Q194.8125,973.2031 195.5,974.2813 Q196.1875,975.3438 197.5313,975.3438 Q198.1563,975.3438 198.75,975.0781 Q199.3438,974.7969 199.9688,974.2188 L199.9688,976.9375 Z " fill="#000000"/><text fill="#000000" font-family="sans-serif" font-size="14" lengthAdjust="spacing" textLength="40" x="211" y="976.1436">home</text><line style="stroke:#181818;stroke-width:0.5;" x1="183" x2="253" y1="987.2969" y2="987.2969"/><line style="stroke:#181818;stroke-width:0.5;" x1="183" x2="253" y1="995.2969" y2="995.2969"/></g><!--class login--><g id="elem_login"><rect codeLine="39" fill="#F1F1F1" height="48" id="login" rx="2.5" ry="2.5" style="stroke:#181818;stroke-width:0.5;" width="65" x="81.5" y="955.2969"/><ellipse cx="96.5" cy="971.2969" fill="#ADD1B2" rx="11" ry="11" style="stroke:#181818;stroke-width:1.0;"/><path d="M99.4688,976.9375 Q98.8906,977.2344 98.25,977.375 Q97.6094,977.5313 96.9063,977.5313 Q94.4063,977.5313 93.0781,975.8906 Q91.7656,974.2344 91.7656,971.1094 Q91.7656,967.9844 93.0781,966.3281 Q94.4063,964.6719 96.9063,964.6719 Q97.6094,964.6719 98.25,964.8281 Q98.9063,964.9844 99.4688,965.2813 L99.4688,968 Q98.8438,967.4219 98.25,967.1563 Q97.6563,966.875 97.0313,966.875 Q95.6875,966.875 95,967.9531 Q94.3125,969.0156 94.3125,971.1094 Q94.3125,973.2031 95,974.2813 Q95.6875,975.3438 97.0313,975.3438 Q97.6563,975.3438 98.25,975.0781 Q98.8438,974.7969 99.4688,974.2188 L99.4688,976.9375 Z " fill="#000000"/><text fill="#000000" font-family="sans-serif" font-size="14" lengthAdjust="spacing" textLength="33" x="110.5" y="976.1436">login</text><line style="stroke:#181818;stroke-width:0.5;" x1="82.5" x2="145.5" y1="987.2969" y2="987.2969"/><line style="stroke:#181818;stroke-width:0.5;" x1="82.5" x2="145.5" y1="995.2969" y2="995.2969"/></g><!--class footer--><g id="elem_footer"><rect codeLine="31" fill="#F1F1F1" height="48" id="footer" rx="2.5" ry="2.5" style="stroke:#181818;stroke-width:0.5;" width="73" x="719.5" y="955.2969"/><ellipse cx="734.5" cy="971.2969" fill="#ADD1B2" rx="11" ry="11" style="stroke:#181818;stroke-width:1.0;"/><path d="M737.4688,976.9375 Q736.8906,977.2344 736.25,977.375 Q735.6094,977.5313 734.9063,977.5313 Q732.4063,977.5313 731.0781,975.8906 Q729.7656,974.2344 729.7656,971.1094 Q729.7656,967.9844 731.0781,966.3281 Q732.4063,964.6719 734.9063,964.6719 Q735.6094,964.6719 736.25,964.8281 Q736.9063,964.9844 737.4688,965.2813 L737.4688,968 Q736.8438,967.4219 736.25,967.1563 Q735.6563,966.875 735.0313,966.875 Q733.6875,966.875 733,967.9531 Q732.3125,969.0156 732.3125,971.1094 Q732.3125,973.2031 733,974.2813 Q733.6875,975.3438 735.0313,975.3438 Q735.6563,975.3438 736.25,975.0781 Q736.8438,974.7969 737.4688,974.2188 L737.4688,976.9375 Z " fill="#000000"/><text fill="#000000" font-family="sans-serif" font-size="14" lengthAdjust="spacing" textLength="41" x="748.5" y="976.1436">footer</text><line style="stroke:#181818;stroke-width:0.5;" x1="720.5" x2="791.5" y1="987.2969" y2="987.2969"/><line style="stroke:#181818;stroke-width:0.5;" x1="720.5" x2="791.5" y1="995.2969" y2="995.2969"/></g><!--class header--><g id="elem_header"><rect codeLine="32" fill="#F1F1F1" height="48" id="header" rx="2.5" ry="2.5" style="stroke:#181818;stroke-width:0.5;" width="81" x="603.5" y="955.2969"/><ellipse cx="618.5" cy="971.2969" fill="#ADD1B2" rx="11" ry="11" style="stroke:#181818;stroke-width:1.0;"/><path d="M621.4688,976.9375 Q620.8906,977.2344 620.25,977.375 Q619.6094,977.5313 618.9063,977.5313 Q616.4063,977.5313 615.0781,975.8906 Q613.7656,974.2344 613.7656,971.1094 Q613.7656,967.9844 615.0781,966.3281 Q616.4063,964.6719 618.9063,964.6719 Q619.6094,964.6719 620.25,964.8281 Q620.9063,964.9844 621.4688,965.2813 L621.4688,968 Q620.8438,967.4219 620.25,967.1563 Q619.6563,966.875 619.0313,966.875 Q617.6875,966.875 617,967.9531 Q616.3125,969.0156 616.3125,971.1094 Q616.3125,973.2031 617,974.2813 Q617.6875,975.3438 619.0313,975.3438 Q619.6563,975.3438 620.25,975.0781 Q620.8438,974.7969 621.4688,974.2188 L621.4688,976.9375 Z " fill="#000000"/><text fill="#000000" font-family="sans-serif" font-size="14" lengthAdjust="spacing" textLength="49" x="632.5" y="976.1436">header</text><line style="stroke:#181818;stroke-width:0.5;" x1="604.5" x2="683.5" y1="987.2969" y2="987.2969"/><line style="stroke:#181818;stroke-width:0.5;" x1="604.5" x2="683.5" y1="995.2969" y2="995.2969"/></g><!--class services--><g id="elem_services"><rect codeLine="35" fill="#F1F1F1" height="48" id="services" rx="2.5" ry="2.5" style="stroke:#181818;stroke-width:0.5;" width="89" x="458.5" y="955.2969"/><ellipse cx="473.5" cy="971.2969" fill="#ADD1B2" rx="11" ry="11" style="stroke:#181818;stroke-width:1.0;"/><path d="M476.4688,976.9375 Q475.8906,977.2344 475.25,977.375 Q474.6094,977.5313 473.9063,977.5313 Q471.4063,977.5313 470.0781,975.8906 Q468.7656,974.2344 468.7656,971.1094 Q468.7656,967.9844 470.0781,966.3281 Q471.4063,964.6719 473.9063,964.6719 Q474.6094,964.6719 475.25,964.8281 Q475.9063,964.9844 476.4688,965.2813 L476.4688,968 Q475.8438,967.4219 475.25,967.1563 Q474.6563,966.875 474.0313,966.875 Q472.6875,966.875 472,967.9531 Q471.3125,969.0156 471.3125,971.1094 Q471.3125,973.2031 472,974.2813 Q472.6875,975.3438 474.0313,975.3438 Q474.6563,975.3438 475.25,975.0781 Q475.8438,974.7969 476.4688,974.2188 L476.4688,976.9375 Z " fill="#000000"/><text fill="#000000" font-family="sans-serif" font-size="14" lengthAdjust="spacing" textLength="57" x="487.5" y="976.1436">services</text><line style="stroke:#181818;stroke-width:0.5;" x1="459.5" x2="546.5" y1="987.2969" y2="987.2969"/><line style="stroke:#181818;stroke-width:0.5;" x1="459.5" x2="546.5" y1="995.2969" y2="995.2969"/></g><!--class autresServices--><g id="elem_autresServices"><rect codeLine="36" fill="#F1F1F1" height="48" id="autresServices" rx="2.5" ry="2.5" style="stroke:#181818;stroke-width:0.5;" width="134" x="289" y="955.2969"/><ellipse cx="304" cy="971.2969" fill="#ADD1B2" rx="11" ry="11" style="stroke:#181818;stroke-width:1.0;"/><path d="M306.9688,976.9375 Q306.3906,977.2344 305.75,977.375 Q305.1094,977.5313 304.4063,977.5313 Q301.9063,977.5313 300.5781,975.8906 Q299.2656,974.2344 299.2656,971.1094 Q299.2656,967.9844 300.5781,966.3281 Q301.9063,964.6719 304.4063,964.6719 Q305.1094,964.6719 305.75,964.8281 Q306.4063,964.9844 306.9688,965.2813 L306.9688,968 Q306.3438,967.4219 305.75,967.1563 Q305.1563,966.875 304.5313,966.875 Q303.1875,966.875 302.5,967.9531 Q301.8125,969.0156 301.8125,971.1094 Q301.8125,973.2031 302.5,974.2813 Q303.1875,975.3438 304.5313,975.3438 Q305.1563,975.3438 305.75,975.0781 Q306.3438,974.7969 306.9688,974.2188 L306.9688,976.9375 Z " fill="#000000"/><text fill="#000000" font-family="sans-serif" font-size="14" lengthAdjust="spacing" textLength="102" x="318" y="976.1436">autresServices</text><line style="stroke:#181818;stroke-width:0.5;" x1="290" x2="422" y1="987.2969" y2="987.2969"/><line style="stroke:#181818;stroke-width:0.5;" x1="290" x2="422" y1="995.2969" y2="995.2969"/></g><!--link Product to Sale--><!--link Sale to Store--><!--link homeRouter to serviceApiRouter--><!--link serviceApiRouter to servicesRouter--><!--link C to E--><!--link E to R--><!--link R to S--><!--link S to T--><!--link T to V--><!--link V to datasource--><!--link datasource to initData--><!--link initData to server--><!--SRC=[VLBBRiCW4Bpp5SXtVqILvf1JAplAfQegP6zjL08MYvD6bV-zEFX15hSS49gPVGthf5F0NsmZj4JXfD6y1kHdK_SAaB5EL5-Y0PwXhJB-mxW_2rOPxQnH2YncN23VJOBnL4gWpoEaBfsni5kaH85WBx8298BXiH9e9vs4K6QVb3deYrSOUoFug_LpL8wWfL2m0HqSd2ayjhxLZpMzcxefacv4xzfY5D1PMtE6JM8ouQcJ_z4OaQIVMN7lg4mwwe8FPL3Hx7xsc26ftQsRyXwJlF3TMK3CqLz-TRR2BnAk8VmKXI_qHoUi_rY5MSIk1JwDYUs8h0HHHyIGPbujsKeyinkK_pu_L4a5myPd4aYPHiOc1BGMJg3fxMHl0AMMxjaJxB4bFzB0sBIsF7zhPLs3VhUoQLqU5dUyKkQ-gEj-9O9amoZmLyIyTBjLK9khplcUxIbKi8929IifT6H72ftOYKAHQ-kJYXONvmSLJ9x-0W00]--></g></svg>