<?xml version="1.0" encoding="us-ascii" standalone="no"?><svg xmlns="http://www.w3.org/2000/svg" xmlns:xlink="http://www.w3.org/1999/xlink" contentStyleType="text/css" height="842px" preserveAspectRatio="none" style="width:454px;height:842px;background:#FFFFFF;" version="1.1" viewBox="0 0 454 842" width="454px" zoomAndPan="magnify"><defs/><g><text fill="#000000" font-family="sans-serif" font-size="14" font-weight="bold" lengthAdjust="spacing" textLength="206" x="117" y="22.9951">Organisation des modules</text><!--cluster src--><g id="cluster_src"><path d="M8.5,43.2969 L34.5,43.2969 A3.75,3.75 0 0 1 37,45.7969 L44,65.5938 L444.5,65.5938 A2.5,2.5 0 0 1 447,68.0938 L447,832.7969 A2.5,2.5 0 0 1 444.5,835.2969 L8.5,835.2969 A2.5,2.5 0 0 1 6,832.7969 L6,45.7969 A2.5,2.5 0 0 1 8.5,43.2969 " fill="none" style="stroke:#000000;stroke-width:1.5;"/><line style="stroke:#000000;stroke-width:1.5;" x1="6" x2="44" y1="65.5938" y2="65.5938"/><text fill="#000000" font-family="sans-serif" font-size="14" font-weight="bold" lengthAdjust="spacing" textLength="25" x="10" y="58.292">src</text></g><!--cluster E--><g id="cluster_E"><path d="M40.5,94.2969 L100.5,94.2969 A3.75,3.75 0 0 1 103,96.7969 L110,116.5938 L412.5,116.5938 A2.5,2.5 0 0 1 415,119.0938 L415,206.7969 A2.5,2.5 0 0 1 412.5,209.2969 L40.5,209.2969 A2.5,2.5 0 0 1 38,206.7969 L38,96.7969 A2.5,2.5 0 0 1 40.5,94.2969 " fill="none" style="stroke:#000000;stroke-width:1.5;"/><line style="stroke:#000000;stroke-width:1.5;" x1="38" x2="110" y1="116.5938" y2="116.5938"/><text fill="#000000" font-family="sans-serif" font-size="14" font-weight="bold" lengthAdjust="spacing" textLength="59" x="42" y="109.292">entities</text></g><!--cluster S--><g id="cluster_S"><path d="M40.5,249.2969 L108.5,249.2969 A3.75,3.75 0 0 1 111,251.7969 L118,271.5938 L383.5,271.5938 A2.5,2.5 0 0 1 386,274.0938 L386,361.7969 A2.5,2.5 0 0 1 383.5,364.2969 L40.5,364.2969 A2.5,2.5 0 0 1 38,361.7969 L38,251.7969 A2.5,2.5 0 0 1 40.5,249.2969 " fill="none" style="stroke:#000000;stroke-width:1.5;"/><line style="stroke:#000000;stroke-width:1.5;" x1="38" x2="118" y1="271.5938" y2="271.5938"/><text fill="#000000" font-family="sans-serif" font-size="14" font-weight="bold" lengthAdjust="spacing" textLength="67" x="42" y="264.292">services</text></g><!--cluster V--><g id="cluster_V"><path d="M55.5,404.2969 L102.5,404.2969 A3.75,3.75 0 0 1 105,406.7969 L112,426.5938 L163.5,426.5938 A2.5,2.5 0 0 1 166,429.0938 L166,516.7969 A2.5,2.5 0 0 1 163.5,519.2969 L55.5,519.2969 A2.5,2.5 0 0 1 53,516.7969 L53,406.7969 A2.5,2.5 0 0 1 55.5,404.2969 " fill="none" style="stroke:#000000;stroke-width:1.5;"/><line style="stroke:#000000;stroke-width:1.5;" x1="53" x2="112" y1="426.5938" y2="426.5938"/><text fill="#000000" font-family="sans-serif" font-size="14" font-weight="bold" lengthAdjust="spacing" textLength="46" x="57" y="419.292">views</text></g><!--class datasource--><g id="elem_datasource"><rect codeLine="17" fill="#F1F1F1" height="48" id="datasource" rx="2.5" ry="2.5" style="stroke:#181818;stroke-width:0.5;" width="110" x="22" y="555.2969"/><ellipse cx="37" cy="571.2969" fill="#ADD1B2" rx="11" ry="11" style="stroke:#181818;stroke-width:1.0;"/><path d="M39.9688,576.9375 Q39.3906,577.2344 38.75,577.375 Q38.1094,577.5313 37.4063,577.5313 Q34.9063,577.5313 33.5781,575.8906 Q32.2656,574.2344 32.2656,571.1094 Q32.2656,567.9844 33.5781,566.3281 Q34.9063,564.6719 37.4063,564.6719 Q38.1094,564.6719 38.75,564.8281 Q39.4063,564.9844 39.9688,565.2813 L39.9688,568 Q39.3438,567.4219 38.75,567.1563 Q38.1563,566.875 37.5313,566.875 Q36.1875,566.875 35.5,567.9531 Q34.8125,569.0156 34.8125,571.1094 Q34.8125,573.2031 35.5,574.2813 Q36.1875,575.3438 37.5313,575.3438 Q38.1563,575.3438 38.75,575.0781 Q39.3438,574.7969 39.9688,574.2188 L39.9688,576.9375 Z " fill="#000000"/><text fill="#000000" font-family="sans-serif" font-size="14" lengthAdjust="spacing" textLength="78" x="51" y="576.1436">datasource</text><line style="stroke:#181818;stroke-width:0.5;" x1="23" x2="131" y1="587.2969" y2="587.2969"/><line style="stroke:#181818;stroke-width:0.5;" x1="23" x2="131" y1="595.2969" y2="595.2969"/></g><!--class index--><g id="elem_index"><rect codeLine="18" fill="#F1F1F1" height="48" id="index" rx="2.5" ry="2.5" style="stroke:#181818;stroke-width:0.5;" width="69" x="42.5" y="663.2969"/><ellipse cx="57.5" cy="679.2969" fill="#ADD1B2" rx="11" ry="11" style="stroke:#181818;stroke-width:1.0;"/><path d="M60.4688,684.9375 Q59.8906,685.2344 59.25,685.375 Q58.6094,685.5313 57.9063,685.5313 Q55.4063,685.5313 54.0781,683.8906 Q52.7656,682.2344 52.7656,679.1094 Q52.7656,675.9844 54.0781,674.3281 Q55.4063,672.6719 57.9063,672.6719 Q58.6094,672.6719 59.25,672.8281 Q59.9063,672.9844 60.4688,673.2813 L60.4688,676 Q59.8438,675.4219 59.25,675.1563 Q58.6563,674.875 58.0313,674.875 Q56.6875,674.875 56,675.9531 Q55.3125,677.0156 55.3125,679.1094 Q55.3125,681.2031 56,682.2813 Q56.6875,683.3438 58.0313,683.3438 Q58.6563,683.3438 59.25,683.0781 Q59.8438,682.7969 60.4688,682.2188 L60.4688,684.9375 Z " fill="#000000"/><text fill="#000000" font-family="sans-serif" font-size="14" lengthAdjust="spacing" textLength="37" x="71.5" y="684.1436">index</text><line style="stroke:#181818;stroke-width:0.5;" x1="43.5" x2="110.5" y1="695.2969" y2="695.2969"/><line style="stroke:#181818;stroke-width:0.5;" x1="43.5" x2="110.5" y1="703.2969" y2="703.2969"/></g><!--class initData--><g id="elem_initData"><rect codeLine="19" fill="#F1F1F1" height="48" id="initData" rx="2.5" ry="2.5" style="stroke:#181818;stroke-width:0.5;" width="84" x="35" y="771.2969"/><ellipse cx="50" cy="787.2969" fill="#ADD1B2" rx="11" ry="11" style="stroke:#181818;stroke-width:1.0;"/><path d="M52.9688,792.9375 Q52.3906,793.2344 51.75,793.375 Q51.1094,793.5313 50.4063,793.5313 Q47.9063,793.5313 46.5781,791.8906 Q45.2656,790.2344 45.2656,787.1094 Q45.2656,783.9844 46.5781,782.3281 Q47.9063,780.6719 50.4063,780.6719 Q51.1094,780.6719 51.75,780.8281 Q52.4063,780.9844 52.9688,781.2813 L52.9688,784 Q52.3438,783.4219 51.75,783.1563 Q51.1563,782.875 50.5313,782.875 Q49.1875,782.875 48.5,783.9531 Q47.8125,785.0156 47.8125,787.1094 Q47.8125,789.2031 48.5,790.2813 Q49.1875,791.3438 50.5313,791.3438 Q51.1563,791.3438 51.75,791.0781 Q52.3438,790.7969 52.9688,790.2188 L52.9688,792.9375 Z " fill="#000000"/><text fill="#000000" font-family="sans-serif" font-size="14" lengthAdjust="spacing" textLength="52" x="64" y="792.1436">initData</text><line style="stroke:#181818;stroke-width:0.5;" x1="36" x2="118" y1="803.2969" y2="803.2969"/><line style="stroke:#181818;stroke-width:0.5;" x1="36" x2="118" y1="811.2969" y2="811.2969"/></g><!--class Product--><g id="elem_Product"><rect codeLine="6" fill="#F1F1F1" height="48" id="Product" rx="2.5" ry="2.5" style="stroke:#181818;stroke-width:0.5;" width="86" x="208" y="137.2969"/><ellipse cx="223" cy="153.2969" fill="#ADD1B2" rx="11" ry="11" style="stroke:#181818;stroke-width:1.0;"/><path d="M225.9688,158.9375 Q225.3906,159.2344 224.75,159.375 Q224.1094,159.5313 223.4063,159.5313 Q220.9063,159.5313 219.5781,157.8906 Q218.2656,156.2344 218.2656,153.1094 Q218.2656,149.9844 219.5781,148.3281 Q220.9063,146.6719 223.4063,146.6719 Q224.1094,146.6719 224.75,146.8281 Q225.4063,146.9844 225.9688,147.2813 L225.9688,150 Q225.3438,149.4219 224.75,149.1563 Q224.1563,148.875 223.5313,148.875 Q222.1875,148.875 221.5,149.9531 Q220.8125,151.0156 220.8125,153.1094 Q220.8125,155.2031 221.5,156.2813 Q222.1875,157.3438 223.5313,157.3438 Q224.1563,157.3438 224.75,157.0781 Q225.3438,156.7969 225.9688,156.2188 L225.9688,158.9375 Z " fill="#000000"/><text fill="#000000" font-family="sans-serif" font-size="14" lengthAdjust="spacing" textLength="54" x="237" y="158.1436">Product</text><line style="stroke:#181818;stroke-width:0.5;" x1="209" x2="293" y1="169.2969" y2="169.2969"/><line style="stroke:#181818;stroke-width:0.5;" x1="209" x2="293" y1="177.2969" y2="177.2969"/></g><!--class Sale--><g id="elem_Sale"><rect codeLine="7" fill="#F1F1F1" height="48" id="Sale" rx="2.5" ry="2.5" style="stroke:#181818;stroke-width:0.5;" width="61" x="329.5" y="137.2969"/><ellipse cx="344.5" cy="153.2969" fill="#ADD1B2" rx="11" ry="11" style="stroke:#181818;stroke-width:1.0;"/><path d="M347.4688,158.9375 Q346.8906,159.2344 346.25,159.375 Q345.6094,159.5313 344.9063,159.5313 Q342.4063,159.5313 341.0781,157.8906 Q339.7656,156.2344 339.7656,153.1094 Q339.7656,149.9844 341.0781,148.3281 Q342.4063,146.6719 344.9063,146.6719 Q345.6094,146.6719 346.25,146.8281 Q346.9063,146.9844 347.4688,147.2813 L347.4688,150 Q346.8438,149.4219 346.25,149.1563 Q345.6563,148.875 345.0313,148.875 Q343.6875,148.875 343,149.9531 Q342.3125,151.0156 342.3125,153.1094 Q342.3125,155.2031 343,156.2813 Q343.6875,157.3438 345.0313,157.3438 Q345.6563,157.3438 346.25,157.0781 Q346.8438,156.7969 347.4688,156.2188 L347.4688,158.9375 Z " fill="#000000"/><text fill="#000000" font-family="sans-serif" font-size="14" lengthAdjust="spacing" textLength="29" x="358.5" y="158.1436">Sale</text><line style="stroke:#181818;stroke-width:0.5;" x1="330.5" x2="389.5" y1="169.2969" y2="169.2969"/><line style="stroke:#181818;stroke-width:0.5;" x1="330.5" x2="389.5" y1="177.2969" y2="177.2969"/></g><!--class SaleItem--><g id="elem_SaleItem"><rect codeLine="8" fill="#F1F1F1" height="48" id="SaleItem" rx="2.5" ry="2.5" style="stroke:#181818;stroke-width:0.5;" width="91" x="81.5" y="137.2969"/><ellipse cx="96.5" cy="153.2969" fill="#ADD1B2" rx="11" ry="11" style="stroke:#181818;stroke-width:1.0;"/><path d="M99.4688,158.9375 Q98.8906,159.2344 98.25,159.375 Q97.6094,159.5313 96.9063,159.5313 Q94.4063,159.5313 93.0781,157.8906 Q91.7656,156.2344 91.7656,153.1094 Q91.7656,149.9844 93.0781,148.3281 Q94.4063,146.6719 96.9063,146.6719 Q97.6094,146.6719 98.25,146.8281 Q98.9063,146.9844 99.4688,147.2813 L99.4688,150 Q98.8438,149.4219 98.25,149.1563 Q97.6563,148.875 97.0313,148.875 Q95.6875,148.875 95,149.9531 Q94.3125,151.0156 94.3125,153.1094 Q94.3125,155.2031 95,156.2813 Q95.6875,157.3438 97.0313,157.3438 Q97.6563,157.3438 98.25,157.0781 Q98.8438,156.7969 99.4688,156.2188 L99.4688,158.9375 Z " fill="#000000"/><text fill="#000000" font-family="sans-serif" font-size="14" lengthAdjust="spacing" textLength="59" x="110.5" y="158.1436">SaleItem</text><line style="stroke:#181818;stroke-width:0.5;" x1="82.5" x2="171.5" y1="169.2969" y2="169.2969"/><line style="stroke:#181818;stroke-width:0.5;" x1="82.5" x2="171.5" y1="177.2969" y2="177.2969"/></g><!--class productService--><g id="elem_productService"><rect codeLine="11" fill="#F1F1F1" height="48" id="productService" rx="2.5" ry="2.5" style="stroke:#181818;stroke-width:0.5;" width="136" x="226" y="292.2969"/><ellipse cx="241" cy="308.2969" fill="#ADD1B2" rx="11" ry="11" style="stroke:#181818;stroke-width:1.0;"/><path d="M243.9688,313.9375 Q243.3906,314.2344 242.75,314.375 Q242.1094,314.5313 241.4063,314.5313 Q238.9063,314.5313 237.5781,312.8906 Q236.2656,311.2344 236.2656,308.1094 Q236.2656,304.9844 237.5781,303.3281 Q238.9063,301.6719 241.4063,301.6719 Q242.1094,301.6719 242.75,301.8281 Q243.4063,301.9844 243.9688,302.2813 L243.9688,305 Q243.3438,304.4219 242.75,304.1563 Q242.1563,303.875 241.5313,303.875 Q240.1875,303.875 239.5,304.9531 Q238.8125,306.0156 238.8125,308.1094 Q238.8125,310.2031 239.5,311.2813 Q240.1875,312.3438 241.5313,312.3438 Q242.1563,312.3438 242.75,312.0781 Q243.3438,311.7969 243.9688,311.2188 L243.9688,313.9375 Z " fill="#000000"/><text fill="#000000" font-family="sans-serif" font-size="14" lengthAdjust="spacing" textLength="104" x="255" y="313.1436">productService</text><line style="stroke:#181818;stroke-width:0.5;" x1="227" x2="361" y1="324.2969" y2="324.2969"/><line style="stroke:#181818;stroke-width:0.5;" x1="227" x2="361" y1="332.2969" y2="332.2969"/></g><!--class saleService--><g id="elem_saleService"><rect codeLine="12" fill="#F1F1F1" height="48" id="saleService" rx="2.5" ry="2.5" style="stroke:#181818;stroke-width:0.5;" width="110" x="81" y="292.2969"/><ellipse cx="96" cy="308.2969" fill="#ADD1B2" rx="11" ry="11" style="stroke:#181818;stroke-width:1.0;"/><path d="M98.9688,313.9375 Q98.3906,314.2344 97.75,314.375 Q97.1094,314.5313 96.4063,314.5313 Q93.9063,314.5313 92.5781,312.8906 Q91.2656,311.2344 91.2656,308.1094 Q91.2656,304.9844 92.5781,303.3281 Q93.9063,301.6719 96.4063,301.6719 Q97.1094,301.6719 97.75,301.8281 Q98.4063,301.9844 98.9688,302.2813 L98.9688,305 Q98.3438,304.4219 97.75,304.1563 Q97.1563,303.875 96.5313,303.875 Q95.1875,303.875 94.5,304.9531 Q93.8125,306.0156 93.8125,308.1094 Q93.8125,310.2031 94.5,311.2813 Q95.1875,312.3438 96.5313,312.3438 Q97.1563,312.3438 97.75,312.0781 Q98.3438,311.7969 98.9688,311.2188 L98.9688,313.9375 Z " fill="#000000"/><text fill="#000000" font-family="sans-serif" font-size="14" lengthAdjust="spacing" textLength="78" x="110" y="313.1436">saleService</text><line style="stroke:#181818;stroke-width:0.5;" x1="82" x2="190" y1="324.2969" y2="324.2969"/><line style="stroke:#181818;stroke-width:0.5;" x1="82" x2="190" y1="332.2969" y2="332.2969"/></g><!--class cli--><g id="elem_cli"><rect codeLine="15" fill="#F1F1F1" height="48" id="cli" rx="2.5" ry="2.5" style="stroke:#181818;stroke-width:0.5;" width="46" x="96" y="447.2969"/><ellipse cx="111" cy="463.2969" fill="#ADD1B2" rx="11" ry="11" style="stroke:#181818;stroke-width:1.0;"/><path d="M113.9688,468.9375 Q113.3906,469.2344 112.75,469.375 Q112.1094,469.5313 111.4063,469.5313 Q108.9063,469.5313 107.5781,467.8906 Q106.2656,466.2344 106.2656,463.1094 Q106.2656,459.9844 107.5781,458.3281 Q108.9063,456.6719 111.4063,456.6719 Q112.1094,456.6719 112.75,456.8281 Q113.4063,456.9844 113.9688,457.2813 L113.9688,460 Q113.3438,459.4219 112.75,459.1563 Q112.1563,458.875 111.5313,458.875 Q110.1875,458.875 109.5,459.9531 Q108.8125,461.0156 108.8125,463.1094 Q108.8125,465.2031 109.5,466.2813 Q110.1875,467.3438 111.5313,467.3438 Q112.1563,467.3438 112.75,467.0781 Q113.3438,466.7969 113.9688,466.2188 L113.9688,468.9375 Z " fill="#000000"/><text fill="#000000" font-family="sans-serif" font-size="14" lengthAdjust="spacing" textLength="14" x="125" y="468.1436">cli</text><line style="stroke:#181818;stroke-width:0.5;" x1="97" x2="141" y1="479.2969" y2="479.2969"/><line style="stroke:#181818;stroke-width:0.5;" x1="97" x2="141" y1="487.2969" y2="487.2969"/></g><!--link Product to Sale--><!--link E to S--><!--link S to V--><!--link V to datasource--><!--link datasource to index--><!--link index to initData--><!--SRC=[RP312i8m38RlVOgmks-X1qyAWrt4GsZ33DPEckW4yTsjjkZipA6qtv_-VuYoUe9Dx36meF8Gm970QN0NJsBC6UqHUu96ectWRY3LXr5GLYPf00LMHNsLzIW2svXSh5QqHKz_q5hfzCQFtmoXU6LRCjfPnZbdjBch4YNvJfNA-ieqPjzkvcizJxvavb1HXaiiRXboS7JxURCkKwDv65CM08lTWPsZi8_S7tIHLx3wOZUC8L7JrgWpNOqcGtolTLCUwdtEfJBV4m00]--></g></svg>