<?xml version="1.0" encoding="us-ascii" standalone="no"?><svg xmlns="http://www.w3.org/2000/svg" xmlns:xlink="http://www.w3.org/1999/xlink" contentStyleType="text/css" height="957px" preserveAspectRatio="none" style="width:615px;height:957px;background:#FFFFFF;" version="1.1" viewBox="0 0 615 957" width="615px" zoomAndPan="magnify"><defs/><g><text fill="#000000" font-family="sans-serif" font-size="14" font-weight="bold" lengthAdjust="spacing" textLength="206" x="197.5" y="22.9951">Organisation des modules</text><!--cluster src--><g id="cluster_src"><path d="M8.5,43.2969 L34.5,43.2969 A3.75,3.75 0 0 1 37,45.7969 L44,65.5938 L605.5,65.5938 A2.5,2.5 0 0 1 608,68.0938 L608,947.7969 A2.5,2.5 0 0 1 605.5,950.2969 L8.5,950.2969 A2.5,2.5 0 0 1 6,947.7969 L6,45.7969 A2.5,2.5 0 0 1 8.5,43.2969 " fill="none" style="stroke:#000000;stroke-width:1.5;"/><line style="stroke:#000000;stroke-width:1.5;" x1="6" x2="44" y1="65.5938" y2="65.5938"/><text fill="#000000" font-family="sans-serif" font-size="14" font-weight="bold" lengthAdjust="spacing" textLength="25" x="10" y="58.292">src</text></g><!--cluster E--><g id="cluster_E"><path d="M40.5,94.2969 L100.5,94.2969 A3.75,3.75 0 0 1 103,96.7969 L110,116.5938 L285.5,116.5938 A2.5,2.5 0 0 1 288,119.0938 L288,321.7969 A2.5,2.5 0 0 1 285.5,324.2969 L40.5,324.2969 A2.5,2.5 0 0 1 38,321.7969 L38,96.7969 A2.5,2.5 0 0 1 40.5,94.2969 " fill="none" style="stroke:#000000;stroke-width:1.5;"/><line style="stroke:#000000;stroke-width:1.5;" x1="38" x2="110" y1="116.5938" y2="116.5938"/><text fill="#000000" font-family="sans-serif" font-size="14" font-weight="bold" lengthAdjust="spacing" textLength="59" x="42" y="109.292">entities</text></g><!--cluster M--><g id="cluster_M"><path d="M330.5,209.2969 L388.5,209.2969 A3.75,3.75 0 0 1 391,211.7969 L398,231.5938 L573.5,231.5938 A2.5,2.5 0 0 1 576,234.0938 L576,321.7969 A2.5,2.5 0 0 1 573.5,324.2969 L330.5,324.2969 A2.5,2.5 0 0 1 328,321.7969 L328,211.7969 A2.5,2.5 0 0 1 330.5,209.2969 " fill="none" style="stroke:#000000;stroke-width:1.5;"/><line style="stroke:#000000;stroke-width:1.5;" x1="328" x2="398" y1="231.5938" y2="231.5938"/><text fill="#000000" font-family="sans-serif" font-size="14" font-weight="bold" lengthAdjust="spacing" textLength="57" x="332" y="224.292">models</text></g><!--cluster S--><g id="cluster_S"><path d="M230.5,364.2969 L298.5,364.2969 A3.75,3.75 0 0 1 301,366.7969 L308,386.5938 L573.5,386.5938 A2.5,2.5 0 0 1 576,389.0938 L576,476.7969 A2.5,2.5 0 0 1 573.5,479.2969 L230.5,479.2969 A2.5,2.5 0 0 1 228,476.7969 L228,366.7969 A2.5,2.5 0 0 1 230.5,364.2969 " fill="none" style="stroke:#000000;stroke-width:1.5;"/><line style="stroke:#000000;stroke-width:1.5;" x1="228" x2="308" y1="386.5938" y2="386.5938"/><text fill="#000000" font-family="sans-serif" font-size="14" font-weight="bold" lengthAdjust="spacing" textLength="67" x="232" y="379.292">services</text></g><!--cluster V--><g id="cluster_V"><path d="M230.5,519.2969 L277.5,519.2969 A3.75,3.75 0 0 1 280,521.7969 L287,541.5938 L338.5,541.5938 A2.5,2.5 0 0 1 341,544.0938 L341,631.7969 A2.5,2.5 0 0 1 338.5,634.2969 L230.5,634.2969 A2.5,2.5 0 0 1 228,631.7969 L228,521.7969 A2.5,2.5 0 0 1 230.5,519.2969 " fill="none" style="stroke:#000000;stroke-width:1.5;"/><line style="stroke:#000000;stroke-width:1.5;" x1="228" x2="287" y1="541.5938" y2="541.5938"/><text fill="#000000" font-family="sans-serif" font-size="14" font-weight="bold" lengthAdjust="spacing" textLength="46" x="232" y="534.292">views</text></g><!--class datasource--><g id="elem_datasource"><rect codeLine="21" fill="#F1F1F1" height="48" id="datasource" rx="2.5" ry="2.5" style="stroke:#181818;stroke-width:0.5;" width="110" x="181" y="670.2969"/><ellipse cx="196" cy="686.2969" fill="#ADD1B2" rx="11" ry="11" style="stroke:#181818;stroke-width:1.0;"/><path d="M198.9688,691.9375 Q198.3906,692.2344 197.75,692.375 Q197.1094,692.5313 196.4063,692.5313 Q193.9063,692.5313 192.5781,690.8906 Q191.2656,689.2344 191.2656,686.1094 Q191.2656,682.9844 192.5781,681.3281 Q193.9063,679.6719 196.4063,679.6719 Q197.1094,679.6719 197.75,679.8281 Q198.4063,679.9844 198.9688,680.2813 L198.9688,683 Q198.3438,682.4219 197.75,682.1563 Q197.1563,681.875 196.5313,681.875 Q195.1875,681.875 194.5,682.9531 Q193.8125,684.0156 193.8125,686.1094 Q193.8125,688.2031 194.5,689.2813 Q195.1875,690.3438 196.5313,690.3438 Q197.1563,690.3438 197.75,690.0781 Q198.3438,689.7969 198.9688,689.2188 L198.9688,691.9375 Z " fill="#000000"/><text fill="#000000" font-family="sans-serif" font-size="14" lengthAdjust="spacing" textLength="78" x="210" y="691.1436">datasource</text><line style="stroke:#181818;stroke-width:0.5;" x1="182" x2="290" y1="702.2969" y2="702.2969"/><line style="stroke:#181818;stroke-width:0.5;" x1="182" x2="290" y1="710.2969" y2="710.2969"/></g><!--class index--><g id="elem_index"><rect codeLine="22" fill="#F1F1F1" height="48" id="index" rx="2.5" ry="2.5" style="stroke:#181818;stroke-width:0.5;" width="69" x="201.5" y="778.2969"/><ellipse cx="216.5" cy="794.2969" fill="#ADD1B2" rx="11" ry="11" style="stroke:#181818;stroke-width:1.0;"/><path d="M219.4688,799.9375 Q218.8906,800.2344 218.25,800.375 Q217.6094,800.5313 216.9063,800.5313 Q214.4063,800.5313 213.0781,798.8906 Q211.7656,797.2344 211.7656,794.1094 Q211.7656,790.9844 213.0781,789.3281 Q214.4063,787.6719 216.9063,787.6719 Q217.6094,787.6719 218.25,787.8281 Q218.9063,787.9844 219.4688,788.2813 L219.4688,791 Q218.8438,790.4219 218.25,790.1563 Q217.6563,789.875 217.0313,789.875 Q215.6875,789.875 215,790.9531 Q214.3125,792.0156 214.3125,794.1094 Q214.3125,796.2031 215,797.2813 Q215.6875,798.3438 217.0313,798.3438 Q217.6563,798.3438 218.25,798.0781 Q218.8438,797.7969 219.4688,797.2188 L219.4688,799.9375 Z " fill="#000000"/><text fill="#000000" font-family="sans-serif" font-size="14" lengthAdjust="spacing" textLength="37" x="230.5" y="799.1436">index</text><line style="stroke:#181818;stroke-width:0.5;" x1="202.5" x2="269.5" y1="810.2969" y2="810.2969"/><line style="stroke:#181818;stroke-width:0.5;" x1="202.5" x2="269.5" y1="818.2969" y2="818.2969"/></g><!--class initData--><g id="elem_initData"><rect codeLine="23" fill="#F1F1F1" height="48" id="initData" rx="2.5" ry="2.5" style="stroke:#181818;stroke-width:0.5;" width="84" x="194" y="886.2969"/><ellipse cx="209" cy="902.2969" fill="#ADD1B2" rx="11" ry="11" style="stroke:#181818;stroke-width:1.0;"/><path d="M211.9688,907.9375 Q211.3906,908.2344 210.75,908.375 Q210.1094,908.5313 209.4063,908.5313 Q206.9063,908.5313 205.5781,906.8906 Q204.2656,905.2344 204.2656,902.1094 Q204.2656,898.9844 205.5781,897.3281 Q206.9063,895.6719 209.4063,895.6719 Q210.1094,895.6719 210.75,895.8281 Q211.4063,895.9844 211.9688,896.2813 L211.9688,899 Q211.3438,898.4219 210.75,898.1563 Q210.1563,897.875 209.5313,897.875 Q208.1875,897.875 207.5,898.9531 Q206.8125,900.0156 206.8125,902.1094 Q206.8125,904.2031 207.5,905.2813 Q208.1875,906.3438 209.5313,906.3438 Q210.1563,906.3438 210.75,906.0781 Q211.3438,905.7969 211.9688,905.2188 L211.9688,907.9375 Z " fill="#000000"/><text fill="#000000" font-family="sans-serif" font-size="14" lengthAdjust="spacing" textLength="52" x="223" y="907.1436">initData</text><line style="stroke:#181818;stroke-width:0.5;" x1="195" x2="277" y1="918.2969" y2="918.2969"/><line style="stroke:#181818;stroke-width:0.5;" x1="195" x2="277" y1="926.2969" y2="926.2969"/></g><!--class Product--><g id="elem_Product"><rect codeLine="6" fill="#F1F1F1" height="48" id="Product" rx="2.5" ry="2.5" style="stroke:#181818;stroke-width:0.5;" width="86" x="62" y="137.2969"/><ellipse cx="77" cy="153.2969" fill="#ADD1B2" rx="11" ry="11" style="stroke:#181818;stroke-width:1.0;"/><path d="M79.9688,158.9375 Q79.3906,159.2344 78.75,159.375 Q78.1094,159.5313 77.4063,159.5313 Q74.9063,159.5313 73.5781,157.8906 Q72.2656,156.2344 72.2656,153.1094 Q72.2656,149.9844 73.5781,148.3281 Q74.9063,146.6719 77.4063,146.6719 Q78.1094,146.6719 78.75,146.8281 Q79.4063,146.9844 79.9688,147.2813 L79.9688,150 Q79.3438,149.4219 78.75,149.1563 Q78.1563,148.875 77.5313,148.875 Q76.1875,148.875 75.5,149.9531 Q74.8125,151.0156 74.8125,153.1094 Q74.8125,155.2031 75.5,156.2813 Q76.1875,157.3438 77.5313,157.3438 Q78.1563,157.3438 78.75,157.0781 Q79.3438,156.7969 79.9688,156.2188 L79.9688,158.9375 Z " fill="#000000"/><text fill="#000000" font-family="sans-serif" font-size="14" lengthAdjust="spacing" textLength="54" x="91" y="158.1436">Product</text><line style="stroke:#181818;stroke-width:0.5;" x1="63" x2="147" y1="169.2969" y2="169.2969"/><line style="stroke:#181818;stroke-width:0.5;" x1="63" x2="147" y1="177.2969" y2="177.2969"/></g><!--class Sale--><g id="elem_Sale"><rect codeLine="7" fill="#F1F1F1" height="48" id="Sale" rx="2.5" ry="2.5" style="stroke:#181818;stroke-width:0.5;" width="61" x="183.5" y="137.2969"/><ellipse cx="198.5" cy="153.2969" fill="#ADD1B2" rx="11" ry="11" style="stroke:#181818;stroke-width:1.0;"/><path d="M201.4688,158.9375 Q200.8906,159.2344 200.25,159.375 Q199.6094,159.5313 198.9063,159.5313 Q196.4063,159.5313 195.0781,157.8906 Q193.7656,156.2344 193.7656,153.1094 Q193.7656,149.9844 195.0781,148.3281 Q196.4063,146.6719 198.9063,146.6719 Q199.6094,146.6719 200.25,146.8281 Q200.9063,146.9844 201.4688,147.2813 L201.4688,150 Q200.8438,149.4219 200.25,149.1563 Q199.6563,148.875 199.0313,148.875 Q197.6875,148.875 197,149.9531 Q196.3125,151.0156 196.3125,153.1094 Q196.3125,155.2031 197,156.2813 Q197.6875,157.3438 199.0313,157.3438 Q199.6563,157.3438 200.25,157.0781 Q200.8438,156.7969 201.4688,156.2188 L201.4688,158.9375 Z " fill="#000000"/><text fill="#000000" font-family="sans-serif" font-size="14" lengthAdjust="spacing" textLength="29" x="212.5" y="158.1436">Sale</text><line style="stroke:#181818;stroke-width:0.5;" x1="184.5" x2="243.5" y1="169.2969" y2="169.2969"/><line style="stroke:#181818;stroke-width:0.5;" x1="184.5" x2="243.5" y1="177.2969" y2="177.2969"/></g><!--class SaleItem--><g id="elem_SaleItem"><rect codeLine="8" fill="#F1F1F1" height="48" id="SaleItem" rx="2.5" ry="2.5" style="stroke:#181818;stroke-width:0.5;" width="91" x="62.5" y="252.2969"/><ellipse cx="77.5" cy="268.2969" fill="#ADD1B2" rx="11" ry="11" style="stroke:#181818;stroke-width:1.0;"/><path d="M80.4688,273.9375 Q79.8906,274.2344 79.25,274.375 Q78.6094,274.5313 77.9063,274.5313 Q75.4063,274.5313 74.0781,272.8906 Q72.7656,271.2344 72.7656,268.1094 Q72.7656,264.9844 74.0781,263.3281 Q75.4063,261.6719 77.9063,261.6719 Q78.6094,261.6719 79.25,261.8281 Q79.9063,261.9844 80.4688,262.2813 L80.4688,265 Q79.8438,264.4219 79.25,264.1563 Q78.6563,263.875 78.0313,263.875 Q76.6875,263.875 76,264.9531 Q75.3125,266.0156 75.3125,268.1094 Q75.3125,270.2031 76,271.2813 Q76.6875,272.3438 78.0313,272.3438 Q78.6563,272.3438 79.25,272.0781 Q79.8438,271.7969 80.4688,271.2188 L80.4688,273.9375 Z " fill="#000000"/><text fill="#000000" font-family="sans-serif" font-size="14" lengthAdjust="spacing" textLength="59" x="91.5" y="273.1436">SaleItem</text><line style="stroke:#181818;stroke-width:0.5;" x1="63.5" x2="152.5" y1="284.2969" y2="284.2969"/><line style="stroke:#181818;stroke-width:0.5;" x1="63.5" x2="152.5" y1="292.2969" y2="292.2969"/></g><!--class product--><g id="elem_product"><rect codeLine="11" fill="#F1F1F1" height="48" id="product" rx="2.5" ry="2.5" style="stroke:#181818;stroke-width:0.5;" width="86" x="466" y="252.2969"/><ellipse cx="481" cy="268.2969" fill="#ADD1B2" rx="11" ry="11" style="stroke:#181818;stroke-width:1.0;"/><path d="M483.9688,273.9375 Q483.3906,274.2344 482.75,274.375 Q482.1094,274.5313 481.4063,274.5313 Q478.9063,274.5313 477.5781,272.8906 Q476.2656,271.2344 476.2656,268.1094 Q476.2656,264.9844 477.5781,263.3281 Q478.9063,261.6719 481.4063,261.6719 Q482.1094,261.6719 482.75,261.8281 Q483.4063,261.9844 483.9688,262.2813 L483.9688,265 Q483.3438,264.4219 482.75,264.1563 Q482.1563,263.875 481.5313,263.875 Q480.1875,263.875 479.5,264.9531 Q478.8125,266.0156 478.8125,268.1094 Q478.8125,270.2031 479.5,271.2813 Q480.1875,272.3438 481.5313,272.3438 Q482.1563,272.3438 482.75,272.0781 Q483.3438,271.7969 483.9688,271.2188 L483.9688,273.9375 Z " fill="#000000"/><text fill="#000000" font-family="sans-serif" font-size="14" lengthAdjust="spacing" textLength="54" x="495" y="273.1436">product</text><line style="stroke:#181818;stroke-width:0.5;" x1="467" x2="551" y1="284.2969" y2="284.2969"/><line style="stroke:#181818;stroke-width:0.5;" x1="467" x2="551" y1="292.2969" y2="292.2969"/></g><!--class sale--><g id="elem_sale"><rect codeLine="12" fill="#F1F1F1" height="48" id="sale" rx="2.5" ry="2.5" style="stroke:#181818;stroke-width:0.5;" width="60" x="371" y="252.2969"/><ellipse cx="386" cy="268.2969" fill="#ADD1B2" rx="11" ry="11" style="stroke:#181818;stroke-width:1.0;"/><path d="M388.9688,273.9375 Q388.3906,274.2344 387.75,274.375 Q387.1094,274.5313 386.4063,274.5313 Q383.9063,274.5313 382.5781,272.8906 Q381.2656,271.2344 381.2656,268.1094 Q381.2656,264.9844 382.5781,263.3281 Q383.9063,261.6719 386.4063,261.6719 Q387.1094,261.6719 387.75,261.8281 Q388.4063,261.9844 388.9688,262.2813 L388.9688,265 Q388.3438,264.4219 387.75,264.1563 Q387.1563,263.875 386.5313,263.875 Q385.1875,263.875 384.5,264.9531 Q383.8125,266.0156 383.8125,268.1094 Q383.8125,270.2031 384.5,271.2813 Q385.1875,272.3438 386.5313,272.3438 Q387.1563,272.3438 387.75,272.0781 Q388.3438,271.7969 388.9688,271.2188 L388.9688,273.9375 Z " fill="#000000"/><text fill="#000000" font-family="sans-serif" font-size="14" lengthAdjust="spacing" textLength="28" x="400" y="273.1436">sale</text><line style="stroke:#181818;stroke-width:0.5;" x1="372" x2="430" y1="284.2969" y2="284.2969"/><line style="stroke:#181818;stroke-width:0.5;" x1="372" x2="430" y1="292.2969" y2="292.2969"/></g><!--class productService--><g id="elem_productService"><rect codeLine="15" fill="#F1F1F1" height="48" id="productService" rx="2.5" ry="2.5" style="stroke:#181818;stroke-width:0.5;" width="136" x="416" y="407.2969"/><ellipse cx="431" cy="423.2969" fill="#ADD1B2" rx="11" ry="11" style="stroke:#181818;stroke-width:1.0;"/><path d="M433.9688,428.9375 Q433.3906,429.2344 432.75,429.375 Q432.1094,429.5313 431.4063,429.5313 Q428.9063,429.5313 427.5781,427.8906 Q426.2656,426.2344 426.2656,423.1094 Q426.2656,419.9844 427.5781,418.3281 Q428.9063,416.6719 431.4063,416.6719 Q432.1094,416.6719 432.75,416.8281 Q433.4063,416.9844 433.9688,417.2813 L433.9688,420 Q433.3438,419.4219 432.75,419.1563 Q432.1563,418.875 431.5313,418.875 Q430.1875,418.875 429.5,419.9531 Q428.8125,421.0156 428.8125,423.1094 Q428.8125,425.2031 429.5,426.2813 Q430.1875,427.3438 431.5313,427.3438 Q432.1563,427.3438 432.75,427.0781 Q433.3438,426.7969 433.9688,426.2188 L433.9688,428.9375 Z " fill="#000000"/><text fill="#000000" font-family="sans-serif" font-size="14" lengthAdjust="spacing" textLength="104" x="445" y="428.1436">productService</text><line style="stroke:#181818;stroke-width:0.5;" x1="417" x2="551" y1="439.2969" y2="439.2969"/><line style="stroke:#181818;stroke-width:0.5;" x1="417" x2="551" y1="447.2969" y2="447.2969"/></g><!--class saleService--><g id="elem_saleService"><rect codeLine="16" fill="#F1F1F1" height="48" id="saleService" rx="2.5" ry="2.5" style="stroke:#181818;stroke-width:0.5;" width="110" x="271" y="407.2969"/><ellipse cx="286" cy="423.2969" fill="#ADD1B2" rx="11" ry="11" style="stroke:#181818;stroke-width:1.0;"/><path d="M288.9688,428.9375 Q288.3906,429.2344 287.75,429.375 Q287.1094,429.5313 286.4063,429.5313 Q283.9063,429.5313 282.5781,427.8906 Q281.2656,426.2344 281.2656,423.1094 Q281.2656,419.9844 282.5781,418.3281 Q283.9063,416.6719 286.4063,416.6719 Q287.1094,416.6719 287.75,416.8281 Q288.4063,416.9844 288.9688,417.2813 L288.9688,420 Q288.3438,419.4219 287.75,419.1563 Q287.1563,418.875 286.5313,418.875 Q285.1875,418.875 284.5,419.9531 Q283.8125,421.0156 283.8125,423.1094 Q283.8125,425.2031 284.5,426.2813 Q285.1875,427.3438 286.5313,427.3438 Q287.1563,427.3438 287.75,427.0781 Q288.3438,426.7969 288.9688,426.2188 L288.9688,428.9375 Z " fill="#000000"/><text fill="#000000" font-family="sans-serif" font-size="14" lengthAdjust="spacing" textLength="78" x="300" y="428.1436">saleService</text><line style="stroke:#181818;stroke-width:0.5;" x1="272" x2="380" y1="439.2969" y2="439.2969"/><line style="stroke:#181818;stroke-width:0.5;" x1="272" x2="380" y1="447.2969" y2="447.2969"/></g><!--class cli--><g id="elem_cli"><rect codeLine="19" fill="#F1F1F1" height="48" id="cli" rx="2.5" ry="2.5" style="stroke:#181818;stroke-width:0.5;" width="46" x="271" y="562.2969"/><ellipse cx="286" cy="578.2969" fill="#ADD1B2" rx="11" ry="11" style="stroke:#181818;stroke-width:1.0;"/><path d="M288.9688,583.9375 Q288.3906,584.2344 287.75,584.375 Q287.1094,584.5313 286.4063,584.5313 Q283.9063,584.5313 282.5781,582.8906 Q281.2656,581.2344 281.2656,578.1094 Q281.2656,574.9844 282.5781,573.3281 Q283.9063,571.6719 286.4063,571.6719 Q287.1094,571.6719 287.75,571.8281 Q288.4063,571.9844 288.9688,572.2813 L288.9688,575 Q288.3438,574.4219 287.75,574.1563 Q287.1563,573.875 286.5313,573.875 Q285.1875,573.875 284.5,574.9531 Q283.8125,576.0156 283.8125,578.1094 Q283.8125,580.2031 284.5,581.2813 Q285.1875,582.3438 286.5313,582.3438 Q287.1563,582.3438 287.75,582.0781 Q288.3438,581.7969 288.9688,581.2188 L288.9688,583.9375 Z " fill="#000000"/><text fill="#000000" font-family="sans-serif" font-size="14" lengthAdjust="spacing" textLength="14" x="300" y="583.1436">cli</text><line style="stroke:#181818;stroke-width:0.5;" x1="272" x2="316" y1="594.2969" y2="594.2969"/><line style="stroke:#181818;stroke-width:0.5;" x1="272" x2="316" y1="602.2969" y2="602.2969"/></g><!--link E to M--><!--link M to S--><!--link S to V--><!--link V to datasource--><!--link datasource to index--><!--link index to initData--><!--SRC=[TOx1Ri8m38RlVWghTzu23ZjKJ8hKoxI3bLXW4L8K6vWqyUxhI0SbxNo8ai_Ezzl48kCsxoY9aacVCB3YiG_do0fm8d-W7MEZsJVu3JZKWt4oCM5ja1GtO_UtV2HLVC-3nLj57KLUG6_6npk-lMOCct0i2UqiuRIOe7y9bKevNyIFwxh_PAvCBJYddKfz4RuMRpVp-YYJBuK5CjB-d4TRWP82VxsynTR38Dm0DhZws4i8d3v3VqqhRA6jaGDNemww6asYdzTwgAnoF-UjSQiV]--></g></svg>