<?xml version="1.0" encoding="us-ascii" standalone="no"?><svg xmlns="http://www.w3.org/2000/svg" xmlns:xlink="http://www.w3.org/1999/xlink" contentStyleType="text/css" height="1628px" preserveAspectRatio="none" style="width:1116px;height:1628px;background:#FFFFFF;" version="1.1" viewBox="0 0 1116 1628" width="1116px" zoomAndPan="magnify"><defs/><g><ellipse cx="439" cy="20" fill="#222222" rx="10" ry="10" style="stroke:#222222;stroke-width:1.0;"/><path d="M524.5,40 L524.5,65.5273 L504.5,69.5273 L524.5,73.5273 L524.5,99.0547 A0,0 0 0 0 524.5,99.0547 L699.5,99.0547 A0,0 0 0 0 699.5,99.0547 L699.5,50 L689.5,40 L524.5,40 A0,0 0 0 0 524.5,40 " fill="#FEFFDD" style="stroke:#181818;stroke-width:0.5;"/><path d="M689.5,40 L689.5,50 L699.5,50 L689.5,40 " fill="#FEFFDD" style="stroke:#181818;stroke-width:0.5;"/><text fill="#000000" font-family="sans-serif" font-size="13" lengthAdjust="spacing" textLength="154" x="530.5" y="58.4951">POST /api/v1hopping-carts</text><text fill="#000000" font-family="sans-serif" font-size="13" lengthAdjust="spacing" textLength="140" x="530.5" y="74.8467">ou POST /api/v1eckouts</text><text fill="#000000" font-family="sans-serif" font-size="13" lengthAdjust="spacing" textLength="153" x="530.5" y="91.1982">avec les donn&#233;es du client</text><rect fill="#F1F1F1" height="35.0938" rx="12.5" ry="12.5" style="stroke:#181818;stroke-width:0.5;" width="131" x="373.5" y="51.9805"/><text fill="#000000" font-family="sans-serif" font-size="12" lengthAdjust="spacing" textLength="111" x="383.5" y="74.4375">Client initie un achat</text><rect fill="#F1F1F1" height="35.0938" rx="12.5" ry="12.5" style="stroke:#181818;stroke-width:0.5;" width="219" x="329.5" y="119.0547"/><text fill="#000000" font-family="sans-serif" font-size="12" lengthAdjust="spacing" textLength="199" x="339.5" y="141.5117">API Gateway (Kong) re&#231;oit la requ&#234;te</text><rect fill="#F1F1F1" height="35.0938" rx="12.5" ry="12.5" style="stroke:#181818;stroke-width:0.5;" width="183" x="347.5" y="174.1484"/><text fill="#000000" font-family="sans-serif" font-size="12" lengthAdjust="spacing" textLength="163" x="357.5" y="196.6055">Sales Service traite la requ&#234;te</text><rect fill="#F1F1F1" height="35.0938" rx="12.5" ry="12.5" style="stroke:#181818;stroke-width:0.5;" width="195" x="341.5" y="229.2422"/><text fill="#000000" font-family="sans-serif" font-size="12" lengthAdjust="spacing" textLength="175" x="351.5" y="251.6992">Validation des donn&#233;es dentr&#233;e</text><rect fill="#F1F1F1" height="35.0938" rx="12.5" ry="12.5" style="stroke:#181818;stroke-width:0.5;" width="199" x="339.5" y="333.2539"/><text fill="#000000" font-family="sans-serif" font-size="12" lengthAdjust="spacing" textLength="179" x="349.5" y="355.7109">Retourner erreur 400ad Request</text><ellipse cx="439" cy="407.3008" fill="none" rx="11" ry="11" style="stroke:#222222;stroke-width:1.0;"/><ellipse cx="439" cy="407.3008" fill="#222222" rx="6" ry="6" style="stroke:#222222;stroke-width:1.0;"/><polygon fill="#F1F1F1" points="382,284.3359,496,284.3359,508,296.3359,496,308.3359,382,308.3359,370,296.3359,382,284.3359" style="stroke:#181818;stroke-width:0.5;"/><text fill="#000000" font-family="sans-serif" font-size="11" lengthAdjust="spacing" textLength="18" x="443" y="319.7549">non</text><text fill="#000000" font-family="sans-serif" font-size="11" lengthAdjust="spacing" textLength="114" x="382" y="300.8369">Donn&#233;es client valides?</text><text fill="#000000" font-family="sans-serif" font-size="11" lengthAdjust="spacing" textLength="14" x="508" y="293.9189">oui</text><path d="M530.5,456.4961 L530.5,473.8477 L510.5,477.8477 L530.5,481.8477 L530.5,499.1992 A0,0 0 0 0 530.5,499.1992 L700.5,499.1992 A0,0 0 0 0 700.5,499.1992 L700.5,466.4961 L690.5,456.4961 L530.5,456.4961 A0,0 0 0 0 530.5,456.4961 " fill="#FEFFDD" style="stroke:#181818;stroke-width:0.5;"/><path d="M690.5,456.4961 L690.5,466.4961 L700.5,466.4961 L690.5,456.4961 " fill="#FEFFDD" style="stroke:#181818;stroke-width:0.5;"/><text fill="#000000" font-family="sans-serif" font-size="13" lengthAdjust="spacing" textLength="147" x="536.5" y="474.9912">Recherche dans le cache</text><text fill="#000000" font-family="sans-serif" font-size="13" lengthAdjust="spacing" textLength="149" x="536.5" y="491.3428">pour les paniers existants</text><rect fill="#F1F1F1" height="35.0938" rx="12.5" ry="12.5" style="stroke:#181818;stroke-width:0.5;" width="143" x="367.5" y="460.3008"/><text fill="#000000" font-family="sans-serif" font-size="12" lengthAdjust="spacing" textLength="123" x="377.5" y="482.7578">V&#233;rifier le cache Redis</text><polygon fill="#F1F1F1" points="397,519.1992,481,519.1992,493,531.1992,481,543.1992,397,543.1992,385,531.1992,397,519.1992" style="stroke:#181818;stroke-width:0.5;"/><text fill="#000000" font-family="sans-serif" font-size="11" lengthAdjust="spacing" textLength="84" x="397" y="535.7002">Panier en cache?</text><text fill="#000000" font-family="sans-serif" font-size="11" lengthAdjust="spacing" textLength="14" x="371" y="528.7822">oui</text><text fill="#000000" font-family="sans-serif" font-size="11" lengthAdjust="spacing" textLength="18" x="493" y="528.7822">non</text><rect fill="#F1F1F1" height="35.0938" rx="12.5" ry="12.5" style="stroke:#181818;stroke-width:0.5;" width="169" x="257.5" y="553.1992"/><text fill="#000000" font-family="sans-serif" font-size="12" lengthAdjust="spacing" textLength="149" x="267.5" y="575.6563">R&#233;cup&#233;rer panier du cache</text><path d="M645.5,553.1992 L645.5,578.7266 L625.5,582.7266 L645.5,586.7266 L645.5,612.2539 A0,0 0 0 0 645.5,612.2539 L796.5,612.2539 A0,0 0 0 0 796.5,612.2539 L796.5,563.1992 L786.5,553.1992 L645.5,553.1992 A0,0 0 0 0 645.5,553.1992 " fill="#FEFFDD" style="stroke:#181818;stroke-width:0.5;"/><path d="M786.5,553.1992 L786.5,563.1992 L796.5,563.1992 L786.5,553.1992 " fill="#FEFFDD" style="stroke:#181818;stroke-width:0.5;"/><text fill="#000000" font-family="sans-serif" font-size="13" lengthAdjust="spacing" textLength="121" x="651.5" y="571.6943">- Cr&#233;er ShoppingCart</text><text fill="#000000" font-family="sans-serif" font-size="13" lengthAdjust="spacing" textLength="112" x="651.5" y="588.0459">- Associer au client</text><text fill="#000000" font-family="sans-serif" font-size="13" lengthAdjust="spacing" textLength="130" x="651.5" y="604.3975">- Initialiser les produits</text><rect fill="#F1F1F1" height="35.0938" rx="12.5" ry="12.5" style="stroke:#181818;stroke-width:0.5;" width="179" x="446.5" y="565.1797"/><text fill="#000000" font-family="sans-serif" font-size="12" lengthAdjust="spacing" textLength="159" x="456.5" y="587.6367">Cr&#233;er nouveau panier dachat</text><polygon fill="#F1F1F1" points="439,618.2539,451,630.2539,439,642.2539,427,630.2539,439,618.2539" style="stroke:#181818;stroke-width:0.5;"/><path d="M539.5,658.4492 L539.5,675.8008 L519.5,679.8008 L539.5,683.8008 L539.5,701.1523 A0,0 0 0 0 539.5,701.1523 L751.5,701.1523 A0,0 0 0 0 751.5,701.1523 L751.5,668.4492 L741.5,658.4492 L539.5,658.4492 A0,0 0 0 0 539.5,658.4492 " fill="#FEFFDD" style="stroke:#181818;stroke-width:0.5;"/><path d="M741.5,658.4492 L741.5,668.4492 L751.5,668.4492 L741.5,658.4492 " fill="#FEFFDD" style="stroke:#181818;stroke-width:0.5;"/><text fill="#000000" font-family="sans-serif" font-size="13" lengthAdjust="spacing" textLength="191" x="545.5" y="676.9443">POST /api/v1ing-carts/{productId}</text><text fill="#000000" font-family="sans-serif" font-size="13" lengthAdjust="spacing" textLength="165" x="545.5" y="693.2959">avec quantit&#233; et infos produit</text><rect fill="#F1F1F1" height="35.0938" rx="12.5" ry="12.5" style="stroke:#181818;stroke-width:0.5;" width="161" x="358.5" y="662.2539"/><text fill="#000000" font-family="sans-serif" font-size="12" lengthAdjust="spacing" textLength="141" x="368.5" y="684.7109">Ajouter produits au panier</text><polygon fill="#F1F1F1" points="388,721.1523,490,721.1523,502,733.1523,490,745.1523,388,745.1523,376,733.1523,388,721.1523" style="stroke:#181818;stroke-width:0.5;"/><text fill="#000000" font-family="sans-serif" font-size="11" lengthAdjust="spacing" textLength="102" x="388" y="737.6533">Produits disponibles?</text><text fill="#000000" font-family="sans-serif" font-size="11" lengthAdjust="spacing" textLength="14" x="362" y="730.7354">oui</text><text fill="#000000" font-family="sans-serif" font-size="11" lengthAdjust="spacing" textLength="18" x="502" y="730.7354">non</text><path d="M346.25,755.1523 L346.25,772.5039 L326.25,776.5039 L346.25,780.5039 L346.25,797.8555 A0,0 0 0 0 346.25,797.8555 L554.25,797.8555 A0,0 0 0 0 554.25,797.8555 L554.25,765.1523 L544.25,755.1523 L346.25,755.1523 A0,0 0 0 0 346.25,755.1523 " fill="#FEFFDD" style="stroke:#181818;stroke-width:0.5;"/><path d="M544.25,755.1523 L544.25,765.1523 L554.25,765.1523 L544.25,755.1523 " fill="#FEFFDD" style="stroke:#181818;stroke-width:0.5;"/><text fill="#000000" font-family="sans-serif" font-size="13" lengthAdjust="spacing" textLength="187" x="352.25" y="773.6475">Appel API vers Products Service</text><text fill="#000000" font-family="sans-serif" font-size="13" lengthAdjust="spacing" textLength="141" x="352.25" y="789.999">pour v&#233;rifier stock et prix</text><rect fill="#F1F1F1" height="35.0938" rx="12.5" ry="12.5" style="stroke:#181818;stroke-width:0.5;" width="285" x="41.25" y="758.957"/><text fill="#000000" font-family="sans-serif" font-size="12" lengthAdjust="spacing" textLength="265" x="51.25" y="781.4141">R&#233;cup&#233;rer infos produit depuis Products Service</text><rect fill="#F1F1F1" height="35.0938" rx="12.5" ry="12.5" style="stroke:#181818;stroke-width:0.5;" width="196" x="596.25" y="755.1523"/><text fill="#000000" font-family="sans-serif" font-size="12" lengthAdjust="spacing" textLength="176" x="606.25" y="777.6094">Enregistrer erreur (Prometheus)</text><rect fill="#F1F1F1" height="35.0938" rx="12.5" ry="12.5" style="stroke:#181818;stroke-width:0.5;" width="240" x="574.25" y="817.8555"/><text fill="#000000" font-family="sans-serif" font-size="12" lengthAdjust="spacing" textLength="220" x="584.25" y="840.3125">Retourner erreur 404 Product Not Found</text><ellipse cx="694.25" cy="883.9492" fill="none" rx="11" ry="11" style="stroke:#222222;stroke-width:1.0;"/><ellipse cx="694.25" cy="883.9492" fill="#222222" rx="6" ry="6" style="stroke:#222222;stroke-width:1.0;"/><path d="M559.5,904.9492 L559.5,930.4766 L539.5,934.4766 L559.5,938.4766 L559.5,964.0039 A0,0 0 0 0 559.5,964.0039 L719.5,964.0039 A0,0 0 0 0 719.5,964.0039 L719.5,914.9492 L709.5,904.9492 L559.5,904.9492 A0,0 0 0 0 559.5,904.9492 " fill="#FEFFDD" style="stroke:#181818;stroke-width:0.5;"/><path d="M709.5,904.9492 L709.5,914.9492 L719.5,914.9492 L709.5,904.9492 " fill="#FEFFDD" style="stroke:#181818;stroke-width:0.5;"/><text fill="#000000" font-family="sans-serif" font-size="13" lengthAdjust="spacing" textLength="139" x="565.5" y="923.4443">- Prix unitaire &#215; quantit&#233;</text><text fill="#000000" font-family="sans-serif" font-size="13" lengthAdjust="spacing" textLength="112" x="565.5" y="939.7959">- Taxes applicables</text><text fill="#000000" font-family="sans-serif" font-size="13" lengthAdjust="spacing" textLength="105" x="565.5" y="956.1475">- Frais de livraison</text><rect fill="#F1F1F1" height="35.0938" rx="12.5" ry="12.5" style="stroke:#181818;stroke-width:0.5;" width="201" x="338.5" y="916.9297"/><text fill="#000000" font-family="sans-serif" font-size="12" lengthAdjust="spacing" textLength="181" x="348.5" y="939.3867">Calculer le total de la commande</text><path d="M556,980.1992 L556,997.5508 L536,1001.5508 L556,1005.5508 L556,1022.9023 A0,0 0 0 0 556,1022.9023 L702,1022.9023 A0,0 0 0 0 702,1022.9023 L702,990.1992 L692,980.1992 L556,980.1992 A0,0 0 0 0 556,980.1992 " fill="#FEFFDD" style="stroke:#181818;stroke-width:0.5;"/><path d="M692,980.1992 L692,990.1992 L702,990.1992 L692,980.1992 " fill="#FEFFDD" style="stroke:#181818;stroke-width:0.5;"/><text fill="#000000" font-family="sans-serif" font-size="13" lengthAdjust="spacing" textLength="125" x="562" y="998.6943">V&#233;rification des droits</text><text fill="#000000" font-family="sans-serif" font-size="13" lengthAdjust="spacing" textLength="94" x="562" y="1015.0459">d'achat du client</text><rect fill="#F1F1F1" height="35.0938" rx="12.5" ry="12.5" style="stroke:#181818;stroke-width:0.5;" width="194" x="342" y="984.0039"/><text fill="#000000" font-family="sans-serif" font-size="12" lengthAdjust="spacing" textLength="174" x="352" y="1006.4609">V&#233;rifier les permissions dacc&#232;s</text><polygon fill="#F1F1F1" points="399,1042.9023,479,1042.9023,491,1054.9023,479,1066.9023,399,1066.9023,387,1054.9023,399,1042.9023" style="stroke:#181818;stroke-width:0.5;"/><text fill="#000000" font-family="sans-serif" font-size="11" lengthAdjust="spacing" textLength="80" x="399" y="1059.4033">Acc&#232;s autoris&#233;?</text><text fill="#000000" font-family="sans-serif" font-size="11" lengthAdjust="spacing" textLength="14" x="373" y="1052.4854">oui</text><text fill="#000000" font-family="sans-serif" font-size="11" lengthAdjust="spacing" textLength="18" x="491" y="1052.4854">non</text><path d="M204.5,1076.9023 L204.5,1102.4297 L184.5,1106.4297 L204.5,1110.4297 L204.5,1135.957 A0,0 0 0 0 204.5,1135.957 L425.5,1135.957 A0,0 0 0 0 425.5,1135.957 L425.5,1086.9023 L415.5,1076.9023 L204.5,1076.9023 A0,0 0 0 0 204.5,1076.9023 " fill="#FEFFDD" style="stroke:#181818;stroke-width:0.5;"/><path d="M415.5,1076.9023 L415.5,1086.9023 L425.5,1086.9023 L415.5,1076.9023 " fill="#FEFFDD" style="stroke:#181818;stroke-width:0.5;"/><text fill="#000000" font-family="sans-serif" font-size="13" lengthAdjust="spacing" textLength="134" x="210.5" y="1095.3975">- Cr&#233;er Checkout entity</text><text fill="#000000" font-family="sans-serif" font-size="13" lengthAdjust="spacing" textLength="200" x="210.5" y="1111.749">- Enregistrer m&#233;thode de paiement</text><text fill="#000000" font-family="sans-serif" font-size="13" lengthAdjust="spacing" textLength="134" x="210.5" y="1128.1006">- Calculer total_amount</text><rect fill="#F1F1F1" height="35.0938" rx="12.5" ry="12.5" style="stroke:#181818;stroke-width:0.5;" width="116" x="68.5" y="1088.8828"/><text fill="#000000" font-family="sans-serif" font-size="12" lengthAdjust="spacing" textLength="96" x="78.5" y="1111.3398">Cr&#233;er le checkout</text><path d="M257.5,1174.2891 L257.5,1183.4648 L237.5,1187.4648 L257.5,1191.4648 L257.5,1200.6406 A0,0 0 0 0 257.5,1200.6406 L614.5,1200.6406 A0,0 0 0 0 614.5,1200.6406 L614.5,1184.2891 L604.5,1174.2891 L257.5,1174.2891 A0,0 0 0 0 257.5,1174.2891 " fill="#FEFFDD" style="stroke:#181818;stroke-width:0.5;"/><path d="M604.5,1174.2891 L604.5,1184.2891 L614.5,1184.2891 L604.5,1174.2891 " fill="#FEFFDD" style="stroke:#181818;stroke-width:0.5;"/><text fill="#000000" font-family="sans-serif" font-size="13" lengthAdjust="spacing" textLength="336" x="263.5" y="1192.7842">Cache avec TTL de 360    pour optimiser les performances</text><rect fill="#F1F1F1" height="35.0938" rx="12.5" ry="12.5" style="stroke:#181818;stroke-width:0.5;" width="222" x="15.5" y="1169.918"/><text fill="#000000" font-family="sans-serif" font-size="12" lengthAdjust="spacing" textLength="202" x="25.5" y="1192.375">Mettre en cache les donn&#233;es (Redis)</text><path d="M209.5,1215.0117 L209.5,1240.5391 L189.5,1244.5391 L209.5,1248.5391 L209.5,1274.0664 A0,0 0 0 0 209.5,1274.0664 L442.5,1274.0664 A0,0 0 0 0 442.5,1274.0664 L442.5,1225.0117 L432.5,1215.0117 L209.5,1215.0117 A0,0 0 0 0 209.5,1215.0117 " fill="#FEFFDD" style="stroke:#181818;stroke-width:0.5;"/><path d="M432.5,1215.0117 L432.5,1225.0117 L442.5,1225.0117 L432.5,1215.0117 " fill="#FEFFDD" style="stroke:#181818;stroke-width:0.5;"/><text fill="#000000" font-family="sans-serif" font-size="13" lengthAdjust="spacing" textLength="105" x="215.5" y="1233.5068">- Cr&#233;er Sale entity</text><text fill="#000000" font-family="sans-serif" font-size="13" lengthAdjust="spacing" textLength="212" x="215.5" y="1249.8584">- Cr&#233;er SaleItem pour chaque produit</text><text fill="#000000" font-family="sans-serif" font-size="13" lengthAdjust="spacing" textLength="127" x="215.5" y="1266.21">- Associer au store_id</text><rect fill="#F1F1F1" height="35.0938" rx="12.5" ry="12.5" style="stroke:#181818;stroke-width:0.5;" width="126" x="63.5" y="1226.9922"/><text fill="#000000" font-family="sans-serif" font-size="12" lengthAdjust="spacing" textLength="106" x="73.5" y="1249.4492">Enregistrer la vente</text><rect fill="#F1F1F1" height="35.0938" rx="12.5" ry="12.5" style="stroke:#181818;stroke-width:0.5;" width="231" x="11" y="1294.0664"/><text fill="#000000" font-family="sans-serif" font-size="12" lengthAdjust="spacing" textLength="211" x="21" y="1316.5234">Enregistrer achat r&#233;ussi (Prometheus)</text><path d="M229,1339.1602 L229,1438.2695 L209,1442.2695 L229,1446.2695 L229,1545.3789 A0,0 0 0 0 229,1545.3789 L523,1545.3789 A0,0 0 0 0 523,1545.3789 L523,1349.1602 L513,1339.1602 L229,1339.1602 A0,0 0 0 0 229,1339.1602 " fill="#FEFFDD" style="stroke:#181818;stroke-width:0.5;"/><path d="M513,1339.1602 L513,1349.1602 L523,1349.1602 L513,1339.1602 " fill="#FEFFDD" style="stroke:#181818;stroke-width:0.5;"/><text fill="#000000" font-family="sans-serif" font-size="13" lengthAdjust="spacing" textLength="85" x="239" y="1357.6553">[object Object]</text><text fill="#000000" font-family="sans-serif" font-size="13" lengthAdjust="spacing" textLength="65" x="235" y="1374.0068">checkout: {</text><text fill="#000000" font-family="sans-serif" font-size="13" lengthAdjust="spacing" textLength="48" x="259" y="1390.3584">id": 123,</text><text fill="#000000" font-family="sans-serif" font-size="13" lengthAdjust="spacing" textLength="249" x="259" y="1406.71">customer_id": 456     total_amount": 99.99,</text><text fill="#000000" font-family="sans-serif" font-size="13" lengthAdjust="spacing" textLength="182" x="255" y="1423.0615">payment_method": "credit_card</text><text fill="#000000" font-family="sans-serif" font-size="13" lengthAdjust="spacing" textLength="8" x="251" y="1439.4131">},</text><text fill="#000000" font-family="sans-serif" font-size="13" lengthAdjust="spacing" textLength="36" x="247" y="1455.7646">sale: {</text><text fill="#000000" font-family="sans-serif" font-size="13" lengthAdjust="spacing" textLength="44" x="259" y="1472.1162">id": 789</text><text fill="#000000" font-family="sans-serif" font-size="13" lengthAdjust="spacing" textLength="66" x="247" y="1488.4678">store_id":1,</text><text fill="#000000" font-family="sans-serif" font-size="13" lengthAdjust="spacing" textLength="65" x="247" y="1504.8193">items": [...]</text><text fill="#000000" font-family="sans-serif" font-size="13" lengthAdjust="spacing" textLength="4" x="251" y="1521.1709">}</text><text fill="#000000" font-family="sans-serif" font-size="13" lengthAdjust="spacing" textLength="4" x="243" y="1537.5225">}</text><rect fill="#F1F1F1" height="35.0938" rx="12.5" ry="12.5" style="stroke:#181818;stroke-width:0.5;" width="165" x="44" y="1424.7227"/><text fill="#000000" font-family="sans-serif" font-size="12" lengthAdjust="spacing" textLength="145" x="54" y="1447.1797">Retourner r&#233;ponse 21ated</text><rect fill="#F1F1F1" height="35.0938" rx="12.5" ry="12.5" style="stroke:#181818;stroke-width:0.5;" width="234" x="634.5" y="1076.9023"/><text fill="#000000" font-family="sans-serif" font-size="12" lengthAdjust="spacing" textLength="214" x="644.5" y="1099.3594">Enregistrer acc&#232;s refus&#233; (Prometheus)</text><path d="M868.5,1145.957 L868.5,1171.4844 L848.5,1175.4844 L868.5,1179.4844 L868.5,1205.0117 A0,0 0 0 0 868.5,1205.0117 L1104.5,1205.0117 A0,0 0 0 0 1104.5,1205.0117 L1104.5,1155.957 L1094.5,1145.957 L868.5,1145.957 A0,0 0 0 0 868.5,1145.957 " fill="#FEFFDD" style="stroke:#181818;stroke-width:0.5;"/><path d="M1094.5,1145.957 L1094.5,1155.957 L1104.5,1155.957 L1094.5,1145.957 " fill="#FEFFDD" style="stroke:#181818;stroke-width:0.5;"/><text fill="#000000" font-family="sans-serif" font-size="13" lengthAdjust="spacing" textLength="215" x="874.5" y="1164.4521">[object Object]error":Access denied",</text><text fill="#000000" font-family="sans-serif" font-size="13" lengthAdjust="spacing" textLength="206" x="874.5" y="1180.8037">message": "Insufficient permissions</text><text fill="#000000" font-family="sans-serif" font-size="13" lengthAdjust="spacing" textLength="4" x="874.5" y="1197.1553">}</text><rect fill="#F1F1F1" height="35.0938" rx="12.5" ry="12.5" style="stroke:#181818;stroke-width:0.5;" width="194" x="654.5" y="1157.9375"/><text fill="#000000" font-family="sans-serif" font-size="12" lengthAdjust="spacing" textLength="174" x="664.5" y="1180.3945">Retourner erreur 403 Forbidden</text><polygon fill="#F1F1F1" points="439,1551.3789,451,1563.3789,439,1575.3789,427,1563.3789,439,1551.3789" style="stroke:#181818;stroke-width:0.5;"/><ellipse cx="439" cy="1606.3789" fill="none" rx="11" ry="11" style="stroke:#222222;stroke-width:1.0;"/><ellipse cx="439" cy="1606.3789" fill="#222222" rx="6" ry="6" style="stroke:#222222;stroke-width:1.0;"/><line style="stroke:#181818;stroke-width:1.0;" x1="439" x2="439" y1="30" y2="51.9805"/><polygon fill="#181818" points="435,41.9805,439,51.9805,443,41.9805,439,45.9805" style="stroke:#181818;stroke-width:1.0;"/><line style="stroke:#181818;stroke-width:1.0;" x1="439" x2="439" y1="87.0742" y2="119.0547"/><polygon fill="#181818" points="435,109.0547,439,119.0547,443,109.0547,439,113.0547" style="stroke:#181818;stroke-width:1.0;"/><line style="stroke:#181818;stroke-width:1.0;" x1="439" x2="439" y1="154.1484" y2="174.1484"/><polygon fill="#181818" points="435,164.1484,439,174.1484,443,164.1484,439,168.1484" style="stroke:#181818;stroke-width:1.0;"/><line style="stroke:#181818;stroke-width:1.0;" x1="439" x2="439" y1="209.2422" y2="229.2422"/><polygon fill="#181818" points="435,219.2422,439,229.2422,443,219.2422,439,223.2422" style="stroke:#181818;stroke-width:1.0;"/><line style="stroke:#181818;stroke-width:1.0;" x1="439" x2="439" y1="368.3477" y2="396.3008"/><polygon fill="#181818" points="435,386.3008,439,396.3008,443,386.3008,439,390.3008" style="stroke:#181818;stroke-width:1.0;"/><line style="stroke:#181818;stroke-width:1.0;" x1="439" x2="439" y1="308.3359" y2="333.2539"/><polygon fill="#181818" points="435,323.2539,439,333.2539,443,323.2539,439,327.2539" style="stroke:#181818;stroke-width:1.0;"/><line style="stroke:#181818;stroke-width:1.0;" x1="508" x2="548.5" y1="296.3359" y2="296.3359"/><polygon fill="#181818" points="544.5,366.3008,548.5,376.3008,552.5,366.3008,548.5,370.3008" style="stroke:#181818;stroke-width:1.0;"/><line style="stroke:#181818;stroke-width:1.0;" x1="548.5" x2="548.5" y1="296.3359" y2="440.3008"/><line style="stroke:#181818;stroke-width:1.0;" x1="548.5" x2="439" y1="440.3008" y2="440.3008"/><line style="stroke:#181818;stroke-width:1.0;" x1="439" x2="439" y1="440.3008" y2="460.3008"/><polygon fill="#181818" points="435,450.3008,439,460.3008,443,450.3008,439,454.3008" style="stroke:#181818;stroke-width:1.0;"/><line style="stroke:#181818;stroke-width:1.0;" x1="439" x2="439" y1="264.3359" y2="284.3359"/><polygon fill="#181818" points="435,274.3359,439,284.3359,443,274.3359,439,278.3359" style="stroke:#181818;stroke-width:1.0;"/><line style="stroke:#181818;stroke-width:1.0;" x1="385" x2="342" y1="531.1992" y2="531.1992"/><line style="stroke:#181818;stroke-width:1.0;" x1="342" x2="342" y1="531.1992" y2="553.1992"/><polygon fill="#181818" points="338,543.1992,342,553.1992,346,543.1992,342,547.1992" style="stroke:#181818;stroke-width:1.0;"/><line style="stroke:#181818;stroke-width:1.0;" x1="493" x2="536" y1="531.1992" y2="531.1992"/><line style="stroke:#181818;stroke-width:1.0;" x1="536" x2="536" y1="531.1992" y2="565.1797"/><polygon fill="#181818" points="532,555.1797,536,565.1797,540,555.1797,536,559.1797" style="stroke:#181818;stroke-width:1.0;"/><line style="stroke:#181818;stroke-width:1.0;" x1="342" x2="342" y1="588.293" y2="630.2539"/><line style="stroke:#181818;stroke-width:1.0;" x1="342" x2="427" y1="630.2539" y2="630.2539"/><polygon fill="#181818" points="417,626.2539,427,630.2539,417,634.2539,421,630.2539" style="stroke:#181818;stroke-width:1.0;"/><line style="stroke:#181818;stroke-width:1.0;" x1="536" x2="536" y1="600.2734" y2="630.2539"/><line style="stroke:#181818;stroke-width:1.0;" x1="536" x2="451" y1="630.2539" y2="630.2539"/><polygon fill="#181818" points="461,626.2539,451,630.2539,461,634.2539,457,630.2539" style="stroke:#181818;stroke-width:1.0;"/><line style="stroke:#181818;stroke-width:1.0;" x1="439" x2="439" y1="495.3945" y2="519.1992"/><polygon fill="#181818" points="435,509.1992,439,519.1992,443,509.1992,439,513.1992" style="stroke:#181818;stroke-width:1.0;"/><line style="stroke:#181818;stroke-width:1.0;" x1="439" x2="439" y1="642.2539" y2="662.2539"/><polygon fill="#181818" points="435,652.2539,439,662.2539,443,652.2539,439,656.2539" style="stroke:#181818;stroke-width:1.0;"/><line style="stroke:#181818;stroke-width:1.0;" x1="694.25" x2="694.25" y1="790.2461" y2="817.8555"/><polygon fill="#181818" points="690.25,807.8555,694.25,817.8555,698.25,807.8555,694.25,811.8555" style="stroke:#181818;stroke-width:1.0;"/><line style="stroke:#181818;stroke-width:1.0;" x1="694.25" x2="694.25" y1="852.9492" y2="872.9492"/><polygon fill="#181818" points="690.25,862.9492,694.25,872.9492,698.25,862.9492,694.25,866.9492" style="stroke:#181818;stroke-width:1.0;"/><line style="stroke:#181818;stroke-width:1.0;" x1="376" x2="183.75" y1="733.1523" y2="733.1523"/><line style="stroke:#181818;stroke-width:1.0;" x1="183.75" x2="183.75" y1="733.1523" y2="758.957"/><polygon fill="#181818" points="179.75,748.957,183.75,758.957,187.75,748.957,183.75,752.957" style="stroke:#181818;stroke-width:1.0;"/><line style="stroke:#181818;stroke-width:1.0;" x1="502" x2="694.25" y1="733.1523" y2="733.1523"/><line style="stroke:#181818;stroke-width:1.0;" x1="694.25" x2="694.25" y1="733.1523" y2="755.1523"/><polygon fill="#181818" points="690.25,745.1523,694.25,755.1523,698.25,745.1523,694.25,749.1523" style="stroke:#181818;stroke-width:1.0;"/><line style="stroke:#181818;stroke-width:1.0;" x1="183.75" x2="183.75" y1="794.0508" y2="899.9492"/><line style="stroke:#181818;stroke-width:1.0;" x1="183.75" x2="439" y1="899.9492" y2="899.9492"/><line style="stroke:#181818;stroke-width:1.0;" x1="439" x2="439" y1="899.9492" y2="916.9297"/><polygon fill="#181818" points="435,906.9297,439,916.9297,443,906.9297,439,910.9297" style="stroke:#181818;stroke-width:1.0;"/><line style="stroke:#181818;stroke-width:1.0;" x1="439" x2="439" y1="697.3477" y2="721.1523"/><polygon fill="#181818" points="435,711.1523,439,721.1523,443,711.1523,439,715.1523" style="stroke:#181818;stroke-width:1.0;"/><line style="stroke:#181818;stroke-width:1.0;" x1="439" x2="439" y1="952.0234" y2="984.0039"/><polygon fill="#181818" points="435,974.0039,439,984.0039,443,974.0039,439,978.0039" style="stroke:#181818;stroke-width:1.0;"/><line style="stroke:#181818;stroke-width:1.0;" x1="126.5" x2="126.5" y1="1123.9766" y2="1169.918"/><polygon fill="#181818" points="122.5,1159.918,126.5,1169.918,130.5,1159.918,126.5,1163.918" style="stroke:#181818;stroke-width:1.0;"/><line style="stroke:#181818;stroke-width:1.0;" x1="126.5" x2="126.5" y1="1205.0117" y2="1226.9922"/><polygon fill="#181818" points="122.5,1216.9922,126.5,1226.9922,130.5,1216.9922,126.5,1220.9922" style="stroke:#181818;stroke-width:1.0;"/><line style="stroke:#181818;stroke-width:1.0;" x1="126.5" x2="126.5" y1="1262.0859" y2="1294.0664"/><polygon fill="#181818" points="122.5,1284.0664,126.5,1294.0664,130.5,1284.0664,126.5,1288.0664" style="stroke:#181818;stroke-width:1.0;"/><line style="stroke:#181818;stroke-width:1.0;" x1="126.5" x2="126.5" y1="1329.1602" y2="1424.7227"/><polygon fill="#181818" points="122.5,1414.7227,126.5,1424.7227,130.5,1414.7227,126.5,1418.7227" style="stroke:#181818;stroke-width:1.0;"/><line style="stroke:#181818;stroke-width:1.0;" x1="751.5" x2="751.5" y1="1111.9961" y2="1157.9375"/><polygon fill="#181818" points="747.5,1147.9375,751.5,1157.9375,755.5,1147.9375,751.5,1151.9375" style="stroke:#181818;stroke-width:1.0;"/><line style="stroke:#181818;stroke-width:1.0;" x1="387" x2="126.5" y1="1054.9023" y2="1054.9023"/><line style="stroke:#181818;stroke-width:1.0;" x1="126.5" x2="126.5" y1="1054.9023" y2="1088.8828"/><polygon fill="#181818" points="122.5,1078.8828,126.5,1088.8828,130.5,1078.8828,126.5,1082.8828" style="stroke:#181818;stroke-width:1.0;"/><line style="stroke:#181818;stroke-width:1.0;" x1="491" x2="751.5" y1="1054.9023" y2="1054.9023"/><line style="stroke:#181818;stroke-width:1.0;" x1="751.5" x2="751.5" y1="1054.9023" y2="1076.9023"/><polygon fill="#181818" points="747.5,1066.9023,751.5,1076.9023,755.5,1066.9023,751.5,1070.9023" style="stroke:#181818;stroke-width:1.0;"/><line style="stroke:#181818;stroke-width:1.0;" x1="126.5" x2="126.5" y1="1459.8164" y2="1563.3789"/><line style="stroke:#181818;stroke-width:1.0;" x1="126.5" x2="427" y1="1563.3789" y2="1563.3789"/><polygon fill="#181818" points="417,1559.3789,427,1563.3789,417,1567.3789,421,1563.3789" style="stroke:#181818;stroke-width:1.0;"/><line style="stroke:#181818;stroke-width:1.0;" x1="751.5" x2="751.5" y1="1193.0313" y2="1563.3789"/><line style="stroke:#181818;stroke-width:1.0;" x1="751.5" x2="451" y1="1563.3789" y2="1563.3789"/><polygon fill="#181818" points="461,1559.3789,451,1563.3789,461,1567.3789,457,1563.3789" style="stroke:#181818;stroke-width:1.0;"/><line style="stroke:#181818;stroke-width:1.0;" x1="439" x2="439" y1="1019.0977" y2="1042.9023"/><polygon fill="#181818" points="435,1032.9023,439,1042.9023,443,1032.9023,439,1036.9023" style="stroke:#181818;stroke-width:1.0;"/><line style="stroke:#181818;stroke-width:1.0;" x1="439" x2="439" y1="1575.3789" y2="1595.3789"/><polygon fill="#181818" points="435,1585.3789,439,1595.3789,443,1585.3789,439,1589.3789" style="stroke:#181818;stroke-width:1.0;"/><!--SRC=[ZLNRRjj647tNLmpqKWceRx6RLj938QXD8JHj3DleIn08w-L8ceJSPVR2sWZo7Vc4LFqD_bXdbnH5KevHmx29dTdTCsVEcRLE63SOJ1SfeN90YXmXU0L2ReMR3PHs28OsMpS0k7vpUmTd8gUpucAhyvpKvaJoViinxJjXb1-qZm5He8GKBIHQgN8NFZp8UDq0LGBX1WOmlrx2RyBXt-8HHhzhjHc3mVAh9WUfuC-FllpNuOmpRqKuxHPDGHB16K4CiPVpbqWf4OwqWgHpDTzg-6ise3MCVjalLt2W2BlG_Zm6jqK58-rfFC3K8eoKLcCkPdg3JdkZq00QWzx0rVcvIE26xqRBV05Of_DG6Aq3Zd9dQ4sSdY98vXGvDI7R8_O6EM92D17ADhaSoVcso5uk51zZ0H_8Eg6OsWDvePRh60U67RTsQmZ0ovtqESFXfEgis8UGE-lLk0WC6JxR5oXyarqh0g037U04wWstjIOMGL9LP6wjbc6tQ7fU1PP1Q4otnReyenDFKJ1DNNiIv-zPIW5sdGCDg6VqsMZpx5FS9zqo-RoNuqVF398hTu11yslT0EYpkh-IUvPhHVTfNnuzQZk7iTnoJnQkAm2DQ9yWSPxdc48mGH6wtDyHSw8MYaPHB3Jv8HIG6theyDRfvg_Au8OrOmwQ3MLbo4LuEvvzGzLNUmpmftRmIdkL7Abx8LBfqqhSJZkHSi71YL9dcL09zjfpmaVI0myNSe8CGldbq8WOlXCFB0MHvob94QYEgw_OuJQUJ4NurAezDzeEO-BHP6Gj-zu6mShodxxLwdpP6Wv6Ly9BleiIVt8-1J7CutciFgSDsN9t98JQ1y6-sse0FcUNHPt3ZMCA7kjWkrrPkNDRpPNpRou8iuD_6keZxokHSODSMmG00T4VwFYaPYfqv_0eZgBn4nWNCJbQvUxkTRZ-ykLv8q6TEyeEpaMpreRxBT4U0sYNmyeek09yTeRmSEyIqWei7MOL1EuJ3zp6jCV3XdLgS4N9yuYgVlC5dZLpP8kkCpYB9m0xwyK5FrF9SH5lzVrxPB-yYV_UyT9U1LFu52667qg6KxXuSVbzio8zWytGh6BeweUNSRNTLrwUJ4udasPFBXw35bO1hGwxXj9mBzsA9rvI9tskioqJTmJWnvycTRJcQJYzgFFvDSqifxmzFJrzjpzhiF_R9lFRSwPo7h_8Qyy- -L_pvf9dZBcdX5_e9_JHuvPtQJESiY7HnaUTC1bM-3DU4HiCd2oLzMksUdpRMvFXk9XweCNXzXy0]--></g></svg>