<?xml version="1.0" encoding="us-ascii" standalone="no"?><svg xmlns="http://www.w3.org/2000/svg" xmlns:xlink="http://www.w3.org/1999/xlink" contentStyleType="text/css" height="439px" preserveAspectRatio="none" style="width:1131px;height:439px;background:#FFFFFF;" version="1.1" viewBox="0 0 1131 439" width="1131px" zoomAndPan="magnify"><defs/><g><text fill="#000000" font-family="sans-serif" font-size="14" font-weight="bold" lengthAdjust="spacing" textLength="564" x="285.25" y="27.9951">Processus de retour d'une vente (multi-magasin, Express, PostgreSQL)</text><line style="stroke:#181818;stroke-width:0.5;stroke-dasharray:5.0,5.0;" x1="42" x2="42" y1="120.8906" y2="432.2188"/><line style="stroke:#181818;stroke-width:0.5;stroke-dasharray:5.0,5.0;" x1="218" x2="218" y1="120.8906" y2="432.2188"/><line style="stroke:#181818;stroke-width:0.5;stroke-dasharray:5.0,5.0;" x1="484" x2="484" y1="120.8906" y2="432.2188"/><line style="stroke:#181818;stroke-width:0.5;stroke-dasharray:5.0,5.0;" x1="684.5" x2="684.5" y1="120.8906" y2="432.2188"/><line style="stroke:#181818;stroke-width:0.5;stroke-dasharray:5.0,5.0;" x1="1086.5" x2="1086.5" y1="120.8906" y2="432.2188"/><text fill="#000000" font-family="sans-serif" font-size="14" lengthAdjust="spacing" textLength="68" x="5" y="117.5889">Utilisateur</text><ellipse cx="42" cy="53.0938" fill="#E2E2F0" rx="8" ry="8" style="stroke:#181818;stroke-width:0.5;"/><path d="M42,61.0938 L42,88.0938 M29,69.0938 L55,69.0938 M42,88.0938 L29,103.0938 M42,88.0938 L55,103.0938 " fill="none" style="stroke:#181818;stroke-width:0.5;"/><rect fill="#E2E2F0" height="30.2969" rx="2.5" ry="2.5" style="stroke:#181818;stroke-width:0.5;" width="122" x="157" y="89.5938"/><text fill="#000000" font-family="sans-serif" font-size="14" lengthAdjust="spacing" textLength="108" x="164" y="109.5889">Navigateur Web</text><rect fill="#E2E2F0" height="46.5938" rx="2.5" ry="2.5" style="stroke:#181818;stroke-width:0.5;" width="158" x="405" y="73.2969"/><text fill="#000000" font-family="sans-serif" font-size="14" lengthAdjust="spacing" textLength="70" x="449" y="93.292">Express.js</text><text fill="#000000" font-family="sans-serif" font-size="14" lengthAdjust="spacing" textLength="144" x="412" y="109.5889">(serviceApiRouter.ts)</text><rect fill="#E2E2F0" height="46.5938" rx="2.5" ry="2.5" style="stroke:#181818;stroke-width:0.5;" width="119" x="625.5" y="73.2969"/><text fill="#000000" font-family="sans-serif" font-size="14" lengthAdjust="spacing" textLength="79" x="645.5" y="93.292">SaleService</text><text fill="#000000" font-family="sans-serif" font-size="14" lengthAdjust="spacing" textLength="105" x="632.5" y="109.5889">(saleService.ts)</text><text fill="#000000" font-family="sans-serif" font-size="14" lengthAdjust="spacing" textLength="81" x="1043.5" y="101.292">PostgreSQL</text><text fill="#000000" font-family="sans-serif" font-size="14" lengthAdjust="spacing" textLength="77" x="1045.5" y="117.5889">(TypeORM)</text><path d="M1069,52.2969 C1069,42.2969 1087,42.2969 1087,42.2969 C1087,42.2969 1105,42.2969 1105,52.2969 L1105,78.2969 C1105,88.2969 1087,88.2969 1087,88.2969 C1087,88.2969 1069,88.2969 1069,78.2969 L1069,52.2969 " fill="#E2E2F0" style="stroke:#181818;stroke-width:1.5;"/><path d="M1069,52.2969 C1069,62.2969 1087,62.2969 1087,62.2969 C1087,62.2969 1105,62.2969 1105,52.2969 " fill="none" style="stroke:#181818;stroke-width:1.5;"/><polygon fill="#181818" points="206,148.0234,216,152.0234,206,156.0234" style="stroke:#181818;stroke-width:1.0;"/><line style="stroke:#181818;stroke-width:1.0;" x1="42" x2="212" y1="152.0234" y2="152.0234"/><text fill="#000000" font-family="sans-serif" font-size="13" lengthAdjust="spacing" textLength="152" x="49" y="146.9575">Choisir 'G&#233;rer un retour'</text><polygon fill="#181818" points="472,177.1563,482,181.1563,472,185.1563" style="stroke:#181818;stroke-width:1.0;"/><line style="stroke:#181818;stroke-width:1.0;" x1="218" x2="478" y1="181.1563" y2="181.1563"/><text fill="#000000" font-family="sans-serif" font-size="13" lengthAdjust="spacing" textLength="242" x="225" y="176.0903">POST /manage-return (saleId, storeId)</text><polygon fill="#181818" points="673,206.2891,683,210.2891,673,214.2891" style="stroke:#181818;stroke-width:1.0;"/><line style="stroke:#181818;stroke-width:1.0;" x1="484" x2="679" y1="210.2891" y2="210.2891"/><text fill="#000000" font-family="sans-serif" font-size="13" lengthAdjust="spacing" textLength="168" x="491" y="205.2231">cancelSale(saleId, storeId)</text><polygon fill="#181818" points="1075,235.4219,1085,239.4219,1075,243.4219" style="stroke:#181818;stroke-width:1.0;"/><line style="stroke:#181818;stroke-width:1.0;" x1="685" x2="1081" y1="239.4219" y2="239.4219"/><text fill="#000000" font-family="sans-serif" font-size="13" lengthAdjust="spacing" textLength="370" x="692" y="234.356">getRepository(Sale).findOneBy({id: saleId, store: storeId})</text><polygon fill="#181818" points="696,264.5547,686,268.5547,696,272.5547" style="stroke:#181818;stroke-width:1.0;"/><line style="stroke:#181818;stroke-width:1.0;stroke-dasharray:2.0,2.0;" x1="690" x2="1086" y1="268.5547" y2="268.5547"/><text fill="#000000" font-family="sans-serif" font-size="13" lengthAdjust="spacing" textLength="155" x="702" y="263.4888">informations de la vente</text><polygon fill="#181818" points="1075,293.6875,1085,297.6875,1075,301.6875" style="stroke:#181818;stroke-width:1.0;"/><line style="stroke:#181818;stroke-width:1.0;" x1="685" x2="1081" y1="297.6875" y2="297.6875"/><text fill="#000000" font-family="sans-serif" font-size="13" lengthAdjust="spacing" textLength="87" x="692" y="292.6216">delete(saleId)</text><polygon fill="#181818" points="1075,322.8203,1085,326.8203,1075,330.8203" style="stroke:#181818;stroke-width:1.0;"/><line style="stroke:#181818;stroke-width:1.0;" x1="685" x2="1081" y1="326.8203" y2="326.8203"/><text fill="#000000" font-family="sans-serif" font-size="13" lengthAdjust="spacing" textLength="378" x="692" y="321.7544">Mettre &#224; jour le stock dans Inventory (+quantit&#233; retourn&#233;e)</text><polygon fill="#181818" points="696,351.9531,686,355.9531,696,359.9531" style="stroke:#181818;stroke-width:1.0;"/><line style="stroke:#181818;stroke-width:1.0;stroke-dasharray:2.0,2.0;" x1="690" x2="1086" y1="355.9531" y2="355.9531"/><text fill="#000000" font-family="sans-serif" font-size="13" lengthAdjust="spacing" textLength="326" x="702" y="350.8872">confirmation de la suppression et mise &#224; jour stock</text><polygon fill="#181818" points="495,381.0859,485,385.0859,495,389.0859" style="stroke:#181818;stroke-width:1.0;"/><line style="stroke:#181818;stroke-width:1.0;stroke-dasharray:2.0,2.0;" x1="489" x2="684" y1="385.0859" y2="385.0859"/><text fill="#000000" font-family="sans-serif" font-size="13" lengthAdjust="spacing" textLength="177" x="501" y="380.02">confirmation de l'annulation</text><polygon fill="#181818" points="229,410.2188,219,414.2188,229,418.2188" style="stroke:#181818;stroke-width:1.0;"/><line style="stroke:#181818;stroke-width:1.0;stroke-dasharray:2.0,2.0;" x1="223" x2="483" y1="414.2188" y2="414.2188"/><text fill="#000000" font-family="sans-serif" font-size="13" lengthAdjust="spacing" textLength="217" x="235" y="409.1528">Afficher confirmation &#224; l'utilisateur</text><!--SRC=[VPFFZjf03CRlynGMboGgq3k7Iji_gbRg5WfRzTABT-9alPlCf3CUL5JrNNhbENYnJaA0H4XSaepr- -pFOyU_icdGOGrUTXN5fsCjeQwK4fOOM3choVlW8ITm93Ouo9DW2BPaX22jGoKygx54psOAdtutBl9JM5alfQFDjo-PKgZ5ElWkNB57eU1KB2gikK4ZCFcAMowxEFoWfmcWRzzZfayyV_4_JUh9RLdJNSDh6uJSN7pMoNfgBDrWHPkZejLUJcVPW50v2ZwX9vXSMeYonrr3o_N3aV_OCqeDUeBPkzOsBE33isNF3fBFXxqZ1y7qLvUe5eXSxpEog-Nc4TxMQB2aMQI2Cz1vlC-dSHpMnOzCdVWe7NYDSer6KzN6haL3CWfFfgEg95bJOpr7T9UsN3OlsEHBG-ztwH_E5p3AjZWb_PkfSvhPbHasXNKr2blJxKk5nosvuIIdYkJa_PRb1n9n18T_yDBkOBUhLhz2Zh7MlMdhn5uWVVChnA6p7FRzdPl3dcwwrjOKtDlkNVlGTFVTHaYWPd-ft9KT6nqDz2fTWiQ4gZjVvdZUbRkYOFqSbsIaYyMg90p-b_y0]--></g></svg>