<?xml version="1.0" encoding="us-ascii" standalone="no"?><svg xmlns="http://www.w3.org/2000/svg" xmlns:xlink="http://www.w3.org/1999/xlink" contentStyleType="text/css" height="481px" preserveAspectRatio="none" style="width:938px;height:481px;background:#FFFFFF;" version="1.1" viewBox="0 0 938 481" width="938px" zoomAndPan="magnify"><defs/><g><text fill="#000000" font-family="sans-serif" font-size="14" font-weight="bold" lengthAdjust="spacing" textLength="262" x="339.5" y="27.9951">Processus de retour d'une vente</text><line style="stroke:#181818;stroke-width:0.5;stroke-dasharray:5.0,5.0;" x1="42" x2="42" y1="120.8906" y2="474.3516"/><line style="stroke:#181818;stroke-width:0.5;stroke-dasharray:5.0,5.0;" x1="375.5" x2="375.5" y1="120.8906" y2="474.3516"/><line style="stroke:#181818;stroke-width:0.5;stroke-dasharray:5.0,5.0;" x1="577" x2="577" y1="120.8906" y2="474.3516"/><line style="stroke:#181818;stroke-width:0.5;stroke-dasharray:5.0,5.0;" x1="871" x2="871" y1="120.8906" y2="474.3516"/><text fill="#000000" font-family="sans-serif" font-size="14" lengthAdjust="spacing" textLength="68" x="5" y="117.5889">Utilisateur</text><ellipse cx="42" cy="53.0938" fill="#E2E2F0" rx="8" ry="8" style="stroke:#181818;stroke-width:0.5;"/><path d="M42,61.0938 L42,88.0938 M29,69.0938 L55,69.0938 M42,88.0938 L29,103.0938 M42,88.0938 L55,103.0938 " fill="none" style="stroke:#181818;stroke-width:0.5;"/><rect fill="#E2E2F0" height="30.2969" rx="2.5" ry="2.5" style="stroke:#181818;stroke-width:0.5;" width="79" x="336.5" y="89.5938"/><text fill="#000000" font-family="sans-serif" font-size="14" lengthAdjust="spacing" textLength="65" x="343.5" y="109.5889">CLI (cli.ts)</text><rect fill="#E2E2F0" height="30.2969" rx="2.5" ry="2.5" style="stroke:#181818;stroke-width:0.5;" width="202" x="476" y="89.5938"/><text fill="#000000" font-family="sans-serif" font-size="14" lengthAdjust="spacing" textLength="188" x="483" y="109.5889">SaleService (saleService.ts)</text><text fill="#000000" font-family="sans-serif" font-size="14" lengthAdjust="spacing" textLength="108" x="814" y="101.292">AppDataSource</text><text fill="#000000" font-family="sans-serif" font-size="14" lengthAdjust="spacing" textLength="126" x="805" y="117.5889">(TypeORM/SQLite)</text><path d="M853,52.2969 C853,42.2969 871,42.2969 871,42.2969 C871,42.2969 889,42.2969 889,52.2969 L889,78.2969 C889,88.2969 871,88.2969 871,88.2969 C871,88.2969 853,88.2969 853,78.2969 L853,52.2969 " fill="#E2E2F0" style="stroke:#181818;stroke-width:1.5;"/><path d="M853,52.2969 C853,62.2969 871,62.2969 871,62.2969 C871,62.2969 889,62.2969 889,52.2969 " fill="none" style="stroke:#181818;stroke-width:1.5;"/><polygon fill="#181818" points="364,148.0234,374,152.0234,364,156.0234" style="stroke:#181818;stroke-width:1.0;"/><line style="stroke:#181818;stroke-width:1.0;" x1="42" x2="370" y1="152.0234" y2="152.0234"/><text fill="#000000" font-family="sans-serif" font-size="13" lengthAdjust="spacing" textLength="152" x="49" y="146.9575">Choisir 'G&#233;rer un retour'</text><line style="stroke:#181818;stroke-width:1.0;" x1="376" x2="418" y1="181.1563" y2="181.1563"/><line style="stroke:#181818;stroke-width:1.0;" x1="418" x2="418" y1="181.1563" y2="194.1563"/><line style="stroke:#181818;stroke-width:1.0;" x1="377" x2="418" y1="194.1563" y2="194.1563"/><polygon fill="#181818" points="387,190.1563,377,194.1563,387,198.1563" style="stroke:#181818;stroke-width:1.0;"/><text fill="#000000" font-family="sans-serif" font-size="13" lengthAdjust="spacing" textLength="95" x="383" y="176.0903">handleReturn()</text><polygon fill="#181818" points="53,219.2891,43,223.2891,53,227.2891" style="stroke:#181818;stroke-width:1.0;"/><line style="stroke:#181818;stroke-width:1.0;" x1="47" x2="375" y1="223.2891" y2="223.2891"/><text fill="#000000" font-family="sans-serif" font-size="13" lengthAdjust="spacing" textLength="310" x="59" y="218.2231">Demander num&#233;ro de vente &#224; annuler (number)</text><polygon fill="#181818" points="364,248.4219,374,252.4219,364,256.4219" style="stroke:#181818;stroke-width:1.0;"/><line style="stroke:#181818;stroke-width:1.0;" x1="42" x2="370" y1="252.4219" y2="252.4219"/><text fill="#000000" font-family="sans-serif" font-size="13" lengthAdjust="spacing" textLength="144" x="49" y="247.356">Saisir crit&#232;re (number)</text><polygon fill="#181818" points="565,277.5547,575,281.5547,565,285.5547" style="stroke:#181818;stroke-width:1.0;"/><line style="stroke:#181818;stroke-width:1.0;" x1="376" x2="571" y1="281.5547" y2="281.5547"/><text fill="#000000" font-family="sans-serif" font-size="13" lengthAdjust="spacing" textLength="170" x="383" y="276.4888">cancelSale(saleId:number)</text><polygon fill="#181818" points="859,306.6875,869,310.6875,859,314.6875" style="stroke:#181818;stroke-width:1.0;"/><line style="stroke:#181818;stroke-width:1.0;" x1="577" x2="865" y1="310.6875" y2="310.6875"/><text fill="#000000" font-family="sans-serif" font-size="13" lengthAdjust="spacing" textLength="270" x="584" y="305.6216">getRepository(Sale).findOneBy(id:number)</text><polygon fill="#181818" points="588,335.8203,578,339.8203,588,343.8203" style="stroke:#181818;stroke-width:1.0;"/><line style="stroke:#181818;stroke-width:1.0;stroke-dasharray:2.0,2.0;" x1="582" x2="870" y1="339.8203" y2="339.8203"/><text fill="#000000" font-family="sans-serif" font-size="13" lengthAdjust="spacing" textLength="155" x="594" y="334.7544">informations de la vente</text><polygon fill="#181818" points="859,364.9531,869,368.9531,859,372.9531" style="stroke:#181818;stroke-width:1.0;"/><line style="stroke:#181818;stroke-width:1.0;" x1="577" x2="865" y1="368.9531" y2="368.9531"/><text fill="#000000" font-family="sans-serif" font-size="13" lengthAdjust="spacing" textLength="141" x="584" y="363.8872">delete(saleId:number)</text><polygon fill="#181818" points="588,394.0859,578,398.0859,588,402.0859" style="stroke:#181818;stroke-width:1.0;"/><line style="stroke:#181818;stroke-width:1.0;stroke-dasharray:2.0,2.0;" x1="582" x2="870" y1="398.0859" y2="398.0859"/><text fill="#000000" font-family="sans-serif" font-size="13" lengthAdjust="spacing" textLength="196" x="594" y="393.02">confirmation de la suppression</text><polygon fill="#181818" points="387,423.2188,377,427.2188,387,431.2188" style="stroke:#181818;stroke-width:1.0;"/><line style="stroke:#181818;stroke-width:1.0;stroke-dasharray:2.0,2.0;" x1="381" x2="576" y1="427.2188" y2="427.2188"/><text fill="#000000" font-family="sans-serif" font-size="13" lengthAdjust="spacing" textLength="177" x="393" y="422.1528">confirmation de l'annulation</text><polygon fill="#181818" points="53,452.3516,43,456.3516,53,460.3516" style="stroke:#181818;stroke-width:1.0;"/><line style="stroke:#181818;stroke-width:1.0;stroke-dasharray:2.0,2.0;" x1="47" x2="375" y1="456.3516" y2="456.3516"/><text fill="#000000" font-family="sans-serif" font-size="13" lengthAdjust="spacing" textLength="124" x="59" y="451.2856">Vente {id} annul&#233;e</text><!--SRC=[VL91Rjj03BplAmXVB1-StdqeqCP0OS25MwlfAPVrYcw8hhW2bsl02FAN79Dt-6DPoRAjm6al0aZES4R3ZN-96oksXgXxZ_ahv3JLtXWbpOqV4Xp6c29K288Qaa0rJeomGrOqrcaGk5Fo5ArY4fFNAJbgB2kCRfSBA9od6usJ4TW8kV4UKLgF9SgE748HByMPCG2OoghTs8Wm-j8qyroKsO_3Uov-xHjShRz_AdykIV78dFTeOmR-OFgvDG4pk7q854bW_EtmAYYGkF_1iMa1Pzo3vShZ6ZK95vFJRBXo1dEiCoeluLJdRQ5Dgmi83izWcPFFio8FDoYJZ-sKjdFZXFJm8dX1zuB3e6RWB3lqRQyBRL7DJl0XBjDE8MJE7zGrDY5IFjc-Q76JcornjMBykY_eikBCcLxf4c-3r5OfSFSalEqVmhzbA_IeLpR_e-42RwaNwJLYQXh9xp1ttYkTuxiYZRlOk_eOuTNHVdS7UgJgwNYYmokQDm00]--></g></svg>