<?xml version="1.0" encoding="us-ascii" standalone="no"?><svg xmlns="http://www.w3.org/2000/svg" xmlns:xlink="http://www.w3.org/1999/xlink" contentStyleType="text/css" height="423px" preserveAspectRatio="none" style="width:938px;height:423px;background:#FFFFFF;" version="1.1" viewBox="0 0 938 423" width="938px" zoomAndPan="magnify"><defs/><g><text fill="#000000" font-family="sans-serif" font-size="14" font-weight="bold" lengthAdjust="spacing" textLength="262" x="339.5" y="27.9951">Processus de retour d'une vente</text><line style="stroke:#181818;stroke-width:0.5;stroke-dasharray:5.0,5.0;" x1="42" x2="42" y1="120.8906" y2="416.0859"/><line style="stroke:#181818;stroke-width:0.5;stroke-dasharray:5.0,5.0;" x1="375.5" x2="375.5" y1="120.8906" y2="416.0859"/><line style="stroke:#181818;stroke-width:0.5;stroke-dasharray:5.0,5.0;" x1="577" x2="577" y1="120.8906" y2="416.0859"/><line style="stroke:#181818;stroke-width:0.5;stroke-dasharray:5.0,5.0;" x1="871" x2="871" y1="120.8906" y2="416.0859"/><text fill="#000000" font-family="sans-serif" font-size="14" lengthAdjust="spacing" textLength="68" x="5" y="117.5889">Utilisateur</text><ellipse cx="42" cy="53.0938" fill="#E2E2F0" rx="8" ry="8" style="stroke:#181818;stroke-width:0.5;"/><path d="M42,61.0938 L42,88.0938 M29,69.0938 L55,69.0938 M42,88.0938 L29,103.0938 M42,88.0938 L55,103.0938 " fill="none" style="stroke:#181818;stroke-width:0.5;"/><rect fill="#E2E2F0" height="30.2969" rx="2.5" ry="2.5" style="stroke:#181818;stroke-width:0.5;" width="79" x="336.5" y="89.5938"/><text fill="#000000" font-family="sans-serif" font-size="14" lengthAdjust="spacing" textLength="65" x="343.5" y="109.5889">CLI (cli.ts)</text><rect fill="#E2E2F0" height="30.2969" rx="2.5" ry="2.5" style="stroke:#181818;stroke-width:0.5;" width="202" x="476" y="89.5938"/><text fill="#000000" font-family="sans-serif" font-size="14" lengthAdjust="spacing" textLength="188" x="483" y="109.5889">SaleService (saleService.ts)</text><text fill="#000000" font-family="sans-serif" font-size="14" lengthAdjust="spacing" textLength="108" x="814" y="101.292">AppDataSource</text><text fill="#000000" font-family="sans-serif" font-size="14" lengthAdjust="spacing" textLength="126" x="805" y="117.5889">(TypeORM/SQLite)</text><path d="M853,52.2969 C853,42.2969 871,42.2969 871,42.2969 C871,42.2969 889,42.2969 889,52.2969 L889,78.2969 C889,88.2969 871,88.2969 871,88.2969 C871,88.2969 853,88.2969 853,78.2969 L853,52.2969 " fill="#E2E2F0" style="stroke:#181818;stroke-width:1.5;"/><path d="M853,52.2969 C853,62.2969 871,62.2969 871,62.2969 C871,62.2969 889,62.2969 889,52.2969 " fill="none" style="stroke:#181818;stroke-width:1.5;"/><polygon fill="#181818" points="364,148.0234,374,152.0234,364,156.0234" style="stroke:#181818;stroke-width:1.0;"/><line style="stroke:#181818;stroke-width:1.0;" x1="42" x2="370" y1="152.0234" y2="152.0234"/><text fill="#000000" font-family="sans-serif" font-size="13" lengthAdjust="spacing" textLength="152" x="49" y="146.9575">Choisir 'G&#233;rer un retour'</text><polygon fill="#181818" points="53,177.1563,43,181.1563,53,185.1563" style="stroke:#181818;stroke-width:1.0;"/><line style="stroke:#181818;stroke-width:1.0;" x1="47" x2="375" y1="181.1563" y2="181.1563"/><text fill="#000000" font-family="sans-serif" font-size="13" lengthAdjust="spacing" textLength="310" x="59" y="176.0903">Demander num&#233;ro de vente &#224; annuler (number)</text><polygon fill="#181818" points="364,206.2891,374,210.2891,364,214.2891" style="stroke:#181818;stroke-width:1.0;"/><line style="stroke:#181818;stroke-width:1.0;" x1="42" x2="370" y1="210.2891" y2="210.2891"/><text fill="#000000" font-family="sans-serif" font-size="13" lengthAdjust="spacing" textLength="144" x="49" y="205.2231">Saisir crit&#232;re (number)</text><line style="stroke:#181818;stroke-width:1.0;" x1="376" x2="418" y1="239.4219" y2="239.4219"/><line style="stroke:#181818;stroke-width:1.0;" x1="418" x2="418" y1="239.4219" y2="252.4219"/><line style="stroke:#181818;stroke-width:1.0;" x1="377" x2="418" y1="252.4219" y2="252.4219"/><polygon fill="#181818" points="387,248.4219,377,252.4219,387,256.4219" style="stroke:#181818;stroke-width:1.0;"/><text fill="#000000" font-family="sans-serif" font-size="13" lengthAdjust="spacing" textLength="95" x="383" y="234.356">handleReturn()</text><polygon fill="#181818" points="565,277.5547,575,281.5547,565,285.5547" style="stroke:#181818;stroke-width:1.0;"/><line style="stroke:#181818;stroke-width:1.0;" x1="376" x2="571" y1="281.5547" y2="281.5547"/><text fill="#000000" font-family="sans-serif" font-size="13" lengthAdjust="spacing" textLength="170" x="383" y="276.4888">cancelSale(saleId:number)</text><polygon fill="#181818" points="859,306.6875,869,310.6875,859,314.6875" style="stroke:#181818;stroke-width:1.0;"/><line style="stroke:#181818;stroke-width:1.0;" x1="577" x2="865" y1="310.6875" y2="310.6875"/><text fill="#000000" font-family="sans-serif" font-size="13" lengthAdjust="spacing" textLength="270" x="584" y="305.6216">getRepository(Sale).findOneBy(id:number)</text><polygon fill="#181818" points="859,335.8203,869,339.8203,859,343.8203" style="stroke:#181818;stroke-width:1.0;"/><line style="stroke:#181818;stroke-width:1.0;" x1="577" x2="865" y1="339.8203" y2="339.8203"/><text fill="#000000" font-family="sans-serif" font-size="13" lengthAdjust="spacing" textLength="141" x="584" y="334.7544">delete(saleId:number)</text><polygon fill="#181818" points="387,364.9531,377,368.9531,387,372.9531" style="stroke:#181818;stroke-width:1.0;"/><line style="stroke:#181818;stroke-width:1.0;stroke-dasharray:2.0,2.0;" x1="381" x2="576" y1="368.9531" y2="368.9531"/><text fill="#000000" font-family="sans-serif" font-size="13" lengthAdjust="spacing" textLength="177" x="393" y="363.8872">confirmation de l'annulation</text><polygon fill="#181818" points="53,394.0859,43,398.0859,53,402.0859" style="stroke:#181818;stroke-width:1.0;"/><line style="stroke:#181818;stroke-width:1.0;stroke-dasharray:2.0,2.0;" x1="47" x2="375" y1="398.0859" y2="398.0859"/><text fill="#000000" font-family="sans-serif" font-size="13" lengthAdjust="spacing" textLength="124" x="59" y="393.02">Vente {id} annul&#233;e</text><!--SRC=[ZP5BJiCm48RtFiMecwGBoZuB96WbX5HKQ80L6zUUqX6E4zdZIX7YBYpfEN8ndAIF811YOsbc_dyUd_qhsKewMO3dsc1y7IaEXH62YMFYpfKAlGyUD893BeC3dGIBi4NBAAJYqi4Zao4l6OCJiHsJeafQXj5qVWEfCZHXFnw1z10JtnMvD9YZsv92IFqfE3e60g4bovNq2AFBgfh588_xA7oswKDTuM9vUvxVpucnTyxsQY46-y7PHRi4P33TbEJ9GNBTx1mw27P_O29QGTGDRHdCi91MHw4DHNIKBP4E0ZGV8AqD9jRIM5oX6_y-CfVTHEM8cq-79_L-OA_Qn346byZ1sVHO6uBAG4chqBIv3jgDpWwjXhfeEq28dXVa9LQbf_XbTThgnfCrMRsmU5Mdz9yM6WtotoEFPwZIhiaLagcqBIkJT92wk3_g1-Ad3kSRwVSUQBD3yGK0]--></g></svg>