<?xml version="1.0" encoding="us-ascii" standalone="no"?><svg xmlns="http://www.w3.org/2000/svg" xmlns:xlink="http://www.w3.org/1999/xlink" contentStyleType="text/css" height="1310px" preserveAspectRatio="none" style="width:1113px;height:1310px;background:#FFFFFF;" version="1.1" viewBox="0 0 1113 1310" width="1113px" zoomAndPan="magnify"><defs/><g><ellipse cx="446.5" cy="20" fill="#222222" rx="10" ry="10" style="stroke:#222222;stroke-width:1.0;"/><path d="M572.5,40 L572.5,65.5273 L552.5,69.5273 L572.5,73.5273 L572.5,99.0547 A0,0 0 0 0 572.5,99.0547 L769.5,99.0547 A0,0 0 0 0 769.5,99.0547 L769.5,50 L759.5,40 L572.5,40 A0,0 0 0 0 572.5,40 " fill="#FEFFDD" style="stroke:#181818;stroke-width:0.5;"/><path d="M759.5,40 L759.5,50 L769.5,50 L759.5,40 " fill="#FEFFDD" style="stroke:#181818;stroke-width:0.5;"/><text fill="#000000" font-family="sans-serif" font-size="13" lengthAdjust="spacing" textLength="107" x="578.5" y="58.4951">GET /api/v1/stores</text><text fill="#000000" font-family="sans-serif" font-size="13" lengthAdjust="spacing" textLength="142" x="578.5" y="74.8467">ou GET /api/v1ores/main</text><text fill="#000000" font-family="sans-serif" font-size="13" lengthAdjust="spacing" textLength="176" x="578.5" y="91.1982">ou GET /api/v1/stores/{storeId}</text><rect fill="#F1F1F1" height="35.0938" rx="12.5" ry="12.5" style="stroke:#181818;stroke-width:0.5;" width="212" x="340.5" y="51.9805"/><text fill="#000000" font-family="sans-serif" font-size="12" lengthAdjust="spacing" textLength="192" x="350.5" y="74.4375">Client envoie requ&#234;te de magasins</text><rect fill="#F1F1F1" height="35.0938" rx="12.5" ry="12.5" style="stroke:#181818;stroke-width:0.5;" width="219" x="337" y="119.0547"/><text fill="#000000" font-family="sans-serif" font-size="12" lengthAdjust="spacing" textLength="199" x="347" y="141.5117">API Gateway (Kong) re&#231;oit la requ&#234;te</text><rect fill="#F1F1F1" height="35.0938" rx="12.5" ry="12.5" style="stroke:#181818;stroke-width:0.5;" width="180" x="356.5" y="174.1484"/><text fill="#000000" font-family="sans-serif" font-size="12" lengthAdjust="spacing" textLength="160" x="366.5" y="196.6055">Store Service traite la requ&#234;te</text><rect fill="#F1F1F1" height="35.0938" rx="12.5" ry="12.5" style="stroke:#181818;stroke-width:0.5;" width="210" x="341.5" y="229.2422"/><text fill="#000000" font-family="sans-serif" font-size="12" lengthAdjust="spacing" textLength="190" x="351.5" y="251.6992">Validation des param&#232;tres dentr&#233;e</text><rect fill="#F1F1F1" height="35.0938" rx="12.5" ry="12.5" style="stroke:#181818;stroke-width:0.5;" width="199" x="347" y="333.2539"/><text fill="#000000" font-family="sans-serif" font-size="12" lengthAdjust="spacing" textLength="179" x="357" y="355.7109">Retourner erreur 400ad Request</text><ellipse cx="446.5" cy="407.3008" fill="none" rx="11" ry="11" style="stroke:#222222;stroke-width:1.0;"/><ellipse cx="446.5" cy="407.3008" fill="#222222" rx="6" ry="6" style="stroke:#222222;stroke-width:1.0;"/><polygon fill="#F1F1F1" points="397.5,284.3359,495.5,284.3359,507.5,296.3359,495.5,308.3359,397.5,308.3359,385.5,296.3359,397.5,284.3359" style="stroke:#181818;stroke-width:0.5;"/><text fill="#000000" font-family="sans-serif" font-size="11" lengthAdjust="spacing" textLength="18" x="450.5" y="319.7549">non</text><text fill="#000000" font-family="sans-serif" font-size="11" lengthAdjust="spacing" textLength="98" x="397.5" y="300.8369">Param&#232;tres valides?</text><text fill="#000000" font-family="sans-serif" font-size="11" lengthAdjust="spacing" textLength="14" x="507.5" y="293.9189">oui</text><path d="M538,450.3008 L538,475.8281 L518,479.8281 L538,483.8281 L538,509.3555 A0,0 0 0 0 538,509.3555 L762,509.3555 A0,0 0 0 0 762,509.3555 L762,460.3008 L752,450.3008 L538,450.3008 A0,0 0 0 0 538,450.3008 " fill="#FEFFDD" style="stroke:#181818;stroke-width:0.5;"/><path d="M752,450.3008 L752,460.3008 L762,460.3008 L752,450.3008 " fill="#FEFFDD" style="stroke:#181818;stroke-width:0.5;"/><text fill="#000000" font-family="sans-serif" font-size="13" lengthAdjust="spacing" textLength="147" x="544" y="468.7959">Recherche dans le cache</text><text fill="#000000" font-family="sans-serif" font-size="13" lengthAdjust="spacing" textLength="125" x="544" y="485.1475">avec la cl&#233; appropri&#233;e</text><text fill="#000000" font-family="sans-serif" font-size="13" lengthAdjust="spacing" textLength="203" x="544" y="501.499">(stores:all, stores:main, stores:{id})</text><rect fill="#F1F1F1" height="35.0938" rx="12.5" ry="12.5" style="stroke:#181818;stroke-width:0.5;" width="143" x="375" y="462.2813"/><text fill="#000000" font-family="sans-serif" font-size="12" lengthAdjust="spacing" textLength="123" x="385" y="484.7383">V&#233;rifier le cache Redis</text><polygon fill="#F1F1F1" points="398,529.3555,495,529.3555,507,541.3555,495,553.3555,398,553.3555,386,541.3555,398,529.3555" style="stroke:#181818;stroke-width:0.5;"/><text fill="#000000" font-family="sans-serif" font-size="11" lengthAdjust="spacing" textLength="97" x="398" y="545.8564">Donn&#233;es en cache?</text><text fill="#000000" font-family="sans-serif" font-size="11" lengthAdjust="spacing" textLength="14" x="372" y="538.9385">oui</text><text fill="#000000" font-family="sans-serif" font-size="11" lengthAdjust="spacing" textLength="18" x="507" y="538.9385">non</text><path d="M355,563.3555 L355,580.707 L335,584.707 L355,588.707 L355,606.0586 A0,0 0 0 0 355,606.0586 L488,606.0586 A0,0 0 0 0 488,606.0586 L488,573.3555 L478,563.3555 L355,563.3555 A0,0 0 0 0 355,563.3555 " fill="#FEFFDD" style="stroke:#181818;stroke-width:0.5;"/><path d="M478,563.3555 L478,573.3555 L488,573.3555 L478,563.3555 " fill="#FEFFDD" style="stroke:#181818;stroke-width:0.5;"/><text fill="#000000" font-family="sans-serif" font-size="13" lengthAdjust="spacing" textLength="112" x="361" y="581.8506">Donn&#233;es format&#233;es</text><text fill="#000000" font-family="sans-serif" font-size="13" lengthAdjust="spacing" textLength="75" x="361" y="598.2021">depuis Redis</text><rect fill="#F1F1F1" height="35.0938" rx="12.5" ry="12.5" style="stroke:#181818;stroke-width:0.5;" width="180" x="155" y="567.1602"/><text fill="#000000" font-family="sans-serif" font-size="12" lengthAdjust="spacing" textLength="160" x="165" y="589.6172">Retourner donn&#233;es du cache</text><path d="M808,563.3555 L808,588.8828 L788,592.8828 L808,596.8828 L808,622.4102 A0,0 0 0 0 808,622.4102 L1018,622.4102 A0,0 0 0 0 1018,622.4102 L1018,573.3555 L1008,563.3555 L808,563.3555 A0,0 0 0 0 808,563.3555 " fill="#FEFFDD" style="stroke:#181818;stroke-width:0.5;"/><path d="M1008,563.3555 L1008,573.3555 L1018,573.3555 L1008,563.3555 " fill="#FEFFDD" style="stroke:#181818;stroke-width:0.5;"/><text fill="#000000" font-family="sans-serif" font-size="13" lengthAdjust="spacing" textLength="117" x="814" y="581.8506">- Tous les magasins</text><text fill="#000000" font-family="sans-serif" font-size="13" lengthAdjust="spacing" textLength="189" x="814" y="598.2021">- Magasin principal (isMain: true)</text><text fill="#000000" font-family="sans-serif" font-size="13" lengthAdjust="spacing" textLength="157" x="814" y="614.5537">- Magasin par ID sp&#233;cifique</text><rect fill="#F1F1F1" height="35.0938" rx="12.5" ry="12.5" style="stroke:#181818;stroke-width:0.5;" width="280" x="508" y="575.3359"/><text fill="#000000" font-family="sans-serif" font-size="12" lengthAdjust="spacing" textLength="260" x="518" y="597.793">Rechercher les magasins en base de donn&#233;es</text><polygon fill="#F1F1F1" points="446.5,628.4102,458.5,640.4102,446.5,652.4102,434.5,640.4102,446.5,628.4102" style="stroke:#181818;stroke-width:0.5;"/><polygon fill="#F1F1F1" points="400.5,672.4102,492.5,672.4102,504.5,684.4102,492.5,696.4102,400.5,696.4102,388.5,684.4102,400.5,672.4102" style="stroke:#181818;stroke-width:0.5;"/><text fill="#000000" font-family="sans-serif" font-size="11" lengthAdjust="spacing" textLength="92" x="400.5" y="688.9111">Magasins trouv&#233;s?</text><text fill="#000000" font-family="sans-serif" font-size="11" lengthAdjust="spacing" textLength="14" x="374.5" y="681.9932">oui</text><text fill="#000000" font-family="sans-serif" font-size="11" lengthAdjust="spacing" textLength="18" x="504.5" y="681.9932">non</text><path d="M338.75,706.4102 L338.75,731.9375 L318.75,735.9375 L338.75,739.9375 L338.75,765.4648 A0,0 0 0 0 338.75,765.4648 L542.75,765.4648 A0,0 0 0 0 542.75,765.4648 L542.75,716.4102 L532.75,706.4102 L338.75,706.4102 A0,0 0 0 0 338.75,706.4102 " fill="#FEFFDD" style="stroke:#181818;stroke-width:0.5;"/><path d="M532.75,706.4102 L532.75,716.4102 L542.75,716.4102 L532.75,706.4102 " fill="#FEFFDD" style="stroke:#181818;stroke-width:0.5;"/><text fill="#000000" font-family="sans-serif" font-size="13" lengthAdjust="spacing" textLength="131" x="344.75" y="724.9053">- Informations magasin</text><text fill="#000000" font-family="sans-serif" font-size="13" lengthAdjust="spacing" textLength="146" x="344.75" y="741.2568">- ID, nom, statut principal</text><text fill="#000000" font-family="sans-serif" font-size="13" lengthAdjust="spacing" textLength="183" x="344.75" y="757.6084">- Relations avec autres services</text><rect fill="#F1F1F1" height="35.0938" rx="12.5" ry="12.5" style="stroke:#181818;stroke-width:0.5;" width="233" x="85.75" y="718.3906"/><text fill="#000000" font-family="sans-serif" font-size="12" lengthAdjust="spacing" textLength="213" x="95.75" y="740.8477">R&#233;cup&#233;rer les donn&#233;es des magasins</text><rect fill="#F1F1F1" height="35.0938" rx="12.5" ry="12.5" style="stroke:#181818;stroke-width:0.5;" width="256" x="562.75" y="706.4102"/><text fill="#000000" font-family="sans-serif" font-size="12" lengthAdjust="spacing" textLength="236" x="572.75" y="728.8672">Enregistrer requ&#234;te &#233;chou&#233;e (Prometheus)</text><rect fill="#F1F1F1" height="35.0938" rx="12.5" ry="12.5" style="stroke:#181818;stroke-width:0.5;" width="195" x="593.25" y="776.5039"/><text fill="#000000" font-family="sans-serif" font-size="12" lengthAdjust="spacing" textLength="175" x="603.25" y="798.9609">Retourner erreur 404 Not Found</text><ellipse cx="690.75" cy="842.5977" fill="none" rx="11" ry="11" style="stroke:#222222;stroke-width:1.0;"/><ellipse cx="690.75" cy="842.5977" fill="#222222" rx="6" ry="6" style="stroke:#222222;stroke-width:1.0;"/><path d="M563.5,869.793 L563.5,887.1445 L543.5,891.1445 L563.5,895.1445 L563.5,912.4961 A0,0 0 0 0 563.5,912.4961 L713.5,912.4961 A0,0 0 0 0 713.5,912.4961 L713.5,879.793 L703.5,869.793 L563.5,869.793 A0,0 0 0 0 563.5,869.793 " fill="#FEFFDD" style="stroke:#181818;stroke-width:0.5;"/><path d="M703.5,869.793 L703.5,879.793 L713.5,879.793 L703.5,869.793 " fill="#FEFFDD" style="stroke:#181818;stroke-width:0.5;"/><text fill="#000000" font-family="sans-serif" font-size="13" lengthAdjust="spacing" textLength="125" x="569.5" y="888.2881">V&#233;rification des droits</text><text fill="#000000" font-family="sans-serif" font-size="13" lengthAdjust="spacing" textLength="129" x="569.5" y="904.6396">d'acc&#232;s aux magasins</text><rect fill="#F1F1F1" height="35.0938" rx="12.5" ry="12.5" style="stroke:#181818;stroke-width:0.5;" width="194" x="349.5" y="873.5977"/><text fill="#000000" font-family="sans-serif" font-size="12" lengthAdjust="spacing" textLength="174" x="359.5" y="896.0547">V&#233;rifier les permissions dacc&#232;s</text><polygon fill="#F1F1F1" points="406.5,932.4961,486.5,932.4961,498.5,944.4961,486.5,956.4961,406.5,956.4961,394.5,944.4961,406.5,932.4961" style="stroke:#181818;stroke-width:0.5;"/><text fill="#000000" font-family="sans-serif" font-size="11" lengthAdjust="spacing" textLength="80" x="406.5" y="948.9971">Acc&#232;s autoris&#233;?</text><text fill="#000000" font-family="sans-serif" font-size="11" lengthAdjust="spacing" textLength="14" x="380.5" y="942.0791">oui</text><text fill="#000000" font-family="sans-serif" font-size="11" lengthAdjust="spacing" textLength="18" x="498.5" y="942.0791">non</text><path d="M267,970.8672 L267,980.043 L247,984.043 L267,988.043 L267,997.2188 A0,0 0 0 0 267,997.2188 L620,997.2188 A0,0 0 0 0 620,997.2188 L620,980.8672 L610,970.8672 L267,970.8672 A0,0 0 0 0 267,970.8672 " fill="#FEFFDD" style="stroke:#181818;stroke-width:0.5;"/><path d="M610,970.8672 L610,980.8672 L620,980.8672 L610,970.8672 " fill="#FEFFDD" style="stroke:#181818;stroke-width:0.5;"/><text fill="#000000" font-family="sans-serif" font-size="13" lengthAdjust="spacing" textLength="332" x="273" y="989.3623">Cache avec TTL de360    pour optimiser les performances</text><rect fill="#F1F1F1" height="35.0938" rx="12.5" ry="12.5" style="stroke:#181818;stroke-width:0.5;" width="222" x="25" y="966.4961"/><text fill="#000000" font-family="sans-serif" font-size="12" lengthAdjust="spacing" textLength="202" x="35" y="988.9531">Mettre en cache les donn&#233;es (Redis)</text><path d="M260,1011.5898 L260,1037.1172 L240,1041.1172 L260,1045.1172 L260,1070.6445 A0,0 0 0 0 260,1070.6445 L452,1070.6445 A0,0 0 0 0 452,1070.6445 L452,1021.5898 L442,1011.5898 L260,1011.5898 A0,0 0 0 0 260,1011.5898 " fill="#FEFFDD" style="stroke:#181818;stroke-width:0.5;"/><path d="M442,1011.5898 L442,1021.5898 L452,1021.5898 L442,1011.5898 " fill="#FEFFDD" style="stroke:#181818;stroke-width:0.5;"/><text fill="#000000" font-family="sans-serif" font-size="13" lengthAdjust="spacing" textLength="131" x="266" y="1030.085">- Informations magasin</text><text fill="#000000" font-family="sans-serif" font-size="13" lengthAdjust="spacing" textLength="171" x="266" y="1046.4365">- Statut principal si applicable</text><text fill="#000000" font-family="sans-serif" font-size="13" lengthAdjust="spacing" textLength="158" x="266" y="1062.7881">- Format JSON standardis&#233;</text><rect fill="#F1F1F1" height="35.0938" rx="12.5" ry="12.5" style="stroke:#181818;stroke-width:0.5;" width="208" x="32" y="1023.5703"/><text fill="#000000" font-family="sans-serif" font-size="12" lengthAdjust="spacing" textLength="188" x="42" y="1046.0273">Formater les donn&#233;es de r&#233;ponse</text><rect fill="#F1F1F1" height="35.0938" rx="12.5" ry="12.5" style="stroke:#181818;stroke-width:0.5;" width="250" x="11" y="1090.6445"/><text fill="#000000" font-family="sans-serif" font-size="12" lengthAdjust="spacing" textLength="230" x="21" y="1113.1016">Enregistrer requ&#234;te r&#233;ussie (Prometheus)</text><path d="M240,1135.7383 L240,1177.6172 L220,1181.6172 L240,1185.6172 L240,1227.4961 A0,0 0 0 0 240,1227.4961 L430,1227.4961 A0,0 0 0 0 430,1227.4961 L430,1145.7383 L420,1135.7383 L240,1135.7383 A0,0 0 0 0 240,1135.7383 " fill="#FEFFDD" style="stroke:#181818;stroke-width:0.5;"/><path d="M420,1135.7383 L420,1145.7383 L430,1145.7383 L420,1135.7383 " fill="#FEFFDD" style="stroke:#181818;stroke-width:0.5;"/><text fill="#000000" font-family="sans-serif" font-size="13" lengthAdjust="spacing" textLength="134" x="246" y="1154.2334">[object Object]   data: {</text><text fill="#000000" font-family="sans-serif" font-size="13" lengthAdjust="spacing" textLength="21" x="258" y="1170.585">id:1</text><text fill="#000000" font-family="sans-serif" font-size="13" lengthAdjust="spacing" textLength="157" x="258" y="1186.9365">name": Magasin Principal",</text><text fill="#000000" font-family="sans-serif" font-size="13" lengthAdjust="spacing" textLength="73" x="258" y="1203.2881">isMain": true</text><text fill="#000000" font-family="sans-serif" font-size="13" lengthAdjust="spacing" textLength="4" x="250" y="1219.6396">}</text><rect fill="#F1F1F1" height="35.0938" rx="12.5" ry="12.5" style="stroke:#181818;stroke-width:0.5;" width="168" x="52" y="1164.0703"/><text fill="#000000" font-family="sans-serif" font-size="12" lengthAdjust="spacing" textLength="148" x="62" y="1186.5273">Retourner r&#233;ponse 200 OK</text><rect fill="#F1F1F1" height="35.0938" rx="12.5" ry="12.5" style="stroke:#181818;stroke-width:0.5;" width="234" x="640" y="966.4961"/><text fill="#000000" font-family="sans-serif" font-size="12" lengthAdjust="spacing" textLength="214" x="650" y="988.9531">Enregistrer acc&#232;s refus&#233; (Prometheus)</text><path d="M874,1011.5898 L874,1037.1172 L854,1041.1172 L874,1045.1172 L874,1070.6445 A0,0 0 0 0 874,1070.6445 L1101,1070.6445 A0,0 0 0 0 1101,1070.6445 L1101,1021.5898 L1091,1011.5898 L874,1011.5898 A0,0 0 0 0 874,1011.5898 " fill="#FEFFDD" style="stroke:#181818;stroke-width:0.5;"/><path d="M1091,1011.5898 L1091,1021.5898 L1101,1021.5898 L1091,1011.5898 " fill="#FEFFDD" style="stroke:#181818;stroke-width:0.5;"/><text fill="#000000" font-family="sans-serif" font-size="13" lengthAdjust="spacing" textLength="205" x="880" y="1030.085">[object Object]error:Access denied,</text><text fill="#000000" font-family="sans-serif" font-size="13" lengthAdjust="spacing" textLength="206" x="880" y="1046.4365">message": "Insufficient permissions</text><text fill="#000000" font-family="sans-serif" font-size="13" lengthAdjust="spacing" textLength="4" x="880" y="1062.7881">}</text><rect fill="#F1F1F1" height="35.0938" rx="12.5" ry="12.5" style="stroke:#181818;stroke-width:0.5;" width="194" x="660" y="1023.5703"/><text fill="#000000" font-family="sans-serif" font-size="12" lengthAdjust="spacing" textLength="174" x="670" y="1046.0273">Retourner erreur 403 Forbidden</text><polygon fill="#F1F1F1" points="446.5,1233.4961,458.5,1245.4961,446.5,1257.4961,434.5,1245.4961,446.5,1233.4961" style="stroke:#181818;stroke-width:0.5;"/><ellipse cx="446.5" cy="1288.4961" fill="none" rx="11" ry="11" style="stroke:#222222;stroke-width:1.0;"/><ellipse cx="446.5" cy="1288.4961" fill="#222222" rx="6" ry="6" style="stroke:#222222;stroke-width:1.0;"/><line style="stroke:#181818;stroke-width:1.0;" x1="446.5" x2="446.5" y1="30" y2="51.9805"/><polygon fill="#181818" points="442.5,41.9805,446.5,51.9805,450.5,41.9805,446.5,45.9805" style="stroke:#181818;stroke-width:1.0;"/><line style="stroke:#181818;stroke-width:1.0;" x1="446.5" x2="446.5" y1="87.0742" y2="119.0547"/><polygon fill="#181818" points="442.5,109.0547,446.5,119.0547,450.5,109.0547,446.5,113.0547" style="stroke:#181818;stroke-width:1.0;"/><line style="stroke:#181818;stroke-width:1.0;" x1="446.5" x2="446.5" y1="154.1484" y2="174.1484"/><polygon fill="#181818" points="442.5,164.1484,446.5,174.1484,450.5,164.1484,446.5,168.1484" style="stroke:#181818;stroke-width:1.0;"/><line style="stroke:#181818;stroke-width:1.0;" x1="446.5" x2="446.5" y1="209.2422" y2="229.2422"/><polygon fill="#181818" points="442.5,219.2422,446.5,229.2422,450.5,219.2422,446.5,223.2422" style="stroke:#181818;stroke-width:1.0;"/><line style="stroke:#181818;stroke-width:1.0;" x1="446.5" x2="446.5" y1="368.3477" y2="396.3008"/><polygon fill="#181818" points="442.5,386.3008,446.5,396.3008,450.5,386.3008,446.5,390.3008" style="stroke:#181818;stroke-width:1.0;"/><line style="stroke:#181818;stroke-width:1.0;" x1="446.5" x2="446.5" y1="308.3359" y2="333.2539"/><polygon fill="#181818" points="442.5,323.2539,446.5,333.2539,450.5,323.2539,446.5,327.2539" style="stroke:#181818;stroke-width:1.0;"/><line style="stroke:#181818;stroke-width:1.0;" x1="507.5" x2="556" y1="296.3359" y2="296.3359"/><polygon fill="#181818" points="552,366.3008,556,376.3008,560,366.3008,556,370.3008" style="stroke:#181818;stroke-width:1.0;"/><line style="stroke:#181818;stroke-width:1.0;" x1="556" x2="556" y1="296.3359" y2="440.3008"/><line style="stroke:#181818;stroke-width:1.0;" x1="556" x2="446.5" y1="440.3008" y2="440.3008"/><line style="stroke:#181818;stroke-width:1.0;" x1="446.5" x2="446.5" y1="440.3008" y2="462.2813"/><polygon fill="#181818" points="442.5,452.2813,446.5,462.2813,450.5,452.2813,446.5,456.2813" style="stroke:#181818;stroke-width:1.0;"/><line style="stroke:#181818;stroke-width:1.0;" x1="446.5" x2="446.5" y1="264.3359" y2="284.3359"/><polygon fill="#181818" points="442.5,274.3359,446.5,284.3359,450.5,274.3359,446.5,278.3359" style="stroke:#181818;stroke-width:1.0;"/><line style="stroke:#181818;stroke-width:1.0;" x1="386" x2="245" y1="541.3555" y2="541.3555"/><line style="stroke:#181818;stroke-width:1.0;" x1="245" x2="245" y1="541.3555" y2="567.1602"/><polygon fill="#181818" points="241,557.1602,245,567.1602,249,557.1602,245,561.1602" style="stroke:#181818;stroke-width:1.0;"/><line style="stroke:#181818;stroke-width:1.0;" x1="507" x2="648" y1="541.3555" y2="541.3555"/><line style="stroke:#181818;stroke-width:1.0;" x1="648" x2="648" y1="541.3555" y2="575.3359"/><polygon fill="#181818" points="644,565.3359,648,575.3359,652,565.3359,648,569.3359" style="stroke:#181818;stroke-width:1.0;"/><line style="stroke:#181818;stroke-width:1.0;" x1="245" x2="245" y1="602.2539" y2="640.4102"/><line style="stroke:#181818;stroke-width:1.0;" x1="245" x2="434.5" y1="640.4102" y2="640.4102"/><polygon fill="#181818" points="424.5,636.4102,434.5,640.4102,424.5,644.4102,428.5,640.4102" style="stroke:#181818;stroke-width:1.0;"/><line style="stroke:#181818;stroke-width:1.0;" x1="648" x2="648" y1="610.4297" y2="640.4102"/><line style="stroke:#181818;stroke-width:1.0;" x1="648" x2="458.5" y1="640.4102" y2="640.4102"/><polygon fill="#181818" points="468.5,636.4102,458.5,640.4102,468.5,644.4102,464.5,640.4102" style="stroke:#181818;stroke-width:1.0;"/><line style="stroke:#181818;stroke-width:1.0;" x1="446.5" x2="446.5" y1="497.375" y2="529.3555"/><polygon fill="#181818" points="442.5,519.3555,446.5,529.3555,450.5,519.3555,446.5,523.3555" style="stroke:#181818;stroke-width:1.0;"/><line style="stroke:#181818;stroke-width:1.0;" x1="690.75" x2="690.75" y1="741.5039" y2="776.5039"/><polygon fill="#181818" points="686.75,766.5039,690.75,776.5039,694.75,766.5039,690.75,770.5039" style="stroke:#181818;stroke-width:1.0;"/><line style="stroke:#181818;stroke-width:1.0;" x1="690.75" x2="690.75" y1="811.5977" y2="831.5977"/><polygon fill="#181818" points="686.75,821.5977,690.75,831.5977,694.75,821.5977,690.75,825.5977" style="stroke:#181818;stroke-width:1.0;"/><line style="stroke:#181818;stroke-width:1.0;" x1="388.5" x2="202.25" y1="684.4102" y2="684.4102"/><line style="stroke:#181818;stroke-width:1.0;" x1="202.25" x2="202.25" y1="684.4102" y2="718.3906"/><polygon fill="#181818" points="198.25,708.3906,202.25,718.3906,206.25,708.3906,202.25,712.3906" style="stroke:#181818;stroke-width:1.0;"/><line style="stroke:#181818;stroke-width:1.0;" x1="504.5" x2="690.75" y1="684.4102" y2="684.4102"/><line style="stroke:#181818;stroke-width:1.0;" x1="690.75" x2="690.75" y1="684.4102" y2="706.4102"/><polygon fill="#181818" points="686.75,696.4102,690.75,706.4102,694.75,696.4102,690.75,700.4102" style="stroke:#181818;stroke-width:1.0;"/><line style="stroke:#181818;stroke-width:1.0;" x1="202.25" x2="202.25" y1="753.4844" y2="858.5977"/><line style="stroke:#181818;stroke-width:1.0;" x1="202.25" x2="446.5" y1="858.5977" y2="858.5977"/><line style="stroke:#181818;stroke-width:1.0;" x1="446.5" x2="446.5" y1="858.5977" y2="873.5977"/><polygon fill="#181818" points="442.5,863.5977,446.5,873.5977,450.5,863.5977,446.5,867.5977" style="stroke:#181818;stroke-width:1.0;"/><line style="stroke:#181818;stroke-width:1.0;" x1="446.5" x2="446.5" y1="652.4102" y2="672.4102"/><polygon fill="#181818" points="442.5,662.4102,446.5,672.4102,450.5,662.4102,446.5,666.4102" style="stroke:#181818;stroke-width:1.0;"/><line style="stroke:#181818;stroke-width:1.0;" x1="136" x2="136" y1="1001.5898" y2="1023.5703"/><polygon fill="#181818" points="132,1013.5703,136,1023.5703,140,1013.5703,136,1017.5703" style="stroke:#181818;stroke-width:1.0;"/><line style="stroke:#181818;stroke-width:1.0;" x1="136" x2="136" y1="1058.6641" y2="1090.6445"/><polygon fill="#181818" points="132,1080.6445,136,1090.6445,140,1080.6445,136,1084.6445" style="stroke:#181818;stroke-width:1.0;"/><line style="stroke:#181818;stroke-width:1.0;" x1="136" x2="136" y1="1125.7383" y2="1164.0703"/><polygon fill="#181818" points="132,1154.0703,136,1164.0703,140,1154.0703,136,1158.0703" style="stroke:#181818;stroke-width:1.0;"/><line style="stroke:#181818;stroke-width:1.0;" x1="757" x2="757" y1="1001.5898" y2="1023.5703"/><polygon fill="#181818" points="753,1013.5703,757,1023.5703,761,1013.5703,757,1017.5703" style="stroke:#181818;stroke-width:1.0;"/><line style="stroke:#181818;stroke-width:1.0;" x1="394.5" x2="136" y1="944.4961" y2="944.4961"/><line style="stroke:#181818;stroke-width:1.0;" x1="136" x2="136" y1="944.4961" y2="966.4961"/><polygon fill="#181818" points="132,956.4961,136,966.4961,140,956.4961,136,960.4961" style="stroke:#181818;stroke-width:1.0;"/><line style="stroke:#181818;stroke-width:1.0;" x1="498.5" x2="757" y1="944.4961" y2="944.4961"/><line style="stroke:#181818;stroke-width:1.0;" x1="757" x2="757" y1="944.4961" y2="966.4961"/><polygon fill="#181818" points="753,956.4961,757,966.4961,761,956.4961,757,960.4961" style="stroke:#181818;stroke-width:1.0;"/><line style="stroke:#181818;stroke-width:1.0;" x1="136" x2="136" y1="1199.1641" y2="1245.4961"/><line style="stroke:#181818;stroke-width:1.0;" x1="136" x2="434.5" y1="1245.4961" y2="1245.4961"/><polygon fill="#181818" points="424.5,1241.4961,434.5,1245.4961,424.5,1249.4961,428.5,1245.4961" style="stroke:#181818;stroke-width:1.0;"/><line style="stroke:#181818;stroke-width:1.0;" x1="757" x2="757" y1="1058.6641" y2="1245.4961"/><line style="stroke:#181818;stroke-width:1.0;" x1="757" x2="458.5" y1="1245.4961" y2="1245.4961"/><polygon fill="#181818" points="468.5,1241.4961,458.5,1245.4961,468.5,1249.4961,464.5,1245.4961" style="stroke:#181818;stroke-width:1.0;"/><line style="stroke:#181818;stroke-width:1.0;" x1="446.5" x2="446.5" y1="908.6914" y2="932.4961"/><polygon fill="#181818" points="442.5,922.4961,446.5,932.4961,450.5,922.4961,446.5,926.4961" style="stroke:#181818;stroke-width:1.0;"/><line style="stroke:#181818;stroke-width:1.0;" x1="446.5" x2="446.5" y1="1257.4961" y2="1277.4961"/><polygon fill="#181818" points="442.5,1267.4961,446.5,1277.4961,450.5,1267.4961,446.5,1271.4961" style="stroke:#181818;stroke-width:1.0;"/><!--SRC=[bLNBRjim4BpxAnQvr09Is6c27kn34UG5DtKIs4OlHG-qkBPPIAJAXziYoFSqxc_enxgaPDcIdA0zILeEnPdPMSbOfcsdCxX814eBADTA86Zyxl8_5e4Zf6p9Z91cs96AAbeiLxO3S7CrWnxBH6zzqZDMQJHKL6w_xekzb0dPMYbtz1x3TSIVEYWv-FSJbVE74TmmYp_OB-ZUAhcCY4_-MmaB2Qke3GavzRjXYdejOWIhcI223SndbWZEh52In1Z8c6Pf_cpfT7gMLkSRWea5T1_sLjP-4veF4TWLIkWg9w8E9WQXAvMCICzWWbOvBL43QerEmrc_ppXCw6WqTaWGqfPvNMBXQUGRBHQ2u0b2pE8L4fIBfgiJf1NjLpcJfiBI2bjZxBN5IRu1bcLQPLeGULhg5cuEM98SGtdlRQyU7WL_YlOizd8lbPIqtL3BYpFgOciA-HRBNO7rycgy0QhtBPHEcVMteSunSy8KOgbGaMYwMUhs_fWgSvxSd9cGmos90sU_XPbofhQph8-BHo2lP2moba1Nc35vCw2uE8oQCAPXT0acopSnTOjQMQDSzDAxDzuIj5gvTRunRVVe5OxUeqj9Em_tM1xKCfA5XHJP2hbTkZmcVEeRowopErdb-WIJSb-82tCXpQOOa5Vilv8Qby9OJxQQVHAmKeuuqsnebIBfSoOQlX3-CxXJ5gwLa_pLyDC8eaw5CO4cPt6SFpUdeCJ7kx7bciRV2-1lYXsaxUUksVLedsyHb7vXyashDsEq9BLAVhq_tH3Lw41hBW8uE3kRVI9Uf-_xlfwH5w0oAqZMJcDeecpO3k3FlmxzRGS3w6kKaItulxcODk80HlXlH48MpXCiGSMfy75wV-Vp8pdJtDlJvdSm3iJDKTVQQQW7OYi1tlNxS7_RLl95pRzXRE4-NBxwJmIpR02FWIQ0u8EJybQo58y6rNG-REKT7M-nOPQFYc4EjQU6cfTpNkP8uyAH2V-KyLFluLnm-d4Sw5136ErIUa1PH1D-DG9vGJkb0bjwOKSZQTo2WXx-lNjpqPPIZb8Ogxy0]--></g></svg>