<?xml version="1.0" encoding="us-ascii" standalone="no"?><svg xmlns="http://www.w3.org/2000/svg" xmlns:xlink="http://www.w3.org/1999/xlink" contentStyleType="text/css" height="423px" preserveAspectRatio="none" style="width:965px;height:423px;background:#FFFFFF;" version="1.1" viewBox="0 0 965 423" width="965px" zoomAndPan="magnify"><defs/><g><text fill="#000000" font-family="sans-serif" font-size="14" font-weight="bold" lengthAdjust="spacing" textLength="296" x="336" y="27.9951">Processus de recherche d'un produit</text><line style="stroke:#181818;stroke-width:0.5;stroke-dasharray:5.0,5.0;" x1="42" x2="42" y1="120.8906" y2="416.0859"/><line style="stroke:#181818;stroke-width:0.5;stroke-dasharray:5.0,5.0;" x1="308.5" x2="308.5" y1="120.8906" y2="416.0859"/><line style="stroke:#181818;stroke-width:0.5;stroke-dasharray:5.0,5.0;" x1="689.5" x2="689.5" y1="120.8906" y2="416.0859"/><line style="stroke:#181818;stroke-width:0.5;stroke-dasharray:5.0,5.0;" x1="898" x2="898" y1="120.8906" y2="416.0859"/><text fill="#000000" font-family="sans-serif" font-size="14" lengthAdjust="spacing" textLength="68" x="5" y="117.5889">Utilisateur</text><ellipse cx="42" cy="53.0938" fill="#E2E2F0" rx="8" ry="8" style="stroke:#181818;stroke-width:0.5;"/><path d="M42,61.0938 L42,88.0938 M29,69.0938 L55,69.0938 M42,88.0938 L29,103.0938 M42,88.0938 L55,103.0938 " fill="none" style="stroke:#181818;stroke-width:0.5;"/><rect fill="#E2E2F0" height="30.2969" rx="2.5" ry="2.5" style="stroke:#181818;stroke-width:0.5;" width="79" x="269.5" y="89.5938"/><text fill="#000000" font-family="sans-serif" font-size="14" lengthAdjust="spacing" textLength="65" x="276.5" y="109.5889">CLI (cli.ts)</text><rect fill="#E2E2F0" height="30.2969" rx="2.5" ry="2.5" style="stroke:#181818;stroke-width:0.5;" width="253" x="563.5" y="89.5938"/><text fill="#000000" font-family="sans-serif" font-size="14" lengthAdjust="spacing" textLength="239" x="570.5" y="109.5889">ProductService (productService.ts)</text><text fill="#000000" font-family="sans-serif" font-size="14" lengthAdjust="spacing" textLength="108" x="841" y="101.292">AppDataSource</text><text fill="#000000" font-family="sans-serif" font-size="14" lengthAdjust="spacing" textLength="126" x="832" y="117.5889">(TypeORM/SQLite)</text><path d="M880,52.2969 C880,42.2969 898,42.2969 898,42.2969 C898,42.2969 916,42.2969 916,52.2969 L916,78.2969 C916,88.2969 898,88.2969 898,88.2969 C898,88.2969 880,88.2969 880,78.2969 L880,52.2969 " fill="#E2E2F0" style="stroke:#181818;stroke-width:1.5;"/><path d="M880,52.2969 C880,62.2969 898,62.2969 898,62.2969 C898,62.2969 916,62.2969 916,52.2969 " fill="none" style="stroke:#181818;stroke-width:1.5;"/><polygon fill="#181818" points="297,148.0234,307,152.0234,297,156.0234" style="stroke:#181818;stroke-width:1.0;"/><line style="stroke:#181818;stroke-width:1.0;" x1="42" x2="303" y1="152.0234" y2="152.0234"/><text fill="#000000" font-family="sans-serif" font-size="13" lengthAdjust="spacing" textLength="194" x="49" y="146.9575">Choisir 'Rechercher un produit'</text><line style="stroke:#181818;stroke-width:1.0;" x1="309" x2="351" y1="181.1563" y2="181.1563"/><line style="stroke:#181818;stroke-width:1.0;" x1="351" x2="351" y1="181.1563" y2="194.1563"/><line style="stroke:#181818;stroke-width:1.0;" x1="310" x2="351" y1="194.1563" y2="194.1563"/><polygon fill="#181818" points="320,190.1563,310,194.1563,320,198.1563" style="stroke:#181818;stroke-width:1.0;"/><text fill="#000000" font-family="sans-serif" font-size="13" lengthAdjust="spacing" textLength="98" x="316" y="176.0903">handleSearch()</text><polygon fill="#181818" points="53,219.2891,43,223.2891,53,227.2891" style="stroke:#181818;stroke-width:1.0;"/><line style="stroke:#181818;stroke-width:1.0;" x1="47" x2="308" y1="223.2891" y2="223.2891"/><text fill="#000000" font-family="sans-serif" font-size="13" lengthAdjust="spacing" textLength="243" x="59" y="218.2231">Demander crit&#232;re (id, nom, cat&#233;gorie)</text><polygon fill="#181818" points="297,248.4219,307,252.4219,297,256.4219" style="stroke:#181818;stroke-width:1.0;"/><line style="stroke:#181818;stroke-width:1.0;" x1="42" x2="303" y1="252.4219" y2="252.4219"/><text fill="#000000" font-family="sans-serif" font-size="13" lengthAdjust="spacing" textLength="204" x="49" y="247.356">Saisir crit&#232;re (number ou string)</text><polygon fill="#181818" points="678,277.5547,688,281.5547,678,285.5547" style="stroke:#181818;stroke-width:1.0;"/><line style="stroke:#181818;stroke-width:1.0;" x1="309" x2="684" y1="281.5547" y2="281.5547"/><text fill="#000000" font-family="sans-serif" font-size="13" lengthAdjust="spacing" textLength="125" x="316" y="276.4888">findProducts(string)</text><polygon fill="#181818" points="886,306.6875,896,310.6875,886,314.6875" style="stroke:#181818;stroke-width:1.0;"/><line style="stroke:#181818;stroke-width:1.0;" x1="690" x2="892" y1="310.6875" y2="310.6875"/><text fill="#000000" font-family="sans-serif" font-size="13" lengthAdjust="spacing" textLength="184" x="697" y="305.6216">getRepository(Product).find()</text><polygon fill="#181818" points="701,335.8203,691,339.8203,701,343.8203" style="stroke:#181818;stroke-width:1.0;"/><line style="stroke:#181818;stroke-width:1.0;stroke-dasharray:2.0,2.0;" x1="695" x2="897" y1="339.8203" y2="339.8203"/><text fill="#000000" font-family="sans-serif" font-size="13" lengthAdjust="spacing" textLength="149" x="707" y="334.7544">informations du produit</text><polygon fill="#181818" points="320,364.9531,310,368.9531,320,372.9531" style="stroke:#181818;stroke-width:1.0;"/><line style="stroke:#181818;stroke-width:1.0;stroke-dasharray:2.0,2.0;" x1="314" x2="689" y1="368.9531" y2="368.9531"/><text fill="#000000" font-family="sans-serif" font-size="13" lengthAdjust="spacing" textLength="357" x="326" y="363.8872">Information du produit (id, name, category, price, stock)</text><polygon fill="#181818" points="53,394.0859,43,398.0859,53,402.0859" style="stroke:#181818;stroke-width:1.0;"/><line style="stroke:#181818;stroke-width:1.0;" x1="47" x2="308" y1="398.0859" y2="398.0859"/><text fill="#000000" font-family="sans-serif" font-size="13" lengthAdjust="spacing" textLength="108" x="59" y="393.02">Afficher r&#233;sultats</text><!--SRC=[TLBBRi8m4BpxArPS21BGEuTA22v8LAMalVLYd0LM97QqNbVYZyfty6DTKWWFjOT4ydfcTcVMSKU-jcmhYB8lKVzCJb9L6YCaMbXmS1XZYb0WCBejidvGT9E7caEHI8nr4XW-X4gALZ2nKKaXHxNr0ft9V0QPAsaeiTS16q4BzuZ5ISX9Zln53Y6hxyujxnvc2YjsPID2PrpNKpta8R73Jv-zxsjyNRuyvMzp4lmbJyzeOsu6XS7pQHeOmMGRA193Ttdno72rs3KdL0lUMb-KcADLNDQxtDtgZc2AbQ9KnJ79yPlL5XLzyA7gWxDoF6m24_R-dYQtpJ1Nga_LIhL2QZRaDstJX-X6i2PVd8inku0VKCgxnA6C3SeIwn19jxZFpj3Uy2IavbhWuAzkvDU1AoiKlBwGr3w9nuQjizcLS8C_PsChRC91pMRVrqlbzjLnSBj_KXwlrzJiYe-7c4gn4iqF]--></g></svg>