<?xml version="1.0" encoding="us-ascii" standalone="no"?><svg xmlns="http://www.w3.org/2000/svg" xmlns:xlink="http://www.w3.org/1999/xlink" contentStyleType="text/css" height="351px" preserveAspectRatio="none" style="width:1060px;height:351px;background:#FFFFFF;" version="1.1" viewBox="0 0 1060 351" width="1060px" zoomAndPan="magnify"><defs/><g><text fill="#000000" font-family="sans-serif" font-size="14" font-weight="bold" lengthAdjust="spacing" textLength="598" x="232.75" y="27.9951">Processus de recherche d'un produit (multi-magasin, Express, PostgreSQL)</text><line style="stroke:#181818;stroke-width:0.5;stroke-dasharray:5.0,5.0;" x1="42" x2="42" y1="120.8906" y2="344.8203"/><line style="stroke:#181818;stroke-width:0.5;stroke-dasharray:5.0,5.0;" x1="260" x2="260" y1="120.8906" y2="344.8203"/><line style="stroke:#181818;stroke-width:0.5;stroke-dasharray:5.0,5.0;" x1="576" x2="576" y1="120.8906" y2="344.8203"/><line style="stroke:#181818;stroke-width:0.5;stroke-dasharray:5.0,5.0;" x1="771.5" x2="771.5" y1="120.8906" y2="344.8203"/><line style="stroke:#181818;stroke-width:0.5;stroke-dasharray:5.0,5.0;" x1="1015.5" x2="1015.5" y1="120.8906" y2="344.8203"/><text fill="#000000" font-family="sans-serif" font-size="14" lengthAdjust="spacing" textLength="68" x="5" y="117.5889">Utilisateur</text><ellipse cx="42" cy="53.0938" fill="#E2E2F0" rx="8" ry="8" style="stroke:#181818;stroke-width:0.5;"/><path d="M42,61.0938 L42,88.0938 M29,69.0938 L55,69.0938 M42,88.0938 L29,103.0938 M42,88.0938 L55,103.0938 " fill="none" style="stroke:#181818;stroke-width:0.5;"/><rect fill="#E2E2F0" height="30.2969" rx="2.5" ry="2.5" style="stroke:#181818;stroke-width:0.5;" width="122" x="199" y="89.5938"/><text fill="#000000" font-family="sans-serif" font-size="14" lengthAdjust="spacing" textLength="108" x="206" y="109.5889">Navigateur Web</text><rect fill="#E2E2F0" height="46.5938" rx="2.5" ry="2.5" style="stroke:#181818;stroke-width:0.5;" width="158" x="497" y="73.2969"/><text fill="#000000" font-family="sans-serif" font-size="14" lengthAdjust="spacing" textLength="70" x="541" y="93.292">Express.js</text><text fill="#000000" font-family="sans-serif" font-size="14" lengthAdjust="spacing" textLength="144" x="504" y="109.5889">(serviceApiRouter.ts)</text><rect fill="#E2E2F0" height="46.5938" rx="2.5" ry="2.5" style="stroke:#181818;stroke-width:0.5;" width="145" x="699.5" y="73.2969"/><text fill="#000000" font-family="sans-serif" font-size="14" lengthAdjust="spacing" textLength="104" x="720" y="93.292">ProductService</text><text fill="#000000" font-family="sans-serif" font-size="14" lengthAdjust="spacing" textLength="131" x="706.5" y="109.5889">(productService.ts)</text><text fill="#000000" font-family="sans-serif" font-size="14" lengthAdjust="spacing" textLength="81" x="972.5" y="101.292">PostgreSQL</text><text fill="#000000" font-family="sans-serif" font-size="14" lengthAdjust="spacing" textLength="77" x="974.5" y="117.5889">(TypeORM)</text><path d="M998,52.2969 C998,42.2969 1016,42.2969 1016,42.2969 C1016,42.2969 1034,42.2969 1034,52.2969 L1034,78.2969 C1034,88.2969 1016,88.2969 1016,88.2969 C1016,88.2969 998,88.2969 998,78.2969 L998,52.2969 " fill="#E2E2F0" style="stroke:#181818;stroke-width:1.5;"/><path d="M998,52.2969 C998,62.2969 1016,62.2969 1016,62.2969 C1016,62.2969 1034,62.2969 1034,52.2969 " fill="none" style="stroke:#181818;stroke-width:1.5;"/><polygon fill="#181818" points="248,148.0234,258,152.0234,248,156.0234" style="stroke:#181818;stroke-width:1.0;"/><line style="stroke:#181818;stroke-width:1.0;" x1="42" x2="254" y1="152.0234" y2="152.0234"/><text fill="#000000" font-family="sans-serif" font-size="13" lengthAdjust="spacing" textLength="194" x="49" y="146.9575">Choisir 'Rechercher un produit'</text><polygon fill="#181818" points="564,177.1563,574,181.1563,564,185.1563" style="stroke:#181818;stroke-width:1.0;"/><line style="stroke:#181818;stroke-width:1.0;" x1="260" x2="570" y1="181.1563" y2="181.1563"/><text fill="#000000" font-family="sans-serif" font-size="13" lengthAdjust="spacing" textLength="215" x="267" y="176.0903">GET /search?term=...&amp;storeId=...</text><polygon fill="#181818" points="760,206.2891,770,210.2891,760,214.2891" style="stroke:#181818;stroke-width:1.0;"/><line style="stroke:#181818;stroke-width:1.0;" x1="576" x2="766" y1="210.2891" y2="210.2891"/><text fill="#000000" font-family="sans-serif" font-size="13" lengthAdjust="spacing" textLength="172" x="583" y="205.2231">findProducts(term, storeId)</text><polygon fill="#181818" points="1004,235.4219,1014,239.4219,1004,243.4219" style="stroke:#181818;stroke-width:1.0;"/><line style="stroke:#181818;stroke-width:1.0;" x1="772" x2="1010" y1="239.4219" y2="239.4219"/><text fill="#000000" font-family="sans-serif" font-size="13" lengthAdjust="spacing" textLength="220" x="779" y="234.356">getRepository(Product).find({ ... })</text><polygon fill="#181818" points="783,264.5547,773,268.5547,783,272.5547" style="stroke:#181818;stroke-width:1.0;"/><line style="stroke:#181818;stroke-width:1.0;stroke-dasharray:2.0,2.0;" x1="777" x2="1015" y1="268.5547" y2="268.5547"/><text fill="#000000" font-family="sans-serif" font-size="13" lengthAdjust="spacing" textLength="149" x="789" y="263.4888">informations du produit</text><polygon fill="#181818" points="587,293.6875,577,297.6875,587,301.6875" style="stroke:#181818;stroke-width:1.0;"/><line style="stroke:#181818;stroke-width:1.0;stroke-dasharray:2.0,2.0;" x1="581" x2="771" y1="297.6875" y2="297.6875"/><text fill="#000000" font-family="sans-serif" font-size="13" lengthAdjust="spacing" textLength="90" x="593" y="292.6216">produit trouv&#233;</text><polygon fill="#181818" points="271,322.8203,261,326.8203,271,330.8203" style="stroke:#181818;stroke-width:1.0;"/><line style="stroke:#181818;stroke-width:1.0;stroke-dasharray:2.0,2.0;" x1="265" x2="575" y1="326.8203" y2="326.8203"/><text fill="#000000" font-family="sans-serif" font-size="13" lengthAdjust="spacing" textLength="292" x="277" y="321.7544">Afficher r&#233;sultats (nom, cat&#233;gorie, prix, stock)</text><!--SRC=[RPBFRXD13CRlynHM3sHNIhPt940LL0Y9jY4jui9bEkjiJRCpAziJDK8yK9uZBuOttKrPuB1_P7q_-_iiooF5phDlGNItGNip1StjnZabjSAIKq2HB50ZC8O7P7kWdkK87QSwaqBHvetIelMD5ufpk7pgs9WvB9DemtZxvNFfd0-Q6BugRKYyOcPdWvK2TJugd5txBJN7Edp3-pFmqd-dcg5nzKE-nqAGjnJmegDLoefSgPH7R51DqMNlDUZjCsHuDocSuAdErLxzlHUq1gSi1j_jEhnPNJqZ7mQDSt-4WyNRtZ-yXlSFYOGOPgjnUmmlovkvNcNYmRK17o_lu5pGc_ITvMhVL5NrIcnv-Adk_zqeDMfgr-0rnNeeIj7JSnZGqlqbDdoqRc23ki8k2PbwLmpIikhx5J_1niAlqftqY__DfhXEt7gb5ErSyXZndxcJjECHAQUyFUnVmfqMUB5Uqt5hVDYBNPfNWI8cInQy7lPDOiAvzQ6dOzRmMBhV]--></g></svg>